<?xml version="1.0" encoding="UTF-8"?>
<svg id="svg1" xmlns="http://www.w3.org/2000/svg" version="1.1" xmlns:inkscape="http://www.inkscape.org/namespaces/inkscape" xmlns:sodipodi="http://sodipodi.sourceforge.net/DTD/sodipodi-0.dtd" xmlns:svg="http://www.w3.org/2000/svg" viewBox="0 0 546.04 169.85">
  <!-- Generator: Adobe Illustrator 30.1.0, SVG Export Plug-In . SVG Version: 2.1.1 Build 136)  -->
  <sodipodi:namedview id="namedview1" bordercolor="#000000" borderopacity="0.25" inkscape:current-layer="layer-MC0" inkscape:cx="432.94984" inkscape:cy="343.28031" inkscape:deskcolor="#d1d1d1" inkscape:pagecheckerboard="0" inkscape:pageopacity="0.0" inkscape:showpageshadow="2" inkscape:window-height="2054" inkscape:window-maximized="1" inkscape:window-width="7680" inkscape:window-x="-11" inkscape:window-y="-11" inkscape:zoom="1.656081" pagecolor="#ffffff">
    <inkscape:page id="page1" x="0" y="0" width="733.33331" height="493.33334" bleed="0" inkscape:export-filename="Logo.svg" inkscape:export-xdpi="96" inkscape:export-ydpi="96" inkscape:label="1" margin="136.68134 94.255997 187.26401 94.256531"/>
    <inkscape:page id="page18" x="753.33333" y="0" width="733.33333" height="493.33333" inkscape:label="2"/>
    <inkscape:page id="page37" x="1506.6667" y="0" width="733.33333" height="493.33333" inkscape:label="3" margin="136.73466667 96.91066667 141.016 91.69173333"/>
    <inkscape:page id="page55" x="2260" y="0" width="733.33333" height="493.33333" inkscape:label="4"/>
  </sodipodi:namedview>
  <g id="layer-MC0" inkscape:groupmode="layer" inkscape:label="Layer 1">
    <path id="path1" d="M159.15,134.37c-1.14,0-2.45-.06-3.94-.17-1.49-.11-3.02-.41-4.58-.88-1.14-.23-2.38-.64-3.73-1.23-1.35-.58-2.77-1.58-4.26-2.98-1.49-1.4-3.13-3.33-4.9-5.78-1.78-2.45-3.59-5.6-5.43-9.46-2.13-4.43-4.79-9.98-7.99-16.63-3.2-6.65-6.54-13.69-10.02-21.1-3.48-7.41-7-14.91-10.55-22.5-3.55-7.59-6.79-14.56-9.7-20.93-2.91-6.36-5.4-11.76-7.46-16.2-2.06-4.43-3.38-7.18-3.94-8.23-1.28-2.68-2.2-4.4-2.77-5.17-.54-.72-1.15-1.09-1.81-1.13l-.02,5.31-.02-5.31c-.63.04-1.19.41-1.7,1.13-.53.76-1.4,2.48-2.6,5.17-.53,1.05-1.76,3.8-3.7,8.23-1.93,4.44-4.26,9.84-6.99,16.2-2.73,6.37-5.76,13.34-9.09,20.93-3.33,7.59-6.63,15.09-9.89,22.5-3.26,7.41-6.39,14.45-9.39,21.1-3,6.65-5.49,12.2-7.49,16.63-1.73,3.85-3.43,7.01-5.1,9.46-1.66,2.45-3.2,4.38-4.6,5.78-1.4,1.4-2.73,2.39-4,2.98-1.27.59-2.43.99-3.5,1.23-1.46.47-2.9.76-4.3.88-1.4.12-2.63.17-3.7.17-1.33,0-2,.35-2,1.05,0,.59.4.96,1.2,1.14.8.17,1.73.26,2.8.26h11.79c2.8,0,5.9-.03,9.29-.09,1.33-.02,2.66-.05,3.99-.08.27,0,7.88,0,18.85,0,0-.93,0-1.88.05-2.87.08-1.82-.1-2.25-.13-2.32,0,0-.02-.03-.07-.07-1.84-1.64-2.96-4-2.99-6.31-.02-1.93-.05-3.87-.08-5.81-.11-7.24-.21-14.73-.14-22.14.11-10.3,4.89-19,14.2-25.87,2.29-1.69,4.63-3.36,6.89-4.98,2.77-1.98,5.63-4.03,8.37-6.08.66-.49,2.67-2,5.51-2s4.87,1.53,5.54,2.03c2.86,2.15,5.85,4.29,8.74,6.35,2.21,1.58,4.49,3.21,6.74,4.86,9.3,6.83,14.2,16.34,14.16,27.5-.01,4.62-.2,9.25-.38,13.73-.09,2.22-.18,4.52-.25,6.77,0,.27,0,.66.03,1.07.04.93.09,2.09-.07,3.4-.23,1.89-.74,3.53-1.2,4.98v.04c-.33,1-.7,1.89-1.04,2.68-.22.52-.55,1.3-.63,1.63,0,1.13.02,2.27.05,3.42,8.78,0,15.72,0,19.02,0,1.43.03,2.86.06,4.28.08,3.62.06,6.93.09,9.91.09h12.57c1.13,0,2.13-.09,2.98-.26.85-.18,1.28-.55,1.28-1.14,0-.7-.71-1.05-2.13-1.05" fill="#f6f9fd"/>
    <path id="path3" d="M53.6,87.66s-.03-.03-.04-.04c.06-.06.11-.13.17-.19-.04.08-.08.15-.13.23M107.42,119.23c.21-6.77.6-13.54.62-20.32.03-9.29-4-16.64-11.44-22.11-5.15-3.79-10.42-7.42-15.53-11.25-1.21-.91-1.84-.93-3.05-.02-5.04,3.78-10.23,7.36-15.3,11.09-6.93,5.11-11.4,11.71-11.49,20.58-.1,9.26.1,18.53.22,27.79,0,.48.37,1.08.76,1.42,2.34,2.09,2.56,4.79,2.43,7.66-.16,3.53.22,7.14-.42,10.57-.78,4.16.46,7.55,2.45,10.94.73,1.24,1.49,2.45,2.29,3.63,2.64,3.87,5.76,7.43,9.8,10.64.39-1.2.85-1.98.87-2.78.08-2.62.17-5.24.26-7.86.22-6.57.43-13.15.45-19.72.02-6.12-.42-12.24-.83-18.35-.04-.63-1.18-1.53-1.94-1.71-2.53-.59-5.13-.85-7.68-1.35-4.17-.81-4.15-.85-3.66-5,.16-1.38.23-2.78.43-4.15.47-3.19.99-3.59,4.18-2.66,4.96,1.44,9.87,3.02,15.35,4.71-1.15,4.44-2.39,8.87-3.41,13.35-.24,1.04-.17,2.76.48,3.31,5.79,4.88,5.93,4.77,12.11.47,1.41-.98,1.59-1.85,1.13-3.42-1.32-4.51-2.44-9.09-3.7-13.91,1.94-.5,3.2-.77,4.43-1.14,3.81-1.16,7.59-2.42,11.41-3.51,2.05-.58,3.67-.22,3.81,2.45.11,2.04.36,4.07.66,6.09.27,1.86-.46,2.77-2.29,3.06-3.11.49-6.23,1-9.29,1.7-.77.18-1.91,1.08-1.95,1.71-.41,6.66-.86,13.33-.85,20,0,6.02.2,12.05.41,18.07.1,2.7.2,5.41.29,8.11.03.74.61,1.47,1.05,2.47,3.88-3.19,7-6.74,9.62-10.58,1.93-2.84,3.58-5.83,5.05-8.97.18-.38.14-.89.12-1.34-.28-5.28-.79-10.56-.75-15.84.02-2.05,1.31-4.08,1.95-6.13.39-1.26.8-2.53.96-3.83.15-1.27-.05-2.58,0-3.87" fill="#f6f9fd"/>
    <path id="path5" d="M258.98,44.37c0,5.99-1.14,11.1-3.37,15.18-2.22,4.04-4.97,7-8.21,8.81-2.11,1.2-4.43,1.99-6.92,2.34-2.66.38-5.22.57-7.63.57-4.5,0-8.88-.25-13.02-.74-4.93-.59-7.02-1.25-7.89-1.7l-.09-.05s-.07-.04-.1-.05V13.84c1.04-.19,2.72-.39,4.99-.6,2.44-.22,5.26-.33,8.38-.33,10.64,0,19.05,2.8,24.99,8.33,5.98,5.56,8.89,13.13,8.89,23.13M330.83,128.2c-.69,0-1.75-.03-3.05-.08-1.34-.05-2.97-.19-4.82-.41-2.49-.32-5.86-1.19-10.02-2.6-4.03-1.36-8.84-4.4-14.3-9.02-6.05-5.21-12.69-11.53-19.74-18.78l-21.82-22.44c8.45-6.57,14.56-12.99,18.17-19.09,3.97-6.7,5.98-13.49,5.98-20.2,0-3.23-.59-6.26-1.75-9.02-1.12-2.65-2.49-5.03-4.07-7.1-1.56-2.04-3.26-3.84-5.06-5.35-1.75-1.47-3.31-2.64-4.72-3.52-5.83-3.41-12.29-5.59-19.21-6.47-6.7-.85-13.53-1.29-20.29-1.29-1.66,0-3.73.03-6.33.09-2.51.06-5.06.11-7.64.17-2.59.06-4.89.11-6.92.17-1.99.06-3.26.08-3.81.08-.27,0-1.19-.03-2.75-.08-1.61-.06-3.57-.11-5.89-.17-2.3-.05-4.79-.11-7.44-.17-2.71-.06-5.26-.09-7.59-.09-4.95,0-5.69,2.31-5.69,3.69,0,1.55,1.05,3.35,4.01,3.35.93,0,2.13.03,3.57.08,1.61.06,2.49.22,2.94.35l.23.05c3.75.61,5.01,1.61,5.42,2.15.84,1.1,1.39,2.92,1.63,5.41.13,1.3.24,2.71.3,4.18.07,1.51.1,3.55.1,6.06v55.76c0,7.95-.04,15.25-.11,21.69-.07,6.23-.38,11.15-.91,14.59-.38,2.26-.92,4.17-1.6,5.67-.29.65-.85,1.43-2.54,1.7l-.16.03c-.87.2-1.83.36-2.85.46-1.02.1-2,.16-2.9.16-2.96,0-4.01,1.81-4.01,3.35,0,1.38.74,3.69,5.69,3.69,1.54,0,3.4-.03,5.71-.08l6.49-.17c2.1-.06,4.62-.14,7.47-.25.27,0,1.18.03,2.75.08,1.61.05,3.64.11,6.1.17,2.44.06,5.13.11,8.07.17,2.97.06,5.95.08,8.84.08,4.95,0,5.69-2.31,5.69-3.69,0-1.55-1.05-3.35-4.01-3.35-.94,0-2.34-.05-4.15-.17-1.81-.11-3.47-.27-4.92-.49h-.1c-1.66-.19-3.78-.65-4.5-1.9-.81-1.4-1.34-3.2-1.59-5.34v-.1c-.55-3.48-.86-8.4-.93-14.62-.07-6.24-.11-13.33-.11-21.69v-3.06l24.88.33c.25,0,.63.04,1.11.39.97,1.12,2.32,2.59,3.99,4.37,1.71,1.82,3.6,3.88,5.62,6.13,2.02,2.26,4.15,4.62,6.39,7.1,2.19,2.43,4.46,4.89,6.73,7.3,5.98,6.4,11.15,11.74,15.35,15.87,4.38,4.3,8.99,7.5,13.63,9.49,2.85,1.33,6.03,2.25,9.46,2.73,3.31.46,8,.7,13.93.7h14.86c2.88,0,3.96-.18,4.53-.32,2.09-.51,2.83-2.07,2.83-3.37,0-.34-.12-3.35-4.22-3.35" fill="#f6f9fd"/>
    <path id="path7" d="M436.13,107.76c-1.41,0-3.27.75-4.15,4.31l-.02.1c-.63,3.13-1.54,5.51-2.72,7.08-1.09,1.46-2.82,2.57-5.13,3.32-2.57.83-5.75,1.33-9.43,1.49-3.86.17-7.21.25-9.95.25-5.06,0-9.13-.17-12.1-.49-2.73-.3-4.85-.88-6.3-1.73-1.26-.73-2.08-1.7-2.53-2.97-.55-1.58-.89-3.72-1.02-6.38v-42.54c.97.01,2.45.04,4.42.08,2.72.06,5.66.11,8.8.17,3.13.06,6.22.14,9.17.25,2.94.11,5.13.22,6.49.33,4.63.39,6.28,1.25,6.85,1.73,1.06.9,1.74,1.78,2.04,2.66.34.92.54,1.71.59,2.33.07.79.1,1.61.1,2.43,0,2.31,1.53,3.86,3.81,3.86,1.81,0,3.21-1.18,3.56-3.01.17-.88.25-1.74.25-2.54,0-.14,0-.56.1-1.59.07-.85.14-1.82.21-2.91l.21-3.21c.07-.99.16-1.92.29-2.75l.02-.13c.26-2.66.59-4.68.97-6.01.5-1.74.72-2.87.72-3.69,0-2.54-1.75-3.69-3.39-3.69-1.29,0-2.58.77-4.73,2.82-.63.58-1.45.94-2.52,1.09-1.47.22-3.47.44-5.94.66-1.19.11-3.46.19-6.74.24-3.27.06-6.75.08-10.64.08h-14.62V14.09h3.73c2.7,0,5.72.03,8.96.08l9.21.17c3.53.07,4.88.17,5.46.24,6.89.7,9.37,1.57,10.24,2.02,1.38.73,2.31,1.56,2.81,2.52.41.74.67,1.59.77,2.51.13,1.17.19,1.99.19,2.45,0,3.35,2.16,4.54,4.01,4.54,1.29,0,2.39-.67,3.01-1.83.27-.51.51-1.08.69-1.68.19-.63.33-1.53.41-2.82.07-1.02.17-2.12.3-3.26.14-1.21.25-2.36.32-3.41.07-1,.1-1.71.11-2.21.32-2.63.67-4,.91-4.69.52-1.47.76-2.55.76-3.4,0-2.85-1.71-3.86-3.18-3.86-.94,0-1.81.21-2.58.62-.21.11-.48.2-.75.26-1.85.32-4.77.59-8.67.81-1.3,0-4.39.03-9.28.08-4.85.06-10.08.09-15.99.09h-22.52s-8.57-.34-8.57-.34c-2.44-.11-5.01-.17-7.65-.17h-7.54c-4.95,0-5.69,2.31-5.69,3.69,0,1.55,1.05,3.35,4.01,3.35.93,0,2.13.03,3.57.08,1.61.06,2.49.22,2.94.35l.23.05c3.75.61,5.01,1.61,5.42,2.15.84,1.11,1.39,2.92,1.63,5.41.13,1.3.24,2.71.3,4.18.07,1.51.1,3.55.1,6.06v55.76c0,7.95-.03,15.25-.1,21.69-.07,6.23-.38,11.15-.91,14.59-.38,2.26-.92,4.17-1.6,5.67-.3.65-.85,1.43-2.54,1.7l-.16.03c-.87.2-1.83.36-2.85.46-1.02.1-2,.16-2.9.16-2.96,0-4.01,1.81-4.01,3.35,0,1.38.74,3.69,5.69,3.69,1.55,0,3.44-.06,5.77-.17,2.16-.11,4.3-.17,6.37-.17h.12c2.16-.11,4.02-.17,5.53-.17h2.72c1.59,0,3.68.03,6.23.08,2.62.05,5.98.19,10.03.42,4.05.11,8.98.23,14.78.34,5.87.11,12.82.17,20.67.17,2.09,0,3.82-.03,5.13-.09,1.49-.07,2.72-.27,3.78-.63,1.3-.44,2.31-1.14,3.01-2.09.56-.75,1.07-1.77,1.57-3.12l.04-.13c.31-1,.61-2.37.91-4.2.28-1.69.56-3.41.84-5.17.28-1.75.53-3.34.74-4.75.3-2.01.34-2.63.34-2.96,0-.64-.04-1.31-.12-1.99-.22-1.75-1.59-2.89-3.47-2.89" fill="#f6f9fd"/>
    <path id="path9" d="M540.83,89.8c-.91-3.36-2.62-6.75-5.09-10.08-2.4-3.23-5.69-6.63-9.78-10.1-4.03-3.42-9.22-7.18-15.44-11.18l-5.87-3.72c-4.95-3.11-9.09-5.91-12.29-8.33-3.15-2.38-5.68-4.61-7.53-6.64-1.74-1.9-2.96-3.77-3.61-5.57-.67-1.81-1.01-3.78-1.01-5.86,0-5.43,2.1-9.53,6.43-12.53,4.53-3.14,10.25-4.74,16.99-4.74,4.54,0,8.38.35,11.41,1.04,3.02.69,5.48,1.51,7.32,2.43,1.78.89,3.08,1.76,3.86,2.57,1.19,1.24,1.52,1.71,1.59,1.82l.13.19c.35.45.86,1.38,1.37,3.3.46,1.76.76,3.12.89,4.04l.02.15c.16.79.33,1.42.5,1.9.23.65,1.01,2.17,3.47,2.17,1.74,0,3.81-1.08,3.81-6.23,0-5.67.14-9.94.41-12.7.38-3.91.43-4.83.43-5.21,0-.59-.21-3.52-4.43-3.52-.76,0-1.63-.05-2.58-.16-.97-.1-2.43-.32-4.26-.64-2.73-.58-5.74-1.02-8.97-1.31-3.22-.29-6.91-.43-10.99-.43-6.87,0-13.14.77-18.63,2.28-5.55,1.53-10.37,3.75-14.35,6.61-4.04,2.9-7.2,6.4-9.38,10.41-2.2,4.04-3.32,8.57-3.32,13.45,0,3.13.42,6.21,1.24,9.16.83,2.99,2.35,6.12,4.5,9.31,2.12,3.13,5.02,6.37,8.64,9.63,3.55,3.21,8.22,6.75,13.88,10.52l9.4,6.24c4.39,2.99,8.15,5.71,11.17,8.1,2.93,2.31,5.3,4.58,7.07,6.74,1.7,2.09,2.94,4.23,3.69,6.38.75,2.17,1.13,4.61,1.13,7.26,0,2.35-.56,4.74-1.67,7.12-1.11,2.38-2.77,4.53-4.95,6.39-2.21,1.89-5.1,3.48-8.59,4.73-3.5,1.25-7.67,1.89-12.4,1.89-3.33,0-6.64-.3-9.83-.89-3.13-.58-6.07-1.51-8.74-2.77-2.56-1.21-4.74-2.81-6.47-4.76-1.7-1.91-2.93-4.29-3.65-6.99-.25-1.1-.41-2.15-.47-3.1-.07-.98-.1-1.87-.1-2.63,0-2.9-1.91-4.2-3.8-4.2-1.09,0-3.67.47-4,4.8-.14,1.36-.35,3.63-.63,6.79-.28,3.18-.43,7-.43,11.36,0,3.39.31,4.62.57,5.31.54,1.41,1.88,2.5,4.06,3.29,4.47,1.75,9.23,2.99,14.13,3.69,4.83.69,9.8,1.04,14.78,1.04,5.84,0,11.63-.55,17.2-1.65,5.68-1.12,10.92-3.06,15.55-5.75,3.83-2.14,7.03-4.6,9.49-7.31,2.43-2.67,4.38-5.43,5.79-8.2,1.41-2.76,2.4-5.46,2.93-8.03.53-2.55.78-4.69.78-6.55,0-3.57-.45-7.04-1.34-10.33" fill="#f6f9fd"/>
    <path id="path11" d="M48.59,160.31c-2.23-3.79-5.02-9.72-3.58-17.4.07-.38.12-.79.15-1.23H0v28.17h55.33c-1.44-1.68-2.81-3.46-4.11-5.37-.9-1.33-1.79-2.73-2.63-4.17" fill="#f6f9fd"/>
    <path id="path13" d="M442.15,150.69c-.63-.69-1.36-1.22-2.17-1.58-.82-.36-1.68-.54-2.56-.54-.95,0-1.84.15-2.64.46-.79.3-1.48.77-2.05,1.38-.58.62-1.04,1.39-1.37,2.32-.33.93-.5,2.04-.5,3.29,0,1.34.19,2.57.56,3.65.37,1.08.89,2.01,1.55,2.76.65.75,1.42,1.33,2.29,1.74.86.4,1.82.61,2.83.61.5,0,1.12-.1,1.83-.29.68-.18,1.35-.55,1.99-1.1.64-.55,1.2-1.33,1.66-2.35.46-1.02.69-2.38.69-4.05,0-1.38-.2-2.61-.58-3.66-.39-1.05-.9-1.93-1.53-2.63" fill="#f6f9fd"/>
    <path id="path15" d="M358.35,150.69c-.63-.69-1.36-1.22-2.17-1.58-.82-.36-1.68-.54-2.56-.54-.95,0-1.84.15-2.64.46-.79.3-1.48.77-2.05,1.38-.58.62-1.04,1.39-1.37,2.32-.33.93-.5,2.04-.5,3.29,0,1.34.19,2.57.56,3.65.37,1.08.89,2.01,1.55,2.76.65.75,1.42,1.33,2.29,1.74.86.4,1.82.61,2.83.61.5,0,1.12-.1,1.83-.29.68-.18,1.35-.55,1.99-1.1.64-.55,1.2-1.33,1.66-2.35.46-1.02.69-2.38.69-4.05,0-1.38-.2-2.61-.58-3.66-.39-1.05-.9-1.93-1.53-2.63" fill="#f6f9fd"/>
    <path id="path17" d="M533.77,148.42c-.06,0-.19.01-.4.06-.16.04-.3.1-.45.2-.22.14-.4.27-.54.42-.16.17-.38.41-.64.73-.11.14-.3.41-.54.78-.26.39-.54.84-.86,1.34-.32.5-.65,1.03-.98,1.6-.34.57-.65,1.11-.95,1.62-.29.51-.55.97-.78,1.37-.26.47-.36.69-.4.8-.17.4-.26.77-.29,1.11-.03.37-.05.75-.05,1.14v2.07c0,.19,0,.51.01.95s.03.92.06,1.42c.03.28.09.51.19.7.05.1.19.16.39.19.19.03.36.06.56.07.2.01.36.02.46.02.45,0,.66.32.66.61,0,.11-.04.66-.85.66-.34,0-.68,0-1.02-.01l-.93-.03c-.28,0-.52-.01-.71-.02-.34-.02-.26-.02-.61,0l-1.39.05c-.26,0-.49.01-.67.01-.81,0-.85-.55-.85-.66,0-.29.21-.61.66-.61.09,0,.19,0,.3-.02s.2-.03.29-.06c.11-.02.18-.06.23-.18.09-.19.15-.44.17-.73.03-.49.05-.97.06-1.41s.01-.76.01-.95v-2.07c0-.3-.01-.56-.04-.78s-.07-.42-.11-.6c-.04-.17-.09-.33-.15-.47-.06-.15-.13-.31-.21-.48-.02-.05-.12-.23-.29-.53-.17-.31-.4-.68-.67-1.12-.27-.44-.57-.93-.88-1.45-.31-.52-.62-1.02-.92-1.51l-.84-1.35c-.25-.4-.45-.71-.59-.91-.29-.43-.57-.79-.83-1.06-.25-.27-.48-.47-.67-.59-.16-.11-.3-.19-.46-.24-.21-.07-.3-.07-.32-.07-.49,0-.71-.33-.71-.64,0-.06.02-.64.78-.64.11,0,.3,0,.56.01l1.48.05c.2,0,.31.01.35.01.08,0,.31-.01.69-.03.41-.03.85-.04,1.33-.04.17,0,.38.02.54.15.15.13.24.3.24.49,0,.25-.15.45-.4.55-.05.02-.14.05-.24.1-.03.01-.04.04-.04.04.01.06.03.15.07.25.05.14.12.28.2.43l.43.75c.22.39.49.85.79,1.37l1.95,3.34c.31.52.57.98.8,1.38,0,0,.01.02.01.03.01-.03.03-.06.05-.09.2-.38.44-.81.72-1.29.27-.47.55-.97.85-1.5.3-.53.58-1.03.86-1.51.27-.47.51-.89.73-1.24.21-.36.36-.6.44-.73.14-.22.23-.41.27-.56.04-.16.07-.3.07-.41,0-.13-.02-.21-.04-.25-.21-.04-.71-.21-.71-.67,0-.14.06-.61.85-.61.33,0,.67.01,1,.04.3.02.5.03.59.03.03,0,.14,0,.34-.01l1.43-.05c.26,0,.44-.01.56-.01.76,0,.78.55.78.61,0,.33-.24.66-.78.66M491.92,157.59c-.07,0-.14,0-.21.01-.07,0-.17.02-.29.05-.28.06-.33.16-.35.19-.06.11-.14.33-.17.76-.03.38-.05.75-.05,1.12v4.04c0,.28,0,.5-.01.66,0,.18-.02.32-.04.42-.05.27-.19.41-.3.49-.04.03-.09.06-.14.1-.47.26-.92.45-1.4.59-.47.14-.94.26-1.41.35-.47.09-.93.15-1.38.19-.44.03-.84.05-1.2.05-.47,0-1.02-.03-1.67-.07-.65-.05-1.35-.17-2.09-.35-.74-.18-1.5-.46-2.25-.81-.76-.36-1.51-.85-2.21-1.45-.4-.35-.78-.77-1.15-1.27-.36-.49-.69-1.06-.96-1.67-.28-.61-.5-1.28-.67-2-.17-.72-.25-1.49-.25-2.27,0-1,.12-1.94.34-2.79.23-.85.54-1.64.92-2.33.39-.7.85-1.32,1.36-1.85.51-.53,1.06-.98,1.61-1.33.58-.36,1.16-.64,1.75-.85.57-.21,1.16-.37,1.73-.48.56-.11,1.12-.18,1.66-.21.98-.06,1.83-.07,2.7,0,.4.03.77.07,1.11.12.34.05.65.1.91.15.25.05.42.08.53.09.28.07.58.12.93.16.36.04.69.07.98.08.2.02.43.07.58.26.1.12.15.27.15.43,0,.09,0,.22-.03.39-.02.15-.04.34-.06.6-.02.25-.04.57-.06.96-.02.4-.02.89-.02,1.47,0,.27-.03.45-.09.59-.11.24-.33.39-.6.39-.24,0-.55-.13-.63-.77-.02-.18-.06-.39-.12-.66-.06-.25-.17-.5-.32-.74-.11-.17-.3-.35-.57-.55-.29-.21-.65-.4-1.09-.57-.45-.17-.98-.32-1.58-.43-.91-.17-2-.22-3.17-.13-.38.03-.78.09-1.19.19-.4.1-.82.25-1.24.45-.42.2-.85.47-1.27.8-.64.51-1.17,1.26-1.58,2.23-.41.99-.63,2.17-.63,3.51,0,.81.09,1.56.26,2.24.18.69.39,1.31.64,1.85.25.54.52,1,.79,1.37.28.38.52.67.71.86.91.88,1.88,1.51,2.88,1.88,1.01.37,2.05.56,3.1.56.2,0,.42,0,.67-.02.24-.01.48-.04.71-.08.23-.04.45-.09.66-.14.18-.05.34-.12.46-.19.19-.1.25-.23.25-.44v-4.09c0-.47-.01-.84-.03-1.13-.03-.31-.07-.47-.11-.55-.04-.1-.1-.15-.14-.17-.11-.07-.26-.12-.46-.18-.05-.01-.12-.03-.3-.04-.16,0-.29-.01-.4-.01-.45,0-.66-.32-.66-.61,0-.11.04-.66.85-.66.28,0,.57,0,.88.01l1.54.05c.34.01.26.01.61,0l1.39-.05c.26,0,.48-.01.67-.01.81,0,.85.55.85.66,0,.29-.21.61-.66.61M446.8,160.29c-.48,1.24-1.16,2.35-2.03,3.28-.88.93-1.95,1.68-3.19,2.23-1.24.55-2.63.82-4.13.82-1.72,0-3.21-.31-4.45-.91-1.23-.6-2.26-1.4-3.05-2.36-.79-.96-1.38-2.03-1.75-3.2-.37-1.15-.55-2.32-.55-3.45,0-.67.09-1.39.25-2.15.17-.75.43-1.5.78-2.23.35-.73.79-1.43,1.32-2.09.53-.67,1.18-1.26,1.92-1.77.74-.51,1.59-.91,2.53-1.2.94-.29,2-.44,3.15-.44,1.39,0,2.71.22,3.91.65,1.21.44,2.27,1.07,3.15,1.89.89.82,1.59,1.83,2.1,3,.51,1.17.76,2.5.76,3.95s-.24,2.74-.72,3.98M402.9,163.25c-.02.2-.05.43-.09.69l-.12.73c-.04.27-.09.5-.14.69-.06.2-.12.33-.16.42-.09.18-.23.31-.42.4-.15.07-.34.12-.59.14-.2.02-.46.03-.8.03-.87,0-1.63,0-2.27-.02l-1.73-.05c-.52-.03-.96-.05-1.34-.06-.38,0-.75-.01-1.1-.01-.05,0-.15,0-.33.01-.19,0-.41.01-.66.01-.21.02-.47.03-.72.04-.26,0-.47.01-.65.01-.81,0-.85-.55-.85-.66,0-.29.21-.61.66-.61.09,0,.19,0,.3-.02.11-.01.2-.03.29-.06.11-.02.15-.05.18-.14.08-.21.14-.47.18-.79.06-.49.09-1.19.1-2.07,0-.9.01-1.93.01-3.09v-7.94c0-.36,0-.65-.01-.86,0-.21-.02-.41-.04-.59-.03-.43-.11-.63-.17-.73-.02-.03-.11-.15-.49-.22-.08-.02-.16-.04-.33-.05-.16,0-.29-.01-.4-.01-.45,0-.66-.32-.66-.61,0-.11.04-.66.85-.66.28,0,.57,0,.88.01l1.53.05c.35.02.26.02.65,0l1.56-.05c.29,0,.52-.01.7-.01.81,0,.85.55.85.66,0,.29-.21.61-.66.61-.08,0-.19,0-.33.01-.12,0-.25.02-.37.05-.16.03-.34.08-.4.19-.06.11-.14.33-.17.76-.02.19-.03.39-.03.59,0,.21-.01.5-.01.86v7.99c0,1.74.03,3.05.09,3.89.08,1.08.28,1.27.28,1.28.08.08.16.13.25.18.07.03.19.08.39.12.21.04.46.07.77.09.32.02.7.03,1.16.03.62,0,1.18-.03,1.66-.09.39-.05.68-.2.89-.46.13-.16.24-.35.34-.58.1-.24.16-.45.19-.63.1-.66.55-.71.68-.71.14,0,.61.06.61.83,0,.07,0,.21-.03.42M362.99,160.29c-.48,1.24-1.16,2.35-2.03,3.28-.88.93-1.95,1.68-3.19,2.23-1.24.55-2.63.82-4.13.82-1.72,0-3.21-.31-4.45-.91-1.23-.6-2.26-1.4-3.05-2.36-.79-.96-1.38-2.03-1.75-3.2-.37-1.15-.55-2.32-.55-3.45,0-.67.09-1.39.25-2.15.17-.75.43-1.5.78-2.23.35-.73.79-1.43,1.32-2.09.53-.67,1.18-1.26,1.92-1.77.74-.51,1.59-.91,2.53-1.2.94-.29,2-.44,3.15-.44,1.39,0,2.71.22,3.91.65,1.21.44,2.27,1.07,3.15,1.89.89.82,1.59,1.83,2.1,3,.51,1.17.76,2.5.76,3.95s-.24,2.74-.72,3.98M316.59,148.42c-.05,0-.12,0-.19.01-.07,0-.17.02-.29.05-.34.07-.38.2-.4.27-.06.18-.12.58-.12,1.41l-.05,14.1c0,.41,0,.72-.01.95,0,.25-.02.43-.04.55-.03.2-.07.32-.14.43-.12.16-.29.24-.49.24-.13,0-.26-.04-.41-.12-.1-.06-.23-.15-.38-.29-.13-.11-.31-.28-.52-.49l-1.51-1.52c-.43-.43-.95-.96-1.56-1.59l-1.97-2.06c-.71-.74-1.38-1.46-2.03-2.15-.71-.75-1.39-1.5-2.06-2.23-.67-.73-1.28-1.41-1.84-2.04-.56-.63-1.05-1.17-1.47-1.62-.02-.02-.04-.05-.07-.07l.28,10.25c.01.48.04.88.08,1.2.04.29.09.54.15.73.06.18.12.27.16.31.06.06.13.1.21.12.19.05.39.09.59.1.22.01.38.02.49.02.45,0,.66.32.66.61,0,.16-.06.66-.9.66-.7,0-1.28-.01-1.73-.04-.43-.02-.71-.03-.82-.03s-.38.01-.81.03c-.45.03-.95.04-1.51.04-.81,0-.85-.55-.85-.66,0-.29.21-.61.66-.61.09,0,.22,0,.39-.02.15-.01.29-.04.43-.09.09-.02.22-.06.29-.42.08-.4.12-1.14.12-2.19l.02-13.79c0-.51.02-.85.07-1.06.14-.57.54-.61.66-.61.32,0,.57.24.75.45.16.18.3.33.42.46.1.1.38.41.85.92.46.5,1.03,1.13,1.74,1.88.71.75,1.5,1.61,2.37,2.55.87.95,1.77,1.91,2.71,2.91.6.65,1.19,1.3,1.8,1.95l3.09,3.38s.03.04.05.05l-.24-11c-.02-.91-.11-1.32-.18-1.51-.04-.12-.13-.26-.41-.34-.18-.04-.39-.07-.6-.08-.22-.02-.37-.02-.46-.02-.39,0-.66-.26-.66-.64,0-.24.12-.64.95-.64.28,0,.55,0,.82.01l1.35.05c.16,0,.27.01.33.01.12,0,.36-.01.72-.03.38-.03.82-.04,1.33-.04.81,0,.9.45.9.64,0,.32-.23.64-.73.64M269.52,166.28c-.34,0-.68,0-1.02-.01l-.93-.03c-.28,0-.52-.01-.71-.02-.34-.02-.27-.02-.61,0l-1.39.05c-.26,0-.49.01-.67.01-.81,0-.85-.55-.85-.66,0-.29.21-.61.66-.61.09,0,.19,0,.3-.02s.2-.03.29-.06c.11-.02.15-.05.18-.14.08-.21.14-.48.18-.79.06-.49.1-1.19.1-2.07,0-.9.01-1.93.01-3.09v-2.2h-9.55v2.2c0,1.15,0,2.18.01,3.09,0,.88.04,1.58.1,2.08.03.31.09.56.18.75.04.09.16.14.36.17.18.03.36.06.56.07.2.01.36.02.46.02.45,0,.66.32.66.61,0,.11-.04.66-.85.66-.34,0-.68,0-1.02-.01l-.93-.03c-.28,0-.52-.01-.71-.02-.34-.02-.27-.02-.61,0l-1.39.05c-.26,0-.48.01-.67.01-.81,0-.85-.55-.85-.66,0-.29.21-.61.66-.61.09,0,.19,0,.3-.02.11-.01.2-.03.29-.06.11-.02.15-.05.18-.14.08-.21.14-.47.18-.79.06-.49.09-1.19.1-2.07,0-.9.01-1.93.01-3.09v-7.94c0-.36,0-.65-.01-.86,0-.21-.02-.41-.04-.59-.03-.43-.11-.63-.17-.73-.02-.03-.11-.15-.49-.22-.08-.02-.16-.04-.33-.05-.16,0-.29-.01-.4-.01-.45,0-.66-.32-.66-.61,0-.11.04-.66.85-.66.28,0,.57,0,.88.01l1.53.05c.35.02.27.02.61,0l1.39-.05c.26,0,.48-.01.66-.01.81,0,.85.55.85.66,0,.29-.21.61-.66.61-.07,0-.14,0-.21.01-.07,0-.17.02-.29.05-.28.06-.33.16-.35.19-.06.11-.14.33-.17.76-.02.19-.03.39-.03.59,0,.21-.01.5-.01.86v3.89h9.55v-3.89c0-.36,0-.65-.01-.86,0-.21-.02-.41-.03-.59-.03-.45-.12-.65-.17-.73-.02-.03-.12-.14-.49-.22-.08-.02-.16-.04-.33-.05-.16,0-.29-.01-.4-.01-.45,0-.66-.32-.66-.61,0-.11.04-.66.85-.66.28,0,.57,0,.88.01l1.53.05c.35.02.27.02.61,0l1.39-.05c.26,0,.48-.01.66-.01.81,0,.85.55.85.66,0,.29-.21.61-.66.61-.07,0-.14,0-.21.01-.07,0-.17.02-.29.05-.28.06-.33.16-.35.19-.06.11-.14.33-.17.76-.02.19-.03.39-.03.59,0,.21-.01.5-.01.86v7.94c0,1.15,0,2.18.01,3.09,0,.88.04,1.58.1,2.08.03.31.09.56.18.75.04.09.16.14.36.17.19.03.37.06.56.07.2.01.36.02.46.02.45,0,.66.32.66.61,0,.11-.04.66-.85.66M223.62,162.32c-.03.25-.07.54-.12.87-.05.33-.11.66-.17.99-.07.35-.14.63-.2.85-.11.3-.19.48-.28.6-.11.14-.29.26-.61.39-.27.11-.59.2-.95.28-.35.07-.73.13-1.13.18-.39.04-.8.07-1.21.1-.42.03-.82.04-1.22.04-1.85,0-3.46-.23-4.76-.68-1.31-.45-2.49-1.14-3.49-2.04-.61-.56-1.12-1.15-1.51-1.78-.39-.62-.71-1.26-.94-1.9-.23-.64-.39-1.29-.48-1.93-.09-.64-.14-1.26-.14-1.86,0-.42.04-.92.13-1.48.08-.56.23-1.16.44-1.77.21-.61.5-1.24.87-1.87.37-.63.84-1.23,1.4-1.79.37-.37.8-.73,1.29-1.07.49-.34,1.06-.63,1.69-.87.62-.23,1.32-.42,2.09-.56.77-.14,1.65-.21,2.6-.21.49,0,1.05.02,1.69.06.64.04,1.28.12,1.89.24.46.08.88.15,1.28.21.38.06.76.11,1.13.14.17.02.39.06.55.22.09.09.2.25.2.51,0,.11-.01.27-.04.48-.02.18-.05.48-.08.9-.02.19-.03.4-.04.64,0,.24-.01.48-.01.72,0,.25,0,.47-.01.67,0,.18-.01.32-.01.41-.04.85-.45.97-.69.97s-.66-.13-.66-.97c0-.4-.08-.81-.23-1.2-.15-.38-.35-.67-.61-.9-.37-.33-.96-.62-1.76-.87-.82-.26-1.74-.39-2.75-.39-.77,0-1.45.05-2.01.15-.56.1-1.05.23-1.47.39-.41.16-.75.33-1.02.51-.28.19-.51.38-.7.57-.82.79-1.37,1.68-1.62,2.64-.27,1.01-.41,2.12-.41,3.31,0,1.09.2,2.15.6,3.15.4,1,.97,1.89,1.69,2.66.72.76,1.59,1.38,2.6,1.85,1,.46,2.12.69,3.33.69.88,0,1.66-.07,2.32-.22.61-.13,1.11-.41,1.53-.84.21-.22.38-.52.51-.88.17-.49.23-.75.25-.88.13-.67.5-.76.7-.76.27,0,.49.17.58.43.04.12.06.25.06.4,0,.05-.02.22-.05.5M179.87,163.35l-.18,1.41c-.04.26-.07.46-.11.6-.07.23-.13.38-.2.49-.1.16-.25.29-.44.37-.15.06-.32.1-.51.11-.15,0-.35.01-.6.01-.92,0-1.71,0-2.38-.02-.67-.02-1.23-.03-1.7-.05-.47-.03-.85-.05-1.15-.06-.3,0-.54-.01-.71-.01h-.31c-.17,0-.38,0-.62.02-.26,0-.5,0-.74.02-.27.02-.5.03-.68.03-.81,0-.85-.55-.85-.66,0-.29.21-.61.66-.61.09,0,.19,0,.3-.02.11-.01.2-.03.29-.06.11-.02.15-.05.18-.14.08-.21.14-.47.18-.79.06-.49.1-1.19.1-2.07,0-.9.01-1.93.01-3.09v-7.94c0-.36,0-.65-.01-.86,0-.21-.02-.41-.03-.59-.03-.43-.11-.63-.17-.73-.02-.03-.12-.15-.49-.22-.08-.02-.16-.04-.33-.05-.16,0-.29-.01-.4-.01-.45,0-.66-.32-.66-.61,0-.11.04-.66.85-.66h.87c.31,0,.61,0,.89.03l.98.05h2.58c.65,0,1.27,0,1.83-.01.57,0,.93-.01,1.08-.01.41-.03.73-.07.94-.11.14-.09.28-.13.44-.13.21,0,.56.15.56.69,0,.13-.03.29-.09.5-.03.1-.07.29-.11.67,0,.03,0,.14-.01.3,0,.15-.02.31-.04.49-.02.16-.03.32-.03.46-.01.19-.03.33-.05.41-.02.09-.05.17-.08.25-.24.56-1.2.51-1.2-.41,0-.07,0-.19-.02-.34-.01-.12-.04-.23-.08-.33-.05-.11-.13-.21-.26-.29-.05-.03-.28-.15-1.08-.25-.1-.02-.3-.02-.6-.03l-1.06-.02c-.37,0-.71-.01-1.02-.01h-.23v6.19s1.48,0,1.48,0c.43,0,.84,0,1.22-.01.37,0,.61-.02.75-.03.28-.03.5-.06.67-.09.08-.01.12-.04.17-.09.25-.3.45-.47.71-.47.28,0,.59.21.59.66,0,.12-.03.29-.09.54-.04.19-.08.47-.11.85-.02.14-.03.27-.04.41l-.05.87c0,.11-.01.18-.01.22,0,.12-.01.24-.03.37-.13.84-1.24.74-1.24-.13,0-.12,0-.23-.01-.34,0-.06-.02-.16-.07-.32-.03-.11-.1-.22-.2-.33-.01-.01-.14-.13-.65-.18-.15-.01-.4-.03-.73-.05-.34-.01-.69-.03-1.05-.03l-1.01-.02c-.12,0-.22,0-.3,0v5.93c.01.36.05.66.12.88.04.16.12.27.23.35.14.1.35.17.62.21.52.07,1.25.1,2.49.03.4-.02.73-.09,1.01-.2.23-.09.39-.22.5-.4.13-.21.23-.54.3-.98.13-.63.44-.75.68-.75.32,0,.56.22.6.54,0,.1.01.2.01.29,0,.06-.01.2-.04.43M142.21,148.43l-.05,1.56c0,.21-.01.34-.01.4,0,.76-.57.78-.64.78-.24,0-.45-.12-.55-.33-.05-.11-.09-.26-.11-.51l-.03-.26c0-.11-.04-.21-.1-.31-.05-.08-.15-.16-.28-.23-.17-.09-.43-.17-.76-.23-.35-.07-.81-.11-1.36-.12l-2.55-.04v9.7c0,1.15,0,2.18.01,3.09,0,.88.04,1.58.11,2.08.03.31.09.56.18.75.04.09.16.14.36.17.18.03.36.06.56.07.2.01.36.02.46.02.45,0,.66.32.66.61,0,.11-.04.66-.85.66-.34,0-.68,0-1.02-.01l-.93-.03c-.28,0-.52-.01-.71-.02-.34-.02-.26-.02-.61,0l-1.39.05c-.26,0-.48.01-.66.01-.81,0-.85-.55-.85-.66,0-.29.21-.61.66-.61.09,0,.19,0,.3-.02.11-.01.2-.03.29-.06.11-.02.15-.05.18-.14.08-.21.14-.48.18-.79.06-.49.09-1.19.1-2.07,0-.9.01-1.93.01-3.09v-9.7l-3.09.04c-.35,0-.65.01-.9.04-.24.03-.44.07-.61.12-.14.04-.25.09-.33.15-.09.06-.16.15-.23.25-.11.19-.2.33-.25.43-.05.09-.08.16-.11.23-.19.47-.5.54-.68.54-.22,0-.59-.14-.59-.68,0-.08.02-.26.08-.56.05-.25.1-.53.17-.82.06-.29.12-.56.18-.8.06-.26.1-.42.12-.47.04-.1.07-.19.11-.3.15-.42.42-.48.57-.48.16,0,.34.05.57.17.05.03.19.08.54.12.34.03.71.06,1.09.08.37.02.63.03.77.03h9.02c.37,0,.69-.01.96-.03.27-.02.49-.05.67-.08.16-.03.3-.06.41-.08.14-.03.25-.05.34-.05.29,0,.53.2.57.48.01.08.02.17.02.27,0,.18,0,.41-.01.69M542.17,141.67H114.2c.04.62.08,1.25.12,1.88.11,1.62.21,3.24.3,4.86.05,1.03.18,3.3-.98,5.78-1.76,3.78-3.66,7.15-5.79,10.28-1.29,1.9-2.66,3.68-4.11,5.37h441.08v-28.17h-2.65Z" fill="#f6f9fd"/>
  </g>
</svg>