<?xml version="1.0" encoding="UTF-8"?>
<svg id="Layer_1" xmlns="http://www.w3.org/2000/svg" baseProfile="tiny" version="1.2" viewBox="0 0 590 371">
  <!-- Generator: Adobe Illustrator 30.1.0, SVG Export Plug-In . SVG Version: 2.1.1 Build 136)  -->
  <g>
    <path d="M337.94,216.57l6,78.01c-3.45-1.26-14.97,2.29-16.54.03l-5.45-51.03-6.45,52.06c-1.47,2.14-11.09-.1-14.16,1.89l-1.91-.94-15.48-50.01,4,51-16.56,1.12-7.45-79.13c9.07.55,18.01-2.31,27.06-.56l13.93,43.55,5.45-44.06c.99-1.41,23.91-1.94,27.57-1.94h0Z" fill="#f6f9fd"/>
    <path d="M249.93,200.58l-8.99-79c7.17-.09,14.36.08,21.54.04,2.37-.02,4.53-1.11,6.91-1.08,5.17.05,13.93,1.24,18.43,3.65,16.68,8.95,22.48,37.5,18.67,54.44-6.32,28.16-34.93,19.12-56.56,21.95h0ZM270.07,181.43c1.25.79,9.4-.43,11.1-1.12,8.43-3.42,5.25-26.02,2.27-32.74-3.87-8.73-9.85-8.4-18.51-8,.98,5.12,3.36,40.74,5.14,41.86h0Z" fill="#f6f9fd"/>
    <path d="M440.44,119.57c12.4,2.52,17.75,20.25,14.26,31.26-1.29,4.07-6.79,7.77-6.83,8.32-.13,1.84,14.86,29,17.07,32.73.56.96,2.29.45,2,1.19-1.54,2.22-3.96.2-6.49.41-5.03.42-10.32,2.27-15.54.63l-13.48-27.52c-1.75-2.06-6.06-.67-8.49-1.02l2.87,27.43c-.86,3.48-15.82,2.86-18.93,2.14-3.48-24.81-6.06-50.43-8.94-75.56h42.5,0ZM421.04,149.46c22.52,3.38,19.31-17.78-1.11-14.9-.01,5-.38,10.06,1.11,14.9Z" fill="#f6f9fd"/>
    <path d="M306.94,198.57l15.88-77.42,21.41-.59,36.71,88.01h-19.5c-.21,0-1.1,1.42-1.49,1.01l-7.23-22.29c-2.92-5.78-16.99-1.28-22.65-1.58-1.78,2.07-.59,12.87-2.64,12.87h-20.5.01ZM344.93,167.57l-5.24-16.25-3.74-7.74-3.01,23.99h12-.01Z" fill="#f6f9fd"/>
    <path d="M419.93,302.57l-21.9.91-7.71-23.96c-2.68.17-20.48.48-21.29,1.17-1.93,1.64.75,11.35-3.8,12.69-.77.23-14.59,1.38-15.8,1.29-1.53-.11-2.55-.18-3.46-1.58l17.9-77.08c4.19-.19,19.08-1.65,21.58.56l34.48,86.01h0ZM383.94,262.57l-.45-4.04-7.54-19.95-4.01,23.99h12Z" fill="#f6f9fd"/>
    <path d="M447.95,289.58l-7.01-76c11.26-.13,31.37-3.78,41.38,1.12,18.17,8.9,23.03,48.46,12.06,63.81-9.64,13.49-32.48,7.68-46.42,11.07h-.01ZM475.6,232.92c-2.33-2.22-12.26-5.45-13.51-1.7l2.85,36.87c.9,5.08,14.28,2.54,15.8-4.22,1.49-6.67.06-26-5.13-30.95h0Z" fill="#f6f9fd"/>
    <path d="M515.94,117.58l-17.77,41.72c-.78,11.12,1.96,22.18,2.77,33.26-4.26-1.42-14.26,1.97-17.36.89s-3.09-20.1-3.75-24.27c-2.11-13.4-17.75-31.42-25.3-43.7-.69-1.12-4.12-6.31-3.58-6.91l21.03.46,13.46,22.53c3.04-1.46,7.27-18.88,8.69-22.81,7.2-1.43,14.39.03,21.81-1.17h0Z" fill="#f6f9fd"/>
    <path d="M390.44,119.57l9.5,76-19.42,1.06-8.58-70.58c-.37-1.43-.08-6.48,1.5-6.48,0,0,17,0,17,0Z" fill="#f6f9fd"/>
    <rect x="414.56" y="213.52" width="20.28" height="76.84" transform="translate(-20.08 37.43) rotate(-4.93)" fill="#f6f9fd"/>
    <path d="M276.94,86.57c-6.87-.22-7.72.04-10.88,6.62-4.18,8.7-4.6,23.06-18.59,20.37-11.28-2.17-6.17-22.66,3.47-14.48,2.52,2.14-2.79,2.8-3.75,3.74-3.21,3.18,1.85,12.75,7.93-.57,2.49-5.45,2.38-9.29,6.78-14.26.97-1.09,6.01-2.3,1.55-3.39-2.18-.53-13.56-1.25-12.5,3.46s5.67-1.66,6.48-1.48c2.84.63.39,5.6-1.49,6.53-5.68,2.81-14.1-7.34-5.36-12.39,6.6-3.81,17.61.71,24.86.93,2.04.06,8.21-1.38,8.51-1.07,2.56,2.75-5.41,5.08-6.99,6,1,.03,2-.04,3,0,1.61,1.81-6.39,10.9-5.99,13.99,15.42-3.07,2.24,10.43,2.99,10.99,8.04,1.36,6.39-10.72,14.39-9.99,8.68.8,3.27,12.95-2.91,10.02-.85-.15-.55,1.9-.48,1.97,2.88,2.99,15.56-8.8,17,3-2.56.39-2.99-2.82-5.44-2.94-4.57-.24-7.97,7.09-14.13,1.99-1.12-.93-1.22-3.09-1.95-3.07-1.71.06-11.6,7.21-11.58-1.47,0-2.7,6.05-7.02,2.58-7.51-4.8-.67-6.4,7.88-8.16,9.07-1.43.96-4.93,1.44-5.32-.58s12.04-19.93,12.93-23.84c1.27-.39,2.11-1.09,3.07-1.64h-.02Z" fill="#f6f9fd"/>
    <path d="M388.94,337.07" fill="#f6f9fd"/>
    <path d="M445.93,343.57" fill="#f6f9fd"/>
  </g>
  <g>
    <path d="M176,333.28l-94-9,1.01-60.01c-6.11-.36-20.36-.7-25.28-3.95-1.96-1.3-5.04-13.35-5.88-16.39-4.26-15.43-7.13-39.2-12.82-53-.5-1.21-2.32-.21-3.11-1.26-3.21-4.25-2.67-20.76-5.91-26.4v-59c1.09-.79,4.77-4.93,4.89-5.65.18-1.07-3.79-5.99-1.37-11.34,2.06-4.54,8.97-6.02,10.97-8.03,2.42-2.44.85-10.72,3.82-14.68,2.43-3.22,11.09-7.65,12.77-11.73,3.6-8.74-.82-18.27-3.08-26.58.52-.56,7.93,4.82,8.91,5.57,4.69,3.57,10.35,9.34,14.06,13.94,2.44,3.03,4.22,8.57,8.02,9.48v-15l47-9.99c-2.37,10.15-12.89,12.89-16.48,22.01-.66,1.68-2.84,7.82-1.51,8.98,1.37-1.52,7.64-1.77,7.92-2.07s.05-3.59.5-4.99c1.97-6.15,8.67-10.08,10.61-15.4,4.4-12.04.74-20.98-5.04-31.53,2.08-2.03,12.95,12.09,13.75,14.74,1.64,5.43.21,11.97-2.92,16.58-4.28,6.3-10.46,6-13.15,14.85-1.76,5.79.21,11.33-8.22,12.86-1.95.35-1.34-3.74-3.46-2.03-.09.07.83,1.64.5,2.04-.85,1.08-4.81.61-4.58,4.4.03.51,2,.7,2.1,1.04,1.21,4.04-5.75,2.45-7.52,5.52-.77,1.34-.32,3.38-1.04,4.96s-3.56,3.22-4.98,6.02c-2.24,4.45-2.49,10.71-4.25,14.75-1,2.3-3.96,4.15-4.77,7.23-.87,3.32-.39,6.67-.46,10.02,1.91,0,.59-2.88,2.51-3.99s1.49,4.12,3.47,1.99c.25-.27-.18-2.88,1-3.52,1.43-1.19,2.83,2.28,1.54,4.62-.46.83-5.91-.63-2.04,4.89,1.89-.73.37-2.92.51-2.99.28-.14,2.86-.1,2.97,0,.72.6,2.54,13.48,3.03,13.99,3.33,3.5.76-4.8.99-4.99,7.38-1.15,4.69,2.74,4.99,2.98,2.11,1.73,1.95-2.21,2.5-1.99,1.73.67.43,2.85.56,2.92.38.22,7.68,1.95,8.52,2.03,1.47.15,2.88-1.01,3.86-.98.61,0,.47,1.82,1.24,2.01,4.83,1.19,14.08-1.85,19.9-1.07,2.06.28.71,2.42,3.95,2.16,1.97-.16.94-1.92,2.91-2.16,15.92-1.97,33.35,2.6,49.58-4.41,1.5-.65,2.51-1.18,3.25-2.75.95-2.02.21-12.6-.27-15.25-.67-3.66-5.79-5.97-5.96-3.02,0,.22,1.68,2.26,1.93,4.06s1.06,12.65.49,13.49c-.74,1.1-2.07,1.31-3.22,1.69-16.5,5.42-68.15,4.55-85.2-.15-12.24-3.37-9.12-9.5-10.01-20.57,5.03,1.78,9.02-1.21,14.51-1.07,4.19.11,11.81.93,15.48,2.57-7.94,1.92-15.62,6.01-23.99,5.51-.24,1.44,1.74,1.35,2.79,1.69,5.44,1.74,10.67,1.88,16.21.31-3.91,3.92-11.38,3.47-10.99,10.99,2.96-.66,4.73-2.79,7.93-3.56,6.51-1.56,16.81-1.8,23.55-1.43,5.38.3,13.96,2.89,18.96,1.94,2.71-.51,15.52-10.03,16.54-12.47,1.18-2.81-4.23-.5-5.37-.58-4.76-.34-19.09-3.59-22.59-6.44-1.44-1.17-2.14-3.42-3.03-3.97-2.09-1.28-9.09-.21-12.38-.62-7.9-.99-17.61-4.59-25.17-4.91-2.42-.1-4.66,1.35-6.87,1.05-3.52-.49-6.31-6.09-5.58,2.99h-5.99c-1.58-1.77,9.18-12.47,9.98-14.52.74-1.9-4.11-1.55-1.98-3.48.41-.37,3.78,1.34,5,1,1.08,2.11-4.37,6.68-3,7.99.16.15,2.69.12,3.34-.15,2.06-.84,2.16-3.95,3.6-5.4,1.52-1.54,4.71-1.67,5.57-3.43.95-1.94-.28-6.38,2.05-6.91.77-.18,2.74.99,4.66.72,2.86-.41,6.66-2.67,9.72-3.38,9.33-2.17,19.86-1.98,25.56-11.44,2.39-.43,1.25,1.09,1.44,2.52.43,3.14.56,6.45,1.54,9.47.33-1.89,5.24-7.02,5.27-7.48.28-3.49-7.69-6.63-7.82-7.16-1.79-7.3,4.82-3.87,5.06-4.87.56-2.32-2.44-1.51-3.74-2.75-.62-.59-1.7-3.18-1.25-3.74,3.13.18,6.93,7.94,7.48,7.98.42.03,1.76-1.94,3.59-1.54,7.15,1.56,16.03,18.04,13.78,24.96-.61,1.88-3.7.71-2.86,3.6,1.07.16,3.23-.43,3.89.11.5.41,3.13,9.97,4.29,12.21.62,1.18,6.32,9.83,6.82,10.19.87.63,1.92-.62,2.01-1.04.62-2.95-3.98-6.83-5.41-9.57-6.89-13.22-1.6-25.22-14.57-37.43-3.6-3.39-12.27-6.72-14.06-8.94-1.97-2.43-2.21-7.47-3.57-10.43-.63-1.39-6.87-10.67-6.39-11.1l399.99,66-3.99,267c-5.46.24-11.04-.35-16.5,0-24.83,1.62-40.4,5.26-66.02,3-79.09-6.98-157.99-16.24-237-24.1l-60.49-5.84ZM547.01,345.26l2.76-238.75L212.01,51.27l-4.91,255.91M186,77.27c.34-6.31-1.63-13.18-6.98-16.99l6.98,16.99ZM204.01,141.28c-12.5-.68-24.93,2.25-37.55,2.04-16.72-.28-34.33-6.19-49.26-6.79-2.7-.11-5.82.67-3.62,3.76,6.18.59,18.1.99,23.65,3.01,1.4.51,1.21,2.39,2.27,2.97,2.25-5.43,3.52-1.47,7.05-1.05,10.47,1.25,31.27,1.37,40.02.13,5.22-.74,10.81-.86,15.94-2.1,1.51-.37,1.76.7,1.5-1.97h0ZM130.86,181.45c-.16-.18-1.54.59-1.88.31-2.16-1.8-6.51-30.68-9.24-36.72-1.22-2.7-5.13-4.4-4.73-1.29,1.22,9.3,7.97,19.89,2.98,29.52v-6.99l-3,7.99-3-5.99-1.03,2.52c6.63,20.65,8.76,47.05,16.09,66.92.45,1.23,2.05,4.56,2.94,5.12.52.32,5.8-1.37,6.02-1.58.28-.26-1.86-2.6-.52-2.98.58,1.36,3.07,1.64,3.5,2.01,1.06.91-4.21,1.23-1.99,2.98.12.1,1.55-.24,2.62.37.41.24.4,1.61.97,1.63,2.29.08,6.13-1.41,9.41,0l-1.01-1.98c9.38,1.54,18.93,2.69,28.55,2.03,4.57-.31,16.35-1.63,18.51-5.49,2.95-5.25,2.29-22.24,2.96-29.04,1.79-18.22,5.59-39.02,6.07-57.01.08-2.9-.06-4.7-2.58-6.5-2,9.51-2.79,19.28-2.5,29-5.08-2.79-4.45,4.45-1,1.99-1.07,7.38-5.1,58.38-7.59,60.12-1.7,1.18-7.93,1.12-10.4,1.88.87-2.34,3.82-2.92,6.01-3-2.07-1.82,1.6-8.02-1.5-8-.91,0-.3,3.09-2.02,4-2.49,1.31-.52-3.48-2.48-2.99l-2.05,10.95c-9.53.38-17.48,1.71-27.01-.41-13-2.89-4.92-4.29-6.45-7.59-.37-.79-1.91-1.51-2.55-2.45-.73-1.07-.81-3.13-1.1-3.37-.77-.64-3.25.28-3.79-.19-.44-.39-.96-8.54-1.32-10.19-.79-3.66-1.48-7.24-2.23-10.77s-5.88-19.07-4.51-20.99l1.98,1.02c.19-.26-.87-4.53-1.14-4.83h0ZM170.01,250.27h-17.5c-1.11,0-4.35-2.01-6.5-.99v1.99h24v-1Z" fill="#f6f9fd"/>
    <g>
      <path d="M124,75.27l-3.21-2.05c-3.5-1.83,6.31-5.25,7.57-6.09,7.26-4.82,3.27-9.91,6.78-16.22s15.7-9.45,15.36-19.63c5.56,5.7,8.8,29.98-.21,32.78-2.71.84-7.13.56-10.5,1.5s-6.55,3.45-9.57,4.44c-2.82.93-6.87-1.97-6.22,5.27Z" fill="#f6f9fd"/>
      <path d="M153.01,64.26c6.31-7.45,4.6-20.47,1.73-29.22-1.18-3.6-4.24-5.87-3.71-9.77l5.47,9.01c1.39,4.85,4.02,9.35,4.5,14.49.56,5.98.38,17.31-7.98,15.48h-.01Z" fill="#f6f9fd"/>
      <path d="M117.87,76.42c.32.21,1.39,3.92,2.14,4.83-13.63,6.03-8.66-8.98-2.14-4.83Z" fill="#f6f9fd"/>
      <path d="M115.32,177.93c1.96,1.6,6.65.05,7.72,2.04l8.96,44.3-4.7-15.79c-2.18-7.01-2.56-18.05-5.27-24.5-.25-.6-3.83-1.84-4.01-1.71-.42.29-.11,4.16-2,4,.54-3.25-.93-5.65-1.99-8.54.57-3.83.93-.1,1.29.2Z" fill="#f6f9fd"/>
      <path d="M121.34,197.01c1.89,1.21,3.23-1.42,2.66,4.27l-2,2.99-3.01-8.48c.1-3.68,1.65.78,2.34,1.22h.01Z" fill="#f6f9fd"/>
    </g>
  </g>
</svg>