<?xml version="1.0" encoding="UTF-8"?>
<svg id="Layer_1" data-name="Layer 1" xmlns="http://www.w3.org/2000/svg" viewBox="0 0 480.3 141.89">
  <defs>
    <style>
      .cls-1 {
        fill: #f6f9fd;
        fill-rule: evenodd;
      }
    </style>
  </defs>
  <path class="cls-1" d="M414.37.66l65.93.07-6.7,22.78-45.06-.06-3.06,10.85-6.05,21.5-3.22,11.44,44.49.09-5.97,20.75-65.93-.07L414.37.66ZM346.26.58l65.93.07-6.88,22.78-44.88-.06-3.42,11.86,32.47.03-6.32,19.24-31.47-.05-3.59,12.72,44.49.09-5.97,20.75-65.93-.07L346.26.58ZM293.77,101.52l-8.79,28.55c-2,6.51-8.97,11.82-15.48,11.82l-59.61-.07c-10.12-.01-15.23-8.13-12.74-18.42l8.59-35.54-11.97-32.76-9.94,32.79-22.48-.04L185.28.26h20.6s13.02,36,13.02,36L228.37.22l22.94-.06-29,107.74-.51,1.76c-1.73,5.93,2.15,9.88,7.96,9.95h30.27c3.56.06,6.06-1.58,7.97-3.93,2.33-2.87,3.44-5.78,4.39-9.25l22.7-83.09h-29.61s7.08-23.06,7.08-23.06l71.79.15-6.73,22.97-21.37-.02-22.48,78.15ZM125.95,55.72l12.26-19.25-.02,19.29-12.24-.04ZM83.25,87.77l22.94.03,6.87-10.5,25.01-.06-.06,10.59,21.94.02.1-87.7-21.96-.02-54.84,87.64ZM23.15,0l22.25.02,9.83,30.51L80.65.06l24.68.03-23.14,87.7-24.33-.05,11.29-40.27-25.98,29.89-8.47-30.94-12.12,41.25-22.58-.02L23.15,0Z"/>
</svg>