<?xml version="1.0" encoding="UTF-8"?>
<svg id="Layer_1" xmlns="http://www.w3.org/2000/svg" version="1.1" viewBox="0 0 1328 678">
  <!-- Generator: Adobe Illustrator 30.2.1, SVG Export Plug-In . SVG Version: 2.1.1 Build 1)  -->
  <defs>
    <style>
      .st0 {
        fill: #f9f9f9;
      }
    </style>
  </defs>
  <g>
    <path class="st0" d="M826.36,196.2l-164.6.13c-.38,5.42-.45,10.35-.24,16.4h179.62c5.18,5.22,9.76,10.26,14.39,16.39l-193.85.03-.54,15.9h208.62s14.6,16.97,14.6,16.97l-222.95.07-.02,15.84h237.12s13.8,16.24,13.8,16.24h-250.48c-.65,5.5-.62,10.5-.19,16.67l265.91.04c4.98,5.59,9.32,10.5,13.47,16.28l-557.39.03,52.83-60.58,11.82-13.37,43.33-49.62,52.19-59.91L662.71,7.67l21.8,25.32-23.09.4.12,15.57,37.47.09,13.7,16.68-51.34.26.14,15.86,65.48.07c4.75,5.01,8.87,9.4,13.69,16.07l-79.07.31.03,16.41h93.57c5.24,4.82,9.99,9.86,14.4,16.5l-108.15.13-.11,15.69h122.36c5.29,5.28,9.56,9.86,14.72,16.86l-137.15.1.06,15.91,151.83.07,13.16,16.22Z"/>
    <path class="st0" d="M1103.66,538.54l-67.43.26-117.96-129.69-.44,129.65h-511.25s-.31-129.58-.31-129.58l-117.91,129.63-67.21-.07-117.95-129.65-.23,129.66H15.43s0-180.5,0-180.5l137.93-.07,101.37,115.84,101.51-115.85,612.19.02,101.3,115.85,101.46-115.85,137.8.02v180.49s-87.5.09-87.5.09v-126.95c-.24-.51-.72-1.84-.96-1.63l-1.88,1.66-115,126.68ZM720.39,491.99l-104.23-.02c-11.63,0-22.64-.83-33.48-3.64-10.29-2.67-17.08-10.82-17.82-21.41-.88-12.65-.98-25.17.14-37.73.89-10.05,7.46-17.66,17.03-20.25,8.54-2.31,17.29-3.61,26.48-3.61h123.2c7.75,0,15.26,1.29,22.2,3.57,6.39,2.11,9.63,7.35,10.05,14.34h87.89c1.48-20.56-3.64-35.84-22.52-44.4-22.18-10.07-57.41-12.44-82.37-12.44l-158.79.02c-19,0-36.89,1.38-55.39,4.32-13.2,2.1-25.55,5.53-37.05,11.94-14.25,7.94-23.53,21.74-23.53,38.35v54.96c0,15.72,8.48,29.3,21.59,37.23,9.27,5.6,19.08,9.16,29.88,11.3,17.8,3.53,35.23,5.93,53.71,5.93l173.31.08c21.01,0,63.25-2,81.52-11.3,12.83-5.9,21.14-17.44,21.23-31.97l.31-50.75h-201.45s-.09,33.5-.09,33.5h111.18c5.21,20.89-27.7,21.99-42.98,21.99Z"/>
  </g>
  <g>
    <path class="st0" d="M1239.01,668.3H85.88c3.65-6.12,8.73-10.74,13.67-16.4h1125.06c5.24,5.33,9.91,10.58,14.41,16.4Z"/>
    <path class="st0" d="M878.9,607.06c-.09,15.59-20.97,15.77-31.89,15.74l-35.08-.09c-10.11-.03-25.04-2.77-25.1-15.65l-.08-17.16c-.06-12.35,12.34-16.34,22.2-16.35l40.07-.03c11.3,0,30.06.26,29.97,16.44l-.1,17.1ZM850.43,609.97c3.73,0,7.05-3.47,7.01-6.44l-.15-10.78c-.05-3.64-4.6-6.62-8.33-6.63l-31.96-.06c-3.06,0-7.77,2.48-8.35,5.39-.97,4.82-.91,9.24.06,14.1.46,2.3,4.81,4.47,7.24,4.46l34.48-.05Z"/>
    <path class="st0" d="M402.41,622.77c-11.41.03-27.16-2.39-27.16-15.81v-17.93c.01-12.88,14.45-15.46,24.74-15.48l44.16-.1c9.76.7,23.01,2.97,23.03,15.48l.03,18.15c.02,13.12-15.33,15.57-25.41,15.6l-39.39.09ZM438.42,609.95c4.06,0,7.58-3.46,7.55-6.81l-.07-9.23c-.03-4.08-3.82-7.72-8.1-7.73l-32.82-.07c-3,0-7.84,2.75-8.12,5.6-.65,6.66-2.01,18.25,7.12,18.25h34.44Z"/>
    <path class="st0" d="M270.25,621.58c-13.11,1.56-51.26,2.05-63.74-.24-7.94-1.46-10.69-8.64-9.11-15.12l20.01.18c1.08,3.12,3.2,5.41,6.59,5.39l32.46-.17c1.28,0,3.74-2.3,4.11-3.47.43-1.34-1.92-3.96-3.53-4.05-18.61-1.1-33.03.29-49.84-2.01-7.52-1.03-10.19-6.2-10.14-13.13.04-5.84,1.39-11.25,7.89-13.25,3.7-1.14,8.76-2.19,12.98-2.19h41.22c3.94,0,8.34,1.07,12.17,2.03,5.93,1.49,9.47,8.28,6.9,13.72l-19.48-.18c-1.1-2.82-3.01-4.59-5.66-4.58l-31.32.07c-1.28,0-3.51,1.99-3.89,3.08-.45,1.27,2.17,4.1,3.66,4.12l30.47.33c6.67.07,13.57.55,19.86,1.63,7.53,1.3,10.19,7.37,10.13,14.24-.07,7.47-3.75,12.62-11.77,13.57Z"/>
    <polygon class="st0" points="982.59 622.01 950.38 622.13 912.17 587.72 911.92 622.22 891.05 622.23 890.99 574.04 923.14 573.97 961.5 608.43 961.9 574.02 982.49 574.05 982.59 622.01"/>
    <polygon class="st0" points="1211.48 622.14 1179.83 622.31 1141.34 587.75 1140.94 622.23 1120.31 622.25 1120.23 574.08 1152.24 573.96 1190.38 608.24 1190.8 574.09 1211.4 574.21 1211.48 622.14"/>
    <path class="st0" d="M1252.62,609.93l32.42.07c3.45,0,5.2-3,5.84-6.5l20.36.08c.45,4.54.55,9.72-2.65,13.14-3.88,4.15-10.54,5.78-16.36,5.81l-42.16.17c-10.14.04-26.25-2.31-26.24-15.61v-18.1c.02-12.03,13.6-15.45,23.13-15.46l39.07-.02c4.76,0,10.01.9,14.53,1.9,7.73,1.71,11.5,8.96,9.46,16.4l-19.68-.13c-1.01-3.09-3.12-5.73-6.32-5.72l-30.05.11c-3.22.01-8.32,2.92-8.44,6l-.41,10.05c-.15,3.79,2.77,7.79,7.49,7.8Z"/>
    <path class="st0" d="M182.09,603h-49.46c-.31,2.12-.32,4.84-.11,7.54l53.33.08c.29,3.03.34,7.15.18,11.64l-74.56-.02-.04-48.24h73.43s.09,11.25.09,11.25l-52.47.07-.3,7.34,49.89.13.02,10.22Z"/>
    <polygon class="st0" points="339.01 622.1 318.3 622.31 318.16 586.24 289.38 586.22 289.26 574.02 367.96 573.99 367.98 586.19 339.02 586.27 339.01 622.1"/>
    <polygon class="st0" points="713.99 622.12 693.32 622.28 693.16 586.27 664.44 586.22 664.3 574.01 742.71 574.01 742.76 586.21 714.04 586.22 713.99 622.12"/>
    <polygon class="st0" points="773.54 621.91 752.82 622.37 752.7 574.04 773.49 574.06 773.54 621.91"/>
    <polygon class="st0" points="1105.56 622.07 1084.86 622.31 1084.73 574.02 1105.5 574.03 1105.56 622.07"/>
    <path class="st0" d="M1043.84,602.88c-5.09,4.93-13.2,5.66-19.09,1.36-1.71-1.25-3.41-4.03-3.56-5.85-.15-1.71,1.36-5,2.89-6.12,5.74-4.17,13.19-4.18,18.7-.19,3.59,2.6,4.3,7.65,1.06,10.79Z"/>
    <path class="st0" d="M541.02,622.32l-.36-7.37c-.13-2.59-2.66-5.16-5.55-5.16l-34.65-.05-.35,12.52-20.65-.12v-48.16s69.12.23,69.12.23c3.66.01,8.21,2.68,10.33,4.76,2.35,2.3,2.78,7.21,3.02,10.96.47,7.43-3.08,11.89-10.17,13.54,4.97.61,9.54,3.34,9.65,8.31l.21,10.38-20.6.16ZM535.66,597.51c4.04,0,6.07-2.39,5.96-6.03s-2.6-5.26-6.58-5.26h-34.67s.13,11.27.13,11.27l35.16.02Z"/>
    <path class="st0" d="M77.04,622.26l-.42-7.33c-.14-2.47-2.71-5.14-5.49-5.15l-34.67-.04-.37,12.54-20.63-.14v-48.17s68.32.16,68.32.16c3.63,0,8.34,2.3,10.42,4.16,3.16,2.83,3.57,7.5,3.71,11.65.24,6.65-2.13,11.33-9.2,13.2,4.63,1.64,8.54,3.91,8.65,8.85l.23,10.19-20.55.08ZM71.67,597.5c3.73,0,6.1-2.62,6.05-6s-2.83-5.29-6.66-5.28l-34.69.03.12,11.24h35.18Z"/>
    <path class="st0" d="M639.9,613.81l-41.79-.08-5.76,8.43-23.51-.08,36.23-48.03,27.1-.08,36.83,48.05-23.13.32-5.97-8.53ZM631.1,602.77l-12.47-17.26-12.45,17.45,24.92-.19Z"/>
  </g>
</svg>