<?xml version="1.0" encoding="UTF-8"?>
<svg id="Layer_1" xmlns="http://www.w3.org/2000/svg" version="1.1" viewBox="0 0 337.6 72">
  <!-- Generator: Adobe Illustrator 30.2.1, SVG Export Plug-In . SVG Version: 2.1.1 Build 1)  -->
  <defs>
    <style>
      .st0 {
        fill: #f6f9fd;
      }
    </style>
  </defs>
  <path class="st0" d="M140.4,14.4v43.2h-7.5V23.7h-.1l-13.4,33.9h-5l-13.7-33.9h-.1v33.9h-6.9V14.4h10.8l12.4,32h.2l13.1-32s10.2,0,10.2,0ZM146.6,17.7c0-1.2.4-2.2,1.3-3,.9-.8,1.9-1.2,3.1-1.2,1.3,0,2.4.4,3.2,1.2s1.3,1.8,1.3,3-.4,2.2-1.3,3c-.9.8-1.9,1.2-3.2,1.2s-2.3-.4-3.1-1.2c-.8-.9-1.3-1.9-1.3-3ZM154.7,26.6v31h-7.3v-31s7.3,0,7.3,0ZM176.8,52.3c1.1,0,2.3-.2,3.6-.8,1.3-.5,2.5-1.2,3.6-2v6.8c-1.2.7-2.5,1.2-4,1.5s-3.1.5-4.9.5c-4.6,0-8.3-1.4-11.1-4.3-2.9-2.9-4.3-6.6-4.3-11,0-5,1.5-9.1,4.4-12.3s7-4.8,12.4-4.8c1.4,0,2.8.2,4.1.5,1.4.3,2.5.8,3.3,1.2v7c-1.1-.8-2.3-1.5-3.4-1.9-1.2-.4-2.4-.7-3.6-.7-2.9,0-5.2.9-7,2.8s-2.6,4.4-2.6,7.6.9,5.6,2.6,7.3c1.7,1.7,4,2.6,6.9,2.6ZM204.7,26.1c.6,0,1.1,0,1.6.1s.9.2,1.2.3v7.4c-.4-.3-.9-.6-1.7-.8s-1.6-.4-2.7-.4c-1.8,0-3.3.8-4.5,2.3s-1.9,3.8-1.9,7v15.6h-7.3v-31h7.3v4.9h.1c.7-1.7,1.7-3,3-4,1.4-.9,3-1.4,4.9-1.4ZM207.9,42.6c0-5.1,1.5-9.2,4.3-12.2,2.9-3,6.9-4.5,12-4.5,4.8,0,8.6,1.4,11.3,4.3,2.7,2.9,4.1,6.8,4.1,11.7s-1.5,9-4.3,12c-2.9,3-6.8,4.5-11.8,4.5s-8.6-1.4-11.4-4.2c-2.8-2.9-4.2-6.8-4.2-11.6ZM215.5,42.3c0,3.2.7,5.7,2.2,7.4s3.6,2.6,6.3,2.6,4.7-.8,6.1-2.6c1.4-1.7,2.1-4.2,2.1-7.6s-.7-5.8-2.1-7.6c-1.4-1.7-3.5-2.6-6-2.6-2.7,0-4.7.9-6.2,2.7-1.7,1.9-2.4,4.4-2.4,7.7ZM250.5,34.8c0,1,.3,1.9,1,2.5s2.1,1.3,4.4,2.2c2.9,1.2,5,2.5,6.1,3.9,1.2,1.5,1.8,3.2,1.8,5.3,0,2.9-1.1,5.2-3.4,7-2.2,1.8-5.3,2.6-9.1,2.6-1.3,0-2.7-.2-4.3-.5s-2.9-.7-4-1.2v-7.2c1.3.9,2.8,1.7,4.3,2.2s2.9.8,4.2.8c1.6,0,2.9-.2,3.6-.7.8-.5,1.2-1.2,1.2-2.3,0-1-.4-1.8-1.2-2.6-.8-.7-2.4-1.5-4.6-2.4-2.7-1.1-4.6-2.4-5.7-3.8s-1.7-3.2-1.7-5.4c0-2.8,1.1-5.1,3.3-6.9s5.1-2.7,8.6-2.7c1.1,0,2.3.1,3.6.4s2.5.6,3.4.9v7.1c-1-.6-2.1-1.2-3.4-1.7s-2.6-.7-3.8-.7c-1.4,0-2.5.3-3.2.8-.7.7-1.1,1.4-1.1,2.4ZM266.9,42.6c0-5.1,1.5-9.2,4.3-12.2,2.9-3,6.9-4.5,12-4.5,4.8,0,8.6,1.4,11.3,4.3,2.7,2.9,4.1,6.8,4.1,11.7s-1.5,9-4.3,12c-2.9,3-6.8,4.5-11.8,4.5s-8.6-1.4-11.4-4.2c-2.7-2.9-4.2-6.8-4.2-11.6ZM274.5,42.3c0,3.2.7,5.7,2.2,7.4s3.6,2.6,6.3,2.6,4.7-.8,6.1-2.6c1.4-1.7,2.1-4.2,2.1-7.6s-.7-5.8-2.1-7.6c-1.4-1.7-3.5-2.6-6-2.6-2.7,0-4.7.9-6.2,2.7-1.6,1.9-2.4,4.4-2.4,7.7ZM322.9,32.6h-10.9v25h-7.4v-25h-5.2v-6h5.2v-4.3c0-3.2,1.1-5.9,3.2-8s4.8-3.1,8.1-3.1c.9,0,1.7.1,2.4.1s1.3.2,1.8.4v6.3c-.2-.1-.7-.3-1.3-.5-.6-.2-1.3-.3-2.1-.3-1.5,0-2.7.5-3.5,1.4s-1.2,2.4-1.2,4.2v3.7h10.9v-7l7.3-2.2v9.2h7.4v6h-7.4v14.5c0,1.9.4,3.2,1,4,.7.8,1.8,1.2,3.3,1.2.4,0,.9-.1,1.5-.3s1.1-.4,1.5-.7v6c-.5.3-1.2.5-2.3.7-1.1.2-2.1.3-3.2.3-3.1,0-5.4-.8-6.9-2.4-1.5-1.6-2.3-4.1-2.3-7.4l.1-15.8h0Z"/>
  <rect class="st0" width="34.2" height="34.2"/>
  <rect class="st0" x="37.8" width="34.2" height="34.2"/>
  <rect class="st0" y="37.8" width="34.2" height="34.2"/>
  <rect class="st0" x="37.8" y="37.8" width="34.2" height="34.2"/>
</svg>