<?xml version="1.0" encoding="UTF-8"?>
<svg id="Layer_1" xmlns="http://www.w3.org/2000/svg" version="1.1" viewBox="0 0 537 464">
  <!-- Generator: Adobe Illustrator 30.2.1, SVG Export Plug-In . SVG Version: 2.1.1 Build 1)  -->
  <defs>
    <style>
      .st0 {
        fill: #f6f9fd;
      }
    </style>
  </defs>
  <path class="st0" d="M134,0l13.02,22.17,8.46,14.91,11.27,19.3,16.65,28.56c.4,1.45.79,4.6.99,6.23l-40.69.14c1.11,3.95,2.71,6.33,4.61,9.61l25.23,43.61,3.33,5.82,41.39,71.6,7.3,12.57,30.75,53.31,25.62,44.51,3.76,6.58,16.49,28.2c.38.64.1,2.3,0,2.75-.13.6,2.24,1.21,2.61,1.86l9.08,15.8-19.22,32.99c-.26.45-4.05.84-3.55.9s1.63,2.65,1.38,3.08l-8,13.71c-3.96,6.77-6.97,13.58-12.24,19.57l-1.89,6.23h-2.87c-.74-2.06-1.82-4.34-3.11-6.57l-13.49-23.41-20.14-34.93-32.28-55.81-14.31-24.69-2.55-5.47-12.26-20.45-8.92-15.37-6.98-12.04-32.54-56.2.63-3.02c.13-.63-2.83-.97-3.75-2.55L50.89,87.63l-5.27-9.47-17.17-29.55-10.84-18.78L5.85,9.04,1.89,3.14c-.31-.47-.71-2.06-.79-2.53-.06-.3.47-.39.9-.61h132Z"/>
  <path class="st0" d="M536,0c-.04,1.49-.57,3.82-1.42,5.27l-15.62,26.68-110.46,191.25-12.94,22.31-10.44,18.33-24.49,42.46-23.98,41.51-32.81-56.85c-.71-1.23-1.36-3.5-1.68-4.67-2.32-2.74-4.47-6.26-6.37-9.62-1.17-2.07-3.29-4.74-3.82-7.28l22.17-38.1,3.32-5.71,36.19-62.8,3.6-6.23,25.47-43.72c1.44-2.47,2.89-4.37,4.1-6.86,2.42-4.97,4.95-9.55,7.85-14.68l-43.74-.24,41.27-71.58c.37-.65.91-2.38,1.43-2.23l2.33.65-.78-4.1c3.09-4.75,5.79-9.22,7.81-13.8h133Z"/>
  <polygon class="st0" points="358 0 268.86 155.1 180 0 358 0"/>
</svg>