<?xml version="1.0" encoding="UTF-8"?>
<svg id="Layer_1" xmlns="http://www.w3.org/2000/svg" baseProfile="tiny" version="1.2" viewBox="0 0 1568.35 448.86">
  <!-- Generator: Adobe Illustrator 30.0.0, SVG Export Plug-In . SVG Version: 2.1.1 Build 123)  -->
  <path d="M802.33,135.3c.34,1.96,2.11,1.63,3.46,2.04,39.34,11.95,64.9-24.26,97.9-20.92,14.32,1.45,26.32,14.68,21.65,29.43-3.66,11.56-23.82,14.45-29.54,3.44-3.15-6.07,4.09-.68,6.22-.23,15.37,3.25,14.79-13.84,2.71-15.7-15.32-2.36-28.21,5.9-42.2,9.65-15.76,4.22-29.51,5.7-45.57,2.16-2.91-.64-17.92-4.83-18.48-6.51-4-11.89,9.55-7.47,17.24-9.47,23.69-6.16,53.24-55.05,80.51-47.3,1.58.45,10.44,5.08,8.06,7.42-22.26-2.96-34.81,19.57-50.65,30.82-6.99,4.96-27.71,15.17-35.81,15.17h-15.49Z" fill="#f6f9fd"/>
  <path d="M750.85,135.3c-16.22-1.79-32.6-10.79-44.95-21.02-13.25-10.98-24.49-28.36-44.51-24.97-2.34-2.08,8.82-7.42,10.73-7.75,27.94-4.85,54.21,40.83,78.19,47.28,3.18.85,17.24,1.54,17.9,2.6.39.63.38,7.02-.03,7.69-.91,1.48-23.36,7.53-26.58,7.91-9.49,1.12-20.94-.17-30.28-2.2-15.68-3.41-33.27-13.96-49.37-11.48-16.77,2.58-8.22,24.95,8.92,12.92,1.83,2.5-3.19,6.64-5.15,7.84-15,9.24-32.14-7.84-22.88-24.88,8.42-15.51,27.27-14.13,41.74-9.65,28.81,8.9,44.22,26.9,77.97,17.4,1.04-.29,3.02-.24,2.79-1.69-4.66-.36-9.93.5-14.49,0Z" fill="#f6f9fd"/>
  <path d="M782.94,18.39c1.45-.3,2.55,1.62,3.23,2.62,7.22,10.5,9.07,48.67,8.14,61.8-.35,4.9-4.67,31.33-7.96,33.01-2.89,1.48-6.35.78-7.76-2.27-5.57-12.07-7.09-41.24-6.25-54.71.37-5.83,4.83-39.24,10.59-40.45Z" fill="#f6f9fd"/>
  <path d="M678.38,68.33c9.82,2.27,11.04-8.49,16.02-14.47,13.23-15.91,28.83-1.2,35.78,12.15,9.08,17.43,12.46,36.7,27.68,51.3,2.69,2.58,15.96,9.29,15.48,11.49-.56,2.62-5.68.7-7.21.23-17.46-5.37-32.54-21.33-41.12-36.85-4.33-7.84-11.11-28.55-17.72-32.26-15.93-8.93-10.84,16.57-19.65,18.25-5.37,1.03-9.15-5.13-9.25-9.83Z" fill="#f6f9fd"/>
  <path d="M884,77.01c-11.57,8.57-9.42-19.8-19.02-19.43-11.44.44-14.9,17.92-18.94,25.98-9.02,17.99-27.41,42.8-48.91,46.1-5.67.87-4.34-1.32-.82-3.86,14.82-10.73,20.29-15.09,28.87-32.1,7.58-15.02,13.98-47.14,35.62-46.44,12.76.41,13.33,14.89,19.4,19.67,3.01,2.37,5.67.33,8.06,2.91-1.5,1.55-2.83,6.13-4.27,7.19Z" fill="#f6f9fd"/>
  <path d="M781.33,127.29c-2.44,2.56-18.96-14.05-21.01-16.47-20.57-24.26-7.67-37.74-14.21-61.76-1.75-6.41-7.96-7.72-8.75-13.73,9.76,2.41,20.42,8.34,24.72,17.75,9.8,21.47-8.38,42.53,10.72,63.25,1.5,1.63,11.56,7.79,8.53,10.95Z" fill="#f6f9fd"/>
  <path d="M805.91,110.89c-3.45,4.18-13.92,15.75-19.07,16.43-3.17.42-.82-3.92.05-4.96,6.39-7.55,13.55-9.51,16.6-21.39,5.63-21.93-11.34-39.07,11.36-56.62,2.97-2.3,6.39-3.9,9.46-6.02.76,3.75-2.48,5.83-3.51,8.98-3.58,10.95-1.16,28.6-2.71,40.27-1.25,9.39-6.37,16.26-12.18,23.31Z" fill="#f6f9fd"/>
  <path d="M792.33,141.29h-17.99c-2.7-14.24,20.69-14.26,17.99,0Z" fill="#f6f9fd"/>
  <g>
    <path d="M630.39,304.23v13c-16.1-1.87-32.19-4.96-48.52-4.05-9.4.52-22.17,4.84-29.98,5.1-4.02.13-9.61-3.85-15.07-3.95-6.35-.11-10.97,3.31-15.86,3.91-20.98,2.61-54.68.17-77.04.02-138.26-.92-276.45-3.61-414.84-3-3.79,1.39-4.25-6.24-3.43-7.03.52-.5,12.51-.99,14.44-1.06,50.02-1.85,101.75.51,152.02.09,106.8-.91,213.92-3.42,320.88-2.99,9.61.04,7.72.63,16.22,2.68,11.66,2.81,15.26-3.01,22.68-2.79,3.06.09,6.96,2.31,10.29,2.81,23.52,3.51,45.06,2.37,68.22-2.75Z" fill="#f6f9fd"/>
    <path d="M1541.06,308.23v6.01c-54.64,2.08-109.68.5-164.49.95-90.46.74-181.3,2.31-271.81,3.09-21.15.18-46.33,1.95-66.3-2.76-6.54-1.54-10.7-1.63-17.23.2-1.86.52-2.66,2.49-5.43,2.57-2.91.09-8-2.22-11.34-2.76-19.71-3.19-37.85-2.84-57.6-.22-1.53.2-10.26,3.67-10.59,1.34l.53-12.43c22.51,5.61,45.75,6.62,68.71,2.76,3.09-.52,7.15-2.89,10.3-2.8s8.59,4.02,13.95,4.13c6.75.14,11.17-3.55,16.94-4.13,25.06-2.51,56.48.94,81.97,1.1,49.3.31,98.8.63,147.95.99,88.15.66,176.45.57,264.45,1.95Z" fill="#f6f9fd"/>
    <path d="M672.37,303.23c-3.23.2-5.7-2.26-8.73-2.76-12.66-2.1-15.33,11.28-4.07,15.07,14.91,5.03,36.41-7.3,51.95-10.65,15.42-3.32,26.92-3.61,42.27.4,2.24.59,12.69,3.95,13.96,4.85,1.18.84.46,1.96.6,3.08-.89.92-20.88-3.96-24.55-4.03-28.11-.5-67.04,36.36-92.75,19.87-9.79-6.28-15.25-21.57-6.16-30.83,8.23-8.39,23.05-6.01,27.49,5Z" fill="#f6f9fd"/>
    <path d="M798.34,313.22c-2.6-2.75,5.91-5.06,7.78-5.7,16.72-5.74,30.9-6.3,48.23-2.82,12.65,2.54,34.11,13.03,45.29,12.45,6.67-.34,18.16-5.25,13.53-13.3-4.87-8.48-17.55.54-18.87-.62,1.75-5.15,8.32-9.69,13.45-10.04,22.3-1.55,23.99,29.07,3.24,37.24-26.32,10.36-61.6-23.96-94.15-21.18-3.21.27-17.85,4.67-18.5,3.98Z" fill="#f6f9fd"/>
    <path d="M787.2,333.35c.78.5,4.23,15.5,4.67,17.83,3.44,18.32,3.46,38.88.21,57.26-.78,4.4-4.37,23.84-10.21,22.78-10.46-23.49-11.98-55.03-7.3-80.27.42-2.26,3.96-16.14,4.65-17.15.64-.94,7.27-.9,7.98-.45Z" fill="#f6f9fd"/>
    <path d="M888.3,381.2c-13.04-1.84-11.36,15.81-21.75,19.72-24.08,9.05-32.35-24.93-39.37-40.06-9.38-20.22-12.26-25.1-30.54-37.43-.74-.5-3.55-2.05-2.3-3.19.74-.67,16.86,5.54,18.89,6.59,10.96,5.62,22.26,19.08,28.26,29.72,4.09,7.27,11.68,30.12,17.87,33.11,13.78,6.66,11.28-8.65,16.08-15.8s12.77.96,12.86,7.35Z" fill="#f6f9fd"/>
    <path d="M678.38,381.2c-1.03-.91,3.9-8.17,5.44-9.05,9.72-5.59,9.15,14.67,13.97,18.13,4.35,3.13,10.41-.1,13.42-3.73,5.4-6.5,9.99-22.37,14.97-31.01,8.45-14.65,26.85-32.79,44.12-35.88,3.76-.67,3.77,1.81.98,4.01-3.56,2.79-8.5,3.8-12.48,7.51-6.3,5.89-13.39,16.94-17.3,24.68-7.29,14.44-16.27,53.38-39.87,45.56-11.58-3.84-10-22.63-23.25-20.23Z" fill="#f6f9fd"/>
    <path d="M768.27,315.3c.17.18.21,3.78.07,3.92-.46.48-10.65-.13-13.26.24-27.12,3.89-52.46,52.34-82.12,48.65-3.28-.41-12.33-3.65-10.08-7.92,18.48,3.63,30.78-14.59,43.01-24.95,13.23-11.2,31.35-20.32,48.91-21.06,2.01-.08,12.73.29,13.47,1.11Z" fill="#f6f9fd"/>
    <path d="M781.33,322.23c2.89,2.89-5.62,7.9-7.04,9.44-23.07,25.03.89,47.78-14.97,69-2.73,3.66-16.43,14.29-20.44,13.52-4.98-.95,3.23-6.21,3.89-7.08,7.12-9.32,3.81-31.22,5.59-43.39,2.08-14.21,10.01-24.15,20.46-33.52,1.88-1.69,10.59-9.89,12.52-7.97Z" fill="#f6f9fd"/>
    <path d="M801.91,333.64c5.77,5.52,13.09,14.34,15.47,22.01,4.74,15.27.15,33.48,5.54,48.44l7.4,9.09c-13.64-1.84-25.8-13.47-27.02-27.45-1.59-18.21,7.21-31.82-5.55-48.43-2.82-3.67-12.05-10.28-12.41-13.58-.17-1.55-.11-1.73,1.5-1.51,2.14.29,12.82,9.28,15.07,11.43Z" fill="#f6f9fd"/>
    <path d="M817.82,315.23c13.72,1.54,31.15,11.33,41.69,20.05,12.93,10.7,24.43,28.57,43.78,25.94,1.61,1.3-4.29,4.27-4.95,4.54-28.08,11.31-58.14-40.88-83.75-46.29-4.54-.96-15.39.52-16.25-4.24,6.23.5,13.39-.69,19.49,0Z" fill="#f6f9fd"/>
    <path d="M792.33,308.23c2.38,14.16-20.49,14.44-17.99,0h17.99Z" fill="#f6f9fd"/>
  </g>
  <path d="M828.32,37.34c-.34,1.45-1.61,2.29-2.99,1.98v-1.99s2.99,0,2.99,0Z" fill="#f6f9fd"/>
  <g>
    <path d="M936.28,145.29v-13.99c17.9,4.37,39.01,5.4,57.47,3.99,6.38-.49,16.88-4.38,22.02-4.07,3.35.2,9,3.78,13.98,3.88,6.06.11,11.05-3.23,15.97-3.82,37.72-4.53,84.36,3.48,123.03-.02,116.35,4.09,233.48-.42,349.78,4.09,6.17.24,15.53-1.04,21.03-.04,3.51.64,3.38,5.05.86,5.85-1.27.4-9.64,1.06-11.81,1.19-79.67,4.62-163.08-2.73-242.91,2-31.62.53-63.49-1.32-94.96,1.01-46.18-3.7-99.75,4.75-145.06.02-4.42-.46-9.49-3.83-14.01-3.98-5.24-.17-12.02,3.73-15.9,4-4.08.28-13.9-3.62-19.01-4.08-9.72-.87-26.19-.73-36.02-.05-8.18.57-16.27,3.42-24.45,4.04Z" fill="#f6f9fd"/>
    <path d="M630.39,131.3v13.99c-13.78-2.59-27.56-4.6-41.65-4.62-5.72,0-14.14.16-19.74.7-4.46.43-13.08,3.82-17.09,4-4.36.2-9.65-4.03-14.98-4.16-5.83-.15-10.35,3.59-15.94,4.13-44.82,4.31-96.5-3.38-142.05,0-115.41-.49-231.43-4.88-346.87-4.09-2.34.02-6.49,2.23-7.22-1.58-.14-.72.63-4.22,1.38-4.43,3.75-1.07,17.61.29,22.91.1,115.28-4.09,231.46-2.04,346.87-3,38.66-.32,86.03-4.54,123.95-1.08,6.43.59,11.06,4.5,17.98,4.12,4.84-.26,10.17-4.32,13.94-4.18,4.3.16,13.05,3.65,19.04,4.08,19.02,1.39,41.04.61,59.46-3.99Z" fill="#f6f9fd"/>
    <rect x="891.3" y="173.29" width="3.99" height=".98" fill="#f6f9fd"/>
    <path d="M1122.9,175.28c1.36,4.38-3.93,3.31-5.75,5.24-.26.28-2.25,4.97-2.25,5.25v33.49h38.99v-32.49c0-.49-1.52-4.33-1.97-5.02-1.84-2.82-5.91-2.71-5.03-6.47h40.98c.89,4.28-1.51,2.33-3.52,3.94-3.62,2.89-4.11,9.05-4.47,13.56-1.32,16.73-1.14,43.15-.05,60.01.35,5.47.71,14.35,5.68,17.32,2.8,1.68,5.23-.15,4.36,4.13h-45.98c-.95-4.76,3.97-2.07,6.86-6.63.76-1.2,3.14-8.78,3.14-9.86v-32.49h-38.49c-1.09,0-1.43,2.44-1.55,3.45-.85,7.23.29,23.27,1.31,30.78.53,3.9,1.86,8.52,5.38,10.63,2.8,1.67,5.23-.14,4.36,4.12-5.82-1.25-46.3,1.7-47.99,0-2.59-2.59,3.1-3.36,4.36-4.12,6.04-3.63,7.29-18.66,7.68-25.32.96-16.37,1.28-44.09-1.1-59.96-1-6.66-7.16-3.94-6.94-9.55h41.98ZM1083.92,271.24c6.05-.4,9.02-5.51,10.71-10.76,3.93-12.21,3.41-54.53,2.26-68.68-.4-4.96-1.17-13.86-7.98-12.02,3.42,3.15,3.73,10.28,4.04,14.96.92,14.08,1.67,58.33-3.54,69.51l-5.49,6.99Z" fill="#f6f9fd"/>
    <path d="M676.57,175.28c17.28,1.6,36.98,11.65,27.24,32.24-4.02,8.49-12.48,9.31-20.14,11.85-1.1.37-2.42.3-2.6,1.89,17.6,1.42,35.76,10.94,32.9,31.41-2.17,15.51-23.3,20.73-36.36,21.62-18.79,1.29-42.68.74-61.85.58-1.74-.01-3.75-.99-5.68-.63-.81-4.57,1.37-2.18,3.98-3.49,3.92-1.98,6.52-15.82,6.9-20.12,1.35-15.5,1.48-43.41.16-58.89-.21-2.53-1.1-7.66-2.24-9.76-1.63-3-5.6-2.7-4.8-6.7,20.13,1.37,42.63-1.84,62.48,0ZM621.69,179.62c2.21,3.08,3.12,7.38,3.44,11.12,1.13,13.13,1.57,60.22-1.98,71.06-1.1,3.36-3.32,6.18-4.56,9.42,7.46-2.5,9.97-14.24,10.54-21.43,1.19-15.05,1.44-44.18-.05-59-.57-5.68-2.66-11.61-8.98-12.5l1.59,1.33ZM647.08,219.26c16.52,0,33.61-1.71,32.02-22.54-.36-4.71-2.01-9.25-6.13-11.86-1.44-.91-9.06-3.59-10.4-3.59h-15.49v37.99ZM647.08,224.26v34.49c0,1.25,2.26,6.41,3.47,7.53,4.77,4.43,18.47,3.56,24.22,1.16,15.61-6.5,16.79-31.68,1.2-39.58-1.77-.9-9.9-3.6-11.39-3.6h-17.49Z" fill="#f6f9fd"/>
    <path d="M889.78,171.58c69.52-5.73,81.76,92.83,17.26,105.22-80.45,15.45-92.09-99.05-17.26-105.22ZM891.98,173.29h-3.99v.98h3.99v-.98ZM886.99,174.29c-53.31,6.49-59.28,85.36-7.51,99.97,2.14-1.68.08-1.63-.79-2.25-5.1-3.61-10.95-5.94-15.7-10.25-22.38-20.3-19.82-60.66,5.26-77.73l18.73-9.74ZM891.76,176.53c-11.61,1.43-17.02,10.84-20.02,20.98-5.32,18-6.89,62.71,12.55,72.94,12.85,6.76,24.68.28,30.57-11.83,9.76-20.05,10.81-86.26-23.1-82.09Z" fill="#f6f9fd"/>
    <path d="M425.16,175.28c-.19,3.7,7.12,25.9,5.99,26.98-2.55,2.46-7.92-5.73-9.98-7.5-5.51-4.75-18.26-13.48-25.5-13.48h-20.49v37.99h15.49c4.59,0,15.48-5.06,18.51-8.76s1.65-8.58,6.98-7.23v37.99c-4.02.95-3.71-3.61-6-6.5-3.59-4.53-15.03-9.5-20.49-9.5h-14.49v30.49c0,1.87,3.2,8.72,5.05,9.95,14.47,9.66,37.86-5.41,48.46-15.42,3.74-3.53,6.29-9.49,11.46-11.02,1.73,1.99-9.11,30.28-9.99,34.98h-92.97c-.25-3.61,4.07-2.78,6.39-4.11,3.93-2.27,5.31-11.01,5.65-15.35,1.27-16.2,1.71-50.15-.15-65.9-.24-2.03-1.2-6.03-2.39-7.61-2.55-3.38-7.6-1.23-6.5-6h84.97ZM351.86,267.91c1.22-1.27,3.37-5.89,3.85-7.65,3.14-11.57,2.66-55.19,1.52-68.52-.53-6.22-2.34-12.79-9.52-13.47l3.7,4.3c.78,2.35,1.52,4.75,1.77,7.23,1.6,15.99,1.27,46.74.05,63-.6,7.93-2.16,12.94-8.04,18.44.74.63,5.87-2.5,6.66-3.32Z" fill="#f6f9fd"/>
    <path d="M1288.84,175.28l5.99,26.98c-5.44,1.04-6.34-4.22-9.44-7.04-5.42-4.91-18.79-13.95-26.04-13.95h-19.99c-.11,0-1.5,1.39-1.5,1.5v36.49h16.49c6.3,0,15.03-5.1,18.93-10.06,1.21-1.54,2.8-8.28,5.55-5.94,1.68,1.44.89,33,.01,37.98-3.6-.81-4.03-5.65-6.96-8.53-4.65-4.56-14.15-6.94-20.54-7.45-4.72-.38-12.9-1.73-13.53,3.44-.78,6.5.13,29.52,3.59,34.49,8.76,12.59,33.94.64,43.36-6.54,6.76-5.15,10.7-12.06,16.04-16.73.88-.77,2.61-1.09,3.03-.67,1.3,1.26-8.93,30.53-10.23,34.76l-91.75.77-.98-3.54c7.61.55,10.17-6.21,10.89-12.61,1.98-17.43,2.14-42.31,1.15-59.91-.23-4.02-1-14.17-3.02-16.97-2.4-3.33-6.95-2.21-6.02-6.48h84.97ZM1210.87,269.24c8.82-.65,9.6-15.45,10.04-22.44.94-15.08,1.27-40.09-.18-54.9-.66-6.77-1.73-12.34-9.35-13.64l4,6c1.54,20.74,2.89,44.69,1.54,65.53-.21,3.19-.76,8.36-1.72,11.28-1.04,3.17-3.8,5.01-4.32,8.16Z" fill="#f6f9fd"/>
    <path d="M986.95,274.24c-2.2-1.75,4.19-3.11,4.92-3.58,4.9-3.19,5.78-8.7,6.97-14.02l.08-69.84c-4.2-9.84-16.63-2.14-22.44,2.49-2.53,2.02-13.97,15.04-15.02,14.95-1.66-.14-1.42-2.91-1.27-4.21.25-2.22,5.94-23.14,6.66-24.16l1.57-.66c10.45,1.84,87.35-2.58,90.03,1.04.77,1.04,6.54,22.25,7.04,24.98.23,1.24.4,2.73-1.09,3.04-2.91.61-6.85-6.75-8.82-8.65-6.19-5.98-23.59-21.36-29.43-8.63,1.25,22.54-2.48,48.49-.09,70.63.57,5.32,1.96,10.37,6.61,13.39,1.05.68,4.1,1.06,4.26,1.24,2.54,2.94-5.77,1.99-6.5,1.99-5.64,0-41.78,1.35-43.48,0ZM999.95,266.24c6.54-1.83,7.63-12.61,8.04-18.44.94-13.56,1.66-44.14-.14-56.93-.61-4.36-3.02-7.54-7.39-8.6-1.62,1.21,1.14.75,1.8,2.25.79,1.8,1.49,4.29,1.69,6.26,1.5,14.75,1.02,41.91.04,57.03-.42,6.51-2.07,12.32-4.04,18.44Z" fill="#f6f9fd"/>
    <path d="M318.07,175.41l7.12,27.85c-4.99.34-7-5.75-9.95-8.53-6.22-5.86-23.13-20.17-28.82-7.74,1.25,22.54-2.48,48.49-.09,70.63.36,3.32,1.4,7.9,3.44,10.55,2.88,3.75,5.89,1.96,7.42,5.55l-8.49,1.53c-13.57-1.41-26.87-.48-40.49-.47-3.08-3.25,1.48-2.57,3.92-4.12,4.47-2.84,6.42-9.96,6.97-15.02,2.38-21.57-1.53-46.86.08-68.84-6.11-12.02-22.56,2-28.99,7.95-3.24,3-5.03,8.71-9.97,8.52l7.12-27.85h90.7ZM265,184.59c-.97-.39-1.77-.4-2.77-.3,1.08,3.01,1.81,6.24,2.03,9.45,1.05,15.18,1.71,55.96-2.99,69.06-.98,2.74-2.81,4.87-4.05,7.44,3.73.07,6.59-4.56,7.88-7.6,4.7-10.97,4.21-56.32,3.15-69.89-.17-2.16-1.13-7.29-3.26-8.15Z" fill="#f6f9fd"/>
    <path d="M499.14,175.28c.05,5.64-5.88,2.51-8.03,9.45-3.58,11.56-2.76,46.73-2.01,60.06.33,5.95,1.16,19.05,6.66,22.33,11.78,7.04,31.09-4.96,39.87-12.91,3.46-3.13,9.06-11.95,11.92-14.03,1.05-.76,3.97-1.49,4.56-.93,1.25,1.19-8.82,28.91-9.15,33.32l-1.54,1.53-88.77.72-1.5-2.57c8.63-1.72,11.38-12.86,12.03-20.47,1.29-15.18,1.63-48.17-.03-63.02-.26-2.32-1.34-6.4-2.95-8.04-1.77-1.82-5.85-2.2-6.05-2.46-.58-.77.96-2.99,1.5-2.99h43.48ZM462.15,268.24c5.67-1.82,8.58-12.18,9.03-17.45,1.23-14.22,1.64-47.25-.01-61.04-.47-3.92-2.62-6.96-5.53-9.47-.64,3.29,1.28,6.08,1.55,9.45,1.18,14.88,1.71,57.15-1.78,70.27-.76,2.86-1.88,5.63-3.26,8.23Z" fill="#f6f9fd"/>
    <path d="M797.52,175.28c16.1,1.7,31.39,15.57,23.66,32.66-5.04,11.15-17.87,12.1-28.16,14.82,2.31,2.6,5.51,1.83,8.67,3.31,18.29,8.55,15.61,32.88,28.29,42.7,1.68,1.3,6.84,3.22,7.02,3.99.23.97-1.14,2.49-1.5,2.49h-34.99c-8.86-17.86-9.55-54.2-37.55-50.54-1.45,1.01-1.17,19.78-.97,23.09.31,5.32,1.03,15.83,4.04,19.95,3.6,4.94,8.2,1.5,7,7.49h-46.48c-1.02,0-2.1-3.3-1.5-3.99.15-.17,2.85-.23,4.36-1.14,3.43-2.06,4.48-5.94,5.36-9.65,2.64-11.17,2.83-59.51,1.19-71.61-.25-1.81-1.11-4.39-2.06-5.94-2.06-3.35-6.42-3.53-5.85-7.65h69.47ZM736.05,268.24c6.3-1.39,7.63-10.95,8.04-16.44,1.1-14.59,1.75-48.07-.13-61.93-.57-4.2-3.21-9.04-7.4-10.59.5,2.42,2.53,4.11,3.25,6.75,2.92,10.71,2.23,60.74,0,72.5-.61,3.21-2.39,6.76-3.76,9.72ZM762.04,219.26c16.11.94,35.21-1.88,32.99-22.5-.53-4.92-2.58-8.56-6.67-11.32-1.5-1.01-8.48-4.17-9.83-4.17h-16.49v37.99Z" fill="#f6f9fd"/>
    <path d="M1386.3,175.28c15.98,1.69,31.34,15.69,23.66,32.66-4.74,10.48-18.15,12.75-28.16,14.82,3.72,2.6,8.47,3.08,12.32,5.67,11.83,7.95,12.95,27.6,21.2,37.78,1.82,2.24,9.25,5.65,9.46,6.55.23.97-1.14,2.49-1.5,2.49h-32.99c-.44,0-2.19-1.08-2.5-1.75-4.07-12.42-9.21-38.74-20.65-46.07-3.17-2.03-14.82-5.7-16.19-1.52-.88,2.69-.42,21.73-.13,25.84.3,4.23,1.91,16.32,5.68,18.56,1.99,1.18,7.6.19,5.26,3.88-.89,1.4-28.34,1.2-32.49,1.11-1.76-.04-3.37-.81-4.96-.84-2.31-.05-9.08,2.57-10.49-.71s2.17-2.08,3.94-3.02c4.77-2.54,6.69-12.85,7.09-17.93,1.17-14.82,1.79-49.81-.12-63.92-1.03-7.61-5.74-7.93-8.91-13.58h70.47ZM1350.82,219.26c16.31.8,35.79-2.66,32.9-23.4-2.05-14.7-19.06-14.42-30.41-15.61-.84-.11-2.49,1.03-2.49,1.53v37.49ZM1328.81,181.29c-3.43-2.87-.06,6.91.06,8.45,1.17,14.7,1.78,60.67-1.76,73.29-.52,1.87-1.43,3.5-2.28,5.21,5.96-2.01,7.55-9.86,8.03-15.45,1.73-20.12-1.38-42.65-.01-63.03.25-1.36-3.5-8.02-4.04-8.47Z" fill="#f6f9fd"/>
    <g>
      <path d="M72.3,229.26v31.49c0,.94,2.69,7.56,3.54,8.45,2.57,2.68,7.42.96,7.45,5.04h-45.48c-.21,0-1.1,1.63-2,.01-.61-1.09-.6-1.84-.5-3.01,3.39.55,6.32-1.8,7.78-4.73,2.25-4.52,3-16.23,3.27-21.72.69-13.82,1.73-48.45-1.52-60.55-1.59-5.91-6.71-3.82-6.53-8.97h58.48c3.9,0,14.48,2.94,18.48,4.52,10.6,4.19,18.15,11.65,16.9,23.86-2.43,23.72-41.49,28.36-59.87,25.6ZM86.79,181.28c-4.75-.63-10.6.46-15.49,0v41.98c17.31,1.34,35.72-5.83,32.89-26.4-1.17-8.56-9.28-14.49-17.4-15.58ZM51.16,182.43c-.53-.33-2.88-.53-2.87.36.98,2.81,1.81,4.87,2.05,7.94,1.31,16.4,1.43,46.71-.06,63-.47,5.11-2.35,9.75-3.98,14.51,1.21,1.31,5.32-4.78,5.72-5.77,3.63-8.97,3.32-57.09,2.31-68.73-.17-2.01-2-10.58-3.18-11.31Z" fill="#f6f9fd"/>
      <path d="M51.16,182.43c1.18.73,3,9.3,3.18,11.31,1.01,11.65,1.32,59.76-2.31,68.73-.4.99-4.51,7.08-5.72,5.77,1.63-4.76,3.51-9.39,3.98-14.51,1.49-16.29,1.36-46.6.06-63-.24-3.08-1.08-5.13-2.05-7.94,0-.89,2.34-.69,2.87-.36Z" fill="#f6f9fd"/>
    </g>
    <path d="M115.28,274.24c-1.41-1.22,7.84-7.33,8.99-8.5,3.65-3.73,7.52-10.22,10.17-14.82,13.93-24.12,24.03-51.87,37.52-76.4.26-1.88,3.46-1.82,4.39-.62l43.69,87.04c1.6,1.9,2.98,4.62,4.7,6.3,1.89,1.84,7.37,3.21,6.49,6.49l-46.35,1.43c-5.57-5.16,3.13-3.26,4.87-6.91,3.9-8.18-7.92-24.9-10.66-32.83h-30.67c-3.91,10.18-16.36,27.24-2.54,34.72,2.87,1.55,5.24-.1,4.38,4.1h-34.99ZM191.25,271.23c13.76.41,4.89-17.14,1.86-24.34-7.41-17.62-17.46-35.13-25.34-52.62-.55.98-2.34.6-2.59,1.65-.56,2.43,6.36,13.58,7.94,16.98,4.13,8.9,22.66,45.88,21.85,52.73-.28,2.41-2.82,3.59-3.72,5.6ZM176.26,230.26l-12.5-28c-4.18,9.22-9.57,18.43-12.5,28h24.99Z" fill="#f6f9fd"/>
    <g>
      <path d="M1526.75,179.29l-7.01,26.97c-2.4,2.2-6.37-12.03-7.46-14.02-6.29-11.6-20.23-18.39-32.92-12.86-10.1,4.4-14.38,20.98-4.3,27.1,18.17,11.03,57.24,3.55,56.76,36.27-.45,30.84-36.52,36.46-60.43,34.37-5.24-.46-26.31-5.18-29.65-8.34-1.34-1.27-.95-2.19-.77-3.74.27-2.4,5.73-25.02,6.85-25.74.22-.14,2.83-.14,2.94-.04.4.38,1.76,8.14,2.82,10.68,6.92,16.5,23.71,27.23,41.55,20.19,13.9-5.49,16.45-21.94,3.55-30.3-11.21-7.26-23.57-4.74-34.9-10.08-25.97-12.24-25.02-44.02,2-53.94,20.25-7.44,41.13-2.2,60.96,3.49ZM1484.76,174.29c-12.42.9-28.36,5.58-33.47,17.99-6.01,14.58-.25,25.6,11.99,33.97,1.62-.99-.32-2.21-.99-3-4.14-4.88-6.85-5.83-8.25-12.74-2.39-11.81.57-21.77,10.39-29.09l20.34-7.13ZM1495.77,272.23c25.48-2.11,26.25-35.28.5-38-3.08.18-.97,1.05.24,1.78,3.73,2.26,7.25,3,10.25,6.74,6.42,8,5.7,15.66-.59,23.39l-10.39,6.08Z" fill="#f6f9fd"/>
      <path d="M1484.76,174.29l-20.34,7.13c-9.82,7.31-12.78,17.28-10.39,29.09,1.4,6.91,4.12,7.86,8.25,12.74.67.79,2.61,2.02.99,3-12.24-8.37-17.99-19.39-11.99-33.97,5.11-12.41,21.05-17.1,33.47-17.99Z" fill="#f6f9fd"/>
      <path d="M1495.77,272.23l10.39-6.08c6.3-7.73,7.01-15.39.59-23.39-3-3.74-6.52-4.48-10.25-6.74-1.2-.73-3.32-1.6-.24-1.78,25.75,2.71,24.97,35.89-.5,38Z" fill="#f6f9fd"/>
    </g>
  </g>
</svg>