<?xml version="1.0" encoding="UTF-8"?>
<svg id="Layer_1" xmlns="http://www.w3.org/2000/svg" baseProfile="tiny" version="1.2" viewBox="0 0 2509 547">
  <!-- Generator: Adobe Illustrator 30.1.0, SVG Export Plug-In . SVG Version: 2.1.1 Build 136)  -->
  <g>
    <path d="M2372.75,410.06c-.66-1.59-1.58-2.96-2.74-4.13-1.17-1.16-2.55-2.08-4.12-2.75-1.58-.66-3.29-1-5.12-1s-3.59.34-5.19,1c-1.59.67-2.97,1.59-4.15,2.75-1.16,1.17-2.08,2.54-2.74,4.13-.67,1.59-1,3.3-1,5.14,0,1.9.33,3.64,1,5.24.66,1.61,1.58,3,2.74,4.17,1.17,1.17,2.56,2.1,4.15,2.78,1.6.66,3.32,1,5.19,1s3.54-.34,5.12-1c1.58-.67,2.95-1.6,4.12-2.78,1.16-1.17,2.08-2.56,2.74-4.17.67-1.6,1-3.34,1-5.24,0-1.84-.33-3.54-1-5.14ZM2365.53,424.24l-5.02-7.73h-3.04s0,7.73,0,7.73h-2.85s0-17.98,0-17.98h7.12c2.18,0,3.81.43,4.86,1.28,1.05.84,1.58,2.14,1.58,3.86,0,1.61-.46,2.8-1.39,3.56-.92.76-2.07,1.19-3.44,1.33l5.28,7.94h-3.08Z" fill="#f6f9fd"/>
    <path d="M2364.92,412.95c.27-.38.41-.94.41-1.67,0-.6-.12-1.08-.36-1.43-.24-.36-.55-.64-.92-.83-.38-.19-.82-.32-1.32-.38-.49-.06-.98-.11-1.46-.11h-3.8v5.72h2.99c.65,0,1.26-.02,1.84-.06.57-.04,1.08-.15,1.54-.34.45-.19.81-.49,1.07-.9Z" fill="#f6f9fd"/>
  </g>
  <path d="M1263.13,40.83c652.13,0,1099.74,56.04,1201.43,70.05-6,33.58-15.74,97.79-15.74,161.87,0,63.7,9.66,127.98,15.6,161.52-99.6,14.48-537.52,72.05-1201.29,72.05-665.59,0-1103.27-57.52-1203.27-72.05,6.39-33.64,16.74-97.92,16.74-161.73,0-63.73-10.27-127.25-16.65-160.65,101.51-14.05,545.8-69.85,1203.18-71.07M1263.13-.66h-.04s-.04,0-.04,0C611.83.55,173.19,54.34,54.26,70.8l-43.26,5.99,8.19,42.9c5.94,31.13,15.91,92.38,15.91,152.86,0,60.68-10.03,122.52-16.01,153.98l-8.09,42.58,42.89,6.23c116.98,17,549.9,72.49,1209.23,72.48,657.42,0,1090.26-55.48,1207.26-72.49l42.35-6.16-7.46-42.14c-5.59-31.57-14.97-93.59-14.97-154.29,0-60.97,9.46-123.01,15.1-154.57l7.59-42.51-42.78-5.89C2350.25,53.25,1908.66-.67,1263.13-.66h0Z" fill="#f6f9fd"/>
  <path d="M2311.39,204.8l-189.15,140.76c17.57,1.47,38.04,2.52,61.07,2.58,63.76.18,128.08-13.08,128.08-13.08v49.26s-64.44,12.81-128.22,12.64c-83.57-.28-133.4-12.86-133.4-12.86v-49.26l189.2-140.73c-17.61-1.51-38.09-2.52-61.12-2.59-63.76-.21-128.08,13.07-128.08,13.07v-49.27s64.46-12.78,128.22-12.61c83.57.25,133.4,12.82,133.4,12.82v49.27Z" fill="#f6f9fd"/>
  <path d="M1987.67,157.98v50.52l-7.3-2.31c-11.8-3.24-50.82-9.51-98.15-10.69v201.38h-56.08v-201.34c-45.96,1.19-82.85,6.5-95.43,10.59l-7.58,2.54v-50.73c25.68-7.3,70.95-12.08,132.22-12.08,69.41,0,107.35,5.94,132.32,12.12Z" fill="#f6f9fd"/>
  <path d="M1662.92,158.64v49.34l-.96-.28-7.43-2.07c-.39-.1-38.07-10.23-122.1-10.23-34.87,0-59.84,1.65-75.56,3.18v48.98c37.79.1,110.36,1.37,149.66-2.48l8.64-.34v54.04l-5.87-.3c-32.35-3.27-112.57-2.04-152.43-2v47.9c15.5,1.47,39.39,3,72.93,3,84.04,0,122.75-10.93,123.14-11.04l8.52-2.21v50.11c-9.77,2.42-47.1,12.64-131.29,12.64s-127.84-12.12-129.54-12.56l.19-87.96h-66.75v-48.7h66.7v-88.77c1.66-.49,47.92-13.03,132.08-13.03s120.33,10.37,130.07,12.78Z" fill="#f6f9fd"/>
  <path d="M1272.69,158.65v49.33l-.97-.28-7.42-2.07c-.38-.1-38.07-10.23-122.11-10.23-34.87,0-59.84,1.65-75.53,3.18v48.98c37.77.1,110.34,1.37,149.64-2.48l8.64-.34v54.04l-5.88-.3c-32.33-3.27-112.55-2.04-152.43-2v47.9c15.51,1.47,39.43,3,72.95,3,84.05,0,122.74-10.93,123.15-11.03l8.49-2.22v50.11c-9.74,2.42-47.09,12.64-131.28,12.64s-127.84-12.12-129.51-12.56l.16-87.96h-66.74v-48.7h66.7v-88.77c1.65-.49,47.9-13.03,132.07-13.03s120.33,10.37,130.07,12.79Z" fill="#f6f9fd"/>
  <path d="M885.05,146.66v251.27h-56.12v-100.44h-162.78v100.44s-56.09,0-56.09,0v-100.26c-25.59,0-55.71,2.01-62.31,2.48l-6.29.56v-55.81l8,.91c5.8.46,35.47,2.56,60.6,2.36v-101.47h56.09v101.42l162.78-.06v-101.4h56.12Z" fill="#f6f9fd"/>
  <path d="M273.41,199.45v48.72c9.29,0,117.48-.08,204.92,0v137.26l-3.78,1.09c-1.68.42-41.85,11.41-126.06,11.41s-124.63-10.99-126.3-11.41l-4.27-.99-.03-50.09,7.23,1.91c.48.1,48.11,11.44,123.09,11.08,35.85-.17,59.26-1.47,74-2.76v-48.12h-204.84v-138.1l4.35-1.12c17.13-4.61,59.71-11.63,126.14-11.63,82.92,0,130.47,12.47,130.47,12.47v49.72s-52.38-12.69-130.33-12.69c-34.48,0-59.03,1.67-74.59,3.25Z" fill="#f6f9fd"/>
</svg>