<?xml version="1.0" encoding="UTF-8"?>
<svg id="Layer_1" xmlns="http://www.w3.org/2000/svg" version="1.1" viewBox="0 0 384.75 109.9">
  <!-- Generator: Adobe Illustrator 30.1.0, SVG Export Plug-In . SVG Version: 2.1.1 Build 136)  -->
  <path d="M368.23,100.87l9.5,4.3c-.24.83-1.46,3.41-2.23,4.73l-10.86-4.72c-4.31-1.87-7.29-5.27-9.48-9.55l2.68-6.36-9.94-2.1c-1.92-.41-3.98-2.69-4.16-4.41-.66-6.46,5.89-7.13,10.52-8.58l-8.74-1.22c-1.89-5.21-26.56,3.53-20.64-7.55l1.15-2.15c.8-1.5-8.63,1.53-11.48-1.11-3.08-2.85-2.23-9.25,1.06-11.47,3.45-2.32,8.26-3.73,12.07-3.33,5.54.58,11.06.83,15.6,3.75,2.44,1.57,1.35,7.06-1.11,8.39l-9.55,5.15c3.87,3.12,7.14,1.81,11.86.78l-.28,2.47,3.05.03c.67,0,3.81-7.02,13.66-2.49l.22,3.2c.11,1.58,6.96,3.34,6.46,6.79-1.23,8.45-10.01.82-15.21,7.2,4.35.88,9.09,2.52,12.87,2.69,6.81.32,12.16.29,17.33,5.75,1.26,1.33,2.78,4.79,1.9,6.9-2.97,7.17-15.55-1.16-19.56-3.96-1.48,2.51.46,5.58,3.31,6.87ZM326.68,57.74l6.55-1.54c-14.34-5.3-20.34,4.79-6.55,1.54Z" fill="#f6f9fd"/>
  <path d="M138.61,50.24l-6.31-1.39c-5.94,6.16-15.11,8.89-22.97,4.81-5.87-3.04-10.37-9.14-11.5-15.77-.59-3.48-.89-8.79.32-11.97,4.38-11.6,19.39-16.04,29.01-8.94,7.98,5.89,11.04,14.94,8.75,24.32l5.46,1.78-2.75,7.16ZM121.69,39.3c.19-.64.5-2.82,1.13-2.73l3.67.54c.61-3.88-1.23-9.1-4.3-11.99s-6.6-3.72-10.13-2.23c-7.57,3.2-5.83,14.19-1.2,20.25,3.27,4.28,8.06,4.96,12.13,2.25-.95-.68-2.65-1.64-2.41-2.42l1.11-3.68Z" fill="#f6f9fd"/>
  <path d="M316.72,21.47c-10.83-1.32-29.68,11.89-32.13,23-.89,4.02,4.52,5.77,8.04,5.27,8.02-1.13,15.08-4.75,22.77-8.24,1.04,4.72-3.34,6.59-6.59,8.47-7.3,4.23-14.84,6.59-23.45,5.91-3.87-.3-7.94-1.27-9.68-5.4-8.71-20.65,39-42.58,46.64-32.75,6.95,8.94-14.37,21.82-24.51,23.25-2.22.31-5.28-2.29-4.39-4.36,1.48-3.46,4.42-5.22,7.32-7.23,7.81-5.42,5.6,4.14,15.99-7.93Z" fill="#f6f9fd"/>
  <path d="M77.88,70.49l5.29,8.8-6.96,5.14-20.68-31.3c1.82-2.75,5.33-3.45,7.4-4.84,3.26-2.19,5.49-6.84,10.11-7.32,6.86-.71,12.28,3.37,15.34,9.14s3.75,12.92-1.97,17.68c-2.7,2.24-5.05,3.26-8.53,2.7ZM80.57,55.39c-1.8-3.78-6.38-6.64-9.62-4.16-3.78,2.89-1.98,6.64.12,9.69s4.49,4.49,7.53,2.96,3.67-4.93,1.97-8.48Z" fill="#f6f9fd"/>
  <path d="M172.26,27.17c.81-1.03,2.39-2.85,3.52-3.22l12.24-3.95c-1.78-1.65-3.54-2.6-4.86-2.43-1.14.15-2.68,2.27-3.64,3.44l-8.6.23c1.42-6.08,6.01-10.09,11.45-10.69,4.86-.54,12.95,1.54,13.73,7.55l2.78,21.45-9.86.46c-5.45,1.85-11.56,2.92-15.78-1.11-3.58-3.42-4.2-7.64-.99-11.74ZM183.55,33.72c1.04-.21,3.94-1.3,4.23-2.32s.39-2.25.74-4.89l-9.67,3.71c.77,3.15,2.39,3.98,4.71,3.51Z" fill="#f6f9fd"/>
  <path d="M32.37,65.4l-9.91,5.37,17.07,26.06-7.83,5.3-17.49-25.93-9.04,6L0,75.5l27.62-18.06,4.95,8.06c1.6-.17,3.84-1.52,5.34-2.89,6.49-5.93,16.76-4.52,21.78,2.05s4.91,16.35-2.39,21.81c-4.16,3.11-9.81,5.67-14.98,3.12-4.77-2.36-10.55-9.15-10.35-14.3l.38-9.88ZM53.37,72.85c-1.52-4.16-6.21-7.23-9.95-4.78-4.04,2.64-2.71,7.71-.11,11,2.03,2.57,5.36,3.6,7.78,2.43,3.22-1.56,3.58-5.09,2.28-8.65Z" fill="#f6f9fd"/>
  <path d="M260.34,44.52c-2.26,3.76-4.4,8.37-9.75,8.52-2.69.07-6.33-.93-9.59-1.7l2.04-6.95,6.58.19c.34-3.3.37-6.84-.16-10.2l-1.36-8.69c-.63-4.02-.84-7.33-.66-11.74l8.28,1.77c2.87,6.01-.1,10.75,2.37,14.38l7.32-11.57c2.96.31,6.79,1.19,9.31,2.04l-14.39,23.96Z" fill="#f6f9fd"/>
  <path d="M141.97,37.51l-3.92-19.38,8.98-1.55,4,18.61c.29,1.13,3.83,1.32,4.88.74,1.2-.65,2.95-2.94,2.65-4.31l-3.58-16.65c3.18-1.07,6.45-1.66,9.35-1.71l1.15,6.77,2.11,11.22c.6,3.19,2,7.46,1.24,10.52-11.3.71-15.15,6.11-21.04,3.34-2.53-1.19-5.07-3.84-5.83-7.61Z" fill="#f6f9fd"/>
  <path d="M241.11,42.46c-4.36.32-8.87.03-11.95-2.9-2.34-2.22-2.18-5.82-1.75-8.63l1.8-11.75c-1.57-.33-3.86-.95-3.98-1.93-.17-1.35-1.21-3.75-.16-4.22,1.4-.62,3.02-1,5.13-1.41l.45-7.75,8.54.77.3,8.23,3.4.87c1.59.41.27,6.33-.53,6.42s-2.12-.16-4-.39l-1.8,11.11c-.11.68.06,2.6.3,3.15.31.72,1.84.51,4.02.61l.24,7.82Z" fill="#f6f9fd"/>
  <path d="M210.09,39.75l-9.48-.07.34-12.39L201.32,0c3.04.11,5.73.4,8.77.93v38.82Z" fill="#f6f9fd"/>
  <path d="M222.84,16.84l-1.52,23.89-8.69-1.21c.09-4.31.23-9.42.59-13.97l1.11-14.14,8.5,1.72v3.72Z" fill="#f6f9fd"/>
  <polygon points="214.47 .93 214.53 8.67 222.84 10.34 222.84 .93 214.47 .93" fill="#f6f9fd"/>
</svg>