<?xml version="1.0" encoding="UTF-8"?>
<svg id="Layer_2" data-name="Layer 2" xmlns="http://www.w3.org/2000/svg" viewBox="0 0 207.11 32.07">
  <defs>
    <style>
      .cls-1 {
        fill: #f6f9fd;
      }
    </style>
  </defs>
  <g id="Layer_1-2" data-name="Layer 1">
    <g>
      <path class="cls-1" d="M19.54,14.17h-1.92v-2.62h1.84c.9,0,1.85.17,1.85,1.31,0,.36-.15.75-.45,1.01-.34.32-.88.29-1.33.29Z"/>
      <path class="cls-1" d="M21.61,18.89c0,.43-.23.83-.57,1.08-.38.32-.9.29-1.37.29h-2.05v-2.8h1.87c.43,0,.97,0,1.38.21.45.22.74.7.74,1.22Z"/>
      <path class="cls-1" d="M37.37,12.79h0l-1.27,4.5h2.53l-1.26-4.5ZM37.37,12.79h0l-1.27,4.5h2.53l-1.26-4.5ZM37.37,12.79h0l-1.27,4.5h2.53l-1.26-4.5ZM37.37,12.79h0l-1.27,4.5h2.53l-1.26-4.5ZM37.37,12.79h0l-1.27,4.5h2.53l-1.26-4.5ZM37.37,12.79h0l-1.27,4.5h2.53l-1.26-4.5ZM37.37,12.79h0l-1.27,4.5h2.53l-1.26-4.5ZM37.37,12.79h0l-1.27,4.5h2.53l-1.26-4.5ZM37.37,12.79h0l-1.27,4.5h2.53l-1.26-4.5ZM37.37,12.79h0l-1.27,4.5h2.53l-1.26-4.5ZM37.37,12.79h0l-1.27,4.5h2.53l-1.26-4.5ZM37.37,12.79h0l-1.27,4.5h2.53l-1.26-4.5ZM37.37,12.79h0l-1.27,4.5h2.53l-1.26-4.5ZM37.37,12.79h0l-1.27,4.5h2.53l-1.26-4.5ZM37.37,12.79h0l-1.27,4.5h2.53l-1.26-4.5ZM37.37,12.79h0l-1.27,4.5h2.53l-1.26-4.5ZM37.37,12.79h0l-1.27,4.5h2.53l-1.26-4.5ZM37.37,12.79h0l-1.27,4.5h2.53l-1.26-4.5ZM37.37,12.79h0l-1.27,4.5h2.53l-1.26-4.5Z"/>
      <path class="cls-1" d="M0,0v32.07h207.11V0H0ZM24.49,22.83c-1.2.86-2.87.88-4.27.88h-7.07v-15.46h0s7.57,0,7.57,0c1.17,0,2.36.09,3.33.79,1.03.75,1.64,2.01,1.64,3.27,0,1.64-1.03,3.01-2.61,3.42,1.77.29,2.98,1.66,2.98,3.51,0,1.32-.48,2.81-1.58,3.59ZM40.22,23.71l-.88-3.04h-4.12l-.95,3.04h-3.86l4.79-15.46h5.01l4.85,15.46h-4.85ZM61.72,11.79h-6.95v2.26h5.64v3.45h-5.64v2.5h6.95v3.71h-11.63v-15.48h11.63v3.57ZM80.4,23.94h-.3l-.59-.04-.3-.03-.29-.04-.28-.05-.29-.05-.27-.06-.27-.07-.27-.08-.27-.08-.25-.1-.26-.11-.25-.12-.25-.13-.23-.14-.23-.15-.22-.15-.42-.35-.38-.38-.17-.21-.18-.22-.15-.23-.15-.25-.14-.25-.13-.26-.12-.27-.11-.29-.1-.29-.08-.31,4.41-.79c.41,1.38,1.45,1.87,2.82,1.87.6,0,1.83-.08,1.83-.94,0-.95-1.2-1.13-1.9-1.27-2.92-.56-6.37-1.34-6.37-5.03,0-1.51.74-3.01,1.98-3.89,1.26-.88,2.91-1.17,4.44-1.17h-.03c2.69,0,5.28,1.13,6.22,3.81l-3.92,1.19c-.45-1.15-1.31-1.55-2.5-1.55-.63,0-1.53.18-1.53,1s1.12.97,1.71,1.1c1.47.3,3.03.53,4.38,1.23,1.51.79,2.3,2.25,2.3,3.94,0,3.72-3.68,5.2-6.9,5.2ZM100.49,17.16v6.55h-4.59v-6.55l-5.2-8.91h5.19l2.7,5.08,2.59-5.08h4.15l-4.85,8.91ZM114.9,23.94h-.31l-.59-.04-.3-.03-.29-.04-.28-.05-.28-.05-.28-.06-.27-.07-.27-.08-.27-.08-.25-.1-.26-.11-.25-.12-.25-.13-.23-.14-.23-.15-.22-.15-.42-.35-.38-.38-.17-.21-.18-.22-.15-.23-.15-.25-.14-.25-.13-.26-.12-.27-.11-.29-.09-.29-.09-.31,4.41-.79c.4,1.38,1.44,1.87,2.81,1.87.61,0,1.83-.08,1.83-.94,0-.95-1.19-1.13-1.89-1.27-2.92-.56-6.37-1.34-6.37-5.03,0-1.51.74-3.01,1.98-3.89,1.26-.88,2.91-1.17,4.44-1.17h-.02c2.69,0,5.28,1.13,6.22,3.81l-3.92,1.19c-.45-1.15-1.31-1.55-2.5-1.55-.63,0-1.53.18-1.53,1s1.13.97,1.72,1.1c1.47.3,3.03.53,4.38,1.23,1.51.79,2.3,2.25,2.3,3.94,0,3.72-3.71,5.2-6.9,5.2ZM137.28,11.96h-3.19v11.75h-4.5v-11.75h-3.24v-3.71h10.93v3.71ZM154.09,11.79h-6.95v2.26h5.64v3.45h-5.64v2.5h6.95v3.71h-11.6v-15.48h11.6v3.57ZM176.73,23.71h-4.41l-.04-11.05-2.82,11.05h-3.01l-2.95-11.05v11.05h-3.57v-15.46h6.18l2.25,8.21,2.12-8.21h6.25v15.46ZM188.26,23.94h-.31l-.29-.02-.3-.02-.3-.03-.29-.04-.28-.05-.28-.05-.28-.06-.27-.07-.26-.08-.27-.08-.26-.1-.25-.11-.25-.12-.24-.13-.24-.14-.23-.15-.22-.15-.42-.35-.38-.38-.17-.21-.18-.22-.15-.23-.15-.25-.14-.25-.13-.26-.12-.27-.11-.29-.09-.29-.08-.31,4.38-.79c.41,1.38,1.45,1.87,2.82,1.87.61,0,1.83-.08,1.83-.94,0-.95-1.2-1.13-1.9-1.27-2.92-.56-6.37-1.34-6.37-5.03,0-1.51.74-3.01,1.98-3.89,1.26-.88,2.91-1.17,4.44-1.17h.02c2.69,0,5.28,1.13,6.22,3.81l-3.92,1.19c-.45-1.15-1.31-1.55-2.5-1.55-.63,0-1.53.18-1.53,1s1.12.97,1.71,1.1c1.46.3,3.03.53,4.38,1.23,1.51.79,2.29,2.25,2.29,3.94,0,3.72-3.68,5.2-6.9,5.2Z"/>
    </g>
  </g>
</svg>