<?xml version="1.0" encoding="UTF-8"?>
<svg id="Layer_2" data-name="Layer 2" xmlns="http://www.w3.org/2000/svg" viewBox="0 0 97.31 97.31">
  <defs>
    <style>
      .cls-1 {
        fill: #f6f9fd;
      }
    </style>
  </defs>
  <g id="Layer_1-2" data-name="Layer 1">
    <g>
      <path class="cls-1" d="M48.65,0C21.78,0,0,21.78,0,48.65s21.78,48.65,48.65,48.65,48.65-21.78,48.65-48.65S75.53,0,48.65,0ZM48.65,92.34v-.05c-23.37,0-42.46-18.36-43.63-41.44-.04-.75-.06-1.5-.06-2.25s.02-1.47.06-2.2C6.17,23.3,25.27,4.92,48.65,4.92s42.48,18.38,43.63,41.48c.04.73.06,1.47.06,2.2v.05c-.03,24.11-19.57,43.66-43.69,43.69Z"/>
      <path class="cls-1" d="M81.38,43.99c-.09,0-6.15-3.34-20.04-7.98,1.03-.51,1.96-1.19,2.76-2.03-1.88-1.61-4.02-2.89-6.33-3.77,3.05-1.96,8.35-7.67,9.4-8.84-2.74-1.11-5.64-1.76-8.6-1.92,2.44-1.92,7.11-5.01,9.02-5.55-2.22-.99-4.61-1.5-7.04-1.5-6.52-.15-9.99,1.3-14.77,3.74,0,0,1.82-4.82,2.11-5.7-1.74.85-3.39,1.86-4.95,3.03-3.01,2.32-5.79,4.26-8.11,7.22-1.13,1.48-1.48,3.42-.94,5.21.49,1.17.89,2.37,1.22,3.59.46,2.32.18,2.37,0,2.41-1.79.44-3.35,1.52-4.42,3.03-1.35,1.85-2.32,3.95-2.86,6.17-1.91-.7-3.93-1.04-5.97-.99-6.26,0-8.56,4.28-8.98,5.41-1.76,4.92.89,11.46.89,11.46.14,2.58.58,5.13,1.3,7.61.36,1.08,2.21,1.27,3.48,1.36,3.1.14,2.85,4.38,2.02,6.65,2.43-.43,4.29-2.41,4.57-4.87.98.6,1.82,1.39,2.48,2.32,1.17-1.36,1.6-3.2,1.16-4.94,3.07,3.68,3.68,10.43,3.75,10.43.75-.67,1.44-1.39,2.06-2.18,0,0-.51,3.62-1.36,3.76l-1.8.3-2.8,3.48h8.11c.31-2.58.91-5.11,1.8-7.55.67.71,1.4,1.37,2.18,1.97.07-.11-.09-2.32,2.13-7.5.52.89,1.12,1.74,1.77,2.54,6-1.23,19.43-9.64,19.57-9.76.32.42,3.76,5.62,8.59,7.33-1.16,3.48-6.95,9-7.56,9.13l-1.69.31-2.8,3.48h8.62c.63-4.14,7.61-9.08,9.45-12.74.24-.45.22-.99-.07-1.41-1.06-1.21-1.53-2.81-1.3-4.4-.07-2.58,1.03-4.75,2.07-6.87l.04.03c2.09-3.19,2.32-9.38,1.85-11.44ZM19.39,55.49l-2.96,1.03v-.61c.5-.98,1.51-1.6,2.61-1.61h0c.3-.03.6.03.86.17l-.5,1.02ZM23.26,50.43c-1.35,2.62-5.46,2.05-5.46,2.05v-.02c-.34-.11-.63-.32-.84-.6-.21-.26-.34-.57-.38-.92,0,0-.01,0-.02,0-.03-.17-.03-.33,0-.5.16-1.34.58-1.6,1.74-1.6,4.9-.2,5.72-6.77,5.72-7.04.19,1.01.29,2.03.31,3.05,0,0,0,.01,0,.02.06,1.91-.31,3.81-1.08,5.56ZM37.29,40.43c.73-2.87,1.61-5.09,1.55-7.59-.06-2.13-1.59-5.35-2-6.77-.61-2.09.82-4.85,6.09-9.15-.16.83-1.12,4.23-1.23,4.93,4.45-2.84,9.31-4.99,14.4-6.38,1.33-.37,2.69-.63,4.06-.76-3.32,2.03-6.25,4.63-8.68,7.68h.01c3.28-.32,6.59-.18,9.83.41v.03c-1.39,1.77-3.09,3.1-4.87,4.32-1.76,1.21-3.61,2.31-5.33,3.61,2.86.52,5.54,1.76,7.78,3.62v.03c-2.77,2.42-6.05,4.18-9.6,5.13.05.97,2.22,2.7,2.22,2.7-4.97,1.19-14.24-1.81-14.24-1.81Z"/>
    </g>
  </g>
</svg>