<?xml version="1.0" encoding="UTF-8"?>
<svg id="Layer_2" data-name="Layer 2" xmlns="http://www.w3.org/2000/svg" viewBox="0 0 137.03 34.03">
  <defs>
    <style>
      .cls-1 {
        fill: #f6f9fd;
      }
    </style>
  </defs>
  <g id="Layer_1-2" data-name="Layer 1">
    <g>
      <path class="cls-1" d="M8.14,12.49c0,.08-.39.36.07.34,3.54-4.07,9.3-4.56,13.72-1.58.32.21,1.94,1.74,2.13,1.71,3.76-4.72,12.87-5.13,15.85.6.18.34.66,1.5.66,1.82v17.18h-8v-15.25c0-.21-.72-1.49-.91-1.71-1.78-2.11-5.19-1.77-6.57.58-.09.16-.53,1.05-.53,1.13v15.25h-8.42v-15.25c0-.11-.47-1.03-.58-1.21-1.61-2.67-5.61-2.51-7.01.24-.07.14-.41.91-.41.97v15.04l-.21.21H0V9.8h8.14c-.04.89.06,1.81,0,2.69Z"/>
      <path class="cls-1" d="M111.5,23.73h-16.97c-.16,4.26,5.57,6.33,7.8,2.48h8.35c-.79,3.91-4.37,6.45-8.11,7.27-9.68,2.12-17.76-2.94-16.86-13.41.76-8.85,10.48-12.97,18.17-9.76,5.37,2.25,7.74,7.83,7.63,13.41ZM102.67,18.91c-.19-1.21-.23-2.05-1.03-3.04-2.63-3.23-7.41-.9-7.11,3.04h8.14Z"/>
      <path class="cls-1" d="M56.55,9.29c9.96-.79,16.87,6.21,14.17,16.24-3.29,12.23-25.48,11.33-26.01-3.11-.28-7.55,4.39-12.55,11.84-13.14ZM57.1,13.83c-7.02.96-5.41,19.03,2.87,14.87,4.3-2.16,4.31-15.85-2.87-14.87Z"/>
      <polygon class="cls-1" points="121.85 9.8 125.23 15.31 129.02 9.8 137.03 9.8 129.62 20.36 137.03 32.57 128.2 32.57 124.19 25.39 119.57 32.57 111.64 32.57 119.73 20.35 112.74 9.8 121.85 9.8"/>
      <polygon class="cls-1" points="82.24 0 82.24 32.57 74.17 32.57 73.96 32.36 73.96 0 82.24 0"/>
    </g>
  </g>
</svg>