<?xml version="1.0" encoding="UTF-8"?>
<svg id="Layer_2" data-name="Layer 2" xmlns="http://www.w3.org/2000/svg" viewBox="0 0 243.02 62.82">
  <defs>
    <style>
      .cls-1 {
        fill: #fff;
      }
    </style>
  </defs>
  <g id="Layer_1-2" data-name="Layer 1">
    <g>
      <g>
        <path class="cls-1" d="M28.53,60.19L.44,47.92l-.44-.68V13.54l1.03-.68,28.09,12.27.44.68v33.71l-1.03.68ZM1.47,46.76l26.62,11.63V26.29L1.47,14.66v32.1Z"/>
        <path class="cls-1" d="M29.12,26.18h-.58L.45,14.22v-1.36L28.54.89h.58l28.09,11.97v1.36l-28.09,11.97ZM2.62,13.54l26.21,11.17,26.21-11.17L28.83,2.37,2.62,13.54Z"/>
        <path class="cls-1" d="M29.12,60.19l-1.03-.68V25.81l.44-.68,28.09-12.27,1.03.68v33.71l-.44.68-28.09,12.27ZM29.57,26.29v32.1l26.62-11.63V14.66l-26.62,11.62Z"/>
        <polygon class="cls-1" points="44.43 8.21 38.41 5.65 10.42 17.62 10.43 17.67 16.38 20.2 44.43 8.21"/>
        <polygon class="cls-1" points="16.47 30.4 10.48 28.27 10.48 17.6 16.47 19.72 16.47 30.4"/>
      </g>
      <g>
        <path class="cls-1" d="M91,31.06V8.81l-10.45,18.22h-4.48l-10.3-18.22v22.25h-4.48V.45h4.18l12.84,22.63L91.22.45h4.26v30.61h-4.48,0Z"/>
        <path class="cls-1" d="M115.04,21.06h-10.15l-3.81,10h-4.78L107.8.45h4.33l11.5,30.61h-4.78l-3.81-10h0ZM109.96,7.02l-3.43,9.56h6.87l-3.43-9.56Z"/>
        <path class="cls-1" d="M146.77,23.52l.37-.37,3.21,3.14-.45.45c-3.19,3.19-7.02,4.78-11.5,4.78s-8.31-1.54-11.5-4.63c-3.19-3.09-4.78-6.79-4.78-11.13s1.59-8.04,4.78-11.13C130.1,1.54,133.93,0,138.41,0s8.31,1.59,11.5,4.78l.45.45-3.21,3.14-.37-.37c-2.34-2.34-5.13-3.51-8.36-3.51s-6.01,1.11-8.33,3.32c-2.32,2.21-3.47,4.87-3.47,7.95s1.16,5.74,3.47,7.95c2.32,2.21,5.09,3.32,8.33,3.32s6.02-1.17,8.36-3.51Z"/>
        <path class="cls-1" d="M176.16,26.88c-3.11,3.09-6.91,4.63-11.39,4.63s-8.28-1.54-11.39-4.63c-3.11-3.09-4.67-6.79-4.67-11.13s1.56-8.04,4.67-11.13c3.11-3.09,6.91-4.63,11.39-4.63s8.27,1.54,11.39,4.63c3.11,3.09,4.67,6.79,4.67,11.13s-1.56,8.04-4.67,11.13ZM172.98,7.77c-2.24-2.19-4.98-3.28-8.21-3.28s-5.97,1.1-8.21,3.28c-2.24,2.19-3.36,4.85-3.36,7.99s1.12,5.8,3.36,7.99,4.98,3.28,8.21,3.28,5.97-1.09,8.21-3.28,3.36-4.85,3.36-7.99-1.12-5.8-3.36-7.99Z"/>
        <path class="cls-1" d="M212.48,31.06V8.81l-10.45,18.22h-4.48l-10.3-18.22v22.25h-4.48V.45h4.18l12.84,22.63L212.7.45h4.26v30.61h-4.48,0Z"/>
        <path class="cls-1" d="M243.02,21.5c0,2.64-.93,4.89-2.8,6.76-1.87,1.87-4.12,2.8-6.76,2.8h-13.89V.45h12.02c2.64,0,4.9.77,6.79,2.32s2.84,3.41,2.84,5.6-.77,3.86-2.32,5.3c2.74,1.94,4.11,4.55,4.11,7.84h0ZM231.59,4.93h-7.54v6.87h7.54c1.29,0,2.45-.31,3.47-.93,1.02-.62,1.53-1.46,1.53-2.5,0-.85-.49-1.63-1.46-2.35-.97-.72-2.15-1.08-3.55-1.08h0ZM224.05,16.28v10.3h9.41c1.34,0,2.53-.52,3.55-1.57,1.02-1.04,1.53-2.24,1.53-3.58s-.51-2.54-1.53-3.58c-1.02-1.04-2.2-1.57-3.55-1.57h-9.41Z"/>
      </g>
      <g>
        <path class="cls-1" d="M79.66,43.21h1.52l-4.45,12.6h-1.7l-3.88-9.9-3.88,9.9h-1.66l-4.45-12.6h1.52l3.79,10.75,3.88-9.33h1.61l3.93,9.33,3.79-10.75Z"/>
        <path class="cls-1" d="M82.27,37.15h1.42v8.24l.61-.57c1.26-1.2,2.68-1.8,4.26-1.8,1.77,0,3.18.61,4.24,1.85,1.06,1.23,1.59,2.79,1.59,4.69v6.25h-1.42v-6.25c0-1.45-.39-2.67-1.16-3.65s-1.85-1.47-3.24-1.47c-1.3,0-2.39.43-3.29,1.28s-1.43,1.91-1.59,3.17v6.91h-1.42v-18.66h0Z"/>
        <path class="cls-1" d="M97.59,54.25c-1.28-1.29-1.92-2.86-1.92-4.69s.64-3.39,1.92-4.69c1.28-1.29,2.83-1.94,4.66-1.94s3.38.64,4.64,1.92,1.89,2.85,1.89,4.71-.63,3.43-1.89,4.71c-1.26,1.28-2.81,1.92-4.64,1.92s-3.38-.65-4.66-1.94h0ZM98.6,45.89c-1.01,1.03-1.52,2.25-1.52,3.67s.5,2.64,1.52,3.67c1.01,1.03,2.23,1.54,3.65,1.54s2.63-.51,3.62-1.54,1.49-2.25,1.49-3.67-.5-2.64-1.49-3.67c-1-1.03-2.2-1.54-3.62-1.54s-2.64.51-3.65,1.54Z"/>
        <path class="cls-1" d="M110.49,37.15h1.42v18.66h-1.42v-18.66Z"/>
        <path class="cls-1" d="M125.41,54.1c-1.39,1.39-3.05,2.08-4.97,2.08s-3.47-.62-4.81-1.87-2.01-2.83-2.01-4.76.6-3.43,1.8-4.71c1.2-1.28,2.7-1.92,4.5-1.92s3.34.59,4.43,1.75,1.63,2.79,1.63,4.88v.38h-10.94l.05.43c.22,1.3.84,2.35,1.85,3.17,1.01.82,2.18,1.23,3.5,1.23,1.64,0,2.97-.55,3.98-1.66l.99,1h0ZM124.27,48.19c-.06-1.04-.51-1.94-1.35-2.7s-1.84-1.14-3.01-1.14-2.17.35-3.01,1.04c-.84.7-1.4,1.6-1.68,2.7l-.1.43h9.19l-.05-.33h0Z"/>
        <path class="cls-1" d="M135.49,44.21l-.95,1.04c-.79-.54-1.88-.81-3.27-.81-.91,0-1.61.21-2.08.64-.47.43-.71.92-.71,1.49,0,.6.2,1.06.61,1.4.41.33.93.53,1.56.59l1.99.14c1.04.1,1.89.48,2.56,1.16s1,1.51,1,2.49-.41,1.83-1.23,2.56c-.82.73-1.85,1.09-3.08,1.09-2.08,0-3.68-.6-4.78-1.8l1.09-.95c1.04.88,2.27,1.32,3.69,1.32.63,0,1.27-.2,1.92-.61s.97-.95.97-1.61-.2-1.14-.59-1.52-.89-.6-1.49-.66l-1.99-.14c-1.04-.06-1.91-.42-2.6-1.06-.7-.65-1.04-1.45-1.04-2.39,0-.88.38-1.7,1.14-2.44s1.78-1.11,3.08-1.11c1.8,0,3.2.4,4.21,1.18h0Z"/>
        <path class="cls-1" d="M147.14,47c-.57-1.83-1.83-2.75-3.79-2.75-1.55,0-2.92.35-4.12,1.04l-.57-1.18c1.58-.79,3.14-1.18,4.69-1.18,1.8,0,3.16.53,4.07,1.59s1.37,2.5,1.37,4.33v6.96h-1.42v-1.04l-.52.29c-1.3.7-2.62,1.04-3.98,1.04-1.64,0-2.99-.42-4.05-1.25-1.06-.84-1.59-1.92-1.59-3.24,0-1.52.58-2.72,1.73-3.62,1.15-.9,2.56-1.35,4.24-1.35,1.2,0,2.34.27,3.41.81l.76.33-.24-.76h0ZM147.37,52.87v-3.27l-.1-.1c-1.04-.98-2.4-1.47-4.07-1.47-1.26,0-2.34.32-3.22.97-.88.65-1.32,1.51-1.32,2.58,0,.91.4,1.66,1.21,2.23.81.57,1.81.85,3.01.85.73,0,1.52-.17,2.39-.5.87-.33,1.54-.73,2.01-1.21l.09-.09h0Z"/>
        <path class="cls-1" d="M150.74,37.15h1.42v18.66h-1.42v-18.66Z"/>
        <path class="cls-1" d="M165.65,54.1c-1.39,1.39-3.05,2.08-4.97,2.08s-3.47-.62-4.81-1.87-2.01-2.83-2.01-4.76.6-3.43,1.8-4.71c1.2-1.28,2.7-1.92,4.5-1.92s3.34.59,4.43,1.75,1.63,2.79,1.63,4.88v.38h-10.94l.05.43c.22,1.3.84,2.35,1.85,3.17,1.01.82,2.18,1.23,3.5,1.23,1.64,0,2.97-.55,3.98-1.66l.99,1h0ZM164.52,48.19c-.06-1.04-.51-1.94-1.35-2.7-.84-.76-1.84-1.14-3.01-1.14s-2.17.35-3.01,1.04c-.84.7-1.4,1.6-1.68,2.7l-.1.43h9.19l-.05-.33Z"/>
        <path class="cls-1" d="M181.42,44.21l-.95,1.04c-.79-.54-1.88-.81-3.27-.81-.92,0-1.61.21-2.08.64-.47.43-.71.92-.71,1.49,0,.6.2,1.06.61,1.4.41.33.93.53,1.56.59l1.99.14c1.04.1,1.89.48,2.56,1.16s1,1.51,1,2.49-.41,1.83-1.23,2.56c-.82.73-1.85,1.09-3.08,1.09-2.08,0-3.68-.6-4.78-1.8l1.09-.95c1.04.88,2.27,1.32,3.69,1.32.63,0,1.27-.2,1.92-.61s.97-.95.97-1.61-.2-1.14-.59-1.52-.89-.6-1.49-.66l-1.99-.14c-1.04-.06-1.91-.42-2.6-1.06-.7-.65-1.04-1.45-1.04-2.39,0-.88.38-1.7,1.14-2.44s1.78-1.11,3.08-1.11c1.8,0,3.2.4,4.21,1.18h0Z"/>
        <path class="cls-1" d="M195.53,55.81h-1.42v-2.27l-.61.57c-1.26,1.2-2.67,1.8-4.21,1.8-1.77,0-3.19-.61-4.26-1.85-1.07-1.23-1.61-2.79-1.61-4.69v-6.16h1.42v6.16c0,1.42.4,2.63,1.18,3.62s1.88,1.49,3.27,1.49c1.29,0,2.38-.43,3.27-1.28.88-.85,1.4-1.91,1.56-3.17v-6.82h1.42v12.6h0Z"/>
        <path class="cls-1" d="M197.05,62.82v-19.6h1.42v1.75l.61-.52c1.23-1.07,2.65-1.61,4.26-1.61,1.83,0,3.38.65,4.64,1.94,1.26,1.3,1.89,2.87,1.89,4.73s-.63,3.44-1.89,4.73c-1.26,1.3-2.81,1.94-4.64,1.94-1.61,0-3.03-.54-4.26-1.61l-.61-.52v8.76h-1.42ZM198.51,51.26c.38,1.01,1,1.85,1.87,2.51.87.66,1.85,1,2.96,1,1.42,0,2.63-.52,3.62-1.56s1.49-2.27,1.49-3.69-.5-2.65-1.49-3.69-2.2-1.56-3.62-1.56c-1.11,0-2.09.33-2.96,1-.87.66-1.49,1.5-1.87,2.51l-.05.05v3.41l.05.05h0Z"/>
        <path class="cls-1" d="M211.16,62.82v-19.6h1.42v1.75l.61-.52c1.23-1.07,2.65-1.61,4.26-1.61,1.83,0,3.38.65,4.64,1.94,1.26,1.3,1.89,2.87,1.89,4.73s-.63,3.44-1.89,4.73c-1.26,1.3-2.81,1.94-4.64,1.94-1.61,0-3.03-.54-4.26-1.61l-.61-.52v8.76h-1.42ZM212.62,51.26c.38,1.01,1,1.85,1.87,2.51.87.66,1.85,1,2.96,1,1.42,0,2.63-.52,3.62-1.56s1.49-2.27,1.49-3.69-.5-2.65-1.49-3.69-2.2-1.56-3.62-1.56c-1.11,0-2.09.33-2.96,1-.87.66-1.49,1.5-1.87,2.51l-.05.05v3.41l.05.05h0Z"/>
        <path class="cls-1" d="M225.69,37.15h1.42v18.66h-1.42v-18.66Z"/>
        <path class="cls-1" d="M237.15,56.09l-8.43-12.88h1.71l7.2,11.17,3.46-11.17h1.47l-6.06,19.6h-1.47l2.13-6.72h0Z"/>
      </g>
      <rect class="cls-1" x="60.96" y="33.11" width="180.68" height="1.47"/>
    </g>
  </g>
</svg>