<?xml version="1.0" encoding="UTF-8"?>
<svg id="Layer_2" data-name="Layer 2" xmlns="http://www.w3.org/2000/svg" viewBox="0 0 170.69 103.16">
  <defs>
    <style>
      .cls-1 {
        fill: #f6f9fd;
      }
    </style>
  </defs>
  <g id="Layer_1-2" data-name="Layer 1">
    <g>
      <g>
        <path class="cls-1" d="M73.58,0h24.28c4.12,3.09,9.14,5.87,13.08,9.11.32.27,1.09.89,1.19,1.25v48.91c-.11.47-.36.71-.7,1.01-3.76,3.4-9.59,6.27-13.63,9.53l-23.97.06c-4.21-3.06-9.64-6.02-13.57-9.35-.46-.39-.92-.74-1.08-1.36l-.1-48.06.69-1.51L73.58,0ZM94.38,3.85h-17.31l2.11,6.31,13.28-.11,1.92-6.19ZM75.08,11.61c.29-.49-1.66-5.63-2.03-6.54l-7.92,5.72,6.01,3.24,3.94-2.43ZM98.04,5.31l-1.72,5.97c0,.22.13.34.26.49.12.14,2.8,1.99,3.03,2.1.4.19.4.24.87.12.37-.09,5.85-2.86,5.85-3.19l-7.41-5.26-.87-.23ZM78.46,14.15c-.99.55-4.88,2.86-5.05,3.73l.04,34.33,4.97,3.32,14.8-.05,4.57-3.47-.05-34.33-4.96-3.57-14.32.04ZM63.17,14.58v40.72l6.19-3.14.15-34.04c0-.31-.18-.42-.39-.58-1.41-1.09-4.38-1.85-5.95-2.95ZM108.28,14.58l-5.95,2.95-.39.58.15,34.04,6.19,3.14V14.58ZM65.12,59.19l7.92,5.36c.32-.02,2.08-5.66,2.06-5.98-.04-.73-3.12-2.31-3.77-2.95l-6.06,3.07-.15.5ZM106.32,58.71l-6.08-3.06c-.81.4-3.84,2.21-3.92,2.95l1.71,5.97,8.29-5.85ZM94.38,66.02l-2.19-6.46-13.2.03-1.92,6.44h17.31Z"/>
        <path class="cls-1" d="M54.64,80.16l3.54,8.04,3.54-8.04h3.41v12.19h-2.68v-7.31l-3.29,7.07-2.1.1c-.87-2.03-1.69-4.34-2.69-6.29-.17-.32-.3-.79-.7-.89v7.31h-2.44v-12.19h3.41Z"/>
        <path class="cls-1" d="M157.53,87.72v-7.56h2.44v12.19l-3.12-.05-4.93-7.75v7.8h-2.68v-12.19l3.17.12c.62.37,3.56,5.91,4.43,7.03.21.27.24.5.69.41Z"/>
        <path class="cls-1" d="M14.65,80.16l3.07.22c1.6,2.12,2.81,4.98,4.42,7.03.16.2,0,.45.56.31v-7.56h2.44v12.19l-3.06-.23-4.98-7.58v7.8h-2.44v-12.19Z"/>
        <path class="cls-1" d="M11.39,81.71c2.61,2.65,2.22,7.47-.77,9.67-5.7,4.19-13.32-2.29-9.68-8.46,2.09-3.55,7.59-4.1,10.45-1.2ZM5.56,82.42c-3.6.75-3.69,7.23.46,7.73,6.05.72,5.7-9-.46-7.73Z"/>
        <path class="cls-1" d="M110.71,92.36v-12.19h6.7c.15,0,1.9.84,2.15,1.02,3.28,2.24,3.13,7.79-.1,10.06-.29.2-2.11,1.11-2.3,1.11h-6.46ZM113.4,89.92c2.86.3,5.95-.28,5.87-3.78s-3.14-3.85-5.87-3.53v7.31Z"/>
        <path class="cls-1" d="M83.77,80.41c3.15.56,3.89,5.18.98,7.08-.38.25-1.54.39-1.35.84l3.66,4.03h-3.54c-.25,0-2.77-3.32-3.22-3.83-.15-.17.02-.46-.56-.31v4.14h-2.68v-12.19c2.01.25,4.8-.09,6.7.24ZM79.75,82.6l.23,3.31c5.42,1.04,5.3-4.41-.23-3.31Z"/>
        <path class="cls-1" d="M35.86,80.16v2.19h-5.97c-.69.64-.26,1.81-.37,2.68h5.85v2.19h-5.85v2.68h6.34v2.44h-9.02v-12.19h9.02Z"/>
        <path class="cls-1" d="M49.76,80.16v2.19h-5.97c-.69.64-.26,1.81-.37,2.68h5.85v2.19h-5.85v2.68h6.34v2.44h-9.02v-12.19h9.02Z"/>
        <polygon class="cls-1" points="170.69 80.16 170.69 82.36 164.35 82.36 164.35 85.04 170.21 85.04 170.21 87.24 164.35 87.24 164.35 89.92 170.69 89.92 170.69 92.36 161.67 92.36 161.67 80.16 170.69 80.16"/>
        <polygon class="cls-1" points="75.85 80.16 75.85 82.36 69.51 82.36 69.51 85.04 75.36 85.04 75.36 87.24 69.51 87.24 69.51 89.92 75.85 89.92 75.85 92.36 66.83 92.36 66.83 80.16 75.85 80.16"/>
        <path class="cls-1" d="M95.57,80.19l4.17,12.16-2.89-.03-.92-2.13-4.75.11-.69,1.94-2.69.11,4.17-12.16h3.61ZM91.94,87.97h3.41c-.46-1.44-.86-2.93-1.4-4.34-.12-.31.11-.65-.43-.54l-1.59,4.88Z"/>
        <path class="cls-1" d="M144.09,80.19l4.17,12.16-2.89-.03-.92-2.13c-1.29.06-2.88-.2-4.13-.05s-.89,1.26-1.36,2.17l-2.65.03,4.18-12.16h3.6ZM140.46,87.97h3.41c-.46-1.44-.86-2.93-1.4-4.34-.12-.31.11-.65-.43-.54l-1.59,4.88Z"/>
        <polygon class="cls-1" points="103.4 80.16 103.4 89.92 109.25 89.92 109.25 92.36 100.72 92.36 100.72 80.16 103.4 80.16"/>
        <polygon class="cls-1" points="129.73 80.16 129.73 89.92 135.34 89.92 135.34 92.36 127.05 92.36 127.05 80.16 129.73 80.16"/>
        <path class="cls-1" d="M66.34,97.96c2.91-.53,4.81,1.2,2.45,3.57l.71,1.31c-1.22-.25-1.06-1.9-2.68-1.46-.2.19.45,1.74-.49,1.46v-4.88ZM66.83,100.89c3.37.65,3.4-3.08,0-2.44v2.44Z"/>
        <path class="cls-1" d="M118.03,97.96c2.82-.74,5.02,1.76,2.19,3.42l.98,1.46c-1.27-.19-1.09-1.91-2.68-1.46-.2.19.45,1.74-.49,1.46v-4.88ZM118.52,100.89c1.91.29,3.26-.42,1.95-2.32l-1.95-.12v2.44Z"/>
        <path class="cls-1" d="M49.52,97.96v3.78c0,.82,2.68.82,2.68,0v-3.78h.49v3.78c0,1.59-3.66,1.3-3.66.24v-4.02h.49Z"/>
        <path class="cls-1" d="M60.73,97.96v3.54c0,.64,1.07.91,1.59.87,1.92-.14,1.18-2.79,1.34-4.05.04-.34.18-.76.49-.36.08,2.15.34,5.86-2.94,4.77-.33-.11-.96-.72-.96-.99v-3.78h.49Z"/>
        <path class="cls-1" d="M57.6,98.01c.14-.08.66-.16.69.07l-1.41,2.4,1.41,2.35c-.82.61-1.33-1.81-1.95-1.95-.02.29-1.07,2.37-1.46,1.95,0-.85,1.23-1.77,1.21-2.56-.02-.52-1.52-1.98-1.21-2.31.91,0,.87,1.31,1.58,1.7.47-.17,1-1.57,1.14-1.65Z"/>
        <path class="cls-1" d="M107.06,97.96c.72-.95.4,2.11.49,2.2l2.58-.23c.4-.58-.4-2.15.59-1.97v4.88c-1.02.16-.17-1.6-.59-2.21l-2.58-.23c-.25.25.53,2.67-.49,2.44v-4.88Z"/>
        <path class="cls-1" d="M112.91,97.96c.69.02,1.39-.03,2.08,0,.33.01,1.01-.2.85.36l-2.44.12.23,1.36,1.48.23-1.48.23-.23,2.09c.09.09,3.41-.25,2.44.49h-2.92s0-4.88,0-4.88Z"/>
        <path class="cls-1" d="M101.21,98.45l-1.55.04-.42.57c0,.87,3,1.51,2.33,3.04-.47,1.07-2.15.8-3.05.49-.01-.41-.14-.53.34-.47.73.09,1.87.71,2.11-.39.11-1.35-3.02-1.42-2.09-3.29.32-.63,1.97-.8,2.32,0Z"/>
        <path class="cls-1" d="M93.89,97.96h2.68c.95.72-2.11.4-2.19.49v1.47s1.47.12,1.47.12l-1.47.12v2.2s2.44.12,2.44.12c.16.57-.52.35-.85.36-.69.03-1.39-.02-2.08,0v-4.88Z"/>
        <path class="cls-1" d="M123.64,97.96h2.68c.95.72-2.11.4-2.19.49v1.47s1.47.12,1.47.12l-1.47.12v2.06c.07.46,2.43-.3,2.2.5l-2.68.12v-4.88Z"/>
        <polygon class="cls-1" points="88.28 97.96 89.99 101.62 91.21 98.13 91.94 97.97 89.99 102.84 87.79 98.09 88.28 97.96"/>
        <path class="cls-1" d="M73.65,100.16c0-.34,1.32-2.57,1.71-2.19-.86,1.66-1.52,2.08-1.71,4.02-.03.32.23,1.03-.36.86-.23-.07-.07-1.89-.23-2.45-.12-.42-1.57-2.2-1.35-2.43.74-.23,1.56,2.46,1.95,2.19Z"/>
        <path class="cls-1" d="M44.88,97.96v4.39c.56.18,2.37-.47,2.19.49h-2.68s0-4.88,0-4.88h.49Z"/>
        <path class="cls-1" d="M81.21,97.96v4.39c.56.18,2.37-.47,2.19.49h-2.68s0-4.88,0-4.88h.49Z"/>
        <rect class="cls-1" x="85.36" y="97.96" width=".49" height="4.88"/>
      </g>
      <g>
        <path class="cls-1" d="M70.37,103.02h-.92l-1.49-1.79c-.11-.05-.84-.06-.95.05v1.74h-.76v-5.1h2.06c.55,0,1.38.36,1.67.72.75.95.22,2.12-1.13,2.5l1.52,1.89ZM67.01,100.56h1.36s.42-.1.48-.12c.82-.29.86-1.31.15-1.68-.07-.03-.52-.2-.56-.2h-1.43v2.01Z"/>
        <path class="cls-1" d="M121.8,103.02h-.92l-1.49-1.82h-.95v1.82h-.76v-5.1h2.06c.26,0,.94.2,1.17.32.94.48,1.07,1.69.38,2.35-.28.27-.63.39-1.01.54l1.52,1.89ZM118.44,100.56h1.36s.53-.14.6-.18c.6-.29.7-1.06.26-1.47-.13-.12-.67-.37-.86-.37h-1.36v2.01Z"/>
        <polygon class="cls-1" points="107.43 97.87 107.43 99.58 110.34 99.58 110.34 97.87 111.1 97.87 111.1 103.02 110.34 103.02 110.34 100.29 110.25 100.22 107.43 100.22 107.43 103.02 106.67 103.02 106.67 97.87 107.43 97.87"/>
        <polygon class="cls-1" points="116.3 97.91 116.3 98.55 113.38 98.55 113.38 99.63 115.86 99.63 115.86 100.27 113.38 100.27 113.38 102.43 116.3 102.43 116.3 103.02 112.56 103.02 112.56 97.91 116.3 97.91"/>
        <path class="cls-1" d="M60.83,97.91v3.85s.14.3.18.35c.41.56,1.61.54,2-.04.03-.04.16-.3.16-.31v-3.85h.82v3.61c0,.15-.14.61-.22.76-.67,1.23-3.13,1.15-3.63-.14-.05-.14-.14-.54-.14-.67v-3.56h.82Z"/>
        <polygon class="cls-1" points="97.51 97.91 97.51 98.55 94.63 98.55 94.54 98.63 94.54 99.56 94.63 99.63 97.07 99.63 97.07 100.27 94.54 100.27 94.54 102.36 94.63 102.43 97.51 102.43 97.51 103.02 93.77 103.02 93.77 97.91 97.51 97.91"/>
        <path class="cls-1" d="M127.11,97.91v.64h-2.98v1.01l.1.07h2.34c.19.16.06.43.1.64h-2.54v2.09l.1.07h2.88v.59h-3.74v-5.1h3.74Z"/>
        <path class="cls-1" d="M49.76,97.91v3.61s.08.35.11.41c.27.71,1.53.82,2.04.22.04-.04.2-.31.2-.34v-3.9h.82v3.85c0,.08-.23.56-.29.66-.68.97-2.68.99-3.35,0-.07-.1-.28-.48-.28-.57v-3.95h.76Z"/>
        <path class="cls-1" d="M54.38,103.02l1.64-2.64-1.51-2.44c.23-.01.79-.1.94.05.4.4.59,1.2,1.08,1.59l.98-1.62.92-.05-1.51,2.42,1.7,2.68-.92-.05-1.27-1.87-1.17,1.91h-.89Z"/>
        <polygon class="cls-1" points="88.04 97.91 89.62 101.5 91.33 97.91 92.22 97.91 89.81 102.99 89.59 103.02 87.15 97.91 88.04 97.91"/>
        <path class="cls-1" d="M100.75,98.89c-.33-.81-1.64-.5-1.39.36.19.64,2.24,1.14,2.44,2.08.41,1.9-2.72,2.57-3.4.75l.65-.19c.21.17.24.4.52.53.79.36,1.61-.25,1.46-.89-.2-.85-2.4-1.18-2.52-2.37-.15-1.46,2.4-1.91,2.97-.5l-.75.22Z"/>
        <path class="cls-1" d="M73.03,101.18l-2.03-3.26.92.05,1.42,2.36,1.52-2.4h.89c-.07.17-.17.35-.26.51-.21.36-1.7,2.56-1.7,2.71v1.89h-.76v-1.84Z"/>
        <path class="cls-1" d="M81.65,97.91v4.51h2.38c.19.14.06.4.1.59h-3.3v-5.1h.82Z"/>
        <polygon class="cls-1" points="45.27 97.91 45.27 102.43 47.68 102.43 47.68 103.02 44.45 103.02 44.45 97.91 45.27 97.91"/>
        <rect class="cls-1" x="85.08" y="97.91" width=".82" height="5.1"/>
      </g>
    </g>
  </g>
</svg>