<?xml version="1.0" encoding="UTF-8"?>
<svg id="Layer_2" data-name="Layer 2" xmlns="http://www.w3.org/2000/svg" viewBox="0 0 232.53 56.99">
  <defs>
    <style>
      .cls-1 {
        fill: none;
      }

      .cls-2 {
        fill: #f6f9fd;
      }
    </style>
  </defs>
  <g id="Layer_1-2" data-name="Layer 1">
    <g>
      <g id="g18">
        <path id="path20" class="cls-2" d="M29.06,49.49c-.01.3-.04.78-.17,1.13,0,0,0,.02-.01.03-.3.83-.96,2.25-2.1,3.18-.22.2-.48.36-.74.5-1.14.59-2.51.56-4.09-.07-1.54-.62-2.5-1.5-2.85-2.64-.24-.79-.19-1.64-.01-2.41.34-1.49,1.16-2.71,1.17-2.73.34-.51.21-1.2-.3-1.55-.51-.34-1.2-.21-1.55.3-.05.07-.66.99-1.13,2.3-.24.65-.44,1.39-.52,2.18-.01.13-.11.23-.23.25-2.24.42-3.86.28-4.81-.42-1.2-.88-1.33-2.69-1.45-4.28-.04-.52-.08-1.01-.15-1.45-.15-.93.32-2.32,1.51-3.21,1.46-1.08,3.56-1.03,5.92.13,3.11,1.54,5.98,1.25,7.7-.77,1.64-1.94,1.69-4.92.12-7.09-.83-1.14-1.93-1.82-3.18-1.96-2.47-.27-4.62,1.56-4.86,1.77-.46.41-.51,1.12-.1,1.58.4.46,1.11.5,1.58.1.41-.36,1.88-1.37,3.15-1.22.62.07,1.16.41,1.62,1.05.96,1.32.95,3.19-.02,4.34-1.02,1.21-2.84,1.29-5,.22-4.24-2.1-6.97-.86-8.23.07-1.09.81-1.87,1.96-2.23,3.17-.04.14-.19.22-.33.19-1.41-.3-3.58-1.2-3.92-4-.13-1.06.06-1.83.57-2.36.95-.97,2.92-1,3.6-.93.61.06,1.16-.38,1.23-.98.07-.62-.38-1.17-.99-1.24-.07,0-1.03-.1-2.19.09-.06.01-.12,0-.17-.03-.13-.06-.28-.09-.44-.09-1.11-.01-2.21-1.1-2.81-2.76-.62-1.72-.61-4,.8-5.19.47-.4.9-.69,1.35-.89.04-.01.09-.03.13-.05,1.74-.7,3.6.07,7.89,2.03.52.24,1.08.5,1.67.76,2.09.95,3.89.97,5.33.07,2.66-1.67,2.84-5.78,2.85-6.24.01-.61-.47-1.12-1.08-1.14-.6-.03-1.13.47-1.15,1.09-.02.93-.4,3.53-1.81,4.41-.77.48-1.85.41-3.22-.21-.58-.27-1.14-.52-1.66-.76-3.62-1.66-6.13-2.81-8.49-2.41-.13.02-.27-.05-.32-.17-.46-1.15-1-3.08-.32-4.78.53-1.31,1.72-2.31,3.57-2.98.02.06.05.12.08.17,1.56,3.12,5.71,4.49,5.89,4.55.11.03.23.05.34.05.47,0,.91-.3,1.07-.77.19-.58-.13-1.21-.72-1.4-.95-.31-3.63-1.52-4.58-3.42-.43-.86-.47-1.77-.12-2.78,1.1-3.19,4.69-3.32,6.54-3.16,0,.02,0,.05-.01.07-.16,1.19-.07,2.26.26,3.22.23.66.58,1.26,1.04,1.81,2.22,2.57,6.28,2.66,6.45,2.66h.02c.61,0,1.11-.49,1.12-1.1,0-.61-.48-1.12-1.1-1.13-.03,0-3.26-.09-4.8-1.89-.51-.59-.79-1.31-.83-2.18-.02-.34,0-.7.05-1.09.39-2.9,3.23-4.7,5.74-4.76.64-.01,1.76.08,2.73.78.7.49,1.3,1.31,1.57,2.63,0,.02,0,.04,0,.06l.18,43.76v.02h0ZM31.29,48.54h0s-.18-42.96-.18-42.96c0,0,0-.01,0-.02v-.17s-.01-.02-.02-.03c-.23-1.22-.7-2.26-1.36-3.1C28.54.77,26.73-.04,24.53,0c-2.69.06-5.71,1.55-7.13,4.27-.05.1-.17.17-.28.15-3-.33-7.64.3-9.12,4.64-.23.66-.35,1.31-.36,1.95,0,.12-.08.23-.19.27-2.5.9-4.16,2.34-4.94,4.29-.97,2.42-.26,4.98.34,6.46.05.12,0,.27-.1.34-.26.17-.51.37-.77.59-2.23,1.88-2.34,5.2-1.46,7.65.55,1.53,1.44,2.73,2.5,3.44-.07.05-.14.11-.2.18-1.02,1.03-1.43,2.44-1.21,4.2.5,4.11,3.74,5.64,6.13,6.01.13.02.23.12.24.25.02.22.04.47.06.72.14,1.87.33,4.42,2.35,5.91.98.73,2.26,1.09,3.86,1.1.81,0,1.7-.09,2.68-.27.01.04.02.08.03.12.55,1.81,1.96,3.18,4.15,4.06,1.09.44,2.13.66,3.11.66,1.01,0,1.96-.23,2.84-.68.84-.43,1.52-1.03,2.08-1.68.83-.97,1.37-2.05,1.7-2.86,0,0,0-.01,0-.02.06-.16.12-.3.17-.44.18-.59.25-1.27.28-1.81v-.97s0,0,0,0Z"/>
      </g>
      <g id="g22">
        <path id="path24" class="cls-2" d="M33.51,29.16c0,.16.14.29.3.28.7-.04,1.35-.17,1.72-.45.17-.13.25-.27.27-.49.24-2.51,1.17-4.12,2.48-4.31.57-.08,1.65.04,2.38,1.82.31.74.61,2.03.97,3.53.07.27.14.58.22.91,1.41-10.42,2.37-11.46,3.56-11.72.33-.07,1.15-.13,1.79.9.65,1.06.85,3.89,1.15,10.1.08,1.71.18,3.83.32,5.71.03.34.52.35.57.02.25-1.98.43-4.25.58-6.18.52-6.76.85-9.4,2.1-10.27.41-.29.89-.37,1.36-.24,1.75.49,2.12,3.4,2.69,8.92.14,1.35.32,3.09.54,4.46.05.31.49.32.56.02.44-1.96.49-4.74.53-6.77.06-3.41.08-4.82,1.42-5.11,1.27-.28,1.99,1.21,2.46,2.19.99,2.08,1.47,4.32,1.76,6.27.05.32.5.33.56.01.18-.98.29-1.91.38-2.71.18-1.58.3-2.73.98-3.29.08-.07.11-.17.09-.27-1.07-4.85-3.43-9.32-6.94-13.04C52.35,3.14,44.06-.01,35.24.86c-.65.06-1.52.51-1.7,1.19-.09.34-.03.75-.03,1.11v26Z"/>
      </g>
      <g id="g26">
        <path id="path28" class="cls-2" d="M65.47,48.69c-.08.01-.16.01-.23,0-2.04-.16-4.09-.32-6.13-.48-.4-.03-.81-.06-1.19.06-.47.14-.84.49-1.21.82-5.67,5.13-13.52,7.78-21.14,7.13-.71-.06-1.52-.22-1.87-.84-.18-.33-.19-.73-.19-1.11,0-1.02,0-2.03,0-3.05,0-1.02,0-2.03,0-3.05,0-1.02,0-2.03,0-3.05,0-1.02,0-2.04,0-3.05,0-1.02,0-2.03,0-3.05,0-1.02,0-2.04,0-3.05s0-2.03,0-3.05c0-.25-.01-.5,0-.74.02-.39.39-.34.68-.35.18,0,.35-.02.53-.05.71-.11,1.38-.42,1.95-.85.57-.43,1.05-.99,1.37-1.64.11-.23.2-.47.27-.72.02-.06.15-.76.13-.76.41.04.57.54.64.95.31,1.84.8,3.64,1.45,5.38.26.7.66,1.48,1.39,1.62.59.11,1.18-.28,1.49-.8.31-.51.41-1.12.49-1.71.39-2.61.77-5.23,1.15-7.84.06-.39.27-.9.65-.83.22,3.11.4,6.23.55,9.34.1,2.11.18,4.25.73,6.29.25.91.78,1.96,1.73,2.01.99.05,1.62-1.02,1.94-1.96,1.7-4.99,1.21-10.44,2.07-15.65.05-.29.37-.67.55-.43.19,3.28.61,6.54,1.25,9.76.18.92.49,1.97,1.35,2.35.68.3,1.51.04,2.05-.46s.86-1.21,1.1-1.91c.96-2.8.97-5.82.98-8.77.7,2.43,1.14,4.93,1.3,7.45.03.53.06,1.07.25,1.57.2.49.61.94,1.13,1.02.52.08,1.05-.21,1.4-.62.35-.4.56-.9.8-1.37.12-.24.44-.51.61-.3.07.09.06.22.04.34-.53,3.14-1.62,6.18-3.22,8.93-.13.23-.27.47-.25.73.02.23.16.43.29.62,1.1,1.53,2.2,3.06,3.3,4.59.09.13.19.28.13.43-.04.11-.15.15-.27.17h0Z"/>
      </g>
      <g id="g30">
        <path id="path32" class="cls-1" d="M30.85,51.75c.06-.16.12-.3.17-.44-.05.15-.1.3-.17.44"/>
      </g>
      <g id="g34">
        <path id="path36" class="cls-1" d="M31.29,49.5v-.97c0,.05.02.45,0,.97"/>
      </g>
      <g id="g38">
        <path id="path40" class="cls-2" d="M85.44,38.26l-.02.04c-.18.43-.43.75-.77.99-.35.25-.8.37-1.34.37s-.99-.12-1.29-.36c-.29-.24-.43-.54-.43-.94,0-.35.12-.63.38-.86.26-.23.71-.34,1.35-.34h2.12v1.11h0ZM85.45,34.33c-.41-.4-1-.6-1.76-.6-.48,0-.94.09-1.38.26-.43.17-.81.41-1.12.7l-.15.14.44.44.14-.13c.25-.23.55-.43.91-.57.35-.15.74-.22,1.17-.22.57,0,1.01.14,1.3.43.29.28.43.72.43,1.3v.47h-2.11c-.58,0-1.02.08-1.37.25-.35.17-.61.4-.76.68-.15.28-.23.58-.23.9,0,.38.1.71.28,1,.19.29.47.52.82.67.34.15.76.23,1.24.23.68,0,1.24-.16,1.69-.49.04-.03.08-.06.11-.09l.32-.26v.8h.63v-4.18c0-.75-.21-1.33-.62-1.73h0Z"/>
      </g>
      <g id="g42">
        <path id="path44" class="cls-2" d="M93.3,40.24v-3.79c0-.7-.18-1.23-.52-1.58-.35-.36-.83-.53-1.47-.53-.5,0-.93.1-1.28.3-.35.2-.62.47-.8.83-.19.36-.28.78-.28,1.27v3.5h-.63v-6.47h.63v.98l.33-.3c.08-.08.18-.15.27-.22.47-.33,1.06-.5,1.76-.5.53,0,1,.1,1.39.31.4.21.71.52.92.93.21.4.32.9.32,1.48v3.79h-.63Z"/>
      </g>
      <g id="g46">
        <path id="path48" class="cls-2" d="M100.8,38.39c-.22.4-.51.71-.9.94-.39.23-.81.34-1.3.34s-.91-.11-1.29-.34c-.38-.23-.67-.53-.9-.94-.22-.4-.33-.86-.33-1.39s.11-1,.33-1.39c.22-.4.52-.7.9-.93.38-.22.8-.33,1.29-.33s.92.11,1.3.33c.39.22.68.52.9.93.22.4.33.87.33,1.4s-.11.99-.33,1.39h0ZM101.12,31.12v3.84l-.33-.34c-.17-.18-.37-.33-.59-.46-.47-.28-1-.42-1.6-.42s-1.13.14-1.6.42c-.48.28-.86.67-1.13,1.15-.27.49-.42,1.06-.42,1.69s.14,1.19.42,1.69c.27.5.66.89,1.13,1.17.47.28,1.02.42,1.6.42s1.13-.14,1.6-.42c.22-.13.42-.28.59-.47l.33-.34v1.2h.63v-9.12h-.63Z"/>
      </g>
      <g id="g50">
        <path id="path52" class="cls-2" d="M100.8,38.39c-.22.4-.51.71-.9.94-.39.23-.81.34-1.3.34s-.91-.11-1.29-.34c-.38-.23-.67-.53-.9-.94-.22-.4-.33-.86-.33-1.39s.11-1,.33-1.39c.22-.4.52-.7.9-.93.38-.22.8-.33,1.29-.33s.92.11,1.3.33c.39.22.68.52.9.93.22.4.33.87.33,1.4s-.11.99-.33,1.39h0ZM101.12,31.12v3.84l-.33-.34c-.17-.18-.37-.33-.59-.46-.47-.28-1-.42-1.6-.42s-1.13.14-1.6.42c-.48.28-.86.67-1.13,1.15-.27.49-.42,1.06-.42,1.69s.14,1.19.42,1.69c.27.5.66.89,1.13,1.17.47.28,1.02.42,1.6.42s1.13-.14,1.6-.42c.22-.13.42-.28.59-.47l.33-.34v1.2h.63v-9.12h-.63Z"/>
      </g>
      <g id="g54">
        <path id="path56" class="cls-2" d="M121.36,29.54l-3.67,10.7h-.57l-3.32-9.5-3.32,9.5h-.57l-3.67-10.7h.74l3.23,9.44,3.31-9.44h.57l3.32,9.46,3.24-9.46h.72Z"/>
      </g>
      <g id="g58">
        <path id="path60" class="cls-2" d="M121.36,29.54l-3.67,10.7h-.57l-3.32-9.5-3.32,9.5h-.57l-3.67-10.7h.74l3.23,9.44,3.31-9.44h.57l3.32,9.46,3.24-9.46h.72Z"/>
      </g>
      <g id="g62">
        <path id="path64" class="cls-2" d="M122.23,35.75l.04-.23c.06-.38.18-.74.35-1.06.27-.5.62-.89,1.08-1.17.47-.29.98-.43,1.56-.43s1.12.14,1.57.43c.45.28.82.68,1.09,1.18.17.32.29.68.36,1.06l.04.23h-6.08,0ZM128.99,36.16c0-.14,0-.26-.01-.37l-.02-.21c-.06-.54-.22-1.04-.46-1.48-.32-.6-.77-1.07-1.34-1.41s-1.2-.51-1.9-.51-1.34.18-1.9.52c-.57.35-1.01.83-1.33,1.43-.32.6-.48,1.3-.48,2.09s.17,1.48.52,2.09c.34.61.82,1.1,1.42,1.44.6.35,1.29.52,2.06.52.57,0,1.13-.11,1.64-.33.52-.22.96-.55,1.31-.99l.11-.14-.49-.49-.14.17c-.28.37-.63.64-1.06.82-.43.19-.9.28-1.37.28-.64,0-1.21-.15-1.71-.43-.49-.29-.89-.69-1.18-1.19-.22-.4-.36-.85-.41-1.35l-.02-.21h6.77v-.27h0Z"/>
      </g>
      <g id="g66">
        <path id="path68" class="cls-2" d="M122.23,35.75l.04-.23c.06-.38.18-.74.35-1.06.27-.5.62-.89,1.08-1.17.47-.29.98-.43,1.56-.43s1.12.14,1.57.43c.45.28.82.68,1.09,1.18.17.32.29.68.36,1.06l.04.23h-6.08,0ZM128.99,36.16c0-.14,0-.26-.01-.37l-.02-.21c-.06-.54-.22-1.04-.46-1.48-.32-.6-.77-1.07-1.34-1.41s-1.2-.51-1.9-.51-1.34.18-1.9.52c-.57.35-1.01.83-1.33,1.43-.32.6-.48,1.3-.48,2.09s.17,1.48.52,2.09c.34.61.82,1.1,1.42,1.44.6.35,1.29.52,2.06.52.57,0,1.13-.11,1.64-.33.52-.22.96-.55,1.31-.99l.11-.14-.49-.49-.14.17c-.28.37-.63.64-1.06.82-.43.19-.9.28-1.37.28-.64,0-1.21-.15-1.71-.43-.49-.29-.89-.69-1.18-1.19-.22-.4-.36-.85-.41-1.35l-.02-.21h6.77v-.27h0Z"/>
      </g>
      <path id="path70" class="cls-2" d="M131.77,40.24h-.69v-11.32h.69v11.32Z"/>
      <path id="path72" class="cls-2" d="M131.77,40.24h-.69v-11.32h.69v11.32Z"/>
      <path id="path74" class="cls-2" d="M135.45,40.24h-.68v-11.32h.68v11.32Z"/>
      <path id="path76" class="cls-2" d="M135.45,40.24h-.68v-11.32h.68v11.32Z"/>
      <g id="g78">
        <path id="path80" class="cls-2" d="M145.38,35.55v4.69h-.68v-4.69c0-.88-.23-1.56-.67-2.01-.45-.46-1.06-.68-1.88-.68-.63,0-1.18.13-1.63.38-.45.25-.79.6-1.03,1.06-.24.45-.36.99-.36,1.61v4.33h-.68v-8h.68v1.35l.34-.35c.15-.15.31-.29.49-.42.58-.41,1.31-.62,2.17-.62.66,0,1.23.13,1.71.38.48.26.87.65,1.13,1.15.26.5.4,1.11.4,1.83h0Z"/>
      </g>
      <g id="g82">
        <path id="path84" class="cls-2" d="M145.38,35.55v4.69h-.68v-4.69c0-.88-.23-1.56-.67-2.01-.45-.46-1.06-.68-1.88-.68-.63,0-1.18.13-1.63.38-.45.25-.79.6-1.03,1.06-.24.45-.36.99-.36,1.61v4.33h-.68v-8h.68v1.35l.34-.35c.15-.15.31-.29.49-.42.58-.41,1.31-.62,2.17-.62.66,0,1.23.13,1.71.38.48.26.87.65,1.13,1.15.26.5.4,1.11.4,1.83h0Z"/>
      </g>
      <g id="g86">
        <path id="path88" class="cls-2" d="M148.07,35.75l.04-.23c.06-.38.18-.74.35-1.06.27-.5.62-.89,1.09-1.17.47-.29.98-.43,1.56-.43s1.12.14,1.57.43c.45.28.82.68,1.09,1.18.17.32.29.68.35,1.06l.04.23h-6.08ZM154.83,36.16c0-.14,0-.26-.01-.37l-.02-.21c-.06-.54-.22-1.03-.46-1.48-.32-.6-.77-1.07-1.34-1.41-.56-.34-1.21-.51-1.91-.51s-1.34.18-1.9.52c-.56.34-1.01.83-1.33,1.43-.32.6-.48,1.3-.48,2.09s.17,1.48.52,2.09c.35.61.82,1.1,1.42,1.44.6.35,1.29.52,2.06.52.57,0,1.13-.11,1.64-.33.52-.22.96-.56,1.31-.99l.11-.14-.49-.49-.14.17c-.28.37-.63.64-1.06.82-.43.19-.89.28-1.37.28-.64,0-1.21-.15-1.71-.43-.5-.29-.89-.69-1.18-1.19-.22-.4-.36-.85-.41-1.35l-.02-.21h6.77v-.27s0,0,0,0Z"/>
      </g>
      <g id="g90">
        <path id="path92" class="cls-2" d="M148.07,35.75l.04-.23c.06-.38.18-.74.35-1.06.27-.5.62-.89,1.09-1.17.47-.29.98-.43,1.56-.43s1.12.14,1.57.43c.45.28.82.68,1.09,1.18.17.32.29.68.35,1.06l.04.23h-6.08ZM154.83,36.16c0-.14,0-.26-.01-.37l-.02-.21c-.06-.54-.22-1.03-.46-1.48-.32-.6-.77-1.07-1.34-1.41-.56-.34-1.21-.51-1.91-.51s-1.34.18-1.9.52c-.56.34-1.01.83-1.33,1.43-.32.6-.48,1.3-.48,2.09s.17,1.48.52,2.09c.35.61.82,1.1,1.42,1.44.6.35,1.29.52,2.06.52.57,0,1.13-.11,1.64-.33.52-.22.96-.56,1.31-.99l.11-.14-.49-.49-.14.17c-.28.37-.63.64-1.06.82-.43.19-.89.28-1.37.28-.64,0-1.21-.15-1.71-.43-.5-.29-.89-.69-1.18-1.19-.22-.4-.36-.85-.41-1.35l-.02-.21h6.77v-.27s0,0,0,0Z"/>
      </g>
      <g id="g94">
        <path id="path96" class="cls-2" d="M161.9,38.11c0,.42-.11.8-.34,1.13-.23.33-.57.59-1.02.77-.44.18-.99.26-1.66.26s-1.24-.1-1.8-.31c-.57-.21-1.01-.47-1.31-.8l-.11-.12.41-.55.16.16c.26.25.62.47,1.09.66.47.19.99.29,1.58.29.86,0,1.47-.14,1.82-.43.35-.28.52-.63.52-1.07,0-.32-.08-.55-.23-.73-.16-.18-.39-.33-.66-.43-.3-.11-.63-.2-.99-.26-.37-.07-.75-.15-1.12-.22-.39-.08-.74-.2-1.06-.34-.34-.16-.61-.38-.82-.65-.21-.28-.32-.66-.32-1.12,0-.38.1-.74.31-1.06.2-.32.53-.59.96-.79.42-.2.97-.3,1.62-.3.49,0,.98.07,1.46.22.48.15.88.35,1.19.61l.14.12-.41.54-.16-.13c-.28-.23-.62-.4-1.01-.52-.39-.12-.8-.18-1.21-.18-.78,0-1.35.15-1.69.44-.33.28-.5.64-.5,1.05,0,.33.08.58.23.76.17.2.38.34.66.45.3.11.63.2.99.27.38.07.75.15,1.12.22.38.08.73.19,1.05.34.34.15.61.36.82.63.21.27.32.64.32,1.1h0Z"/>
      </g>
      <g id="g98">
        <path id="path100" class="cls-2" d="M161.9,38.11c0,.42-.11.8-.34,1.13-.23.33-.57.59-1.02.77-.44.18-.99.26-1.66.26s-1.24-.1-1.8-.31c-.57-.21-1.01-.47-1.31-.8l-.11-.12.41-.55.16.16c.26.25.62.47,1.09.66.47.19.99.29,1.58.29.86,0,1.47-.14,1.82-.43.35-.28.52-.63.52-1.07,0-.32-.08-.55-.23-.73-.16-.18-.39-.33-.66-.43-.3-.11-.63-.2-.99-.26-.37-.07-.75-.15-1.12-.22-.39-.08-.74-.2-1.06-.34-.34-.16-.61-.38-.82-.65-.21-.28-.32-.66-.32-1.12,0-.38.1-.74.31-1.06.2-.32.53-.59.96-.79.42-.2.97-.3,1.62-.3.49,0,.98.07,1.46.22.48.15.88.35,1.19.61l.14.12-.41.54-.16-.13c-.28-.23-.62-.4-1.01-.52-.39-.12-.8-.18-1.21-.18-.78,0-1.35.15-1.69.44-.33.28-.5.64-.5,1.05,0,.33.08.58.23.76.17.2.38.34.66.45.3.11.63.2.99.27.38.07.75.15,1.12.22.38.08.73.19,1.05.34.34.15.61.36.82.63.21.27.32.64.32,1.1h0Z"/>
      </g>
      <g id="g102">
        <path id="path104" class="cls-2" d="M168.71,38.11c0,.42-.11.8-.34,1.13-.23.33-.57.59-1.02.77-.44.18-.99.26-1.66.26s-1.25-.1-1.8-.31c-.57-.21-1.01-.47-1.31-.8l-.11-.12.41-.55.16.16c.26.25.62.47,1.09.66.47.19.99.29,1.58.29.85,0,1.47-.14,1.82-.43.35-.28.51-.63.51-1.07,0-.32-.07-.55-.23-.73-.16-.18-.39-.33-.66-.43-.3-.11-.63-.2-.99-.26-.37-.07-.75-.15-1.12-.22-.39-.08-.74-.2-1.06-.34-.34-.16-.61-.38-.82-.65-.21-.28-.32-.66-.32-1.12,0-.38.1-.74.31-1.06.2-.32.53-.59.96-.79.42-.2.97-.3,1.62-.3.49,0,.98.07,1.46.22.48.15.88.35,1.19.61l.14.12-.41.54-.16-.13c-.28-.23-.62-.4-1.01-.52-.39-.12-.8-.18-1.21-.18-.78,0-1.35.15-1.69.44-.33.28-.5.64-.5,1.05,0,.33.08.58.23.76.17.2.39.34.67.45.3.11.63.2.99.27.38.07.75.15,1.12.22.38.08.73.19,1.05.34.34.15.61.36.82.63.21.27.32.64.32,1.1h0Z"/>
      </g>
      <g id="g106">
        <path id="path108" class="cls-2" d="M168.71,38.11c0,.42-.11.8-.34,1.13-.23.33-.57.59-1.02.77-.44.18-.99.26-1.66.26s-1.25-.1-1.8-.31c-.57-.21-1.01-.47-1.31-.8l-.11-.12.41-.55.16.16c.26.25.62.47,1.09.66.47.19.99.29,1.58.29.85,0,1.47-.14,1.82-.43.35-.28.51-.63.51-1.07,0-.32-.07-.55-.23-.73-.16-.18-.39-.33-.66-.43-.3-.11-.63-.2-.99-.26-.37-.07-.75-.15-1.12-.22-.39-.08-.74-.2-1.06-.34-.34-.16-.61-.38-.82-.65-.21-.28-.32-.66-.32-1.12,0-.38.1-.74.31-1.06.2-.32.53-.59.96-.79.42-.2.97-.3,1.62-.3.49,0,.98.07,1.46.22.48.15.88.35,1.19.61l.14.12-.41.54-.16-.13c-.28-.23-.62-.4-1.01-.52-.39-.12-.8-.18-1.21-.18-.78,0-1.35.15-1.69.44-.33.28-.5.64-.5,1.05,0,.33.08.58.23.76.17.2.39.34.67.45.3.11.63.2.99.27.38.07.75.15,1.12.22.38.08.73.19,1.05.34.34.15.61.36.82.63.21.27.32.64.32,1.1h0Z"/>
      </g>
      <path id="path110" class="cls-2" d="M175.19,40.24h-.69v-10.7h.69v10.7Z"/>
      <path id="path112" class="cls-2" d="M175.19,40.24h-.69v-10.7h.69v10.7Z"/>
      <g id="g114">
        <path id="path116" class="cls-2" d="M185.38,35.55v4.69h-.68v-4.69c0-.88-.23-1.56-.67-2.01-.45-.46-1.06-.68-1.88-.68-.63,0-1.18.13-1.63.38-.45.25-.79.6-1.03,1.06-.24.45-.36.99-.36,1.61v4.33h-.69v-8h.69v1.35l.34-.35c.15-.15.31-.29.49-.42.58-.41,1.31-.62,2.17-.62.66,0,1.23.13,1.71.38.48.26.87.65,1.13,1.15.26.5.4,1.11.4,1.83h0Z"/>
      </g>
      <g id="g118">
        <path id="path120" class="cls-2" d="M185.38,35.55v4.69h-.68v-4.69c0-.88-.23-1.56-.67-2.01-.45-.46-1.06-.68-1.88-.68-.63,0-1.18.13-1.63.38-.45.25-.79.6-1.03,1.06-.24.45-.36.99-.36,1.61v4.33h-.69v-8h.69v1.35l.34-.35c.15-.15.31-.29.49-.42.58-.41,1.31-.62,2.17-.62.66,0,1.23.13,1.71.38.48.26.87.65,1.13,1.15.26.5.4,1.11.4,1.83h0Z"/>
      </g>
      <g id="g122">
        <path id="path124" class="cls-2" d="M193.26,38.11c0,.42-.12.8-.34,1.13-.23.33-.57.59-1.02.77-.44.18-1,.26-1.66.26s-1.25-.1-1.81-.31c-.57-.21-1.01-.47-1.31-.8l-.11-.12.41-.55.16.16c.26.25.62.47,1.09.66.46.19.99.29,1.58.29.85,0,1.47-.14,1.82-.43.35-.28.52-.63.52-1.07,0-.32-.08-.55-.23-.73-.16-.18-.39-.33-.66-.43-.3-.11-.63-.2-.99-.26-.38-.07-.75-.15-1.12-.22-.39-.08-.74-.2-1.06-.34-.34-.16-.62-.38-.82-.65-.21-.28-.32-.66-.32-1.12,0-.38.1-.74.31-1.06.21-.32.53-.59.96-.79.42-.2.97-.3,1.62-.3.49,0,.98.07,1.46.22.48.15.88.35,1.19.61l.14.12-.41.54-.16-.13c-.28-.23-.62-.4-1.01-.52-.39-.12-.8-.18-1.21-.18-.78,0-1.35.15-1.69.44-.33.28-.5.64-.5,1.05,0,.33.08.58.23.76.17.2.38.34.67.45.3.11.63.2.99.27.38.07.75.15,1.12.22.38.08.74.19,1.06.34.34.15.61.36.82.63.21.27.32.64.32,1.1h0Z"/>
      </g>
      <g id="g126">
        <path id="path128" class="cls-2" d="M193.26,38.11c0,.42-.12.8-.34,1.13-.23.33-.57.59-1.02.77-.44.18-1,.26-1.66.26s-1.25-.1-1.81-.31c-.57-.21-1.01-.47-1.31-.8l-.11-.12.41-.55.16.16c.26.25.62.47,1.09.66.46.19.99.29,1.58.29.85,0,1.47-.14,1.82-.43.35-.28.52-.63.52-1.07,0-.32-.08-.55-.23-.73-.16-.18-.39-.33-.66-.43-.3-.11-.63-.2-.99-.26-.38-.07-.75-.15-1.12-.22-.39-.08-.74-.2-1.06-.34-.34-.16-.62-.38-.82-.65-.21-.28-.32-.66-.32-1.12,0-.38.1-.74.31-1.06.21-.32.53-.59.96-.79.42-.2.97-.3,1.62-.3.49,0,.98.07,1.46.22.48.15.88.35,1.19.61l.14.12-.41.54-.16-.13c-.28-.23-.62-.4-1.01-.52-.39-.12-.8-.18-1.21-.18-.78,0-1.35.15-1.69.44-.33.28-.5.64-.5,1.05,0,.33.08.58.23.76.17.2.38.34.67.45.3.11.63.2.99.27.38.07.75.15,1.12.22.38.08.74.19,1.06.34.34.15.61.36.82.63.21.27.32.64.32,1.1h0Z"/>
      </g>
      <g id="g130">
        <path id="path132" class="cls-2" d="M197.26,40.28c-.65,0-1.16-.19-1.51-.58-.35-.38-.52-.88-.52-1.49v-5.31h-1.47v-.67h1.47v-1.66h.69v1.66h2.58v.67h-2.58v5.24c0,.49.12.86.34,1.1.23.24.56.36,1.02.36s.83-.14,1.13-.42l.14-.13.48.47-.13.14c-.2.21-.45.37-.75.46-.29.09-.58.14-.88.14h0Z"/>
      </g>
      <g id="g134">
        <path id="path136" class="cls-2" d="M201.58,29.53c-.11-.11-.25-.17-.41-.17-.15,0-.28.06-.4.16-.12.11-.18.25-.18.42,0,.15.06.29.17.4.11.11.25.18.4.18.17,0,.31-.06.42-.18.11-.11.16-.25.16-.4,0-.16-.06-.3-.17-.41h0ZM200.82,40.24h.69v-8h-.69v8Z"/>
      </g>
      <g id="g138">
        <path id="path140" class="cls-2" d="M201.58,29.53c-.11-.11-.25-.17-.41-.17-.15,0-.28.06-.4.16-.12.11-.18.25-.18.42,0,.15.06.29.17.4.11.11.25.18.4.18.17,0,.31-.06.42-.18.11-.11.16-.25.16-.4,0-.16-.06-.3-.17-.41h0ZM200.82,40.24h.69v-8h-.69v8Z"/>
      </g>
      <g id="g142">
        <path id="path144" class="cls-2" d="M206.66,40.28c-.65,0-1.16-.19-1.51-.58-.35-.38-.52-.88-.52-1.49v-5.31h-1.47v-.67h1.47v-1.66h.69v1.66h2.58v.67h-2.58v5.24c0,.49.12.86.34,1.1.23.24.56.36,1.02.36s.83-.14,1.13-.42l.14-.13.48.47-.13.14c-.2.21-.45.37-.75.46-.29.09-.58.14-.88.14h0Z"/>
      </g>
      <g id="g146">
        <path id="path148" class="cls-2" d="M213.45,40.28c-.68,0-1.27-.13-1.76-.38-.5-.26-.89-.65-1.16-1.15-.26-.5-.4-1.11-.4-1.83v-4.69h.69v4.69c0,.88.23,1.56.68,2.01.46.46,1.09.68,1.94.68.6,0,1.12-.13,1.55-.38.43-.25.75-.6.98-1.06.23-.46.35-1,.35-1.61v-4.33h.69v8h-.69v-1.32l-.34.35c-.13.14-.28.27-.44.39-.56.41-1.26.62-2.09.62h0Z"/>
      </g>
      <g id="g150">
        <path id="path152" class="cls-2" d="M223.91,39.54l-.13.14c-.2.21-.45.37-.75.47-.29.09-.58.14-.88.14-.65,0-1.16-.19-1.51-.58-.35-.38-.52-.88-.52-1.48v-5.31h-1.47v-.67h1.47v-1.66h.69v1.66h2.58v.67h-2.58v5.24c0,.49.11.86.35,1.1.23.24.56.36,1.02.36s.83-.14,1.13-.42l.14-.13.48.47Z"/>
      </g>
      <g id="g154">
        <path id="path156" class="cls-2" d="M223.91,39.54l-.13.14c-.2.21-.45.37-.75.47-.29.09-.58.14-.88.14-.65,0-1.16-.19-1.51-.58-.35-.38-.52-.88-.52-1.48v-5.31h-1.47v-.67h1.47v-1.66h.69v1.66h2.58v.67h-2.58v5.24c0,.49.11.86.35,1.1.23.24.56.36,1.02.36s.83-.14,1.13-.42l.14-.13.48.47Z"/>
      </g>
      <g id="g158">
        <path id="path160" class="cls-2" d="M228.23,33.06c.55,0,1.04.13,1.46.4.42.27.77.64,1.02,1.11.17.3.28.64.33,1h-5.62c.06-.36.17-.7.33-1,.25-.47.58-.83,1.02-1.1.43-.27.91-.4,1.46-.4h0ZM231.96,36.16c0-.09,0-.19,0-.27l-.04-.39c-.07-.51-.22-.98-.45-1.39-.32-.6-.77-1.07-1.34-1.41s-1.2-.51-1.9-.51-1.34.18-1.91.52c-.56.35-1.01.83-1.33,1.43-.32.6-.48,1.3-.48,2.09s.17,1.48.52,2.09c.35.61.82,1.1,1.42,1.44.6.35,1.29.52,2.06.52.57,0,1.13-.11,1.64-.33.52-.22.96-.56,1.31-.99l.11-.14-.49-.49-.14.17c-.28.37-.63.64-1.06.82-.43.19-.9.28-1.38.28-.64,0-1.22-.15-1.71-.43-.5-.29-.89-.69-1.18-1.19-.22-.4-.36-.85-.41-1.35l-.02-.21h6.77v-.27h0Z"/>
      </g>
      <g id="g162">
        <path id="path164" class="cls-2" d="M225.2,35.75l.04-.23c.06-.38.18-.74.35-1.06.27-.5.62-.89,1.08-1.17.47-.29.98-.43,1.56-.43s1.12.14,1.57.43c.46.28.82.68,1.09,1.18.18.32.3.68.35,1.06l.03.23h-6.07ZM231.96,36.16c0-.09,0-.19,0-.27l-.03-.39c-.07-.51-.22-.98-.45-1.39-.32-.6-.77-1.07-1.34-1.41s-1.2-.51-1.9-.51-1.34.18-1.91.52c-.56.35-1.01.83-1.33,1.43-.32.6-.48,1.3-.48,2.09s.17,1.48.52,2.09c.35.61.82,1.1,1.42,1.44.6.35,1.29.52,2.06.52.57,0,1.13-.11,1.64-.33.52-.22.96-.56,1.31-.99l.11-.14-.49-.49-.14.17c-.28.37-.63.64-1.06.82s-.9.28-1.37.28c-.64,0-1.22-.15-1.71-.43-.5-.29-.89-.69-1.18-1.19-.22-.4-.36-.85-.41-1.35l-.02-.21h6.77v-.27h0Z"/>
      </g>
      <g id="g166">
        <path id="path168" class="cls-2" d="M176.25,20.07c.76-.71,1.13-1.74,1.13-3.09s-.38-2.39-1.13-3.12c-.76-.73-1.92-1.09-3.48-1.09h-1.71v8.38h1.95c1.41,0,2.49-.35,3.24-1.06h0ZM178.51,11.88c1.31,1.2,1.97,2.87,1.97,5.02s-.64,3.84-1.92,5.08c-1.28,1.25-3.24,1.87-5.86,1.87h-4.71v-13.78h4.87c2.46,0,4.34.6,5.66,1.8h0Z"/>
      </g>
      <g id="g170">
        <path id="path172" class="cls-2" d="M200.7,15.8l-3.73,7.53h-1.83l-3.7-7.53v8.67h-3.08v-13.78h4.16l3.55,7.57,3.57-7.57h4.14v13.78h-3.07v-8.67h0Z"/>
      </g>
      <g id="g174">
        <path id="path176" class="cls-2" d="M213.1,24.47h-3.07v-5.44l-4.77-8.34h3.33l2.97,5.12,2.98-5.12h3.33l-4.77,8.34v5.44h0Z"/>
      </g>
      <g id="g178">
        <path id="path180" class="cls-2" d="M229.4,17.5c0-1.23-.39-2.28-1.18-3.14-.79-.87-1.76-1.3-2.91-1.3s-2.12.43-2.91,1.3c-.79.87-1.18,1.91-1.18,3.14s.39,2.27,1.18,3.13c.79.86,1.76,1.29,2.91,1.29s2.12-.43,2.91-1.29c.79-.86,1.18-1.9,1.18-3.13h0ZM230.44,22.57c-1.39,1.36-3.11,2.04-5.14,2.04s-3.75-.68-5.14-2.04c-1.39-1.36-2.09-3.05-2.09-5.07s.7-3.72,2.09-5.07c1.39-1.36,3.11-2.04,5.14-2.04s3.75.68,5.14,2.04c1.39,1.36,2.09,3.05,2.09,5.07s-.7,3.72-2.09,5.07h0Z"/>
      </g>
      <g id="g182">
        <path id="path184" class="cls-2" d="M103,14.18l-1.73,4h3.45l-1.71-4ZM107.16,23.86l-1.28-2.97h-5.77l-1.28,2.97h-3.27l5.95-13.77h2.97l5.95,13.77h-3.27Z"/>
      </g>
      <g id="g186">
        <path id="path188" class="cls-2" d="M112.03,10.08h3.07v5.66l5.2-5.66h3.8l-5.48,6.09c.47.66,1.35,1.88,2.62,3.67s2.23,3.13,2.86,4.01h-3.59l-4.04-5.44-1.38,1.54v3.9h-3.07v-13.78h0Z"/>
      </g>
      <g id="g190">
        <path id="path192" class="cls-2" d="M126.03,23.86v-13.78h3.07v11.04h5.87v2.74h-8.95Z"/>
      </g>
      <g id="g194">
        <path id="path196" class="cls-2" d="M142.88,14.18l-1.73,4h3.45l-1.71-4ZM147.03,23.86l-1.28-2.97h-5.77l-1.28,2.97h-3.27l5.95-13.77h2.98l5.95,13.77h-3.27Z"/>
      </g>
      <g id="g198">
        <path id="path200" class="cls-2" d="M161.54,10.08h3.07v13.78h-3.07l-6.56-8.63v8.63h-3.07v-13.78h2.88l6.76,8.87v-8.87Z"/>
      </g>
      <g id="g202">
        <path id="path204" class="cls-2" d="M95.16,16.88c-.22,2.35-1.07,3.92-2.01,4.98-1.41,1.56-3.04,1.96-3.2,2,2.11-.62,2.94-2.2,3.2-3.77.2-1.17.09-2.32-.03-3.07,0,0,0,0,0,0-.02-.23-.07-.45-.13-.67,0-.02-.01-.04-.01-.05,0-.02,0-.03-.01-.05-.01-.03-.01-.05-.01-.05-.25-.84-.71-1.61-1.36-2.22-.44-.37-.94-.65-1.46-.86-.83-.32-1.74-.43-2.64-.29-.68.12-1.26.32-1.75.58,0,0-.02.01-.04.02-.19.12-.89.59-1.25,1.13-.07.1-.13.21-.17.32-.29.61-.43,1.28-.43,2.02,0,1.23.39,2.27,1.18,3.13.79.86,1.76,1.29,2.91,1.29.72,0,1.37-.17,1.95-.51,0,0,0,0,.01,0,.12-.06.22-.13.31-.2,0,0,0,0,.01,0,.88-.71.68-1.8.67-1.9h0s0,0,0,0c-.11-.48-.36-.92-.72-1.28-.55-.51-1.26-.82-2.01-.87-.16-.01-.23-.11-.23-.21,0-.11.1-.2.22-.2h.02c.91-.03,1.81.25,2.54.8.42.32.81.93,1.03,1.66h0c.2.65.27,1.4.13,2.12-.31,1.54-1.46,2.64-3.25,3.09-.42.1-.84.16-1.26.17-1.49.05-2.96-.42-4.15-1.36-1.47-1.17-2.39-2.88-2.56-4.74-.11-.92-.02-1.84.24-2.71.29-1.28.93-2.4,1.91-3.36,1.39-1.36,3.11-2.04,5.14-2.04s3.75.68,5.14,2.04c.02.02.05.05.07.07,1.34,1.35,2.01,3.02,2.01,5h0Z"/>
      </g>
      <g id="g206">
        <path id="path208" class="cls-1" d="M84.44,14.55c-.06.1-.11.21-.17.32.04-.11.1-.21.17-.32"/>
      </g>
      <g id="g210">
        <path id="path212" class="cls-1" d="M90.21,22.94c-.09.07-.19.14-.31.2.1-.06.21-.13.31-.2"/>
      </g>
      <g id="g214">
        <path id="path216" class="cls-1" d="M93.12,17c-.05-.29-.1-.52-.13-.67.06.22.1.44.13.67"/>
      </g>
      <g id="g218">
        <path id="path220" class="cls-2" d="M90.89,18.68h0s0,0,0,0h0Z"/>
      </g>
    </g>
  </g>
</svg>