<?xml version="1.0" encoding="UTF-8"?>
<svg id="Layer_3" xmlns="http://www.w3.org/2000/svg" viewBox="0 0 469.1 438.15">
  <defs>
    <style>
      .cls-1 {
        fill: #010102;
      }

      .cls-2 {
        fill: #eeb81d;
      }
    </style>
  </defs>
  <path class="cls-1" d="M0,358.68c.43.67.9,1.33,0,2v-2Z"/>
  <path class="cls-1" d="M0,78.23c.69.33.22.67,0,1v-1Z"/>
  <path class="cls-1" d="M0,76.73c.25-.11.43-.03.43.25,0,.27-.17.37-.43.25v-.5Z"/>
  <path class="cls-2" d="M386.38.65c9.85.64,19.31,3,28.5,6.51,6.42,2.93,12.56,6.32,18.23,10.54,13.39,9.94,23.1,22.7,29.28,38.17.12.3.33.57.5.85,2,6.18,3.9,12.39,4.7,18.87.36,2.87.56,5.76.84,8.64.01,20.32.04,40.64.04,60.96,0,65.14-.16,130.27.11,195.41.07,17.08-1.54,33.59-9.23,49.09-.11.16-.22.31-.33.47-.06.18-.12.36-.17.54-.11.15-.21.31-.32.46-.42.82-.84,1.64-1.26,2.46-3.93,6.03-7.87,12.07-12.94,17.23-12.36,12.59-27,21.15-44.33,24.91-4.5.98-9.01,1.87-13.63,1.99-14.41.01-28.82.02-43.23.03q-4.76,0-4.76-4.88c-.03-15.41-.06-30.82-.09-46.23.03-1,.08-1.99.08-2.99,0-36.19.03-72.38-.04-108.57,0-2.26.54-2.92,2.86-2.9,9.73.1,19.46-.02,29.19-.06,8.99.03,17.98.04,26.97.13,1.73.02,1.61-1.05,1.6-2.11-.03-3.7.6-7.36,1.07-10.98.69-5.26,1.24-10.54,1.83-15.8.58-5.19.91-10.45,1.66-15.59,1.48-10,2.47-20.04,3.45-30.09-.77-.97-1.85-.49-2.77-.49-21.93-.05-43.86-.06-65.8-.08,0-1.66-.02-3.33-.03-4.99-.03-13.65-.06-27.3-.09-40.94.05-1.85,0-3.71.16-5.55.98-12.05,7.15-19.09,18.9-22.05,4.97-1.25,9.99-1.22,15.03-1.43,11.73.03,23.47.03,35.2.14,1.77.02,1.78-.84,1.78-2.14-.02-21.47-.03-42.95.02-64.42,0-1.57-.34-2.18-2.04-2.14-22.44.56-44.92-1.13-67.33,1.11-8.48.85-16.7,2.82-24.61,6.02-4.65,1.27-8.85,3.56-12.98,5.95-10.5,6.07-19.2,14.05-25.53,24.48-1.67,2.07-2.86,4.44-4.04,6.8-6.41,12.73-9.73,26.24-9.98,40.47-.15,8.74,0,17.48.03,26.22-.04,9.99-.15,19.98-.08,29.97.02,2.1-.59,2.61-2.64,2.6-18.91-.08-37.82,0-56.72-.09-2.07,0-2.61.52-2.6,2.6.08,23.32.08,46.64,0,69.97,0,2.11.57,2.6,2.63,2.59,18.66-.08,37.32-.05,55.97-.05q3.31,0,3.31,3.41c.04,12.49.08,24.98.12,37.47-.04,1.08-.13,2.16-.13,3.24,0,39.48-.03,78.97.05,118.45,0,2.47-.71,2.99-3.07,2.99-46.56-.07-93.13-.12-139.69-.02-19.82.04-37.81-5.41-53.64-17.33-18.81-14.15-30.11-32.97-34.03-56.23-.86-5.12-1.05-10.25-1.05-15.4-.01-86.72-.01-173.43,0-260.15,0-2.16.02-4.33.03-6.49,0-3.79.51-7.56,1.28-11.23,1.72-8.17,4.4-16.03,8.43-23.41,10.4-19.07,25.4-32.92,45.68-41,6.26-2.49,12.78-3.81,19.3-5.25.63-.06,1.26-.11,1.88-.17.31-.02.62-.04.94-.06,1.52-.15,3.04-.29,4.56-.44,1.14-.01,2.28-.03,3.42-.04,81.94,0,163.87,0,245.81,0,7.91,0,15.82.03,23.72.04Z"/>
</svg>