<?xml version="1.0" standalone="no"?><!-- Generator: Gravit.io --><svg xmlns="http://www.w3.org/2000/svg" xmlns:xlink="http://www.w3.org/1999/xlink" style="isolation:isolate" viewBox="422 435.5 240 240" width="240" height="240"><linearGradient id="_lgradient_16" x1="0.0729166666666665" y1="0.9354166666666665" x2="0.9374999999999997" y2="0.07916666666666661" gradientTransform="matrix(240,0,0,240,422,435.5)" gradientUnits="userSpaceOnUse"><stop offset="0%" stop-opacity="1" style="stop-color:rgb(32,3,254)"/><stop offset="98.26086956521739%" stop-opacity="1" style="stop-color:rgb(0,130,255)"/></linearGradient><path d=" M 584.5 660.5 L 605 660.5 C 616.13 660.5 626.82 656.07 634.7 648.2 C 642.57 640.32 647 629.63 647 618.5 L 647 492.5 C 647 481.37 642.57 470.68 634.7 462.8 C 626.82 454.93 616.13 450.5 605 450.5 L 479 450.5 L 479 450.5 C 467.87 450.5 457.18 454.93 449.3 462.8 C 441.43 470.68 437 481.37 437 492.5 L 437 618.5 C 437 629.63 441.43 640.32 449.3 648.2 C 457.18 656.07 467.87 660.5 479 660.5 L 548.167 660.5 L 548.167 581 L 518.5 581 L 518.5 545 L 548.167 545 L 548.167 518 C 548.75 496.125 561.125 476.625 592.5 476 L 618.5 476 L 618.5 509 L 597.5 509 C 590 509.5 584.75 512.75 584.5 521 L 584.5 545 L 617.5 545 L 613.5 581 L 584.5 581 L 584.5 660.5 Z  M 479 435.5 L 605 435.5 C 620.11 435.5 634.62 441.51 645.31 452.19 C 655.99 462.88 662 477.39 662 492.5 L 662 618.5 C 662 633.61 655.99 648.12 645.31 658.81 C 634.62 669.49 620.11 675.5 605 675.5 L 479 675.5 C 463.89 675.5 449.38 669.49 438.69 658.81 C 428.01 648.12 422 633.61 422 618.5 L 422 492.5 C 422 477.39 428.01 462.88 438.69 452.19 C 449.38 441.51 463.89 435.5 479 435.5 L 479 435.5 Z " fill-rule="evenodd" fill="url(#_lgradient_16)"/></svg>