<?xml version="1.0" encoding="UTF-8"?>
<svg id="Layer_2" xmlns="http://www.w3.org/2000/svg" viewBox="0 0 469.1 438.15">
  <defs>
    <style>
      .cls-1 {
        fill: #eeb81d;
      }
    </style>
  </defs>
  <path class="cls-1" d="M451.05,325.75c.59.5.8,1,0,1.5v-1.5Z"/>
  <path class="cls-1" d="M124.47.26c7.5.2,15,.22,22.49,0,13.17.04,26.34.09,39.51.12,1.32,0,2.64-.08,3.96-.13,10.54.04,21.08.11,31.61.12,8.46,0,16.92-.07,25.39-.11.66.04,1.32.11,1.99.11,35,.01,69.99.02,104.99.02.66,0,1.32-.08,1.98-.12,7.49.05,14.98.09,22.48.16,10.34.1,20.49,1.33,30.34,4.72,11.52,3.97,21.73,10.04,30.7,18.31,14.33,13.22,23.49,29.29,27.24,48.44,1.16,5.9,1.49,11.88,1.54,17.87.09,9.91.03,19.82.04,29.74,0,.91.09,1.82.14,2.73-.04.66-.12,1.32-.12,1.98,0,36.66,0,73.33.02,109.99,0,.66.07,1.32.11,1.99-.04,6.72-.12,13.44-.11,20.16.01,12.62.08,25.23.12,37.85-.04,5.58-.13,11.16-.12,16.73.01,11.58.08,23.15.12,34.73-.13,7.71-.62,15.39-1.97,23-1.77,6.64-3.86,13.17-6.69,19.44-2.67,5.01-5.57,9.87-8.83,14.52-4.94,6.19-10.4,11.87-16.54,16.89-8.02,5.87-16.59,10.7-26,14-10.08,3.12-20.39,4.64-30.94,4.63-10.17-.22-20.33-.22-30.5,0-2.16-.04-4.33-.12-6.49-.12-18.08-.01-36.16,0-54.24,0-1.08,0-2.16.08-3.24.13-11.85-.22-23.69-.23-35.54,0-.75-.04-1.49-.12-2.24-.12-31.66-.01-63.32-.02-94.98-.02-.75,0-1.49.09-2.24.13-9.32-.04-18.65-.12-27.97-.12-10.4,0-20.66-1.22-30.37-4.95-31.59-12.11-51.06-34.66-57.65-68.03-1.12-5.66-1.29-11.4-1.33-17.15-.07-11.57-.1-23.15-.14-34.72.05-.75.14-1.49.14-2.24,0-33.82,0-67.65-.02-101.47,0-.75-.08-1.49-.12-2.24.04-10.86.1-21.72.12-32.59,0-2.65-.08-5.3-.13-7.95.04-.91.12-1.83.13-2.74,0-21.33,0-42.65,0-63.98,0-.91-.08-1.83-.12-2.74.05-10.06.29-20.11,2.49-30,2.42-9.2,6.29-17.77,11.15-25.92,5.21-7.79,11.38-14.75,18.39-20.96.59-.42,1.2-.82,1.77-1.26,5.81-4.47,12.07-8.19,18.67-11.35.98.1,1.62-.7,2.44-1.01,5.33-2.06,10.85-3.39,16.36-4.81,7.35-1.29,14.77-1.46,22.2-1.66ZM368.58,288.27c3.37-5.62,6.36-11.43,8.67-17.58,2.42-5.87,4.47-11.86,5.9-18.05.32-1.61.57-3.24.98-4.84,2.42-9.38,3.13-18.96,3.2-28.6-1-2.42-.09-4.91-.27-7.36-.56-7.76-1.32-15.5-3.14-23.09-9.25-38.6-31.04-68.01-65.06-88.35-10.38-6.21-21.54-10.65-33.24-13.8-8.44-2.27-16.98-3.72-25.69-4.33-5.35-.85-10.75-.68-16.11-.4-6.17.32-12.36.69-18.38,2.31-6.05.68-11.84,2.42-17.61,4.26-6.41,1.89-12.55,4.45-18.45,7.57-5.75,2.6-11.16,5.79-16.32,9.41-6.06,4.15-11.96,8.48-17.11,13.76-7.64,6.73-14.04,14.51-19.71,22.93-5.22,7.52-9.63,15.48-12.96,24.02-3.22,7.26-5.62,14.79-7.24,22.58-2.21,8.31-3.01,16.82-3.53,25.35-.35,5.73,0,11.48.54,17.2.48,5.18.97,10.39,2.4,15.44.58,4.78,1.93,9.38,3.44,13.92,12.28,36.97,35.77,64.36,70.51,81.96,7.46,3.78,15.28,6.89,23.51,8.73,12.87,4.01,26.1,5.39,39.5,5.24,4.86-.06,9.78-.15,14.58-1.24,9.11-.77,17.91-2.96,26.52-5.95,8.71-2.83,17.15-6.25,24.92-11.17,7.6-3.98,14.39-9.13,20.88-14.68.97-.82,2.37-1.31,2.67-2.8.37-.15.82-.21,1.09-.47,5.53-5.31,10.91-10.77,15.37-17.05,3.86-4.65,7.27-9.6,10.14-14.92ZM357.1,79.97c.13,19.77,16.58,35.13,36.22,33.78,17.62-1.21,31.72-15.99,31.54-34.09-.19-18.88-15.57-33.79-34.24-33.54-18.73.25-33.83,15.5-33.52,33.85Z"/>
  <path class="cls-1" d="M212.84,153.89c4.45-2.33,9.06-4.3,13.76-6.07,5.42-1.47,10.88-2.79,16.49-3.31,5.8-.58,11.58-.24,17.35.4,13.56,2.11,25.87,7.17,36.49,15.91,14.56,12,23.72,27.26,26.88,45.97.29,1.72.55,3.44.83,5.16.19,4.65.56,9.31-.05,13.96-.23,1.78-.38,3.57-.56,5.36-1.02,5.35-2.5,10.58-4.31,15.72-2.12,4.75-4.51,9.35-7.25,13.77-3.52,4.88-7.43,9.43-11.7,13.67-6.14,5.31-12.84,9.78-20.19,13.26-5.91,2.42-11.97,4.28-18.26,5.47-1.43.27-2.96-.1-4.3.7-3.55-.23-7.07.52-10.64.27-5.06-.34-10.12-.56-15.01-2.11-.44-.14-.92-.15-1.38-.22-5.34-1.73-10.73-3.36-15.67-6.12-5.33-2.97-10.44-6.23-15.07-10.3-13.25-11.63-20.96-26.25-24.17-43.43-.19-1.03-.13-2.15-.84-3.05.6-1.67-.27-3.25-.3-4.9-.1-6.2.22-12.37,1.16-18.5,1.43-6.1,3.19-12.09,5.79-17.82.66-1.45,1.71-2.72,1.96-4.35,3.21-4.66,6.1-9.55,9.93-13.78,1.42-1.57,3.26-2.78,4.18-4.78,4.75-3.91,9.6-7.69,14.88-10.87Z"/>
</svg>