<?xml version="1.0" standalone="no"?><!-- Generator: Gravit.io --><svg xmlns="http://www.w3.org/2000/svg" xmlns:xlink="http://www.w3.org/1999/xlink" style="isolation:isolate" viewBox="722 435.5 240 240" width="240" height="240"><linearGradient id="_lgradient_17" x1="0.04090909090909012" y1="0.9000631313131306" x2="0.9310606060606041" y2="0.07304292929292922" gradientTransform="matrix(240,0,0,240,722,435.5)" gradientUnits="userSpaceOnUse"><stop offset="1.3043478260869565%" stop-opacity="1" style="stop-color:rgb(220,143,63)"/><stop offset="49.130434782608695%" stop-opacity="1" style="stop-color:rgb(196,46,100)"/><stop offset="100%" stop-opacity="1" style="stop-color:rgb(124,34,184)"/></linearGradient><path d=" M 893.429 488.643 C 893.429 479.655 900.726 472.357 909.714 472.357 C 918.703 472.357 926 479.655 926 488.643 C 926 497.631 918.703 504.929 909.714 504.929 C 900.726 504.929 893.429 497.631 893.429 488.643 L 893.429 488.643 Z  M 779.07 450.5 L 904.93 450.5 C 904.93 450.5 904.94 450.5 904.94 450.5 C 910.56 450.5 916.12 451.62 921.29 453.8 C 926.29 455.92 930.83 458.99 934.67 462.83 C 938.51 466.67 941.58 471.21 943.7 476.21 C 945.88 481.38 947 486.94 947 492.56 C 947 492.56 947 492.57 947 492.57 L 947 618.43 C 947 618.43 947 618.44 947 618.44 C 947 624.06 945.88 629.62 943.7 634.79 C 941.58 639.79 938.51 644.33 934.67 648.17 C 930.83 652.01 926.29 655.08 921.29 657.2 C 916.12 659.38 910.56 660.5 904.94 660.5 C 904.94 660.5 904.93 660.5 904.93 660.5 L 779.07 660.5 C 779.07 660.5 779.06 660.5 779.06 660.5 C 773.44 660.5 767.88 659.38 762.71 657.2 C 757.71 655.08 753.17 652.01 749.33 648.17 C 745.49 644.33 742.42 639.79 740.3 634.79 C 738.12 629.62 737 624.06 737 618.44 C 737 618.44 737 618.43 737 618.43 L 737 492.57 C 737 492.57 737 492.56 737 492.56 C 737 486.94 738.12 481.38 740.3 476.21 C 742.42 471.21 745.49 466.67 749.33 462.83 C 753.17 458.99 757.71 455.92 762.71 453.8 C 767.88 451.62 773.44 450.5 779.06 450.5 C 779.06 450.5 779.07 450.5 779.07 450.5 L 779.07 450.5 L 779.07 450.5 Z  M 779.07 435.5 L 904.93 435.5 C 936.428 435.5 962 461.072 962 492.57 L 962 618.43 C 962 649.928 936.428 675.5 904.93 675.5 L 779.07 675.5 C 747.572 675.5 722 649.928 722 618.43 L 722 492.57 C 722 461.072 747.572 435.5 779.07 435.5 L 779.07 435.5 L 779.07 435.5 Z  M 797.429 555.5 C 797.424 549.543 798.616 543.646 800.93 538.156 C 803.176 532.867 806.42 528.054 810.491 523.991 C 814.554 519.92 819.367 516.676 824.664 514.43 C 830.15 512.111 836.047 510.924 842 510.929 C 847.953 510.924 853.85 512.111 859.336 514.43 C 864.633 516.676 869.446 519.92 873.509 523.991 C 877.58 528.054 880.824 532.867 883.07 538.164 C 885.389 543.65 886.576 549.547 886.571 555.5 C 886.576 561.453 885.389 567.35 883.07 572.836 C 880.824 578.133 877.58 582.946 873.509 587.009 C 869.446 591.08 864.633 594.324 859.336 596.57 C 853.85 598.889 847.953 600.076 842 600.071 C 836.047 600.076 830.15 598.889 824.664 596.57 C 819.367 594.324 814.554 591.08 810.491 587.009 C 806.42 582.946 803.176 578.133 800.93 572.836 C 798.611 567.35 797.424 561.453 797.429 555.5 L 797.429 555.5 Z  M 776 555.5 C 775.996 546.68 777.761 537.946 781.19 529.82 C 784.516 521.977 789.316 514.854 795.337 508.837 C 801.354 502.816 808.477 498.016 816.316 494.694 C 824.441 491.261 833.176 489.496 842 489.5 C 850.824 489.496 859.559 491.261 867.684 494.694 C 875.523 498.016 882.646 502.816 888.663 508.837 C 894.684 514.854 899.484 521.977 902.806 529.816 C 906.239 537.941 908.004 546.676 908 555.5 C 908.004 564.324 906.239 573.059 902.806 581.184 C 899.484 589.023 894.684 596.146 888.663 602.163 C 882.646 608.184 875.523 612.984 867.684 616.306 C 859.559 619.739 850.824 621.504 842 621.5 C 833.176 621.504 824.441 619.739 816.316 616.306 C 808.477 612.984 801.354 608.184 795.337 602.163 C 789.316 596.146 784.516 589.023 781.194 581.184 C 777.761 573.059 775.996 564.324 776 555.5 L 776 555.5 Z " fill-rule="evenodd" fill="url(#_lgradient_17)"/></svg>