<?xml version="1.0" standalone="no"?><!-- Generator: Gravit.io --><svg xmlns="http://www.w3.org/2000/svg" xmlns:xlink="http://www.w3.org/1999/xlink" style="isolation:isolate" viewBox="1622.8 435.303 240 240" width="240" height="240"><linearGradient id="_lgradient_20" x1="0.07247474747474841" y1="0.9253156565656566" x2="0.9184343434343445" y2="0.0667297979797985" gradientTransform="matrix(240,0,0,240,1622.8,435.303)" gradientUnits="userSpaceOnUse"><stop offset="0%" stop-opacity="1" style="stop-color:rgb(255,38,0)"/><stop offset="100%" stop-opacity="1" style="stop-color:rgb(255,157,0)"/></linearGradient><path d=" M 1679.87 450.303 L 1805.73 450.303 C 1805.73 450.303 1805.74 450.303 1805.74 450.303 C 1811.36 450.303 1816.92 451.423 1822.09 453.603 C 1827.09 455.723 1831.63 458.793 1835.47 462.633 C 1839.31 466.473 1842.38 471.013 1844.5 476.013 C 1846.68 481.183 1847.8 486.743 1847.8 492.363 C 1847.8 492.363 1847.8 492.373 1847.8 492.373 L 1847.8 618.233 C 1847.8 618.233 1847.8 618.243 1847.8 618.243 C 1847.8 623.863 1846.68 629.423 1844.5 634.593 C 1842.38 639.593 1839.31 644.133 1835.47 647.973 C 1831.63 651.813 1827.09 654.883 1822.09 657.003 C 1816.92 659.183 1811.36 660.303 1805.74 660.303 C 1805.74 660.303 1805.73 660.303 1805.73 660.303 L 1679.87 660.303 C 1679.87 660.303 1679.86 660.303 1679.86 660.303 C 1674.24 660.303 1668.68 659.183 1663.51 657.003 C 1658.51 654.883 1653.97 651.813 1650.13 647.973 C 1646.29 644.133 1643.22 639.593 1641.1 634.593 C 1638.92 629.423 1637.8 623.863 1637.8 618.243 C 1637.8 618.243 1637.8 618.233 1637.8 618.233 L 1637.8 492.373 C 1637.8 492.373 1637.8 492.363 1637.8 492.363 C 1637.8 486.743 1638.92 481.183 1641.1 476.013 C 1643.22 471.013 1646.29 466.473 1650.13 462.633 C 1653.97 458.793 1658.51 455.723 1663.51 453.603 C 1668.68 451.423 1674.24 450.303 1679.86 450.303 C 1679.86 450.303 1679.87 450.303 1679.87 450.303 L 1679.87 450.303 L 1679.87 450.303 L 1679.87 450.303 L 1679.87 450.303 L 1679.87 450.303 Z  M 1679.87 435.303 L 1805.73 435.303 C 1837.228 435.303 1862.8 460.875 1862.8 492.373 L 1862.8 618.233 C 1862.8 649.731 1837.228 675.303 1805.73 675.303 L 1679.87 675.303 C 1648.372 675.303 1622.8 649.731 1622.8 618.233 L 1622.8 492.373 C 1622.8 460.875 1648.372 435.303 1679.87 435.303 L 1679.87 435.303 L 1679.87 435.303 L 1679.87 435.303 L 1679.87 435.303 L 1679.87 435.303 Z  M 1772.428 599.829 C 1773.553 600.941 1773.553 602.755 1772.428 603.88 C 1766.272 609.997 1756.621 612.975 1742.893 612.975 L 1742.787 612.949 L 1742.681 612.975 C 1728.966 612.975 1719.302 609.997 1713.146 603.867 C 1712.02 602.755 1712.02 600.941 1713.146 599.829 C 1714.258 598.717 1716.085 598.717 1717.21 599.829 C 1722.227 604.82 1730.554 607.256 1742.681 607.256 L 1742.787 607.283 L 1742.893 607.256 C 1755.006 607.256 1763.333 604.82 1768.364 599.829 C 1769.489 598.717 1771.316 598.717 1772.428 599.829 L 1772.428 599.829 L 1772.428 599.829 L 1772.428 599.829 Z  M 1726.887 567.818 C 1726.887 561.107 1721.406 555.652 1714.681 555.652 C 1707.943 555.652 1702.462 561.107 1702.462 567.818 C 1702.462 574.517 1707.943 579.971 1714.681 579.971 C 1721.406 579.985 1726.887 574.53 1726.887 567.818 L 1726.887 567.818 L 1726.887 567.818 Z  M 1770.972 555.665 C 1764.233 555.665 1758.766 561.12 1758.766 567.832 C 1758.766 574.53 1764.246 579.985 1770.972 579.985 C 1777.697 579.985 1783.178 574.53 1783.178 567.832 C 1783.178 561.12 1777.71 555.665 1770.972 555.665 L 1770.972 555.665 Z  M 1835.47 553.799 C 1835.47 542.533 1826.269 533.372 1814.95 533.372 C 1809.43 533.372 1804.426 535.583 1800.732 539.13 C 1786.752 529.93 1767.834 524.078 1746.904 523.324 L 1758.355 487.262 L 1789.373 494.53 L 1789.334 494.98 C 1789.334 504.194 1796.866 511.687 1806.12 511.687 C 1815.374 511.687 1822.893 504.194 1822.893 494.98 C 1822.893 485.766 1815.374 478.273 1806.12 478.273 C 1799.011 478.273 1792.961 482.708 1790.512 488.917 L 1757.084 481.079 C 1755.628 480.722 1754.132 481.569 1753.682 482.999 L 1740.907 523.218 C 1718.984 523.482 1699.139 529.387 1684.537 538.852 C 1680.87 535.477 1676.011 533.358 1670.636 533.358 C 1659.331 533.372 1650.13 542.533 1650.13 553.799 C 1650.13 561.292 1654.247 567.779 1660.297 571.34 C 1659.9 573.511 1659.635 575.722 1659.635 577.959 C 1659.635 608.156 1696.769 632.727 1742.416 632.727 C 1788.063 632.727 1825.197 608.156 1825.197 577.959 C 1825.197 575.841 1824.972 573.763 1824.614 571.711 C 1831.048 568.255 1835.47 561.57 1835.47 553.799 L 1835.47 553.799 L 1835.47 553.799 L 1835.47 553.799 Z " fill-rule="evenodd" fill="url(#_lgradient_20)"/></svg>