<?xml version="1.0" standalone="no"?><!-- Generator: Gravit.io --><svg xmlns="http://www.w3.org/2000/svg" xmlns:xlink="http://www.w3.org/1999/xlink" style="isolation:isolate" viewBox="1022 435.5 240 240" width="240" height="240"><linearGradient id="_lgradient_18" x1="0.047916666666666496" y1="0.9104166666666668" x2="0.9208333333333336" y2="0.05833333333333357" gradientTransform="matrix(240,0,0,240,1022,435.5)" gradientUnits="userSpaceOnUse"><stop offset="0%" stop-opacity="1" style="stop-color:rgb(0,204,255)"/><stop offset="96.95652173913044%" stop-opacity="1" style="stop-color:rgb(0,85,255)"/></linearGradient><path d=" M 1079 450.5 L 1205 450.5 C 1216.13 450.5 1226.82 454.93 1234.7 462.8 C 1242.57 470.68 1247 481.37 1247 492.5 L 1247 618.5 C 1247 629.63 1242.57 640.32 1234.7 648.2 C 1226.82 656.07 1216.13 660.5 1205 660.5 L 1079 660.5 C 1067.87 660.5 1057.18 656.07 1049.3 648.2 C 1041.43 640.32 1037 629.63 1037 618.5 L 1037 492.5 C 1037 481.37 1041.43 470.68 1049.3 462.8 C 1057.18 454.93 1067.87 450.5 1079 450.5 L 1079 450.5 Z  M 1079 435.5 L 1205 435.5 C 1220.11 435.5 1234.62 441.51 1245.31 452.19 C 1255.99 462.88 1262 477.39 1262 492.5 L 1262 618.5 C 1262 633.61 1255.99 648.12 1245.31 658.81 C 1234.62 669.49 1220.11 675.5 1205 675.5 L 1079 675.5 C 1063.89 675.5 1049.38 669.49 1038.69 658.81 C 1028.01 648.12 1022 633.61 1022 618.5 L 1022 492.5 C 1022 477.39 1028.01 462.88 1038.69 452.19 C 1049.38 441.51 1063.89 435.5 1079 435.5 L 1079 435.5 Z  M 1056.859 608.848 C 1075.844 620.241 1091.206 624.288 1111.349 623.984 C 1173.975 623.038 1209.546 576.494 1209.735 520.301 C 1216.816 514.549 1222.626 508.754 1227.141 502.894 C 1220.583 506.136 1213.275 507.909 1206.708 508.192 C 1213.566 503.462 1219.857 497.171 1221.844 488.515 C 1217.128 493.049 1209.834 496.099 1199.896 497.596 Q 1189.492 486.896 1174.921 487.001 C 1155.197 487.143 1140.587 501.633 1140.108 520.301 C 1140.013 523.99 1140.486 526.876 1141.622 530.139 C 1110.781 527.301 1087.699 515.949 1068.968 493.056 C 1060.359 509.611 1063.859 527.018 1079.563 539.221 C 1074.022 539.87 1068.732 538.363 1063.67 534.68 C 1065.183 552.655 1074.076 563.818 1091.672 569.494 C 1087.265 571.532 1081.975 571.792 1075.779 570.25 C 1082.023 584.346 1090.253 591.252 1109.079 594.468 C 1095.834 605.348 1076.441 611.97 1056.859 608.848 Z " fill-rule="evenodd" fill="url(#_lgradient_18)"/></svg>