<?xml version="1.0" encoding="UTF-8"?>
<svg id="Layer_4" xmlns="http://www.w3.org/2000/svg" viewBox="0 0 469.1 438.15">
  <defs>
    <style>
      .cls-1 {
        fill: #eeb81d;
      }
    </style>
  </defs>
  <path class="cls-1" d="M240.43.28c.66.05,1.32.13,1.98.13,21.85,0,43.69,0,65.54,0,.66,0,1.32-.08,1.98-.12,1.16.05,2.32.13,3.49.13,21.99,0,43.98-.02,65.97,0,24.13.02,45.21,7.94,62.56,24.85,14.65,14.28,23.54,31.6,26,52.07,1.3,10.79.6,21.63.8,32.44.03,1.66.09,3.32.13,4.99-.04.74-.12,1.49-.12,2.23,0,30.84-.01,61.68-.01,92.51,0,.74.09,1.49.13,2.23-.04.74-.12,1.49-.12,2.23-.01,31-.01,62-.01,93,0,.74.09,1.49.13,2.23-.05,12.91-.07,25.81-.15,38.72-.03,4.33-.21,8.64-.73,12.95-1.97,16.34-8.04,31-18.36,43.77-14.86,18.4-34,29.41-57.55,32.58-4.39.59-8.79.74-13.2.75-16.32.06-32.65.02-48.97.03-1,0-1.99.09-2.99.14-1.16-.04-2.33-.12-3.49-.12-67.24-.01-134.47-.1-201.71.02-21.77.04-41.35-6.03-58.21-19.89-16.74-13.76-27.17-31.41-31.03-52.82-1.1-6.09-1.32-12.24-1.32-18.4-.01-56.65-.01-113.31-.02-169.96,0-1.25-.08-2.49-.13-3.74.05-.91.14-1.82.14-2.74,0-26.9.04-53.8-.01-80.71-.06-25.94,9.26-47.94,28.02-65.74C72.71,11.18,88.98,3.69,107.53,1.22c4.64-.62,9.29-.73,13.95-.79,7.33-.1,14.66-.1,21.98-.15.66.05,1.32.13,1.98.13,31,0,62,0,93-.01.66,0,1.32-.08,1.98-.12ZM305.92,88.77c-7.86-.26-15.72-.58-23.58-.78-15.96-.4-31.93-.33-47.89-.17-3.16,0-6.32-.06-9.48,0-23.78.46-47.54,1.19-71.29,2.53-9.45.54-18.95.53-28.33,2.04-8.64,1.35-17.11,3.2-24.97,7.31-13.3,6.94-21.56,18.02-25.26,32.18-4.53,17.32-6.6,35.09-7.77,52.96-1.11,16.98-1.1,33.95-.5,50.94.45,12.49,1.44,24.93,2.69,37.35.97,9.59,1.55,19.32,3.65,28.68,5.26,23.39,20.91,38.27,45.14,42.3,9.51,1.58,19.2,1.89,28.82,2.69,15.19,1.27,30.4,2.1,45.61,2.83,24.3,1.17,48.63,1.23,72.95,1.02,22.07-.19,44.13-1,66.16-2.37,10.97-.68,21.93-1.37,32.89-2.16,4.72-.34,9.43-.94,14.14-1.42,5,.2,9.78-.88,14.31-2.85,15.23-6.62,25.22-18.24,31.23-33.47,3.51-8.88,3.98-18.38,5.4-27.69.18-.98.43-1.95.54-2.94,1.08-9.09,1.81-18.21,2.34-27.35.68-11.89.93-23.79.6-35.7.29-9.67-.4-19.32-1.06-28.95-1.13-16.6-3.31-33.08-6.32-49.46-2.5-13.59-9.27-24.26-20.57-32.03-12.8-8.8-27.27-12.31-42.57-13.05-11.73-.56-23.44-1.28-35.17-1.76-7.23-.29-14.46-.95-21.71-.71Z"/>
  <path class="cls-1" d="M215.19,187.23c.19-1,.2-2.01-.01-3.01v-1.49c.05-6.07.13-12.14.12-18.21,0-1.69.31-2.07,1.91-1.14,31.87,18.39,63.75,36.75,95.63,55.11.14.08.23.23.53.55-.8.51-1.57,1.04-2.38,1.5-14.24,8.22-28.49,16.43-42.73,24.65-.49.28-.94.66-1.4.99-9.52,5.43-19.05,10.86-28.56,16.31-6.85,3.92-13.69,7.88-20.53,11.81-2.43,1.4-2.45,1.4-2.45-1.38,0-25.48,0-50.97-.02-76.45,0-1.08-.08-2.16-.12-3.24.22-1.14.22-2.27,0-3.41,0-.87,0-1.73.01-2.6Z"/>
</svg>