<?xml version="1.0" standalone="no"?><!-- Generator: Gravit.io --><svg xmlns="http://www.w3.org/2000/svg" xmlns:xlink="http://www.w3.org/1999/xlink" style="isolation:isolate" viewBox="1322.424 435.303 240 240" width="240" height="240"><linearGradient id="_lgradient_19" x1="0.07247474747474841" y1="0.9253156565656566" x2="0.9184343434343445" y2="0.0667297979797985" gradientTransform="matrix(240,0,0,240,1322.424,435.303)" gradientUnits="userSpaceOnUse"><stop offset="1.3043478260869565%" stop-opacity="1" style="stop-color:rgb(255,47,0)"/><stop offset="100%" stop-opacity="1" style="stop-color:rgb(213,0,60)"/></linearGradient><path d=" M 1379.494 450.303 L 1505.354 450.303 C 1505.354 450.303 1505.364 450.303 1505.364 450.303 C 1510.984 450.303 1516.544 451.423 1521.714 453.603 C 1526.714 455.723 1531.254 458.793 1535.094 462.633 C 1538.934 466.473 1542.004 471.013 1544.124 476.013 C 1546.304 481.183 1547.424 486.743 1547.424 492.363 C 1547.424 492.363 1547.424 492.373 1547.424 492.373 L 1547.424 618.233 C 1547.424 618.233 1547.424 618.243 1547.424 618.243 C 1547.424 623.863 1546.304 629.423 1544.124 634.593 C 1542.004 639.593 1538.934 644.133 1535.094 647.973 C 1531.254 651.813 1526.714 654.883 1521.714 657.003 C 1516.544 659.183 1510.984 660.303 1505.364 660.303 C 1505.364 660.303 1505.354 660.303 1505.354 660.303 L 1379.494 660.303 C 1379.494 660.303 1379.484 660.303 1379.484 660.303 C 1373.864 660.303 1368.304 659.183 1363.134 657.003 C 1358.134 654.883 1353.594 651.813 1349.754 647.973 C 1345.914 644.133 1342.844 639.593 1340.724 634.593 C 1338.544 629.423 1337.424 623.863 1337.424 618.243 C 1337.424 618.243 1337.424 618.233 1337.424 618.233 L 1337.424 492.373 C 1337.424 492.373 1337.424 492.363 1337.424 492.363 C 1337.424 486.743 1338.544 481.183 1340.724 476.013 C 1342.844 471.013 1345.914 466.473 1349.754 462.633 C 1353.594 458.793 1358.134 455.723 1363.134 453.603 C 1368.304 451.423 1373.864 450.303 1379.484 450.303 C 1379.484 450.303 1379.494 450.303 1379.494 450.303 L 1379.494 450.303 L 1379.494 450.303 L 1379.494 450.303 L 1379.494 450.303 Z  M 1379.494 435.303 L 1505.354 435.303 C 1536.852 435.303 1562.424 460.875 1562.424 492.373 L 1562.424 618.233 C 1562.424 649.731 1536.852 675.303 1505.354 675.303 L 1379.494 675.303 C 1347.996 675.303 1322.424 649.731 1322.424 618.233 L 1322.424 492.373 C 1322.424 460.875 1347.996 435.303 1379.494 435.303 L 1379.494 435.303 L 1379.494 435.303 L 1379.494 435.303 L 1379.494 435.303 Z  M 1473 555.212 L 1425.798 582.413 L 1425.798 528.003 L 1473 555.212 L 1473 555.212 L 1473 555.212 Z  M 1386.024 494.003 C 1404.844 492.753 1423.714 492.123 1442.584 492.123 C 1461.314 492.123 1480.044 492.753 1498.744 494.003 C 1501.854 494.223 1504.934 494.793 1507.914 495.703 C 1510.714 496.543 1513.384 497.743 1515.864 499.293 C 1518.244 500.763 1520.374 502.613 1522.164 504.773 C 1523.994 506.983 1525.374 509.543 1526.224 512.283 C 1527.014 515.753 1527.664 519.243 1528.194 522.753 C 1528.744 526.383 1529.194 530.033 1529.534 533.693 C 1530.244 541.283 1530.594 548.893 1530.584 556.513 C 1530.594 563.283 1530.314 570.053 1529.754 576.803 C 1529.494 579.953 1529.144 583.103 1528.724 586.243 C 1528.334 589.223 1527.844 592.183 1527.264 595.133 C 1525.924 600.123 1523.324 604.693 1519.714 608.393 C 1518.034 610.133 1516.124 611.623 1514.034 612.833 C 1511.884 614.093 1509.544 614.963 1507.104 615.413 C 1485.384 617.433 1463.574 618.453 1441.764 618.483 C 1421.054 618.513 1400.364 617.483 1379.764 615.423 C 1377.024 615.013 1374.344 614.223 1371.814 613.093 C 1369.424 612.013 1367.224 610.563 1365.284 608.803 C 1363.354 607.033 1361.724 604.963 1360.444 602.683 C 1359.094 600.243 1358.094 597.623 1357.474 594.913 C 1356.434 587.623 1355.624 580.303 1355.064 572.953 C 1354.544 566.273 1354.274 559.573 1354.264 552.873 C 1354.244 545.813 1354.604 538.763 1355.324 531.743 C 1355.994 525.303 1357.074 518.913 1358.584 512.623 C 1359.514 509.793 1360.874 507.123 1362.614 504.703 C 1364.274 502.433 1366.344 500.503 1368.714 498.983 C 1371.144 497.463 1373.794 496.323 1376.574 495.593 C 1378.044 495.193 1379.544 494.863 1381.054 494.623 C 1382.694 494.353 1384.354 494.143 1386.024 494.003 L 1386.024 494.003 L 1386.024 494.003 Z " fill-rule="evenodd" fill="url(#_lgradient_19)"/></svg>