<?xml version="1.0" encoding="UTF-8"?>
<svg id="Layer_2" data-name="Layer 2" xmlns="http://www.w3.org/2000/svg" viewBox="0 0 294.77 35.43">
  <defs>
    <style>
      .cls-1 {
        fill: #f6f9fd;
      }
    </style>
  </defs>
  <g id="Layer_1-2" data-name="Layer 1">
    <g>
      <path class="cls-1" d="M27.13,22.03h0s.03.05.05.06c.05-.07.08-.15.11-.23-.05.05-.1.11-.16.16ZM19.48,34.75s-.01.04-.02.07c.03,0,.06-.01.09-.02-.02-.02-.05-.03-.08-.05Z"/>
      <path class="cls-1" d="M6.12,12.38c0,.15-.06.27-.27.37,0-.28-.31-.51-.17-.82l.09-.09c.1-.02.2-.05.3-.08-.03.03-.05.06-.07.09.02,0,.04-.01.06-.02-.02.17.06.37.06.54Z"/>
      <path class="cls-1" d="M18.33,34.92s-.01.08-.02.11c-.04,0-.08.02-.12.02.05-.05.1-.09.15-.14Z"/>
      <path class="cls-1" d="M153.85,16.07c-2.07.76-4.34-.34-5.04-2.38-.14-.4.09-.6.26-.83,1.38-1.86,2.42-4.11,5.22-4.38-2.06.01-4.06-.03-6.06-.02,2.4.78,1.98,1,1.03,3.03-.23.47-.48.96-1.04,1.34-1.05-1.55-2.25-2.96-3.79-4.08,2.42-1.68,3-2.93,2.06-4.3-.98-1.44-3.38-1.83-4.95-.83-.73.46-1.12,1.13-1.32,1.94-.36,1.52.57,2.57,1.48,3.66-.5.27-.91.45-1.28.69-2.98,1.93-3.12,5.46-.3,7.1,1.88,1.09,4.17.91,5.97-.69.91-.81,1.37-1.05,2.34.02,1.72,1.9,3.97,1.74,5.87-.15-.12-.17-.26-.18-.45-.1h0ZM142.07,4.29c.45-.71,1.17-.8,1.9-.56.99.33,1.28,1.15,1.28,2.27-.02.16-.02.48-.1.77-.42,1.47-1.28,1.69-2.32.6-.18-.19-.36-.39-.52-.61-.59-.78-.78-1.61-.23-2.48ZM146.32,15.25c-.79.69-1.74.84-2.66.92-2.99-.06-4.59-2.86-3.14-5.4.61-1.07,1.76-1.31,2.73-.56,1.36,1.05,2.31,2.45,3.3,3.83.4.55.19.85-.23,1.22Z"/>
      <path class="cls-1" d="M294.77,21.62v.27c-.47.52-1.09.26-1.63.26-68.14.01-136.28.01-204.42.01-16.2,0-32.39,0-48.59-.01-.49,0-1.07.27-1.47-.28-.04-.07-.05-.13-.02-.21.45-.56,1.08-.29,1.62-.29,20-.02,40-.01,60-.01,64.24,0,128.49,0,192.73.01.59,0,1.25-.27,1.78.26Z"/>
      <path class="cls-1" d="M184.02,17.28h-5.66c.01-.08.02-.23.04-.23,1.71-.24,2.06-1.35,1.99-2.88-.09-1.96-.02-3.93-.02-5.9,0-2.2-.06-2.26-2.06-3.05,1.91-.05,3.84.06,6.09-.24-1.73,1.11-2.53,3.68-1.98,5.38.15.47.49.45.84.45,1.7,0,3.4-.02,5.1.01.66.01.86-.28.82-.89-.03-.45,0-.89,0-1.34-.02-1.42.13-2.91-1.84-3.42,2.02.06,3.94.07,5.83-.15.09.45-.14.48-.36.5-1.19.08-1.61.85-1.62,1.9-.02,2.55.02,5.09-.01,7.64-.02,1.38.95,1.74,1.98,2.18h-5.76c1.53-.92,2.38-3.68,1.77-5.35-.17-.47-.53-.41-.87-.41-1.65,0-3.31.02-4.96-.02-.7-.02-.96.24-.93.94.04.76.03,1.52.02,2.28-.02,1.18.25,2.15,1.59,2.59h0Z"/>
      <path class="cls-1" d="M51.17,17.3h6.77c-1.99-.37-2.7-1.89-3.32-3.5-1.49-3.91-2.99-7.82-4.5-11.72-.18-.46-.24-1.01-.77-1.38-.52.8-.84,1.57-1.09,2.37h0c-.03.06-.06.13-.09.19h0c-1.29,2.8-2.55,5.63-3.9,8.4-1.02,2.11-1.43,4.7-4.07,5.66h4.9c-1.56-.71-1.68-.75-1.53-1.42.37-1.66.95-3.34,1.98-4.62.58-.73,2.04-.15,3.09-.23.44-.03.9.05,1.33-.02.88-.14,1.44.2,1.74,1.02.26.76.5,1.51.77,2.27.71,1.99.66,2.12-1.32,2.98h0ZM45.83,10.3c.98-1.93,1.5-3.96,2.68-5.7.09-.14.19-.28.3-.42.71,2.04,1.42,4.07,2.13,6.11h-5.11Z"/>
      <path class="cls-1" d="M48.26,3.08c-.03.06-.06.12-.09.19.02-.06.05-.12.09-.19Z"/>
      <path class="cls-1" d="M102.98,4.63v3.13c-1.11-1.72-2.56-1.69-4.02-1.69-.66,0-.97.16-.97.89.03,2.59.03,5.18.03,7.77,0,1.27.47,2.17,1.86,2.49h-6.1c2.93-.63,2.19-2.7,2.24-4.39.06-1.92-.02-3.84.03-5.76.02-.74-.19-1.03-.97-1-1.46.06-2.98-.1-4.05,1.67v-3.01c1.53.75,10.64.74,11.95-.09h0Z"/>
      <path class="cls-1" d="M269.87,16.99c2.78,0,2.37-1.83,2.38-3.41.01-1.69,0-3.39,0-5.08,0-1.54-.63-2.65-1.86-3.32,1.91.05,3.82.09,5.71-.14.12.55-.24.47-.47.52-.88.18-1.29.74-1.29,1.61,0,2.63,0,5.26,0,7.89,0,1.02.53,1.49,1.52,1.39,1.43-.14,3.13.39,3.89-1.58.44,1.84-.08,2.51-1.77,2.5-2.59-.02-5.17,0-7.76,0-.12-.12-.23-.24-.35-.37h0Z"/>
      <path class="cls-1" d="M290.79,17.52c-2.1.31-4.2.28-6.1-.88-2.18-1.32-3.38-3.23-3.05-5.79.32-2.55,1.66-4.46,4.18-5.38,2.21-1.14,4.46-.87,6.57.11,1.33.61.66,2.05.82,3.23-1.55-3.12-3.95-3.86-7.04-2.82-.85.27-1.36.83-1.75,1.64-.99,2.07-1.01,4.15-.12,6.21.86,2,2.47,3.03,4.64,3.02,2.04-.01,3.48-.97,4.07-3.01.02-.06.13-.09.21-.13.52,2.39-.11,3.46-2.43,3.8h0Z"/>
      <path class="cls-1" d="M111.5,17.24h5.51c-1.82-.4-2.29-1.9-2.86-3.31-.52-1.28-1.01-2.57-1.52-3.85-.69-1.72-1.39-3.44-2.19-5.44-1.02,2.04-1.99,3.75-2.58,5.65-.01.03-.03.05-.04.08-.25.48-.5.96-.76,1.44-1.07,1.96-1.36,4.46-3.82,5.47h4.27c-1.49-.82-1.5-.86-.94-2.34.55-1.45,1.66-2.18,3.32-2.18.58,0,1.15.03,1.73.04.24.72.47,1.44.72,2.15.34.99.86,2.03-.85,2.27ZM110.92,11.94c-.97.13-1.94.03-2.94,0,.06-.38.12-.71.17-1.04,0,0,0-.01,0-.02.52-.71.74-1.56,1.05-2.36.11-.28.28-.47.56-.47.31,0,.2.32.27.5.44,1.1.86,2.21,1.28,3.31-.13.03-.27.05-.4.07h0Z"/>
      <path class="cls-1" d="M108.17,10.9s0,0-.01,0c0,0,0-.01,0-.02,0,0,0,.01.01.02h0Z"/>
      <path class="cls-1" d="M222.31,5.2c-1.88.72-2.4,2.41-3.13,3.96-.84,1.75-1.45,3.6-2.47,5.27-.03.05-.06.09-.09.14-.39,1.01-.65,2.08-1.32,3-.54-.28-.6-.8-.79-1.22-1.09-2.44-2.15-4.89-3.22-7.34-.75-1.72-1.93-3.03-3.53-3.94,2.24.14,4.15.18,6.22,0-.41.69-1.52.34-1.42,1.31.06.63.27,1.22.52,1.79.81,1.83,1.62,3.67,2.43,5.5.13.28.2.6.55.7.96-2.26,1.93-4.51,2.89-6.76.44-1.03.77-2.04-1-2.36,1.51-.13,2.91.06,4.36-.05Z"/>
      <path class="cls-1" d="M202.53,17.24h5.57c-1.47-.37-2.15-1.42-2.63-2.68-.22-.58-.45-1.16-.68-1.74-1.05-2.63-2.11-5.26-3.29-8.21-.51,1.14-1.08,1.87-1.25,2.79l-.1.19c-.26.53-.51,1.07-.81,1.58-1.62,2.73-1.85,6.33-5.22,8.16h4.61c-.67-.58-1.62-.34-1.43-1.43.42-2.36,1.25-3.13,3.61-3.13.58,0,1.16.01,1.74.02.22.63.43,1.26.67,1.89.43,1.09.92,2.18-.8,2.56ZM201.95,11.95c-.96.09-1.94.05-3.05-.04.74-1.21.93-2.57,1.8-3.57.09-.11.19-.21.3-.31.46,1.29.91,2.58,1.36,3.87-.14.02-.28.03-.42.05Z"/>
      <path class="cls-1" d="M200.25,7.4l-.1.19c.02-.06.05-.12.1-.19Z"/>
      <path class="cls-1" d="M225.2,28.64c-.65,1.94-1.14,3.47-1.67,4.98-.12.34-.09.84-.68.86-.67.03-.64-.53-.77-.91-.58-1.78-1.15-3.57-1.66-5.37-.07-.25-.66-.75.09-.95.59-.16.78.27.91.73.38,1.29.75,2.57,1.13,3.85.09.29.22.56.38.96.58-1.69,1.11-3.25,1.65-4.81.11-.33.16-.73.64-.74.49-.02.54.39.66.72.52,1.52,1.04,3.04,1.68,4.92.5-1.64.91-2.96,1.32-4.28.1-.34.22-.68.34-1.02.13-.39.46-.41.77-.32.45.13.15.45.09.64-.59,1.97-1.22,3.92-1.82,5.88-.11.35-.17.69-.66.7-.51,0-.56-.39-.67-.71-.55-1.59-1.07-3.18-1.72-5.15h0Z"/>
      <path class="cls-1" d="M152.12,32.25c.84-1.51,1.59-2.86,2.34-4.22.24-.43.44-.95,1.07-.78.66.17.35.74.36,1.12.03,1.74.02,3.48,0,5.22,0,.32.16.81-.36.85-.67.05-.46-.53-.47-.87-.02-1.46-.01-2.92-.23-4.47-.68,1.21-1.38,2.41-2.03,3.64-.47.88-.88.92-1.37.03-.64-1.17-1.3-2.33-2.25-3.49,0,1.37.02,2.74-.01,4.11,0,.38.27,1.06-.42,1.05-.68,0-.4-.68-.41-1.06-.03-1.74-.02-3.48,0-5.22,0-.32-.17-.76.32-.9.48-.13.73.17.95.55.79,1.43,1.6,2.85,2.5,4.44h0Z"/>
      <path class="cls-1" d="M142.66,32.1c.79-1.42,1.56-2.82,2.33-4.22.2-.36.39-.71.9-.64.65.09.41.6.41.95.02,1.83.02,3.66,0,5.49,0,.31.15.81-.42.79-.56-.02-.4-.5-.4-.82-.02-1.47,0-2.94-.21-4.52-.6,1.08-1.19,2.17-1.82,3.24-.23.39-.3,1.04-.92,1.02-.53-.02-.61-.59-.83-.96-.64-1.1-1.26-2.21-2.11-3.25,0,1.49.01,2.99,0,4.48,0,.31.16.79-.4.82-.58.02-.44-.46-.44-.78-.01-1.87-.01-3.75,0-5.62,0-.32-.16-.75.4-.82.41-.05.67.14.86.48.56,1.02,1.11,2.03,1.71,3.03.26.45.4.99.94,1.34h0Z"/>
      <path class="cls-1" d="M43.71,27.17c-2.19-.04-3.71,1.47-3.71,3.68s1.47,3.68,3.58,3.69c2.13.01,3.59-1.45,3.63-3.63.03-2.18-1.39-3.71-3.49-3.75h0ZM43.61,33.7c-1.56,0-2.55-1.07-2.58-2.78-.02-1.79.97-2.91,2.58-2.91,1.58,0,2.54,1.04,2.56,2.78.02,1.81-.95,2.92-2.56,2.91h0Z"/>
      <path class="cls-1" d="M65.13,32.14c-.46-.55-.5-.82.19-1.28,1.2-.79,1.22-2.43.13-3.16-1.12-.75-2.41-.46-3.64-.43-.35,0-.35.35-.35.61,0,2,0,4.01,0,6.01,0,.35.09.6.52.6.44-.01.49-.29.49-.63,0-.49-.02-.98.01-1.47.02-.32-.17-.77.34-.88.42-.09.78.03,1.05.41.46.66.96,1.29,1.41,1.94.34.49.71.79,1.49.5-.59-.81-1.07-1.55-1.64-2.23h0ZM63.39,30.75c-1.26.1-.83-.8-.9-1.32,0-.77-.22-1.57.97-1.43.88.1,1.77.13,1.75,1.31-.02,1.17-.85,1.36-1.82,1.44h0Z"/>
      <path class="cls-1" d="M108.07,32.15c-.47-.56-.49-.82.19-1.29,1.35-.93,1.18-2.72-.24-3.36-1.02-.46-2.12-.23-3.18-.25-.34,0-.44.24-.44.54v6.17c0,.3.1.52.45.53.4.02.57-.16.57-.55,0-.49-.02-.99.01-1.47.02-.32-.19-.77.28-.93.48-.16.86.04,1.14.46.43.63.9,1.22,1.33,1.85.33.48.7.82,1.5.53-.57-.79-1.06-1.54-1.63-2.22h0ZM106.3,30.75c-1.33.09-.72-.9-.86-1.35-.02-.78-.2-1.52.92-1.4.89.09,1.8.11,1.79,1.3-.01,1.18-.87,1.38-1.85,1.45Z"/>
      <path class="cls-1" d="M171.94,32.08c-.43-.53-.46-.81.21-1.18.82-.46,1.09-1.28.85-2.2-.23-.9-.92-1.31-1.77-1.41-.75-.08-1.52-.04-2.28-.06-.45-.01-.63.19-.63.64.01,2.01,0,4.02,0,6.03,0,.36.11.6.54.58.45-.02.47-.32.47-.65,0-.49-.02-.99.01-1.47.02-.32-.17-.77.37-.86.37-.06.71,0,.96.34.47.65.96,1.29,1.42,1.96.35.51.74.91,1.51.55-.56-.77-1.08-1.55-1.67-2.27h0ZM170.3,30.75c-1.25.12-.92-.74-.95-1.31,0-.77-.23-1.58.99-1.45.9.1,1.79.16,1.74,1.36-.04,1.1-.84,1.31-1.77,1.4Z"/>
      <path class="cls-1" d="M193.33,27.17c-2.2-.01-3.62,1.46-3.59,3.75.02,2.19,1.46,3.64,3.6,3.62,2.14-.02,3.52-1.46,3.51-3.7,0-2.24-1.37-3.67-3.52-3.68h0ZM193.27,33.7c-1.61-.01-2.59-1.15-2.55-2.95.05-1.74,1.02-2.76,2.61-2.74,1.56.02,2.56,1.11,2.57,2.81.01,1.76-1.03,2.9-2.63,2.88h0Z"/>
      <path class="cls-1" d="M122.52,27.17c-2.22-.06-3.7,1.38-3.72,3.63-.02,2.22,1.37,3.71,3.49,3.74,2.15.04,3.6-1.39,3.64-3.57.04-2.25-1.29-3.74-3.4-3.8h0ZM122.33,33.7c-1.58-.02-2.64-1.21-2.58-2.94.05-1.7,1.07-2.76,2.64-2.75,1.61.01,2.62,1.17,2.56,2.94-.05,1.71-1.06,2.77-2.62,2.75h0Z"/>
      <path class="cls-1" d="M199.24,29.32c0,1.42.01,2.84-.01,4.26,0,.34.21.92-.46.88-.54-.03-.37-.53-.37-.85-.02-1.69-.02-3.39,0-5.09,0-.41-.27-1,.22-1.21.67-.28.89.42,1.2.81.97,1.22,1.91,2.47,2.87,3.71.18.23.39.44.77.86,0-1.74,0-3.2,0-4.65,0-.32-.16-.8.42-.8.57,0,.41.49.41.8.01,1.87.01,3.75,0,5.62,0,.28.15.67-.29.78-.36.09-.57-.19-.76-.44-1.25-1.61-2.49-3.23-3.74-4.84-.09.05-.18.09-.27.13h0Z"/>
      <path class="cls-1" d="M279.43,32.47c0-1.49-.01-2.94,0-4.39,0-.31-.17-.79.4-.81.59-.02.43.46.43.78.01,1.83.02,3.66,0,5.49,0,.31.22.78-.25.92-.48.15-.69-.29-.93-.6-1.09-1.41-2.18-2.83-3.27-4.24-.1-.14-.24-.25-.59-.63,0,1.62.03,2.96-.02,4.31-.02.4.37,1.15-.43,1.14-.66,0-.37-.7-.38-1.08-.03-1.69-.03-3.39,0-5.09,0-.35-.25-.86.32-1,.49-.12.68.34.92.64.96,1.23,1.89,2.48,2.86,3.71.23.3.36.72.95.84h0Z"/>
      <path class="cls-1" d="M166.67,32.51c.37,1.36-.48,1.76-1.54,1.97-3.11.61-5.36-1.69-4.63-4.72.55-2.27,3.52-3.44,5.53-2.17.24.15.64.28.45.69-.24.51-.57.2-.89.06-1.19-.51-2.39-.6-3.38.34-.97.92-1.07,2.12-.64,3.35.52,1.48,2.37,2.19,3.78,1.53.54-.25.49-.66.51-1.11.03-.52-.19-.73-.7-.71-.33.02-.67-.05-.59-.5.07-.37.42-.22.67-.26,1.23-.2,1.79.24,1.43,1.51h0Z"/>
      <path class="cls-1" d="M262.06,31.37c.36-.25.72-.44,1-.71.87-.83.83-2.27-.11-2.93-1.11-.79-2.4-.47-3.63-.47-.27,0-.32.27-.32.49,0,2.09,0,4.19,0,6.28,0,.32.19.46.52.44.28-.02.37-.21.38-.45.01-.53,0-1.07.02-1.6.01-.33-.15-.78.32-.91.46-.13.86.02,1.15.44.45.66.95,1.29,1.4,1.95.31.44.66.72,1.43.45-.75-1.03-1.45-2-2.16-2.99h0ZM260.82,30.76c-1.15.08-.88-.7-.9-1.21,0-.84-.26-1.71,1.04-1.57.92.1,1.81.22,1.76,1.35-.05,1.12-.92,1.36-1.91,1.42Z"/>
      <path class="cls-1" d="M103.21,34.18l-.1-.25c-.82-2.06-1.65-4.13-2.47-6.19-.13-.33-.32-.5-.68-.51-.43-.01-.62.2-.76.58-.79,2.03-1.62,4.04-2.43,6.06-.07.18-.28.42,0,.57.24.12.55.11.73-.13.18-.25.34-.54.4-.83.19-.81.7-.99,1.47-.97,1.24.01,2.55-.24,2.81,1.55.05.35.37.48.72.43.19-.02.35-.06.3-.31h0ZM99.41,29.61c.15-.37.32-.73.55-1.28.46,1.22.86,2.28,1.27,3.36-1.85.21-2.46-.48-1.83-2.08Z"/>
      <path class="cls-1" d="M268.09,8.72c-.32,2.19-2.55,3.59-5.03,3.16,2.52-.92,3.2-1.8,2.94-3.8-.21-1.59-1.04-2.2-3.19-2.32-.64.3-.5.89-.51,1.4-.01,2.46.02,4.91-.02,7.37-.02,1.31.26,2.32,1.76,2.68h-5.67c2.27-.45,1.85-2.26,1.86-3.84.01-1.83.01-3.66,0-5.49,0-.75,0-1.53-.63-2.12-.42-.11-.85-.23-1.26-.34.04-.52.37-.34.59-.31,1.79.26,3.58-.19,5.36.03,2.62.32,4.08,1.71,3.8,3.59h0Z"/>
      <path class="cls-1" d="M219.87,33.61c-.73-1.92-1.5-3.82-2.27-5.72-.13-.33-.24-.66-.72-.66-.43,0-.64.2-.79.57-.87,2.19-1.74,4.37-2.62,6.56.69.33,1.07.03,1.18-.52.24-1.16.96-1.34,2.03-1.35,1.19-.01,2.11.09,2.35,1.49.07.41.41.64.8.5.61-.22.12-.6.02-.86h0ZM216.92,31.83c-1.47-.08-1.48-.02-.93-1.41.24-.61.48-1.23.84-2.14.37.96.59,1.68.92,2.34.5.98.28,1.28-.83,1.22Z"/>
      <path class="cls-1" d="M252.95,30.83v-.27c0-2.5,1.28-3.61,3.85-3.34.3.03.68-.06.64.44-.03.36-.33.36-.6.37-.49,0-.98,0-1.47,0-1.29,0-1.82.79-1.38,2.02.12.33.33.38.61.38.36,0,.72-.04,1.07.02.39.06,1.08-.28,1.08.37,0,.64-.7.3-1.08.42-.62.19-1.69-.6-1.72.91-.03,1.17.22,1.77,1.51,1.55.44-.07.89-.02,1.34,0,.3,0,.68-.05.65.44-.03.48-.43.34-.71.37-.04,0-.09,0-.13,0-2.43.12-3.64-1.11-3.64-3.68h0Z"/>
      <path class="cls-1" d="M180.49,33.86c-.81-2.03-1.63-4.06-2.44-6.09-.13-.32-.28-.53-.66-.55-.42-.01-.64.18-.79.56-.86,2.19-1.75,4.37-2.62,6.56.8.38,1.11-.09,1.23-.64.23-1.06.88-1.23,1.85-1.22,1.17.02,2.25-.05,2.49,1.47.06.41.39.6.8.51.45-.1.22-.39.13-.62ZM177.45,31.82c-1.5-.05-1.5,0-.95-1.41.24-.62.48-1.25.83-2.13.37.96.6,1.68.93,2.35.47.95.23,1.22-.81,1.18Z"/>
      <path class="cls-1" d="M234.08,30.89c0-.18-.01-.36,0-.53.08-1.01-.47-2.48.23-2.92,1.02-.64,2.5-.16,3.79-.2.22,0,.46.04.48.34.02.36-.23.45-.52.45-.63,0-1.25.06-1.87,0-.91-.1-1.08.3-1.12,1.14-.06,1.1.34,1.4,1.37,1.32.46-.04,1.35-.31,1.36.29.02.89-.91.46-1.37.44-1.02-.05-1.37.22-1.38,1.32,0,1.1.45,1.27,1.35,1.18.57-.05,1.16,0,1.74,0,.24,0,.44.11.44.38,0,.28-.19.39-.43.39-1.2,0-2.41.02-3.61,0-.55,0-.45-.45-.45-.79-.01-.94,0-1.87,0-2.81h0Z"/>
      <path class="cls-1" d="M55.51,30.83v-.27c0-2.51,1.27-3.62,3.82-3.34.29.03.7-.06.66.43-.03.35-.33.37-.6.37-.49,0-.98,0-1.47,0-1.28,0-1.82.84-1.36,2.04.16.41.45.36.75.37.54.01,1.07,0,1.61.02.19,0,.35.06.37.29.02.26-.09.44-.35.46-.31.03-.63.02-.94.02-1.43.01-1.79.53-1.47,1.96.12.5.42.49.78.49.67,0,1.34,0,2.01,0,.3,0,.7-.04.67.42-.02.46-.42.38-.72.38-1.03.01-2.06-.01-3.08,0-.53.01-.7-.23-.69-.73.02-.98,0-1.97,0-2.95h0Z"/>
      <path class="cls-1" d="M289.12,30.82v-.27c0-2.48,1.27-3.59,3.82-3.33.29.03.7-.07.68.41-.02.44-.41.38-.71.39-.53.01-1.08.06-1.61,0-.97-.12-1.16.3-1.19,1.2-.03,1.03.31,1.39,1.29,1.23.13-.02.27-.03.4,0,.38.1,1.07-.29,1.07.38,0,.66-.69.31-1.07.41-.64.17-1.65-.53-1.69.95-.03,1.23.31,1.61,1.55,1.55.62-.03,1.82-.57,1.85.44.02.65-1.2.3-1.86.31-2.53.05-2.53.02-2.53-2.46v-1.2h0Z"/>
      <path class="cls-1" d="M249.36,27.24c-1.74-.16-2.62.51-2.62,1.99v1.61c0,1.03,0,2.05,0,3.08,0,.28.05.56.41.56.16,0,.44-.05.47-.13.09-.28.16-.61.12-.9-.17-1.17.09-1.78,1.49-1.72,1.12.05,2.1-.5,2.32-1.79.27-1.54-.57-2.55-2.2-2.69ZM248.68,30.99c-1.72-.05-.71-1.34-.9-2.05-.25-.91.39-1,1.03-.92,1.1-.03,1.86.38,1.83,1.49-.04,1.18-.9,1.51-1.95,1.48Z"/>
      <path class="cls-1" d="M81.12,29.19c-.47-1.43-1.29-2.09-2.61-2.01-1.4.09-2.01,1.03-2.3,2.23-.21.87-.21,1.76-.05,2.65.27,1.51,1.12,2.41,2.38,2.48,1.34.08,2.3-.74,2.66-2.31.1-.43.1-.88.13-1.11-.02-.79-.03-1.36-.21-1.93ZM78.71,33.77c-1.11.01-1.72-.99-1.7-2.87,0-.53.07-1.07.18-1.58.18-.82.65-1.42,1.55-1.39.89.03,1.31.67,1.49,1.48.1.48.15.97.19,1.21-.02,2.1-.63,3.14-1.71,3.16Z"/>
      <path class="cls-1" d="M245.51,34.36c-.74.31-1.1.02-1.44-.48-.55-.78-.88-2.21-1.68-2.19-.76.02-1.14,1.43-1.71,2.22-.31.44-.63.75-1.34.44.63-.94,1.19-1.88,1.85-2.76.45-.6.46-1.06,0-1.65-.62-.81-1.15-1.68-1.84-2.7,2.03.04,1.94,2.01,3.07,2.75,1.14-.62,1.09-2.58,3.11-2.84-.75,1.1-1.29,1.98-1.92,2.79-.42.55-.44.97-.02,1.53.67.92,1.26,1.9,1.91,2.88h0Z"/>
      <path class="cls-1" d="M47.69,27.39c.89-.42,1.09.15,1.31.71.64,1.61,1.28,3.21,2.02,5.06.71-1.77,1.34-3.34,1.98-4.9.13-.32.28-.66.5-.92.1-.12.43-.12.62-.06.34.1.13.36.06.53-.83,2.07-1.67,4.13-2.51,6.18-.12.31-.3.52-.69.5-.39-.02-.51-.27-.63-.58-.88-2.18-1.78-4.35-2.67-6.53h0Z"/>
      <path class="cls-1" d="M113,27.17c.09,0,.27,0,.44.04.53.13,1.39.16,1.22.86-.19.79-.78.02-1.2-.03-.73-.08-1.51-.23-1.82.66-.32.93.38,1.25,1.1,1.5.13.04.25.09.38.13.9.32,1.82.67,1.89,1.81.06.91-.3,1.68-1.15,2.1-1.04.52-2.08.4-3.05-.21-.25-.16-.59-.33-.29-.73.21-.28.47-.22.7-.04.57.44,1.21.56,1.9.4.52-.12.85-.46.93-1.01.08-.56-.15-.96-.66-1.18-.41-.17-.83-.32-1.25-.46-1.04-.36-1.73-1.03-1.5-2.19.23-1.18,1.09-1.67,2.35-1.65h0Z"/>
      <path class="cls-1" d="M72.3,30.75c.19-.41.56-.34.84-.45.57-.22.89-.59.87-1.2-.01-.48-.22-.86-.7-1.04-.54-.2-1.07-.16-1.51.22-.19.17-.31.42-.45.65-.16.26-.37.4-.66.24-.25-.13-.2-.38-.12-.59.32-.82.92-1.3,1.8-1.38.93-.09,1.83.01,2.31.95.37.73.37,1.51-.31,2.07-.43.36-.44.48.02.82.8.59.86,1.43.45,2.27-.49,1.02-1.42,1.28-2.47,1.23-.93-.04-1.61-.48-1.99-1.33-.09-.2-.2-.42.06-.58.21-.13.44-.1.61.07.21.23.35.53.58.73.53.46,1.17.44,1.76.17.54-.24.76-.73.73-1.32-.03-.71-.5-.98-1.11-1.14-.24-.06-.55-.02-.71-.4h0Z"/>
      <path class="cls-1" d="M281.82,30.87c0-2.89,2.79-4.69,5.19-3.34.28.16.77.27.55.75-.23.52-.57.17-.89.04-1.47-.58-2.66-.33-3.37.69-.71,1.03-.67,2.81.1,3.79.76.97,2.03,1.19,3.4.54.32-.15.64-.5.88-.01.22.46-.29.61-.56.75-1.18.64-2.42.67-3.59.04-1.27-.68-1.72-1.87-1.71-3.26Z"/>
      <path class="cls-1" d="M127.47,30.82v-.27c0-2.49,1.27-3.6,3.82-3.32.29.03.7-.06.66.42-.04.44-.42.37-.73.38-.4.01-.8,0-1.2,0-1.5,0-1.9.54-1.53,2.01.21.85.87.35,1.32.49.54.16,1.56-.34,1.55.43-.02.74-1.04.37-1.58.33-1.1-.08-1.35.35-1.34,1.37,0,.59.56,1.74-.47,1.74-1.05,0-.35-1.12-.48-1.72-.12-.6-.03-1.24-.03-1.87h0Z"/>
      <path class="cls-1" d="M90.23,27.48c-.34.57-.67,1.15-1.04,1.7-.92,1.39-1.8,2.77-1.47,4.56.06.33.08.75-.48.75-.43,0-.57-.28-.5-.61.46-2.29-1.04-3.86-2.03-5.62-.15-.27-.32-.53-.49-.81.53-.1,1.53.95,2.98,3.15,1.14-.95,1.15-2.9,2.72-3.44l.3.32h0Z"/>
      <path class="cls-1" d="M108.17,10.9s0,0-.01,0c0,0,0-.01,0-.02,0,0,0,.01.01.02h0Z"/>
      <path class="cls-1" d="M182.71,31.2c0-.45-.04-.9,0-1.34.15-1.24-.03-2.14-1.62-1.83-.27.05-.69.1-.72-.36-.04-.6.45-.44.76-.44,1.34-.02,2.68-.02,4.02,0,.31,0,.81-.19.84.37.03.56-.48.49-.78.43-1.54-.31-1.65.55-1.58,1.74.08,1.29.03,2.59,0,3.88,0,.32.15.79-.41.82-.66.03-.5-.49-.51-.86-.02-.8,0-1.61,0-2.41h0Z"/>
      <path class="cls-1" d="M209.95,30.46v.4c.01.85-.26,1.86.12,2.5.45.77,1.55.17,2.36.32.3.05.69-.04.66.44-.02.47-.42.36-.71.38-2.24.21-3.36-.79-3.36-3.01,0-1.16,0-2.32,0-3.48,0-.34-.07-.78.49-.76.57.02.42.47.43.79.02.8,0,1.61,0,2.41h0Z"/>
      <path class="cls-1" d="M158.87,30.85v2.93c0,.37-.01.73-.54.71-.54-.02-.49-.41-.49-.75,0-1.91,0-3.82,0-5.73,0-.34-.07-.75.47-.78.63-.03.56.42.57.82,0,.93,0,1.87,0,2.8h0Z"/>
      <path class="cls-1" d="M188.19,30.88c0,.98,0,1.95,0,2.93,0,.29.08.66-.4.69-.47.03-.62-.23-.61-.65,0-2,0-4,0-5.99,0-.34.08-.6.5-.62.56-.02.51.37.51.72,0,.98,0,1.95,0,2.93h0Z"/>
      <path class="cls-1" d="M135.81,30.87c0-.98,0-1.96,0-2.94,0-.3-.06-.65.42-.68.5-.03.59.27.59.67,0,1.96,0,3.92,0,5.88,0,.4-.07.71-.58.68-.47-.02-.42-.37-.43-.68,0-.98,0-1.96,0-2.94h0Z"/>
      <path class="cls-1" d="M265.47,30.85c0-.98,0-1.96,0-2.94,0-.31-.03-.65.44-.67.45-.01.48.3.48.63v6.01c0,.34-.07.63-.51.6-.46-.04-.4-.4-.4-.69-.01-.98,0-1.96,0-2.94h0Z"/>
      <path class="cls-1" d="M17.67.7s-.01-.01-.02-.02h0s0,.01,0,.02h0Z"/>
      <path class="cls-1" d="M18.5,1.88s-.02.03-.03.05v-.04s.02,0,.03,0Z"/>
      <path class="cls-1" d="M18.5,1.88s-.02.03-.03.05v-.04s.02,0,.03,0Z"/>
      <path class="cls-1" d="M272.77,34.05c.03.73-.65.42-1.02.43-2.23.06-3.34-1.03-3.34-3.27,0-1.07,0-2.14,0-3.21,0-.44.03-.79.63-.77,1.07.03,2.15,0,3.22.01.27,0,.58,0,.55.4-.03.35-.31.39-.59.39-.49,0-.98,0-1.47,0-1.32,0-1.8.75-1.4,2.03.14.44.43.38.73.39.62.03,1.25.04,1.87.06.46.48.3.7-.31.74-.78.05-1.57-.12-2.34.14.12,2.25.12,2.24,2.5,2.32.35.01.96-.22.99.35h0Z"/>
      <path class="cls-1" d="M174.24,17.14c-3.17,1.06-6.34,1.04-9.36-.54-4.71-2.48-5.79-8.02-2.41-12.15.39-.64.88-1.18,1.54-1.55.23-.26.45-.52.81-.6,3.25-2.23,6.64-1.93,10.1-.56.63.25.67.77.77,1.29.15.78.24,1.57.04,2.83-.9-2.3-2.2-3.71-4.3-4.19-2.05-.47-3.99-.23-5.82.84-1.1.37-1.45,1.37-1.91,2.27-1.67,3.28-.95,7.87,1.64,10.3,1.62,1.53,3.58,2.22,5.78,1.88,2.33-.37,4.06-1.57,4.58-4.14.81,1.69.1,3.81-1.45,4.32Z"/>
      <path class="cls-1" d="M249.64,19.67c-.5.41-1.07.49-1.94.43.6-.52,1.17-.46,1.64-.65.82-.85.73-1.54-.36-2.08-.51-.26-.94-.64-.49-1.25.42-.58,1-.49,1.54-.16,1.33.81,1.13,2.59-.4,3.71h0Z"/>
      <path class="cls-1" d="M95.88,34.08c.03.64-.58.4-.92.41-2.33.09-3.49-1.04-3.49-3.4,0-1.03.02-2.06,0-3.09-.02-.57.17-.81.76-.78.99.03,1.97,0,2.95.01.28,0,.7-.12.73.35.02.44-.35.44-.67.44-.49,0-.99.06-1.47-.01-1.17-.17-1.43.35-1.39,1.43.03.86.36,1.02,1.13,1.04.57.02,1.39-.47,1.7.52-.89.59-1.95-.04-2.85.41.16,2.22.16,2.21,2.56,2.29.36.01.95-.22.98.37h0Z"/>
      <path class="cls-1" d="M245.73,16.83c-.07.35-.28.54-.65.54h-10.62c2.95-3.87,5.69-7.47,8.44-11.06-.96-.64-2.04-.2-3.06-.29-.75-.07-1.51,0-2.26,0-.52.19-1.17.16-1.41.84-.09.28-.06.71-.43.71-.37,0-.23-.39-.24-.63-.12-1.93-.06-2.15,1.64-1.82.17.01.35.04.52.1h5.74c.67-.27,1.39-.19,2.08-.2.48-.01.51.25.18.56-2.61,3.54-5.22,7.07-8.02,10.87,2.35-.06,4.42.11,6.49-.21,1.01-.15,1.22-1.03,1.67-2.11.27,1.14.1,1.92-.07,2.71h0Z"/>
      <path class="cls-1" d="M6.07,11.76s-.01.05-.01.07c-.02,0-.04.02-.06.02.02-.03.04-.06.07-.09Z"/>
      <path class="cls-1" d="M6.07,11.76s-.01.05-.01.07c-.02,0-.04.02-.06.02.02-.03.04-.06.07-.09Z"/>
      <path class="cls-1" d="M18.33,34.92s-.01.08-.02.11c-.04,0-.08.02-.12.02.05-.05.1-.09.15-.14Z"/>
      <path class="cls-1" d="M19.55,34.8s-.06.01-.09.02c0-.02.01-.05.02-.07.02.02.05.03.08.05Z"/>
      <path class="cls-1" d="M16.28,6.33c-1.17.76-.91-.26-1.02-.83-.4-.07-.77-.19-.8-.88.61.42,1.42.42,1.29,1.41.09.26.31.27.53.3Z"/>
      <path class="cls-1" d="M16.3,6.32s.01,0,.02,0c0,0,0,.01-.01.02-.01,0-.02,0-.03,0,0,0,.01,0,.02-.01Z"/>
      <path class="cls-1" d="M17.32,5.95c-.23.55-.66.31-1,.37.21-.42.5-.63,1-.37Z"/>
      <path class="cls-1" d="M88.42,17.28h-6.09c3.06-1.06,1.89-3.35,2.12-5.17.08-.57-.35-.63-.79-.63-1.74,0-3.49.01-5.23,0-.58,0-.81.23-.79.79.02.63-.03,1.25.01,1.88.09,1.26-.15,2.7,1.64,3.13h-5.66c.01-.08.02-.22.04-.23,1.7-.25,2.06-1.35,1.99-2.89-.09-1.96-.01-3.93-.02-5.89,0-2.23-.04-2.27-2.06-3.06,1.92.01,3.84.04,5.81-.05-.99.47-1.76,1.01-1.7,2.23.05.98-.05,1.96-.03,2.94,0,.49.42.49.79.49,1.74,0,3.49-.01,5.23,0,.58,0,.8-.23.78-.8-.03-.67,0-1.34,0-2.01,0-1.28-.2-2.43-1.82-2.8,1.98-.01,3.91.05,5.81-.2.07.48-.18.49-.39.51-1.19.1-1.6.87-1.6,1.92-.02,2.5-.02,5,0,7.5.01,1.28.57,2.15,1.96,2.33h0Z"/>
      <path class="cls-1" d="M67.71,16.62c-.44-.99-1.44-1.55-2.01-2.44-.75-.86-1.5-1.72-2.25-2.59-.15.11-.3.22-.45.33.49,1.76-1.12,4.1,1.9,5.33h-5.94c2.48-.31,1.98-2.2,2-3.79.02-1.65,0-3.31,0-4.96,0-1.6-.79-2.7-2.36-3.3h6c-1.23.49-1.71,1.4-1.56,2.67.13,1.11-.35,2.28.28,3.35,1.5-1.64,2.99-3.27,4.49-4.91.27-.73-.29-.71-.73-.81-.29-.12-.27-.44-.06-.43,1.36.04,2.73-.32,4.07.19-.33.47-.89.34-1.34.51-1.6.85-2.55,2.44-3.92,3.54-1.04.84-1.34,1.48-.05,2.42,1.04.75,1.86,1.8,2.79,2.7,1.21,1.18,2.4,2.4,4.18,2.82h-6.02c.19-.47.73-.3.99-.63h0Z"/>
      <path class="cls-1" d="M6.07,11.76s-.01.05-.01.07c-.02,0-.04.02-.06.02.02-.03.04-.06.07-.09Z"/>
      <path class="cls-1" d="M232.5,16.05c0,.7,0,1.35-1.02,1.34-2.81-.03-5.62-.01-8.43-.01,0-.16,0-.3,0-.3,1.82-.24,2.04-1.48,1.98-3.01-.08-2.09-.02-4.19-.02-6.3,0-.72-.03-1.44-.6-1.98-.49-.19-1.08-.11-1.69-.68.78-.11,1.42-.11,2.02-.01,0,0,.01,0,.02,0,.18.01.36.07.54.12h5.2c.56-.13,1.13-.47,1.68.03,0,.09,0,.18,0,.27-.03.54.29,1.13-.24,1.59-.41-.41-.78-.86-1.34-1.07-1.16.05-2.32-.19-3.47.08,0,1.48,0,2.97,0,4.45.89.02,1.78.04,2.67.06.13-.04.25-.08.38-.11.31-.08.48-.66.86-.37.3.22.14.66.12.99-.02.36.16.78-.26,1.15-.28-.3-.56-.6-.84-.89-.98,0-1.97.01-2.95.02,0,.89-.02,1.77-.01,2.66.02,2.48.02,2.48,2.55,2.4.97-.03,1.98-.01,2.57-1.03,0-.26.07-.66.34-.49.44.28.16.73-.05,1.09h0Z"/>
      <path class="cls-1" d="M27.29,21.87c-.03.08-.06.16-.11.23-.02-.02-.03-.04-.05-.06h0c.05-.06.1-.11.16-.16Z"/>
      <path class="cls-1" d="M18.33,34.92s-.01.08-.02.11c-.04,0-.08.02-.12.02.05-.05.1-.09.15-.14Z"/>
      <path class="cls-1" d="M19.55,34.8s-.06.01-.09.02c0-.02.01-.05.02-.07.02.02.05.03.08.05Z"/>
      <path class="cls-1" d="M17.67.7s-.01-.01-.02-.02h0s0,.02,0,.02Z"/>
      <path class="cls-1" d="M27.29,21.87c-.03.08-.06.16-.11.23-.02-.02-.03-.04-.05-.06h0c.05-.06.1-.11.16-.16Z"/>
      <path class="cls-1" d="M14.38.48c.2-.5.75-.26,1.17-.26.31-.02.76-.27.84.19.06.35-.19.66-.7.39-.16-.09-.47.1-.71.16-.3-.04-.75-.1-.6-.47Z"/>
      <path class="cls-1" d="M35.29,17.28c-.15-3.8-1.32-7.25-3.64-10.3-2.1-2.76-4.84-4.65-8.06-5.86-.32-.12-.84-.18-.93.24-.27,1.36-.88.67-1.48.32-.72-.41-1.45-.79-2.18-1.18-.5-.57-1.06-.66-1.7-.25-.43.21-.05.36.03.54h0s0,.02,0,.02c-.84.34-1.48,1.09-2.5,1.04-.35-.01-.91.19-.91.62,0,.61.64.41,1.01.57.35.16.81.05,1.08.42,0,.22,0,.53.28.51.49-.05.14-.5.28-.74.26-.07.5-.13.44-.5-.19-1.13.44-.96,1.13-.7v-.04s.02,0,.03,0c0,.02-.02.03-.03.05.41.3.78.8,1.31.17.49.93,1.82.83,2.26,1.83-.58.13-1.06.58-1.69.53h-1.11c.52.26.81.4,1.09.54,0,.17.02.35.02.52-.1.06-.2.12-.29.18-.45.19-.81.49-1.2.78-.92.67-1.2,1.84-1.92,2.47-.99.86-1.87,1.43-1.19,2.87.1.2.12.59-.23.66-.31.06-.39-.27-.54-.49-.26-.4.01-1.01-.55-1.28-1.91-.95-4.57.33-4.97,2.4-.15.76,0,1.51.68,1.87.65.34,1.27.09,1.61-.68.19-.42.65-.51,1.04-.32.51.26.03.62-.02.92-.06.44-.27.86-.46,1.43,1.53-.26,2.28.12,1.83,1.65-.06.2.03.44.05.66.3.2.5.59.95.52.6-.4,1.1-.35,1.47.31.8-.19.75-1.53,1.83-1.33.46-.61.56.05.8.23.08-.1.22-.29.23-.28,1.52.92,3.68.03,4.92,1.76.24.34.69.45,1.08.42,1.19-.08,1.67.57,1.81,1.62-.03.08-.06.16-.11.23-.02-.02-.03-.04-.05-.06h0c-.13.13-.26.26-.38.39,0,0-.01.01-.02.02-.2.13-.42.26-.37.56.01.05.18.11.19.1.09-.12.16-.26.24-.39.33-.5.93.46,1.26-.04.03-.05.07-.12.1-.22.75-.01,1.44.27,2.19.35,1.12.12,1.4,1.02.75,1.96-.58.84-1.15,1.66-1.51,2.65-.35.95-.99,1.76-2.04,2.19-.69.28-1.21.81-1.71,1.42-1.02,1.24-2.54,1.84-3.96,2.53-.79.38-1.7.55-2.32,1.25-.03,0-.06.01-.09.02-.38.07-.76.14-1.14.21-.04,0-.08.02-.12.02-.46-.65.08-1.21.21-1.79.15-.68.5-1.31.71-1.98.49-1.59.32-1.96-1.18-2.66-.42-.19-.71-.43-.93-.87-.33-.67-.76-1.29-1.2-1.9-.87-1.21-.9-2.62.13-3.67.76-.77.74-1.51.34-2.38-.23-.15-.39-.46-.75-.3-.49.44-.97.29-1.67-.54-.32-.21-.56-.46-.81-.77-.85-1.06-2.06-1.81-3.31-2.12-1.62-.4-2.68-1.23-2.77-2.88-.01-.27-.03-.54-.3-.7-.11-.35-.22-.7-.33-1.05-.08-.52-.16-1.04-.23-1.57-.06,0-.12,0-.17,0-.05.66-.11,1.32-.16,1.98h0c.1-.02.2-.05.3-.08,0,.02-.01.05-.01.07-.02.17.06.37.06.54,0,.15-.06.27-.27.37,0-.28-.31-.51-.17-.82-.6-2.76-.37-5.3,1.93-7.28.32-.27.34-.6.44-.93.28-.2.73-.53.51-.77-.37-.39-.64.13-.9.38C1.77,7.64-.65,13.2.15,20.12c1,8.61,9.18,15.64,17.71,15.26.57.03,1.15.17,1.68-.19,1.64-.02,3.16-.53,4.66-1.11,6.75-2.62,11.37-9.6,11.09-16.79ZM15.72,14.22c-.27-.11-.53-.23-.8-.34-.32-.17-.69.17-1.07-.16.37-.43.7-.4,1.07-.05.4-.01.81-.1,1.15.23.46.22.91.44,1.51.73-.86.37-1.36-.02-1.86-.41ZM17.75,15.53c.31-.61,1.11-.65,2.4-.11-1.03.17-1.7.28-2.4.11Z"/>
      <path class="cls-1" d="M130.97,17.08c-1.95-1.18-3.15-2.98-4.17-4.95-.33-.64-.25-.97.39-1.37,1.13-.71,1.82-1.76,1.57-3.16-.27-1.5-1.44-2.07-2.77-2.35-1.95-.42-3.91-.3-5.87-.09-.53.06-1.15-.1-1.66.4,1.99.47,2.07.56,2.08,2.69.01,2.23,0,4.47,0,6.7,0,.99-.28,1.76-1.41,1.94-.2.03-.45.09-.37.38h5.65c-1.91-.32-1.82-1.74-1.81-3.11,0-.27-.05-.55.01-.8.12-.48-.41-1.28.56-1.35.8-.06,1.53-.22,1.98.93,1.03,2.59,2.87,4.39,5.83,4.65.33,0,.73.34,1.02-.24-.36-.09-.68-.17-1.02-.26h0ZM124.53,11.19c-1.28,0-1.92-.65-1.92-1.97,0-1.06.01-2.11.02-3.17,1.66-.71,3.5-.06,3.98,1.39.61,1.85-.13,3.19-2.07,3.75Z"/>
      <path class="cls-1" d="M108.17,10.9s0,0-.01,0c0,0,0-.01,0-.02,0,0,0,.01.01.02h0Z"/>
    </g>
  </g>
</svg>