<?xml version="1.0" encoding="UTF-8"?>
<svg id="Layer_2" data-name="Layer 2" xmlns="http://www.w3.org/2000/svg" viewBox="0 0 170.59 102.71">
  <defs>
    <style>
      .cls-1 {
        fill: #f6f9fd;
        fill-rule: evenodd;
      }
    </style>
  </defs>
  <g id="Layer_1-2" data-name="Layer 1">
    <g>
      <path class="cls-1" d="M169.77,4c-4.99-8.51-31.25-2.96-63.99,12.02,1.67,1.3,3.33,2.77,4.62,4.25,25.15-10.73,44.57-14.05,48.64-7.03,4.62,7.95-13.69,27.74-43.09,47.34l.37.37c35.88-23.3,58.99-47.34,53.45-56.96h0Z"/>
      <path class="cls-1" d="M14.79,96.47c-2.77-4.99,3.14-14.43,14.98-25.71h0c-.92-.19-1.85-.56-2.77-.93-.18,0-.18-.19-.18-.19-.92-.37-1.85-.74-2.77-1.11-14.24,13.13-21.45,24.23-18.12,30.14,4.07,6.84,21.64,4.62,45.12-4.07l-.18-.37c-18.86,6.47-32.73,7.77-36.06,2.22h0Z"/>
      <path class="cls-1" d="M0,38.95C0,18.8,26.63,2.34,59.36,2.34s59.55,16.46,59.55,36.62-26.63,36.8-59.55,36.8c-32.73,0-59.36-16.46-59.36-36.8h0ZM33.66,10.47l11.28,38.28h0L56.77,5.48c-8.32.37-16.27,2.03-23.12,4.99h0ZM56.22,26.38l-6.1,22.38h12.39l-6.29-22.38h0ZM73.79,48.76l10.73-38.65c-7.03-2.77-14.98-4.44-23.3-4.62l12.58,43.28h0ZM33.47,48.76l-6.1-22.38-6.1,22.38h12.21ZM103.93,53.19c2.96-4.25,4.62-9.06,4.62-14.24,0-9.8-6.1-18.49-16.09-24.78l11.47,39.02h0ZM91.36,48.76l-6.29-22.38-6.1,22.38h12.39ZM92.65,53.19h-14.98l-1.29,4.81,3.51,11.46c5.73-1.66,10.91-4.25,15.16-7.4l-2.4-8.88h0ZM39.21,69.47l-4.44-16.27h-14.79l-1.3,4.62c5.18,5.18,12.21,9.25,20.53,11.84v-.19h0ZM63.8,53.19h-14.98l-4.81,17.75c4.81,1.11,9.99,1.66,15.35,1.66,3.33,0,6.47-.18,9.62-.74l-5.18-18.68h0ZM25.34,14.91c-9.25,6.1-14.98,14.61-14.98,24.04,0,5.18,1.66,9.8,4.44,14.05L25.34,14.91h0Z"/>
    </g>
  </g>
</svg>