<?xml version="1.0" encoding="UTF-8"?>
<svg id="Layer_2" data-name="Layer 2" xmlns="http://www.w3.org/2000/svg" viewBox="0 0 198.13 62.35">
  <defs>
    <style>
      .cls-1 {
        fill: #f6f9fd;
      }
    </style>
  </defs>
  <g id="Layer_1-2" data-name="Layer 1">
    <g>
      <g>
        <path class="cls-1" d="M23.24,22.38h.49c3.06-.06,11.59-.18,14.89-.18.49,0,.86.18.86.49,0,1.1-4.35,1.23-17.65,2.21-5.34,8.46-13.67,19.43-17.04,19.43-1.84,0-4.78-3.12-4.78-4.29,0-.3.18-.49.43-.49.37,0,1.78.98,2.88.98,2.21,0,9.38-6.13,14.83-14.16l.92-1.29c-1.9.06-3.8.18-5.64.18-2.45,0-6.01-.06-6.01-4.78,0-.37.12-.49.24-.49.24,0,1.66,2.21,13.18,2.21,3.37-5.27,7.79-11.77,10.67-16.98-1.41-2.82-5.88-4.11-6.44-4.11-.37,0-.43-.24-.43-.37,0-.49.61-.73,1.78-.73,1.66,0,6.19.49,7.72,1.41,3.49,2.09,12.26,25.81,18.82,33.29.3,0,1.04,0,1.04.43,0,.8-2.82,2.27-4.35,2.27s-2.21-1.78-6.8-11.34c-3.98-8.34-7.11-13.67-10.48-19.62l-9.13,15.94h0Z"/>
        <path class="cls-1" d="M55.22,21.28c3.43,0,10.61,1.23,10.61,5.94,0,.98-.18,1.47-.61,1.47-.67,0-3.8-4.72-14.89-4.72-9.5,0-14.77,5.77-14.77,9.32,0,2.82,3.68,3.98,14.47,5.03,9.38.92,17.29,1.9,17.29,6.99,0,9.75-17.47,17.04-28.75,17.04-6.25,0-12.75-1.9-12.75-7.11,0-.3.12-.43.3-.43.3,0,.49.37.67.67,1.9,3.12,12.32,3.43,14.47,3.43,5.94,0,20.78-1.1,20.78-10.79,0-5.21-7.91-5.83-15.2-6.37-8.58-.67-16.55-1.35-16.55-6.62,0-6.93,13.73-13.86,24.95-13.86h0Z"/>
      </g>
      <g>
        <path class="cls-1" d="M86.04,39.06v.1c0,.08-.35.23-.43.23-.05,0-.28-.2-.45-.3-.73-.4-2.01-.83-3.19-.83-1.08,0-3.34.4-3.34,2.69,0,1.61,1.13,2.11,3.67,3.19,1.96.83,4.47,1.91,4.47,4.65,0,2.21-1.73,4.65-6,4.65-1.21,0-2.91-.25-3.82-.48-.23-.05-.65-.17-.7-.43l-.23-1.41c-.03-.15,0-.17.03-.2.05-.05.33-.17.37-.17.17,0,.37.17.53.25.96.53,2.56,1.03,4.15,1.03s3.7-.78,3.7-2.81c0-1.86-1.66-2.56-3.42-3.31-2.64-1.1-4.65-1.93-4.65-4.55,0-2.46,1.98-4.42,5.75-4.42,1.58,0,2.94.4,3.06.43.12.05.25.12.28.33l.23,1.38h0Z"/>
        <path class="cls-1" d="M95.01,51.73h8.37v1.43h-10.32v-15.93h10.25v1.41h-8.29v5.35h7.36v1.41h-7.36v6.33h0Z"/>
        <path class="cls-1" d="M111.16,53.16h-1.96v-15.93c.55,0,3.02-.08,4.3-.08,2.46,0,3.9.17,4.87,1.18.83.8,1.23,2.06,1.23,3.11,0,2.99-2.51,4.02-3.39,4.37,1.48,2.64,3.06,4.6,3.82,5.4.17.15.88.88,2.21,1.1l-.25.78c-.05.17-.23.17-.4.17-2.41,0-3.54-.4-7.38-7.01-.55.08-1.23.17-3.04.1v6.8ZM111.16,45.05c.4.05.98.08,1.68.08,1.98,0,4.6-.28,4.6-3.44s-2.41-3.22-4.07-3.22c-.37,0-1.48.03-2.21.08v6.5Z"/>
        <path class="cls-1" d="M126.49,37.23l4.95,13.26,5.65-13.26h1.96l-7.36,15.93h-1.18l-6.23-15.93h2.21Z"/>
        <path class="cls-1" d="M145.59,37.23v15.93h-1.96v-15.93h1.96Z"/>
        <path class="cls-1" d="M166.19,38.97c-.03.35-.45.4-.45.4-.08,0-.55-.25-.65-.3-.83-.35-2.31-.8-3.92-.8-3.44,0-6.84,2.09-6.84,6.93,0,4.5,3.24,6.98,6.66,6.98,1.53,0,3.11-.37,4.12-.83.08-.03.5-.25.55-.25s.3.2.33.23c.03.05,0,.1,0,.17l-.2,1.05c-.03.17-.1.25-.3.33s-2.18.55-4.77.55c-1.73,0-4.4-.17-6.5-2.49-1.36-1.48-2.11-3.42-2.11-5.43,0-3.34,2.04-6.46,5.43-7.84,1.46-.6,3.04-.73,4.44-.73,2.51,0,4.04.5,4.24.63.12.08.12.2.1.3l-.12,1.08h0Z"/>
        <path class="cls-1" d="M174.17,51.73h8.37v1.43h-10.32v-15.93h10.25v1.41h-8.29v5.35h7.36v1.41h-7.36v6.33h0Z"/>
        <path class="cls-1" d="M196.58,39.06v.1c0,.08-.35.23-.43.23-.05,0-.28-.2-.45-.3-.73-.4-2.01-.83-3.19-.83-1.08,0-3.34.4-3.34,2.69,0,1.61,1.13,2.11,3.67,3.19,1.96.83,4.47,1.91,4.47,4.65,0,2.21-1.73,4.65-6,4.65-1.21,0-2.91-.25-3.82-.48-.23-.05-.65-.17-.7-.43l-.23-1.41c-.03-.15,0-.17.03-.2.05-.05.33-.17.37-.17.17,0,.37.17.53.25.96.53,2.56,1.03,4.15,1.03s3.7-.78,3.7-2.81c0-1.86-1.66-2.56-3.42-3.31-2.64-1.1-4.65-1.93-4.65-4.55,0-2.46,1.98-4.42,5.75-4.42,1.58,0,2.94.4,3.06.43.12.05.25.12.28.33l.23,1.38h0Z"/>
      </g>
      <g>
        <path class="cls-1" d="M77.34,24.45h-2.06l7.59-16.37h1.6l6.33,16.37h-2.2l-1.93-5.29h-7.12l-2.2,5.29h0ZM86.17,17.87l-2.86-7.67-3.23,7.67h6.09Z"/>
        <path class="cls-1" d="M105.75,9.86c-.03.36-.47.41-.47.41-.08,0-.57-.26-.67-.31-.85-.36-2.37-.83-4.03-.83-3.54,0-7.02,2.14-7.02,7.12,0,4.62,3.33,7.18,6.84,7.18,1.58,0,3.2-.39,4.23-.85.08-.03.52-.26.57-.26s.31.21.34.23c.03.05,0,.1,0,.18l-.21,1.09c-.03.18-.1.26-.31.34s-2.24.57-4.91.57c-1.78,0-4.52-.18-6.69-2.55-1.4-1.52-2.17-3.51-2.17-5.58,0-3.43,2.09-6.63,5.58-8.05,1.5-.62,3.12-.75,4.57-.75,2.58,0,4.16.52,4.36.65.13.08.13.21.1.31l-.13,1.11h0Z"/>
        <path class="cls-1" d="M121.7,9.86c-.03.36-.47.41-.47.41-.08,0-.57-.26-.67-.31-.85-.36-2.37-.83-4.03-.83-3.54,0-7.02,2.14-7.02,7.12,0,4.62,3.33,7.18,6.84,7.18,1.58,0,3.2-.39,4.23-.85.08-.03.52-.26.57-.26s.31.21.34.23c.03.05,0,.1,0,.18l-.21,1.09c-.03.18-.1.26-.31.34s-2.24.57-4.91.57c-1.78,0-4.52-.18-6.69-2.55-1.4-1.52-2.17-3.51-2.17-5.58,0-3.43,2.09-6.63,5.58-8.05,1.5-.62,3.12-.75,4.57-.75,2.58,0,4.16.52,4.36.65.13.08.13.21.1.31l-.13,1.11h.01Z"/>
        <path class="cls-1" d="M125.99,8.08v8.13c0,4.11.03,5.22,1.19,6.04.98.7,2.58.88,3.43.88.75,0,3.25-.13,4.31-1.99.23-.39.62-1.03.62-4.93v-8.13h1.81v8.13c0,3.07-.18,5.11-1.42,6.48-1.29,1.42-3.59,2.04-5.86,2.04-1.89,0-4.41-.39-5.45-2.4-.65-1.24-.65-2.14-.65-6.12v-8.13h2.02,0Z"/>
        <path class="cls-1" d="M146.87,9.53v14.92h-2.02v-14.92h-6.9v-1.45h15.85v1.45h-6.94,0Z"/>
        <path class="cls-1" d="M156.87,24.45h-2.02V8.08c.57,0,3.1-.08,4.41-.08,2.53,0,4,.18,5.01,1.21.85.83,1.27,2.12,1.27,3.2,0,3.07-2.58,4.13-3.48,4.49,1.52,2.71,3.15,4.73,3.92,5.55.18.16.9.9,2.27,1.14l-.26.8c-.05.18-.23.18-.41.18-2.48,0-3.64-.41-7.59-7.21-.57.08-1.27.18-3.12.1v6.97h0ZM156.87,16.11c.41.05,1.01.08,1.73.08,2.04,0,4.73-.28,4.73-3.54s-2.48-3.3-4.18-3.3c-.39,0-1.52.03-2.27.08v6.69Z"/>
        <path class="cls-1" d="M169.47,24.45h-2.06l7.59-16.37h1.6l6.33,16.37h-2.2l-1.93-5.29h-7.12l-2.2,5.29h0ZM178.3,17.87l-2.86-7.67-3.23,7.67h6.09Z"/>
        <path class="cls-1" d="M186.87,8.08v16.37h-2.02V8.08h2.02ZM197.77,8.08l-8.42,7.28,8.78,9.09h-2.81l-8.31-8.75,8.16-7.62h2.61,0Z"/>
      </g>
      <g>
        <path class="cls-1" d="M76.32,33.63h-.95l3.49-7.52h.73l2.91,7.52h-1.01l-.89-2.43h-3.28l-1.01,2.43h.01ZM80.37,30.6l-1.32-3.52-1.48,3.52h2.8Z"/>
        <path class="cls-1" d="M89.49,26.93c-.01.17-.21.19-.21.19-.04,0-.26-.12-.31-.14-.39-.17-1.09-.38-1.85-.38-1.62,0-3.23.98-3.23,3.28,0,2.12,1.53,3.3,3.15,3.3.72,0,1.47-.18,1.95-.39.04-.01.24-.12.26-.12s.14.09.15.11c.01.02,0,.05,0,.08l-.09.5c-.01.08-.05.12-.14.15s-1.03.26-2.26.26c-.82,0-2.08-.08-3.08-1.17-.64-.7-.99-1.61-.99-2.56,0-1.58.96-3.05,2.56-3.7.69-.28,1.43-.34,2.1-.34,1.18,0,1.91.24,2.01.3.06.04.06.09.05.14l-.06.51h0Z"/>
        <path class="cls-1" d="M96.94,26.93c-.01.17-.21.19-.21.19-.04,0-.26-.12-.31-.14-.39-.17-1.09-.38-1.85-.38-1.62,0-3.23.98-3.23,3.28,0,2.12,1.53,3.3,3.15,3.3.72,0,1.47-.18,1.95-.39.04-.01.24-.12.26-.12s.14.09.15.11c.01.02,0,.05,0,.08l-.09.5c-.01.08-.05.12-.14.15s-1.03.26-2.26.26c-.82,0-2.08-.08-3.08-1.17-.64-.7-.99-1.61-.99-2.56,0-1.58.96-3.05,2.56-3.7.69-.28,1.43-.34,2.1-.34,1.18,0,1.91.24,2.01.3.06.04.06.09.05.14l-.06.51h0Z"/>
        <path class="cls-1" d="M105.71,29.77c0,2.09-1.49,4.06-4.07,4.06-2.34,0-3.9-1.9-3.9-3.93,0-1.72,1.27-4,4.19-4,2.36,0,3.79,1.86,3.79,3.87h0ZM99.95,27.15c-.71.54-1.16,1.48-1.16,2.56,0,1.81,1.27,3.43,3.04,3.43s2.83-1.64,2.83-3.16c0-1.43-.9-3.4-2.8-3.4-.57,0-1.24.06-1.9.56h0Z"/>
        <path class="cls-1" d="M108.02,26.11v3.74c0,1.89.01,2.4.54,2.78.45.32,1.18.4,1.58.4.34,0,1.49-.06,1.98-.91.11-.18.28-.47.28-2.27v-3.74h.83v3.74c0,1.41-.08,2.35-.65,2.98-.59.65-1.65.93-2.7.93-.86,0-2.03-.18-2.51-1.1-.3-.57-.3-.98-.3-2.81v-3.74h.93Z"/>
        <path class="cls-1" d="M121.48,33.59l-.41.14-5.42-6.27.18,6.16h-.83v-7.52h.69l5.15,5.98-.18-5.98h.83v7.49h0Z"/>
        <path class="cls-1" d="M126.06,26.77v6.86h-.92v-6.86h-3.17v-.66h7.29v.66h-3.2Z"/>
        <path class="cls-1" d="M130.77,26.11v7.52h-.92v-7.52h.92Z"/>
        <path class="cls-1" d="M139.22,33.59l-.41.14-5.42-6.27.18,6.16h-.83v-7.52h.69l5.15,5.98-.18-5.98h.83v7.49h0Z"/>
        <path class="cls-1" d="M147.64,29.9v3.54c-.9.18-1.96.32-2.77.32-1.79,0-2.79-.52-3.43-1.33-.65-.82-.77-1.74-.77-2.33,0-1.7,1.04-4.14,4.61-4.14.96,0,1.87.2,1.96.24.06.02.14.06.14.14l.03.58c0,.12-.16.2-.16.2-.04,0-.28-.12-.34-.14-.59-.25-1.3-.39-1.9-.39-1.91,0-3.29,1.21-3.29,3.31,0,1.78,1.09,3.24,3.38,3.24.75,0,1.29-.13,1.59-.2v-3.04h.94,0Z"/>
        <path class="cls-1" d="M151.9,33.63h-.95l3.49-7.52h.73l2.91,7.52h-1.01l-.89-2.43h-3.28l-1.01,2.43h.01ZM155.95,30.6l-1.32-3.52-1.48,3.52h2.8Z"/>
        <path class="cls-1" d="M165.4,33.59l-.41.14-5.42-6.27.18,6.16h-.83v-7.52h.69l5.15,5.98-.18-5.98h.83v7.49h0Z"/>
        <path class="cls-1" d="M167.41,26.11c.49,0,1.3-.06,2.64-.06,1.14,0,2.11,0,2.95.72.76.65,1.17,1.77,1.17,2.95,0,1.59-.8,2.59-1.28,3-1.03.91-2.64.91-3.24.91h-2.23v-7.52h0ZM168.34,33.04h1.36c1.02,0,1.93-.24,2.41-.65.68-.59.99-1.7.99-2.62,0-.54-.11-1.43-.69-2.2-.7-.92-1.76-.92-2.51-.92-.47,0-.62,0-1.58.05v6.35h0Z"/>
        <path class="cls-1" d="M181.03,26.77v6.86h-.92v-6.86h-3.17v-.66h7.29v.66h-3.2Z"/>
        <path class="cls-1" d="M184.19,33.63h-.95l3.49-7.52h.73l2.91,7.52h-1.01l-.89-2.43h-3.28l-1.01,2.43h.01ZM188.25,30.6l-1.32-3.52-1.48,3.52h2.8Z"/>
        <path class="cls-1" d="M191.52,26.11l2.02,3,2.06-3h1.04l-2.74,3.53,2.84,4h-1.08l-2.29-3.4-2.35,3.4h-1.08l3.05-3.89-2.56-3.63h1.09Z"/>
      </g>
    </g>
  </g>
</svg>