<?xml version="1.0" encoding="UTF-8"?>
<svg id="Layer_2" data-name="Layer 2" xmlns="http://www.w3.org/2000/svg" viewBox="0 0 319.17 24.41">
  <defs>
    <style>
      .cls-1 {
        fill: #f6f9fd;
      }
    </style>
  </defs>
  <g id="Layer_1-2" data-name="Layer 1">
    <g>
      <path class="cls-1" d="M201.8,4.84c.22-.8,3.8-.4,4.57-.38.17.54.42,1.07.59,1.6.67,2.07,1.11,5.34,1.94,7.19.12.28.19.51.56.44.69-2.65,1.27-5.39,2.14-7.99.16-.48.25-1.01.69-1.32h4.02l.27.27v14.24c0,.12.21,1-.27,1h-2.65c.06-.18-.18-.4-.18-.46v-8.03s-.31-.33-.36-.27l-2.11,8.2c-.31.82-3.01.73-3.35.27l-2.39-8.2-.37.18v8.03l-.27.27h-2.65c.06-.18-.18-.4-.18-.46V4.84Z"/>
      <path class="cls-1" d="M132.17,19.89c-.17-.05-.51-.68-1.1-.66-.4.02-1.57.75-2.37.84-3.77.42-6.28-1.21-5.94-5.21.13-1.58.93-2.43,2-3.49-2.47-4.02-.84-7.89,4.26-7.14,4.12.61,3.97,6.19.34,7.45-.07.1-.05.3-.02.43.07.36,1.85,2.49,2.28,2.48.48-.81-.02-1.9.73-2.56h2.74c.55,0,.09,1.85,0,2.19-.2.77-1.36,2.77-1.36,3.01,0,.89,1.83,1.69,1.63,2.65-.84-.15-2.47.21-3.19,0ZM127.47,6.79c-1.13.34-.77,2.53.14,3.06,1.54-.69,2.01-3.7-.14-3.06ZM126.43,13.69c-1.67,2.28.66,5.13,2.91,3.17.03-.2-2.11-2.76-2.45-3-.15-.1-.19-.25-.46-.18Z"/>
      <path class="cls-1" d="M239.94,13.32V4.84c0-.57,2.72-.7,2.89-.16l.03,14.58-.28.63h-2.74l-4.75-8.95-.46.11.1,8.3c-.31.96-1.98.42-2.82.52-.56-.48.02-12.95-.21-14.68-.16-1.23,3-.94,3.47-.53l4.25,8.35.5.32Z"/>
      <path class="cls-1" d="M8.5,4.77c0,.67.18,2.12-.21,2.66-.28.39-1.83.82-2.38,1.18-4.53,2.99-4.02,11.57,1.66,12.88,6.31,1.45,11.84-4.01,8.8-10.1.7-1.52,1.92-3.99,3.01-1.17.83,2.13.65,6.22-.24,8.33-2.03,4.83-7.1,6.83-12.04,5.41C-1.97,21.36-2.34,8.95,5.93,5.16c.76-.35,1.8-.83,2.57-.39Z"/>
      <path class="cls-1" d="M158.86,4.24c3.36-.43,5.95.55,6.83,4.03.6,2.38.59,7.13-.61,9.3-.34.62-1.71,1.84-1.77,2.08-.13.5.82,1.45.45,2.07l-.22.14c-.69.08-1.76.15-2.15-.53-.13-.22-.1-.55-.28-.82-.46-.71-1.48-.36-2.24-.5-4.26-.73-4.7-5.21-4.53-8.81.15-3.14.88-6.5,4.53-6.97ZM161.83,16.24c.3.06.38-.08.52-.3.53-.82.51-5.4.34-6.5-.53-3.41-4.53-3.41-5.02,0-.18,1.27-.18,4.61.11,5.82.21.87.82,2.03,1.85,1.89l-.73-2.11c-.03-.66,1.91-.53,2.19-.36.24.14.64,1.21.73,1.55Z"/>
      <path class="cls-1" d="M102.52,19.89h-2.83c-.94-.64-1.84-5.19-2.58-5.45-.35-.12-1.36-.13-1.5.27l-.21,5.18h-2.65l-.27-.27V4.56c2.15-.18,5.25-.46,7.35.04,3.18.76,3.86,5.86,2.03,8.15-.35.44-1.34,1.01-1.35,1.38.61,1.9,1.91,3.75,2,5.75ZM95.88,7.14c-.24.06-.26.22-.3.43-.07.39-.04,3.59.08,3.75,1.04.39,3.43.37,3.86-.91.89-2.68-1.34-3.69-3.64-3.27Z"/>
      <path class="cls-1" d="M286.05,18.38c-1.7,2.07-6.06,2.28-8.14.68-2.83-2.18-2.83-9.74-1.1-12.57,1.99-3.28,7.9-3.17,9.74.29,1.29,2.43,1.31,9.42-.49,11.6ZM283.5,7.72c-1.21-1.53-3.84-.87-4.28,1.17-.33,1.52-.36,5,0,6.49.6,2.47,3.82,2.72,4.65.35.28-.79.44-3.07.43-3.97-.01-.81-.33-3.46-.79-4.05Z"/>
      <path class="cls-1" d="M109.14,7.17c-.99.62-.87,2.87.49,3.33,2.07.7,5.47.29,6.35,3.14,2.46,7.92-11.41,9.01-10.88,1.26l.27-.27,2.82.05c.37.27-.17,1.71,1.26,2.39s3.51.12,3.5-1.66c-.02-2.21-3.61-1.99-5.13-2.56-4.32-1.61-3.14-8.09,1.38-8.65,3.96-.49,7.26,1.04,6.75,5.47-.17.25-2,.23-2.39.18-1.23-.14-.44-1.91-1.74-2.64-.62-.35-2.09-.41-2.67-.05Z"/>
      <path class="cls-1" d="M55.07,14.6h2.83l.24.31c-.27,3.08,4.99,3.48,4.58.17-.23-1.86-3.32-1.62-4.81-2.13-4.49-1.54-3.44-8.02.94-8.7,2.61-.4,5.8,0,6.75,2.84.22.67.76,2.6-.22,2.78-.22.04-2.11.11-2.23.05-.68-.32-.47-1.18-.65-1.74-.56-1.75-3.96-1.71-4.25.4-.33,2.35,3.41,2.16,4.89,2.62,4.2,1.29,3.84,7.49-.4,8.62s-8.14-.42-7.67-5.2Z"/>
      <path class="cls-1" d="M169.07,4.42c.41-.12,2.44-.18,2.58.26.32,3.27-.36,7.13.07,10.33.38,2.79,3.38,3.27,4.66.92.22-3.78-.28-7.64.3-11.38.17-.25,2.64-.39,2.93.19-.09,3.55.45,7.71.07,11.2-.27,2.5-1.61,3.84-4.11,4.11-2.76.3-5.89,0-6.74-3.07-.47-1.7-.53-9.89-.27-11.79.05-.36.11-.66.5-.78Z"/>
      <path class="cls-1" d="M50.05,19.89c-.64-.19-.59-2.74-1-3.2s-1.34-.08-1.92-.07-1.13-.35-1.62,0c-.72.51-.48,3.27-1.3,3.27h-2.83c-.03-.27-.19-.48-.15-.78.21-1.45,1.01-3.37,1.38-4.84.71-2.86,1.24-6.45,2.14-9.17.07-.2.28-.54.46-.63.31-.15,3.29-.17,3.74-.09.27.05.41.15.5.41l3.61,14.64c0,.15-.18.46-.28.46h-2.74ZM46.85,8.76c.2,1.04-.95,3.76-.84,4.48.12.83,2.18.53,2.29.15.06-.2-.67-3.74-.81-4.09-.12-.29-.25-.61-.64-.54Z"/>
      <path class="cls-1" d="M227.89,10.59c.24.46.38,2.74-.27,2.74h-4.65c-.39,1.21-.13,2.46.08,3.66l5.77.25c.26.18.34,2.34-.1,2.66h-8.85l-.02-15.26c.17-.22.39-.23.65-.26,2.48-.31,5.64.23,8.2.03l.22.15c.17.24.22,2.29-.19,2.57h-5.48l-.24.3c-.01.42-.1.84-.11,1.25-.01.54,0,1.56.35,1.92h4.65Z"/>
      <path class="cls-1" d="M263.37,6.09c1.24-1.79,3.66-2.09,5.69-1.9,3.1.29,4.92,2.98,4.11,5.95h-2.76c-.36-.26.08-3.23-2.45-3.22-1.95,0-2.49,1.75-2.64,3.39-.14,1.5-.17,5.78,1.21,6.63,2,1.22,3.71-.17,3.88-2.27l2.85.09c.4,3.12-1.32,5.05-4.39,5.3-2.3.19-4.6-.23-5.78-2.42-1.32-2.45-1.32-9.23.29-11.56Z"/>
      <path class="cls-1" d="M39.19,14.6c.42,4.17-2.26,5.77-6.12,5.48s-4.8-3.1-5.02-6.48.16-8.97,4.65-9.42c4.13-.41,7.13,1.37,6.41,5.86l-2.81.15c-.37-1.64-.29-3.33-2.49-3.27-1.46.03-2.24,1.16-2.45,2.49-.23,1.44-.28,5,.22,6.32.61,1.58,2.89,2.3,4.04.87.54-.67.28-1.51.92-2h2.65Z"/>
      <path class="cls-1" d="M89.28,4.38c.09.01.44.2.46.31-.11.78.27,1.83-.28,2.43h-5.75c.06.18-.18.4-.18.46v2.74c1.07.76,3.89-.14,4.93.36.66.32.44,2.65-.09,2.65h-4.65c-.18.7-.39,3.1-.02,3.58.49.62,4.86,0,5.87.34.26.18.34,2.34-.1,2.66h-8.76l-.27-.27V4.65l.27-.27h8.58Z"/>
      <path class="cls-1" d="M151.52,4.38c.09.01.44.2.46.31-.11.78.27,1.83-.28,2.43h-5.75c.06.18-.18.4-.18.46v2.74c.94.75,4.09-.13,4.93.36.58.35.48,2.65-.09,2.65h-4.65c-.18.7-.39,3.1-.02,3.58.5.63,4.85-.01,5.86.35.49.29.21,2.65-.28,2.65h-8.58l-.27-.27V4.65l.27-.27h8.58Z"/>
      <path class="cls-1" d="M191.94,19.89h-2.74c.06-.18-.18-.4-.18-.46V4.65l.27-.27h5.84c.53,0,1.98.52,2.45.84,2.6,1.75,2.49,7.06-.4,8.51-1.27.64-4.56.35-4.89.77-.4.51.05,5.4-.35,5.4ZM192.42,7.14c-.24.06-.26.22-.3.43-.08.41-.04,3.52.09,3.74.25.41,2.07.24,2.55.17,1.41-.21,1.75-2.53,1.02-3.55s-2.27-.86-3.35-.79Z"/>
      <path class="cls-1" d="M306.32,2.6c.75-.19,5.8-.17,6.71-.06.31.04.55.07.72.37l.26,9.21c-.09.46-1.23,2.02-1.63,2.21-.71.32-1.26-2.52-3.53-1.53-.78.34-.98,1.02-1.51,1.6-.47.11-1.42-1.1-1.57-1.5-.28-.73-.29-8.41-.15-9.54.06-.52.17-.63.7-.76Z"/>
      <path class="cls-1" d="M16.66,9.96c-.46.56-3.73,4.39-4.03,4.41-1.36-.75-.81-2.11-2.91-1.77-.75.12-1.33,1.09-1.58-.28l.77-8.83,8.66-.21c1.25.26,2.46-.47,2.26,1.36-.21,1.93-1.98,3.87-3.17,5.32Z"/>
      <path class="cls-1" d="M304.25,19.83c4.98,6.1,15.84-.56,11.68-8.68-.24-.46-1.26-1.61-1.31-1.79-.12-.39-.16-1.93.26-2.05.52-.16,1.65,1.04,1.99,1.45,5.86,7.11-1.62,18.9-11.22,14.69-6.6-2.89-6.78-12.11-1.37-16.33.65-.14.51,1.85.42,2.24-.12.53-1.25,1.73-1.58,2.43-1.2,2.56-.62,5.88,1.14,8.04Z"/>
      <path class="cls-1" d="M12.28,15.8c.35-.3.97-.87,1.27-1.19.39-.42,1.69-2.34,1.9-2.48.15-.09.28-.12.45-.08.9,1.74.65,4.44-.48,6.08-2.33,3.36-7.92,4.15-10.55.76-2.48-3.2-1.22-8.81,2.74-10.04.19.14.31.26.31.51.02,1.54-.65,2.97-.5,4.6.08.91.58,2.92,1.59,3.16,1.65.39,2.18-.37,3.26-1.32Z"/>
      <path class="cls-1" d="M78.06,7.12h-3.19l-.27.27v12.05c0,.06-.24.28-.18.46h-2.65c-.09,0-.39-.49-.4-.66l.09-11.62c-.28-.95-2.66-.24-3.44-.57l-.15-2.45,9.9-.18c.58.19.19,2.16.3,2.71Z"/>
      <path class="cls-1" d="M245.51,7.12c-.39-.12-.54-2.54.22-2.7l9.36.05c.55.23.47,2.38.19,2.57l-3.21.26-.2.37-.02,11.81c-.27.75-3.16.52-3.16-.04V7.39l-.27-.27h-2.92Z"/>
      <path class="cls-1" d="M305.16,19.46c-1.22-1.25-2.04-3.57-1.87-5.3.05-.53.86-3.38,1.62-2.85.24.53-.04.98.03,1.5.19,1.31,2.98,2.93,3.7,4.17,2.49.92,3.26-1.08,4.57-2.57.29-.33,1.2-.97,1.28-1.09.29-.48-.09-1.46.18-2.01.19-.33.54.12.64.28,2.25,3.49-.53,9.18-4.66,9.58-1.98.19-4.08-.25-5.5-1.7Z"/>
      <path class="cls-1" d="M182.82,19.89c-.08-.33-.16-.64-.19-1-.35-4.4.28-9.25,0-13.7l.26-.65c.34-.27,3.03-.47,3.02.48v13.87s-.45,1-.45,1h-2.65Z"/>
      <path class="cls-1" d="M300.99.37h17.7c.09,0,.48.46.47.65.1.23-.33.81-.47.81h-17.7c-.09,0-.48-.46-.47-.65l.47-.81Z"/>
      <path class="cls-1" d="M24.22.91H4.24c-.34,0-.34-.91,0-.91h19.89l.26.29-.17.62Z"/>
      <path class="cls-1" d="M21.94,1.64c.25.08.32.54.29.8-.02.1-.43.3-.47.3H6.61c-.36,0-.36-1.1,0-1.1h15.33Z"/>
      <path class="cls-1" d="M293.05,19.89h-2.65c-.76-.82-.48-2.28-.27-3.29h2.83c.51.29.26,3.29.09,3.29Z"/>
      <path class="cls-1" d="M8.96,13.57c.76-.75,2.28-.45,2.49.58.7,3.54-4.73,1.64-2.49-.58Z"/>
      <path class="cls-1" d="M310.88,13.73c1.04,1.11-.62,3.84-2.21,2.12s.97-3.45,2.21-2.12Z"/>
    </g>
  </g>
</svg>