<?xml version="1.0" encoding="UTF-8"?>
<svg id="Layer_2" data-name="Layer 2" xmlns="http://www.w3.org/2000/svg" viewBox="0 0 114.36 130.75">
  <defs>
    <style>
      .cls-1 {
        fill: #fff;
      }
    </style>
  </defs>
  <g id="Layer_1-2" data-name="Layer 1">
    <g>
      <polygon class="cls-1" points="4.98 40.46 55.8 0 73.28 13.59 73.28 8.09 79.59 8.09 79.59 19.26 106.46 40.46 55.72 8.09 4.98 40.46"/>
      <path class="cls-1" d="M67.62,81.79c3.42-.6,8.95-3.35,11.68-7.97,4.61-7.83,4-13.79,4.05-18.63.05-5.99-1.65-13.92-6.4-19.19-3.61-4-9.24-5.96-16.09-6.81-6.63-.82-15.73-.55-15.73-.55v11.82h-11.99c-5.67,0-7.78,4.23-7.78,6.98,0,3.84.05,5.09.05,13.46,0,4.29-.04,5.49.76,7.54.91,2.31,3.7,3.51,5.28,3.84h13.79v24.26h8.46v-24.16c1.63-.15,3.94.04,5.95-.15,2.35-.22,5.49-.91,8.02-3.21,2.42-2.21,3.06-4.93,3.7-7.64.51-2.17,1.64-7.27-.87-12.5-.47-.97-1.19-3.19-3.5-5.09-.78-.64-3.29-2.34-6.49-2.88-3.59-.61-6.77-.45-6.77-.45l-.09-3.34c3.12-.09,8.84-.09,13.26,2.25,4.38,2.34,6.3,6.08,6.91,7.4,2.69,5.76,1.58,15.46.24,18.98-.61,1.58-4.43,8.63-10.57,9.46-3.04.41-6.68.62-6.68.62v7.25l16.57,13.74h13.12l-18.88-15.04ZM45.24,64.21h-11.43v-15.61h11.43v15.61ZM53.74,48.6c.96,0,2.09-.02,3.61.09,1.96.15,3.13.05,4.22.87,1.47,1.1,2.12,2.79,2.12,3.84,0,1.24.14,2.54.06,4.95-.09,2.69-.7,2.97-.93,3.31-.7,1.08-1.65,1.7-2.45,1.92-2.59.73-5,.63-6.68.63l.05-15.61Z"/>
      <path class="cls-1" d="M79.53,83.71c.29-.26.6-.54.91-.85,6.6-6.39,8.48-15.94,9.02-21.07,1.06-10.19-.49-18.65-4.75-25.86-4.27-7.23-10.45-11.37-18.88-12.66l-.14-.02c-4.34-.66-6.74-1.03-12.6-1.22-2.12-.07-4.25-.1-6.33-.1-1.81,0-3.19.03-4.02.05-1.13.03-2.15.49-2.87,1.29-.76.85-1.11,1.97-1.04,3.33v8.42c-1.27,0-2.43-.01-3.48-.02-.93,0-1.79-.01-2.56-.01-2.33,0-4.05.06-5.43.37-2.47.55-4.63,2.35-6.07,5.07-1.64,3.08-1.9,5.97-1.91,7.42-.05,6.54,0,10.25.03,13.23.03,2.3.05,4.11.01,6.34-.04,2.55,1.01,4.88,3.21,7.12,1.58,1.6,3.94,3.44,8.29,3.54,3.16.07,5.93.09,8,.09v24.6h19.94v-9.75l10.94,9.75h32.91l-23.21-19.07ZM55.72,85.97v13.65h-13.6v-24.6s-4.76.03-11.1-.09c-3.38-.07-4.96-1.44-6.1-2.59-1.35-1.37-2.34-2.91-2.31-4.86.08-5.1-.14-7.87-.05-19.6,0-.98.18-3.4,1.54-5.95.51-.97,1.8-2.99,3.96-3.47,2.27-.51,6.74-.18,13.95-.28v-11.67c-.06-.83.14-1.33.82-1.35,1.94-.05,5.61-.09,10.16.05,5.73.18,7.98.53,12.36,1.2,9.19,1.41,13.77,6.28,16.63,11.14,5.07,8.57,4.99,17.56,4.32,23.92-.6,5.74-2.64,13.85-8.07,19.12-1.76,1.7-2.81,2.31-4.01,2.85l19.67,16.17h-22.87l-15.31-13.65Z"/>
      <g>
        <path class="cls-1" d="M34.49,108.01c1.3.22,2.22,1.63,1.83,3.56-.28,1.36-.97,1.68-1.8,2.18l2.26,4.36c.45.46.72.76,1.29.45.5-.27.65-.98.85-1.62.88-2.83,1.53-5.91,2.37-8.77l.1-.16c.44-.18.49.32.62.8.81,2.83,1.47,6.15,2.37,8.87.11.34.29.69.53.86.15.11.57.19.63.31.07.15,0,.41-.07.41h-3.21v-.51c.18.03.87-.13.95-.3.19-.42-.53-2.38-.61-2.93h-2.8c-.08.62-.61,2.08-.49,2.65.09.42.84.59,1.11.58v.51s-4.65,0-4.65,0c-.67-1.79-1.59-3.4-2.41-5.06l-.83-.02v3.91c0,.11.21.42.3.48.28.19,1.11.05.72.69h-3.17l-.07-.1v-.31c.35-.23.76-.06.99-.61l.03-9.09c-.1-.75-1.31-.49-1.02-1.07l.07-.1h4.09ZM32.55,108.62v4.72c.47.37,1.36.1,1.8-.36.82-.86,1.01-3.08.13-3.94-.11-.1-.6-.42-.69-.42h-1.23ZM40.09,114.72h2.33l-1.16-4.17-1.16,4.17Z"/>
        <path class="cls-1" d="M110.21,108.01v.51c-.23-.02-.98-.01-.97.44l1.71,4.64c.36-.86.76-1.7,1.1-2.57.46-1.19,1.25-2.55-.36-2.51v-.51h2.68v.49c-.29.13-.62.29-.84.58-.38.49-2.19,4.84-2.3,5.52-.07.41-.08,3.1,0,3.47.12.58.81.63,1.16.71v.5s-3.56,0-3.56,0l-.11-.51c.38-.03,1.1.01,1.24-.6.07-.34.07-2.99.02-3.39-.08-.59-1.73-4.96-2.04-5.49-.21-.36-.49-.72-.83-.68v2.29c-.47.57-.53-.42-.75-.96-.56-1.37-.99-1.4-2.07-1.33v9.4c0,.12.21.4.3.48.22.18,1.17.21.93.69l-.07.1h-3.63v-.51c.28.04,1.27-.16,1.27-.66v-9.5c-.41.02-1.06-.06-1.44.22s-.86,1.59-.97,2.21h-.42s0-3.04,0-3.04h9.94Z"/>
        <path class="cls-1" d="M66.34,108.01c1.32.2,2.14,1.42,1.92,3.38-.15,1.4-.99,1.77-1.73,2.29-.07.05-.12-.03-.08.16,1.06,1.56,1.71,4.64,3.37,4.94v.5s-2.08,0-2.08,0l-2.43-4.94c-.23-.28-.57-.1-.85-.14v4.01c0,.42.82.61,1.06.56v.51h-3.31v-.51c.54-.03,1-.05,1.06-.96.17-2.7-.13-5.79,0-8.53-.07-.68-.67-.69-1.05-.77v-.5c1.31.15,2.83-.2,4.12,0ZM64.47,113.5c.76.07,1.61-.03,2.11-.97s.51-2.61-.12-3.39c-.1-.13-.67-.52-.76-.52h-1.23v4.88Z"/>
        <path class="cls-1" d="M96.92,108.01c2.35.36,2.7,4.1.51,5.51-.12.08-.42.07-.4.32.72,1.18,1.29,2.78,2,3.92.36.58.81.99,1.37,1.02v.5s-2.08,0-2.08,0l-2.43-4.93c-.14-.23-.85-.25-.91.02.05.78-.17,3.62.16,4.11.17.25.71.29.96.3v.51h-3.31v-.51c.47-.04,1.07-.09,1.06-.96-.19-2.61.24-5.9-.01-8.43-.08-.83-.58-.77-1.05-.88v-.5c1.31.15,2.83-.2,4.12,0ZM96.22,108.62c-.35-.07-.77.05-1.13,0l-.11.15v4.57c.34.31,1,.15,1.39-.03,1.55-.75,1.57-4.36-.15-4.69Z"/>
        <path class="cls-1" d="M16.52,108.01l4.23,8.22.21.21c-.03-2.08.2-4.57-.07-6.61-.15-1.16-.62-1.07-1.3-1.32v-.5s3.16,0,3.16,0v.5c-.3.06-.78.14-.99.46-.1.15-.28.84-.28,1.02v9.4l-.44-.02-4.61-8.89-.16-.13v6.65c0,.16.19,1.08.28,1.22.23.38.8.46,1.12.57v.5s-3.23,0-3.23,0v-.5c.57-.15,1.14-.24,1.25-1.2-.09-2.37.17-5.06.02-7.4-.02-.38-.12-.8-.32-1.06s-1.02-.62-1.06-.7c-.07-.15,0-.41.07-.41h2.11Z"/>
        <path class="cls-1" d="M73.19,107.84c5.75-1.04,5.86,12.42.12,11.65-4.28-.57-4.32-10.9-.12-11.65ZM73.48,108.55c-3.19.56-2.75,12.14,1.16,10.01,2.37-1.29,2.31-10.61-1.16-10.01Z"/>
        <path class="cls-1" d="M13.31,108.01v2.64l-.41-.02c-.18-.77-.77-2.02-1.39-2.02h-1.94v4.47h1.3c.15,0,.51-.47.59-.67.22-.54.09-1.43.64-1.26v4.47c-.56.18-.42-.76-.67-1.32-.11-.24-.44-.61-.63-.61h-1.23v4.22c0,.05.16.43.23.49.47.47,2.48.4,2.9-.25.3-.45.6-1.8.78-2.03.12-.15.25-.1.39-.1l-.14,3.25h-6.48v-.51c.41-.02,1.04-.02,1.12-.77-.12-2.71.18-5.76,0-8.43-.06-.94-.58-.93-1.13-1.07v-.5s6.06,0,6.06,0Z"/>
        <path class="cls-1" d="M91.39,108.01v2.64l-.41-.02c-.17-.59-.58-1.61-1-1.86-.04-.03-.43-.16-.45-.16h-1.83l-.11.15v4.16l.11.15h1.2c.52,0,.91-1.26.88-1.93h.42s0,4.46,0,4.46h-.42c.03-.67-.36-1.93-.88-1.93h-1.2l-.11.15v3.56c0,.07.11.71.15.8.26.69,2.12.52,2.6.32.62-.26.99-1.67,1.2-2.48h.41s-.14,3.24-.14,3.24h-6.48v-.51c.56-.1,1.07.04,1.13-.96.17-2.67-.13-5.72,0-8.43-.07-.66-.73-.81-1.12-.87v-.5s6.06,0,6.06,0Z"/>
        <path class="cls-1" d="M80.86,114.31c-.1.09-.1.2-.11.35-.05.56-.06,2.95.02,3.44.1.65.73.67,1.11.68v.51h-3.28l-.11-.51c.4-.01.9-.02,1.06-.66-.13-2.78.18-5.9,0-8.64-.06-.95-.52-.82-1.06-.96v-.5s4.05,0,4.05,0c.15,0,.79.33.95.45,1.38,1,1.27,3.71.14,4.98-.26.3-1.06.86-1.38.86h-1.41ZM80.75,113.6c.86.1,1.96-.09,2.28-1.44.22-.93.14-2.45-.45-3.07-.11-.12-.63-.46-.74-.46h-1.09v4.98Z"/>
        <path class="cls-1" d="M57.67,114.31c-.1.09-.1.2-.11.35-.05.59-.05,2.89.03,3.42.12.71.68.67,1.1.7v.51h-3.31v-.51c.37-.06.92,0,.98-.67-.14-2.8.19-5.99,0-8.74-.05-.8-.6-.79-1.06-.86v-.51s4.05,0,4.05,0c.45,0,1.38.72,1.66,1.27.53,1.07.32,3.01-.32,3.91-.29.41-1.23,1.12-1.62,1.12h-1.41ZM57.57,113.6h1.02c.11,0,.62-.35.74-.46.83-.83.89-3.2.07-4.05-.46-.48-1.33-.66-1.83-.31v4.83Z"/>
        <path class="cls-1" d="M29.73,108.01v3.05c-.14,0-.27.05-.39-.1-.09-.12-.36-1.12-.54-1.46-.54-1.02-1.06-.89-1.89-.88v9.3c0,.67.91.86,1.27.86v.51s-3.63,0-3.63,0l-.11-.15.07-.3c.28-.13,1.2-.11,1.2-.71v-9.5c-.41.02-1.06-.06-1.44.22s-.84,1.6-.97,2.21h-.41s0-3.03,0-3.03h6.84Z"/>
        <path class="cls-1" d="M6.34,112.08h-.42c-.28-1.87-.86-3.9-2.43-3.65-2.29.37-2.57,5.72-1.75,8.08,1.06,3.03,3.68,2.8,4.52-.33l.35.22c-.28,1.67-1.31,2.9-2.51,3.07-5.57.81-5.45-12.62.2-11.64.35.06,1.28.7,1.35.67.13-.04.15-.45.19-.48.09-.08.36.02.48-.02v4.06Z"/>
        <path class="cls-1" d="M49.11,108.01v.5c-.46.1-.97.07-1.05.88.11,2.63-.16,5.53,0,8.12.05.87.2,1.07.81,1.16s1.66.02,2.07-.68c.23-.39.62-1.7.75-1.86.12-.15.25-.1.39-.1l-.14,3.25h-6.06v-.51c.47-.04.94-.06.99-.86.18-2.68-.14-5.81,0-8.53-.07-.65-.6-.78-.98-.88v-.5s3.23,0,3.23,0Z"/>
      </g>
      <path class="cls-1" d="M6.63,130.55h-1.79c-.52-.84-1-1.72-1.55-2.53-.07-.1-.52-.79-.56-.79h-.63c-.06.04-.06.09-.07.16-.05.49-.03,1.54,0,2.05.05.75.28.74.89.8l.04.31H.18l.04-.31c.38-.06.8-.03.85-.56v-5.75c-.11-.45-.56-.4-.88-.51v-.28s.14-.05.14-.05c1.27.17,3.79-.48,4.68.76.53.74.37,1.9-.28,2.49-.31.28-.67.38-1.01.57l1.79,2.73c.29.34.65.56,1.08.59l.04.31ZM3.11,123.52c-.31-.04-.69.03-1.01,0l-.06.07v3.04l.06.07h.89c.11,0,.48-.21.58-.29.93-.75.8-2.71-.46-2.89Z"/>
      <path class="cls-1" d="M96.88,130.55l.04-.31c.48-.13.91-.16,1-.82.15-1.12.12-3.38.05-4.55-.02-.33-.06-.69-.26-.95-.22-.3-.64-.42-.96-.5v-.27c.07-.04.15-.05.23-.06.37-.03,1.22-.05,1.56,0,.05,0,.09,0,.13.05,1.15,1.7,2.22,3.48,3.37,5.17.09.14.18.29.31.39-.06-1.28.08-2.65,0-3.92-.01-.24-.06-.66-.16-.86-.17-.35-.67-.37-.97-.5v-.33s2.59,0,2.59,0c.07.04.09.27.06.33-.05.09-.76.06-.93.49-.02.04-.12.46-.12.49v6.25c-.15-.02-.35.06-.46-.07l-3.86-5.91c-.1,0-.1.09-.11.16-.11,1.09.09,2.41,0,3.52.09.46-.02.9.16,1.34s.62.44.98.56l.04.31h-2.7Z"/>
      <path class="cls-1" d="M88,122.96c4.41-.55,4.81,7.37.66,7.77-4.22.41-4.66-7.27-.66-7.77ZM87.07,129.57c.87,1.06,2.34.81,2.95-.45.78-1.61.65-5.51-1.48-5.69-2.47-.22-2.7,4.63-1.47,6.14Z"/>
      <path class="cls-1" d="M33.45,129.81c-1.94-2.02-1.12-6.5,1.7-6.85,2.55-.32,3.96,2.28,3.5,4.89s-3.38,3.85-5.2,1.96ZM35.44,123.44c-2.97.25-2.45,8.1.83,6.64,1.99-.89,1.86-6.86-.83-6.64Z"/>
      <path class="cls-1" d="M16.68,124.85h-.37c-.1-.4-.45-1.05-.79-1.22-.04-.02-.3-.11-.33-.11h-1.64l-.06.07v2.8l.06.07h1.01s.24-.1.27-.12c.38-.23.39-.71.53-1.11.07-.08.26-.07.32.03v2.87h-.33c-.08-.39-.15-.93-.5-1.13-.03-.02-.19-.1-.2-.1h-1.16c.04.78-.06,1.63,0,2.4.03.44.1.75.53.83.46.08,1.13.08,1.59,0s.55-.22.78-.64c.18-.31.32-.7.44-1.05.12-.09.24-.06.37-.01l-.13,2.14h-5.48l.04-.31c.41-.07.84-.02.89-.61v-5.6c-.08-.58-.85-.48-.92-.6-.03-.06-.01-.28.06-.33h4.97l.06.07v1.69Z"/>
      <path class="cls-1" d="M61.57,123.09v.33c-.5.14-.88.09-1,.75-.22,1.2.03,2.98-.05,4.26-.19,3.13-4.66,2.92-4.85.29-.1-1.44.17-3.26,0-4.64-.04-.32-.15-.43-.41-.53s-.61,0-.42-.43c.81.01,1.71-.09,2.51-.02.24.02.26.04.23.33-.27.1-.82.04-.88.46v4.84c.22,2.02,3.19,1.95,3.37-.28.07-.84.09-3.58-.1-4.31-.16-.61-.61-.57-1.08-.71-.01-.11-.03-.25.06-.33h2.63Z"/>
      <path class="cls-1" d="M26.85,125.51c-.11-.02-.32.05-.4-.05-.03-.04-.21-.73-.27-.88-.18-.43-.49-.87-.89-1.04-.8-.34-1.73.11-1.64,1.18.14,1.71,3.25,1.27,3.45,3.38.19,1.97-1.43,2.99-2.99,2.51-.31-.1-.59-.3-.9-.41-.16.32-.17.42-.54.32-.08-.06-.03-.79-.04-.95,0-.13-.04-.24-.05-.38,0-.27-.04-.82,0-1.05.03-.16.28-.16.36-.07.05.06.26.78.36.98.44.86,1.09,1.3,1.99,1.15.85-.14,1.09-1.24.77-2.02-.53-1.3-2.91-.98-3.25-2.75s1.15-2.77,2.53-2.42c.2.05.81.42.86.41.12,0,.16-.29.26-.33.06-.02.27-.02.31.01.09.07.04,2.11.08,2.4Z"/>
      <path class="cls-1" d="M112.77,123.42c.06-.25.2-.38.44-.32l.06.07.05,2.34h-.37c-.24-.84-.48-1.76-1.32-2.01-1.31-.4-2.05,1.19-1.09,2.08,1.02.94,3.24.82,3.07,3.04-.17,2.09-2.14,2.44-3.61,1.75-.15-.07-.21-.23-.35-.08-.19.19-.06.34-.51.26-.04-.51-.03-1.03-.04-1.55,0-.17-.13-.9.03-.96.41-.13.44.51.58.85.4.93,1.11,1.47,2.06,1.32.9-.14,1.1-1.25.76-2.06-.52-1.22-2.74-.97-3.18-2.54-.58-2.08,1.4-3.12,2.96-2.39.1.05.38.27.46.21Z"/>
      <path class="cls-1" d="M71.53,123.09v1.97c0,.09-.2.09-.28.03-.06-.05-.24-.56-.31-.7-.1-.2-.39-.64-.56-.75-.04-.03-.32-.12-.36-.12h-.86v6.15s.1.24.13.27c.15.2.66.24.89.29l.04.31h-3.12l.04-.31c.29-.07.8,0,.97-.34.02-.03.09-.26.09-.28v-6.03l-.06-.07h-.8s-.28.09-.33.11c-.4.2-.73,1.02-.89,1.46-.08.07-.26.07-.32-.03v-1.9l.06-.07h5.67Z"/>
      <path class="cls-1" d="M44.01,130.55l.04-.31c.41-.06.8-.03.85-.61v-5.6c-.07-.45-.57-.49-.88-.6v-.28s.1-.04.14-.05c.49-.07,2-.07,2.49,0,.19.03.15.13.14.33-.45.13-.85.06-.92.7.07,1.67-.11,3.47,0,5.13.02.3.04.71.32.83s1.06.09,1.38.04c.5-.07.6-.19.88-.62.11-.18.53-1.09.61-1.12.07-.02.19-.03.22.07.05.48-.04.95-.08,1.42-.02.22.06.52-.06.69h-5.12Z"/>
      <path class="cls-1" d="M79.62,123.09c.08.03.07.24.06.33-.27.09-.9.06-.96.46v5.75c0,.54.61.57.97.59v.33h-2.95v-.33c.37,0,.95,0,.97-.54v-5.65c-.07-.5-.64-.46-.97-.6v-.33s2.88,0,2.88,0Z"/>
    </g>
  </g>
</svg>