<?xml version="1.0" encoding="UTF-8"?>
<svg id="Layer_2" data-name="Layer 2" xmlns="http://www.w3.org/2000/svg" viewBox="0 0 143.78 74.64">
  <defs>
    <style>
      .cls-1 {
        fill: #f6f9fd;
        fill-rule: evenodd;
      }
    </style>
  </defs>
  <g id="Layer_1-2" data-name="Layer 1">
    <path class="cls-1" d="M66.1,70.61l-.09-.05s-.05-.03-.08-.04c-.5-.31-.89-.74-1.14-1.33-.23-.53-.36-1.16-.36-1.9v-1.64c0-.75.12-1.39.35-1.91.25-.59.63-1.03,1.12-1.33.48-.3,1.05-.46,1.71-.46s1.27.13,1.79.38h0c0-.07.03-.14.08-.19s.12-.08.19-.08h2.04v7.96c0,.96-.14,2.18-.45,2.79-.31.61-.78,1.08-1.38,1.4-.57.3-1.25.46-2.06.46-.67,0-1.28-.13-1.8-.38-.56-.26-.99-.64-1.3-1.12l-.29-.45,1.41-1.27s.19.28.41.45.5.34.75.46c.23.11.55.13.8.13.51,0,.82-.13,1.19-.4.36-.27.52-1.07.35-1.4-.46.19-1.01.3-1.66.3-.6,0-1.13-.12-1.58-.36h0ZM126.88,70.61l-.09-.05s-.05-.03-.08-.04c-.5-.31-.89-.74-1.14-1.33-.23-.53-.36-1.16-.36-1.9v-1.64c0-.75.12-1.39.35-1.91.25-.59.63-1.03,1.12-1.33.48-.3,1.05-.46,1.71-.46s1.27.13,1.79.38h0c0-.07.03-.14.08-.19.05-.05.12-.08.19-.08h2.04v7.96c0,.96-.14,2.18-.45,2.79s-.78,1.08-1.38,1.4c-.57.3-1.25.46-2.06.46-.68,0-1.28-.13-1.8-.38-.56-.26-.99-.64-1.3-1.12l-.29-.45,1.41-1.27s.19.28.41.45.5.34.75.46c.23.11.55.13.8.13.51,0,.82-.13,1.2-.4.36-.27.52-1.07.35-1.4-.46.19-1.01.3-1.66.3-.6,0-1.13-.12-1.58-.36h0ZM17.01,64.44c-.12-.17-.23-.32-.31-.46-.38-.61-.55-1.2-.55-1.78,0-.73.24-1.36.73-1.88.62-.67,1.46-1.02,2.51-1.02.77,0,1.45.21,2.03.61.82.57,1.22,1.33,1.22,2.27,0,.87-.35,1.63-1.06,2.27-.25.22-.56.44-.93.65.47.47.94.9,1.4,1.31.2-.42.37-.93.52-1.52h0c.04-.17.16-.32.31-.4s.34-.09.51-.03c.66.26,1.58.61,1.58.61l-.16.55c-.29.96-.62,1.72-.97,2.3.42.33.89.69,1.44,1.08l.56.4-1.65,1.81-.45-.34c-.48-.36-.95-.74-1.41-1.14-.98.85-2.18,1.27-3.6,1.27-.78,0-1.48-.16-2.08-.48-.57-.3-1.01-.7-1.33-1.19-.33-.51-.5-1.08-.5-1.69,0-1.32.71-2.42,2.2-3.21h0ZM97.92,67.53c.06.31.19.56.38.76.3.31.73.43,1.28.43.27,0,.53-.06.79-.17.27-.12.51-.27.72-.48h0c.24-.24.64-.25.88,0,.48.46,1.19,1.13,1.19,1.13l-.47.45c-.43.42-.91.74-1.45.96-.55.23-1.1.34-1.66.34-.82,0-1.51-.16-2.09-.47-.61-.33-1.08-.8-1.4-1.43-.3-.59-.46-1.29-.46-2.12v-.85c0-.85.15-1.58.44-2.18.31-.65.76-1.14,1.34-1.48.57-.33,1.24-.5,2.04-.5s1.41.17,1.95.5c.55.34.98.82,1.27,1.47.27.59.41,1.31.41,2.14v1.49h-5.16,0ZM89.17,67.53c.06.31.19.56.38.76.3.31.73.43,1.28.43.27,0,.53-.06.79-.17.27-.12.51-.27.72-.48h0c.24-.24.64-.25.88,0,.48.46,1.19,1.13,1.19,1.13l-.47.45c-.43.42-.91.74-1.45.96-.55.23-1.1.34-1.66.34-.82,0-1.51-.16-2.09-.47-.61-.33-1.08-.8-1.4-1.43-.3-.59-.46-1.29-.46-2.12v-.85c0-.85.15-1.58.44-2.18.31-.65.76-1.14,1.34-1.48.57-.33,1.24-.5,2.04-.5s1.41.17,1.95.5c.55.34.98.82,1.27,1.47.27.59.41,1.31.41,2.14v1.49h-5.16,0ZM118.62,62.33c.52-.26,1.13-.4,1.82-.4,1.03,0,1.83.35,2.39,1.03.53.63.82,1.52.82,2.68v5.21h-2.31v-5.21c0-.48-.1-.86-.35-1.12-.24-.25-.59-.36-1.04-.36s-.78.09-1.01.32c-.23.22-.32.54-.32.94v5.43h-2.31v-8.81h2.03c.16,0,.29.13.29.29h0ZM80.3,62.33c.52-.26,1.13-.4,1.82-.4,1.03,0,1.83.35,2.39,1.03.53.63.82,1.52.82,2.68v5.21h-2.31v-5.21c0-.48-.1-.86-.36-1.12-.24-.25-.59-.36-1.03-.36s-.78.09-1.01.32c-.23.22-.32.54-.32.94v5.43h-2.31v-8.81h2.03c.16,0,.29.13.29.29h0ZM112.01,62.04v8.81h2.31v-7.9c0-.24-.1-.47-.27-.64-.17-.17-.4-.27-.64-.27h-1.4ZM47.97,59.01h4.73c.75,0,1.37.61,1.37,1.36v.87h-5.77v2.61h3.59c.36,0,.71.14.97.4.26.26.4.6.4.96v.87h-4.96v2.53h4.4c.36,0,.71.14.97.4.26.26.4.6.4.96v.87h-8.08v-11.84h1.99ZM0,59.01h4c1.01,0,1.84.16,2.51.48.73.34,1.27.86,1.63,1.54.34.64.52,1.44.52,2.4v3c0,.96-.18,1.76-.52,2.4-.36.68-.91,1.19-1.64,1.54-.67.31-1.51.48-2.52.48H0v-11.84h0ZM30.63,59.01h4c1.01,0,1.84.16,2.51.48.73.34,1.27.86,1.63,1.54.34.64.52,1.44.52,2.4v3c0,.96-.18,1.76-.52,2.4-.36.68-.91,1.19-1.63,1.54-.67.31-1.51.48-2.52.48h-3.99v-11.84h0ZM57.85,62.33c.52-.26,1.13-.4,1.82-.4,1.03,0,1.83.35,2.39,1.03.53.63.82,1.52.82,2.68v5.21h-2.31v-5.21c0-.48-.1-.86-.35-1.12-.24-.25-.59-.36-1.04-.36s-.78.09-1.01.32c-.23.22-.32.54-.32.94v5.43h-2.31v-8.81h2.03c.16,0,.29.13.29.29h0ZM73.69,62.04v8.81h2.31v-7.9c0-.24-.1-.47-.27-.64-.17-.17-.4-.27-.65-.27h-1.4ZM106.96,62.39c.54-.3,1.14-.45,1.78-.45.42,0,.81.06,1.15.19.36.13.68.32.95.57l.42.39-1.48,1.9-.51-.52c-.09-.09-.21-.16-.34-.21-.18-.06-.38-.09-.61-.09-.44,0-.79.09-1.04.33-.23.23-.33.55-.33.95v5.41h-2.31v-8.81h1.97c.09,0,.18.04.24.1s.1.15.1.24h0ZM130.16,65.4c0-.23-.05-.44-.16-.65-.1-.2-.25-.35-.45-.48-.2-.12-.43-.18-.69-.18-.43,0-.76.11-1,.36-.25.28-.35.68-.35,1.19v1.64c0,.49.1.89.35,1.16.23.25.57.36,1,.36.26,0,.48-.06.68-.18.2-.13.35-.29.45-.5.11-.21.16-.43.16-.66v-2.06h0ZM69.39,65.4c0-.23-.05-.44-.16-.65-.1-.2-.25-.35-.45-.48-.2-.12-.43-.18-.69-.18-.43,0-.77.11-1,.36-.25.28-.35.68-.35,1.19v1.64c0,.49.1.89.35,1.16.23.25.57.36,1,.36.26,0,.48-.06.68-.18.2-.13.35-.29.45-.5.11-.21.16-.43.16-.66v-2.06h0ZM18.47,66.12c-.3.16-.55.34-.76.54-.29.29-.45.61-.45.96,0,.31.11.56.35.77.31.27.73.38,1.25.38.58,0,1.11-.14,1.58-.42.06-.04.12-.07.17-.11-.71-.66-1.43-1.36-2.14-2.12ZM2.31,61.25v7.37h1.73c.79,0,1.38-.15,1.78-.52.38-.35.53-.9.53-1.61v-3.12c0-.71-.16-1.26-.53-1.61-.39-.37-.99-.52-1.78-.52h-1.73ZM32.95,61.25v7.37h1.73c.79,0,1.39-.15,1.78-.52.38-.35.53-.9.53-1.61v-3.12c0-.71-.16-1.26-.53-1.61-.39-.37-.99-.52-1.78-.52h-1.73ZM100.91,65.78c-.06-.45-.17-.83-.36-1.13-.26-.4-.63-.58-1.1-.58-.54,0-.96.19-1.26.64-.19.28-.31.64-.38,1.06h3.09,0ZM92.16,65.78c-.06-.45-.17-.83-.36-1.13-.26-.4-.63-.58-1.09-.58-.54,0-.97.19-1.26.64-.19.28-.31.64-.38,1.06h3.09,0ZM19.15,63.47c.69-.35,1.08-.74,1.08-1.27,0-.17-.06-.31-.19-.44-.17-.18-.4-.27-.67-.27-.21,0-.39.06-.55.18-.18.14-.27.32-.27.55,0,.27.11.55.3.85.08.13.18.26.3.4ZM112.01,59.01v2.31h2.31v-1.4c0-.24-.1-.47-.27-.64s-.4-.27-.64-.27h-1.4ZM73.69,59.01v2.31h2.31v-1.4c0-.24-.1-.47-.27-.64-.17-.17-.4-.27-.64-.27h-1.4ZM126.85,4.35c1.61-2.61,4.5-4.35,7.79-4.35,5.04,0,9.14,4.08,9.14,9.11s-4.1,9.11-9.14,9.11c-3.29,0-6.18-1.74-7.79-4.35h-20.93v12.75h17.41c1.45,0,2.83.57,3.86,1.59,1.02,1.02,1.6,2.4,1.6,3.84v4.1h-22.86v12.42h20.91c3.12,0,5.65,2.52,5.65,5.63v3.9H0V9.17c0-1.28.51-2.51,1.42-3.41s2.14-1.41,3.42-1.41h122.01ZM48.01,40.84c-1.44.71-3.06,1.12-4.78,1.12-1.5,0-2.93-.31-4.23-.86-.27,2.87-.95,5.37-2,7.49h11.01v-7.74h0ZM87.04,40.87c-.26,2.97-.94,5.54-2.03,7.72h11.01v-7.5c-1.31.56-2.75.88-4.26.88-1.69,0-3.3-.39-4.73-1.09h0ZM66.24,13.88h-8.33v34.71h8.33c3.74,0,6.58-.74,8.44-2.48,1.81-1.69,2.58-4.29,2.58-7.7v-14.34c0-3.41-.78-6-2.58-7.7-1.86-1.74-4.7-2.48-8.44-2.48h0ZM9.89,13.88v34.71h8.33c3.74,0,6.58-.74,8.44-2.48,1.81-1.69,2.58-4.29,2.58-7.7v-14.34c0-3.41-.77-6-2.58-7.7-1.86-1.74-4.7-2.48-8.44-2.48h-8.33,0ZM43.23,26.81c2.45,0,4.44,1.98,4.44,4.42s-1.99,4.42-4.44,4.42-4.44-1.98-4.44-4.42,1.99-4.42,4.44-4.42ZM91.76,26.81c2.45,0,4.44,1.98,4.44,4.42s-1.99,4.42-4.44,4.42-4.44-1.98-4.44-4.42,1.99-4.42,4.44-4.42ZM48.01,21.62v-7.74h-10.99c1.04,2.13,1.71,4.62,1.98,7.49,1.3-.55,2.73-.86,4.23-.86,1.72,0,3.34.4,4.78,1.12h0ZM96.03,21.38v-7.5h-10.99c1.07,2.18,1.75,4.75,2,7.72,1.43-.7,3.03-1.09,4.73-1.09,1.51,0,2.96.31,4.26.88h0ZM134.64,6.3c1.56,0,2.82,1.26,2.82,2.81s-1.26,2.81-2.82,2.81-2.82-1.26-2.82-2.81,1.26-2.81,2.82-2.81Z"/>
  </g>
</svg>