<?xml version="1.0" encoding="UTF-8"?>
<svg id="Layer_2" data-name="Layer 2" xmlns="http://www.w3.org/2000/svg" viewBox="0 0 204.17 45.73">
  <defs>
    <style>
      .cls-1 {
        fill: #f6f9fd;
      }
    </style>
  </defs>
  <g id="Layer_1-2" data-name="Layer 1">
    <g>
      <g>
        <path class="cls-1" d="M.19,37.64c.74-3.02,1.44-6.04,2.16-9.06,1.49-6.24,3.01-12.47,4.44-18.73.62-2.7,1.65-5.12,3.75-7C12.12,1.44,13.88.4,16.01.11c.11-.02,1.1-.1,1.2-.1,58.25,0,116.5,0,174.75,0,.19,0,1.28.1,1.41.11,1.74.11,3.08.96,4.09,2.32,1.32,1.79,1.52,3.83,1.02,5.92-2.23,9.47-4.57,18.91-6.71,28.4-.99,4.4-5.37,9.37-11.45,8.95-57.64,0-115.28,0-172.91.01-1.88,0-3.65-.25-5.19-1.44h0s-.07-.07-.1-.11c-.95-.91-1.58-1.99-1.88-3.29-.07-.33-.47-1.53-.05-3.25h0ZM180.58,42.89c2.28-.2,4.15-1.25,5.7-2.87,1.17-1.22,1.89-2.67,2.26-4.34.51-2.35,1.15-4.67,1.72-7,1.46-6.01,2.92-12.02,4.35-18.04.33-1.38.83-2.72.68-4.2-.13-1.26-.66-2.23-1.7-2.92-.9-.6-1.91-.75-2.97-.75H18.86c-3.9,0-7.65,2.96-8.57,6.76-1.29,5.31-2.57,10.63-3.86,15.94-.98,4.04-1.98,8.08-2.91,12.14-.65,2.85.5,4.84,3.92,5.28.4.05.7.08.9.08h97.04c24.79,0,74.95.07,75.22-.09h0Z"/>
        <path class="cls-1" d="M77.26,34.18c.87.23,1.74.47,2.68.72-.47-.69-.23-1.33-.09-1.95,1.47-6.41,2.96-12.82,4.43-19.23.09-.41.24-.81.19-1.25v-.11c0-.55-.3-.87-.81-1.02-.88-.27-1.77-.54-2.65-.81-.14-.04-.27-.09-.39-.21h.35c5.73,0,11.46,0,17.19.01.73,0,1.48.09,2.18.31,1.16.36,1.89,1.13,2.14,2.33.03.04.16,2.25-.13,3.3-.54,1.99-1.08,4.01-3.38,4.78,2.03.39,2.52,1.68,2.45,2.55l.02.6c-.03,3.76-.67,5.41-1.96,8.2-.82,1.77-2.26,2.72-4.24,2.73-1.82.01-3.64.01-5.45.02-2.82,0-5.64.01-8.47.02-1.35-.03-2.7-.06-4.05.01-.22,0-.44-.03-.66-.03-2.45,0-4.9,0-7.34,0-.82-.12-1.19-.61-1.22-1.68-.02-.64-.02-1.29-.02-1.92,0-.03,0-.06,0-.1,0-.56-.02-1.12-.02-1.68,0-.29-.12-.37-.39-.37-1.93,0-3.87,0-5.8,0-.18,0-.32.01-.41.21-.45,1.06-.95,2.1-1.37,3.17-.28.72.08,1.26.85,1.42.28.06.56.12.84.18.84.21,1.68.42,2.51.63-.12.21-.33.12-.51.12-.78.02-1.56.03-2.33.04-2.16,0-4.33-.01-6.49-.02-.08,0-.58,0-1.29-.03-.66-.03-.91-.7-.69-1.33.31-.86.78-1.64,1.19-2.45,3.05-5.96,6.12-11.92,9.18-17.88.06-.12.1-.24.15-.37.17-.18.26-.4.29-.64.02-.04.03-.08.05-.12.09-.56-.09-.84-.64-1.01-1.02-.31-2.05-.61-3.07-1.02h13.42c.8,0,1.17.33,1.27,1.12.04.3.08.6.12.9-.04,1.43.09,2.85.14,4.28.14,3.63.29,7.26.46,10.89.08,1.78.05,3.56.29,5.33.12.89.56,1.07,1.45,1.35h0ZM93.39,19.38c1.22.01,1.79-.57,1.98-1.78.1-.49.15-.82.15-.99,0-.91-.33-1.29-1.23-1.33-.69-.03-1.39,0-2.09-.02-.26,0-.36.12-.41.35-.27,1.14-.54,2.28-.82,3.41-.06.27-.02.38.27.37.72-.01,1.43,0,2.14-.01h0ZM67.78,20.91c-.03-1.62-.05-3.24-.08-4.9-.09.05-.12.06-.12.07-1.27,2.81-2.54,5.62-3.82,8.44-.13.28,0,.31.23.31h2.04c1.79,0,1.19.11,1.79,0,.1-.69,0-1.38.03-2.06-.04-.61.02-1.02-.07-1.84h0ZM90.02,29.91h0c.37,0,.75.02,1.12,0,.91-.06,1.69-.35,2.1-1.25.48-1.04.76-2.13.76-3.27,0-.84-.45-1.3-1.3-1.4-.78-.09-1.56-.01-2.34-.06-.42-.03-.56.15-.64.52-.33,1.47-.68,2.94-1.02,4.41-.16.7.13,1.05.87,1.05h.46,0Z"/>
        <path class="cls-1" d="M183.12,17.86c.31.95.63,1.9.94,2.85,0,.14.18.3.01.42-.12.09-.24-.06-.37-.1-.15-.05-.27-.21-.48-.15.02,1.46-.08,2.91-.22,4.47-.46-.59-.84-1.08-1.29-1.65-.06,1.54-.21,2.96-.42,4.36-.05.34-.13.38-.39.14-1-.92-2.13-1.68-3.29-2.38-1.29-.78-2.58-1.55-3.98-2.15-.02-.01-.05-.02-.07-.03,0,.03.01.06.02.09.21.59.42,1.18.61,1.78.05.15.21.34.11.48-.12.16-.32,0-.48-.03-2.03-.47-4.07-.94-6.1-1.41-.96-.22-1.93-.44-2.9-.66-.01.03-.03.07-.04.1,3.8,2.63,7.61,5.26,11.53,7.97-.4-1.24-.75-2.32-1.14-3.54.44.37.76.63,1.08.91,1.61,1.44,3.22,2.87,4.82,4.31.24.21.3.09.39-.1.23-.47.39-.96.54-1.47.16-.57.25-1.17.75-1.57.02-.03.05-.06.07-.08h0c.14-.12.28-.24.46-.4.12.97-.05,1.89-.19,2.79-.34,2.21-.81,4.38-1.5,6.51-.26.78-.25.78-.86.24-3.93-3.49-8.27-6.29-13.28-7.97-3.65-1.23-7.41-1.73-11.25-1.46-2.04.15-4.04.54-5.98,1.21-.13.05-.25.1-.45.04.39-.4.76-.78,1.12-1.16,2.25-2.43,4.27-5.02,5.55-8.11.56-1.36,1.1-4.38.95-5.21-.12-.67-.3-.88-1.15-1.09-1.11-.19-2.13-.24-3.21-.15-.55.04-1.09.17-1.65.26.9-1.12,7.27-4.05,10.58-4.91,3.82-.99,7.66-1.46,11.68-.82-.31-.69-.67-1.27-1.08-1.83-.41-.57-.93-1.01-1.55-1.56.9.17,1.59.52,2.27.87,2.18,1.12,4.12,2.58,5.99,4.14.94.78,1.85,1.59,2.75,2.42.28.27.33.47.09.75-.51.48-.85,1.11-1.34,1.6-.51.51-.58.96-.19,1.62.48.8.78,1.7,1.2,2.62.36-.87.69-1.68,1.04-2.49.07-.17.06-.42.31-.48h0ZM178.15,20.05c-3.13-3.11-7.9-4.45-11.21-3.53,0,.01.01.04.02.04.08.03.15.06.24.09,2.63.81,4.94,2.12,6.67,4.33.12.15.25.18.4.14,1.28-.35,2.56-.7,3.89-1.07h0Z"/>
        <path class="cls-1" d="M19.15,12.32c.02-.55-.31-.81-.78-.98-.83-.3-1.65-.61-2.45-1.02h.44c5.71,0,11.43,0,17.15,0,.6,0,1.22.03,1.81.14,1.48.28,2.48,1.16,2.95,2.61-.02.09.03.15.09.21h0c.21,1.02.3,2.05.21,3.09-.26,3.24-.94,6.41-1.8,9.54-.51,1.88-1.06,3.76-2.03,5.48-1.35,2.39-3.4,3.69-6.14,3.72-4.37.06-8.74.03-13.11.03-.99-.14-1.31-.61-1.09-1.58,1.55-6.7,3.1-13.41,4.64-20.11.02-.08.14-.74.11-1,0-.04,0-.09,0-.13h0ZM24.39,29.91c.78,0,1.56.03,2.26-.4.79-.49,1.1-1.31,1.38-2.13.75-2.18,1.22-4.44,1.74-6.69.27-1.17.53-2.34.51-3.55-.01-1.11-.56-1.7-1.65-1.83-.56-.06-1.12-.02-1.68-.06-.36-.02-.49.11-.57.46-.97,4.34-1.96,8.68-2.95,13.01-.27,1.17-.26,1.17.95,1.17h0Z"/>
        <path class="cls-1" d="M132.04,35.45c-1.71,0-3.4-.06-5.05-.56-2.29-.69-3.9-2.24-3.89-5.22,0-5.25,1.33-10.2,3.77-14.84,1.32-2.5,3.51-3.85,6.22-4.42,1.93-.4,3.89-.51,5.84-.39,1.35.09,2.72.1,4.04.55,2.35.8,3.7,2.33,3.78,4.8.18,5.94-1.14,11.48-4.53,16.46-1.27,1.87-3.1,2.72-5.2,3.17-1.64.35-3.3.45-4.97.44h0ZM133.32,30.22c.75-.01,1.61-.41,2.19-1.34.53-.85.92-1.76,1.26-2.69.99-2.71,1.77-5.47,2.13-8.34.12-.99-.39-2.1-1.2-2.44-1.11-.46-2.49-.07-3.17.91-.23.33-.43.69-.61,1.06-1.02,2.14-1.68,4.4-2.25,6.69-.31,1.25-.62,2.51-.68,3.8-.07,1.45.72,2.33,2.33,2.34h0Z"/>
        <path class="cls-1" d="M114.61,29.89c.93,0,1.87.03,2.8,0,.85-.03,1.44-.45,1.8-1.24.57-1.25,1.21-2.48,1.82-3.71.05-.1.08-.21.22-.28-.54,2.41-1.08,4.8-1.62,7.18-.17.64-.32,1.28-.52,1.91-.3.96-.83,1.38-1.83,1.38-4.12.02-8.24,0-12.37.01-.97-.14-1.26-.57-1.04-1.54,1.48-6.68,3.05-13.35,4.6-20.01.02-.1.18-.85.15-1.14.04-.1,0-.18-.04-.27-.04-.48-.35-.71-.76-.84-1.02-.32-2.05-.63-3.08-.94.05-.13.15-.09.21-.09h10.69c.79,0,1.35.53,1.2,1.15-.06.24-.16.88-.18.97-.57,2.39-1.13,4.79-1.68,7.18-.77,3.29-1.53,6.58-2.3,9.86-.08.33-.04.45.33.43.54-.03,1.09-.02,1.63-.02h0Z"/>
        <path class="cls-1" d="M41.31,35.15c-.99-.14-1.29-.61-1.07-1.59,1.14-4.96,2.28-9.93,3.42-14.89.42-1.85.85-3.7,1.28-5.55.05-.21.09-.43.06-.66,0-.05,0-.11-.01-.16.02-.53-.3-.79-.75-.96-.87-.31-1.74-.62-2.6-1.01.14,0,.27-.03.41-.03,3.21,0,6.42.02,9.63-.01,1.1-.01,1.86.35,1.44,1.86-.03.09-.03.2-.05.3-.03.09-.08.19-.1.29-.92,3.98-1.84,7.96-2.75,11.94-.59,2.56-1.16,5.12-1.75,7.68-.29,1.24.36,1.58,1.57,1.92.88.31,1.79.51,2.7.72-.12.21-.33.12-.5.12-.81.02-1.62.03-2.42.04-.22,0-.44-.03-.66-.03h-7.83Z"/>
      </g>
      <g>
        <path class="cls-1" d="M201.9,4.55c-1.25,0-2.27-1.02-2.27-2.27S200.64,0,201.9,0s2.27,1.02,2.27,2.27-1.02,2.27-2.27,2.27ZM201.9.41c-1.03,0-1.86.84-1.86,1.86s.84,1.86,1.86,1.86,1.87-.84,1.87-1.86-.84-1.86-1.87-1.86Z"/>
        <path class="cls-1" d="M202.47,3.41l-.49-.84h-.43v.84h-.38V1.14h.89c.22,0,.4.07.55.2s.22.31.22.52c0,.15-.04.29-.12.41s-.2.2-.34.26l.53.9h-.42,0ZM201.55,1.48v.73h.49c.12,0,.22-.03.3-.1s.11-.16.11-.27-.04-.19-.11-.27-.17-.1-.3-.1h-.49Z"/>
      </g>
    </g>
  </g>
</svg>