<?xml version="1.0" encoding="UTF-8"?>
<svg id="Layer_2" data-name="Layer 2" xmlns="http://www.w3.org/2000/svg" viewBox="0 0 110.27 55.14">
  <defs>
    <style>
      .cls-1 {
        fill: #f6f9fd;
      }
    </style>
  </defs>
  <g id="Layer_1-2" data-name="Layer 1">
    <g>
      <path class="cls-1" d="M13.64,1.29c1.59.86,2.82,2.06,3.71,3.6.89,1.54,1.34,3.28,1.34,5.24s-.45,3.71-1.34,5.25c-.89,1.55-2.13,2.76-3.73,3.63-1.6.87-3.4,1.31-5.41,1.31H0V0h8.21c2.03,0,3.84.43,5.43,1.29ZM11.59,13.78c.92-.93,1.38-2.15,1.38-3.66s-.46-2.69-1.38-3.61c-.92-.92-2.13-1.38-3.64-1.38h-2.35v10.04h2.35c1.51,0,2.72-.46,3.64-1.39Z"/>
      <path class="cls-1" d="M21.62,0h5.66v20.31h-5.66V0Z"/>
      <path class="cls-1" d="M49.33,0v20.31h-4.61l-8.07-11.03v11.03h-5.43V0h4.88l7.81,10.65V0h5.43Z"/>
      <path class="cls-1" d="M64.68,20.31l-5.8-8.97v8.97h-5.6V0h5.6v8.56l5.37-8.56h6.47l-6.5,9.84,7.11,10.48h-6.65Z"/>
      <path class="cls-1" d="M85.26,17.01h-7.2l-1.13,3.31h-5.98L78.93,0h5.46l8.15,20.31h-6.15l-1.13-3.31ZM81.66,6.33l-2.23,6.3h4.47l-2.23-6.3Z"/>
      <path class="cls-1" d="M13.64,36.12c1.59.86,2.82,2.06,3.71,3.6.89,1.54,1.34,3.28,1.34,5.24s-.45,3.71-1.34,5.25c-.89,1.55-2.13,2.76-3.73,3.63-1.6.87-3.4,1.31-5.41,1.31H0v-20.31h8.21c2.03,0,3.84.43,5.43,1.29ZM11.59,48.61c.92-.93,1.38-2.15,1.38-3.66s-.46-2.69-1.38-3.61c-.92-.92-2.13-1.38-3.64-1.38h-2.35v10.04h2.35c1.51,0,2.72-.46,3.64-1.39Z"/>
      <path class="cls-1" d="M34.85,50.29v4.85h-13.23v-20.31h13v4.85h-7.43v2.99h6.67v4.58h-6.67v3.05h7.66Z"/>
      <path class="cls-1" d="M56.18,34.82v20.31h-4.61l-8.07-11.03v11.03h-5.43v-20.31h4.88l7.81,10.65v-10.65h5.43Z"/>
      <path class="cls-1" d="M75.36,39.87h-5.54v15.26h-5.6v-15.26h-5.51v-5.05h16.66v5.05Z"/>
      <path class="cls-1" d="M88.13,51.83h-7.2l-1.13,3.31h-5.98l7.98-20.31h5.46l8.15,20.31h-6.15l-1.13-3.31ZM84.53,41.15l-2.23,6.3h4.47l-2.23-6.3Z"/>
      <path class="cls-1" d="M110.27,50v5.14h-12.88v-20.31h5.66v15.18h7.23Z"/>
    </g>
  </g>
</svg>