<?xml version="1.0" encoding="UTF-8"?>
<svg id="Layer_2" xmlns="http://www.w3.org/2000/svg" version="1.1" viewBox="0 0 97.3 97.3">
  <!-- Generator: Adobe Illustrator 29.1.0, SVG Export Plug-In . SVG Version: 2.1.0 Build 142)  -->
  <defs>
    <style>
      .st0 {
        fill: #fff;
      }

      .st1 {
        fill: #f6f9fd;
      }
    </style>
  </defs>
  <g id="Layer_1-2">
    <g>
      <g>
        <path class="st1" d="M48.7,0C21.8,0,0,21.8,0,48.7s21.8,48.6,48.7,48.6,48.6-21.8,48.6-48.6S75.5,0,48.7,0ZM48.7,96.3h0c-26.3,0-47.7-21.3-47.7-47.7S22.3,1,48.7,1s47.7,21.4,47.7,47.7-21.4,47.7-47.7,47.7Z"/>
        <path class="st1" d="M48.7,2.9C23.4,2.9,2.9,23.4,2.9,48.7s20.5,45.7,45.7,45.7,45.7-20.5,45.7-45.7S73.9,2.9,48.7,2.9ZM76.3,17.7h0c-.2-.2,0-.4,0-.6.4-.5.7-.6,1.1,0,.5.6,1,1.1,1.6,1.6.3.2.3.5,0,.8-1.3,2.2-2.5,4.5-3.8,6.8.2.1.4,0,.5-.2,1.2-1.2,2.5-2.4,3.7-3.6.3-.3.5-.6.3-1.1-.2-.4.3-.6.5-.8.2-.3.4,0,.5.2.5.5,1,1,1.4,1.5.1.1.4.3.1.5-.3.2-.4.8-.8.5-.5-.3-.9,0-1.2.2-2.2,2.1-4.4,4.2-6.5,6.4-.4.4-.6.4-1,0-1.1-1.2-1.1-1.2-.3-2.6,1.2-2.2,2.5-4.5,3.7-6.7h-.1c-1.6,1.5-3.2,3-4.9,4.6-.3.3-.5.6-.2,1,.2.3,0,.4-.1.5-.4.5-.7.5-1.1,0-.4-.5-.8-.9-1.3-1.3-.2-.2-.4-.4,0-.6.2-.2.4-.7.8-.4.4.3.7.2,1-.1,1.9-1.8,3.8-3.7,5.7-5.5.3-.3.5-.6.2-1ZM69,11.2c2.2,0,3.7,2.2,2.8,4.5-.8,2.2-1.9,4.2-3.4,6.1-1.6,2-4.4,1.8-5.5-.5-.4-.9-.3-1.8,0-2.6.8-2.2,1.9-4.2,3.3-6,.6-.8,1.5-1.5,2.7-1.4ZM54.9,18.5c.1-.2,0-.8.5-.7.8.2,1-.4,1.2-1,.7-2.6,1.4-5.2,2.1-7.7.2-.6,0-.7-.5-.7-.6,0-.9.2-1.1.7-.3.6-.5,1.3-.6,1.9-.1.5-.4.3-.6.2-.3,0-.5-.2-.3-.5.3-1.2.7-2.4.9-3.5,0-.3.2-.4.5-.3,2.1.6,4.3,1.2,6.4,1.7.3,0,.5.2.3.5-.3,1.1-.7,2.3-.9,3.5-.1.4-.3.4-.6.3-.3,0-.5-.2-.3-.6.2-.7.4-1.3.4-2,0-.4-.1-.8-.5-1-.4-.3-.7-.3-.9.3-.7,2.6-1.4,5.2-2.1,7.8-.1.6-.1,1.1.6,1.3.6.2.1.6.1.8,0,.3-.2.4-.5.3-1.2-.3-2.4-.7-3.5-1-.3,0-.5-.2-.3-.5h0ZM44.5,6.2h0c.9,0,1.8,0,2.7,0,.4,0,.5.3.5.5.8,2.3,1.5,4.6,2.2,6.9,0,.2,0,.5.2.6v-6.1c0-.3-.1-.6-.4-.6-.7-.1-.5-.7-.5-1,0-.5.5-.3.8-.3.6,0,1.2,0,1.8,0,.2,0,.5-.1.5.2,0,.3.3.8-.2.9-.6.2-.7.6-.7,1.1,0,3,0,6,.2,9,0,.5-.1.7-.7.7-1.6,0-1.6,0-2.1-1.5-.8-2.5-1.6-4.9-2.5-7.5v6.1c0,.4,0,.7,0,1.1,0,.3.1.6.4.6.5,0,.4.5.4.8,0,.4-.2.5-.6.5-.7,0-1.3,0-2,0-.2,0-.5.1-.5-.2,0-.3-.3-.8.2-1,.6-.2.7-.6.6-1.1,0-2.6,0-5.1-.1-7.7,0-.3,0-.8-.4-.8-.6-.1-.5-.5-.5-.9,0-.3,0-.4.4-.4ZM35.8,8.2c1-.2,1.9-.5,3-.8.1,0,.1.2.2.3,0,.3.4.7,0,.9-.4.2-.5.6-.4,1,.7,2.5,1.3,5,2,7.5.1.4.3.8.9.8.5,0,.4.5.5.8.2.4-.2.4-.3.4-1,.3-1.9.5-2.9.8-.2,0-.5.2-.5-.1,0-.3-.5-.7,0-1s.5-.6.4-1c-.7-2.6-1.4-5.1-2-7.6-.1-.4-.3-.7-.8-.6-.3,0-.4,0-.4-.3-.2-.5-.2-.9.5-1ZM24.5,13.6c.9-.5,1.8-1,2.7-1.5.2-.1.5-.3.6,0,0,.3.7.5.2.9-.5.3-.4.7-.2,1.2,1.3,2.4,2.7,4.8,4,7.3,0,.1,0,.3.3.3.7-.1,1.8-1.3,1.8-2.3,0-.5-.3-1.2-.6-1.8-.2-.4,0-.5.3-.7.3-.2.5-.2.6.2.6,1.1,1.2,2.2,1.8,3.3.1.3.1.4-.2.6-1.9,1-3.8,2.1-5.7,3.1-.2,0-.4.2-.5,0s-.7-.5-.2-.9c.4-.4.3-.7,0-1.1-1.2-2.3-2.5-4.5-3.8-6.8-.2-.4-.4-.7-1-.5-.6.2-.5-.5-.7-.8-.2-.3.2-.3.4-.4ZM17.5,19.4c.5-.5,1.1-.7,1.9-.6,0-.2,0-.4-.1-.5-.1-.4.2-.5.3-.6.2-.2.3,0,.5.2.8.8,1.7,1.6,2.5,2.4.3.3.3.5,0,.8-.2.2-.4.5-.8.1-.4-.4-.9-.8-1.4-1.1-.5-.3-1.1-.4-1.6.1-.4.5-.4,1,0,1.5,1.5,2.1,3.3,3.9,5.4,5.4.5.3,1,.4,1.5,0,.5-.5.5-1,.2-1.6-.4-.8-1-1.3-1.7-1.9-.3-.2-.2-.4,0-.6.2-.1.3-.7.7-.3.8.7,1.6,1.5,2.1,2.5.5,1.2.3,2.2-.7,3.1-1,.9-2,1.2-3.1.6-2.6-1.4-4.6-3.5-6.1-6-.8-1.3-.6-2.5.3-3.4ZM11.6,54.6c0-.7.4-1.2,1.1-1.4,0,0,0-.2,0-.4v-8.9c0-.1,0-.2,0-.3-.7-.1-1.1-.7-1.1-1.4v-.3c0-.2,0-.4,0-.6,0-.5.6-1.1,1.2-1.1h.3c.4,0,.8,0,1.2,0,.4,0,.8,0,1.2,0h0c.8,0,1.8,0,2.8.2,1.1.2,2.1.8,2.8,1.8,2.9-12.5,14.1-21.9,27.5-21.9s23.5,8.5,27,20c.2-.1.4-.2.7-.2h0s4.4,0,4.4,0c.5,0,.8.2.9.4.2.2.4.5.3,1v.4c0,.9-.5,1.5-1.2,1.7v9.6c.4,0,.7,0,1-.2.4-.2.5-.4.5-.5.1-.7.2-1.4.3-2.1,0-.1,0-.2,0-.3h0s0,0,0,0c0,0,0,0,0-.1,0,0,0-.2.1-.2h0c0,0,0,0,0,0h0c0,0,0-.1,0-.1.2-.2.5-.3.9-.3h.3c.4,0,.8,0,1.2.4.4.4.3.8.3,1.1v2.1c0,.8,0,1.7,0,2.5,0,.4-.1.8-.4,1-.4.4-.9.4-1,.4h-7.8c-.3,0-.5,0-.8-.2-3.4,11.7-14.2,20.3-27.1,20.3s-24.7-9.4-27.5-22c0,0-.1.1-.2.2-.9,1-2.1,1.6-3.6,1.7-1,0-2,0-3,0h-1.5c-.5,0-.8-.2-.9-.4-.2-.2-.3-.5-.3-1v-.8ZM13.8,70.7h0c.2.5-.4.5-.6.7-.3.2-.4-.1-.5-.3-.5-.8-1-1.6-1.4-2.4,0-.1-.3-.4,0-.5s.6-.7.9-.3c.4.4.7.3,1.1,0,2.1-1.2,4.2-2.4,6.4-3.7.4-.2.7-.4.5-1-.2-.5.4-.5.7-.6.3-.2.4.1.4.3.5.8.9,1.6,1.4,2.4,0,.2.4.4,0,.5-.3.1-.5.7-.9.2-.4-.4-.7-.2-1.1,0-2.1,1.2-4.2,2.4-6.3,3.6-.3.2-.7.4-.5.9ZM19.9,79.9h0c-.9-1-.9-1-.3-2.2,1.1-2.1,2.3-4.2,3.4-6.2,0-.1.1-.3.2-.4,0,0,0,0,0,0-1.4,1.3-2.7,2.6-4,3.9-.5.5-1.3.8-.8,1.8.1.2-.4.5-.6.7-.2.2-.3-.1-.4-.2-.4-.5-.9-.9-1.3-1.4-.1-.1-.5-.3-.2-.5.2-.2.4-.8.8-.4.4.3.7,0,1-.2,1.8-1.7,3.6-3.5,5.4-5.2.2-.2.5-.5.2-.8-.4-.6.2-.7.4-1,.3-.3.4.2.6.3.4.4.8.9,1.3,1.3.5.4.5.8.1,1.3-1.2,2.1-2.3,4.2-3.4,6.4,1.4-1.4,2.8-2.7,4.2-4.1.2-.2.3-.5.2-.7-.4-.6.2-.8.4-1,.4-.3.5.2.7.3.4.4.8.8,1.2,1.2.1.1.4.2.2.5-.2.2-.4.7-.8.5-.6-.4-.9,0-1.3.4-2,1.9-4,3.8-6,5.8-.5.4-.7.5-1.2,0ZM34,81.2h0c-.3-.1-.4-.3-.2-.6.3-.5.7-1.1.9-1.7.1-.3.1-.7,0-1-.4-.6-.7-.6-1.1,0-1.3,2.1-2.6,4.3-3.9,6.4-.3.5-.5,1,.2,1.4.4.3,0,.5-.2.8,0,.3-.3.3-.5.1-1-.6-2-1.2-3-1.8-.3-.2-.3-.4-.1-.6.2-.2.2-.7.7-.4.6.4,1,0,1.2-.5,1.3-2.2,2.6-4.3,3.9-6.5.1-.2.4-.4.2-.6-.2-.2-.6-.4-1-.3-.4,0-.6.3-.8.6-.2.3-.5.6-.7,1q-.5.8-1.2.2c.7-1.1,1.3-2.2,2-3.3.1-.2.2-.4.5-.2,1.8,1.1,3.6,2.2,5.4,3.3.2.1.4.2.2.6-.6,1-1.2,2-1.8,3-.2.4-.4.2-.6,0ZM44.4,80.3h0c-.2.8-.4,1.6-.6,2.4,0,.3,0,.7-.5.6-.5,0-.5-.4-.5-.8,0-.1,0-.2,0-.2,0-1.3-.9-2.3-2.2-2.4-.3,0-.3.2-.4.4-.2.9-.4,1.9-.7,2.8-.1.5,0,.6.5.6.7,0,1-.3,1.2-.9.1-.4.3-.5.7-.4.4.1.3.4.2.6-.3,1.1-.6,2.2-.8,3.3,0,.2,0,.5-.4.4-.3,0-.6-.1-.5-.6,0-.3,0-.6,0-.9-.2-.4-.5-.6-.9-.6-.4,0-.3.4-.4.7-.3.9-.5,1.9-.7,2.8,0,.4,0,.6.4.7,1.8.4,2.6,0,3.2-1.9.1-.4.2-.6.7-.5.5.2.3.5.2.7-.2,1-.5,2-.7,3.1,0,.4-.2.6-.7.5-1.9-.5-3.9-1-5.8-1.5-.2,0-.6,0-.4-.4,0-.3,0-.8.5-.8.4,0,.6-.3.7-.6.6-2.5,1.2-4.9,1.8-7.4,0-.3,0-.6-.2-.8-.6-.3-.3-.7-.2-1,.2-.5.5-.1.7,0,1.8.4,3.7.9,5.5,1.3.5.1.6.3.4.7ZM53.1,91.4h0c-.8,0-1.3-.5-1.5-1.3-.2-.8-.2-1.7-.3-2.5-.1-1-.5-1.5-1.4-1.5-.4,0-.6,0-.5.5,0,.9,0,1.8.2,2.7,0,.4,0,.8.6.8.7,0,.4.5.5.9,0,.4-.4.3-.6.3-.9,0-1.8,0-2.7.1-.2,0-.5.1-.5-.2,0-.3-.4-.8.2-.9.4-.1.5-.4.5-.8-.1-2.5-.2-5-.3-7.4,0-.4,0-.8-.7-.9-.4,0-.2-.6-.3-.9,0-.3.2-.2.4-.3,1.2,0,2.4-.2,3.6-.2,1.8,0,2.8.6,3.2,1.9.5,1.7,0,2.9-1.6,3.9,1.4.4,1.4,1.7,1.6,2.8,0,.4.1.8.2,1.2,0,.2.1.4.4.4.2,0,.3-.2.3-.4,0-.2,0-.5,0-.7,0-.2,0-.3.3-.3.2,0,.3,0,.4.2.5,1.3-.4,2.7-1.9,2.6ZM62.4,89.1c-1,.3-2,.6-3,.8-.2,0-.2-.2-.2-.3,0-.3-.4-.6,0-.8.5-.2.5-.6.4-1-.7-2.5-1.4-4.9-2.1-7.4,0-.3-.2-.5-.6-.5-.7.1-.6-.4-.7-.8-.1-.5.3-.4.6-.4.8-.2,1.6-.5,2.5-.7.2,0,.5-.3.6.2,0,.3.5.6,0,.9-.5.2-.4.6-.3,1,.7,2.4,1.3,4.7,2,7,.1.4.3.8.8.8.5,0,.4.5.5.8.1.3-.2.4-.4.4ZM70.6,85.8h0c-1.1.8-2.3.9-3.4.2-.5-.4-1-.8-1.3-1.3-1.2-1.7-2.3-3.4-3-5.3-.1-.4-.2-.8-.2-1.2,0-1.4.7-2.2,1.8-2.7,1-.5,2-.4,3,.3.6.4,1,1,1.4,1.6,1.1,1.7,2.3,3.4,2.9,5.4.3,1.2-.1,2.3-1.1,3ZM81.6,76.3c-.6,1-1.5,1.1-2.4.6-.8-.5-1.4-1.2-2.2-1.7-.7-.5-1.2-.5-1.8,0-.2.2-.3.4,0,.6.7.6,1.4,1.3,2.1,2,.3.3.6.4,1,.1.4-.3.5.2.8.4.3.2,0,.4,0,.5-.7.7-1.3,1.4-2,2.1-.1.1-.2.4-.4.2-.2-.2-.8-.3-.5-.8.2-.5,0-.8-.3-1.1-1.8-1.7-3.6-3.3-5.4-5-.3-.3-.6-.5-1-.2-.4.3-.5-.2-.8-.4-.2-.1-.1-.3,0-.5,1-1,1.8-2.1,2.9-3,1.9-1.6,4.5-.5,4.9,1.9,0,.5-.1,1-.2,1.6,1.2-.6,2.1,0,2.9.7.4.3.8.6,1.2.9.2.1.4.2.5,0,.2-.2,0-.4,0-.5-.2-.2-.4-.4-.6-.6-.1-.1-.1-.3,0-.4.1,0,.2-.2.4-.2.9.3,1.5,1.9,1,2.7ZM85.5,69.7h0c-.4.2-.5.3-.2.6.3.3.1.6,0,.8-.2.3-.5,0-.6,0-1.1-.5-2.1-1.1-3.2-1.6-.3-.1-.6-.2-.4-.7.2-.4.3-.5.8-.3.9.3,1.8.6,2.8.3.9-.2,1.5-1,1.3-1.8-.1-.7-1-1.2-1.9-1-.9.1-1.6.6-2.4.9-.5.2-1.1.5-1.6.7-2.2.7-4.4-.7-4.4-3,0-.9.6-1.7,1.6-2.3.3-.1.6-.2.2-.6-.3-.3,0-.6.2-.8.2-.3.4,0,.6.1.9.4,1.8.9,2.7,1.3.2.1.5.2.3.6-.2.3-.2.5-.7.4-.7-.3-1.4-.4-2.1-.2-.6.1-1,.5-1.3,1-.2.4-.2.8,0,1.2.3.3.6.5,1.1.4.8-.1,1.4-.5,2.1-.8.6-.3,1.2-.5,1.7-.8,1.4-.6,2.8-.3,4,.5,1.9,1.4,1.6,4.1-.6,5.1Z"/>
        <path class="st1" d="M70.2,13.9c-.1.6-.4,1.2-.7,1.7-.8,1.7-1.8,3.4-2.8,5-.3.5-.6,1-1.1,1-.8,0-1.1-.4-1-1.1,0-.5.3-1,.6-1.5.9-1.8,1.8-3.5,2.9-5.1.2-.3.4-.6.7-.8.3-.3.7-.3,1-.1.4.2.5.6.4,1h0Z"/>
        <path class="st1" d="M51.6,83.1c0,.3,0,.7-.2,1.1-.3.5-1.2.9-1.7.7-.5-.2-.3-.7-.3-1.1,0-.8,0-1.5-.1-2.3,0-.4,0-.5.5-.5,1.4-.1,2,.5,2,2.1Z"/>
        <path class="st1" d="M74.9,73.2c0,.5-.5,1-.9,1.4-.2.2-.3,0-.3-.1-.8-.7-1.5-1.4-2.3-2.2-.2-.2-.2-.3,0-.5.5-.4.9-1.1,1.7-.8.9.3,1.9,1.4,1.9,2.2h0Z"/>
        <path class="st1" d="M70,84.1c0,.3,0,.6-.4.8-.3.2-.6.2-.9,0-.3-.2-.5-.4-.7-.7-1.2-1.7-2.2-3.4-3.2-5.3-.2-.4-.4-.8-.4-1.2,0-.7.6-1.1,1.2-.7.3.2.5.4.7.7,1.3,1.8,2.4,3.7,3.4,5.6.2.3.2.6.3.9h0Z"/>
      </g>
      <g>
        <path class="st1" d="M32.9,59.3c0,0-.2,0-.2,0,0,0-.2-.1-.3-.2-.3-.5,0-1.3.8-1.4.4,0,.8,0,1.2,0,.5,0,.8.4.8.8h0c0,.4,0,.7-.6.8.6.2.7.4.6,1.2,0,.4-.4.6-1,.7-.4,0-.8,0-1.2,0-.5,0-.8-.4-.8-.9h0c0-.5.1-.8.6-.9h0ZM33.9,60.4c.1,0,.4,0,.4-.2,0-.2,0-.3,0-.5-.2-.2-.5-.1-.7,0-.2,0-.2.2-.2.4,0,.3.1.4.6.4h0ZM33.8,58.3h-.1c-.3,0-.4.1-.4.3s.1.3.4.3c0,0,.2,0,.3,0,.2,0,.2-.1.2-.3,0-.3,0-.4-.5-.4h0Z"/>
        <path class="st1" d="M38,58.6c0-.3,0-.3-.4-.3s-.6.2-.6.5v.4c.4-.3.9-.2,1.3-.2.5,0,.7.2.8.7,0,.2,0,.4,0,.7,0,.4-.3.7-.8.7-.5,0-1,0-1.5,0-.4,0-.6-.2-.7-.5,0-.2,0-.3-.1-.5,0-.5,0-1,0-1.6,0-.6.4-.8,1-.9.4,0,.7,0,1.1,0,.6,0,.9.4.8.9h-1,0ZM37.6,60.4c.5,0,.6,0,.5-.5h0c0-.2,0-.3-.2-.3h-.6c-.2,0-.3,0-.3.2,0,.5,0,.5.5.5h0,0Z"/>
        <path class="st1" d="M48.3,58.6h-.9c0-.2-.2-.3-.5-.3-.5,0-.5,0-.5.5v.4c.3-.2.7-.2,1.1-.2.6,0,.9.3,1,.8,0,.2,0,.4,0,.5,0,.4-.3.7-.8.8-.5,0-1,0-1.4,0-.4,0-.6-.2-.7-.5,0-.1,0-.2,0-.4,0-.6,0-1.2,0-1.8,0-.5.4-.8,1-.8.4,0,.7,0,1.1,0,.6,0,.9.4.8,1h0ZM46.8,59.6c-.5,0-.6,0-.5.5,0,.2,0,.2.3.2h.5c.2,0,.3,0,.3-.3,0-.5,0-.5-.5-.5h0Z"/>
        <path class="st1" d="M52,58.6h-.9c0-.2-.2-.3-.5-.3-.6,0-.6,0-.6.5v.4c.5-.2.9-.2,1.4-.1.4,0,.6.3.7.6,0,.2,0,.5,0,.7,0,.4-.3.7-.8.8-.5,0-1,0-1.5,0-.3,0-.6-.2-.7-.5,0-.1,0-.2,0-.3,0-.6,0-1.2,0-1.8,0-.5.4-.8,1-.8.4,0,.7,0,1.1,0,.6,0,.9.4.8,1h0ZM50.6,60.4c.5,0,.6,0,.5-.5h0c0-.2,0-.3-.2-.3h-.6c-.2,0-.2,0-.2.2,0,.5,0,.6.5.5Z"/>
        <path class="st1" d="M59.3,60.3h2v.8h-3c0-.4,0-.8,0-1.2,0-.2.3-.4.5-.5.4,0,.8-.2,1.1-.3.3,0,.4-.3.3-.6-.1-.2-.3-.2-.5-.2-.2,0-.4,0-.5.2,0,0,0,.2,0,.3h-.9c-.2-.7.3-1.2,1.1-1.2.4,0,.7,0,1.1,0,.5,0,.8.4.8.9,0,.2,0,.3,0,.5,0,.3-.3.6-.7.7-.4,0-.7.2-1.1.3-.2,0-.3.1-.2.4h0Z"/>
        <path class="st1" d="M41.6,60.1h.9c0,.3.1.3.5.3.6,0,.6,0,.6-.5s0-.5-.6-.5c-.2,0-.3,0-.4.2,0,0,0,0-.1,0h-.8v-1.9h2.8v.6h-1.8v.6c.4-.3.8-.2,1.2-.2.5,0,.7.2.8.7,0,.4,0,.8,0,1.1,0,.3-.2.5-.5.5-.6.1-1.2.2-1.8,0-.5-.1-.8-.5-.7-1h0Z"/>
        <path class="st1" d="M28.6,59.5v-1.9h2.8v.7h-1.8v.6c.4-.3.9-.2,1.3-.2.4,0,.7.2.7.6,0,.4,0,.8,0,1.2,0,.3-.2.5-.5.5-.6.1-1.1.1-1.7,0-.6-.1-.8-.5-.7-1h.9c0,.3.1.4.5.4.6,0,.6,0,.6-.5s0-.5-.6-.5c-.2,0-.4,0-.5.2,0,0,0,0,0,0h-.8Z"/>
        <path class="st1" d="M64.9,57.7v.7h-1.8v.6c.4-.3.9-.2,1.3-.2.4,0,.7.3.7.6,0,.4,0,.8,0,1.1,0,.3-.3.5-.6.6-.6.1-1.1.1-1.7,0-.5-.1-.7-.4-.7-.8,0,0,0-.1.2-.1h.7c.1.1.2.3.3.3.2,0,.5,0,.8,0,0,0,.1-.1.1-.2,0-.2,0-.4,0-.6s0-.2-.2-.2h-.6s0,0,0,0c-.3.3-.7,0-1,.2v-1.9h2.8Z"/>
        <path class="st1" d="M54.4,60.4v-.8s0,0,0-.2c.5-.5.9-1.1,1.4-1.7,0,0,.1-.1.2-.1h1.3v2.1h.5v.7c-.1,0-.3,0-.4,0v.6h-1v-.7h-2ZM56.3,58.4s0,0,0,0c-.3.4-.7.8-1,1.3h1.1v-1.3h0Z"/>
        <path class="st1" d="M65.8,58.4v-.7h2.9c0,.3,0,.6,0,.9-.4.8-.8,1.6-1.2,2.4,0,.1-.1.2-.3.2-.3,0-.5,0-.8,0,.4-.9.9-1.8,1.3-2.7,0,0-1.9,0-1.9,0Z"/>
        <path class="st1" d="M39.5,60.2v-.7h1.5v.7h-1.5Z"/>
        <path class="st1" d="M52.5,59.5h1.5v.7h-1.5v-.7Z"/>
      </g>
      <g>
        <g>
          <path class="st1" d="M56,42.9c-.2,0-.4.4-.5.7-.2.9-.4,1.9-.5,2.8-.2,1.1-.4,2.3-.6,3.4-.1.8-.3,1.6-.4,2.4-.2,1.1-.4,2.2-.5,3.3,0,.2-.1.3-.4.3h-2c-.2,0-.3,0-.4-.3-.2-1.4-.4-2.9-.5-4.3-.2-1.3-.3-2.7-.5-4,0-.2,0-.3-.2-.5,0,.4-.1.9-.2,1.3-.2,1.4-.4,2.8-.6,4.2-.2,1.1-.3,2.3-.5,3.4,0,0-.2.2-.2.2h-2.2c-.2,0-.3-.1-.3-.3-.1-.7-.3-1.4-.4-2-.3-1.4-.5-2.7-.8-4.1-.2-1-.4-2-.6-3-.2-1-.4-1.9-.6-2.9-.1-.5-.4-.7-.8-.7h-.2c-.6,0-.8.2-.9.7-.3.9-.6,1.8-.8,2.7-.3,1-.6,2-.9,3,0,.2-.1.4-.1.6,0,1.2,0,2.3,0,3.5s.2,1,.9,1c.3,0,.5.2.4.5,0,.2,0,.5,0,.7,0,.2,0,.3-.3.3h-4.7c-.2,0-.3,0-.3-.3v-.8c0-.2.1-.3.3-.3,0,0,.2,0,.3,0,.4,0,.7-.3.7-.7,0-.6,0-1.3,0-1.9,0-.2,0-.3,0-.5.1-1.1-.2-2.2-.6-3.2-.5-1.3-.9-2.6-1.4-3.9,0-.3-.2-.5-.3-.8s-.4-.5-.7-.5c-.2,0-.3-.1-.3-.4v-.8c0-.2,0-.3.3-.3h4c.2,0,.3,0,.3.3v.9c0,.2,0,.3-.3.3-.6,0-.7.3-.5.8.4,1.2.8,2.4,1.1,3.6,0,.1.1.2.2.4.2-.5.3-.9.4-1.4.2-.9.5-1.8.8-2.7.1-.5,0-.7-.5-.8-.3,0-.4-.2-.4-.5,0-.2,0-.5,0-.7,0-.2,0-.3.3-.3h7.1c.3,0,.4,0,.4.4,0,.2,0,.3,0,.5,0,.3,0,.6-.4.7-.3,0-.4.4-.3.7.3,2.1.6,4.2,1,6.4.1.7.2,1.5.3,2.2,0,.2,0,.3.2.5,0,0,0-.1,0-.2.3-2,.5-4,.8-6,.1-.8.2-1.6.3-2.4,0-.2,0-.4,0-.6,0-.3-.2-.6-.5-.6-.2,0-.3-.2-.3-.4v-.8c0-.2,0-.3.3-.3h3.9c.2,0,.3,0,.3.2h0v.5q0,.5-.5.7c-.3.1-.4.4-.3.7,0,.6.1,1.2.2,1.9.1,1,.3,2.1.4,3.1.2,1,.3,2.1.4,3.1,0,.3,0,.7.1,1,0,0,0,0,.1,0,0-.1.1-.3.1-.4.3-1.9.5-3.8.8-5.8.1-.9.3-1.9.4-2.8,0-.6,0-.6-.5-.8,0,0-.2-.2-.2-.3,0-.3,0-.6,0-.9,0-.2,0-.3.3-.3h2.9c.2,0,.3,0,.3.3v.5c0,.4,0,.7-.5.8h0Z"/>
          <path class="st1" d="M53.1,55.7h-2c-.2,0-.3,0-.4-.3-.2-1.4-.4-2.9-.5-4.3-.2-1.3-.3-2.7-.5-4,0-.2,0-.3-.2-.5,0,.4-.1.9-.2,1.3-.2,1.4-.4,2.8-.6,4.2-.2,1.1-.3,2.3-.5,3.4,0,0-.2.2-.2.2h-2.2c-.2,0-.3-.1-.3-.3-.1-.7-.3-1.4-.4-2-.3-1.4-.5-2.7-.8-4.1-.2-1-.4-2-.6-3-.2-1-.4-1.9-.6-2.9-.1-.5-.4-.7-.8-.7h-.2c-.6,0-.8.2-.9.7-.3.9-.6,1.8-.8,2.7-.3,1-.6,2-.9,3,0,.2-.1.4-.1.6,0,1.2,0,2.3,0,3.5s.2,1,.9,1c.3,0,.5.2.4.5,0,.2,0,.5,0,.7,0,.2,0,.3-.3.3h-4.7c-.2,0-.3,0-.3-.3v-.8c0-.2.1-.3.3-.3,0,0,.2,0,.3,0,.4,0,.7-.3.7-.7,0-.6,0-1.3,0-1.9,0-.2,0-.3,0-.5.1-1.1-.2-2.2-.6-3.2-.5-1.3-.9-2.6-1.4-3.9,0-.3-.2-.5-.3-.8s-.4-.5-.7-.5c-.2,0-.3-.1-.3-.4v-.8c0-.2,0-.3.3-.3h4c.2,0,.3,0,.3.3v.9c0,.2,0,.3-.3.3-.6,0-.7.3-.5.8.4,1.2.8,2.4,1.1,3.6,0,.1.1.2.2.4.2-.5.3-.9.4-1.4.2-.9.5-1.8.8-2.7.1-.5,0-.7-.5-.8-.3,0-.4-.2-.4-.5,0-.2,0-.5,0-.7,0-.2,0-.3.3-.3h7.1c.3,0,.4,0,.4.4,0,.2,0,.3,0,.5,0,.3,0,.6-.4.7-.3,0-.4.4-.3.7.3,2.1.6,4.2,1,6.4.1.7.2,1.5.3,2.2,0,.2,0,.3.2.5,0,0,0-.1,0-.2.3-2,.5-4,.8-6,.1-.8.2-1.6.3-2.4,0-.2,0-.4,0-.6,0-.3-.2-.6-.5-.6-.2,0-.3-.2-.3-.4v-.8c0-.2,0-.3.3-.3h3.9c.2,0,.3,0,.3.2h0v.5q0,.5-.5.7c-.3.1-.4.4-.3.7,0,.6.1,1.2.2,1.9.1,1,.3,2.1.4,3.1.2,1,.3,2.1.4,3.1,0,.3,0,.7.1,1,0,0,0,0,.1,0,0-.1.1-.3.1-.4.3-1.9.5-3.8.8-5.8.1-.9.3-1.9.4-2.8,0-.6,0-.6-.5-.8,0,0-.2-.2-.2-.3,0-.3,0-.6,0-.9,0-.2,0-.3.3-.3h2.9c.2,0,.3,0,.3.3v.5c0,.4,0,.7-.5.8-.2,0-.4.4-.5.7-.2.9-.4,1.9-.5,2.8-.2,1.1-.4,2.3-.6,3.4-.1.8-.3,1.6-.4,2.4-.2,1.1-.4,2.2-.5,3.3,0,.2-.1.3-.4.3h0Z"/>
          <path class="st1" d="M56,42.9c-.2,0-.4.4-.5.7-.2.9-.4,1.9-.5,2.8-.2,1.1-.4,2.3-.6,3.4-.1.8-.3,1.6-.4,2.4-.2,1.1-.4,2.2-.5,3.3,0,.2-.1.3-.4.3h-2c-.2,0-.3,0-.4-.3-.2-1.4-.4-2.9-.5-4.3-.2-1.3-.3-2.7-.5-4,0-.2,0-.3-.2-.5,0,.4-.1.9-.2,1.3-.2,1.4-.4,2.8-.6,4.2-.2,1.1-.3,2.3-.5,3.4,0,0-.2.2-.2.2h-2.2c-.2,0-.3-.1-.3-.3-.1-.7-.3-1.4-.4-2-.3-1.4-.5-2.7-.8-4.1-.2-1-.4-2-.6-3-.2-1-.4-1.9-.6-2.9-.1-.5-.4-.7-.8-.7h-.2c-.6,0-.8.2-.9.7-.3.9-.6,1.8-.8,2.7-.3,1-.6,2-.9,3,0,.2-.1.4-.1.6,0,1.2,0,2.3,0,3.5s.2,1,.9,1c.3,0,.5.2.4.5,0,.2,0,.5,0,.7,0,.2,0,.3-.3.3h-4.7c-.2,0-.3,0-.3-.3v-.8c0-.2.1-.3.3-.3,0,0,.2,0,.3,0,.4,0,.7-.3.7-.7,0-.6,0-1.3,0-1.9,0-.2,0-.3,0-.5.1-1.1-.2-2.2-.6-3.2-.5-1.3-.9-2.6-1.4-3.9,0-.3-.2-.5-.3-.8s-.4-.5-.7-.5c-.2,0-.3-.1-.3-.4v-.8c0-.2,0-.3.3-.3h4c.2,0,.3,0,.3.3v.9c0,.2,0,.3-.3.3-.6,0-.7.3-.5.8.4,1.2.8,2.4,1.1,3.6,0,.1.1.2.2.4.2-.5.3-.9.4-1.4.2-.9.5-1.8.8-2.7.1-.5,0-.7-.5-.8-.3,0-.4-.2-.4-.5,0-.2,0-.5,0-.7,0-.2,0-.3.3-.3h7.1c.3,0,.4,0,.4.4,0,.2,0,.3,0,.5,0,.3,0,.6-.4.7-.3,0-.4.4-.3.7.3,2.1.6,4.2,1,6.4.1.7.2,1.5.3,2.2,0,.2,0,.3.2.5,0,0,0-.1,0-.2.3-2,.5-4,.8-6,.1-.8.2-1.6.3-2.4,0-.2,0-.4,0-.6,0-.3-.2-.6-.5-.6-.2,0-.3-.2-.3-.4v-.8c0-.2,0-.3.3-.3h3.9c.2,0,.3,0,.3.2h0v.5q0,.5-.5.7c-.3.1-.4.4-.3.7,0,.6.1,1.2.2,1.9.1,1,.3,2.1.4,3.1.2,1,.3,2.1.4,3.1,0,.3,0,.7.1,1,0,0,0,0,.1,0,0-.1.1-.3.1-.4.3-1.9.5-3.8.8-5.8.1-.9.3-1.9.4-2.8,0-.6,0-.6-.5-.8,0,0-.2-.2-.2-.3,0-.3,0-.6,0-.9,0-.2,0-.3.3-.3h2.9c.2,0,.3,0,.3.3v.5c0,.4,0,.7-.5.8h0Z"/>
        </g>
        <path class="st1" d="M33.3,52.7s0-.2,0-.2h-.3c-.1,0-.2,0-.3,0,0,0,0,.3,0,.4,0,.4,0,.7-.2,1.1,0,.1-.2.2-.4.2h0c-.1,0-.3-.1-.3-.2,0-.1-.1-.3-.1-.5-.1-.9-.2-1.9-.3-2.8-.1-.7-.4-1.4-1.1-1.8-.2-.1-.5-.2-.7-.3,0,0,0,0,0,0,0,0,.1,0,.2,0,.9-.3,1.5-.8,1.9-1.7.4-1,.4-2,.2-3,0-.5-.3-1-.7-1.4-.7-.8-1.7-1.1-2.7-1.2-1,0-1.9,0-2.9,0h-2.3c-.2,0-.3,0-.3.3,0,.2,0,.5,0,.8,0,.3.1.4.4.4.4,0,.6.3.7.6,0,.2,0,.5,0,.7v9.1c0,.7-.2.9-.9,1.1-.1,0-.2.2-.2.3,0,.3,0,.6,0,.9,0,.2,0,.3.3.3h4.3c.2,0,.3,0,.3-.2v-.9c0-.2,0-.3-.3-.3-.7-.1-.9-.3-.9-1.1v-3.5c0-.6-.1-.7.3-.7s.2,0,.4,0c.7,0,1.3.4,1.4,1.1.1.4.1.8.2,1.2,0,.9,0,1.7.2,2.6,0,.4.2.9.4,1.2.4.6,1,.8,1.7.8s.5,0,.7,0c.6-.1,1-.5,1.2-1.1.3-.7.3-1.4.2-2.2h0ZM27.6,47.5c-.3,0-.6,0-.9,0h0c-.2,0-.2,0-.2-.3v-4.3c0-.2,0-.3.2-.3h.5c.3,0,.6,0,.9,0,.5.1.9.4,1,.9.3.9.3,1.7,0,2.6-.2.8-.9,1.1-1.6,1.2h0Z"/>
        <g>
          <g>
            <path class="st1" d="M20.8,43.8c0-.1,0-.2-.2-.4-.5-1-1.3-1.8-2.5-2-.9-.2-1.7-.2-2.6-.2h0c-.8,0-1.6,0-2.4,0h-.3c0,0-.2.1-.2.2,0,.3,0,.5,0,.8,0,.2,0,.4.3.4.4,0,.6.3.7.7,0,.2,0,.4,0,.6v8.9c0,.2,0,.4,0,.6,0,.5-.3.7-.8.8-.2,0-.3.1-.3.3v.8c0,.2,0,.3.3.3,1.5,0,3,0,4.5,0,1.1,0,2.1-.4,2.9-1.3.3-.3.5-.7.7-1,.3-.6.4-1.2.5-1.8.1-1.4.2-2.8.2-4.2,0-1.2-.1-2.4-.6-3.5ZM18.8,52.7h0c-.2,1-.9,1.7-2,1.7s-.2,0-.4,0h-.4v-11.8h.6c1.2,0,1.8.3,2,1.4,0,.4.2.8.2,1.2v.2c0,2.1.2,4.7-.1,7.2Z"/>
            <path class="st0" d="M18.9,45.5v-.2c0-.4,0-.8-.2-1.2-.3-1.1-.8-1.5-2-1.5h-.6v11.7h.4c.1.1.3.1.4.1,1,0,1.8-.7,2-1.7h0c.3-2.5.2-5.1.1-7.2ZM17.8,52.6h0c0,.5-.3.8-.7.8v-9.8c.4,0,.6.3.7.7,0,.3.1.7.2,1h0c0,2.2.2,4.8-.1,7.2Z"/>
          </g>
          <path class="st0" d="M17.8,52.6h0c0,.5-.3.8-.7.8v-9.8c.4,0,.6.3.7.7,0,.3.1.7.2,1h0c0,2.2.2,4.8-.1,7.2Z"/>
        </g>
        <g>
          <path class="st1" d="M65.7,54.5c0,0-.1-.2-.2-.2-.3,0-.6-.3-.7-.6-.2-.5-.4-1.1-.5-1.6-.3-1.2-.5-2.3-.8-3.5-.2-1.1-.5-2.3-.7-3.4-.2-1.2-.5-2.3-.8-3.5,0-.2-.1-.3-.4-.3h-1c-.3,0-.6,0-.9,0h0c-.3,0-.4.1-.4.4-.1.5-.2,1.1-.3,1.6-.3,1.4-.6,2.8-.9,4.2-.4,1.8-.8,3.5-1.2,5.3-.1.5-.2,1.2-.8,1.4-.5.2-.5.5-.5.8,0,.1,0,.3,0,.4,0,.2,0,.3.3.3h3.2c.2,0,.3-.1.3-.3,0-.2,0-.4,0-.6,0-.3,0-.5-.4-.5-.5,0-.7-.3-.6-.8.1-.7.2-1.3.4-2,0,0,.2-.2.2-.2.4,0,.8,0,1.2,0h1.2c0,0,.2.1.2.2.1.6.2,1.3.3,1.9,0,.5,0,.9-.7.9s-.3.1-.3.3c0,.2,0,.5,0,.8,0,.3,0,.4.3.4h4.2c.2,0,.3,0,.3-.2,0-.3,0-.6,0-1h0ZM60.7,49.7h-1.4c-.2,0-.3,0-.2-.3.3-1.4.5-2.8.8-4.3,0-.3.1-.7.2-1,0,0,0,0,0,0,.1.5.2,1.1.3,1.6.2,1.1.4,2.3.6,3.4,0,0,0,0,0,0,0,.5,0,.5-.4.5h0Z"/>
          <path class="st1" d="M65.7,54.5c0,0-.1-.2-.2-.2-.3,0-.6-.3-.7-.6-.2-.5-.4-1.1-.5-1.6-.3-1.2-.5-2.3-.8-3.5-.2-1.1-.5-2.3-.7-3.4-.2-1.2-.5-2.3-.8-3.5,0-.2-.1-.3-.4-.3h-1c-.3,0-.6,0-.9,0h0c-.3,0-.4.1-.4.4-.1.5-.2,1.1-.3,1.6-.3,1.4-.6,2.8-.9,4.2-.4,1.8-.8,3.5-1.2,5.3-.1.5-.2,1.2-.8,1.4-.5.2-.5.5-.5.8,0,.1,0,.3,0,.4,0,.2,0,.3.3.3h3.2c.2,0,.3-.1.3-.3,0-.2,0-.4,0-.6,0-.3,0-.5-.4-.5-.5,0-.7-.3-.6-.8.1-.7.2-1.3.4-2,0,0,.2-.2.2-.2.4,0,.8,0,1.2,0h1.2c0,0,.2.1.2.2.1.6.2,1.3.3,1.9,0,.5,0,.9-.7.9s-.3.1-.3.3c0,.2,0,.5,0,.8,0,.3,0,.4.3.4h4.2c.2,0,.3,0,.3-.2,0-.3,0-.6,0-1h0ZM60.7,49.7h-1.4c-.2,0-.3,0-.2-.3.3-1.4.5-2.8.8-4.3,0-.3.1-.7.2-1,0,0,0,0,0,0,.1.5.2,1.1.3,1.6.2,1.1.4,2.3.6,3.4,0,0,0,0,0,0,0,.5,0,.5-.4.5h0Z"/>
        </g>
        <g>
          <path class="st1" d="M75.1,55.4h0c0,0,0,.1,0,.2h0c0,0,0,0,0,.1,0,0-.2,0-.3,0h-7.9c-.1,0-.2,0-.3,0,0,0-.1-.2,0-.3,0-.1,0-.2,0-.4,0-.3,0-.4,0-.5,0,0,0,0,0,0,0,0,.2,0,.4-.2,0,0,.2-.1.3-.2,0,0,.1-.2.2-.3,0-.2.1-.4.1-.6v-9.4c0-.2,0-.3,0-.5,0-.2-.1-.3-.2-.4-.1,0-.3-.1-.4-.2-.1,0-.2,0-.3-.1,0,0-.1-.2,0-.3,0-.2,0-.5,0-.7,0,0,0,0,0-.1,0,0,0,0,0,0,0,0,.1,0,.2,0h4.5c0,0,0,0,0,.1,0,0,0,0,0,0t0,0s0,0,0,0v.8c0,.1,0,.2,0,.2,0,0-.1,0-.2,0h0c-.2,0-.4,0-.6.2,0,0-.1.1-.1.2,0,0,0,.1,0,.2,0,.1,0,.3,0,.5,0,0,0,0,0,.1v10.1c0,.1,0,.2,0,.3,0,0,.1.1.2.1h.1c.6,0,1.2,0,1.8-.3.3-.1.6-.3.8-.5,0,0,.1-.2.2-.3,0,0,.1-.2.2-.3,0-.1.1-.3.1-.4,0-.1,0-.3.1-.4,0-.5.1-1.1.2-1.6,0,0,0,0,0-.1,0,0,0,0,0,0,0,0,.1,0,.2,0h.5c.2,0,.3,0,.4,0,0,0,0,.3,0,.7h0c0,1.2,0,2.3,0,3.4v.9Z"/>
          <path class="st1" d="M75.1,55.4h0c0,0,0,.1,0,.2h0c0,0,0,0,0,.1,0,0-.2,0-.3,0h-7.9c-.1,0-.2,0-.3,0,0,0-.1-.2,0-.3,0-.1,0-.2,0-.4,0-.3,0-.4,0-.5,0,0,0,0,0,0,0,0,.2,0,.4-.2,0,0,.2-.1.3-.2,0,0,.1-.2.2-.3,0-.2.1-.4.1-.6v-9.4c0-.2,0-.3,0-.5,0-.2-.1-.3-.2-.4-.1,0-.3-.1-.4-.2-.1,0-.2,0-.3-.1,0,0-.1-.2,0-.3,0-.2,0-.5,0-.7,0,0,0,0,0-.1,0,0,0,0,0,0,0,0,.1,0,.2,0h4.5c0,0,0,0,0,.1,0,0,0,0,0,0t0,0s0,0,0,0v.8c0,.1,0,.2,0,.2,0,0-.1,0-.2,0h0c-.2,0-.4,0-.6.2,0,0-.1.1-.1.2,0,0,0,.1,0,.2,0,.1,0,.3,0,.5,0,0,0,0,0,.1v10.1c0,.1,0,.2,0,.3,0,0,.1.1.2.1h.1c.6,0,1.2,0,1.8-.3.3-.1.6-.3.8-.5,0,0,.1-.2.2-.3,0,0,.1-.2.2-.3,0-.1.1-.3.1-.4,0-.1,0-.3.1-.4,0-.5.1-1.1.2-1.6,0,0,0,0,0-.1,0,0,0,0,0,0,0,0,.1,0,.2,0h.5c.2,0,.3,0,.4,0,0,0,0,.3,0,.7h0c0,1.2,0,2.3,0,3.4v.9Z"/>
          <path class="st1" d="M75.1,51h0c0,1.1,0,2.3,0,3.4v.9c0,0,0,.1,0,.2h0c0,0,0,0,0,.1,0,0-.2,0-.3,0h-7.9c-.1,0-.2,0-.3,0,0,0-.1-.2-.1-.3,0-.1,0-.2,0-.4,0-.3,0-.4,0-.5,0,0,0,0,0,0,0,0,.2,0,.4-.2,0,0,.2-.1.3-.2,0,0,.1-.2.2-.3,0-.2.1-.4.1-.6v-9.4c0-.2,0-.3,0-.5,0-.2-.1-.3-.2-.4-.1,0-.3-.1-.4-.2-.1,0-.2,0-.3-.1,0,0-.1-.2-.1-.3,0-.2,0-.5,0-.7,0,0,0,0,0-.1,0,0,0,0,0,0,0,0,.1,0,.2,0h4.5c0,0,0,0,0,.1,0,0,0,0,0,0t0,0h0v.8c0,.1,0,.2,0,.2,0,0-.1,0-.2,0h0c-.2,0-.4,0-.6.2,0,0-.1.1-.1.2,0,0,0,.1,0,.2,0,.2,0,.4,0,.6v10.1c0,.2,0,.3,0,.3,0,0,.1.1.2.1h.1c.6,0,1.2,0,1.8-.3.3-.1.6-.3.8-.5,0,0,.1-.2.2-.3,0,0,.1-.2.2-.3,0-.1.1-.3.1-.4,0,0,0-.2,0-.3,0,0,0,0,0-.2,0-.5.1-1.1.2-1.6,0,0,0,0,0-.1,0,0,0,0,0,0,0,0,.1,0,.2,0h.5c.2,0,.3,0,.4,0,0,0,0,.3,0,.7Z"/>
        </g>
        <g>
          <path class="st1" d="M84.7,51v4.3c0,.3,0,.4-.4.4h0s0,0,0,0h-7.9c0,0-.1,0-.2,0,0,0,0,0,0,0,0,0,0,0,0,0,0,0,0,0,0-.1v-.5c0-.2,0-.5,0-.6,0,0,0,0,.2-.1.1,0,.2,0,.3,0h0c.3-.1.5-.4.5-.7,0-.2,0-.4,0-.5v-9c0-.2,0-.4,0-.6,0-.2,0-.3-.2-.4,0,0,0,0,0,0,0,0,0,0-.2-.1,0,0-.2,0-.3,0,0,0,0,0,0,0,0,0,0,0,0,0-.1,0-.2-.2-.1-.3v-.8c0,0,0-.2,0-.2s0,0,0,0c0,0,0,0,.1,0h4.4c0,0,.1,0,.1,0,0,0,0,0,0,0,0,0,0,.1,0,.2v.4c0,.4-.2.7-.7.8-.3,0-.5.3-.6.7,0,.2,0,.3,0,.5v10.1c0,0,0,.1,0,.2,0,0,0,0,0,0,0,0,0,0,0,0,0,0,0,0,0,0h.2c.7,0,1.4,0,2-.4.5-.3.9-.6,1-1.2.2-.7.2-1.4.3-2.1,0,0,0-.1,0-.2,0,0,0,0,0,0,0,0,0,0,0,0,0,0,0,0,0,0,0,0,.1,0,.2,0h0c.4,0,.6,0,.7,0,0,0,0,0,0,0,0,0,0,0,0,0,0,0,0,.3,0,.7Z"/>
          <path class="st1" d="M84.7,51v4.3c0,.3,0,.4-.4.4h0s0,0,0,0h-7.9c0,0-.1,0-.2,0,0,0,0,0,0,0,0,0,0,0,0,0,0,0,0,0,0-.1v-.5c0-.2,0-.5,0-.6,0,0,0,0,.2-.1.1,0,.2,0,.3,0h0c.3-.1.5-.4.5-.7,0-.2,0-.4,0-.5v-9c0-.2,0-.4,0-.6,0-.2,0-.3-.2-.4,0,0,0,0,0,0,0,0,0,0-.2-.1,0,0-.2,0-.3,0,0,0,0,0,0,0,0,0,0,0,0,0-.1,0-.2-.2-.1-.3v-.8c0,0,0-.2,0-.2s0,0,0,0c0,0,0,0,.1,0h4.4c0,0,.1,0,.1,0,0,0,0,0,0,0,0,0,0,.1,0,.2v.4c0,.4-.2.7-.7.8-.3,0-.5.3-.6.7,0,.2,0,.3,0,.5v10.1c0,0,0,.1,0,.2,0,0,0,0,0,0,0,0,0,0,0,0,0,0,0,0,0,0h.2c.7,0,1.4,0,2-.4.5-.3.9-.6,1-1.2.2-.7.2-1.4.3-2.1,0,0,0-.1,0-.2,0,0,0,0,0,0,0,0,0,0,0,0,0,0,0,0,0,0,0,0,.1,0,.2,0h0c.4,0,.6,0,.7,0,0,0,0,0,0,0,0,0,0,0,0,0,0,0,0,.3,0,.7Z"/>
          <g>
            <path class="st0" d="M84.7,51v4.3c0,.3,0,.4-.4.4h0s0,0,0,0h-7.9c0,0-.1,0-.2,0,0,0,0,0,0,0,0,0,0,0,0,0,0,0,0,0,0-.1v-.3h0,0v-.2c0-.2,0-.5,0-.6,0,0,0,0,.2-.1h0c.1,0,.2,0,.3,0,.3-.1.4-.4.5-.7,0-.2,0-.4,0-.5v-9c0-.2,0-.4,0-.6,0-.2,0-.3-.2-.4,0,0,0,0,0,0,0,0,0,0-.2-.1,0,0-.2,0-.3,0,0,0,0,0,0,0,0,0,0,0-.1,0-.1,0-.1-.2-.1-.3v-.8c0-.1,0-.2,0-.2,0,0,0,0,0,0,0,0,0,0,.1,0h0s4.3,0,4.3,0c0,0,0,0,0,0,0,0,.1,0,.1,0,0,0,0,0,0,0,0,0,0,.1,0,.2v.4c0,.4-.2.7-.7.8-.3,0-.5.3-.6.7,0,.2,0,.3,0,.5v10.1c0,0,0,.1,0,.2,0,0,0,0,0,0,0,0,0,0,0,0h.2c.7,0,1.4,0,2-.4.5-.3.9-.6,1-1.2.2-.7.2-1.4.3-2.1,0,0,0-.1,0-.2,0,0,0,0,0,0,0,0,0,0,0,0,0,0,0,0,0,0,0,0,.1,0,.2,0h0c.4,0,.6,0,.7,0,0,0,0,0,0,0,0,0,0,0,0,0,0,0,0,.3,0,.7Z"/>
            <path class="st1" d="M84.7,51v4.3c0,.3,0,.4-.4.4h0s0,0,0,0h-7.9c0,0-.1,0-.2,0,0,0,0,0,0,0,0,0,0,0,0,0,0,0,0,0,0-.1v-.3h0v-.2c0-.2,0-.5,0-.6,0,0,0,0,.2-.1h0c.1,0,.2,0,.3,0,.3-.1.4-.4.5-.7,0-.2,0-.4,0-.5v-9c0-.2,0-.4,0-.6,0-.2,0-.3-.2-.4,0,0,0,0,0,0,0,0,0,0-.2-.1,0,0-.2,0-.3,0,0,0,0,0,0,0,0,0,0,0-.1,0-.1,0-.1-.2-.1-.3v-.8c0-.1,0-.2,0-.2,0,0,0,0,0,0,0,0,0,0,.1,0h0s4.3,0,4.3,0c0,0,0,0,0,0,0,0,.1,0,.1,0,0,0,0,0,0,0,0,0,0,.1,0,.2v.4c0,.4-.2.7-.7.8-.3,0-.5.3-.6.7,0,.2,0,.3,0,.5v10.1c0,0,0,.1,0,.2,0,0,0,0,0,0,0,0,0,0,0,0h.2c.7,0,1.4,0,2-.4.5-.3.9-.6,1-1.2.2-.7.2-1.4.3-2.1,0,0,0-.1,0-.2,0,0,0,0,0,0,0,0,0,0,0,0,0,0,0,0,0,0,0,0,.1,0,.2,0h0c.4,0,.6,0,.7,0,0,0,0,0,0,0,0,0,0,0,0,0,0,0,0,.3,0,.7Z"/>
          </g>
        </g>
      </g>
    </g>
  </g>
</svg>