<?xml version="1.0" encoding="UTF-8"?>
<svg id="Layer_2" data-name="Layer 2" xmlns="http://www.w3.org/2000/svg" viewBox="0 0 178.39 75.41">
  <defs>
    <style>
      .cls-1 {
        fill: #f6f9fd;
      }
    </style>
  </defs>
  <g id="Layer_1-2" data-name="Layer 1">
    <g>
      <g>
        <g>
          <path class="cls-1" d="M.17,68.35c.65-2.64,1.26-5.28,1.89-7.92,1.3-5.45,2.63-10.9,3.88-16.36.54-2.36,1.44-4.47,3.28-6.12,1.38-1.24,2.92-2.14,4.78-2.4.1-.01.96-.09,1.05-.09,50.9,0,101.79,0,152.69,0,.16,0,1.12.09,1.23.09,1.52.09,2.7.84,3.57,2.03,1.16,1.56,1.33,3.34.89,5.18-1.95,8.27-3.99,16.52-5.87,24.81-.87,3.85-4.69,8.19-10,7.82-50.36,0-100.72,0-151.09.01-1.65,0-3.19-.22-4.53-1.25h0s-.06-.06-.09-.1c-.83-.8-1.38-1.74-1.64-2.87-.06-.28-.41-1.34-.04-2.84h0ZM157.79,72.93c2-.18,3.62-1.09,4.98-2.51,1.02-1.07,1.65-2.33,1.97-3.79.45-2.05,1-4.08,1.5-6.12,1.27-5.25,2.55-10.5,3.8-15.76.28-1.2.73-2.38.59-3.67-.12-1.1-.58-1.95-1.49-2.55-.79-.52-1.67-.66-2.59-.66H16.48c-3.41,0-6.69,2.59-7.49,5.91-1.12,4.64-2.25,9.29-3.37,13.93-.85,3.53-1.73,7.06-2.54,10.6-.57,2.49.44,4.23,3.42,4.61.35.05.61.07.79.07h84.79c21.66,0,65.49.06,65.73-.07h0Z"/>
          <path class="cls-1" d="M67.51,65.32c.76.2,1.52.41,2.34.63-.41-.6-.2-1.16-.07-1.71,1.29-5.6,2.59-11.2,3.87-16.8.08-.36.21-.71.17-1.09v-.1c0-.48-.27-.76-.71-.89-.77-.24-1.55-.47-2.32-.71-.12-.04-.24-.08-.34-.18h.3c5,0,10.01,0,15.02.01.64,0,1.29.08,1.91.27,1.01.31,1.65.99,1.87,2.04.02.03.14,1.97-.11,2.89-.48,1.74-.94,3.5-2.95,4.18,1.78.34,2.2,1.47,2.14,2.23l.02.52c-.02,3.29-.58,4.73-1.71,7.16-.72,1.55-1.97,2.37-3.71,2.38-1.59.01-3.18.01-4.77.01-2.47,0-4.93.01-7.4.01-1.18-.03-2.36-.06-3.54.01-.19,0-.39-.02-.58-.02-2.14,0-4.28,0-6.42,0-.71-.1-1.04-.54-1.06-1.46-.01-.56-.01-1.12-.02-1.68,0-.03,0-.06,0-.09,0-.49-.02-.98-.01-1.47,0-.25-.1-.33-.34-.32-1.69,0-3.38,0-5.07,0-.16,0-.28.01-.36.19-.4.92-.83,1.83-1.2,2.77-.25.63.07,1.1.74,1.24.25.05.49.1.74.15.73.18,1.46.37,2.19.55-.11.19-.29.1-.44.1-.68.02-1.36.02-2.04.03-1.89,0-3.78-.01-5.67-.01-.07,0-.51,0-1.12-.03-.58-.03-.8-.61-.6-1.16.27-.75.68-1.43,1.04-2.14,2.67-5.21,5.35-10.41,8.02-15.62.05-.1.09-.21.13-.32.15-.16.22-.35.25-.56.01-.03.03-.07.04-.1.08-.49-.07-.73-.56-.88-.89-.27-1.79-.53-2.68-.89h11.73c.7,0,1.02.29,1.11.98.03.26.07.52.1.79-.03,1.25.07,2.49.12,3.74.12,3.17.25,6.34.4,9.51.07,1.55.04,3.11.25,4.66.11.78.49.93,1.27,1.18h0ZM81.6,52.39c1.07.01,1.56-.5,1.73-1.56.09-.43.13-.71.13-.86,0-.79-.28-1.12-1.07-1.16-.61-.03-1.22,0-1.83-.01-.23,0-.31.1-.36.3-.23,1-.47,1.99-.71,2.98-.06.23-.02.33.24.33.63-.01,1.25,0,1.87-.01h0ZM59.23,53.73c-.02-1.41-.04-2.83-.07-4.28-.08.04-.1.05-.11.06-1.11,2.46-2.22,4.91-3.34,7.37-.11.25,0,.27.2.27h1.78c1.56,0,1.04.09,1.56,0,.09-.6,0-1.21.03-1.8-.04-.54.01-.89-.06-1.61h0ZM78.66,61.59h0c.33,0,.66.02.98,0,.79-.05,1.48-.31,1.83-1.09.42-.91.66-1.86.67-2.86,0-.74-.39-1.13-1.14-1.22-.68-.08-1.37-.01-2.05-.06-.36-.02-.49.13-.56.45-.28,1.29-.59,2.57-.89,3.86-.14.61.11.92.76.92h.4,0Z"/>
          <path class="cls-1" d="M160.01,51.07c.27.83.55,1.66.82,2.49,0,.12.16.26.01.36-.11.08-.21-.06-.33-.09-.13-.04-.23-.19-.42-.13.02,1.27-.07,2.54-.19,3.9-.4-.52-.74-.94-1.13-1.44-.05,1.35-.19,2.58-.37,3.81-.04.3-.12.33-.34.12-.88-.8-1.86-1.47-2.88-2.08-1.13-.68-2.26-1.36-3.47-1.88-.02-.01-.04-.02-.06-.03,0,.03.01.05.02.07.18.52.36,1.03.54,1.55.04.13.18.3.09.42-.1.14-.28,0-.42-.02-1.78-.41-3.56-.82-5.33-1.23-.84-.19-1.69-.39-2.53-.58-.01.03-.03.06-.04.09,3.32,2.3,6.65,4.6,10.07,6.97-.35-1.08-.66-2.03-1-3.1.38.33.67.55.94.8,1.41,1.25,2.81,2.5,4.21,3.77.21.18.27.07.34-.09.2-.41.34-.84.47-1.28.14-.49.22-1.02.66-1.37.02-.02.04-.05.06-.07h0c.12-.11.24-.21.4-.35.1.85-.04,1.65-.16,2.44-.3,1.93-.71,3.83-1.31,5.69-.22.69-.22.69-.75.21-3.43-3.05-7.22-5.49-11.61-6.96-3.19-1.07-6.47-1.51-9.83-1.27-1.79.13-3.53.47-5.23,1.06-.12.04-.22.09-.4.04.34-.35.66-.68.98-1.01,1.97-2.13,3.73-4.39,4.85-7.09.49-1.19.96-3.83.83-4.56-.1-.58-.26-.77-1-.95-.97-.17-1.86-.21-2.8-.13-.48.04-.95.15-1.44.23.78-.98,6.36-3.54,9.24-4.29,3.34-.86,6.7-1.27,10.21-.71-.27-.6-.59-1.11-.94-1.6-.36-.49-.82-.88-1.36-1.37.79.15,1.39.45,1.98.76,1.9.98,3.6,2.26,5.23,3.62.82.68,1.62,1.39,2.4,2.12.25.23.28.41.07.66-.45.42-.74.97-1.17,1.4-.45.45-.51.83-.17,1.41.42.7.68,1.48,1.05,2.29.32-.76.61-1.47.91-2.17.06-.15.05-.36.27-.42h0ZM155.67,52.98c-2.73-2.71-6.9-3.89-9.8-3.08,0,.01.01.03.02.04.07.03.13.06.21.07,2.3.7,4.32,1.85,5.82,3.78.1.13.22.16.35.12,1.12-.3,2.23-.61,3.4-.94h0Z"/>
          <path class="cls-1" d="M16.73,46.22c.02-.48-.27-.71-.68-.86-.73-.26-1.44-.54-2.14-.89h.39c4.99,0,9.99,0,14.98,0,.53,0,1.07.03,1.58.12,1.3.25,2.17,1.01,2.58,2.28-.01.07.02.13.07.18h0c.18.89.26,1.79.19,2.7-.23,2.83-.82,5.6-1.57,8.34-.45,1.65-.92,3.29-1.77,4.79-1.18,2.09-2.97,3.22-5.36,3.25-3.82.05-7.64.03-11.46.03-.86-.12-1.15-.54-.95-1.38,1.36-5.86,2.71-11.72,4.06-17.57.01-.07.12-.65.1-.88,0-.04,0-.08,0-.12h0ZM21.32,61.59c.68,0,1.37.03,1.98-.35.69-.43.96-1.15,1.21-1.86.66-1.91,1.07-3.88,1.52-5.84.24-1.02.46-2.04.45-3.1-.01-.97-.49-1.49-1.44-1.6-.49-.06-.98-.02-1.47-.05-.31-.02-.43.1-.5.4-.85,3.79-1.71,7.58-2.58,11.37-.23,1.02-.22,1.03.83,1.02h0Z"/>
          <path class="cls-1" d="M115.37,66.43c-1.49,0-2.97-.05-4.41-.49-2-.61-3.41-1.96-3.4-4.56,0-4.59,1.16-8.91,3.29-12.97,1.15-2.19,3.07-3.37,5.44-3.86,1.68-.35,3.4-.45,5.11-.34,1.18.07,2.37.09,3.53.48,2.05.7,3.23,2.04,3.3,4.19.16,5.19-1,10.03-3.96,14.39-1.11,1.63-2.71,2.38-4.55,2.77-1.43.3-2.88.39-4.34.38h0ZM116.49,61.86c.65-.01,1.4-.36,1.92-1.17.46-.74.8-1.54,1.1-2.35.86-2.37,1.55-4.78,1.86-7.29.11-.86-.34-1.84-1.05-2.13-.97-.4-2.17-.06-2.77.8-.2.29-.38.6-.53.92-.89,1.87-1.47,3.85-1.97,5.85-.27,1.09-.54,2.19-.6,3.32-.06,1.27.63,2.04,2.03,2.05h0Z"/>
          <path class="cls-1" d="M100.15,61.58c.82,0,1.63.03,2.45,0,.74-.02,1.25-.39,1.57-1.09.5-1.09,1.06-2.16,1.59-3.25.04-.09.07-.18.19-.25-.48,2.11-.95,4.19-1.42,6.28-.15.56-.28,1.12-.46,1.67-.27.84-.73,1.2-1.6,1.21-3.6.01-7.2,0-10.81.01-.85-.12-1.1-.49-.91-1.34,1.29-5.84,2.66-11.66,4.02-17.49.02-.09.16-.74.13-1,.04-.09,0-.16-.03-.24-.03-.42-.31-.62-.67-.73-.89-.28-1.79-.55-2.7-.82.04-.11.13-.07.19-.07h9.34c.69,0,1.18.46,1.04,1.01-.05.21-.14.77-.16.85-.49,2.09-.98,4.18-1.47,6.27-.67,2.87-1.34,5.75-2.01,8.61-.07.29-.04.4.28.38.48-.03.95-.01,1.43-.02h0Z"/>
          <path class="cls-1" d="M36.1,66.17c-.86-.12-1.13-.54-.93-1.38,1-4.33,1.99-8.67,2.99-13.01.37-1.62.74-3.23,1.12-4.85.04-.19.08-.38.05-.57,0-.04,0-.09-.01-.14.02-.46-.26-.69-.65-.83-.76-.27-1.52-.54-2.28-.88.12,0,.24-.02.36-.02,2.8,0,5.61.02,8.41-.01.96-.01,1.62.3,1.26,1.63-.02.08-.03.17-.04.26-.03.08-.07.16-.09.25-.8,3.48-1.61,6.95-2.41,10.43-.51,2.24-1.01,4.48-1.53,6.71-.25,1.09.32,1.38,1.37,1.68.77.27,1.56.45,2.36.63-.11.18-.29.1-.44.1-.71.02-1.41.03-2.12.04-.19,0-.38-.02-.58-.02h-6.84Z"/>
        </g>
        <g>
          <path class="cls-1" d="M176.41,39.43c-1.09,0-1.98-.89-1.98-1.98s.89-1.98,1.98-1.98,1.98.89,1.98,1.98-.89,1.98-1.98,1.98ZM176.41,35.81c-.9,0-1.63.73-1.63,1.63s.73,1.63,1.63,1.63,1.63-.73,1.63-1.63-.73-1.63-1.63-1.63Z"/>
          <path class="cls-1" d="M176.91,38.44l-.43-.74h-.38v.74h-.33v-1.99h.77c.19,0,.35.06.48.18s.19.27.19.45c0,.13-.04.25-.11.36s-.17.18-.3.22l.46.78h-.37,0ZM176.11,36.75v.64h.43c.11,0,.19-.03.26-.09s.1-.14.1-.23-.03-.17-.1-.23-.15-.09-.26-.09h-.43Z"/>
        </g>
      </g>
      <g>
        <path class="cls-1" d="M48.11,25.38h10.13v-3.23l-2.41-.55v-9.58h3.23v-4.16h-3.18v-2.3c.3-.68,1.81-.85,2.63-.16l1.53-4.27C58.11,0,56.52-.09,55.15.05c-1.73.17-3.9.8-4.77,3.07-.54,1.4-.41,4.57-.41,4.57h-1.68l-1.13,4.35h2.65v9.64l-1.72.69.02,3.01h0Z"/>
        <path class="cls-1" d="M60.35,25.38h9.69v-3.09l-2.22-.52v-8.16c1.51-1.07,3.34-.46,3.86-.3l1.45-5.86c-3.07-.23-4.52.33-5.67,2.66l-.73-2.33h-6.39v3.56l1.67.68v9.75l-1.67.58v3.04h0Z"/>
        <path class="cls-1" d="M86.11,20.09c-1.23.66-2.01,1.67-4.98,1.28-1.81-.24-2.16-1.85-2.13-3.17h8.65c.25-3.31.12-7.28-1.67-9.01-1.37-1.32-3.67-2.32-7.31-1.8-4.45.64-5.47,4.81-5.78,6.13-.24,1.05-.74,6.9,1.23,9.23,2.47,2.92,4.46,3.01,7.12,3.01,3.06,0,5.64-1.51,6.52-2.13l-1.64-3.53h0ZM80.58,10.87c1.18,0,1.5,2.35,1.48,3.72h-3.15c-.05-1.4.27-3.72,1.67-3.72Z"/>
        <path class="cls-1" d="M99.26,23.6l.55,1.67h6.52v-3.04l-1.67-.36V7.72h-7.23v3.48l1.56.55v9.03c-.23.2-.87.7-1.62.58-.75-.12-1.19-.82-1.4-1.15V7.72h-7.61v3.56l1.62.47v9.69c.08,1.97,1.2,3.83,3.78,4.16s4.65-1.23,5.5-2h0Z"/>
        <path class="cls-1" d="M122.28,21.84V.49h-7.48v3.31l1.69.88-.02,4.08c-.51-.44-1.78-1.51-3.34-1.45-3.25.11-4.15,1.49-4.91,2.64-1.58,2.37-1.8,9.5-.26,12.88.68,1.51,2.68,2.95,4.96,2.96,2.56.01,3.67-1.34,4.11-2.08l.36,1.62h6.65v-3.09l-1.75-.38h0ZM116.62,21.08c-.27.25-.52.58-1.59.56-1.15-.01-1.7-1.36-1.79-2.23-.19-1.86-.29-5.62.61-6.88.44-.61,1.08-.92,2-.66.45.13.65.22.77.33v8.87Z"/>
        <g>
          <path class="cls-1" d="M128.39,25.12c-1.28,0-2.33-1.04-2.33-2.33s1.04-2.33,2.33-2.33,2.33,1.04,2.33,2.33-1.04,2.33-2.33,2.33ZM128.39,20.89c-1.05,0-1.91.86-1.91,1.91s.86,1.91,1.91,1.91,1.91-.86,1.91-1.91-.86-1.91-1.91-1.91Z"/>
          <path class="cls-1" d="M128.98,23.96l-.5-.86h-.44v.86h-.38v-2.33h.91c.22,0,.41.07.56.21s.22.31.22.53c0,.16-.04.29-.13.42s-.2.21-.34.26l.54.92h-.43,0ZM128.03,21.99v.75h.5c.13,0,.23-.04.3-.1s.11-.16.11-.27-.04-.2-.12-.27-.18-.1-.3-.1h-.5,0Z"/>
        </g>
      </g>
    </g>
  </g>
</svg>