<?xml version="1.0" encoding="UTF-8"?>
<svg id="Layer_2" data-name="Layer 2" xmlns="http://www.w3.org/2000/svg" viewBox="0 0 205.2 61.51">
  <defs>
    <style>
      .cls-1 {
        fill: #f6f9fd;
      }
    </style>
  </defs>
  <g id="Layer_1-2" data-name="Layer 1">
    <g>
      <polygon class="cls-1" points="27.19 54.03 26.56 53.72 16.81 43.99 16.81 15.73 11.42 15.73 27.19 0 27.19 54.03"/>
      <path class="cls-1" d="M166.61,36.22l-2.3,2.37c-9.61,6.3-21.82-3.77-16.73-14.42,3.05-6.39,12.68-8.79,17.79-3.59.46.47.73,1.18,1.24,1.56v-3.73h2.9v21.53h-2.9v-3.73ZM156.4,20.55c-9.52,1.28-9.4,16.47.57,17.33,13.09,1.13,12.82-19.13-.57-17.33Z"/>
      <path class="cls-1" d="M205.2,30.22h-19.5c.35,8.03,11.79,10.62,15.6,3.45.14-.27.12-.76.16-.76h3.11c-3.05,8.96-15.37,10.34-20.29,2.13-6.43-10.73,6.88-22.42,16.45-14.96,1.62,1.26,4.47,5.09,4.47,7.14v3ZM202.3,27.74c-1.27-9.71-15.47-9.72-16.6,0h16.6Z"/>
      <path class="cls-1" d="M132.79,18.22h-2.9c-.1-7.16-11.05-6.65-10.37.31.41,4.23,6.52,4.31,9.48,5.86,6.5,3.4,6.04,12.61-.62,15.39-5.9,2.47-13.02-1.42-12.59-8.11h2.9c.01,9.08,14.09,7.27,11.63-1.36-1.73-6.06-13.63-2.96-13.91-11.8-.35-10.7,16.62-11.03,16.39-.3Z"/>
      <polygon class="cls-1" points="69.93 10.76 69.93 13.45 58.1 13.45 58.1 24.01 69.51 24.01 69.51 26.7 58.1 26.7 58.1 39.95 55.2 39.95 55.2 10.76 69.93 10.76"/>
      <path class="cls-1" d="M91.3,33.53c-.86,4.96,6.85,6.06,7.63,1.5,1.08-6.29-8.87-4.1-9.86-9.94-1.5-8.82,11.94-10.06,11.99-1.3-.6-.11-2.32.19-2.71-.09-.17-.13-.28-1.14-.49-1.58-1.26-2.65-5.6-2.16-5.93.94-.37,3.63,3.83,3.72,6.23,4.96,2.73,1.4,4.06,3.71,3.7,6.82-.97,8.36-14.12,7.08-13.46-1.32h2.9Z"/>
      <polygon class="cls-1" points="109.14 10.76 109.14 18.42 114.33 18.42 114.33 20.91 109.14 20.91 109.14 39.95 106.24 39.95 106.24 20.91 101.67 20.91 101.67 18.42 106.24 18.42 106.24 10.76 109.14 10.76"/>
      <polygon class="cls-1" points="140.88 10.76 140.88 18.42 146.07 18.42 146.07 20.91 140.88 20.91 140.88 39.95 137.98 39.95 137.98 20.91 133.42 20.91 133.42 18.42 137.98 18.42 137.98 10.76 140.88 10.76"/>
      <polygon class="cls-1" points="178.02 10.76 178.02 18.42 183.21 18.42 183.21 20.91 178.02 20.91 178.02 39.95 175.12 39.95 175.12 20.91 170.55 20.91 170.55 18.42 175.12 18.42 175.12 10.76 178.02 10.76"/>
      <path class="cls-1" d="M81.75,18.42v2.69s1.13-1.45,1.13-1.45c1.3-1.35,3.27-1.81,5.09-1.86-.11.61.23,2.71-.2,3.01-.2.14-1.91.38-2.5.61-1.49.6-3.53,2.96-3.53,4.55v13.97h-2.9v-21.53h2.9Z"/>
      <rect class="cls-1" x="72.62" y="18.42" width="2.7" height="21.53"/>
      <path class="cls-1" d="M28.99,25.71c4.41.22,8.83.19,13.24.36,2.39.09,4.85.33,7.24.43,1.01.04,3.78-.22,4.47.1.98.45.08,1.05-.72,1.14-1.51.17-3.41-.07-4.99-.01-5.87.2-11.73.61-17.64.62-.43,0-.83.22-1.22.2-1.76-.07-2.14-2.32-.39-2.84Z"/>
      <path class="cls-1" d="M50.63,30.64c.29.25-.97,1.33-1.36,1.23-6.1.19-12.17.51-18.25.62-.5,0-.96.23-1.44.23-2.21,0-2.43-2.82,0-2.93,1.91-.09,4.64.36,6.63.44,1.67.06,3.33.14,4.98.21,3.14.13,6.31.13,9.45.2Z"/>
      <path class="cls-1" d="M50.63,23.39c-1.82.33-3.66.14-5.5.21-3.23.13-6.5.3-9.76.4-2.06.06-4.36.5-6.43.23-1.02-.14-1.4-1.28-.81-2.07.88-1.19,3.12-.45,4.34-.41,5.68.16,11.33.38,17.02.62.47.09.9.63,1.15,1.03Z"/>
      <path class="cls-1" d="M171.18,61.27v-11.38h3.84c.93,0,2.04,1.13,2.34,2.01.7,2.04-.75,2.72-.75,3.27,0,.17,1.64,1.28,1.63,2.9-.01,1.19-1.36,3.21-2.6,3.21h-4.46ZM172.42,54.85c5.37.64,5.35-4.6,0-3.93v3.93ZM172.42,60.24c1.77,0,4.69.14,4.58-2.38-.1-2.2-3.01-2.07-4.58-1.97v4.35Z"/>
      <path class="cls-1" d="M108.93,52.78c.74.04,1.33-.31,1.35.62,1.3-1.33,3.69-.93,4.56.62,1.15-1.55,3.53-1.98,4.99-.62.16.15.93,1.47.93,1.56v6.31h-1.04v-5.49c0-1.55-1.84-2.64-3.22-1.76-.2.12-.93.99-.93,1.14v6.11h-1.24v-5.9c0-1.28-2.08-2.12-3.23-1.35-.21.14-.92,1.21-.92,1.35v5.9h-1.24v-8.49Z"/>
      <path class="cls-1" d="M46.48,34.78c.24.22-.75,1.16-1.14,1.24-1.67.31-3.88.11-5.6.21-3.23.19-6.52.52-9.75.63-2.93.1-2.58-2.82-.61-2.9,1.55-.06,3.77.34,5.37.41,3.92.16,7.82.31,11.73.41Z"/>
      <path class="cls-1" d="M46.27,19.25c-.32.05-.61.18-.93.21-5.2.47-10.75.26-15.99.63-1.18.08-1.84-.91-1.31-1.94s1.81-.8,2.78-.76c3.3.12,6.64.45,9.94.64,1.6.09,4.9-.56,5.51,1.23Z"/>
      <path class="cls-1" d="M12.83,25.73c1.2-.04,3.11-.48,3.17,1.29.06,1.91-1.77,1.35-2.81,1.33-3.36-.05-7.06.04-10.38-.2C2.06,28.09,0,27.99,0,27.01c-.01-1.4,5.05-.88,6.14-.92,2.21-.08,4.46-.29,6.69-.36Z"/>
      <path class="cls-1" d="M146.67,52.81c.27.23,1.8,5.99,2.31,6.81l1.69-5.45c.23-.42,1.01-.62,1.24-.06.26.64,1.45,5.52,1.74,5.51l2.36-6.71,1.27-.12c-.55,1.05-2.63,8.08-3.1,8.39-.23.15-1.1.22-1.28-.03-.58-.8-.95-3.99-1.53-5.05-.6.58-1.37,4.98-1.58,5.15-.07.06-1.28.07-1.4,0-.37-.23-2.3-7.22-2.94-8.15-.21-.51,1.18-.33,1.23-.29Z"/>
      <path class="cls-1" d="M123.46,57.54c.05,2.16,2.52,3.57,4.43,2.45.98-.57,1.11-1.93,2.42-1.62-1.83,6.21-10.45,2.13-7.55-3.5,1.78-3.46,6.56-2.78,7.67.8.09.3.43,1.87-.01,1.87h-6.95ZM129.47,56.51c-.58-3.74-5.66-3.8-6.02,0h6.02Z"/>
      <path class="cls-1" d="M187.57,61.27h-1.04s0-1.24,0-1.24c-3.74,3.87-9.42-.68-6.85-5.29,1.43-2.57,4.89-2.87,6.85-.72v-1.24s1.04,0,1.04,0v8.49ZM183.17,53.66c-4.05.32-3.86,6.94.35,6.8s3.79-7.13-.35-6.8Z"/>
      <path class="cls-1" d="M90.88,49.89v4.97h5.6v-4.97h1.04v11.38h-1.04v-5.07s-.29-.31-.31-.31h-5.29v5.38h-1.04v-11.38h1.04Z"/>
      <path class="cls-1" d="M42.33,15.32l-13.18.62c-1.05.03-1.56-1.05-1.11-1.94.7-1.36,2.82-.61,4.02-.55,2.97.14,5.94.28,8.91.42.37,0,1.58,1.24,1.35,1.44Z"/>
      <path class="cls-1" d="M42.33,38.92c-.35.45-1.02,1.34-1.56,1.44-3.6-.06-7.21.51-10.78.64-2.88.1-2.56-2.73-.81-2.84l13.15.76Z"/>
      <path class="cls-1" d="M3.33,23.8c-.28-.23,1.35-1.79,1.96-1.87,3.05-.39,6.45-.09,9.54-.39,1.54.24,1.63,2.48.02,2.69-1.88.25-3.96-.14-5.82-.22s-3.81.09-5.7-.21Z"/>
      <path class="cls-1" d="M199.39,49.89v7.87l3.42-4.76c.35-.35.89-.19,1.35-.21.48.45-2.66,3.54-2.69,4.24-.02.75,3.25,3.93,2.9,4.24-1.34.9-3.38-3.1-3.63-3.11-.87,0-1.71,2.33-1.35,3.11h-1.25v-11.39h1.24Z"/>
      <path class="cls-1" d="M3.33,30.22c3.7,0,7.41-.12,11.09-.43,1.23.1,2.2,1.36,1.16,2.41-.95.94-1.79.31-2.8.29-2.5-.05-4.98-.12-7.47-.2-.38-.03-2.22-1.85-1.97-2.06Z"/>
      <path class="cls-1" d="M140.21,52.63c5.52-.89,6.67,8.14,1.18,8.83-5.55.7-6.56-7.96-1.18-8.83ZM140.63,53.65c-4.74.35-3.03,8.55,1.47,6.46,3.13-1.45,1.89-6.71-1.47-6.46Z"/>
      <path class="cls-1" d="M102.65,52.63c5.71-.92,6.68,8.16,1.39,8.83-5.74.73-6.53-8-1.39-8.83ZM103.08,53.65c-3.85.44-3.52,6.93.35,6.8,4.24-.14,3.8-7.27-.35-6.8Z"/>
      <path class="cls-1" d="M66.14,52.63c5.61-.91,6.65,8.18,1.18,8.84s-6.32-8-1.18-8.84ZM66.56,53.65c-4.83.56-2.84,8.74,1.65,6.42,2.95-1.52,1.66-6.8-1.65-6.42Z"/>
      <path class="cls-1" d="M196.49,61.27h-1.24v-5.69c0-.06-.51-.91-.62-1.04-.85-.98-2.56-1.06-3.44-.11-.19.21-.72,1.17-.72,1.36v5.49h-1.24v-8.49c.97.03,1.43-.34,1.25.83,1.56-1.55,4.17-1.39,5.36.55.21.34.66,1.51.66,1.83v5.28Z"/>
      <path class="cls-1" d="M165.37,61.27h-1.24v-5.69c0-1.52-2.84-2.47-4.06-1.15-.19.21-.72,1.17-.72,1.36v5.49c-.52,0-1.18.15-1.25-.52.14-1.04-.27-7.56.19-7.88.26-.17.74-.07,1.05-.09v.83c1.53-1.5,4.04-1.41,5.28.43.2.3.74,1.48.74,1.75v5.49Z"/>
      <path class="cls-1" d="M73.45,52.78v5.28c0,.2.56,1.56.74,1.75,1.27,1.35,4.04.11,4.04-1.34v-5.69h1.24v8.49h-1.04s-.1-1.03-.1-1.03c-1.3,1.71-3.87,1.68-5.19,0-.19-.25-.72-1.13-.72-1.35v-6.11h1.04Z"/>
      <path class="cls-1" d="M59.55,61.27c-2.24.41-.8-2.81-1.34-4.15l-3.43-7.13c0-.17,1.06-.17,1.21-.07.38.24,2.36,5.52,3.14,6.18.42-.76,2.65-6,2.94-6.18.24-.15.88.02,1.21-.03l-3.73,7.55v3.83Z"/>
      <path class="cls-1" d="M38.18,11.18l-9.04.63c-2.74-1.2-.78-3.36,1.67-2.7,1.71.49,4.13.09,5.77.46.41.09,1.9,1.36,1.6,1.61Z"/>
      <path class="cls-1" d="M38.18,43.06c-.33.42-.92,1.2-1.4,1.39-.87.35-5.37.62-6.59.67-.99.04-2.32-.03-2.36-1.34-.05-1.8,2.2-1.32,3.4-1.35l6.95.62Z"/>
      <path class="cls-1" d="M15.71,36.37c-.8.99-4.9-.04-6.22.22l-2.22-2.23,7.52-.38c1.06.29,1.64,1.51.92,2.39Z"/>
      <path class="cls-1" d="M7.48,19.87c-.24-.22,1.75-2.19,2.18-2.27.68-.13,4.51-.3,5.17-.2,1.54.24,1.54,2.42.22,2.67-2.25.42-5.23-.48-7.57-.2Z"/>
      <path class="cls-1" d="M134.04,49.89v2.9h1.87s0,.92,0,.92c-.04.28-1.87.03-1.87.12v7.45h-1.04v-7.45h-1.66s0-.92,0-.92c.04-.28,1.66-.04,1.66-.12v-2.9h1.04Z"/>
      <path class="cls-1" d="M81.13,53.09c.12-.38.89-.33,1.24-.31l.1.83c.55-.61,1.32-1.1,2.18-1.03.34,1.76-.56,1.1-1.45,1.76-.2.15-.83,1.11-.83,1.24v5.69h-1.24v-8.18Z"/>
      <rect class="cls-1" x="72.62" y="10.76" width="2.7" height="4.97"/>
      <path class="cls-1" d="M34.24,7.24c-1.54-.25-3.86.68-5.28.41-1.33-.26-1.46-2.38-.17-2.63.72-.14,3.35.03,3.91.35.19.11,1.75,1.69,1.54,1.87Z"/>
      <path class="cls-1" d="M34.03,46.99c.21.18-1.35,1.77-1.54,1.87-.41.23-3.19.51-3.7.36-.92-.27-1.17-1.56-.57-2.29.77-.94,4.59.24,5.82.06Z"/>
      <path class="cls-1" d="M11.42,38.29h3.84c.61,0,1.17,1.84.19,2.46-1.39.88-2.91-.8-3.71-1.84-.16-.21-.4-.26-.31-.62Z"/>
      <path class="cls-1" d="M30.3,3.31c-1.66.7-2.84-.4-2.28-2.07.41-.36,2.47,1.8,2.28,2.07Z"/>
      <path class="cls-1" d="M28.78,50.76c.33-.1,1.52-.11,1.51.27,0,.14-1.73,1.64-1.97,1.96-.87-.55-.38-1.98.46-2.23Z"/>
    </g>
  </g>
</svg>