<?xml version="1.0" encoding="UTF-8"?>
<svg id="Layer_2" data-name="Layer 2" xmlns="http://www.w3.org/2000/svg" viewBox="0 0 127.3 92.5">
  <defs>
    <style>
      .cls-1, .cls-2 {
        fill: #f6f9fd;
      }

      .cls-2 {
        fill-rule: evenodd;
      }
    </style>
  </defs>
  <g id="Layer_1-2" data-name="Layer 1">
    <g>
      <path class="cls-1" d="M63.7,0C28.6-.03.03,20.69,0,46.19c-.02,25.5,28.51,46.28,63.61,46.32,35.1.03,63.67-20.69,63.7-46.19C127.33,20.81,98.8.04,63.7,0ZM63.61,89.48c-33.43-.03-60.61-19.46-60.59-43.29C3.04,22.35,30.26,2.99,63.7,3.02c33.42.03,60.6,19.46,60.58,43.3-.02,23.84-27.24,43.2-60.68,43.17Z"/>
      <path class="cls-1" d="M63.7,5.03c-32.33-.03-58.64,18.43-58.67,41.16-.03,22.73,26.26,41.25,58.58,41.28,32.33.04,58.64-18.43,58.67-41.15.02-22.73-26.26-41.25-58.58-41.28ZM82.32,15.79c.16-.51.6-.93,1.05-1.23l1.16-.76,1.17.35-1.48.88h0c.2,0,.38,0,.59.06.78.23,1.1.99.9,1.64-.26.88-1.2,1.12-2.11.86-.39-.11-.8-.33-1.04-.64-.25-.33-.36-.77-.25-1.15ZM78.07,14.93c.26.31.62.57,1.04.67.34.07.7-.08.76-.4.1-.44-.33-.72-.75-.82-.26-.06-.55-.06-.81-.02l.79-1.9,2.11.46-.18.8-1.4-.31-.15.4.33.05c.84.12,1.32.86,1.15,1.62-.08.38-.35.7-.73.86-.37.17-.84.14-1.25.04-.46-.09-.91-.3-1.25-.61l.35-.86ZM73.33,12.77c.13-.91,1.03-1.27,1.97-1.13.39.06.84.22,1.12.49.3.3.46.72.4,1.1-.08.53-.46,1-.89,1.37l-1.03.9-1.21-.18,1.36-1.07h0c-.2.04-.38.04-.6.01-.8-.11-1.22-.82-1.12-1.5ZM70.02,11.17l1.67.16-.36,3.71-1.07-.1.28-2.89-.59-.06.08-.83ZM62.53,10.92h2.36v.82s-1.28,0-1.28,0v.63h1.21s0,.82,0,.82h-1.21s0,.64,0,.64h1.27v.82h-2.36v-3.73ZM58.29,11.6c.39-.41.96-.66,1.54-.69.35-.01.67.03,1,.14l.06,1.16c-.24-.25-.59-.38-.97-.35-.66.03-1.08.51-1.04,1.09.03.59.51.98,1.18.94.35-.01.69-.18.9-.44l.07,1.17c-.36.12-.61.2-.95.22-.58.04-1.14-.13-1.59-.47-.48-.34-.71-.81-.74-1.37-.03-.51.16-1.01.54-1.39ZM53.04,11.62l2.24,2.03h.01s-.28-2.27-.28-2.27l1.07-.14.46,3.72-1.07.12-2.24-2.03h-.01s.28,2.28.28,2.28l-1.07.13-.45-3.71,1.07-.13ZM50.24,12.07l.67,3.67-1.07.19-.66-3.67,1.06-.19ZM46.13,12.8c.41-.08.94-.1,1.34,0l-.25.83c-.23-.1-.5-.14-.75-.08-.2.05-.43.21-.38.41.05.21.35.22.54.24h.29c.59.03,1.09.18,1.23.77.08.36.07.75-.19,1.08-.25.31-.66.52-1.07.61-.51.11-1.04.08-1.52-.08l.27-.87c.31.15.66.25,1.02.16.24-.07.48-.24.42-.49-.06-.26-.5-.25-.73-.26-.7-.01-1.17-.07-1.33-.77-.18-.74.29-1.35,1.1-1.55ZM53.7,80.11c-.51,2.23-4.34,2.23-6.15,1.3.01-.44.18-1.25.4-1.57.76.41,2.84.73,3.1-.1.21-.69-.34-1.14-1.31-1.57-1.29-.58-2.69-1.31-2.33-2.98.56-2.54,5.72-1.45,5.71-1.39-.02.45-.14,1.26-.3,1.59-.73-.28-2.54-.72-2.76.3-.13.61.39.85.95,1.1,1.78.78,3.04,1.74,2.68,3.33ZM62.74,81.71s-1.89.06-2.32-.01c-.06-.08-.08-.74-.08-.74l-.67.33c-.86.57-1.86.48-1.87.48-.89.02-1.51-.25-1.96-.84-.59-.78-.71-2.03-.71-3.25,0-1.59.25-3.19.39-3.75.58-.09,1.76-.09,2.61,0-.16,1.17-.25,2.19-.25,2.99,0,1.43.21,2.22.73,2.58.56.39,1.29.16,1.55-.07.13-.12.23-.44.23-2.27,0-.77,0-1.84-.01-3.23.65-.07,1.97-.08,2.58,0-.02.63-.19,7.78-.21,7.78ZM69.67,81.78c-1.99.4-4.7.06-4.73.04,0,0,.1-7.28.1-7.71.26-.05,5.75-1.32,6.41.99.4,1.41-.98,2.07-.99,2.16,0,.08,1.6.3,1.69,1.71.11,1.74-1.37,2.6-2.49,2.81ZM79.49,80.14c-.51,2.23-4.34,2.22-6.15,1.29.01-.44.18-1.25.4-1.57.76.42,2.85.73,3.1-.1.21-.68-.34-1.13-1.3-1.56-1.3-.58-2.7-1.31-2.33-2.99.55-2.53,5.72-1.45,5.71-1.39-.02.46-.15,1.26-.3,1.59-.73-.28-2.54-.72-2.76.29-.13.61.4.86.96,1.1,1.79.78,3.04,1.74,2.68,3.33ZM106.86,45.8c-.63,2.22-1.94,5.4-6.9,5.8.13.36.19.75.18,1.13,0,.47-.07.93-.16,1.36-.03.12-.05.26-.04.41,0,.81.44,1.9,1.22,3.03.61.74,1.65.79,2.66.78l.38-.02c.73-.05,2.96-.19,3.37,2.53h0c.18,1.18.22,2.25-1.14,3.3-.8.63-2.38,1.12-3.93,1.04-1.12,2.37-3.69,4.43-7.7,4.43-2.26,0-3.85-.7-4.91-1.47-1.39.76-3.46,1.62-6.25,1.62-1.82,0-3.46-.41-4.84-1.17-.01.01-.09.17-.09.17-.41.87-1.14,1.87-3.16,1.88-2.37,0-4.66-1.29-6.45-2.62-.14.2-.28.39-.47.58-.59.55-1.32.87-2.05.87l-.79-.03s-1.19-.04-1.19-.04h-.12c-1.8.02-2.68-.74-3.1-1.64-.54,1.16-1.57,1.72-3.15,1.72h-2.39c-1.15,0-2.03-.27-2.67-.82-.61.56-1.49.84-2.6.84h-4.19c-2.05.02-3.21-.98-3.75-3.24,0,0-.06-.26-.06-.28-.04.08-.07.15-.07.15-.77,1.89-2.9,1.9-3.82,1.9h-.69c-.92,0-3.05,0-3.8-1.86,0,0-.07-.14-.07-.16-.03.14-.07.27-.11.39-.58,1.88-1.43,3.13-3.7,3.13h-4.26c-1.27.01-2.22-.34-2.84-1.04-.95-1.1-.68-2.45-.48-3.44,0,0,3.87-19.06,3.87-19.07.11-.59.28-1.08.5-1.52-4.11-.44-7.22-2.63-7.66-2.96-.05-.03-1.15-.86-1.52-1.81-.12-.31-.17-.6-.17-.89,0-.59.21-1.08.36-1.35,1.11-2.49,1.7-3.82,1.78-3.96l.02-.04c.17-.37.68-1.48,1.97-1.65,1.11-.17,1.87.23,2.34.56,1.09.75,2.74,1.53,3.51,1.48.29-.01.97-.12,1.17-.77.3-.99.78-2.33-.75-9.59l-.18-.9c-.13-.89-.32-2.23.51-3.28.73-.93,1.83-1.23,2.63-1.21h.01l4.63-.47c.48,0,1.97-.01,2.97,1.14.65.74.72,1.6.77,2.23l.02.27c.14,1.52.31,4.34.37,7.99,1.77-1.6,3.81-2.52,5.85-2.61,1.67-.08,3.25.4,4.53,1.34.03-.42.15-.89.51-1.31.57-.72,1.5-.96,2.01-1.04.2-.03,1.29-.21,2.6-.19,1.19.03,2.23.13,2.6.21,1.05.18,1.55.78,1.8,1.28,0,0,0-.01,0-.02,0,0,.01.02.01.03,0,0,0,0,0,.01s0,.01,0,.02c0,0,0,0,0,0,.18.39.24.79.24,1.1,0,.28-.04.49-.06.62-.01.06-.02.13-.02.2,0,.01,0,.02,0,.02.37.15,1.18.11,1.91.07l.62-.03c.83-.04,1.57.22,2.16.67.41-2.4,1.73-5.52,4.66-5.53,0,0,3.69-.01,3.7-.01,1.07,0,1.9.32,2.46.97.84.97.7,2.27.47,3.3-.17.8.16,1.66,1.21,3.18h0s.03.03.04.05c0,0,0,0,0,0,.06.06.1.13.15.18.33-.6.74-1.18,1.22-1.71,1.95-2.14,4.34-3.39,6.74-3.5,1.92-.09,3.73.53,5.12,1.77.24.22.45.46.64.71.11-.34.22-.67.37-1.01.47-1.06,1.59-1.27,3.25-1.47.56-.06,2-.21,3.2-.15.55.03,2.16.14,2.71,1.45,1.95-.85,5.5-.94,6.45-.72,1.79.39,2.06,1.66,2.11,2.04.04.48.07,1.03.07,1.63,0,2.91-.54,7-.94,9.4.87.49,1,1.32,1.02,1.64,0,.07,0,.17,0,.25,0,1.26-.38,3.08-2.39,3.71ZM103.94,53.62c0,.89-.72,1.61-1.6,1.6-.89,0-1.61-.72-1.6-1.61,0-.89.72-1.6,1.6-1.6.89,0,1.6.72,1.6,1.6Z"/>
      <g>
        <path class="cls-1" d="M75.78,13.11c-.06.34-.4.56-.77.51-.38-.06-.63-.38-.58-.71.06-.34.38-.56.76-.51.38.06.63.37.59.71Z"/>
        <path class="cls-1" d="M84.63,16.44c-.09.33-.45.52-.81.41-.35-.11-.58-.46-.48-.79.1-.32.47-.49.83-.39.36.11.57.44.47.77Z"/>
        <path class="cls-1" d="M69.7,79.28c-.04,1.09-2.1,1.08-2.2.96-.08-.09-.06-1.47.05-1.57.48-.43,2.19-.55,2.15.61Z"/>
        <path class="cls-1" d="M69.24,76.09c-.06.79-1.74,1.02-1.81.94-.07-.08-.07-1.55.06-1.59.39-.15,1.81-.2,1.75.65Z"/>
        <path class="cls-1" d="M92.08,45.62c-.01.17-.02.32-.01.49,0,.3.02.61.07.89-.04-.09-.07-.18-.12-.26-.76-1.42-2.36-2.66-4.06-2.88,1.78-.39,3.5-1.17,5.02-2.26.32.23.65.43.98.59-1.08.93-1.74,2.08-1.87,3.43Z"/>
        <path class="cls-1" d="M40.69,42.72c-.65.41-1.25,1.13-1.65,2.35-.09.31-.37,1.21-.7,2.32-.27-.9-.69-2.29-.69-2.29-.51-1.58-1.35-2.32-2.2-2.63.98-.67,1.78-1.48,2.42-2.45.69,1.09,1.66,2.01,2.82,2.71Z"/>
        <path class="cls-1" d="M62.22,43.87c-.22.35-.42.77-.55,1.29-.23.95-.43,2.02-.58,3.16-.14-.17-.28-.33-.44-.48-1.08-1.01-2.51-1.57-4.02-1.56-2.68,0-4.93,1.78-5.53,4.18-.51-2.63-.88-4.55-.88-4.55h0c-.14-.77-.41-1.41-.74-1.93,1.12-.24,2.21-.61,3.22-1.12,0,0,.09-.04.09-.04,1.14-.58,2.19-1.41,3.13-2.42.14.34.31.66.54.97,1.14,1.57,2.91,2.47,4.97,2.53.27.01.54,0,.81-.02Z"/>
        <path class="cls-1" d="M84.48,52.42c-.29-.03-.59-.04-.88-.02-1.77.08-3.55.79-5.14,2.04-.31-1.5-1.08-2.76-2.27-3.49-1.58-.99-3.27-1.33-4.96-1.02.32-1.29.68-2.55.93-3.27.18-.53.26-1.01.26-1.42,0-.67-.19-1.19-.43-1.56,2.54-.31,4.47-1.54,5.68-3.12,1.6,2.28,4.36,3.61,7.61,3.6.06,0,.11,0,.17,0-.84.3-1.48.74-1.88,1.12-.82.78-1.23,2.27-1.23,3.27,0,.03,0,.05,0,.07.04,1.35.65,2.87,2.12,3.81Z"/>
        <path class="cls-1" d="M102.34,52.51c-.61,0-1.08.49-1.08,1.1,0,.6.46,1.1,1.07,1.11.6,0,1.08-.5,1.07-1.11,0-.6-.47-1.11-1.07-1.11ZM102.99,54.43h-.42s-.33-.64-.33-.64h-.15s0,.64,0,.64h-.38v-1.63h.63c.46,0,.72.11.72.51,0,.32-.2.43-.44.45l.37.66Z"/>
        <path class="cls-1" d="M102.64,53.28c0,.16-.08.22-.23.21h-.32s0-.38,0-.38h.23c.13,0,.31.01.32.17Z"/>
      </g>
      <path class="cls-2" d="M60.28,58.88c-.13,2.44-.43,5.85-.56,7.31-.15,1.53-.69,1.62-1.56,1.61h-2.4c-.93.02-1.62-.11-1.76-1.58l-.21-2.02c-.18-1.65-.42-3.7-.51-5.29-.04-.86.07-1.39.35-1.69.26-.25.66-.31,1.17-.31h3.97c.52,0,.92.04,1.17.3.28.28.39.81.34,1.67Z"/>
      <path class="cls-2" d="M51.78,67.43c-.22.26-.64.38-1.29.39h-4.2c-.84.01-1.38-.1-1.77-1.75l-1.49-6.18-2.49,5.78c-.2.5-.69.67-1.94.67h-.7c-1.25.01-1.74-.15-1.94-.65,0-.02-2.48-5.78-2.48-5.78l-.46,2.01c-.28,1.24-.61,2.78-1.04,4.18-.52,1.69-.97,1.77-1.78,1.77h-4.27c-.65.01-1.07-.11-1.29-.37-.32-.37-.23-1-.05-1.85l3.88-19.2c.24-1.34.97-2.15,1.93-2.15h3.73c.72,0,1.17.43,1.51,1.48l2.61,8.79.1-.3c.02-.08,2.24-7.55,2.54-8.5.33-1.04.78-1.5,1.51-1.5h3.83c.96-.01,1.68.79,1.92,2.13l3.68,19.19c.17.85.27,1.49-.06,1.85Z"/>
      <path class="cls-2" d="M60.27,51.91c-.01,1.97-1.67,3.58-3.71,3.59-.98,0-1.9-.37-2.59-1.02-.72-.68-1.11-1.59-1.11-2.55,0-1.97,1.67-3.59,3.71-3.59.98,0,1.9.36,2.6,1.02.71.68,1.1,1.59,1.1,2.56Z"/>
      <path class="cls-2" d="M77.63,65.53c-.24-.45-.83-.62-1.52-.67-1.38-.08-3.26-1.18-3.6-1.89l-.03-.07.06-.04c2.61-1.92,4.12-4.55,4.02-7.05-.05-1.39-.61-2.52-1.53-3.1-2.01-1.26-4.13-1.07-6.29.58l-.17.13.02-.2c.12-2.1,1.15-5.69,1.6-7.01.23-.66.22-1.16-.03-1.49-.23-.32-.68-.48-1.31-.5h-2.12c-1.93,0-2.82.15-3.16,1.53-1.44,5.86-1.31,16.32-.58,20.95.17,1.04.76,1.03,1.39,1.02h.14s1.33.04,1.33.04l.65.02c.19,0,.43-.11.63-.3.25-.23.4-.56.39-.82v-2.28s.29.25.29.25c1.39,1.3,4.66,4.33,7.66,4.33.99,0,1.14-.33,1.34-.76l.07-.15c.23-.47.58-1.24.74-1.77.04-.14.17-.45-.01-.77ZM71.07,58.77c-.56.66-1.48,1.46-2.66,1.46h-.1s.01-.09.01-.09c.04-.87.48-2.53,1.43-3.27.37-.29.78-.39,1.21-.32.32.04.55.21.65.46.04.1.06.22.06.34,0,.47-.27,1.03-.6,1.43Z"/>
      <path class="cls-2" d="M105.62,61.25c-.14-.97-.51-.95-1.25-.9l-.49.02c-.98.01-3.02.04-4.31-1.57-.91-1.29-1.91-3.2-1.53-4.99.18-.88.17-1.42-.06-1.68-.16-.17-.43-.26-.87-.27h-3.64c-1.87.03-2.67,3.76-2.75,5.47-.08,1.66-.9,4.56-2.84,5.72-1.46.88-3.14.99-3.88.6-.3-.15-.45-.39-.44-.66v-.07l.07-.02c2.04-.49,3.96-2.28,4.48-4.17.24-.84.27-2.07-.84-3.07-.96-.86-2.23-1.3-3.57-1.24-1.81.09-3.67,1.08-5.23,2.8-2.06,2.28-2.37,5.55-.77,7.97l.13.18c1.23,1.71,3.29,2.65,5.79,2.64,3.18,0,5.24-1.32,6.36-2.02l.16-.1.06.06c.73.87,2.12,1.91,4.59,1.91,3.87-.01,5.99-2.45,6.32-4.72v-.14s.14.08.14.08c1.26.72,3.28.22,3.92-.28.36-.28.49-.45.5-.88,0-.17-.02-.39-.07-.69ZM82.11,60.16v-.08c-.13-.74.41-1.86,1.11-2.33.42-.29.84-.33,1.24-.14.37.18.51.47.42.84-.19.77-1.47,1.7-2.69,1.7h-.08ZM96.15,62.08c-.16.43-.43.72-.82.88-.47.21-1.12.18-1.71-.07l-.13-.05.1-.09c.65-.63,1.26-2.56,1.21-3.81l.18-.03c.13.37.36.73.58,1.08.43.65.87,1.31.59,2.09Z"/>
      <path class="cls-2" d="M89.22,52.55c-.41.55-.93.66-1.24.53-.18-.08-.27-.23-.23-.4.11-.62-.18-1.36-.77-1.47h0c-2.2-.43-2.48-2.09-2.5-2.77,0-.38.18-1.01.73-1.55.38-.37,1.07-.81,2.21-.81,1.45,0,2.17.79,2.51,1.44.75,1.4.45,3.52-.7,5.04Z"/>
      <path class="cls-2" d="M107.18,41.9c-.01-.18-.43-.18-.74-.18-.3,0-.46,0-.53-.08-.04-.03-.04-.09-.03-.13.33-1.32,1.5-8.93,1.15-12.16-.01-.15-.16-.27-.44-.35-1.39-.39-5.27.38-5.5.65-.08.13-.15,1.26-.21,2.34-.15,2.42-.27,4.3-.59,4.6-.25.29-.58.45-.91.45-.35,0-.67-.15-.94-.42-1.07-1.42-.46-4.33-.07-6.25.18-.84.33-1.57.26-1.82-.03-.07-.13-.12-.31-.17-1.22-.31-4.91.16-5.14.37-.66,1.52-.87,3.11-1.06,4.65l-.09.71c-.05.85-.74,2.19-2.49,3.09-1.46.75-3.21,1-4,.55-.27-.14-.39-.36-.39-.62v-.07h.07c2.08-.51,4.03-2.33,4.57-4.25.23-.86.28-2.1-.86-3.11-.98-.88-2.27-1.32-3.63-1.25-1.85.09-3.74,1.1-5.32,2.84-1.88,2.08-2.36,4.97-1.19,7.36,1.11,2.28,3.45,3.58,6.43,3.58,2.8-.01,5.62-1.18,7.75-3.21l.1-.04.11.17c2.25,3.02,6.7,1.36,7.2,1.17l.06-.02.04.04c.09.1-.11,1.31-.11,1.32l-.02.02h-.03c-2.24.32-6.03,1.28-6.29,4.09-.08,1.1.21,1.99.84,2.67.76.79,1.98,1.23,3.54,1.28,5.28.17,6.02-2.75,6.63-5.08l.09-.35c.04-.15.23-.17.48-.2.62-.06,1.66-.16,1.59-2.2ZM83.67,34.26v-.08c-.12-.76.42-1.88,1.13-2.36.43-.29.86-.33,1.26-.13.37.18.52.47.43.84-.2.78-1.49,1.73-2.74,1.73h-.08ZM100.12,44.42c0,1.09-.81,2.09-1.57,2.36-.46.15-.87.06-1.18-.28-.21-.24-.26-.52-.13-.8.3-.68,1.55-1.3,2.78-1.37h.1s0,.08,0,.08Z"/>
      <path class="cls-2" d="M75.42,32.63c-1.2-1.71-1.88-3.1-1.55-4.67.2-.89.18-1.43-.06-1.7-.16-.18-.42-.27-.89-.26h-3.7c-1.85.01-2.78,3.31-2.8,5.16-.01,1.86-1.1,6.63-3.06,7.03-.58.12-.99.03-1.23-.28-.9-1.13,1.07-4.75,1.3-5.15.21-.37.39-.81.21-1.23-.22-.46-.6-.68-1.14-.67l-.59.04c-1.06.06-2.14.13-2.98-.27-1.3-.42-1.08-1.96-1.03-2.27.03-.19.06-.43-.04-.6-.07-.19-.21-.21-.35-.24h-.07c-.13-.04-.98-.14-2.2-.16-1.19-.03-2.23.16-2.24.16-.16.02-.6.12-.74.3-.16.2-.09.59-.05.73.04.2,1.01,4.56-.51,7.16-.03.04-.66,1.05-1.74,1.59-1.49.74-3.26.98-4.01.55-.25-.14-.38-.36-.38-.62v-.08h.07c2.08-.5,4.05-2.32,4.57-4.23.24-.87.28-2.11-.85-3.12-.98-.87-2.27-1.32-3.63-1.25-1.85.08-3.74,1.1-5.32,2.83-1.78,1.95-2.29,4.56-1.34,6.79,1.01,2.37,3.41,3.88,6.59,4.16,2.04.18,4.17-.24,6.01-1.16l.09-.04c2.08-1.06,3.86-3.15,5.02-5.88l.05-.13c.15-.34.37-.84.75-1,.15-.05.31-.05.49.01.56.27.31,1,.02,1.6-.5,1.05-1.17,3.05-.07,4.54,1,1.37,2.39,1.69,3.39,1.71,1.72.06,3.59-.72,4.55-1.88l.06-.08.08.07c.81.79,2.05,1.7,4.48,1.74,3.94.05,6.1-2.44,6.42-4.78.26-1.28-.29-2.8-1.59-4.42ZM44.1,34.35v-.08c-.13-.76.42-1.89,1.14-2.37.41-.27.86-.32,1.26-.13.37.18.52.48.43.85-.19.76-1.49,1.72-2.73,1.73h-.09ZM71.94,35.95c-.15.43-.44.73-.82.9-.49.21-1.15.18-1.76-.06l-.13-.05.1-.1c.67-.65,1.28-2.56,1.22-3.86l.19-.04c.12.38.36.74.59,1.1.34.51.69,1.04.69,1.62,0,.15-.03.32-.09.49Z"/>
      <path class="cls-2" d="M37.47,35.33c-.73,3.98-2.73,6.07-6.72,7.01-4.17.98-8.35-1.02-10.16-2.36-.32-.22-.77-.7-.87-.96-.14-.35.13-.78.13-.78.02-.04,1.67-3.75,1.77-3.93l.05-.09c.1-.21.23-.51.45-.55.32-.04.53.01.84.22.28.21,2.9,1.97,4.82,1.85,1.14-.07,2.53-.67,2.98-2.16.78-2.62-.19-7.96-.72-10.48l-.16-.79c-.09-.65-.21-1.45.13-1.89.38-.48.99-.43,1.01-.42.01,0,4.65-.47,4.65-.47.51,0,1.07.05,1.42.45.24.27.27.69.31,1.15l.02.31c.23,2.46.78,9.88.06,13.89Z"/>
    </g>
  </g>
</svg>