<?xml version="1.0" encoding="UTF-8"?>
<svg id="Layer_2" data-name="Layer 2" xmlns="http://www.w3.org/2000/svg" viewBox="0 0 88.98 118.14">
  <defs>
    <style>
      .cls-1 {
        fill: #f6f9fd;
      }
    </style>
  </defs>
  <g id="Layer_1-2" data-name="Layer 1">
    <g>
      <path class="cls-1" d="M19.17,0l16.18,21.81L44.52.2l8.98,21.62c.38-.1.28-.18.39-.38.43-.78,1.15-1.5,1.68-2.22,4.52-6.14,8.9-12.45,13.57-18.5.14-.18.34-.47.48-.62.06-.06.08-.12.19-.1v49.87h18.59l-7.32,8.93v20.37s.14.22.14.22l7.76,6.36-36.54,13.8c.03.33-.05.74,0,1.06.04.3.68.66.91.89.6.61,1.39,1.18,2.09,1.78.66.56,1.45,1.16,2.09,1.77.06.06.28.24.26.32l-13.34,12.77-13.29-12.77c-.03-.09.06-.1.1-.15.27-.27.71-.53,1-.78,1.03-.88,2.06-1.8,3.07-2.67.23-.2,1.05-.76,1.16-.96.09-.15.11-1.14,0-1.23L0,85.78l.04-.13c1.94-1.62,3.97-3.14,5.91-4.76.06-.05.08-.14.15-.19.57-.47,1.14-.93,1.74-1.36l.02-.08c.03-6.39-.05-12.79,0-19.18,0-.43.11-.89.02-1.35-2.06-2.45-4.1-4.92-6.13-7.4-.26-.32-.58-.65-.84-.98-.1-.13-.24-.3-.26-.46h18.53V0ZM41.76,46.59s.02.08,0,.12h-16.14c-.08-.06.29-.32.36-.37,1-.85,2.11-1.58,3.12-2.42v-19.4c.89.25,1.76.62,2.66.85.09.02.12.12.11-.05l-7.78-10.46v40.09c.1.02.14-.04.21-.08,1.15-.66,2.25-1.53,3.42-2.18h13.74v50.29c-.29.37-2.99,2.43-2.95,2.63l5.96,5.7,6-5.7s-.31-.44-.33-.46c-.76-.55-1.57-1.24-2.35-1.93-.09-.08-.28-.12-.28-.14v-50.38h13.8c.05,0,.75.49.88.58.64.41,1.42.83,2.07,1.3.21.15.22.4.62.31V14.93l-7.78,10.39c-.01.17.03.06.11.05.89-.21,1.77-.61,2.66-.85v19.4l3.38,2.61.1.19h-19.69c-.02-.14.19-.24.29-.32,1.04-.85,2.17-1.59,3.18-2.48v-20.69c.19,0,.38.11.56.18.41.18.94.53,1.34.65.09.03.12,0,.09-.09l-4.66-11.04-4.6,11.04.09.09,1.83-.84v23.36ZM19.11,54.77h-8.17l1.74,2.15.07.19-.04,24.49c-.88.87-2.05,1.56-2.93,2.41-.07.07-.15.11-.13.23l26.89,10.1v-20.82s-.09-.1-.1-.1h-8.07c0,.13.12.25.2.35.49.68,1.11,1.26,1.61,1.93v9.33l-11.07-4.12v-26.16ZM77.98,54.77h-8.17v26.16l-9.37,3.63c-.14.03-.06-.15-.12-.12-.08.03-.12.21-.21.26-.33.18-.99.31-1.37.45v-25.19c.5-.74,1.16-1.38,1.71-2.09.05-.06.12-.08.1-.19h-8.17v36.65l26.89-10.07c.02-.11-.06-.16-.13-.23-.88-.85-2.05-1.55-2.93-2.41l-.04-24.49.07-.19,1.74-2.15Z"/>
      <path class="cls-1" d="M84.53,58.89c.07.04.48,1.49.59,1.4.06-.18.4-1.36.46-1.41.05-.04.29,0,.38,0,0,.7.29,1.5.31,2.18,0,.28-.37.19-.43.13s-.12-1-.14-1.18c-.01-.09-.04-.2-.13-.1-.06.06-.29,1-.38,1.19-.03.07-.06.18-.16.16-.13-.03-.44-1.15-.52-1.35-.18.17-.16,1.28-.23,1.35-.02.02-.36-.01-.45,0l.32-2.38c.1.01.3-.04.37,0Z"/>
      <path class="cls-1" d="M83.64,58.95v.39s-.45,0-.45,0v1.87s-.45.13-.45-.03v-1.83h-.45s0-.39,0-.39h1.35Z"/>
      <path class="cls-1" d="M41.76,46.59v-23.36l.07.16v22.98c.03.1-.04.16-.07.22Z"/>
    </g>
  </g>
</svg>