<?xml version="1.0" encoding="UTF-8"?>
<svg id="Layer_2" data-name="Layer 2" xmlns="http://www.w3.org/2000/svg" viewBox="0 0 158.87 63.09">
  <defs>
    <style>
      .cls-1 {
        fill: #f6f9fd;
      }
    </style>
  </defs>
  <g id="Layer_1-2" data-name="Layer 1">
    <g>
      <path class="cls-1" d="M127.33,0c-4.46,0-8.7.93-12.53,2.6l6.62,7.29c1.88-.52,3.87-.82,5.91-.82,12.4,0,22.48,10.09,22.48,22.48s-10.09,22.48-22.48,22.48c-2.05,0-4.03-.3-5.91-.82l-6.62,7.29c3.85,1.67,8.08,2.6,12.54,2.6,17.42,0,31.55-14.13,31.55-31.55S144.75,0,127.33,0Z"/>
      <g>
        <path class="cls-1" d="M140.89,31.62c0,8.83-6.78,12.65-13.6,12.65s-13.51-3.82-13.51-12.65,6.49-12.74,13.51-12.74,13.6,3.87,13.6,12.74ZM132.01,31.62c0-2.77-1.58-5.35-4.73-5.35s-4.68,2.58-4.68,5.35,1.48,5.25,4.68,5.25,4.73-2.34,4.73-5.25Z"/>
        <path class="cls-1" d="M14.75,43.69v-13.46c0-2.82-.96-3.72-2.58-3.72-1.53,0-3.15,1.14-3.2,3.87v13.32H0v-24.3h7.59l.67,2.62c1.53-2.15,4.15-3.15,6.68-3.1,2.48.05,4.82,1.14,6.02,3.43,2.05-2.53,4.73-3.48,8.07-3.48,5.3,0,9.31,3.25,9.31,11.31v13.51h-9.07v-13.46c0-2.58-1.14-3.58-2.48-3.58-1.53,0-3.15.96-3.15,3.68v13.37h-8.88Z"/>
        <path class="cls-1" d="M59.95,19.4h8.49v24.3h-8.35l-.43-2.62c-2.1,2.39-5.25,3.2-7.97,3.06-7.16-.38-11.12-5.53-11.12-12.56s4.68-12.7,11.79-12.7c3.48,0,5.83,1.19,7.11,3.15l.48-2.62h0ZM49.55,31.57c0,3.39,2.15,5.3,4.86,5.3,3.06,0,5.01-2.44,5.01-5.3,0-3.29-1.81-5.4-5.01-5.4-2.72,0-4.86,2-4.86,5.4Z"/>
        <path class="cls-1" d="M79.12,19.4l.52,2.67c1.33-2.34,3.53-3.25,5.87-3.25,2.53,0,4.82.86,6.39,2.58l-3.63,6.54c-1.53-1.14-2.53-1.43-4.06-1.43-2.34,0-4.2,1.33-4.2,4.54v12.65h-9.02v-24.3h8.12,0Z"/>
        <path class="cls-1" d="M109.35,34.87c-1.2,1.17-2.66,1.81-4.26,1.81-3.39,0-5.25-2.44-5.25-5.01,0-3.1,1.81-5.58,5.3-5.58,1.62,0,3.05.62,4.19,1.76l4.77-5.25c-2.57-2.49-5.98-3.72-9.49-3.72-6.87,0-13.6,3.87-13.6,12.74s6.68,12.56,13.75,12.56c3.51,0,6.8-1.41,9.62-3.78l-5.03-5.53h0Z"/>
      </g>
    </g>
  </g>
</svg>