<?xml version="1.0" encoding="UTF-8"?>
<svg id="_Layer_" data-name="&amp;lt;Layer&amp;gt;" xmlns="http://www.w3.org/2000/svg" viewBox="0 0 503.96 467.01">
  <defs>
    <style>
      .cls-1 {
        fill: #fff;
      }
    </style>
  </defs>
  <path class="cls-1" d="M426.29,193.94l36.13-17.29-4.76-17.43-40.59,3.57c-.14-.35-.27-.69-.41-1.04l48.54-25.29-17.54-9.22,56.3-33.13-72.89-40.32-49.79,34.91,16.83,9.11-14.43,9.15c-3.03-3.57-6.19-7.03-9.48-10.37l20.9-33.99-13.45-12.06-31.96,24.86c-5.99-4.37-12.24-8.4-18.71-12.08l9.17-39.14-16.57-7.2-21.86,32.76c-7.5-2.75-15.21-5.05-23.1-6.87l-1.24-40.19-17.88-2.68-12.97,38.22c-3.99-.25-8.01-.37-12.06-.37-3.68,0-7.33.1-10.96.31L210.55,0l-17.87,2.68-1.24,39.94c-7.97,1.78-15.75,4.06-23.32,6.8l-21.64-32.44-16.58,7.2,9.04,38.58c-6.62,3.71-12.99,7.8-19.1,12.23h-.01l-31.42-24.45-13.45,12.06,20.47,33.29c-5.65,5.69-10.94,11.72-15.86,18.06l-37.17-14.41-9.42,15.42,29.06,25.89c-3.81,7.04-7.2,14.33-10.13,21.85l-39.51-3.48-4.76,17.43,35.11,16.8c-1.59,7.55-2.74,15.27-3.42,23.12L.06,223.54l-.06,18.06,39.15,7.23h0c.64,8.32,1.8,16.48,3.45,24.47l-35.65,17.05,4.76,17.43,40-3.52c2.88,7.44,6.2,14.66,9.94,21.63l-29.36,26.16,9.42,15.42,37.43-14.51c4.86,6.32,10.1,12.34,15.68,18.02l-20.55,33.42,13.45,12.06,31.44-24.45c6.11,4.46,12.47,8.57,19.08,12.31l-9.03,38.51,16.58,7.2,21.53-32.26c7.61,2.79,15.44,5.11,23.45,6.94l1.22,39.62,17.87,2.68,12.82-37.74c3.9.24,7.83.36,11.79.36,4.48,0,8.93-.15,13.34-.45l12.39,36.45,17.86-2.68,1.2-38.49c8.21-1.92,16.22-4.37,24-7.3l21,31.5,16.58-7.2-8.87-37.86c6.68-3.85,13.12-8.09,19.28-12.68h.01l31.08,24.17,13.45-12.06-20.47-33.28c5.54-5.74,10.73-11.81,15.54-18.18l37.49,14.53,9.41-15.42-29.61-26.39h0c3.62-6.92,6.84-14.08,9.63-21.45l40.56,3.57,4.77-17.43-36.42-17.42c1.43-7.26,2.46-14.67,3.05-22.19l40.95-7.27.05-18.07-41.14-7.6c-.67-7.63-1.78-15.14-3.31-22.49ZM234.47,419.63c-102.5,0-185.89-83.39-185.89-185.89S131.97,47.85,234.47,47.85s185.89,83.39,185.89,185.89-83.39,185.89-185.89,185.89Z"/>
  <path class="cls-1" d="M82.72,232.37c0,3.79-3.07,6.87-6.87,6.87s-6.86-3.07-6.86-6.87,3.07-6.86,6.86-6.86,6.87,3.07,6.87,6.86Z"/>
  <path class="cls-1" d="M233.77,97.87c-74.35,0-134.84,60.49-134.84,134.84s60.49,134.83,134.84,134.83,134.84-60.48,134.84-134.83-60.49-134.84-134.84-134.84ZM233.77,361.54c-71.05,0-128.84-57.79-128.84-128.83s57.79-128.84,128.84-128.84c36.33,0,69.2,15.12,92.64,39.39l-61.95,39.29,16.92,8.99-81.16,48.12,15.01,8.37-82.38,50.84,196.3-73.56-16.93-9.16,44.18-23.01c4.03,12.47,6.21,25.77,6.21,39.57,0,71.04-57.8,128.83-128.84,128.83Z"/>
  <path class="cls-1" d="M402.01,233.05c0,3.8-3.07,6.87-6.87,6.87s-6.87-3.07-6.87-6.87,3.07-6.86,6.87-6.86,6.87,3.07,6.87,6.86Z"/>
  <path class="cls-1" d="M149.29,356.55l-2.98,4.56,8.01,5.23-3.93,6.01-8.01-5.23-3.07,4.71,8.44,5.51-3.93,6.01-15.54-10.14,17.83-27.31,15.54,10.14-3.93,6.01-8.44-5.51Z"/>
  <path class="cls-1" d="M165.37,387.21l9.27,4.18-2.95,6.54-16.99-7.67,13.42-29.73,7.73,3.49-10.47,23.18Z"/>
  <path class="cls-1" d="M194.3,378.7l-1.31,5.29,9.28,2.3-1.73,6.97-9.28-2.3-1.35,5.46,9.78,2.43-1.73,6.97-18.01-4.47,7.85-31.66,18.01,4.47-1.73,6.97-9.78-2.43Z"/>
  <path class="cls-1" d="M232.92,387.54c-1.58-2.44-4.31-3.86-7.21-4.04-5.18-.32-8.92,3.44-9.23,8.49-.32,5.14,3,9.07,8.26,9.39,2.76.17,5.61-1,7.51-3.01l-.62,10.15c-2.86.69-4.93,1.21-7.56,1.05-4.53-.28-8.75-2.27-11.92-5.54-3.38-3.46-4.76-7.79-4.47-12.63.27-4.45,2.22-8.62,5.53-11.62,3.4-3.08,8.14-4.79,12.72-4.5,2.72.17,5.19.93,7.63,2.12l-.62,10.15Z"/>
  <path class="cls-1" d="M258.02,407.55l-8.43.94-2.81-25.28-6.96.78-.79-7.14,22.36-2.49.8,7.14-6.97.77,2.82,25.28Z"/>
  <path class="cls-1" d="M301.78,396.25l-10.12,2.99-11.23-9.76-.08.02,3.55,12.03-8.13,2.4-9.24-31.28,12.15-3.59c6.18-1.83,11.74-.26,13.71,6.41,1.27,4.31-.03,8.76-4.23,10.86l13.62,9.91ZM278.8,384.28l.79-.23c2.66-.79,5.5-2.17,4.49-5.57-1-3.4-4.14-3.02-6.79-2.23l-.79.23,2.3,7.8Z"/>
  <path class="cls-1" d="M317,387.9l-7.51,3.93-15.13-28.89,7.51-3.93,15.13,28.89Z"/>
  <path class="cls-1" d="M332.96,353.27c-2.73-1.01-5.77-.52-8.19,1.07-4.35,2.84-5.1,8.09-2.33,12.32,2.82,4.31,7.82,5.48,12.24,2.59,2.32-1.51,3.9-4.15,4.22-6.9l5.56,8.51c-1.88,2.26-3.23,3.92-5.44,5.36-3.8,2.48-8.37,3.4-12.88,2.68-4.78-.75-8.47-3.4-11.13-7.46-2.44-3.73-3.37-8.24-2.51-12.62.88-4.5,3.67-8.7,7.5-11.21,2.28-1.49,4.71-2.36,7.38-2.86l5.56,8.51Z"/>
  <g>
    <path class="cls-1" d="M96.16,123.9l5.85-5.96,17.08,7.48-7.54-17.21,5.91-6.02,26.74,19.32-5.94,6.05-15.07-11.45-.06.06,7.92,18.74-2.36,2.41-18.64-7.8-.06.06,11.5,15.09-5.91,6.02-19.41-26.79Z"/>
    <path class="cls-1" d="M167.76,88.34c5.34,9.11,2.57,19.35-6.46,24.65-9.03,5.29-19.33,2.7-24.66-6.4-4.99-8.51-1.02-18.85,7.08-23.6,8.1-4.75,19.06-3.15,24.05,5.36ZM144.27,102.16c2.84,4.85,8.5,6.3,12.87,3.74s5.87-8.21,3.03-13.06c-2.27-3.88-7.94-5.33-12.3-2.77-4.37,2.56-5.87,8.2-3.6,12.09Z"/>
    <path class="cls-1" d="M192.05,98.25l-8.03,2.71-8.13-24.1-6.64,2.24-2.29-6.81,21.31-7.19,2.29,6.8-6.64,2.24,8.13,24.1Z"/>
    <path class="cls-1" d="M233.37,74.06c1.24,10.48-5.41,18.76-15.8,19.99-10.4,1.23-18.79-5.27-20.03-15.76-1.16-9.8,6.62-17.68,15.95-18.78,9.32-1.1,18.73,4.76,19.88,14.55ZM206.31,77.3c.66,5.59,5.27,9.18,10.29,8.59,5.03-.59,8.67-5.16,8.01-10.75-.53-4.47-5.13-8.06-10.16-7.47-5.03.59-8.67,5.16-8.14,9.63Z"/>
    <path class="cls-1" d="M265.47,94.56l-10.49-1.18-6.55-13.36h-.09s-1.4,12.46-1.4,12.46l-8.43-.95,3.64-32.41,12.6,1.41c6.41.72,10.92,4.32,10.14,11.24-.5,4.47-3.43,8.06-8.12,8.36l8.7,14.43ZM248.95,74.6l.82.09c2.75.31,5.9.14,6.3-3.38.4-3.53-2.64-4.39-5.39-4.7l-.82-.09-.91,8.08Z"/>
    <path class="cls-1" d="M311.83,89.23c-.63-2.84-2.69-5.13-5.34-6.31-4.74-2.11-9.56.1-11.62,4.72-2.1,4.7-.37,9.54,4.45,11.69,2.53,1.13,5.6,1.03,8.09-.19l-4.14,9.29c-2.92-.35-5.04-.59-7.45-1.66-4.15-1.85-7.4-5.19-9.23-9.37-1.96-4.43-1.73-8.97.24-13.39,1.81-4.07,5.1-7.3,9.24-8.95,4.26-1.7,9.3-1.64,13.49.23,2.49,1.11,4.53,2.68,6.4,4.65l-4.14,9.29Z"/>
    <path class="cls-1" d="M314.36,116.51l-7.14-4.57,17.58-27.47,7.14,4.57-17.58,27.47Z"/>
    <path class="cls-1" d="M328.98,127.97l-6.48-5.46,16.39-19.45-5.36-4.52,4.63-5.49,17.2,14.5-4.63,5.49-5.36-4.52-16.39,19.45Z"/>
    <path class="cls-1" d="M359.33,110.93l6.45,7.85-2.98,10.34,10.72-.92,6.45,7.85-20.74,1.47-12.1,9.94-5.38-6.55,12.1-9.94,5.47-20.06Z"/>
  </g>
</svg>