<?xml version="1.0" encoding="UTF-8"?>
<svg id="Layer_2" data-name="Layer 2" xmlns="http://www.w3.org/2000/svg" viewBox="0 0 187.96 64.78">
  <defs>
    <style>
      .cls-1 {
        fill: #f6f9fd;
      }
    </style>
  </defs>
  <g id="Layer_1-2" data-name="Layer 1">
    <g>
      <g>
        <path class="cls-1" d="M81.03,28.86c-5.22-.12-9.1-1.94-11.36-6.49-1.2-2.42-1.55-5.03-1.3-7.69.31-3.3,1.33-6.36,3.36-9.04,2.25-2.96,5.19-4.77,8.89-5.4,2.79-.47,5.5-.31,8.1.83,3.8,1.67,5.94,4.73,6.62,8.72.94,5.51-.45,10.46-4.21,14.64-2.06,2.28-4.68,3.65-7.74,4.12-.89.14-1.79.23-2.35.3h0ZM72.1,16.51c.17.83.34,2.34.77,3.75.64,2.08,1.93,3.74,3.96,4.68,4.29,1.99,9.74.4,12.49-3.7,2.39-3.59,3.06-7.55,2.07-11.73-.59-2.48-1.85-4.6-4.33-5.63-3.63-1.51-7.14-1.07-10.22,1.33-3.43,2.66-4.56,6.45-4.74,11.3h0Z"/>
        <path class="cls-1" d="M120.92,28.22c-1.34,0-2.58.03-3.82-.03-.19,0-.43-.37-.54-.62-1.25-2.98-2.46-5.98-3.7-8.96-.75-1.79-.27-1.48-2.16-1.5-1.8-.01-3.61.04-5.42-.02-.71-.02-.96.25-1.07.9-.41,2.55-.86,5.1-1.3,7.64-.12.69-.21,1.39-.36,2.08-.05.19-.27.49-.42.49-1.02.05-2.04.02-3.16.02.27-1.54.5-2.97.76-4.39.56-3.21,1.13-6.42,1.69-9.63.54-3.09,1.08-6.18,1.62-9.26.22-1.26.47-2.52.68-3.78.07-.45.27-.57.7-.56,3.71.02,7.43-.02,11.14.06,1.73.04,3.43.41,5,1.23,1.6.83,2.68,2.15,3.05,3.9.58,2.75.24,5.4-1.42,7.76-1.27,1.82-3.08,2.84-5.22,3.26-1.19.23-1.21.22-.71,1.28,1.45,3.11,2.9,6.22,4.35,9.34.1.22.18.45.31.81h0ZM105.05,14.01c.12.03.22.08.31.08,3.18-.01,6.37.05,9.55-.09.99-.05,2.07-.47,2.93-1.01,1.86-1.17,2.75-4.22,2.08-6.38-.39-1.25-1.15-2.12-2.39-2.48-.88-.25-1.81-.45-2.72-.47-2.4-.07-4.81-.01-7.22-.05-.6,0-.86.2-.95.77-.51,2.99-1.05,5.97-1.57,8.96-.04.21,0,.44,0,.68h0Z"/>
        <path class="cls-1" d="M28.83,28.22c.27-1.57.52-2.99.77-4.42.46-2.64.92-5.28,1.39-7.92.45-2.54.9-5.08,1.35-7.62.41-2.32.84-4.64,1.22-6.96.09-.57.34-.71.89-.71,3.19.03,6.37.01,9.56.01,1.86,0,3.7.2,5.46.86,2.63.98,4.03,2.89,4.22,5.66.16,2.3-.23,4.5-1.62,6.42-1.3,1.8-3.09,2.81-5.22,3.27-.36.08-.71.17-1.17.27,1.73,3.74,3.41,7.35,5.16,11.13-1.4,0-2.67.02-3.93-.03-.17,0-.37-.36-.47-.59-1.15-2.75-2.27-5.5-3.41-8.26-.06-.14-.14-.27-.17-.42-.28-1.61-1.28-1.97-2.8-1.84-1.69.14-3.41.05-5.11.02-.49,0-.72.14-.81.64-.34,2.05-.71,4.1-1.06,6.15-.22,1.28-.42,2.57-.67,3.85-.04.18-.3.45-.46.45-.99.05-1.99.02-3.12.02h0ZM34.84,13.96c.21.07.28.12.35.12,3.23-.01,6.47.05,9.7-.09.97-.04,2.03-.47,2.84-1.02,2.09-1.43,2.44-3.63,2.14-5.95-.17-1.32-.93-2.37-2.23-2.78-1.01-.32-2.09-.53-3.16-.57-2.3-.09-4.61,0-6.92-.06-.77-.02-1,.3-1.11.95-.4,2.32-.82,4.64-1.22,6.95-.14.81-.26,1.62-.39,2.46h0Z"/>
        <path class="cls-1" d="M2.34,28.22C3.97,18.94,5.58,9.81,7.18.67c.23-.03.41-.07.58-.07,3.59,0,7.18-.07,10.77.06,1.45.05,2.93.41,4.32.86,2.41.78,3.8,2.57,4.13,5.07.34,2.62-.09,5.1-1.81,7.23-1.8,2.23-4.24,3.16-7,3.25-3.16.1-6.32.05-9.48.03-.63,0-.95.13-1.06.81-.41,2.57-.87,5.14-1.31,7.71-.12.72-.21,1.44-.36,2.15-.04.17-.26.43-.41.43-1.02.04-2.04.02-3.18.02h0ZM13.49,14.09c1.2,0,2.41.05,3.61-.02.91-.05,1.87-.14,2.72-.45,2.61-.91,3.6-3.25,3.42-5.88-.16-2.4-1.2-3.66-3.59-3.87-3.01-.26-6.05-.19-9.08-.23-.16,0-.41.27-.46.45-.16.6-.25,1.22-.36,1.84-.44,2.46-.87,4.93-1.33,7.39-.11.61.1.79.71.77,1.45-.04,2.91-.01,4.36-.01h0Z"/>
        <path class="cls-1" d="M187.96.6c-.29.39-.43.59-.59.77-4.18,4.91-8.36,9.81-12.52,14.74-.32.38-.57.89-.66,1.37-.62,3.35-1.2,6.71-1.77,10.07-.08.49-.27.7-.77.68-.9-.03-1.8,0-2.81,0,.15-.95.27-1.8.42-2.65.46-2.69.95-5.38,1.37-8.08.07-.48-.03-1.06-.24-1.49-2.37-4.87-4.77-9.71-7.16-14.57-.11-.22-.19-.45-.34-.82,1.36,0,2.62-.03,3.88.03.19,0,.42.38.54.63,1.79,3.89,3.55,7.79,5.33,11.69.36.8.42.81.96.15,3.21-3.95,6.43-7.9,9.62-11.87.39-.49.78-.68,1.39-.66,1.04.05,2.09.01,3.36.01h0Z"/>
        <path class="cls-1" d="M144.16,28.22c1.43-8.23,2.84-16.34,4.27-24.58h-9.09c.19-1,.33-1.89.55-2.75.04-.14.44-.27.68-.27,2.03-.02,4.06-.01,6.09-.01h14.93c-.18.97-.31,1.85-.54,2.71-.04.16-.48.3-.73.31-2.53.02-5.07.04-7.6,0-.69-.01-.91.27-1.01.88-1.03,6.05-2.07,12.1-3.11,18.16-.29,1.68-.58,3.36-.9,5.03-.04.2-.26.5-.41.51-1.02.05-2.04.02-3.15.02h0Z"/>
        <path class="cls-1" d="M64.8.6c-.16,1.02-.29,1.91-.44,2.79-.66,3.7-1.33,7.4-1.98,11.11-.55,3.11-1.08,6.23-1.62,9.34-.22,1.26-.42,2.53-.68,3.78-.05.23-.32.58-.51.59-.97.06-1.94.03-3.03.03.13-.8.22-1.51.35-2.21.55-3.11,1.12-6.22,1.66-9.33.55-3.14,1.08-6.27,1.63-9.41.35-2,.72-4,1.06-6,.09-.52.28-.72.83-.69.87.05,1.74.01,2.72.01h0Z"/>
        <path class="cls-1" d="M134.95.6c-.31,1.8-.58,3.43-.87,5.06-.55,3.16-1.12,6.32-1.67,9.48-.67,3.78-1.31,7.56-2,11.33-.32,1.77-.37,1.76-2.17,1.76h-1.55c.15-.94.27-1.79.42-2.64.67-3.8,1.34-7.61,2.01-11.41.76-4.3,1.53-8.59,2.26-12.89.1-.58.35-.73.89-.71.84.04,1.69,0,2.68,0h0Z"/>
      </g>
      <g>
        <path class="cls-1" d="M95.54,56.21c.5-.76,1.03-1.48,1.48-2.25.45-.75.81-1.55,1.25-2.38.46.18.89.36,1.4.57-.77,1.96-1.76,3.71-3.14,5.3.89.95,1.99,1.02,3.13.86.24,1.41,0,1.7-1.35,1.71-1.22.01-2.19-.53-2.89-1.27-1.22.42-2.33.94-3.49,1.15-.93.17-1.95.08-2.89-.13-1.42-.32-2.37-1.28-2.71-2.73-.39-1.64-.15-3.18,1.18-4.29.82-.68,1.84-1.16,2.8-1.66.43-.23.64-.39.53-.95-.28-1.31-.36-2.64.25-3.91,1.06-2.21,4.55-3.01,6.46-1.47,1.38,1.11,1.4,3.43-.12,4.54-1.12.81-2.42,1.39-3.68,1.98-.57.27-.75.45-.48,1.08.67,1.61,1.55,3.22,2.28,3.86h0ZM94.06,57.51c-.95-1.75-1.86-3.43-2.8-5.16-.9.35-1.86.77-2.54,1.6-.77.95-.84,2.05-.38,3.15.45,1.07,1.38,1.46,2.47,1.47,1.22.01,2.33-.36,3.25-1.06h0ZM92.58,50.27c1.12-.51,2.11-.89,3.04-1.4.41-.23.77-.64,1-1.06.49-.9.14-1.89-.72-2.28-1.31-.59-3.02.11-3.29,1.5-.18.97-.04,2-.04,3.24h0Z"/>
        <path class="cls-1" d="M181.98,49.4c.13-.45.28-1.04.45-1.64h1.87c-.29,1.44-.57,2.85-.85,4.27-.54,2.75-1.03,5.51-1.63,8.25-.83,3.75-4.6,5.54-8.1,3.91-.99-.46-1.59-1.24-1.74-2.31.45-.13.89-.28,1.35-.37.14-.03.4.1.48.24,1.16,1.97,4.41,1.93,5.49-.16.54-1.05.75-2.27,1.11-3.41-.09-.04-.17-.09-.26-.13-.14.16-.29.32-.44.49-1.19,1.36-2.95,1.85-4.65,1.29-1.43-.47-2.39-1.83-2.41-3.69-.02-2.36.36-4.65,1.76-6.64,1.21-1.73,3.74-2.47,5.66-1.57.71.33,1.27.98,1.91,1.5h0ZM181.29,52.33c.01-1.81-.68-2.9-1.93-3.2-1.59-.37-2.86.21-3.58,1.72-.28.59-.5,1.24-.63,1.88-.28,1.34-.65,2.69-.31,4.08.28,1.13,1.06,1.75,2.21,1.71,1.01-.03,1.83-.47,2.48-1.22,1.3-1.48,1.63-3.28,1.75-5h0Z"/>
        <path class="cls-1" d="M76.79,49.63c.12-.5.24-.87.3-1.26.08-.53.36-.71.88-.65.37.04.76,0,1.2,0-.34,1.75-.68,3.44-1.01,5.13-.48,2.44-.88,4.91-1.45,7.34-.88,3.78-4.3,5.5-7.93,4.08-1.07-.42-1.75-1.18-1.98-2.39.47-.14.92-.29,1.38-.37.14-.03.4.1.48.23,1.2,1.96,4.46,1.92,5.49-.16.54-1.08.76-2.31,1.12-3.48-.08-.04-.15-.07-.23-.1-.13.14-.27.28-.39.44-1,1.23-2.3,1.71-3.85,1.57-1.64-.15-2.96-1.3-3.18-2.98-.35-2.67.12-5.22,1.61-7.5,1.16-1.78,3.77-2.48,5.72-1.63.38.17.75.42,1.06.71.28.26.48.62.78,1.04h0ZM69.37,55.57c.05.02.11.04.17.06.05.4.08.81.18,1.19.29,1.25,1.21,1.87,2.48,1.71.89-.11,1.63-.52,2.2-1.2,1.43-1.7,1.89-3.72,1.71-5.87-.14-1.76-1.49-2.65-3.23-2.38-1.13.18-1.92.82-2.26,1.84-.5,1.52-.84,3.1-1.25,4.65h0Z"/>
        <path class="cls-1" d="M12.22,59.86c.48-2.47.93-4.82,1.4-7.24-.24-.02-.44-.06-.63-.06-2.43,0-4.85.01-7.27-.01-.51,0-.69.16-.78.66-.4,2.2-.85,4.38-1.28,6.61H1.53c1.02-5.22,2.03-10.41,3.05-15.62h2.11c-.42,2.17-.84,4.3-1.26,6.5h8.55c.32-1.59.63-3.19.95-4.8,0-.02,0-.05,0-.07.3-1.84.36-1.89,2.37-1.58-.22,1.16-.44,2.31-.66,3.47-.75,3.87-1.52,7.74-2.26,11.61-.08.41-.23.57-.65.54-.47-.03-.95,0-1.52,0h0Z"/>
        <path class="cls-1" d="M122.5,56.07c-1.52,2.37-3.6,3.73-6.35,3.9-1.01.06-2.07.03-3.04-.22-2.5-.62-3.92-2.32-4.33-4.84-.64-3.93,1.11-8.93,5.97-10.45,2.71-.85,5.43-.83,7.76,1.11.64.54,1.06,1.35,1.67,2.16-.75.23-1.25.43-1.78.54-.17.04-.48-.09-.55-.23-1.05-2.05-3.25-2.6-5.48-2.22-3.14.53-5.09,2.8-5.55,6.38-.19,1.51-.15,3.01.76,4.32.99,1.45,2.98,2.1,4.9,1.68,1.63-.35,2.96-1.18,3.95-2.49.4-.53.7-.59,1.19-.19.25.2.54.36.86.55h0Z"/>
        <path class="cls-1" d="M32.26,50.67c.45-1.63,1.5-2.61,3.03-2.88,1.1-.19,2.27-.2,3.38-.05,1.85.25,2.91,1.62,2.69,3.48-.22,1.84-.63,3.65-.96,5.47,0,.02,0,.05-.02.07-.31,1.5-.16,1.71,1.4,1.86-.04.39-.07.77-.1,1.14-2.23.76-3.28.12-3.41-2.2-.23.28-.38.46-.52.65-1.12,1.46-2.63,1.98-4.41,1.77-1.54-.18-2.68-1.3-2.87-2.74-.23-1.79.5-3.36,2.05-3.91,1.13-.4,2.34-.58,3.53-.75.84-.12,1.71-.06,2.57-.04.46.02.65-.17.7-.59.1-.88.25-1.78-.56-2.44-1.1-.9-3.58-.47-4.23.8-.31.59-.63.73-1.22.55-.32-.09-.64-.13-1.04-.21h0ZM38.85,53.86c-1.28.09-2.5.13-3.72.27-.52.06-1.06.26-1.52.52-.9.51-1.26,1.69-.91,2.68.29.85.97,1.22,2.12,1.13.28-.02.57-.04.84-.11,1.85-.5,3.04-2.11,3.19-4.49h0Z"/>
        <path class="cls-1" d="M27.81,57.24c-1.67,3.51-7.29,3.46-8.86,1.18-.59-.86-.88-1.79-.9-2.8-.05-2.62.52-5.04,2.64-6.79,1.84-1.51,3.95-1.64,6.11-.76,1.35.55,2.05,1.68,2.22,3.09.09.77-.03,1.56-.06,2.34-.02.58-.28.78-.9.77-2.4-.04-4.8,0-7.21-.03-.64,0-.86.2-.82.8.03.47,0,.95.08,1.42.17,1.04.95,1.8,1.99,1.97,1.58.26,2.93-.08,3.89-1.45.24-.34.46-.41.82-.2.3.18.63.3.99.46h0ZM27.01,52.69c.24-1.68-.18-2.87-1.25-3.34-2.38-1.06-5.06.64-5.25,3.34h6.5,0Z"/>
        <path class="cls-1" d="M135.79,52.63c-.18,2.23-.63,4.48-2.52,6.06-1.81,1.52-3.93,1.71-6.11.91-1.26-.47-2.07-1.47-2.34-2.78-.6-2.92-.06-5.59,2.06-7.78,1.61-1.66,5.11-1.99,7.05-.74,1.54,1,1.85,2.55,1.86,4.33h0ZM126.46,54.86c.06.02.12.04.18.06.02.38,0,.77.06,1.14.14,1.02.55,1.88,1.57,2.29,1.51.61,3.38.04,4.19-1.36,1.02-1.76,1.4-3.68,1.18-5.7-.11-.98-.6-1.76-1.6-2.09-1.83-.59-3.71.17-4.47,1.94-.5,1.18-.76,2.47-1.12,3.71h0Z"/>
        <path class="cls-1" d="M148.44,52.79c-.11,1.91-.55,4.13-2.35,5.76-1.8,1.64-3.97,1.85-6.2,1.07-1.26-.44-2.09-1.43-2.37-2.74-.63-2.97-.1-5.68,2.1-7.9,1.61-1.62,5.09-1.92,7-.68,1.48.96,1.84,2.45,1.83,4.49h0ZM139.31,55.16c.02.23.02.64.09,1.04.17.96.58,1.76,1.54,2.16,1.44.58,3.29.08,4.11-1.25,1.15-1.86,1.53-3.93,1.2-6.09-.13-.85-.63-1.49-1.47-1.79-1.71-.63-3.59.1-4.46,1.72-.68,1.26-.95,2.63-1.02,4.22h0Z"/>
        <path class="cls-1" d="M62.02,59.82c.4-2.05.79-4.03,1.17-6.01.14-.72.27-1.44.37-2.17.27-2-.9-2.99-2.85-2.39-1.56.48-2.44,1.67-2.8,3.16-.54,2.24-.97,4.5-1.39,6.77-.1.53-.26.76-.81.69-.4-.05-.8,0-1.3,0,.33-1.71.64-3.33.95-4.96.38-2.03.77-4.06,1.12-6.09.18-1.08.15-1.08,1.26-1.08h.8c-.07.64-.13,1.23-.2,1.96.3-.32.5-.54.72-.76,1.35-1.4,3.01-1.66,4.79-1.13,1.1.33,1.8,1.2,1.75,2.35-.05,1.41-.3,2.82-.54,4.22-.31,1.82-.68,3.63-1.04,5.46h-2.01,0Z"/>
        <path class="cls-1" d="M163.72,47.73c-.08.68-.15,1.23-.22,1.79.06.05.12.09.17.14.11-.17.2-.36.33-.51,1.25-1.44,2.83-1.84,4.64-1.44,1.28.28,2.14,1.18,2.12,2.5-.02,1.22-.24,2.45-.45,3.66-.28,1.68-.68,3.35-.95,5.04-.12.77-.41,1.09-1.18.96-.3-.05-.61,0-1.02,0,.23-1.17.44-2.26.64-3.34.3-1.56.6-3.12.87-4.69.16-.89.23-1.84-.65-2.39-.92-.57-1.93-.41-2.85.09-1.13.62-1.83,1.62-2.11,2.84-.51,2.22-.96,4.46-1.37,6.7-.11.63-.32.88-.95.8-.37-.05-.75,0-1.2,0,.38-1.97.75-3.86,1.1-5.74.36-1.89.71-3.78,1.02-5.68.09-.55.29-.8.86-.72.35.05.7,0,1.17,0h0Z"/>
        <path class="cls-1" d="M44.11,47.65c1.41.51,1.7-.49,2.06-1.41.04-.11.09-.22.14-.33.43-1.01.47-1.03,1.66-.78-.07.41-.13.83-.2,1.24-.07.42-.15.83-.24,1.34h2.12c0,.2,0,.32-.02.43-.11.68-.5,1.01-1.17,1.01-1.22,0-1.24,0-1.47,1.18-.42,2.12-.84,4.24-1.22,6.36-.27,1.48.14,1.87,1.63,1.67.09-.01.18-.02.27-.03.18,1.17.03,1.42-1.05,1.6-.35.06-.71.08-1.06.07-1.15-.03-2-.8-1.89-1.94.16-1.67.5-3.33.79-4.98.22-1.27.48-2.54.72-3.88-.49-.03-.86-.05-1.33-.07.08-.46.16-.89.26-1.49h0Z"/>
        <path class="cls-1" d="M149.54,59.86c.45-2.35.9-4.61,1.33-6.86.55-2.84,1.11-5.68,1.66-8.53.28-1.47.05-1.13,1.38-1.18.23,0,.47,0,.82,0-.15.82-.28,1.58-.42,2.34-.88,4.55-1.77,9.09-2.63,13.64-.09.47-.27.65-.75.61-.44-.04-.89,0-1.4,0h0Z"/>
        <path class="cls-1" d="M49.39,59.86c.79-4.09,1.57-8.08,2.35-12.09h1.98c-.14.83-.27,1.62-.42,2.4-.59,3.05-1.2,6.09-1.78,9.15-.08.4-.22.59-.64.55-.47-.03-.94,0-1.48,0h0Z"/>
        <path class="cls-1" d="M154.55,59.86c.08-.46.13-.81.2-1.16.71-3.63,1.42-7.26,2.14-10.92h1.99c-.29,1.52-.57,2.99-.85,4.45-.45,2.31-.92,4.61-1.33,6.92-.1.57-.3.78-.87.72-.4-.04-.8,0-1.28,0h0Z"/>
        <path class="cls-1" d="M157.38,45.18c.12-.6.2-1.11.33-1.6.04-.13.25-.27.39-.28.51-.04,1.04-.01,1.63-.01-.1.57-.17,1.06-.3,1.53-.05.15-.27.34-.43.36-.51.05-1.03.02-1.63.02h0Z"/>
        <path class="cls-1" d="M54.58,43.32c-.1.53-.16,1.02-.3,1.49-.05.15-.27.34-.43.35-.51.05-1.03.02-1.64.02.15-.69.27-1.28.4-1.86h1.97Z"/>
      </g>
      <rect class="cls-1" y="34.12" width="186.73" height="2.4"/>
    </g>
  </g>
</svg>