<?xml version="1.0" encoding="UTF-8"?>
<svg id="Layer_2" data-name="Layer 2" xmlns="http://www.w3.org/2000/svg" viewBox="0 0 173.97 49.89">
  <defs>
    <style>
      .cls-1 {
        fill: #f6f9fd;
      }
    </style>
  </defs>
  <g id="Layer_1-2" data-name="Layer 1">
    <g>
      <path class="cls-1" d="M63.32,2.34c-.31.52,1.39.84,1.43,1.29.42-.07.1-.69.13-.99.03-.23.32.04.41.14,1.01,1.02.79,3.22.14,4.39l.03.1c.68.34.22.75.17,1.27-.12,1.34.25,2.67.05,4.03-.04.25-.27.6-.26.77.02.37.62.93.65,1.4.02.37-.31.56-.31.87,0,.4.44,1.14.48,1.65s-.06.71-.26,1.15c.07.33.41.27.67.19.01.2-.03.43.03.62s.44.35.5.66c.05.21-.04.56.05.71.06.09,1,.41,1.2.51,1.04.52,1.88,1.46,1.71,2.71-.81-.04-1.67-.03-1.78.96-.41-.12-.75-.39-1.16-.51-1.6-.49-3.36-.05-4.96-.25-.26-.03-.76-.23-.96-.2-.42.06-.43,1.17-1.1.42-.11-.12-.12-.24-.21-.35-.75.15-1.5.1-2.25.14-.28.02-.62.14-.89.14-.67.01-1.17-.78-1.75-1.07-.45-.22-.75-.14-1.12-.25-.47-.14-1.57-2.51-1.76-3.03-.89-2.45-1.14-5.66.52-7.84-.38-.83-.18-.99.61-1.24.07-.23,0-.45.06-.69.18-.81,2-1.25,2.37-2.09l1.46-.03c.37-1.04,1.51-.65,2.34-.76.21-.03.55-.26.61-.26.19.02.49.4.71.45.35.08.9-.02,1.29.01.44.03.59.37.87-.29.43-1.04-1.07-2.42-1.96-2.78-.14.03-.56.63-.73.71-.36.17-.45-.32-.65-.52-.54-.56-1.43-.96-1.34-1.92.89.05,2.07.61,2.95.38.52-.13-.3-.53-.38-.65-.25-.36-.12-.49.22-.6.7-.21,1.57,0,2.31-.02.19,0,.39-.14.58-.03.04.02.4.55.45.64.05.08.14.09.03.18-.37.11-.7.01-.99-.22-.05.04-.21.1-.23.13ZM58.1,8.42c.37-.01.75.03,1.11.09.19.03,2.05.6,2.04.22-.89-.55-2.31-1.32-3.15-.31ZM56.86,8.63l-.69-.21c.1.38-.26.5-.27.82.17.06,1.02-.54.96-.62ZM60.08,11.51c.08-.48-.11-1.05-.61-1.2-.33-.1-.32.14-.55.21-.53.17-1.66-.52-1.89-.18s.21.44.28.55c.15.23-.25.61-.48.62-.17,0-.36-.12-.54-.12-.87.02-1.14,1.17-1.69,1.59-.22.17-.44.16-.61.35l.2,1.21c-.02.11-.38-.06-.35.62.07,1.54.84,2.81,1.53,4.13.34.17.99.24,1.28.47.11.09.12.28.21.41.32.48.36.64,1.02.44l.04-.47c.63.13,1.22.64,1.89.52l.1-.8c.07-.11.21.01.31-.03.25-.11.4-.73.82-.31.41-1.12,1.98-1.91,1.84-3.25-.02-.23-.22-.62-.19-.82.04-.24.35-.34.36-.84.01-.94-.81-1.88-1.65-2.23-.09-.14.14-.44.09-.7-.06-.34-.48-.66-.78-.8l-.2.55-.45.07ZM62.62,19.87h-.4s-.15.75-.15.75c.19.05.1-.11.22-.16.1-.04.22-.04.33-.05v-.55ZM59.33,21.99h-1.13c-.26,0-.26.53-.24.71.52.21,1.28-.13,1.38-.71ZM67.27,22.53c.07-.13-.19-.51-.31-.53-.07-.01-.19.12-.33.14-.25.02-.58-.14-.86-.07.27.58.94.86,1.5.47ZM69,22.4c-.16-.45-1.12-.33-.59.11l.59-.11Z"/>
      <path class="cls-1" d="M92.86,10.89l.08-.26.51.05c.14.39-.09.72-.11,1.1.19,0,.32-.03.44.14.08.11.18.77.18.92,0,.77-.13,1.91-.36,2.65-.08.25-.27.44-.27.72-.84.21-1.45.81-2.28,1.05-.31.09-.63.09-.93.17-.45.11-1.32.64-1.75.38-.04-.03-.41-.39-.44-.45-.23-.34-.13-.76-.77-.64-.48.09-.99,1.06-.94,1.52.03.27.71,1.01.94,1.12.14.06.78.16.94.16.24,0,.44-.19.61-.2.15,0,.31.12.47.11.45-.03.64-.75,1.09-.89.2-.06.31.02.51-.02.46-.11,1.52-.68,2.05-.9.32-.13.53-.46.83.03.13.22.22.95.22,1.22,0,.42-.29.87-.27,1.14.03.35.2,1.1.67.95-.04.26.1.95-.1,1.1-.08.06-.65.17-.84.26-.46.19-1.29.89-1.74.81-.48-.09-.65-.51-1.25-.16-.36.21-.04.53-.05.87-.65-.05-1.19-.25-1.84-.09s-1.01.74-1.5-.12c-.94.54-1.86-.13-2.81-.19-.28-.02-.5.06-.76.02-.13-.06-.1-.24-.19-.36-.46-.64-2.08-1.1-2.28-1.77-.03-.11.02-.28-.03-.35-.03-.06-.46-.11-.64-.49-.21-.45-.31-1.74-.61-1.99-.08-.07-.27-.06-.31-.18-.11-.31.47-.95.48-1.22.01-.36-.47-.95-.42-1.3.03-.2.5-.35.55-.82.07-.63-.42-.76-.4-1.02.36-.84,1.36-1.2,1.16-2.26l.41-.15c.09-.98.64-1.69,1.5-2.12.47-.24,1.02-.24,1.14-.86.76.12,1.4-.44,2.15-.41l-.27.55c.44.12.79.13,1.23,0,.05-.28-.17-.45-.27-.68.66-.32,1.5.37,2.08.06.1-.05.22-.24.28-.25.15-.01,1.21.71,1.5.82.3.11.78.09.97.2.07.05.75.98.85,1.14.2.3.36.62.56.91ZM91.28,10.2c-.15-.28-.34-.5-.65-.6-.13.06-.19.18-.17.32l.82.27ZM81.48,11.78c.34.11,1.2-.78.59-.75-.38.02-.66.39-.59.75ZM86.46,11.86c-.08.01-.52.19-.59.23-.31.18-.63,1.42-.52,1.75.06.19.38.36.57.39.47.09,2.12-.16,2.63-.29.62-.16.83-.72.51-1.27-.29-.5-.95-.42-1.38-.75-.37.08-.89-.12-1.21-.06ZM84.33,13.02c-.24.08-.08.53.18.47.33-.08.16-.58-.18-.47ZM85.18,18.5c.1-.05.28-.1.28-.24l-.31-.44c-.24.18.06.45.03.68ZM82.57,20.41c.07-.08-.17-.78-.34-.82-.15.33-.04.73.34.82ZM89.7,21.72l-.75-.07c-.15.14.73.65.75.07ZM88.06,21.99c-.1,0-.21-.02-.31,0-.48.09.3.67.31,0Z"/>
      <path class="cls-1" d="M10.51,6.57c-.06.48-.21.88.2,1.27.2.19.95.4,1.03.13.09-.32-.88-.79-.08-1.18.55-.26,1.57-.32,2.12-.1.33.14,1.19.85,1.19,1.21,0,.31-.12.56-.05.94.06.34.56.98.53,1.18-.51.73-1.21,1.4-1.17,2.37-.25-.04-.39-.24-.66-.27-.34-.04-.85.21-1.16-.07-.22-.19-.03-1.61-.63-1.78-.24-.06-.64.33-.96.38-.21.04-.42.01-.64.02-.04-.5.16-.96.69-1.06-.29-.39-.8-.44-1.14-.78h-.15c-.1.55-.88.22-.89.71,0,.11.18.49-.04.45-.55-.28-.71-.92-1.16-1.28-1.31.65-4.65,1.32-3.81,3.44.21.54.72.51,1.07.85.14.14.13.34.3.38.22.05.39-.09.59-.1.15,0,.29.12.44.03.22-.16-.21-.79.39-.53.1.04.18.15.29.19.1.04.29,0,.34.04.04.03,0,.21.15.3.06.04.88.31.93.31.22-.01.62-.79,1.15-.46.15.09.14.31.34.25.08-.02.46-.44.45-.51-.15-.14-.39-.18-.34-.44.38-.08.87-.35,1.27-.27s.73,1.07.79,1.44c.6-.19,1.23-.33,1.85-.1s.34.33.34.75c0,1.31,1.18,1.89,1.85,2.81.06.75-.44,1.48-.15,2.21.12.31.4.48.35.87-.03.29-.42.65-.48.97-.18.13-.49-.27-.61.08-.06.22.23.26.33.41.04.12-.46.71-.58.85-1.05,1.2-2.83,2.27-4.46,2.33-.39.01-.44-.17-.74-.29-1.17-.48-3.26.66-4.27-.52l-.87.04c-.12-.04-.11-.22-.18-.3-.29-.37-1.1-.32-1.49-.63-.16-.01-.85.52-1.07.61-.43.19-1.36.35-1.52-.21-.49-1.64.08-3.71.38-5.35.48.23.59-.22.89-.31.81-.25,1.13.81,1.92.72-.07.14.31.99.36,1.02.09.05.61-.02.86.06.64.21,1.33,1.35,2.05,1.45.22.03.44-.03.65.04.07.51.33.77.78.98.44-.27.42-.83.69-1.22.53,0,.5.83.9.94.32.1,1.23-.26,1.65-.14.55-1.16,2.77-2.52,1.73-4-.4-.57-1.35-.72-1.94-1-.21-.1-.75-.5-.85-.53-.34-.07-.7.65-.98.84-.32.21-.58.23-.94.09l-.2-.67c-.68,0-1.37,0-2.05.07-.43.05-1.15.31-1.51.28-.57-.05-1.17-1-1.7-1.25-.33-.15-.69-.17-1.03-.26-.24-1.26-1.76-2.79-1.44-4.11.14-.58.74-1.37.97-1.98.15-.42.19-.86.29-1.29.36-.03.68-.05,1.03-.13s1.18-.53,1.44-.41c.51.24-.4.37-.41.41v.23c.1.05.18.05.28.05.55-.04,1.28-.36,1.89-.44.51-.07,1.02-.1,1.53-.08l-.27-.45.11-.16c.33-.04.56.2.9.25.83.11,1.57-.43,2.35-.6ZM13.8,9.38c-.57-.09-.62-1.02-1.23-1.03.23.54.46,1.24,1.03,1.51l.21-.48ZM13.12,15.07c-.8-.39-.88.65-.03.21l.03-.21ZM5.51,22.4c-.13-.35-.21-.82-.62-.96-.08.46.24.78.62.96ZM12.98,21.93l-.21-.04c-.65.87.16.99.21.04ZM11.78,22.07c-.63.25-1.06,1.01,0,.81.45-.09.16-.8,0-.81ZM8.94,23.16c-.12-.28-.45-.3-.72-.35-.11-.02-.14-.12-.24.04.24.28.61.33.96.31Z"/>
      <path class="cls-1" d="M137.15,12.43c-.06.3-.38.21-.6.29-.19.07-.34.28-.49.33-.19.06-.39,0-.57.05-.87.21-1.11.57-2.04.02-1.21-.71-.83-2.68.03-3.53.41-.41,1.01-.37,1.04-1.03,2.16-.41,4.43-.59,6.61-.23.34.06,1.86.35,2.05.48.22.15.57.84.62,1.12l.57-.06c.44.46-.05,1.15.06,1.66.08.34.5.38.53.5-.13.4-.34.95-.34,1.36,0,.24.2,1.36.32,1.54.35.52.87-.56,1.13-.34-.01.87-.7,1.24-1.13,1.86-.25.36-.35.5-.3.97.04.29.72,2.47.87,2.55.33.11.76-.05,1.08.08.29.13.54.8.25.9-.23.06-.58-.06-.78.04-.06.03-.59.75-.79.92-1.21,1.05-2.81,1.31-4.31.76l-2.62,1.09c-.39.01-.65-.48-.82-.48-.43.34-.63.52-.99-.03l.27-.31c-.62-.34-1.04.63-1.6.47-1.2-.9-3.28-2.35-3.34-4,0-.21.09-.44.06-.6-.04-.22-.34-.34-.39-.65-.09-.62.65-1.32.73-2.04.01-.12-.1-.24-.03-.37.05-.1.48-.3.62-.41.29-.24.59-.6.89-.82.19-.13,1.49-.71,1.75-.79s.47-.07.7-.12c.15-.04.27-.17.43-.19.3-.03.48.26.81.21.15-.03.36-.31.64-.39.29-.09.82-.13,1.15-.16.18-.01.95.09.89-.14-.74-1.51,1.2-.04,1.13-1.23-.85,0-1.58-.43-2.33-.75v.41c1.15-.03.95,1.41-.26.88.06-.27-.27-.74-.49-.84-.28-.13-.74.08-1.03-.17-.05.35.07.87,0,1.2ZM137.01,9.04c.09.07.82-.35.99,0,.26-.17,0-.56-.25-.51-.16.03-.34.25-.47.28-.13.04-.2-.04-.24-.03-.13.01-.05.25-.03.26ZM140.28,15.97c-.37.03-.29.51.05.47s.2-.49-.05-.47ZM138.85,20.46c.11-.09.14-.34.34-.45.27-.15.43.18.7-.19s.03-.5.08-.81c.04-.28.3-.19.1-.65-.1-.23-.84-1.35-1.01-1.46-.54-.37-1.89-.56-2.38-.09-.22.21-.89,1.38-.95,1.66-.11.55.48.7.62.99.09.19.01.38.06.55.13.46,1.12.43,1.01.03-.04-.13-.24-.15-.29-.27-.08-.2,0-.42-.08-.6-.13-.29-.88-.3-.6-.88.15-.31,1.09-.15,1.17.38.03.19-.18.32-.12.52.05.19.48.24.61.63-1.45.42.33.96.74.63ZM141.45,18.79c-.28-.29-.76.45-.39.64s.65-.37.39-.64Z"/>
      <path class="cls-1" d="M29.71,5.89l.15.68c.46.15.58-.36.98-.4.2.4.28.59.79.55-.06.31-1.1.38-.65.76.39.33,1.03-.02,1.41-.21-.02-.33-.3-.25-.51-.27-.08-.01-.14.03-.1-.1.15-.49.79-.86,1.27-.92.29-.03,1.38,0,1.52.24.11.18.02.52.17.65l.58.07c.15,1.08,1.24,1.85,1.03,3-.38.01-.48.27-.75.47.21,1.55-.89,4.37.25,5.64.17.19.55.3.58.52.05.33-.35.51-.62.58-.11.16.39.54.51.69.34.45.55.99.9,1.43l-.1-.89.83.03c.2.26.1,1.31.39,1.4.49.16,1.34-.55,1.87-.13.01-.22-.28-.29-.33-.46s.02-.39.16-.5c.78.39.92,1.42,1.6,1.95.25.2.97.41,1.05.53.4.58-.21,1.36-.5,1.87-.92,0-1.64.04-1.93,1.05l-1.02-.02c-.2-.05-.28-.41-.54-.49-.45-.14-.88.2-1.37-.07-.15-.08-.25-.35-.44-.3-.4.11-.45.95-.7.95-.14,0-.3-.18-.41-.18s-.22.18-.38.08c-.2-.12-.07-.62-.24-.65-.48.17-.97.34-1.47.44-.72.15-1.29.23-2.02.03-.29-.08-.62-.31-.89-.34-.44-.05-1.11.13-1.58.14-1.23.03-3.2-.28-3.62-1.67-.53-1.76,2.14-2.02,3.16-2.62.35-.21.64-.74.93-.17.24-.11-.09-.63-.03-.68.31-.13.9.19,1.09.1.73-.61,1.05-1.54,1.27-2.43.08-.32.38-1.59.37-1.82-.01-.2-.29-.34-.47-.3v-.1c.58-.53-.09-1.61.62-1.85-.08-.43-.53-.71-.48-1.2-.61.15-1.03.1-1.31-.5-.24-.52-.06-1.1-.95-.7.15.2.35.7-.07.54-.08-.6-1.1-.69-1.59-.62-.28.04-.48.19-.74.26.26-.88-.76-1.27-.88-1.97-.05-.28,0-.56-.02-.84.94-.01,1.65-.59,2-1.43.45.07.7.41,1.22.2Z"/>
      <path class="cls-1" d="M112.47,8.08l-.2.45c.29.32,1.23.48,1.15-.1-.17,0-1.1-.18-.88-.49.11-.15.38.08.5.06.1-.01.26-.18.39-.23.3-.13.62-.28.96-.24.04.45,0,.78-.34,1.1.31.08.74.28,1.03.04l-.34-.4c.21-.21.42-.29.52-.59.29.03.46.27.73.37.29.1.87.04.97.11.06.04.22.4.32.52.11.13.28.3.41.41.24.21,1.32.8,1.36.87s.02.55.08.78c.13.46.56.79.66,1.26.21,1-.32.65-.71,1.21-.33.47-.26,1.07-.44,1.48-.03.08-.06.12-.15.12-.71-.35-2.55-.59-3.05-1.13-.21-.23-.1-.45-.17-.72s-.34-.57-.42-.88c-.09-.35.11-.53-.3-.72-.18-.08-1.09-.27-1.27-.24-.31.05-.24.74-.55.88-.45-.44-.92-.2-1.48-.16-.1.06.06.27.07.41,0,.1.02.22-.04.31-.02.03-.5.41-.55.41-.26.04-.27-.11-.41-.27-.54.57-.64,1.36-1.48,1.62.19.69-.09,1.37-.13,2.05-.01.16-.06.58.11.64h.44c0,.2-.21.39-.19.58.04.38.8,1.05.73,1.58.43.17.9.03,1.24.42.11.13.13.4.34.38.03-.23.27-.31.43-.42.29,0,1.16-.55,1.31-.54.44.04.54,1.37,1,.93.35-.34-.03-.65.07-.79.66-.21.7.53.92.95.37-.44.41-1.02,1.13-1.03-.1-.62-.3-1.32-.06-1.91,1.14-.14.07,1.4.15,1.88.01.07.15.14.22.14.49,0,.8-1.17,1.25-1.4.42-.21.45.04.75.11.69.15,1.11-.62,1.8-.53-.29.6-.33.85-.15,1.49.06.23.3.63.3.8,0,.76-1.71,2.49-2.3,2.98-.32.26-1.67,1.32-1.98,1.3-.2-.01-.39-.14-.62-.14-.59,0-1.31.35-1.91.01-.18.03-.36.66-.62.61l-4.89-1.87c-.13-.57-.1-.97-.56-1.39-.13-.12-.5-.28-.53-.32-.05-.06-.24-.71-.35-.92-.32-.6-1.27-1.51-1.32-2.11-.02-.32.12-.59.14-.89.11-1.37-.14-3.01.95-4.06.05-.19-.3-.33-.17-.64.07-.14.63-.6.79-.79,1.06-1.25,2.1-3.32,4.08-3.32h1.27ZM111.37,9.11c-.27-.03-.49.01-.73.12-.26.12-.74.67-.89.69-.16.02-.19-.26-.23-.36-.24-.17-.27.18-.41.34s-.36.25-.52.37c-.02.03.07.34.1.37.03.05.49.12.56.08s.38-.48.56-.61c.43-.34.97-.55,1.44-.83.09-.05.17.01.14-.17ZM117.13,9.72c0-.3-.28-.67-.62-.62-.08.46.18.66.62.62ZM118.23,10.96c.14-.14-.27-.59-.48-.55-.09.22.29.73.48.55ZM116.72,21.44c.18.08.24.35.48.24.05-.02.55-.54.62-.62.14-.17.37-.44.04-.51-.13.21-.33.37-.56.47-.47.2-1.07-.02-.71.62l.14-.21ZM111.98,21.86c-.46-.03-.73-.34-1.09-.55-.02.13-.1.2-.04.34.05.12.91.91,1.07.59l.06-.38Z"/>
      <path class="cls-1" d="M163.11,8.31c.13.13.23.49.37.56.38.18,1.56-.09,2-.19,1.95-.46,4.51-1.96,6.12.02.74-.52.78-.32.86.45.03.26-.1.66.14.79l.17-.48c.72.29.42,1.51,1.2,1.64-.26.88-.62,2.19-1.38,2.77-.19.15-.9.41-.87.54l.12.15c-.05.06-.08.1-.17.1-.41,0-1.32-1.49-1.69-1.81-.18-.15-.59-.23-.63-.33-.19-.8.15-1.74.98-1.97-.08-.19-.23-.25-.42-.3-.17-.05-.84-.17-.99-.17-.18,0-.29.1-.42.12-.25.02-.69-.08-1.02-.06-1.9.14-2.42,1.71-3.2,3.11-.25.44-.68.81-.68,1.32,0,1.65-.07,3.71.42,5.28.07.24.54,1.42.78,1.4.95-.46,2.25-.44,3.17.08l.21-.26,1.74.89-.14,1.14c-.59.07-1.09.87-1.58.99-.26.06-1.04-.24-1.4-.29-1.41-.2-2.97.14-4.23-.02-.52-.07-.36-.13-.56-.54-.48.16-1.07.9-1.57.87-.18,0-.56-.23-.8-.29-.48-.12-1.26-.12-1.62-.44-.07-.07-.24-.34-.27-.34s-.28.25-.51.07c.02-.13.14-.11.24-.14.38-.1,2.14-.22,2.23-.65.05-.23-.98-.52-1.2-.52s-.47.12-.72.07c.3-1,1.56-.65,2.35-.84.7-.17,1.03-.64,1.08-1.35h.34s-.6-1.35-.6-1.35c.13-.34.36-.56.4-.95.07-.7-.33-1.4-.21-2.06.05-.27.74-.32.76-.75.04-.69-.61-.25-.69-.31.71-1.27.86-2.67.34-4.04-.31.16-.67-.08-.93-.26l-.26.19c-.83-1.13-1.75,0-2.79,0-.12-.68.15-.98.45-1.5.08-.15.14-.5.28-.54.3,0,.47.15.8.12.31-.03.75-.2,1.11-.26.24-.04.48.02.73-.03.29-.05.53-.34.7-.33.15,0,1.34.59,1.46.71ZM165.88,22.13c-.2,0-.37.08-.58.07-.24,0-1.36-.43-1.39-.04-.04.5.76.35,1.04.38.14.02.29.16.41.14.03,0,.24-.43.48-.35l.05-.21Z"/>
      <path class="cls-1" d="M71.71,38.3l.24.38c-.08.27-.63-.14-.61.07,0,.13.59.44.72.51l.03-.48c.58.22.61,1.07.54,1.6-.03.2-.2.46-.19.62,0,.13.13.24.14.41.02.5.02,1.48,0,1.99-.01.28-.14.54-.14.75,0,.27.25.4.28.62s-.14.34-.14.54c0,.23.17.42.2.62.04.24-.08.67-.06.74.03.12.22.08.26.12s.01.18.05.25c.14.25.33.42.32.75.6.16,1.37.59,1.42,1.29.04.46-.4.24-.68.41-.13.08-.19.34-.32.36-.08.02-.38-.18-.52-.22-.75-.2-1.52-.09-2.29-.11-.47-.01-.72-.28-1.03.27-.44-.69-1.37-.1-2.01-.25-.35-.08-.45-.38-.74-.5-.27-.11-.49-.03-.71-.25-.97-.97-1.36-3.46-.88-4.71.08-.2.33-.49.36-.6.03-.13-.07-.34-.03-.51.02-.08.31-.1.38-.25.07-.14,0-.31.1-.45.11-.15.67-.43.86-.58.1-.08.16-.24.19-.26.12-.07.5.03.69-.03.14-.04.21-.26.37-.31.15-.05.98-.16,1.15-.16.37,0,1.05.48,1.47.11.32-.44-.51-1.24-.92-1.38-.12,0-.25.37-.47.32-.05-.01-.7-.65-.77-.75-.7-.92,1.06-.14,1.34-.34-.16-.06-.32-.62-.1-.62h1.51ZM70.16,41.8c-.44-.16-.95-.5-1.37-.1.4-.03.82.22,1.2.24.14,0,.2.04.17-.14ZM70.38,43.77c-.05-.1.02-.34-.06-.52-.22-.49-.41.08-.53.05-.12-.11-.12-.28-.21-.41-.25-.37-.34-.09-.62-.08-.21.01-.45-.16-.68-.13l-.08.14.11.24c-.09.38-.34.15-.56.18-.48.07-.56.84-1.07.89.04.37-.09.76-.08,1.12.02.42.46,1.56.75,1.86.17.17.59.17.67.25.07.06.08.38.27.45.26.11.22-.11.3-.16.21-.14.69.23.96.17-.14-.58.31-.45.6-.64.06-.04.79-1.01.83-1.12.16-.41-.02-.51,0-.81.02-.23.2-.31.12-.68-.11-.53-.66-.7-.72-.82ZM69.2,48.51c-.15-.05-.59.02-.55.24s.66.07.55-.24Z"/>
      <path class="cls-1" d="M85.43,41.95c.17.13.4.67.53.8.11.11.34.03.42.13.1.14-.05.35-.03.45.02.08.16.09.2.15.21.31,0,1.82-.25,2.14-.17.21-.95.43-1.24.48-.19.03-.45-.04-.6.02-.11.04-.12.19-.18.23-.13.09-.28-.04-.43-.02s-.34.18-.53.12l.14-.44c-.11-.4-1.01.35-.55.89.34.4.49.06.87-.02.18-.04.41.03.57-.05.13-.06.15-.31.32-.36.19-.06.89-.19,1.09-.21.57-.05.35.02.57.3.05.07.19.07.21.15.07.29-.09.63-.07.87.03.3.53.53.31.93-.33.05-.8.46-1.05.53-.3.08-.5-.05-.73-.05-.42.01-.14.4-.36.47-.06.02-.42-.08-.61-.06-.21.02-.47.19-.59.18-.13-.02-.25-.16-.37-.17s-.26.07-.41.07c-.09,0-1.26-.23-1.32-.26-.07-.03-1.17-.85-1.22-.91-.08-.11-.07-.25-.12-.32-.05-.07-.18-.07-.27-.24-.11-.23-.13-.64-.24-.86-.06-.12-.22-.15-.23-.2-.03-.18.24-.43.25-.61.01-.24-.22-.41-.18-.68.03-.19.27-.25.27-.41,0-.18-.24-.29-.21-.55.03-.19.38-.38.48-.63.07-.18.05-.43.09-.49.02-.03.15-.05.19-.11.1-.12.08-.35.17-.51.18-.32,1.98-1.35,2.22-1.1v.28c.11,0,.44.04.46-.1l-.05-.31c.27-.04.52.07.79.07.16,0,.32-.1.48-.08.11.01.51.28.68.36s.37.03.51.14ZM83.24,43.69c-.35.3-.56-.42-.94-.01-.1.1-.24.78-.15.9.37.31.65.06.94.03.1-.01.22.04.31.03.21-.04,1.03-.22,1.08-.42.09-.3-.93-.8-1.05-.77-.11.02-.14.19-.2.24Z"/>
      <path class="cls-1" d="M114.25,39.6c.13,0,.04-.32.24-.27.29.06.08.59.1.62.46-.19.89.49,1.14.53.07.01.2-.07.23-.05.03.02.11.52.27.72.07.09.51.41.6.43.31.08.26-.2.33-.2.13,0,.48.26.65.31.23.07.5.04.74.16.16.07.31.29.5.33.2.04.45-.15.65.03.14.13.28.8.46,1.05.12.17.4.31.44.39.07.15.01.39.05.57.05.24.22.4.26.7.05.41-.03,1.72-.19,2.07s-.39.32-.15.8l-.55.25.41.45c.05.3-.84.33-.99.5l-.14-.2c-.09.13-.31.26-.38.37-.14.24.07.39-.4.3v-.2c-.2.03-.29.14-.52.14-.24,0-.77-.05-1.03-.08-.14-.02-.26-.15-.41-.13-.12.01-.2.14-.31.18-.52.17-1.09-.7-1.68-.18l-.07-.06c-.16-.38-.32-.69-.22-1.12.04-.18.36-.53.12-.7-.09-.07-.21.04-.21-.14,0-.26.35-.38.34-.62,0-.1-.14-.2-.14-.41s.13-.34.14-.48c.01-.18-.1-.36-.06-.61.02-.13.13-.25.13-.35,0-.17-.37-.28-.28-.61l.25-.1.03-.1c-.08-.29-.33-.48-.26-.81s.37-.35-.01-.77l.27-.11v-.61s-.33,0-.33,0c-.08-.66-.17-.85-.76-.41.08-1.01-.43-.42-.65-.48-.16-.05-.07-.9-.03-1.05s.92-.54,1.04-.51c.1.02.38.34.39.47ZM118.03,43.98c-.23-.15.15-1.15-1.15-.28-.5.33-.17.4-.26.63-.07.18-.39.29-.51.73-.16.59,0,2.02.88,1.81l-.04.34c.4.36.44.08.71-.05.1-.05.24-.06.36-.12.09-.05.16-.2.26-.23.15-.04.33.11.43.03l.4-2.12c-.19-.12-.38-.57-.51-.66-.2-.13-.49-.03-.57-.08Z"/>
      <path class="cls-1" d="M33.69,43.71l-.89-.17c-.18-.11-.11-.8-.39-.85-.14-.03-.53.34-.77.12-.15-.24.26-.52.2-.61-.36-.27-.86-.22-.96.27-.16.12-.42-.5-.6-.54-.57.15-1.94.62-1.94,1.33,0,.45.77,1.1,1.23.85l.04-.27c.38.02.68.47,1.02.41.12-.02.19-.13.35-.14.21-.02.42.14.58-.1l-.13-.31c.58-.24.94-.1,1.03.54.23,0,.41-.08.65-.07.72.05.41.48.63.95.16.34.71.66.77.95.07.31-.14.61-.12.87.01.2.22.34.21.62-.01.25-.18.59-.48.52.34.32-.38.95-.65,1.16-.55.43-1.28.7-1.98.61-.14-.02-.24-.12-.41-.14-.88-.1-.97.17-1.95-.17-.34-.12-.27-.1-.53-.24-.08-.04-.47-.19-.54-.2-.42-.04-.64.49-1.21.33-.31-.09-.34-.96-.33-1.26,0-.18.23-1.54.29-1.59.04-.04.59-.23.69-.21.04,0,.63.34.67.37.17.15.17.42.27.48.12.07.37.03.6.16s.36.38.59.51.51.1.6.15.22.68.48.35c.1-.13.1-.45.31-.45s.19.35.35.4c.12.04.66.03.78-.02.06-.03.75-.86.81-.97.72-1.25-.5-1.21-1.29-1.71h-.07c-.19.16-.32.44-.58.46-.42.03-.34-.33-.42-.35-.54-.15-1.38.22-1.84.14-.28-.05-.5-.42-.74-.56-.15-.08-.54-.16-.58-.21-.05-.05-.06-.28-.12-.4-.22-.42-.58-.91-.59-1.4-.01-.56.67-1.25.63-1.88l1.3-.28-.1.34,1.68-.28-.14-.34c.23.03.47.19.71.18.3,0,.64-.25.97-.25.2,0,0,.12.03.3.04.29.27.41.55.38.07-.06-.28-.38-.07-.58.53-.29,1.41-.23,1.7.36.12.24.03.39.07.61.04.2.21.4.22.55.02.32-.67.81-.55,1.26Z"/>
      <path class="cls-1" d="M132.57,42.47c.07.05.24,0,.33.01.03.27-.07.67.07.91.02.04.13.04.14.09.06.33-.33.77-.02,1.37.2.37.27-.11.56-.05.04.65-.79.86-.66,1.51.02.11.34,1.02.38,1.06.18.2.86-.03.75.57-.53.02-.61.37-.97.64-.21.15-.59.35-.84.39-.44.06-.94-.11-1.29-.06s-.89.49-1.24.48c-.19,0-.26-.15-.37-.18-.22-.05-.41.18-.59-.24-.44.33-.45.33-.88.05-.36-.23-1.21-1.03-1.32-1.42-.05-.2,0-.38-.05-.57-.04-.21-.2-.33-.2-.56s.23-.5.32-.72c.05-.13,0-.29.07-.41.03-.05.74-.62.84-.67.35-.16.76-.14,1.13-.24.61-.17,1.12-.49,1.79-.4l.09-.09-.05-.31.62-.17-.75-.24c.17.35-.08.57-.43.48-.1-.03-.08-.41-.34-.34-.18.05-.22.44-.48.56-.09.04-1.07.3-1.2.31-.85.12-1.23-.82-.92-1.54.2-.46.65-.55.81-.98l2.32-.21c.51.11,1.83.14,2.16.52.09.1.19.42.22.44ZM131.03,47.05c.21-.25-.02-1.09-.32-1.18-.52-.17-.88.02-1.36.09-.19.03-.29-.14-.53.08-.15.14-.28.73-.23.91.01.04.43.66.47.7.28.31.85.22,1.24.34.2-.19.24-.48.41-.68.1-.13.27-.19.32-.26Z"/>
      <path class="cls-1" d="M54.51,40.51c.06.05.07.18.09.26l.38-.18c.27.11.54.31.2.53-.07.16.32.18.45.1.22-.14-.07-.19-.07-.21-.07-.64,1.26-.62,1.41-.37.05.08.01.2.05.26.03.04.2.06.29.15.14.15.59,1.07.59,1.27,0,.32-.33.19-.4.42,0,.82-.43,2.13.12,2.8.23.27.49.17.01.62l.5.72s.03-.16.14-.2c.56-.19.36.3.45.56.1.3.66.02.88.04v-.41c.15-.16.7.81.79.89.35.33.78.12.64.84-.13.64-.57.35-.94.57-.35.21-.1.57-.71.43-.17-.04-.28-.21-.44-.25-.28-.06-.58.04-.87-.14-.17.07-.19.23-.18.4-.35-.02-.6.03-.72-.34-.49.21-1.1.35-1.63.26-.2-.03-.35-.17-.56-.19-.79-.1-1.83.28-2.39-.48-.71-.96.49-1.23,1.1-1.49.27-.11.52-.41.77-.29v-.28c1.12.18,1.11-1.35,1.37-2.09,0-.05-.13-.04-.17-.1-.05-.07.02-.71.04-.86.03-.2.25-.28-.04-.58-.17-.18-.39-.09-.55-.2-.24-.17-.08-.68-.51-.55v.34c-.43-.47-.72-.46-1.3-.27.08-.56-.67-.82-.4-1.42.18-.05.36-.08.53-.19.22-.14.34-.52.57-.5.06,0,.5.12.52.14Z"/>
      <path class="cls-1" d="M43.97,41.59l.34-.14c.08.38-.1.35-.35.52.03.23.15.44.15.68,0,.46-.14,1.12-.14,1.5,0,.2.13.47.14.69.05.88-.26,2.2.64,2.69l.37-.22-.18-.59.37.06c.02.29.15.26.25.45l-.27.33.27.39c.14-.05.09-.23.25-.34.42-.27,1.35.16,1.8.28.07.11-.09.95-.16,1.08-.13.23-.51.1-.77.19-.18.06-.25.22-.45.24-.23.02-.5-.15-.76-.15-.45,0-1.08.23-1.51.21-.24,0-.44-.19-.63-.21-.52-.05-1.42.03-2.05,0-.35-.01-1.22.07-1.47-.04-.51-.21-.18-1.1-.04-1.48l1.05-.46c.43-.04.96.72,1.42.05.53-.78,0-1.51.11-2.15.04-.21.27-.32.28-.55,0-.19-.18-.33-.15-.55.03-.19.26-.24.28-.42.01-.13-.1-.3-.07-.44l-.2.07c-.12-.28.2-.6.2-.79,0-.11-.11-.22-.13-.35-.06-.41.2-.5.2-.74,0-.33-.43-1.57-.71-1.76-.41-.28-.82.04-1.2.14.1-.45-.49-.4-.59-.55-.26-.38.19-1,.49-.34.38-.1.84-.18,1.23-.19.44-.01,1.43.34,1.41-.36.24-.22.82,1.02.82,1.2,0,.08-.17.41-.2.62-.03.23-.08.73-.07.96,0,.16.03.3.07.44Z"/>
      <path class="cls-1" d="M99.57,41.73l.08.61c.22-.29.72.79.73.85,0,.12-.42,1.03-.52,1.15-.18.19-.6.24-.55.53-.16.16-.74-.72-.85-.83-.3-.3-.63-.19-.38-.85.09-.24.31-.28.34-.51-.66-.15-1.54-.19-2.09.27-.21.18-1.02,1.5-1.06,1.75-.09.55-.03,2.01.11,2.55.08.31.23.55.37.83.35-.15.75-.16,1.13-.13.1,0,.69.1.77.12.23.07.51.32.77.37-.01.23-.07.51-.23.68-.04.04-.48.35-.52.37-.33.14-.78-.08-1.13-.1s-1.87.07-2.03-.03c-.05-.03-.05-.17-.1-.18-.16,0-.4.29-.56.33-.19.05-1.34-.17-1.46-.29-.09-.09-.07-.2-.07-.31.18-.01.39-.04.56-.09.84-.24-.21-.45-.56-.39.11-.67,1.1-.2,1.5-.66.05-.05.26-.44.27-.49.03-.18-.18-.4-.19-.61,0-.16.12-.29.14-.47.04-.34-.16-.78-.03-1.06.09-.19.66-.44.03-.55.19-.53.46-1.28.13-1.81-.16-.26-.39-.19-.62-.27-.13-.04-.21-.17-.37-.19-.31-.03-.65.32-.99.27-.07-.41.14-.73.34-1.07.07-.04.29.05.43.03.72-.08,1.22-.46,1.89-.02.13.08.25.29.35.34.55.25,2.21-.61,2.98-.59.61.02.82.48,1.4.42Z"/>
      <path class="cls-1" d="M146.81,41.73l.07.61c.28-.24.69.75.69.92,0,.21-.26.75-.39.92-.22.3-.58.38-.72.69-.12.09-.72-.74-.83-.85-.24-.25-.49-.1-.38-.66.06-.32.3-.41.38-.68-.78-.16-1.7-.21-2.26.45-.13.15-.87,1.38-.89,1.51-.1.51-.02,2.11.11,2.62.31,1.14.53.63,1.43.7.14.01.72.09.83.12s.71.35.75.43c.12.42-.65,1.05-.97,1.08-.13.01-.59-.17-.81-.19-.4-.04-1.87.1-2.09-.04-.05-.03-.05-.17-.1-.18-.16,0-.4.29-.56.33-.2.06-1.29-.16-1.46-.29-.42-.33.38-.36.6-.43.12-.04.27-.06.23-.22-.35-.08-.59-.22-.96-.07.11-.68.94-.35,1.37-.59.15-.09.45-.54.47-.69s-.24-.41-.25-.55c0-.1.17-.25.2-.47.03-.34-.14-.69-.07-1.03.05-.25.74-.45.07-.58.21-.63.42-1.22.14-1.87-.11-.17-.55-.14-.71-.2-.11-.04-.15-.17-.29-.19-.27-.04-.69.31-.99.28-.07-.41.14-.73.34-1.07.07-.04.29.05.43.03.79-.09,1.23-.51,1.96.04.23.17.07.32.52.31,1.06-.03,2.31-.95,3.34-.47.33.16.36.4.8.26ZM143.46,48.65l-.82-.14.04.21c.12.09.7.12.78-.07Z"/>
      <path class="cls-1" d="M32.44,5.67l-.4.08c.05-.12.1-.21.04-.34-.03-.05-.61-.51-.75-.69-1-1.26-1.01-3.37.2-4.52.62-.59,1.99.33,2.75.35.29,0,.58-.2.88-.2.8.93.97,2.06.35,3.15s-1.82,1.51-2.99,1.68l-.08.51Z"/>
      <path class="cls-1" d="M152.02,31.25l.22.65c-.21.35-.65.51-1.04.61-.27.07-1.1.24-1.34.25s-.38-.2-.68-.21c-.34-.01-.69.21-.96.2-.16,0-.33-.12-.55-.13-.32-.02-.56.14-.83.14-.24,0-.45-.12-.68-.14-.64-.04-1.28.04-1.92,0-.18-.01-.34-.13-.48-.13-.18,0-.39.14-.69.13-.23,0-1.06-.11-1.27-.17-.15-.04-.11-.18-.16-.18l-.03.28c-.65-.04-1.71.16-1.51-.82.37-.03.77.04,1.13,0,.23-.02.62-.21.76-.2s.23.19.4.18c.1,0,.23-.11.36-.12.31-.02.67.04.95,0,.2-.03.33-.2.55-.21s.53.13.76.13c.37,0,.81-.17,1.16-.2s.72.07,1.02.06c.32,0,.73-.31.91-.33.12-.01.22.18.35.25.46.24.76-.24,1.15-.4l.44.27-.07-.34c.5.02.75.47,1.26,0,.33.27.27.57.79.41ZM143.53,32.2c-.22-.51-.49-.35-.69.07.26.12.43,0,.69-.07Z"/>
      <path class="cls-1" d="M112.67,31.25c.37.71.17.95-.56,1.18-.27.09-1.35.32-1.61.32-.23,0-.38-.2-.68-.21s-.54.13-.82.15c-.33.02-.63-.11-.96-.07-.94.09-2.17.06-3.15,0-.18-.01-.34-.13-.48-.13-.18,0-.39.14-.69.13-.23,0-1.06-.11-1.27-.17-.15-.04-.11-.18-.16-.18l-.03.28c-.66-.02-1.7.16-1.51-.82.37-.03.77.04,1.13,0,.24-.02.59-.2.76-.2.17,0,.27.19.4.19.1,0,.23-.11.36-.12.3-.02.67.04.95,0,.2-.03.33-.2.55-.21.23,0,.58.12.82.13.37,0,.81-.16,1.17-.19s.67.07.95.06c.32,0,.73-.31.91-.33.13-.01.24.22.38.28.42.18.75-.29,1.11-.43l.44.27-.05-.24.16-.11c.42.22.67.36,1.09,0,.33.27.27.57.79.41ZM104.06,32.11c-.1-.16-.12-.43-.4-.12-.37.4.26.36.52.21.03-.11-.08-.04-.11-.09Z"/>
      <path class="cls-1" d="M85.95,31.22c.17.14.3,0,.41.03.16.04.23.49.3.64-.19.29-.54.45-.87.55-.27.08-1.3.3-1.54.3-.22,0-.35-.19-.61-.2-.32-.01-.68.19-.97.19-.19,0-.39-.12-.67-.12s-.53.14-.75.14c-.2,0-.41-.12-.62-.14-.66-.04-1.33.04-1.99,0-.18-.01-.34-.13-.48-.13-.17,0-.35.14-.61.13-.4,0-1.09-.23-1.44-.21-.04,0-.03.12-.09.14-.42.1-1.77.02-1.52-.71l.1-.1c.33-.04.68.02,1.02-.01.26-.02.6-.2.76-.21.21-.01.26.2.4.21.1,0,.22-.12.35-.13.34-.04.77.05,1.08-.02.15-.04.23-.19.42-.2.22-.01.58.13.82.13.37,0,.81-.16,1.17-.19.55-.04.89.11,1.46-.05.12-.03.42-.21.46-.21.05,0,.18.19.29.24.45.23.79-.21,1.16-.39l.5.26-.07-.34c.46,0,.74.48,1.2.01.15.06.24.31.33.38ZM77.91,32.2l-.3-.34c-.57.44-.24.6.3.34Z"/>
      <path class="cls-1" d="M32.36,30.93s.02.09.07.11c.41.09.66-.19.74-.19.13,0,.27.38.38.43.11.06.31-.09.4-.03.09.33.37.55.07.85-.33.33-1.78.64-2.24.63-.23,0-.4-.18-.67-.19-.29,0-.54.13-.82.15-.31.01-.58-.09-.89-.07-.21.02-.42.13-.62.14-.23,0-.4-.12-.61-.14-.71-.05-1.78-.12-2.47-.13-.18,0-.4.13-.62.13-.27,0-1-.1-1.29-.16-.1-.02-.16-.09-.25-.12v.2c-.66-.02-1.72.15-1.51-.82.37-.02.77.03,1.13,0,.24-.02.63-.2.76-.2.17,0,.28.2.41.2.11,0,.22-.12.35-.13.31-.03.66.04.95,0,.2-.03.33-.2.55-.21.23,0,.58.12.82.13.37,0,.81-.16,1.17-.19.53-.04.87.11,1.4-.04.12-.03.46-.22.52-.22.09,0,.25.34.54.32.22-.02.66-.33.84-.47.18-.05.78.7.43-.08.19-.03.3.02.45.1ZM25.46,32.2l-.3-.34c-.58.45-.22.58.3.34Z"/>
      <path class="cls-1" d="M59.69,31.22c.13.15.47-.03.53.02l.2.74c-.25.14-.38.3-.66.4-.25.09-1.54.36-1.77.35-.18,0-.33-.19-.61-.2-.34-.01-.69.21-.96.2s-.47-.17-.88-.12c-.64.08-.51.04-1.1,0s-1.29.03-1.92,0c-.19,0-.39-.13-.55-.13-.19,0-.39.14-.69.13-.43,0-1.08-.13-1.47-.28l-.04.21c-.65-.02-1.66.15-1.47-.83.37-.03.77.04,1.13,0,.23-.02.62-.21.76-.2s.23.19.4.18c.1,0,.23-.11.36-.12.31-.02.73.05,1.01-.02.15-.04.23-.19.42-.2.22-.01.58.11.83.12.41,0,.82-.16,1.22-.18.34-.02.67.08.95.07.32-.02.74-.31.91-.33.13-.01.31.33.61.32.28,0,.67-.43.83-.46.18-.03.42.35.5.26l-.07-.27c.32-.18.36.07.53.12.41.13.64-.18.71-.16.23.04.22.28.29.37ZM51.61,32.11c-.07-.11-.04-.31-.26-.24l-.32.4c.27.14.42-.04.69-.07.03-.11-.08-.04-.11-.09Z"/>
      <path class="cls-1" d="M46.49,30.99c.17.19.05.39.52.26l.29.6c.01.12-.19.27-.29.34-.29.2-1.77.56-2.12.55-.18,0-.33-.19-.61-.2s-.54.13-.82.15c-.34.02-.64-.1-.96-.07-1.01.09-2.17.07-3.22,0-.18-.01-.35-.13-.48-.13-.12,0-.27.13-.48.14-.46.02-1.1-.21-1.53-.19-.1,0-.17.11-.26.11-.52.05-1.8,0-1.29-.82.33-.02.69.03,1.02,0,.26-.02.6-.2.76-.21.21-.01.26.2.4.21.1,0,.22-.12.35-.13.34-.04.77.05,1.08-.02.15-.04.23-.19.42-.2.22-.01.58.13.82.13.37,0,.81-.16,1.17-.19.55-.04.89.11,1.46-.05.12-.03.42-.21.46-.21.06,0,.16.17.24.22.47.26.82-.14,1.21-.36l.5.26-.07-.34c.42-.06.44.3.91.19.2-.05.28-.3.51-.03ZM38.56,32.2l-.3-.34c-.58.45-.22.58.3.34Z"/>
      <path class="cls-1" d="M163.52,30.93s.02.09.07.11c.25.06.56,0,.74-.19.16.07.26.38.38.44.14.07.34-.08.4-.03.03.02.22.56.21.65-.06.55-2.12.85-2.57.79-.64-.09-1.46-.09-2.13-.07-.26,0-.51.15-.75.14-.19,0-.35-.13-.55-.14-.64-.05-1.34.04-1.99,0-.18-.01-.34-.13-.48-.13-.17,0-.36.14-.62.13-.41,0-1-.21-1.39-.19-.1,0-.17.11-.26.11-.46.03-1.64.04-1.39-.71l.1-.1c.33-.04.68.02,1.02-.01.24-.02.63-.2.76-.2.17,0,.28.2.41.2.11,0,.22-.12.35-.13.31-.03.66.04.95,0,.2-.03.33-.2.55-.21.23,0,.58.12.82.13.37,0,.81-.16,1.17-.19.52-.04.88.11,1.4-.04.19-.06.39-.18.58-.24.34.7.92.11,1.39-.12.14-.01.21.23.4.27.23.05-.1-.27.15-.34.12-.03.19.06.27.09ZM156.62,32.2l-.3-.34c-.57.44-.24.6.3.34Z"/>
      <path class="cls-1" d="M72.4,30.94s0-.16.12-.11c.31.29.27.56.78.42.14.41.41.63-.04.94-.26.18-1.73.53-2.06.54-.27,0-.45-.19-.73-.2s-.54.13-.82.15c-.33.02-.63-.11-.96-.07-.98.1-2.12.06-3.15,0-.18-.01-.34-.13-.48-.13-.17,0-.36.14-.62.13-.42,0-.92-.19-1.36-.15l-.14-.2-.03.28c-.65-.04-1.71.16-1.51-.82.37-.03.77.04,1.13,0,.24-.02.59-.2.76-.2.17,0,.28.19.41.2.11,0,.22-.12.35-.13.31-.03.66.04.95,0,.2-.03.33-.2.55-.21s.53.11.77.12c.4.01.79-.15,1.15-.18.53-.05.96.12,1.47-.04.14-.04.35-.22.46-.23.12-.01.22.18.35.25.45.23.79-.2,1.15-.4.15,0,.22.24.41.28.22.05-.1-.28.14-.34.15-.04.51.45.97.11ZM64.82,32.2l-.25-.34c-.64.28-.37.67.25.34Z"/>
      <path class="cls-1" d="M20.86,31.24l.2.71s-.32.27-.38.31c-.32.17-1.64.47-1.99.47-.23,0-.4-.18-.67-.19-.29,0-.54.13-.82.15-.33.02-.63-.11-.96-.07-.63.06-.55.05-1.16,0-.66-.05-1.4.05-2.06,0-.17-.01-.29-.13-.41-.13-.16,0-.4.14-.69.14-.42,0-1.09-.14-1.47-.28l-.04.21c-.66-.03-1.67.14-1.47-.83.35-.02.72.03,1.06,0,.24-.02.69-.21.83-.2.14,0,.23.19.4.18.1,0,.23-.11.36-.12.31-.02.67.04.95,0,.18-.03.32-.19.49-.2.22-.02.58.12.82.12.38,0,.81-.16,1.17-.19.68-.06,1.27.21,1.92-.25.15,0,.16.14.26.2.51.3.81-.17,1.25-.36l.44.27-.06-.23.17-.11c.21-.02.29.3.75.21.14-.03.22-.18.4-.13.22.07.21.57.73.34ZM12.36,32.2c-.24-.52-.48-.38-.69.07.27.14.42-.05.69-.07Z"/>
      <path class="cls-1" d="M125.76,31.25l.26.65c-.19.29-.55.45-.87.55-.26.08-1.32.3-1.55.3-.21,0-.35-.18-.61-.2-.32-.02-.59.13-.89.15s-.59-.1-.89-.07c-.2.02-.36.14-.55.14-.22,0-.4-.12-.61-.14-.66-.05-1.39.04-2.06,0-.18,0-.33-.13-.48-.13-.18,0-.4.13-.62.13-.62,0-.95-.14-1.65-.08-.46.04-1.63.01-1.39-.71l.1-.1c.33-.04.68.02,1.02-.01.26-.02.6-.2.76-.21.21-.01.25.2.4.2.11,0,.28-.12.42-.13.31-.03.64.03.94-.02.18-.03.35-.17.5-.19.21-.02.56.11.8.11.4,0,.79-.15,1.18-.18.55-.04.89.11,1.46-.05.12-.03.42-.21.46-.21.06,0,.21.22.33.27.4.18.78-.26,1.12-.42l.5.26-.07-.34c.46,0,.74.48,1.2.01.28.25.32.56.78.4ZM117.27,32.2l-.3-.34c-.57.44-.24.6.3.34Z"/>
      <path class="cls-1" d="M99.05,31.23c.16.16.36-.09.52.13.49.64-.12.92-.68,1.09-.27.08-1.32.31-1.55.3-.18,0-.33-.19-.61-.2s-.54.13-.82.15c-.34.02-.64-.1-.96-.07-.2.02-.36.14-.55.14-.22,0-.4-.12-.61-.14-.64-.05-1.34.04-1.99,0-.18-.01-.34-.13-.48-.13-.18,0-.39.14-.69.13-.36,0-1.17-.25-1.43-.21-.05,0-.04.13-.09.14-.22.05-1.02-.03-1.24-.12-.31-.13-.22-.42-.22-.7.35-.02.72.03,1.06,0,.23-.02.7-.21.83-.2.15,0,.19.19.34.2.11,0,.28-.12.42-.13.31-.03.66.04.95,0,.18-.03.32-.19.49-.2.22-.02.58.12.82.12.37,0,.81-.16,1.17-.19s.72.08,1.02.06c.28-.01.89-.35.96-.34.03,0,.18.33.48.34.35,0,.71-.42.91-.46.21-.04.27.31.5.26l-.07-.34c.3-.1.4.19.65.21.27.03.51-.19.68-.14.14.05.13.25.2.32ZM90.89,32.05s.08-.25-.18-.18l-.32.4c.27.14.42-.05.69-.07,0-.1-.15-.1-.18-.15Z"/>
      <path class="cls-1" d="M138.3,30.99c.17.19.05.39.52.26l.31.59c.02.18-.46.46-.62.52-.3.12-1.52.39-1.81.38-.18,0-.33-.19-.61-.2s-.54.13-.82.15c-.34.02-.64-.1-.96-.07-1.26.11-2.39-.04-3.64-.13-.18-.01-.38.14-.61.14-.43,0-1.13-.23-1.5-.21-.04,0-.03.12-.09.14-.46.11-1.92-.05-1.42-.83.33-.01.69.03,1.02,0,.23-.02.7-.21.83-.2.15,0,.2.2.34.2.1,0,.22-.12.35-.13.33-.04.71.04,1.02,0,.18-.03.32-.19.49-.2.22-.02.58.12.82.12.37,0,.81-.16,1.17-.19s.72.08,1.02.06c.28-.01.79-.32.9-.32.17,0,.33.34.61.32.24-.02.63-.34.84-.47.06,0,.55.48.48.18-.11-.53.36-.08.54-.05.41.07.59-.33.83-.05ZM130.36,32.2c.04-.06-.11-.37-.24-.34l-.38.31c.2.3.36.1.62.03Z"/>
      <path class="cls-1" d="M55.83,40.35h-.1c-.73-.53-1.07-1.63-.6-2.44s.91-.2,1.57-.16c.19.01.45-.11.57-.03.63,1,.34,1.77-.71,2.24-.25.11-.67.07-.74.4Z"/>
      <path class="cls-1" d="M1.65,31.05c.28-.04.78.18.95.39.05.07.22.57.23.66.11.91-1.56,1.17-1.98.46-.38-.65.08-1.42.8-1.52Z"/>
      <path class="cls-1" d="M173.13,31.4s.23.77.23.84c-.03.93-2.19,1.09-2.13-.19.02-.54.58-1.04,1.12-1,.13,0,.7.28.78.36Z"/>
      <path class="cls-1" d="M31.62,11.99v.23s-.11.1-.11.1c-.39.01-.93.16-.76-.42.11-.37.62.08.87.09Z"/>
    </g>
  </g>
</svg>