<?xml version="1.0" encoding="UTF-8"?>
<svg id="Layer_2" data-name="Layer 2" xmlns="http://www.w3.org/2000/svg" viewBox="0 0 147.67 70.5">
  <defs>
    <style>
      .cls-1 {
        fill: #f6f9fd;
      }
    </style>
  </defs>
  <g id="Layer_1-2" data-name="Layer 1">
    <g>
      <path class="cls-1" d="M10.13,17.39c-1.33-1.1-1.99-2.62-1.99-4.58h6.3c0,.39.11.7.33.93.22.22.52.33.9.33.34,0,.62-.09.84-.27.21-.18.32-.42.32-.73,0-.43-.21-.74-.62-.94-.41-.2-1.11-.42-2.08-.68-1.17-.29-2.14-.6-2.91-.94-.77-.33-1.44-.88-2.01-1.65-.57-.76-.85-1.81-.85-3.15,0-1.78.63-3.18,1.89-4.19s3.02-1.52,5.29-1.52,3.97.52,5.21,1.56c1.24,1.04,1.87,2.47,1.87,4.31h-6.07c0-.34-.09-.61-.26-.8-.17-.19-.42-.28-.75-.28-.31,0-.55.07-.72.22s-.26.35-.26.6c0,.39.21.69.63.9.42.21,1.12.44,2.1.69,1.2.31,2.2.64,3,.99.8.35,1.49.91,2.08,1.67.59.76.89,1.78.89,3.05,0,1.92-.67,3.42-2.01,4.5s-3.2,1.62-5.58,1.62-4.22-.55-5.54-1.65Z"/>
      <path class="cls-1" d="M39.58,5.74h-4.86v12.79h-6.02V5.74h-4.86V.52h15.75v5.22Z"/>
      <path class="cls-1" d="M39.04,13.84h5.15v4.68h-5.15v-4.68Z"/>
      <path class="cls-1" d="M63.81,13.12v5.4h-12.12V.52h6.12v12.61h5.99Z"/>
      <path class="cls-1" d="M69.05,18.09c-1.26-.63-2.24-1.54-2.93-2.7s-1.04-2.52-1.04-4.07V.52h6.23v10.83c0,.65.19,1.18.58,1.58s.9.6,1.53.6,1.15-.2,1.53-.6.58-.93.58-1.58V.52h6.23v10.81c0,1.54-.35,2.9-1.04,4.07s-1.67,2.07-2.93,2.7-2.71.95-4.36.95-3.1-.32-4.36-.95Z"/>
      <path class="cls-1" d="M94.38,18.53l-4.04-6.84v6.84h-5.97V.52h5.97v6.56l3.68-6.56h7l-5.66,8.85,6.02,9.16h-7Z"/>
      <path class="cls-1" d="M114.76,13.69v4.84h-12.45V.52h12.33v4.84h-6.41v1.96h5.74v4.43h-5.74v1.96h6.54Z"/>
      <path class="cls-1" d="M117.03,7.1c.62-.03,1.1-.23,1.45-.58s.53-.82.53-1.4h-2.16V.44h5.15v4.24c0,1.48-.46,2.7-1.36,3.68-.91.98-2.11,1.53-3.6,1.67v-2.93Z"/>
      <path class="cls-1" d="M125.43,17.39c-1.33-1.1-1.99-2.62-1.99-4.58h6.3c0,.39.11.7.33.93.22.22.52.33.9.33.34,0,.62-.09.84-.27.21-.18.32-.42.32-.73,0-.43-.21-.74-.62-.94s-1.11-.42-2.08-.68c-1.17-.29-2.14-.6-2.91-.94-.77-.33-1.44-.88-2.01-1.65-.57-.76-.85-1.81-.85-3.15,0-1.78.63-3.18,1.89-4.19s3.02-1.52,5.29-1.52,3.97.52,5.21,1.56c1.24,1.04,1.87,2.47,1.87,4.31h-6.07c0-.34-.09-.61-.26-.8-.17-.19-.42-.28-.75-.28-.31,0-.55.07-.72.22-.17.15-.26.35-.26.6,0,.39.21.69.63.9.42.21,1.12.44,2.1.69,1.2.31,2.2.64,3,.99.8.35,1.49.91,2.08,1.67.59.76.89,1.78.89,3.05,0,1.92-.67,3.42-2.01,4.5-1.34,1.08-3.2,1.62-5.58,1.62s-4.22-.55-5.55-1.65Z"/>
      <path class="cls-1" d="M12.45,39.42v4.84H0v-18.01h12.33v4.84h-6.41v1.96h5.74v4.43h-5.74v1.96h6.54Z"/>
      <path class="cls-1" d="M26.97,27.11c1.06.58,1.9,1.38,2.5,2.42.6,1.04.9,2.22.9,3.54s-.3,2.5-.9,3.55c-.6,1.05-1.43,1.86-2.5,2.44-1.06.58-2.26.88-3.6.88h-2.55v4.32h-5.99v-18.01h8.54c1.34,0,2.54.29,3.6.86ZM23.61,34.47c.35-.35.53-.81.53-1.38s-.18-1.02-.53-1.38c-.35-.35-.82-.53-1.4-.53h-1.39v3.81h1.39c.58,0,1.05-.18,1.4-.53Z"/>
      <path class="cls-1" d="M32.11,26.25h6.12v18.01h-6.12v-18.01Z"/>
      <path class="cls-1" d="M42.29,43.13c-1.33-1.1-1.99-2.62-1.99-4.58h6.3c0,.39.11.7.33.93.22.22.52.33.9.33.34,0,.62-.09.84-.27.21-.18.32-.42.32-.73,0-.43-.21-.74-.62-.94s-1.11-.42-2.08-.68c-1.17-.29-2.14-.6-2.91-.94-.77-.33-1.44-.88-2.01-1.65-.57-.76-.85-1.81-.85-3.15,0-1.78.63-3.18,1.89-4.19s3.02-1.52,5.29-1.52,3.97.52,5.21,1.56c1.24,1.04,1.87,2.47,1.87,4.31h-6.07c0-.34-.09-.61-.26-.8-.17-.19-.42-.28-.75-.28-.31,0-.55.07-.72.22-.17.15-.26.35-.26.6,0,.39.21.69.63.9.42.21,1.12.44,2.1.69,1.2.31,2.2.64,3,.99.8.35,1.49.91,2.08,1.67.59.76.89,1.78.89,3.05,0,1.92-.67,3.42-2.01,4.5-1.34,1.08-3.2,1.62-5.58,1.62s-4.22-.55-5.55-1.65Z"/>
      <path class="cls-1" d="M61.39,43.54c-1.51-.82-2.69-1.96-3.54-3.4-.85-1.44-1.27-3.07-1.27-4.89s.42-3.45,1.27-4.89,2.03-2.57,3.54-3.4c1.51-.82,3.22-1.23,5.12-1.23,1.68,0,3.21.34,4.59,1.03,1.38.69,2.51,1.64,3.38,2.87.88,1.23,1.42,2.65,1.62,4.26h-6.12c-.26-.81-.7-1.45-1.33-1.94-.63-.49-1.33-.73-2.12-.73-1.06,0-1.93.37-2.59,1.12-.66.75-.99,1.72-.99,2.92s.33,2.17.99,2.91,1.52,1.11,2.59,1.11c.84,0,1.57-.27,2.2-.81.63-.54,1.03-1.25,1.22-2.12h6.2c-.19,1.66-.72,3.13-1.58,4.4-.87,1.27-2,2.26-3.4,2.97s-2.96,1.07-4.67,1.07c-1.9,0-3.61-.41-5.12-1.23Z"/>
      <path class="cls-1" d="M82.15,43.59c-1.55-.79-2.76-1.9-3.61-3.35-.86-1.44-1.29-3.1-1.29-4.99s.43-3.55,1.29-4.99c.86-1.44,2.06-2.56,3.61-3.34s3.35-1.18,5.39-1.18,3.84.39,5.39,1.18,2.76,1.9,3.61,3.34c.86,1.44,1.29,3.11,1.29,4.99s-.43,3.55-1.29,4.99c-.86,1.44-2.06,2.56-3.61,3.35s-3.35,1.18-5.39,1.18-3.84-.39-5.39-1.18ZM90.37,38.16c.72-.74,1.08-1.71,1.08-2.91s-.36-2.17-1.08-2.91-1.66-1.11-2.83-1.11-2.11.37-2.83,1.11c-.72.74-1.08,1.71-1.08,2.91s.36,2.17,1.08,2.91c.72.74,1.66,1.11,2.83,1.11s2.11-.37,2.83-1.11Z"/>
      <path class="cls-1" d="M111.98,27.11c1.06.58,1.9,1.38,2.5,2.42.6,1.04.9,2.22.9,3.54s-.3,2.5-.9,3.55c-.6,1.05-1.43,1.86-2.5,2.44-1.06.58-2.26.88-3.6.88h-2.55v4.32h-6v-18.01h8.54c1.34,0,2.54.29,3.6.86ZM108.62,34.47c.35-.35.53-.81.53-1.38s-.18-1.02-.53-1.38c-.35-.35-.82-.53-1.4-.53h-1.39v3.81h1.39c.58,0,1.05-.18,1.4-.53Z"/>
      <path class="cls-1" d="M126.96,41.76h-5.74l-.8,2.5h-6.46l7.18-18.01h6.02l7.23,18.01h-6.66l-.77-2.5ZM124.1,32.6l-1.75,4.97h3.5l-1.75-4.97Z"/>
      <path class="cls-1" d="M147.67,38.85v5.4h-12.12v-18.01h6.12v12.61h5.99Z"/>
      <path class="cls-1" d="M20.47,69.27c-1.51-.82-2.69-1.96-3.54-3.4-.85-1.44-1.27-3.07-1.27-4.89s.42-3.45,1.27-4.89,2.03-2.57,3.54-3.4c1.51-.82,3.22-1.23,5.12-1.23,1.68,0,3.21.34,4.59,1.03,1.38.69,2.51,1.64,3.38,2.87.88,1.23,1.42,2.65,1.62,4.26h-6.12c-.26-.81-.7-1.45-1.33-1.94-.63-.49-1.33-.73-2.12-.73-1.06,0-1.93.37-2.59,1.12-.66.75-.99,1.72-.99,2.92s.33,2.17.99,2.91c.66.74,1.52,1.11,2.59,1.11.84,0,1.57-.27,2.2-.81.63-.54,1.03-1.25,1.22-2.12h6.2c-.19,1.66-.72,3.13-1.58,4.4-.87,1.27-2,2.26-3.4,2.97s-2.95,1.07-4.67,1.07c-1.9,0-3.61-.41-5.12-1.23Z"/>
      <path class="cls-1" d="M53.51,51.98v18.01h-6.07v-6.38h-4.22v6.38h-6.07v-18.01h6.07v6.1h4.22v-6.1h6.07Z"/>
      <path class="cls-1" d="M60.11,69.55c-1.26-.63-2.24-1.54-2.93-2.7s-1.04-2.52-1.04-4.07v-10.81h6.23v10.83c0,.65.19,1.18.58,1.58s.9.6,1.53.6,1.15-.2,1.53-.6.58-.93.58-1.58v-10.83h6.23v10.81c0,1.54-.35,2.9-1.04,4.07s-1.67,2.07-2.93,2.7-2.71.95-4.36.95-3.1-.32-4.36-.95Z"/>
      <path class="cls-1" d="M82.64,65.1h-1.23v4.89h-5.97v-18.01h8.41c1.39,0,2.62.28,3.7.85,1.08.57,1.92,1.37,2.52,2.41.6,1.04.9,2.23.9,3.56,0,1.03-.21,1.96-.64,2.79s-1.05,1.53-1.85,2.1l3.14,6.3h-6.66l-2.32-4.89ZM81.4,60.52h1.47c.58,0,1.05-.16,1.39-.49.34-.33.52-.74.52-1.23s-.17-.9-.52-1.22c-.34-.32-.81-.48-1.39-.48h-1.47v3.42Z"/>
      <path class="cls-1" d="M97.1,69.27c-1.51-.82-2.69-1.96-3.54-3.4-.85-1.44-1.27-3.07-1.27-4.89s.42-3.45,1.27-4.89,2.03-2.57,3.54-3.4c1.51-.82,3.22-1.23,5.12-1.23,1.68,0,3.21.34,4.59,1.03,1.38.69,2.51,1.64,3.38,2.87.88,1.23,1.42,2.65,1.62,4.26h-6.12c-.26-.81-.7-1.45-1.33-1.94-.63-.49-1.33-.73-2.12-.73-1.06,0-1.93.37-2.59,1.12-.66.75-.99,1.72-.99,2.92s.33,2.17.99,2.91,1.52,1.11,2.59,1.11c.84,0,1.57-.27,2.2-.81.63-.54,1.03-1.25,1.22-2.12h6.2c-.19,1.66-.72,3.13-1.58,4.4-.87,1.27-2,2.26-3.4,2.97s-2.96,1.07-4.67,1.07c-1.9,0-3.61-.41-5.12-1.23Z"/>
      <path class="cls-1" d="M130.14,51.98v18.01h-6.07v-6.38h-4.22v6.38h-6.07v-18.01h6.07v6.1h4.22v-6.1h6.07Z"/>
    </g>
  </g>
</svg>