<?xml version="1.0" encoding="UTF-8"?>
<svg id="Layer_2" data-name="Layer 2" xmlns="http://www.w3.org/2000/svg" viewBox="0 0 224.39 48.72">
  <defs>
    <style>
      .cls-1 {
        fill: #f6f9fd;
      }
    </style>
  </defs>
  <g id="Layer_1-2" data-name="Layer 1">
    <g>
      <path class="cls-1" d="M17.14,6.24h-5.29v13.92h-6.55V6.24H0V.56h17.14v5.68Z"/>
      <path class="cls-1" d="M26.91,14.84h-1.34v5.32h-6.5V.56h9.16c1.51,0,2.86.31,4.03.92,1.18.62,2.09,1.49,2.74,2.62.65,1.13.98,2.42.98,3.88,0,1.12-.23,2.13-.7,3.04-.47.91-1.14,1.67-2.02,2.28l3.42,6.86h-7.25l-2.52-5.32ZM25.56,9.86h1.6c.63,0,1.14-.18,1.51-.53.37-.35.56-.8.56-1.34s-.19-.98-.56-1.33c-.37-.35-.88-.52-1.51-.52h-1.6v3.72Z"/>
      <path class="cls-1" d="M50.79,17.44h-6.24l-.87,2.72h-7.03L44.46.56h6.55l7.87,19.6h-7.25l-.84-2.72ZM47.68,7.48l-1.9,5.4h3.81l-1.9-5.4Z"/>
      <path class="cls-1" d="M78.6.56v19.6h-5.32l-6.92-9.27v9.27h-6.22V.56h5.52l6.72,8.88V.56h6.22Z"/>
      <path class="cls-1" d="M83,18.93c-1.45-1.19-2.17-2.86-2.17-4.98h6.86c0,.43.12.77.36,1.01.24.24.57.36.98.36.37,0,.68-.1.91-.29.23-.2.35-.46.35-.8,0-.47-.22-.81-.67-1.02-.45-.21-1.2-.46-2.27-.74-1.27-.32-2.32-.66-3.16-1.02-.84-.36-1.57-.96-2.18-1.79-.62-.83-.92-1.97-.92-3.43,0-1.94.69-3.46,2.06-4.56,1.37-1.1,3.29-1.65,5.75-1.65s4.32.57,5.67,1.69c1.35,1.13,2.03,2.69,2.03,4.69h-6.61c0-.37-.09-.66-.28-.87-.19-.21-.46-.31-.81-.31s-.6.08-.78.24c-.19.16-.28.38-.28.66,0,.43.23.76.69.98.46.22,1.22.48,2.28.76,1.31.34,2.39.7,3.26,1.08.87.38,1.62.99,2.27,1.82.64.83.97,1.94.97,3.32,0,2.09-.73,3.72-2.18,4.9s-3.48,1.76-6.08,1.76-4.59-.6-6.03-1.79Z"/>
      <path class="cls-1" d="M118.61,20.16l-1.15-9.88-4.56,9.88h-2.24l-4.56-9.88-1.09,9.88h-6.55l2.88-19.6h6.44l4,9.44,4.03-9.44h6.44l2.86,19.6h-6.5Z"/>
      <path class="cls-1" d="M127.15.56h6.66v19.6h-6.66V.56Z"/>
      <path class="cls-1" d="M138.22,18.93c-1.45-1.19-2.17-2.86-2.17-4.98h6.86c0,.43.12.77.36,1.01s.57.36.98.36c.37,0,.68-.1.91-.29.23-.2.35-.46.35-.8,0-.47-.22-.81-.67-1.02s-1.2-.46-2.27-.74c-1.27-.32-2.32-.66-3.16-1.02-.84-.36-1.57-.96-2.18-1.79-.62-.83-.92-1.97-.92-3.43,0-1.94.69-3.46,2.06-4.56,1.37-1.1,3.29-1.65,5.75-1.65s4.32.57,5.67,1.69c1.35,1.13,2.03,2.69,2.03,4.69h-6.61c0-.37-.09-.66-.28-.87-.19-.21-.46-.31-.81-.31s-.6.08-.78.24c-.19.16-.28.38-.28.66,0,.43.23.76.69.98.46.22,1.22.48,2.28.76,1.31.34,2.39.7,3.26,1.08.87.38,1.62.99,2.27,1.82.64.83.96,1.94.96,3.32,0,2.09-.73,3.72-2.18,4.9-1.46,1.18-3.48,1.76-6.08,1.76s-4.59-.6-6.03-1.79Z"/>
      <path class="cls-1" d="M156.03,18.93c-1.45-1.19-2.17-2.86-2.17-4.98h6.86c0,.43.12.77.36,1.01.24.24.57.36.98.36.37,0,.68-.1.91-.29.23-.2.35-.46.35-.8,0-.47-.22-.81-.67-1.02s-1.2-.46-2.27-.74c-1.27-.32-2.32-.66-3.16-1.02-.84-.36-1.57-.96-2.18-1.79-.62-.83-.92-1.97-.92-3.43,0-1.94.69-3.46,2.06-4.56s3.29-1.65,5.75-1.65,4.32.57,5.67,1.69c1.35,1.13,2.03,2.69,2.03,4.69h-6.61c0-.37-.09-.66-.28-.87-.19-.21-.46-.31-.81-.31-.34,0-.6.08-.78.24-.19.16-.28.38-.28.66,0,.43.23.76.69.98.46.22,1.22.48,2.28.76,1.31.34,2.39.7,3.26,1.08.87.38,1.62.99,2.27,1.82.64.83.97,1.94.97,3.32,0,2.09-.73,3.72-2.18,4.9-1.46,1.18-3.48,1.76-6.08,1.76s-4.59-.6-6.03-1.79Z"/>
      <path class="cls-1" d="M172.51.56h6.66v19.6h-6.66V.56Z"/>
      <path class="cls-1" d="M186.69,19.43c-1.69-.86-3-2.07-3.93-3.64-.93-1.57-1.4-3.38-1.4-5.43s.47-3.86,1.4-5.43c.93-1.57,2.24-2.78,3.93-3.64s3.64-1.29,5.87-1.29,4.18.43,5.87,1.29,3,2.07,3.93,3.64c.93,1.57,1.4,3.38,1.4,5.43s-.47,3.86-1.4,5.43c-.93,1.57-2.24,2.78-3.93,3.64s-3.64,1.29-5.87,1.29-4.18-.43-5.87-1.29ZM195.63,13.52c.78-.8,1.18-1.86,1.18-3.16s-.39-2.36-1.18-3.16-1.81-1.2-3.08-1.2-2.3.4-3.08,1.2c-.78.8-1.18,1.86-1.18,3.16s.39,2.36,1.18,3.16c.78.8,1.81,1.2,3.08,1.2s2.3-.4,3.08-1.2Z"/>
      <path class="cls-1" d="M224.39.56v19.6h-5.32l-6.92-9.27v9.27h-6.22V.56h5.52l6.72,8.88V.56h6.22Z"/>
      <path class="cls-1" d="M68.08,47.38c-1.64-.9-2.93-2.13-3.85-3.7-.92-1.57-1.39-3.34-1.39-5.32s.46-3.75,1.39-5.32,2.21-2.8,3.85-3.7c1.64-.9,3.5-1.34,5.57-1.34,1.83,0,3.5.37,5,1.12,1.5.75,2.73,1.79,3.68,3.12.95,1.33,1.54,2.88,1.76,4.63h-6.66c-.28-.88-.76-1.58-1.44-2.11-.68-.53-1.45-.8-2.31-.8-1.16,0-2.1.41-2.81,1.22-.72.81-1.08,1.87-1.08,3.18s.36,2.36,1.08,3.16c.72.8,1.66,1.2,2.81,1.2.91,0,1.71-.29,2.39-.88.68-.59,1.12-1.36,1.33-2.31h6.75c-.21,1.81-.78,3.41-1.72,4.79-.94,1.38-2.17,2.46-3.7,3.23s-3.22,1.16-5.08,1.16c-2.07,0-3.93-.45-5.57-1.34Z"/>
      <path class="cls-1" d="M99.41,42.28v5.88h-13.19v-19.6h6.66v13.72h6.52Z"/>
      <path class="cls-1" d="M101.37,28.56h6.66v19.6h-6.66v-19.6Z"/>
      <path class="cls-1" d="M129.57,28.56v19.6h-5.32l-6.92-9.27v9.27h-6.22v-19.6h5.52l6.72,8.88v-8.88h6.22Z"/>
      <path class="cls-1" d="M132.65,28.56h6.66v19.6h-6.66v-19.6Z"/>
      <path class="cls-1" d="M146.7,47.38c-1.64-.9-2.93-2.13-3.85-3.7-.92-1.57-1.39-3.34-1.39-5.32s.46-3.75,1.39-5.32,2.21-2.8,3.85-3.7c1.64-.9,3.5-1.34,5.57-1.34,1.83,0,3.5.37,5,1.12,1.5.75,2.73,1.79,3.68,3.12.95,1.33,1.54,2.88,1.77,4.63h-6.66c-.28-.88-.76-1.58-1.44-2.11-.68-.53-1.45-.8-2.31-.8-1.16,0-2.1.41-2.81,1.22-.72.81-1.08,1.87-1.08,3.18s.36,2.36,1.08,3.16c.72.8,1.66,1.2,2.81,1.2.91,0,1.71-.29,2.39-.88.68-.59,1.12-1.36,1.33-2.31h6.75c-.21,1.81-.78,3.41-1.72,4.79-.94,1.38-2.18,2.46-3.7,3.23s-3.21,1.16-5.08,1.16c-2.07,0-3.93-.45-5.57-1.34Z"/>
    </g>
  </g>
</svg>