<?xml version="1.0" encoding="UTF-8"?>
<svg id="Layer_1" data-name="Layer 1" xmlns="http://www.w3.org/2000/svg" viewBox="0 0 496 496">
  <defs>
    <style>
      .cls-1 {
        fill: #0671d8;
        stroke-width: 0px;
      }
    </style>
  </defs>
  <path class="cls-1" d="M64,0C28.65,0,0,28.65,0,64v368c0,35.35,28.65,64,64,64h368c35.35,0,64-28.65,64-64V64c0-35.35-28.65-64-64-64H64ZM64,32h368c17.67,0,32,14.33,32,32v368c0,17.67-14.33,32-32,32H64c-17.67,0-32-14.33-32-32V64c0-17.67,14.33-32,32-32Z"/>
  <path class="cls-1" d="M224,336v32h176v-32h-176Z"/>
  <path class="cls-1" d="M224,128v172h36v-140h36v140h36v-140h24c6.63,0,12,5.37,12,12v128h36v-132c0-22.09-17.91-40-40-40h-140Z"/>
  <path class="cls-1" d="M132,128c-22.09,0-40,17.91-40,40v92c0,22.09,17.91,40,40,40h32v8c0,15.46-14.33,28-32,28h-20v32h20c37.56,0,68-26.86,68-60V128h-68ZM140,160h24v108h-24c-6.63,0-12-5.37-12-12v-84c0-6.63,5.37-12,12-12Z"/>
</svg>