<?xml version="1.0" encoding="UTF-8"?>
<svg id="Layer_1" xmlns="http://www.w3.org/2000/svg" version="1.1" viewBox="0 0 384 384">
  <!-- Generator: Adobe Illustrator 30.0.0, SVG Export Plug-In . SVG Version: 2.1.1 Build 123)  -->
  <defs>
    <style>
      .st0 {
        fill: #efb821;
      }
    </style>
  </defs>
  <g id="Layer_2">
    <path class="st0" d="M324.73,26.69H59.27l-11.65,11.65v334.91l10.75,10.75h266.35l11.65-11.65V38.33c-4.55-4.55-7.1-7.1-11.65-11.65ZM299.46,199.44l-58.13,60.46-12.4-11.95s.03-.02.04-.03h.01c1.22-.83,2.38-1.7,3.5-2.6.95-.76,1.86-1.55,2.73-2.36h.01c.87-.82,1.7-1.63,2.51-2.48.54-.57,1.04-1.15,1.54-1.74.43-.49.84-1,1.22-1.51.04-.06.09-.12.13-.17.1-.12.19-.25.28-.37.08-.1.15-.18.22-.28l30.18-31.38.09-.1,4.86-5.05-36.83-35.32-8.28,8.6-9.13,9.51-6.22,6.47-11.73,12.21,4.91,4.71.06-.06,15.21,14.59c.23-.23.44-.45.67-.69h0c.43-.47.84-.95,1.25-1.43.4-.48.79-.99,1.14-1.49.18-.25.35-.51.53-.76.17-.25.33-.51.49-.76.16-.26.32-.53.47-.79s.31-.53.44-.8c.02-.03.04-.06.05-.1.13-.23.25-.46.35-.7.24-.48.46-.97.67-1.45.04-.09.08-.17.11-.27.1-.22.17-.43.25-.65.02-.04.04-.1.05-.14h0c.02-.05.03-.1.05-.14.08-.22.15-.44.23-.67.09-.28.17-.56.26-.84.08-.29.15-.57.23-.86-.27-1.06-.6-2.11-1-3.14.42,1.03.75,2.08,1.01,3.14.43-1.77.67-3.57.67-5.42,0-.37-.01-.73-.02-1.1-.02-.32-.04-.63-.08-.95-.02-.27-.05-.53-.09-.8-.01-.16-.03-.32-.06-.47-.03-.25-.08-.48-.12-.73-.05-.3-.12-.59-.18-.89-.01-.08-.03-.16-.05-.24-.06-.28-.13-.56-.22-.84-.09-.32-.18-.65-.28-.96-.11-.32-.22-.65-.33-.96s-.24-.63-.37-.95c-.9-2.16-2.12-4.24-3.61-6.18l.02-.02,9.61-9.99c7.29,7.19,11.7,16.06,12,25.67v.11c.01.16.01.33.01.51.01.16.01.32.01.43h-.01c0,.97-.04,1.94-.13,2.88-.08.86-.19,1.71-.33,2.55-1.34,8.18-5.69,15.69-12.2,21.9-1.94,1.85-4.07,3.58-6.37,5.18-1.15.81-2.34,1.57-3.57,2.3-1.24.73-2.51,1.43-3.82,2.1-2.26,1.14-4.62,2.17-7.09,3.08-8.12,3-17.28,4.69-26.98,4.69s-18.54-1.63-26.55-4.54c-.45-.16-.9-.33-1.36-.51-.9-.34-1.79-.71-2.66-1.09-1.74-.75-3.43-1.57-5.05-2.45-.41-.22-.81-.44-1.2-.67-5.87-3.33-10.88-7.44-14.77-12.12-1.48-1.77-2.8-3.65-3.93-5.58-2.26-3.85-3.81-7.97-4.52-12.29-.29-1.77-.46-3.59-.46-5.43,0-.61.02-1.23.05-1.83.32-6.05,2.29-11.78,5.56-16.97l11.41,11.28c-.09.32-.17.66-.25.99-.1.42-.17.85-.25,1.28-.1.59-.17,1.18-.22,1.79-.05.59-.08,1.2-.08,1.81,0,1.85.24,3.67.67,5.43.65,2.61,1.73,5.12,3.22,7.46,1.2,1.91,2.66,3.72,4.34,5.4,1.32,1.32,2.8,2.57,4.39,3.72-1.74-1.34-3.37-2.8-4.88-4.31-.01-.01-.02-.02-.03-.03l12.82-5.87,4.96-2.28.34-.16-41.58-38.66-1.13,5.98h.01s-9.44,49.15-9.44,49.15v.04s-1.53,7.9-1.53,7.9l1.86-.8,13.16-5.67v.02l.05-.02c1.03,2.16,2.22,4.19,3.59,6.13.28.4.57.8.87,1.18.45.58.91,1.15,1.4,1.72.17.19.34.4.53.6.23.26.46.52.71.77.24.27.48.53.75.79.77.79,1.59,1.56,2.46,2.32l-.04.02-46.25,20.3h0s-.03.01-.03.01l21.9-122.65h.03v.02l31.22,29.55c10.66-6.9,24.6-11.1,39.89-11.1,10.26,0,19.92,1.89,28.39,5.23l-9.08,9.44c-5.84-2.02-12.39-3.15-19.31-3.15-3.68,0-7.26.32-10.68.92-.68.12-1.36.25-2.03.4-2.01.43-3.96.96-5.84,1.57-1.26.41-2.47.86-3.66,1.36-1.19.49-2.33,1.03-3.45,1.59-1.66.84-3.24,1.76-4.71,2.75l.03.03,7.24,6.86.03.02,16.03,15.17h.01l17.94-18.76,8.36-8.69,9.08-9.44,22.68-23.58,60.54,58.06h.02s-.02.03-.02.03Z"/>
    <path class="st0" d="M210.06,229.91c-1.18.48-2.4.94-3.65,1.34-1.28.43-2.6.81-3.95,1.14-4.56,1.13-9.46,1.75-14.57,1.75-6.29,0-12.27-.94-17.69-2.62-.38-.12-.75-.24-1.13-.38l21.89-9.81.05-.02-10.12-9.69h-.01v-9.78l18.08,17.42h0s11.1,10.64,11.1,10.64Z"/>
  </g>
  <rect class="st0" x="18.36" width="347.28" height="19.05"/>
</svg>