<?xml version="1.0" encoding="UTF-8"?>
<svg id="Layer_1" xmlns="http://www.w3.org/2000/svg" version="1.1" viewBox="0 0 16 16">
  <!-- Generator: Adobe Illustrator 30.3.0, SVG Export Plug-In . SVG Version: 2.1.3 Build 182)  -->
  <defs>
    <style>
      .st0 {
        fill: #f6f9fd;
      }
    </style>
  </defs>
  <path class="st0" d="M12,8c0,2.2-1.8,4-4,4s-4-1.8-4-4,1.8-4,4-4,4,1.8,4,4M8,0c.3,0,.5.2.5.5v2c0,.3-.2.5-.5.5s-.5-.2-.5-.5V.5c0-.3.2-.5.5-.5M8,13c.3,0,.5.2.5.5v2c0,.3-.2.5-.5.5s-.5-.2-.5-.5v-2c0-.3.2-.5.5-.5M16,8c0,.3-.2.5-.5.5h-2c-.3,0-.5-.2-.5-.5s.2-.5.5-.5h2c.3,0,.5.2.5.5M3,8c0,.3-.2.5-.5.5H.5c-.3,0-.5-.2-.5-.5s.2-.5.5-.5h2c.3,0,.5.2.5.5M13.7,2.3c.2.2.2.5,0,.7l-1.4,1.4c-.2.2-.5.2-.7,0-.2-.2-.2-.5,0-.7l1.4-1.4c.2-.2.5-.2.7,0M4.5,11.5c.2.2.2.5,0,.7l-1.4,1.4c-.2.2-.5.2-.7,0-.2-.2-.2-.5,0-.7l1.4-1.4c.2-.2.5-.2.7,0M13.7,13.7c-.2.2-.5.2-.7,0l-1.4-1.4c-.2-.2-.2-.5,0-.7.2-.2.5-.2.7,0l1.4,1.4c.2.2.2.5,0,.7M4.5,4.5c-.2.2-.5.2-.7,0l-1.4-1.4c-.2-.2-.2-.5,0-.7.2-.2.5-.2.7,0,0,0,0,0,0,0l1.4,1.4c.2.2.2.5,0,.7,0,0,0,0,0,0"/>
</svg>