<?xml version="1.0" encoding="UTF-8"?>
<svg id="Layer_1" xmlns="http://www.w3.org/2000/svg" version="1.1" viewBox="0 0 16 16">
  <!-- Generator: Adobe Illustrator 30.3.0, SVG Export Plug-In . SVG Version: 2.1.3 Build 182)  -->
  <defs>
    <style>
      .st0 {
        fill: #f6f9fd;
      }
    </style>
  </defs>
  <path class="st0" d="M7,14s-1,0-1-1,1-4,5-4,5,3,5,4-1,1-1,1H7ZM11,8c1.7,0,3-1.3,3-3s-1.3-3-3-3-3,1.3-3,3,1.3,3,3,3M5.2,14c-.1-.3-.2-.7-.2-1,0-1.4.7-2.8,1.9-3.7-.6-.2-1.3-.3-1.9-.3C1,9,0,12,0,13s1,1,1,1h4.2ZM4.5,8c1.4,0,2.5-1.1,2.5-2.5s-1.1-2.5-2.5-2.5-2.5,1.1-2.5,2.5,1.1,2.5,2.5,2.5"/>
</svg>