<?xml version="1.0" encoding="UTF-8"?>
<svg id="Layer_1" xmlns="http://www.w3.org/2000/svg" version="1.1" viewBox="0 0 16 16">
  <!-- Generator: Adobe Illustrator 30.2.1, SVG Export Plug-In . SVG Version: 2.1.1 Build 1)  -->
  <path d="M2,1.5c0-.28.22-.5.5-.5h11c.28,0,.5.22.5.5s-.22.5-.5.5h-1v1c0,1.73-.99,3.31-2.56,4.06-.29.14-.44.38-.44.59v.7c0,.21.15.45.44.59,1.56.75,2.56,2.33,2.56,4.06v1h1c.28,0,.5.22.5.5s-.22.5-.5.5H2.5c-.28,0-.5-.22-.5-.5s.22-.5.5-.5h1v-1c0-1.73.99-3.31,2.56-4.06.29-.14.44-.38.44-.59v-.7c0-.21-.15-.45-.44-.59-1.56-.75-2.56-2.33-2.56-4.06v-1h-1c-.28,0-.5-.22-.5-.5M4.5,2v1c0,1.35.77,2.58,1.99,3.16.53.26,1.01.79,1.01,1.49v.7s.18.15.5.15.5-.15.5-.15v-.7c0-.7.48-1.24,1.01-1.49,1.22-.58,1.99-1.81,1.99-3.16v-1h-7Z" fill="#f6f9fd"/>
</svg>