<?xml version="1.0" encoding="UTF-8"?>
<svg id="Layer_1" xmlns="http://www.w3.org/2000/svg" version="1.1" viewBox="0 0 16 16">
  <!-- Generator: Adobe Illustrator 30.2.1, SVG Export Plug-In . SVG Version: 2.1.1 Build 1)  -->
  <path d="M8.71,1.5c-.39-.39-1.02-.39-1.41,0L.65,8.15c-.2.2-.2.51,0,.71.2.2.51.2.71,0h0l6.65-6.65,6.65,6.65c.2.2.51.2.71,0s.2-.51,0-.71l-2.35-2.35v-3.29c0-.28-.22-.5-.5-.5h-1c-.28,0-.5.22-.5.5v1.29l-2.29-2.29Z" fill="#f6f9fd"/>
  <path d="M8,3.29l6,6v4.21c0,.83-.67,1.5-1.5,1.5H3.5c-.83,0-1.5-.67-1.5-1.5v-4.21l6-6Z" fill="#f6f9fd"/>
</svg>