<?xml version="1.0" encoding="UTF-8"?>
<svg id="Layer_1" xmlns="http://www.w3.org/2000/svg" version="1.1" viewBox="0 0 16 16">
  <!-- Generator: Adobe Illustrator 30.2.1, SVG Export Plug-In . SVG Version: 2.1.1 Build 1)  -->
  <path d="M2.5,12c0-.28.22-.5.5-.5h10c.28,0,.5.22.5.5s-.22.5-.5.5H3c-.28,0-.5-.22-.5-.5M2.5,8c0-.28.22-.5.5-.5h10c.28,0,.5.22.5.5s-.22.5-.5.5H3c-.28,0-.5-.22-.5-.5M2.5,4c0-.28.22-.5.5-.5h10c.28,0,.5.22.5.5s-.22.5-.5.5H3c-.28,0-.5-.22-.5-.5" fill="#f6f9fd" fill-rule="evenodd"/>
</svg>