<?xml version="1.0" encoding="UTF-8"?>
<svg id="Layer_2" data-name="Layer 2" xmlns="http://www.w3.org/2000/svg" viewBox="0 0 182.33 97.06">
  <defs>
    <style>
      .cls-1 {
        fill: #f6f9fd;
      }
    </style>
  </defs>
  <g id="Layer_1-2" data-name="Layer 1">
    <g>
      <polygon class="cls-1" points="10.2 67.01 29.79 67.01 50.8 29.61 70.12 67.13 88.34 67.13 50.8 .38 10.2 67.01"/>
      <path class="cls-1" d="M66.46.15l7.77,13.27,24.47.23s9.68.38,9.91,9.56c.23,9.11-4.95,11.7-10.44,11.55.08.08-12.65.08-12.65.08l6.94,12.35,6.78-.08,10.98,19.9h15.7l-12.88-23.25s12.96-5.03,11.13-22.57c.08-.08.38-18.3-21.04-20.43-.08,0-36.67-.61-36.67-.61Z"/>
      <polygon class="cls-1" points="174.38 67.08 156.88 67.08 124.09 0 142.69 0 174.38 67.08"/>
      <g>
        <polyline class="cls-1" points="7.86 86.15 13.42 96.69 15.74 96.69 9.05 84.29 6.71 84.29 0 96.69 2.3 96.69"/>
        <path class="cls-1" d="M38.36,92.99l1.97.97c-1.17,1.81-3.43,3.1-6.57,3.1-4.64,0-7.56-2.5-7.56-6.57s2.92-6.57,7.65-6.57c3.05,0,5.31,1.31,6.46,3.08l-1.98.99c-.92-1.52-2.5-2.19-4.52-2.19-3.28,0-5.45,1.59-5.45,4.69s2.18,4.69,5.45,4.69c2.02,0,3.62-.66,4.55-2.19Z"/>
        <path class="cls-1" d="M65.65,92.99l1.97.97c-1.17,1.81-3.43,3.1-6.57,3.1-4.64,0-7.56-2.5-7.56-6.57s2.92-6.57,7.65-6.57c3.05,0,5.31,1.31,6.46,3.08l-1.98.99c-.92-1.52-2.5-2.19-4.52-2.19-3.28,0-5.45,1.59-5.45,4.69s2.18,4.69,5.45,4.69c2.02,0,3.61-.66,4.55-2.19Z"/>
        <path class="cls-1" d="M94.28,84.29v6.55c.45,3.78-2.35,6.22-6.75,6.22s-7.08-2.18-6.73-6.22v-6.55h2.12v6.41c-.08,3.47,1.45,4.12,4.41,4.12s5.14-.35,4.81-4.12v-6.41h2.12Z"/>
        <path class="cls-1" d="M113.21,91.81c2.16-.39,3.38-1.43,3.38-3.57,0-2.57-2.12-3.95-5.01-3.95h-5.55l.94,1.86h4.46c1.77,0,2.97.57,2.97,2.11s-1.2,1.84-2.97,1.84h-2.19l.72,1.95.9.06,3.21,4.58h2.62l-3.49-4.87Z"/>
        <path class="cls-1" d="M128.34,96.69v-12.39h2.12v12.39h-2.12Z"/>
        <path class="cls-1" d="M156.63,86.15h-5.65v10.54h-2.12v-10.54h-5.61v-1.86h13.39v1.86Z"/>
        <path class="cls-1" d="M182.33,94.83v1.86h-12.88v-12.39h12.43v1.86h-10.33v3.31h7.12v1.86h-7.12v3.5s10.78,0,10.78,0Z"/>
        <polygon class="cls-1" points="105.66 91.93 99.48 91.93 98.67 90.08 104.59 90.08 105.66 91.93"/>
      </g>
    </g>
  </g>
</svg>