<?xml version="1.0" encoding="UTF-8"?>
<svg id="Layer_1" xmlns="http://www.w3.org/2000/svg" version="1.1" viewBox="0 0 198.5 114">
  <!-- Generator: Adobe Illustrator 30.0.0, SVG Export Plug-In . SVG Version: 2.1.1 Build 123)  -->
  <defs>
    <style>
      .st0 {
        fill: #f6f9fd;
      }
    </style>
  </defs>
  <path class="st0" d="M15.5,114c12.14-10.58,29.29-18.32,44.48-24.02,38.03-14.27,78.09-18.53,118.52-15.98-2.6,13.27-3.87,28.25-16.48,36.02-1.83,1.13-7.26,3.98-9.02,3.98,0,0-137.5,0-137.5,0Z"/>
  <path class="st0" d="M37.5,51l4.48-19.02c2.92-1.65,9.77-2.39,9.34,2.25-.14,1.56-3.71,13.84-4.36,14.73-1.93,2.63-6.54,2.06-9.45,2.04h0Z"/>
  <path class="st0" d="M198.5,0v2l-19.06,70.97-40.94-2.97,12-44.99h-21c-1.33,11.93-9.88,28.56-10.47,39.87-.14,2.76,1.23,4,2.47,6.12-41.95,2.86-88.62,12.53-121.5,40.01l10.64-40.87,20.93-.57,4.6-13.61c6.71-1.11,21.73,1.87,27.32-.48,4.06-1.7,9.41-20.17,9.54-24.38.06-1.96-1.42-3.21-1.52-5.1H23.5C23.73,13.2,33.58,2.34,46.09.08l152.42-.08h0ZM131.51,19l14.97-7.5-9.49-10.5-5.49,17.99h.01ZM125.5,26h-48l-1,4.99h12.99l-9.99,40,20.78-1.21,10.31-38.7,13.29-.04,1.62-5.06v.02Z"/>
</svg>