<?xml version="1.0" encoding="UTF-8"?>
<svg id="Layer_2" data-name="Layer 2" xmlns="http://www.w3.org/2000/svg" viewBox="0 0 102.19 82.93">
  <defs>
    <style>
      .cls-1 {
        fill: #fdfdfe;
      }
    </style>
  </defs>
  <g id="Layer_1-2" data-name="Layer 1">
    <path class="cls-1" d="M0,34.71V0h11.91c0,2.61,0,5.23,0,7.84.02,8.61-.14,17.25,0,25.85,0,.23-.09.6.15.73.71,10.34,16.56,9.73,16.71-.65,0-8.6-.02-17.19,0-25.79,0-2.66,0-5.33,0-7.99h11.91c0,2.37,0,4.75,0,7.12.02,8-.54,17.05,0,24.91.02.32.13.62.15.94,1.25-.52,2.34-1.31,3.58-1.87,9.58-4.33,20.84-2.53,28.67,4.41,3.8,3.36,6.89,8.11,12.81,6.57,3.31-.86,5.75-4.41,3.31-7.43-2.57-3.17-13.61-4.55-18.14-7.42-9.29-5.9-8.71-18.49.42-24.17,4.18-2.6,9.22-3.42,14.09-2.9,8.48.9,15.18,6.59,14.96,15.54h-11.91c-.15-4.1-3.02-5.83-6.9-5.52-5.08.41-7.59,6.56-2.05,9.04,7.81,3.49,20.29,3.82,22.25,14.64,3.01,16.58-18.01,22.5-29.95,16.01-6.04-3.28-6.71-9.22-14.93-9.76-13.73-.9-20.75,14.54-13.3,25.28,5.23,7.54,16.44,8.67,22.65,1.67.31-.35,1.37-2.02,1.48-2.08.06-.04.12-.05.19-.02l9.23,6.26c-2.08,3.45-5.53,6.49-9.05,8.44-14.25,7.92-32.25,1.01-37.86-14.11-1.18-3.19-1.59-6.71-1.75-10.1l.29-3.84c-10.95,4.67-24.97-.41-28.25-12.35-.39-1.41-.53-2.63-.65-4.07,0-.05,0-.1,0-.15,0-.1,0-.19,0-.29Z"/>
  </g>
</svg>