<?xml version="1.0" encoding="UTF-8"?>
<svg id="Layer_1" xmlns="http://www.w3.org/2000/svg" baseProfile="tiny" version="1.2" viewBox="0 0 580 97.04">
  <!-- Generator: Adobe Illustrator 30.1.0, SVG Export Plug-In . SVG Version: 2.1.1 Build 136)  -->
  <path d="M80.22,93.85l-4.77-68.63-16.3,68.38c-7.05.69-13.76.5-21,.15L21.68,26.84l-4.55,66.78c-5.46.58-10.65.62-16.66,0L5.87,1.25c9.18-.98,18.01-.36,27.83-.3l15.2,67.41L64,1.21c9.11-.81,17.99-.47,27.88-.2l5.64,92.3c-5.39,1.27-10.44.58-17.3.53Z" fill="#f6f9fd"/>
  <path d="M296.5,94.21c-7.98,1.75-16.37,2.07-24.02-1.35-7.24-3.24-10.7-10.68-10.8-18.48l-.42-34.13-17.86.04c.22,12.46-.53,24.18.33,36.42.26,3.72,5.53,4.29,8.63,3.87,1.12,4.52.62,8.72.44,13.59-10.67,1.79-18.48,1.38-24.92-9.09-6.99,8.24-15.36,11.28-25.55,10.19-8.15-.88-16.97-5.6-22-14.15-10.62-18.06-5.97-47.66,16.07-54.65,10.65-3.38,19.84-1.24,29.22,5.52l.84-30.83c5.87-.57,11.18-.58,16.69-.03l.43,24.63c5.95.87,11.53.69,17.53.08l.54-14.92c5.38-.96,11.11-.64,16.77-.19l.74,15.12,17.21.78c.3,4.91.29,8.94.1,13.48l-17.52.17-.16,31.58c-.03,5.43,3.84,9.56,9.06,9.16l8.27-.65c.8,4.25.41,7.95.4,13.86ZM224.03,72.74c4.28-8.03,4.1-17.42.18-24.92-2.99-5.72-8.61-8.32-14.2-8.36s-10.94,1.76-14.08,7.11c-4.75,8.09-4.72,18.73-.13,26.92,2.98,5.31,8.72,7.55,14.15,7.45s11-2.42,14.09-8.21Z" fill="#f6f9fd"/>
  <path d="M120.37,68.78c2.29,17.17,32.82,13.74,44.51,6,1.7,4.35.98,9.07.44,14.1-11.32,6.91-24.9,7.96-37.81,5.18-17.25-3.73-26.13-18.39-25.34-35.42.93-20.12,15.31-34.81,35.83-33.7,12.25.67,23.24,6.96,27.99,18.76,3.17,7.88,3.82,16.47,1.9,24.77l-47.53.31ZM152.46,54.63c-.52-10.04-7.29-15.32-15.72-15.1-9.3-.67-16.6,5.82-17.21,15.36l32.93-.26Z" fill="#f6f9fd"/>
  <path d="M414.61,60.22c0,19.74-16,35.73-35.73,35.73s-35.73-16-35.73-35.73,16-35.73,35.73-35.73,35.73,16,35.73,35.73ZM397.03,59.31c-.39-12.24-8.33-20.21-19.31-19.57-10.4.61-16.85,9.3-17,20.18-.15,11.63,6.94,20.83,18.32,20.83s18.38-9.1,17.99-21.43Z" fill="#f6f9fd"/>
  <path d="M440.68,51.83l-.73,41.8c-5.52.57-10.78.58-16.85.02l.08-67.32,15.75-.06,1.29,8.37c6.82-9.43,17.46-11.66,28.16-8.27,9.01,2.86,16.82,12.07,16.94,23.06l.48,43.88c-5.66,1.23-11.05.8-16.8.2l-.26-38.81c-.05-8.18-4.31-14.49-11.71-15.22-7.43-.74-16.18,3.08-16.35,12.34Z" fill="#f6f9fd"/>
  <path d="M551.8,77.28c8.77,5.92,18.82,2.85,27.43-.97,1.12,4.85.8,9.54.36,15.06-13.14,6.15-29.57,5.98-41.38-3.92-16.38-13.73-16.55-40.23-.36-54.14,11.79-10.13,28.17-10.53,41.63-4.31.68,5.4.64,10.22,0,15.21-9.29-4.14-19.15-6.89-27.77-1.05-11.01,7.46-11.48,26.33.08,34.13Z" fill="#f6f9fd"/>
  <path d="M343.3,41.9c-2.81.42-5.44-.15-8.52.03-7.82.45-13.63,6.18-13.68,14.04l-.24,37.56c-5.75.71-11.2.72-17.03,0l-.02-66.74c5.18-1.09,10.39-.51,15.94-.47l1.22,9.04c4.71-8.33,13.18-12.07,22.15-8.64.62,4.86.39,9.34.19,15.18Z" fill="#f6f9fd"/>
  <path d="M523.98,80.52c1.34,4.29.87,8.63.42,13.42-6.44,1.71-13.12,1.7-19.25-1.27-5.77-2.8-8.71-9.05-8.72-15.56l-.09-50.44c5.49-.9,10.64-.36,16.88-.36l.3,47.66c.01,2.23.83,4.27,2.1,5.41,1.69,1.51,3.8,1.91,8.36,1.14Z" fill="#f6f9fd"/>
  <circle cx="505.3" cy="10.09" r="10.09" fill="#f6f9fd"/>
</svg>