<?xml version="1.0" encoding="UTF-8"?>
<svg id="Layer_1" xmlns="http://www.w3.org/2000/svg" version="1.1" viewBox="0 0 1333.15 313.13">
  <!-- Generator: Adobe Illustrator 30.1.0, SVG Export Plug-In . SVG Version: 2.1.1 Build 136)  -->
  <g>
    <path d="M719.36,301.82l-4.3,9.46c-2.24.43-6.38,1.57-8.98,1.57l-57.17.05c-2.55,0-6.96-1.04-8.76-1.59l-3.01-7.45-15.88-35.95-9.05-20.07-9.26,22.06-7.13,16.78c-3.67,8.64-7.37,17.88-11.54,25.88l-11.33.14-52.94.13c-3.24,0-6.42-.59-9.87-1.02l-21.36-50.38-14.42-32.87c-2.06-4.69-3.43-9.6-5.63-14.26-5.73-12.16-10.15-24.29-15.51-36.63l-3.86-8.87-5.2-11.87c2.89-.24,6.78-.95,9.85-.95h60.96c3.28,0,6.75.69,10.14.91l20.42,46.51,6.89,16.21,26.11-63.5,64.84-.24c2.06,5.6,4.11,10.1,6.39,15.16l22.68,50.44,4.83-10.51,9.9-23.2,9.8-23.87c1.16-2.82,2.35-5.55,4.24-8.05l68.68.19,9.78.43c-1.91,5.38-3.28,9.61-5.17,14.14l-42.8,102.84-12.37,28.37ZM774.87,165.41l3.82-7.83-8.77.23-68.56.15-5.32,12.14-2.95,7.11-6.59,15.23-6.35,15.02-7.43,18.8-21.61-48.38-8.28-19.93-63.71-.14-4.21,10.16-5.23,12.86c-5.65,13.88-8.22,22.43-14.41,36.37l-2.94,6.62c.05-4.03-2.91-7.55-4.69-11.61l-21.32-48.57c-.79-1.8-.88-5.08-2.31-5.56-1.52-.51-4.23-.25-6.1-.25l-71.97.11,3.71,8.42,3.32-.21c-1.07,1.53-2.07,2.49-1.82,3.12l.92,2.3,3.85,9.18,18.49,43.59,15.54,37.19,5.5,11.86,12.13,28.78c1.22,2.9,2.27,5.79,3.74,8.75l69.24-.04c1.16,0,2.86-.32,3.7-.59s1.11-2.92,1.47-3.78l12.04-28.93,14.73-33.59c1.87,5.54,4.38,11.36,6.95,17.22l3.66,8.33,4.97,11,3.07,6.77,10.36,23.54,71.48.1c1.75-1.5,2.72-4.38,3.67-6.6l18.48-43.4,39.74-95.53Z" fill="#f6f9fd"/>
    <path d="M1232.34,230.49l.73-11.6h99.73c.1,16.52-1.67,13.08-.09,31.06,1.04,11.83-.58,19.13,0,31.24s-4.39,22.59-16.24,28.3c-4.21,2.03-10.78,3.15-16.04,3.15l-119.28.14-9.21-.94c-22.7-2.31-40.67-15.54-40.73-39.07-.08-27.18-.9-53.51.4-80.67.61-12.81,11.99-24.37,22.3-29.55,6.4-3.21,12.45-5.03,19.02-5.54,3.33-.26,6.97-1.01,10.25-1.02l138.7-.07c3.75,0,6.73.79,10.87,1.35l.4,35.66c.04,3.26-.52,6.56-1.45,9.95l-118.56.03c-5.62,0-15,2.99-15,11.24l.02,41.48c0,7.35,6.02,11.98,13.35,12.01l61.79.2-.42-11.3c-9.41.44-17.75.51-26.64.03-9.52-.52-7.93.9-14.25-1.68.02-8.28-.19-15.94.34-24.41ZM1274.16,269.81c-5.45-.68-8.92-1.07-13.12-.99l-15.65.29-13.49.31c-2.78.06-6.24-.18-9.03-.28l-14.18-.52c-4.65-.17-11.47-6.76-12.01-12.43-1.25-13.12-.81-26.56-.35-39.95.28-8.07,7.58-13.93,14.44-14.63,7.99-.82,14.68-.37,22.31-.24,5.7.09,11.29-.44,17.02.05,3.32.28,6.83.25,10.18.12l9.79-.35c9.95-.36,19.82-.49,29.65.06,3.07.17,5.73.49,8.7.1,7.55-.99,14.85-.29,22.58.75v-44.25s-156.38.18-156.38.18c-3.41,0-16.49,3.81-20.64,5.68-6.57,2.95-11.84,7.17-15.57,13.86-2.27,4.06-5.15,10.25-5.18,15.4l-.54,76.8c-.11,15.66,5.47,29.87,20.88,35.8,5.91,2.27,13.01,5.07,20.06,5.08l127.24.14c6.56,0,15.31-2.33,21.52-5.48,4.36-4.44,8.39-10.76,8.41-17.76l.23-67.63-95.95-.02,1.6,1.58c-1.21.6-2.72,1.34-3.45,1.97s.66,3.43.66,4.55l.16,26.88,40.94.02-.85,14.91Z" fill="#f6f9fd"/>
    <path d="M1070.99,312.72c-11.98-.26-9.84-1.58-18.62-8.36l-47.85-36.96-45.47-35.97-.08,81.26-54.88-.03-8.16-.28c-.38-2.37-.92-6.3-.91-9.69l.04-146.74,68.03-.1,46.61,35.45,35.75,27.21,8.53,5.91.07-68.58,48.98.13c3.04,0,6.52.71,9.99,1.02v154.82s-9.96.83-9.96.83c-10.85.9-21.1.31-32.06.07ZM1111.7,310.88c-.28-4.28-.64-6.07-.64-8.17l.02-137.67v-7.16s-56.04,0-56.04,0l-.08,69.18-10.34-8.08-60.11-45.48-19.88-15.59-67.6-.03-.04,153.06,61.02-.11-.02-81.21,16.3,12.94,23.7,18.49,5.05,3.93,52.87,41.09c1.94,1.51,4.07,2.19,5.61,4.78l50.17.03Z" fill="#f6f9fd"/>
    <path d="M144.99,202.78l.03,109.75c-3.64-.34-6.01.1-9.01.1l-55.89.07c-2.86,0-5.67-.65-9.02-.89l-.05-108.92H0s.07-46.13.07-46.13l13.15-.86,189.56.02c2.98,0,6.43.88,9.05,1.08l1.16,8.91.02,37.02-68.03-.16ZM143.29,310.87c.23-3.3-.2-5.56-.2-8.06v-97.94c0-.95.61-3.4,1.37-3.51.61-.09,2.19-.3,2.91-.3l50.54.12,13.09.71.06-44.02c-2.09-.72-4.72-.03-7.29-.02l-198.2.05c-1.3,0-3.53.77-4.03,1.58s.34,3.16.35,4.39l.22,34.49c1.73-.27,3.07,1.36,4.06,3.21,13.72.38,28.61.46,42.81.12,4.7-.11,9.11-1.36,13.6-.42,3.4.71,5.86.62,9.6.02.39,2.17.85,5.68.84,8.76l-.07,100.87,70.33-.05Z" fill="#f6f9fd"/>
    <path d="M443.67,273.4c-.78,25.24-18.25,36.21-41.6,38.4l-10.19.96h-114.72c-3.46,0-7.51-.98-10.84-1.24-19.85-1.58-35.34-15.24-39.37-34.71l.59-84.52c.09-12.94,9.8-23.92,20.4-29.19,9.59-4.76,18.88-6.87,29.68-6.87l117.77-.02c11.66,0,29.54,5.71,36.52,13.69,5.55,6.35,10.7,13.17,11.09,21.95.17,3.83,1.09,8.28.82,11.88-.57,7.48-.36,13.9-.11,21.21.57,16.31.47,32.36-.03,48.47ZM404.07,309.83c20.03-1.81,37.59-13.19,37.64-34.47l.14-59.17c.02-10.26,1.14-20.44-1.67-30.35-3.16-11.15-10.65-18.97-21.53-22.63-6.05-2.04-13.1-5.09-20.02-5.1l-126.55-.11c-19.07-.02-42.47,13.92-42.56,34.27l-.39,84.55c-.02,4.19,2.49,9.16,3.99,13,5.28,13.49,25.89,20.76,38.31,20.77l122.43.16,10.2-.92Z" fill="#f6f9fd"/>
    <path d="M870.02,155.89v157h-72v-157h72ZM868.86,157.27h-69.84v153.61h69.84v-153.61Z" fill="#f6f9fd"/>
    <path d="M774.87,165.41l-39.74,95.53-18.48,43.4c-.95,2.22-1.92,5.1-3.67,6.6l-71.48-.1-10.36-23.54-3.07-6.77-4.97-11-3.66-8.33c-2.57-5.86-5.08-11.68-6.95-17.22l-14.73,33.59-12.04,28.93c-.36.86-.63,3.52-1.47,3.78s-2.54.59-3.7.59l-69.24.04c-1.47-2.96-2.52-5.86-3.74-8.75l-12.13-28.78-5.5-11.86-15.54-37.19-18.49-43.59-3.85-9.18-.92-2.3c-.25-.63.75-1.59,1.82-3.12l-3.32.21-3.71-8.42,71.97-.11c1.87,0,4.58-.26,6.1.25,1.43.48,1.52,3.76,2.31,5.56l21.32,48.57c1.78,4.06,4.74,7.58,4.69,11.61l2.94-6.62c6.2-13.94,8.76-22.49,14.41-36.37l5.23-12.86,4.21-10.16,63.71.14,8.28,19.93,21.61,48.38,7.43-18.8,6.35-15.02,6.59-15.23,2.95-7.11,5.32-12.14,68.56-.15,8.77-.23-3.82,7.83Z" fill="#f6f9fd"/>
    <path d="M1274.16,269.81l.85-14.91-40.94-.02-.16-26.88c0-1.12-1.39-3.91-.66-4.55s2.24-1.37,3.45-1.97l-1.6-1.58,95.95.02-.23,67.63c-.02,7-4.05,13.33-8.41,17.76-6.21,3.15-14.96,5.48-21.52,5.48l-127.24-.14c-7.05,0-14.15-2.8-20.06-5.08-15.4-5.93-20.99-20.14-20.88-35.8l.54-76.8c.04-5.15,2.92-11.34,5.18-15.4,3.73-6.69,9.01-10.9,15.57-13.86,4.15-1.87,17.23-5.68,20.64-5.68l156.39-.18v44.25c-7.74-1.05-15.03-1.75-22.58-.75-2.97.39-5.64.07-8.7-.1-9.83-.55-19.7-.42-29.65-.06l-9.79.35c-3.36.12-6.86.16-10.18-.12-5.73-.49-11.32.04-17.02-.05-7.63-.12-14.32-.58-22.31.24-6.86.71-14.16,6.56-14.44,14.63-.46,13.39-.9,26.83.35,39.95.54,5.67,7.36,12.26,12.01,12.43l14.18.52c2.79.1,6.24.34,9.03.28l13.49-.31,15.65-.29c4.2-.08,7.66.31,13.12.99Z" fill="#f6f9fd"/>
    <path d="M1111.7,310.88l-50.17-.03c-1.55-2.59-3.67-3.27-5.61-4.78l-52.87-41.09-5.05-3.93-23.7-18.49-16.3-12.94.02,81.21-61.02.11.04-153.06,67.6.03,19.88,15.59,60.11,45.48,10.34,8.08.08-69.18h56.05s-.01,7.15-.01,7.15l-.02,137.67c0,2.1.36,3.89.64,8.17Z" fill="#f6f9fd"/>
    <path d="M143.29,310.87l-70.33.05.07-100.87c0-3.07-.45-6.59-.84-8.76-3.74.6-6.2.69-9.6-.02-4.5-.93-8.9.31-13.6.42-14.19.33-29.08.26-42.81-.12-.99-1.85-2.34-3.48-4.06-3.21l-.22-34.49c0-1.23-.85-3.58-.35-4.39s2.73-1.58,4.03-1.58l198.2-.05c2.57,0,5.2-.69,7.29.02l-.06,44.02-13.09-.71-50.54-.12c-.72,0-2.31.21-2.91.3-.76.11-1.37,2.56-1.37,3.51v97.94c0,2.5.43,4.76.2,8.06Z" fill="#f6f9fd"/>
    <path d="M404.07,309.83l-10.2.92-122.43-.16c-12.42-.02-33.03-7.28-38.31-20.77-1.5-3.84-4.01-8.82-3.99-13l.39-84.55c.09-20.35,23.49-34.29,42.56-34.27l126.55.11c6.92,0,13.97,3.06,20.02,5.1,10.87,3.66,18.37,11.47,21.53,22.63,2.81,9.91,1.69,20.09,1.67,30.35l-.14,59.17c-.05,21.28-17.61,32.66-37.64,34.47ZM360.14,269c7.77.03,17.25-4.28,17.59-13.36.5-13.53.48-27.06.02-40.71-.26-7.74-8.64-12.76-15.6-12.93l-24.4-.58c-6.3-.15-12.42-.9-18.73.16-8.3-1.15-17.34-.68-23.46,6.08-4.3,4.74-3.8,21.3-3.18,28.12,1.14,12.65-1.64,12.72,1.2,22.69,1.69,5.94,8.35,10.3,14.4,10.32l52.16.21Z" fill="#f6f9fd"/>
    <rect x="799.02" y="157.27" width="69.84" height="153.61" fill="#f6f9fd"/>
    <path d="M360.14,269l-52.16-.21c-6.06-.02-12.72-4.38-14.4-10.32-2.83-9.97-.05-10.04-1.2-22.69-.62-6.82-1.12-23.38,3.18-28.12,6.13-6.76,15.16-7.23,23.46-6.08,6.3-1.06,12.42-.31,18.73-.16l24.4.58c6.96.17,15.33,5.19,15.6,12.93.46,13.65.48,27.17-.02,40.71-.33,9.08-9.81,13.39-17.59,13.36ZM360.9,267.51c6.51-.04,14.64-4.03,14.84-10.72.45-15.12.46-29.56-.06-44.7-.19-5.51-7.93-8.92-13.08-8.92l-55.18-.05c-3.44,0-8.12,1.78-9.93,3.74-2.06,2.23-3.19,6.12-3.27,9.44-.3,12.58-.38,24.67.12,37.15.23,5.78,3.2,12.13,8.94,13.13,3,.52,6.74,1.23,9.65,1.21l47.96-.27Z" fill="#f6f9fd"/>
  </g>
  <g>
    <path d="M791.57,73.35c-2.96.92-7.93.9-12.35.42l-39.42-52.81-.32,52.76-12.48-.14.05-71.81,13.67-.09,38.16,50.68.24-50.73,12.19.13.26,71.59Z" fill="#f6f9fd"/>
    <path d="M937.02,60.48c-6.97,8.13-16.33,13.04-27.02,13.15l-34.37.35-.13-72.14,33.62-.1c20.14-.06,35.6,16.3,35.11,35.94-.21,8.34-1.11,16.19-7.21,22.81ZM930.12,45.25c2.22-9.76.26-20.09-6.99-26.55-8.61-7.67-23.84-6.9-35.12-6.48l.03,50.58c15.41.19,37.42,2.95,42.08-17.54Z" fill="#f6f9fd"/>
    <polygon points="1191.14 42.85 1155.25 42.88 1155.16 62.88 1196.07 62.65 1196.55 74.14 1142.78 73.95 1142.89 1.66 1194.06 1.68 1194.12 12.08 1155.18 12.04 1155.18 31.84 1191.09 31.9 1191.14 42.85" fill="#f6f9fd"/>
    <path d="M1099.2,34.99c-.04,1.71,1.16,5.12,2,6.6l18.22,32.03-15.26.38-17.05-30.92-18.11-.28.04,31.09-13.54.04c-.3-5.92-.36-11.78-.32-18.02l.2-33.03-.22-21.06,13.77-.26.15,30.25,17.56-.8,16.96-29.38,15.86.25-7.78,12.75-12.48,20.36Z" fill="#f6f9fd"/>
    <path d="M333,56.28c6.76,7.47,16.9,8.54,25.77,6.69,7.46-1.56,12.41-6.02,14.81-13.71l13.85.11c-3.03,14.57-16.62,25.05-31.22,25.65-24.27.99-42.01-11.42-43.4-35.76-1.21-21.18,13.97-37.69,35.42-38.94,18.63-1.08,37.03,8.15,39.24,27.62l-13.3.13c-2.16-10.01-9.48-15.38-19.28-16.15-8.01-.63-16.34.48-22.09,6.93-9.16,10.26-9.39,26.81.21,37.42Z" fill="#f6f9fd"/>
    <path d="M681.44,57.66l-34.44.05-6.67,16.3-14.56-.13,23.28-53.25,7.65-18.78,13.92-.42,31.91,72.15-14.58.46-6.53-16.38ZM676.61,46.69l-12.59-30.12-12.56,30.38,25.15-.26Z" fill="#f6f9fd"/>
    <path d="M458.96,57.79l-34.94.06-6.06,15.86c-4.6.28-9.42.28-14.84-.07l11.22-25.49L434.53,1.59l13.23-.2,31.81,71.73c-4.85,1.18-9.56,1.06-14.15.45l-6.46-15.79ZM453.81,46.63l-12.67-30.1-12.55,30.45,25.21-.35Z" fill="#f6f9fd"/>
    <path d="M154.77,1.72l12.48.09c.09,17.39.51,33.88-.31,51.23-.9,19.02-26.33,26.85-45.86,19.42-9.1-3.46-15.72-11.59-15.77-21.68l-.21-49.37,12.86.31.1,45.14c0,3.71,1.47,9.16,4.22,11.75,7.73,7.28,20.61,7.07,28.24-.22,3.75-3.58,4.56-9.66,4.53-14.63l-.27-42.04Z" fill="#f6f9fd"/>
    <path d="M600.64,2.17c4.68-.52,9.32-.54,15.11-.18l-30.32,71.93c-4.35.07-8.24-.01-12.19-.35L543.77,1.9l14.39-.14,21.44,53.16,21.04-52.76Z" fill="#f6f9fd"/>
    <path d="M1032.09,1.58l-27.99,45.68-.15,26.9-12.8-.23c-.84-8.74,1.16-17.7-1.16-25.86l-28.34-46.45,15.48-.05,19.8,33.54,19.04-33.27,16.12-.26Z" fill="#f6f9fd"/>
    <path d="M225.01,73.75l-13.01.12.04-61.6-22.55-.29c-.44-3.44-.45-6.96.04-10.29h58.37s.08,10.44.08,10.44h-22.94s-.03,61.62-.03,61.62Z" fill="#f6f9fd"/>
    <rect x="274.02" y=".89" width="14" height="73.1" fill="#f6f9fd"/>
  </g>
</svg>