<?xml version="1.0" standalone="no"?><!-- Generator: Gravit.io --><svg xmlns="http://www.w3.org/2000/svg" xmlns:xlink="http://www.w3.org/1999/xlink" style="isolation:isolate" viewBox="371 324 649 155" width="649" height="155"><g><path d=" M 388.599 324 L 1002.401 324 C 1012.114 324 1020 331.886 1020 341.599 L 1020 461.401 C 1020 471.114 1012.114 479 1002.401 479 L 388.599 479 C 378.886 479 371 471.114 371 461.401 L 371 341.599 C 371 331.886 378.886 324 388.599 324 Z " fill="rgb(108,84,30)"/><path d=" M 371 342 L 392.806 358 C 394.359 350.912 398.879 346.932 406.306 344 L 387.614 324 C 376.798 325.676 371.27 331.686 371 342 Z " fill="rgb(155,122,45)"/><path d=" M 390.614 478.992 L 406.16 457.247 C 398.734 456.094 396.205 450.002 392.806 443 L 371.145 463.877 C 373.404 474.2 379.904 479.228 390.614 478.992 Z " fill="rgb(155,122,45)"/><path d=" M 1019.998 460.427 L 997.598 445.206 C 996.316 452.344 989.961 454.709 982.652 457.901 L 1004.079 479 C 1014.824 476.944 1020.12 470.743 1019.998 460.427 Z " fill="rgb(155,122,45)"/><path d=" M 1005.711 324.106 L 979.637 343.941 C 986.414 347.086 991.766 350.355 992.949 358 L 1019.894 343.941 C 1020.787 333.426 1016.047 326.821 1005.711 324.106 Z " fill="rgb(155,122,45)"/><mask id="_mask_wGq3xHSiR54eX9Ba5v3Oc4PT5dQVUJfe" x="-200%" y="-200%" width="400%" height="400%"><rect x="0" y="0" width="100%" height="100%" style="fill:white;"/><path d=" M 411.094 347.167 L 979.906 347.167 C 987.707 347.167 994.04 353.5 994.04 361.301 L 994.04 441.699 C 994.04 449.5 987.707 455.833 979.906 455.833 L 411.094 455.833 C 403.293 455.833 396.96 449.5 396.96 441.699 L 396.96 361.301 C 396.96 353.5 403.293 347.167 411.094 347.167 Z " fill="black" stroke="none"/></mask><path d=" M 411.094 347.167 L 979.906 347.167 C 987.707 347.167 994.04 353.5 994.04 361.301 L 994.04 441.699 C 994.04 449.5 987.707 455.833 979.906 455.833 L 411.094 455.833 C 403.293 455.833 396.96 449.5 396.96 441.699 L 396.96 361.301 C 396.96 353.5 403.293 347.167 411.094 347.167 Z " fill="rgb(187,149,59)" mask="url(#_mask_wGq3xHSiR54eX9Ba5v3Oc4PT5dQVUJfe)" vector-effect="non-scaling-stroke" stroke-width="10" stroke="rgb(187,149,59)" stroke-linejoin="miter" stroke-linecap="square" stroke-miterlimit="3"/><linearGradient id="_lgradient_22" x1="0" y1="0.5" x2="1" y2="0.5" gradientTransform="matrix(275.708,0,0,108.666,396.96,347.167)" gradientUnits="userSpaceOnUse"><stop offset="1.7391304347826086%" stop-opacity="1" style="stop-color:rgb(108,84,30)"/><stop offset="90.8695652173913%" stop-opacity="1" style="stop-color:rgb(160,130,61)"/></linearGradient><path d=" M 672.668 455.833 L 411.363 455.833 C 403.414 455.833 396.96 449.618 396.96 441.963 L 396.96 361.037 C 396.96 353.382 403.414 347.167 411.363 347.167 L 604.612 347.167 L 672.668 455.833 L 672.668 455.833 Z " fill="url(#_lgradient_22)"/><linearGradient id="_lgradient_23" x1="0" y1="0.5" x2="1" y2="0.5" gradientTransform="matrix(219.805,0,0,108.666,604.612,347.167)" gradientUnits="userSpaceOnUse"><stop offset="2.608695652173913%" stop-opacity="1" style="stop-color:rgb(159,130,62)"/><stop offset="97.3913043478261%" stop-opacity="1" style="stop-color:rgb(187,149,59)"/></linearGradient><path d=" M 824.417 455.833 L 672.668 455.833 L 672.668 455.833 C 629.571 426.944 606.896 390.732 604.612 347.167 L 753.661 347.167 C 739.392 363.453 776.171 438.224 824.417 455.833 L 824.417 455.833 Z " fill="url(#_lgradient_23)"/><mask id="_mask_0y0Bxh22l2kpYxrXjE4RFp8VZWYjhXDa" x="-200%" y="-200%" width="400%" height="400%"><rect x="0" y="0" width="100%" height="100%" style="fill:white;"/><path d=" M 824.417 455.833 L 979.637 455.833 C 987.586 455.833 994.04 449.618 994.04 441.963 L 994.04 361.037 C 994.04 353.382 987.586 347.167 979.637 347.167 L 753.661 347.167 L 824.417 455.833 L 824.417 455.833 Z " fill="black" stroke="none"/></mask><path d=" M 824.417 455.833 L 979.637 455.833 C 987.586 455.833 994.04 449.618 994.04 441.963 L 994.04 361.037 C 994.04 353.382 987.586 347.167 979.637 347.167 L 753.661 347.167 L 824.417 455.833 L 824.417 455.833 Z " fill="rgb(187,149,59)" mask="url(#_mask_0y0Bxh22l2kpYxrXjE4RFp8VZWYjhXDa)" vector-effect="non-scaling-stroke" stroke-width="10" stroke="rgb(187,149,59)" stroke-linejoin="miter" stroke-linecap="square" stroke-miterlimit="3"/><path d=" M 820.381 407.984 L 820.381 407.984 L 820.381 407.984 Q 820.381 411.081 818.076 413.037 L 818.076 413.037 L 818.076 413.037 Q 815.771 414.993 811.697 415.505 L 811.697 415.505 L 811.697 421 L 809.811 421 L 809.811 415.598 L 809.811 415.598 Q 807.669 415.552 805.142 415.074 L 805.142 415.074 L 805.142 415.074 Q 802.616 414.597 801.126 413.898 L 801.126 413.898 L 801.126 411.5 L 801.126 411.5 Q 802.872 412.338 805.305 412.921 L 805.305 412.921 L 805.305 412.921 Q 807.739 413.503 809.811 413.503 L 809.811 413.503 L 809.811 401.675 L 809.811 401.675 Q 806.435 400.65 804.805 399.626 L 804.805 399.626 L 804.805 399.626 Q 803.175 398.601 802.43 397.204 L 802.43 397.204 L 802.43 397.204 Q 801.685 395.807 801.685 393.805 L 801.685 393.805 L 801.685 393.805 Q 801.685 390.918 803.885 388.95 L 803.885 388.95 L 803.885 388.95 Q 806.085 386.983 809.811 386.517 L 809.811 386.517 L 809.811 382.047 L 811.697 382.047 L 811.697 386.47 L 811.697 386.47 Q 816.284 386.68 819.869 388.147 L 819.869 388.147 L 819.101 390.242 L 819.101 390.242 Q 815.818 388.799 811.697 388.566 L 811.697 388.566 L 811.697 399.882 L 811.697 399.882 Q 816.656 401.418 818.519 403.235 L 818.519 403.235 L 818.519 403.235 Q 820.381 405.051 820.381 407.984 Z  M 817.82 407.891 L 817.82 407.891 L 817.82 407.891 Q 817.82 405.912 816.353 404.62 L 816.353 404.62 L 816.353 404.62 Q 814.887 403.328 811.697 402.396 L 811.697 402.396 L 811.697 413.363 L 811.697 413.363 Q 814.537 413.06 816.179 411.617 L 816.179 411.617 L 816.179 411.617 Q 817.82 410.173 817.82 407.891 Z  M 804.223 393.805 L 804.223 393.805 L 804.223 393.805 Q 804.223 395.807 805.55 397.088 L 805.55 397.088 L 805.55 397.088 Q 806.877 398.368 809.811 399.253 L 809.811 399.253 L 809.811 388.706 L 809.811 388.706 Q 807.04 389.078 805.631 390.475 L 805.631 390.475 L 805.631 390.475 Q 804.223 391.872 804.223 393.805 Z  M 840.405 384.189 L 840.405 418.229 L 838.124 418.229 L 838.124 393.432 L 838.124 393.432 Q 838.124 390.056 838.403 386.424 L 838.403 386.424 L 838.403 386.424 Q 838.054 386.773 837.681 387.099 L 837.681 387.099 L 837.681 387.099 Q 837.309 387.425 830.487 392.757 L 830.487 392.757 L 829.159 391.104 L 838.403 384.189 L 840.405 384.189 Z  M 876.309 401.116 L 876.309 401.116 L 876.309 401.116 Q 876.309 410.08 873.573 414.387 L 873.573 414.387 L 873.573 414.387 Q 870.837 418.695 865.295 418.695 L 865.295 418.695 L 865.295 418.695 Q 859.964 418.695 857.193 414.259 L 857.193 414.259 L 857.193 414.259 Q 854.422 409.824 854.422 401.116 L 854.422 401.116 L 854.422 401.116 Q 854.422 392.221 857.111 387.937 L 857.111 387.937 L 857.111 387.937 Q 859.801 383.653 865.295 383.653 L 865.295 383.653 L 865.295 383.653 Q 870.674 383.653 873.491 388.089 L 873.491 388.089 L 873.491 388.089 Q 876.309 392.524 876.309 401.116 Z  M 856.937 401.116 L 856.937 401.116 L 856.937 401.116 Q 856.937 409.032 859.009 412.816 L 859.009 412.816 L 859.009 412.816 Q 861.081 416.599 865.295 416.599 L 865.295 416.599 L 865.295 416.599 Q 869.696 416.599 871.71 412.688 L 871.71 412.688 L 871.71 412.688 Q 873.724 408.776 873.724 401.116 L 873.724 401.116 L 873.724 401.116 Q 873.724 393.572 871.71 389.66 L 871.71 389.66 L 871.71 389.66 Q 869.696 385.749 865.295 385.749 L 865.295 385.749 L 865.295 385.749 Q 860.895 385.749 858.916 389.66 L 858.916 389.66 L 858.916 389.66 Q 856.937 393.572 856.937 401.116 Z  M 903.527 401.116 L 903.527 401.116 L 903.527 401.116 Q 903.527 410.08 900.791 414.387 L 900.791 414.387 L 900.791 414.387 Q 898.055 418.695 892.514 418.695 L 892.514 418.695 L 892.514 418.695 Q 887.182 418.695 884.411 414.259 L 884.411 414.259 L 884.411 414.259 Q 881.641 409.824 881.641 401.116 L 881.641 401.116 L 881.641 401.116 Q 881.641 392.221 884.33 387.937 L 884.33 387.937 L 884.33 387.937 Q 887.019 383.653 892.514 383.653 L 892.514 383.653 L 892.514 383.653 Q 897.892 383.653 900.71 388.089 L 900.71 388.089 L 900.71 388.089 Q 903.527 392.524 903.527 401.116 Z  M 884.155 401.116 L 884.155 401.116 L 884.155 401.116 Q 884.155 409.032 886.227 412.816 L 886.227 412.816 L 886.227 412.816 Q 888.3 416.599 892.514 416.599 L 892.514 416.599 L 892.514 416.599 Q 896.915 416.599 898.929 412.688 L 898.929 412.688 L 898.929 412.688 Q 900.943 408.776 900.943 401.116 L 900.943 401.116 L 900.943 401.116 Q 900.943 393.572 898.929 389.66 L 898.929 389.66 L 898.929 389.66 Q 896.915 385.749 892.514 385.749 L 892.514 385.749 L 892.514 385.749 Q 888.113 385.749 886.134 389.66 L 886.134 389.66 L 886.134 389.66 Q 884.155 393.572 884.155 401.116 Z  M 782.779 406.308 L 771.719 406.308 L 771.719 404.399 L 782.779 404.399 L 782.779 406.308 Z  M 671.134 418.229 L 652.53 418.229 L 652.53 384.189 L 654.905 384.189 L 654.905 415.994 L 671.134 415.994 L 671.134 418.229 Z  M 686.641 418.695 L 686.641 418.695 L 686.641 418.695 Q 681.122 418.695 678.037 415.296 L 678.037 415.296 L 678.037 415.296 Q 674.952 411.896 674.952 405.773 L 674.952 405.773 L 674.952 405.773 Q 674.952 399.719 677.933 396.075 L 677.933 396.075 L 677.933 396.075 Q 680.913 392.431 685.965 392.431 L 685.965 392.431 L 685.965 392.431 Q 690.436 392.431 693.02 395.551 L 693.02 395.551 L 693.02 395.551 Q 695.605 398.671 695.605 404.026 L 695.605 404.026 L 695.605 405.889 L 677.374 405.889 L 677.374 405.889 Q 677.42 411.104 679.807 413.852 L 679.807 413.852 L 679.807 413.852 Q 682.193 416.599 686.641 416.599 L 686.641 416.599 L 686.641 416.599 Q 688.806 416.599 690.448 416.297 L 690.448 416.297 L 690.448 416.297 Q 692.089 415.994 694.604 414.993 L 694.604 414.993 L 694.604 417.088 L 694.604 417.088 Q 692.462 418.02 690.645 418.357 L 690.645 418.357 L 690.645 418.357 Q 688.829 418.695 686.641 418.695 Z  M 685.965 394.48 L 685.965 394.48 L 685.965 394.48 Q 682.31 394.48 680.098 396.89 L 680.098 396.89 L 680.098 396.89 Q 677.886 399.3 677.513 403.84 L 677.513 403.84 L 693.16 403.84 L 693.16 403.84 Q 693.16 399.439 691.251 396.96 L 691.251 396.96 L 691.251 396.96 Q 689.342 394.48 685.965 394.48 Z  M 710.46 418.229 L 708.131 418.229 L 698.352 392.92 L 700.727 392.92 L 707.27 410.127 L 707.27 410.127 Q 708.574 413.433 709.226 415.901 L 709.226 415.901 L 709.365 415.901 L 709.365 415.901 Q 710.32 412.734 711.321 410.08 L 711.321 410.08 L 717.864 392.92 L 720.239 392.92 L 710.46 418.229 Z  M 734.698 418.695 L 734.698 418.695 L 734.698 418.695 Q 729.18 418.695 726.095 415.296 L 726.095 415.296 L 726.095 415.296 Q 723.01 411.896 723.01 405.773 L 723.01 405.773 L 723.01 405.773 Q 723.01 399.719 725.99 396.075 L 725.99 396.075 L 725.99 396.075 Q 728.97 392.431 734.023 392.431 L 734.023 392.431 L 734.023 392.431 Q 738.493 392.431 741.078 395.551 L 741.078 395.551 L 741.078 395.551 Q 743.662 398.671 743.662 404.026 L 743.662 404.026 L 743.662 405.889 L 725.431 405.889 L 725.431 405.889 Q 725.478 411.104 727.864 413.852 L 727.864 413.852 L 727.864 413.852 Q 730.251 416.599 734.698 416.599 L 734.698 416.599 L 734.698 416.599 Q 736.863 416.599 738.505 416.297 L 738.505 416.297 L 738.505 416.297 Q 740.146 415.994 742.661 414.993 L 742.661 414.993 L 742.661 417.088 L 742.661 417.088 Q 740.519 418.02 738.703 418.357 L 738.703 418.357 L 738.703 418.357 Q 736.887 418.695 734.698 418.695 Z  M 734.023 394.48 L 734.023 394.48 L 734.023 394.48 Q 730.367 394.48 728.155 396.89 L 728.155 396.89 L 728.155 396.89 Q 725.943 399.3 725.571 403.84 L 725.571 403.84 L 741.217 403.84 L 741.217 403.84 Q 741.217 399.439 739.308 396.96 L 739.308 396.96 L 739.308 396.96 Q 737.399 394.48 734.023 394.48 Z  M 752.952 382 L 752.952 418.229 L 750.647 418.229 L 750.647 382 L 752.952 382 Z  M 487.473 418.229 L 487.473 384.189 L 496.81 384.189 L 496.81 384.189 Q 503.12 384.189 506.077 386.331 L 506.077 386.331 L 506.077 386.331 Q 509.034 388.473 509.034 392.804 L 509.034 392.804 L 509.034 392.804 Q 509.034 395.761 507.229 397.728 L 507.229 397.728 L 507.229 397.728 Q 505.425 399.696 501.955 400.254 L 501.955 400.254 L 501.955 400.394 L 501.955 400.394 Q 506.03 400.999 507.951 402.967 L 507.951 402.967 L 507.951 402.967 Q 509.872 404.934 509.872 408.45 L 509.872 408.45 L 509.872 408.45 Q 509.872 413.153 506.752 415.691 L 506.752 415.691 L 506.752 415.691 Q 503.632 418.229 497.904 418.229 L 497.904 418.229 L 487.473 418.229 Z  M 489.848 386.284 L 489.848 399.346 L 497.345 399.346 L 497.345 399.346 Q 502.142 399.346 504.319 397.751 L 504.319 397.751 L 504.319 397.751 Q 506.496 396.156 506.496 392.757 L 506.496 392.757 L 506.496 392.757 Q 506.496 389.358 504.039 387.821 L 504.039 387.821 L 504.039 387.821 Q 501.583 386.284 496.717 386.284 L 496.717 386.284 L 489.848 386.284 Z  M 497.345 401.442 L 489.848 401.442 L 489.848 416.134 L 497.857 416.134 L 497.857 416.134 Q 507.311 416.134 507.311 408.45 L 507.311 408.45 L 507.311 408.45 Q 507.311 401.442 497.345 401.442 L 497.345 401.442 Z  M 526.752 392.431 L 526.752 392.431 L 526.752 392.431 Q 528.359 392.431 530.198 392.757 L 530.198 392.757 L 529.756 394.969 L 529.756 394.969 Q 528.173 394.573 526.473 394.573 L 526.473 394.573 L 526.473 394.573 Q 523.237 394.573 521.164 397.321 L 521.164 397.321 L 521.164 397.321 Q 519.092 400.068 519.092 404.259 L 519.092 404.259 L 519.092 418.229 L 516.787 418.229 L 516.787 392.92 L 518.743 392.92 L 518.976 397.484 L 519.139 397.484 L 519.139 397.484 Q 520.699 394.69 522.468 393.56 L 522.468 393.56 L 522.468 393.56 Q 524.238 392.431 526.752 392.431 Z  M 556.276 405.54 L 556.276 405.54 L 556.276 405.54 Q 556.276 411.733 553.272 415.214 L 553.272 415.214 L 553.272 415.214 Q 550.269 418.695 544.983 418.695 L 544.983 418.695 L 544.983 418.695 Q 541.654 418.695 539.116 417.088 L 539.116 417.088 L 539.116 417.088 Q 536.578 415.482 535.228 412.478 L 535.228 412.478 L 535.228 412.478 Q 533.877 409.475 533.877 405.54 L 533.877 405.54 L 533.877 405.54 Q 533.877 399.346 536.881 395.889 L 536.881 395.889 L 536.881 395.889 Q 539.884 392.431 545.123 392.431 L 545.123 392.431 L 545.123 392.431 Q 550.339 392.431 553.307 395.935 L 553.307 395.935 L 553.307 395.935 Q 556.276 399.439 556.276 405.54 Z  M 536.299 405.54 L 536.299 405.54 L 536.299 405.54 Q 536.299 410.755 538.592 413.677 L 538.592 413.677 L 538.592 413.677 Q 540.885 416.599 545.077 416.599 L 545.077 416.599 L 545.077 416.599 Q 549.268 416.599 551.561 413.677 L 551.561 413.677 L 551.561 413.677 Q 553.854 410.755 553.854 405.54 L 553.854 405.54 L 553.854 405.54 Q 553.854 400.301 551.538 397.414 L 551.538 397.414 L 551.538 397.414 Q 549.221 394.527 545.03 394.527 L 545.03 394.527 L 545.03 394.527 Q 540.839 394.527 538.569 397.402 L 538.569 397.402 L 538.569 397.402 Q 536.299 400.278 536.299 405.54 Z  M 583.215 418.229 L 580.933 418.229 L 580.933 401.814 L 580.933 401.814 Q 580.933 397.996 579.327 396.261 L 579.327 396.261 L 579.327 396.261 Q 577.72 394.527 574.344 394.527 L 574.344 394.527 L 574.344 394.527 Q 569.804 394.527 567.697 396.82 L 567.697 396.82 L 567.697 396.82 Q 565.589 399.113 565.589 404.259 L 565.589 404.259 L 565.589 418.229 L 563.284 418.229 L 563.284 392.92 L 565.24 392.92 L 565.682 396.389 L 565.822 396.389 L 565.822 396.389 Q 568.29 392.431 574.6 392.431 L 574.6 392.431 L 574.6 392.431 Q 583.215 392.431 583.215 401.675 L 583.215 401.675 L 583.215 418.229 Z  M 607.151 416.18 L 607.151 418.229 L 589.082 418.229 L 589.082 416.762 L 604.1 394.969 L 590.177 394.969 L 590.177 392.92 L 607.104 392.92 L 607.104 394.387 L 591.993 416.18 L 607.151 416.18 Z  M 623.612 418.695 L 623.612 418.695 L 623.612 418.695 Q 618.094 418.695 615.009 415.296 L 615.009 415.296 L 615.009 415.296 Q 611.924 411.896 611.924 405.773 L 611.924 405.773 L 611.924 405.773 Q 611.924 399.719 614.904 396.075 L 614.904 396.075 L 614.904 396.075 Q 617.884 392.431 622.937 392.431 L 622.937 392.431 L 622.937 392.431 Q 627.407 392.431 629.992 395.551 L 629.992 395.551 L 629.992 395.551 Q 632.576 398.671 632.576 404.026 L 632.576 404.026 L 632.576 405.889 L 614.345 405.889 L 614.345 405.889 Q 614.392 411.104 616.778 413.852 L 616.778 413.852 L 616.778 413.852 Q 619.165 416.599 623.612 416.599 L 623.612 416.599 L 623.612 416.599 Q 625.777 416.599 627.419 416.297 L 627.419 416.297 L 627.419 416.297 Q 629.06 415.994 631.575 414.993 L 631.575 414.993 L 631.575 417.088 L 631.575 417.088 Q 629.433 418.02 627.617 418.357 L 627.617 418.357 L 627.617 418.357 Q 625.801 418.695 623.612 418.695 Z  M 622.937 394.48 L 622.937 394.48 L 622.937 394.48 Q 619.281 394.48 617.069 396.89 L 617.069 396.89 L 617.069 396.89 Q 614.857 399.3 614.485 403.84 L 614.485 403.84 L 630.131 403.84 L 630.131 403.84 Q 630.131 399.439 628.222 396.96 L 628.222 396.96 L 628.222 396.96 Q 626.313 394.48 622.937 394.48 Z " fill-rule="evenodd" fill="rgb(81,64,26)"/></g></svg>