<?xml version="1.0" standalone="no"?><!-- Generator: Gravit.io --><svg xmlns="http://www.w3.org/2000/svg" xmlns:xlink="http://www.w3.org/1999/xlink" style="isolation:isolate" viewBox="369.5 -381.5 652 158" width="652" height="158"><g><path d=" M 436 -225 L 371 -248 L 371 -354 L 437 -380 L 948 -380 L 1020 -354 L 1020 -248 L 948 -225 L 436 -225 Z " fill="rgb(255,255,255)"/><path d=" M 1020 -353.537 L 1020 -247.683 L 948.499 -225 L 437 -225 L 371 -247.683 L 371 -353.537 L 437 -380 L 948.499 -380 L 1020 -353.537 Z " fill="none" vector-effect="non-scaling-stroke" stroke-width="1" stroke="rgb(191,191,191)" stroke-opacity="100" stroke-linejoin="miter" stroke-linecap="square" stroke-miterlimit="3"/><g style="opacity:0.5;"><g opacity="0.5"><path d=" M 437 -353.537 L 437 -380 L 371 -353.537 L 437 -353.537 Z " fill="rgb(210,210,210)" vector-effect="non-scaling-stroke" stroke-width="1" stroke="rgb(191,191,191)" stroke-opacity="100" stroke-linejoin="miter" stroke-linecap="square" stroke-miterlimit="3"/></g></g><g style="opacity:0.5;"><g opacity="0.5"><path d=" M 371 -247.683 L 437 -247.683 L 437 -225 L 371 -247.683 Z " fill="rgb(210,210,210)" vector-effect="non-scaling-stroke" stroke-width="1" stroke="rgb(191,191,191)" stroke-opacity="100" stroke-linejoin="miter" stroke-linecap="square" stroke-miterlimit="3"/></g></g><path d=" M 437 -353.537 L 404 -300.61 L 371 -353.537 L 437 -353.537 Z " fill="none" vector-effect="non-scaling-stroke" stroke-width="1" stroke="rgb(191,191,191)" stroke-opacity="100" stroke-linejoin="miter" stroke-linecap="square" stroke-miterlimit="3"/><path d=" M 437 -247.683 L 404 -300.61 L 371 -247.683 L 437 -247.683 Z " fill="none" vector-effect="non-scaling-stroke" stroke-width="1" stroke="rgb(191,191,191)" stroke-opacity="100" stroke-linejoin="miter" stroke-linecap="square" stroke-miterlimit="3"/><g style="opacity:0.5;"><g opacity="0.5"><path d=" M 371 -353.537 L 404 -300.61 L 371 -247.683 L 371 -353.537 Z " fill="rgb(240,239,239)" vector-effect="non-scaling-stroke" stroke-width="1" stroke="rgb(191,191,191)" stroke-opacity="100" stroke-linejoin="miter" stroke-linecap="square" stroke-miterlimit="3"/></g></g><g style="opacity:0.5;"><g opacity="0.5"><path d=" M 948.499 -380 L 948.499 -353.537 L 1020 -353.537 L 948.499 -380 Z " fill="rgb(210,210,210)" vector-effect="non-scaling-stroke" stroke-width="1" stroke="rgb(191,191,191)" stroke-opacity="100" stroke-linejoin="miter" stroke-linecap="square" stroke-miterlimit="3"/></g></g><g style="opacity:0.5;"><g opacity="0.5"><path d=" M 1020 -247.683 L 948.499 -247.683 L 948.499 -225 L 1020 -247.683 Z " fill="rgb(210,210,210)" vector-effect="non-scaling-stroke" stroke-width="1" stroke="rgb(191,191,191)" stroke-opacity="100" stroke-linejoin="miter" stroke-linecap="square" stroke-miterlimit="3"/></g></g><path d=" M 948.499 -353.537 L 981.499 -300.61 L 1020 -353.537 L 948.499 -353.537 Z " fill="none" vector-effect="non-scaling-stroke" stroke-width="1" stroke="rgb(191,191,191)" stroke-opacity="100" stroke-linejoin="miter" stroke-linecap="square" stroke-miterlimit="3"/><path d=" M 1020 -247.683 L 981.499 -300.61 L 948.499 -247.683 L 1020 -247.683 Z " fill="none" vector-effect="non-scaling-stroke" stroke-width="1" stroke="rgb(191,191,191)" stroke-opacity="100" stroke-linejoin="miter" stroke-linecap="square" stroke-miterlimit="3"/><g style="opacity:0.5;"><g opacity="0.5"><path d=" M 1020 -353.537 L 1020 -247.683 L 981.499 -300.61 L 1020 -353.537 Z " fill="rgb(240,239,239)" vector-effect="non-scaling-stroke" stroke-width="1" stroke="rgb(191,191,191)" stroke-opacity="100" stroke-linejoin="miter" stroke-linecap="square" stroke-miterlimit="3"/></g></g><path d=" M 437 -353.537 L 695.499 -357.317 L 437 -380 L 437 -353.537 Z " fill="none" vector-effect="non-scaling-stroke" stroke-width="1" stroke="rgb(191,191,191)" stroke-opacity="100" stroke-linejoin="miter" stroke-linecap="square" stroke-miterlimit="3"/><path d=" M 948.499 -353.537 L 948.499 -380 L 695.499 -357.317 L 948.499 -353.537 Z " fill="rgb(255,255,255)" vector-effect="non-scaling-stroke" stroke-width="1" stroke="rgb(223,223,223)" stroke-linejoin="miter" stroke-linecap="square" stroke-miterlimit="3"/><g style="opacity:0.5;"><g opacity="0.5"><path d=" M 437 -380 L 695.499 -357.317 L 948.499 -380 L 437 -380 Z " fill="rgb(240,239,239)" vector-effect="non-scaling-stroke" stroke-width="1" stroke="rgb(191,191,191)" stroke-opacity="100" stroke-linejoin="miter" stroke-linecap="square" stroke-miterlimit="3"/></g></g><path d=" M 437 -247.683 L 695.499 -245.793 L 437 -225 L 437 -247.683 Z " fill="none" vector-effect="non-scaling-stroke" stroke-width="1" stroke="rgb(191,191,191)" stroke-opacity="100" stroke-linejoin="miter" stroke-linecap="square" stroke-miterlimit="3"/><path d=" M 948.499 -247.683 L 948.499 -225 L 690 -245.793 L 948.499 -247.683 Z " fill="none" vector-effect="non-scaling-stroke" stroke-width="1" stroke="rgb(191,191,191)" stroke-opacity="100" stroke-linejoin="miter" stroke-linecap="square" stroke-miterlimit="3"/><g style="opacity:0.5;"><g opacity="0.5"><path d=" M 437 -225 L 695.499 -245.793 L 948.499 -225 L 437 -225 Z " fill="rgb(240,239,239)" vector-effect="non-scaling-stroke" stroke-width="1" stroke="rgb(191,191,191)" stroke-opacity="100" stroke-linejoin="miter" stroke-linecap="square" stroke-miterlimit="3"/></g></g><path d=" M 814.382 -296.33 L 814.382 -296.33 L 814.382 -296.33 Q 814.382 -293.569 812.19 -291.824 L 812.19 -291.824 L 812.19 -291.824 Q 809.999 -290.079 806.125 -289.622 L 806.125 -289.622 L 806.125 -284.718 L 804.333 -284.718 L 804.333 -289.539 L 804.333 -289.539 Q 802.296 -289.58 799.893 -290.005 L 799.893 -290.005 L 799.893 -290.005 Q 797.492 -290.431 796.076 -291.055 L 796.076 -291.055 L 796.076 -293.194 L 796.076 -293.194 Q 797.736 -292.446 800.048 -291.928 L 800.048 -291.928 L 800.048 -291.928 Q 802.363 -291.408 804.333 -291.408 L 804.333 -291.408 L 804.333 -301.959 L 804.333 -301.959 Q 801.122 -302.874 799.573 -303.787 L 799.573 -303.787 L 799.573 -303.787 Q 798.024 -304.702 797.315 -305.948 L 797.315 -305.948 L 797.315 -305.948 Q 796.606 -307.195 796.606 -308.982 L 796.606 -308.982 L 796.606 -308.982 Q 796.606 -311.556 798.699 -313.312 L 798.699 -313.312 L 798.699 -313.312 Q 800.79 -315.066 804.333 -315.482 L 804.333 -315.482 L 804.333 -319.471 L 806.125 -319.471 L 806.125 -315.524 L 806.125 -315.524 Q 810.486 -315.337 813.895 -314.029 L 813.895 -314.029 L 813.163 -312.159 L 813.163 -312.159 Q 810.043 -313.446 806.125 -313.654 L 806.125 -313.654 L 806.125 -303.559 L 806.125 -303.559 Q 810.839 -302.188 812.609 -300.568 L 812.609 -300.568 L 812.609 -300.568 Q 814.382 -298.948 814.382 -296.33 Z  M 811.947 -296.413 L 811.947 -296.413 L 811.947 -296.413 Q 811.947 -298.179 810.553 -299.332 L 810.553 -299.332 L 810.553 -299.332 Q 809.157 -300.485 806.125 -301.317 L 806.125 -301.317 L 806.125 -291.533 L 806.125 -291.533 Q 808.825 -291.803 810.386 -293.09 L 810.386 -293.09 L 810.386 -293.09 Q 811.947 -294.378 811.947 -296.413 Z  M 799.019 -308.982 L 799.019 -308.982 L 799.019 -308.982 Q 799.019 -307.195 800.282 -306.052 L 800.282 -306.052 L 800.282 -306.052 Q 801.543 -304.91 804.333 -304.12 L 804.333 -304.12 L 804.333 -313.53 L 804.333 -313.53 Q 801.698 -313.197 800.359 -311.951 L 800.359 -311.951 L 800.359 -311.951 Q 799.019 -310.706 799.019 -308.982 Z  M 841.075 -289.185 L 841.075 -287.191 L 820.822 -287.191 L 820.822 -289.019 L 829.433 -297.453 L 829.433 -297.453 Q 833.062 -300.984 834.525 -302.853 L 834.525 -302.853 L 834.525 -302.853 Q 835.985 -304.723 836.672 -306.426 L 836.672 -306.426 L 836.672 -306.426 Q 837.357 -308.129 837.357 -309.999 L 837.357 -309.999 L 837.357 -309.999 Q 837.357 -312.721 835.453 -314.424 L 835.453 -314.424 L 835.453 -314.424 Q 833.55 -316.127 830.518 -316.127 L 830.518 -316.127 L 830.518 -316.127 Q 826.468 -316.127 822.769 -313.363 L 822.769 -313.363 L 821.575 -314.796 L 821.575 -314.796 Q 825.626 -317.996 830.563 -317.996 L 830.563 -317.996 L 830.563 -317.996 Q 834.789 -317.996 837.214 -315.877 L 837.214 -315.877 L 837.214 -315.877 Q 839.637 -313.758 839.637 -310.04 L 839.637 -310.04 L 839.637 -310.04 Q 839.637 -307.029 838.01 -304.214 L 838.01 -304.214 L 838.01 -304.214 Q 836.384 -301.4 832.067 -297.266 L 832.067 -297.266 L 823.767 -289.268 L 823.767 -289.185 L 841.075 -289.185 Z  M 848.137 -292.134 L 850.728 -292.134 L 850.992 -291.699 L 850.992 -291.699 Q 849.332 -286.195 847.14 -281.707 L 847.14 -281.707 L 845.702 -281.707 L 845.702 -281.707 Q 847.406 -287.42 848.137 -292.134 L 848.137 -292.134 Z  M 877.288 -302.458 L 877.288 -302.458 L 877.288 -302.458 Q 877.288 -294.461 874.688 -290.618 L 874.688 -290.618 L 874.688 -290.618 Q 872.087 -286.775 866.82 -286.775 L 866.82 -286.775 L 866.82 -286.775 Q 861.75 -286.775 859.115 -290.733 L 859.115 -290.733 L 859.115 -290.733 Q 856.483 -294.69 856.483 -302.458 L 856.483 -302.458 L 856.483 -302.458 Q 856.483 -310.394 859.039 -314.216 L 859.039 -314.216 L 859.039 -314.216 Q 861.595 -318.038 866.82 -318.038 L 866.82 -318.038 L 866.82 -318.038 Q 871.932 -318.038 874.611 -314.08 L 874.611 -314.08 L 874.611 -314.08 Q 877.288 -310.123 877.288 -302.458 Z  M 858.873 -302.458 L 858.873 -302.458 L 858.873 -302.458 Q 858.873 -295.396 860.843 -292.02 L 860.843 -292.02 L 860.843 -292.02 Q 862.813 -288.645 866.82 -288.645 L 866.82 -288.645 L 866.82 -288.645 Q 871.001 -288.645 872.917 -292.134 L 872.917 -292.134 L 872.917 -292.134 Q 874.833 -295.625 874.833 -302.458 L 874.833 -302.458 L 874.833 -302.458 Q 874.833 -309.188 872.917 -312.679 L 872.917 -312.679 L 872.917 -312.679 Q 871.001 -316.168 866.82 -316.168 L 866.82 -316.168 L 866.82 -316.168 Q 862.636 -316.168 860.755 -312.679 L 860.755 -312.679 L 860.755 -312.679 Q 858.873 -309.188 858.873 -302.458 Z  M 903.166 -302.458 L 903.166 -302.458 L 903.166 -302.458 Q 903.166 -294.461 900.563 -290.618 L 900.563 -290.618 L 900.563 -290.618 Q 897.963 -286.775 892.695 -286.775 L 892.695 -286.775 L 892.695 -286.775 Q 887.625 -286.775 884.993 -290.733 L 884.993 -290.733 L 884.993 -290.733 Q 882.358 -294.69 882.358 -302.458 L 882.358 -302.458 L 882.358 -302.458 Q 882.358 -310.394 884.914 -314.216 L 884.914 -314.216 L 884.914 -314.216 Q 887.47 -318.038 892.695 -318.038 L 892.695 -318.038 L 892.695 -318.038 Q 897.808 -318.038 900.487 -314.08 L 900.487 -314.08 L 900.487 -314.08 Q 903.166 -310.123 903.166 -302.458 Z  M 884.749 -302.458 L 884.749 -302.458 L 884.749 -302.458 Q 884.749 -295.396 886.719 -292.02 L 886.719 -292.02 L 886.719 -292.02 Q 888.689 -288.645 892.695 -288.645 L 892.695 -288.645 L 892.695 -288.645 Q 896.879 -288.645 898.793 -292.134 L 898.793 -292.134 L 898.793 -292.134 Q 900.708 -295.625 900.708 -302.458 L 900.708 -302.458 L 900.708 -302.458 Q 900.708 -309.188 898.793 -312.679 L 898.793 -312.679 L 898.793 -312.679 Q 896.879 -316.168 892.695 -316.168 L 892.695 -316.168 L 892.695 -316.168 Q 888.512 -316.168 886.63 -312.679 L 886.63 -312.679 L 886.63 -312.679 Q 884.749 -309.188 884.749 -302.458 Z  M 929.041 -302.458 L 929.041 -302.458 L 929.041 -302.458 Q 929.041 -294.461 926.439 -290.618 L 926.439 -290.618 L 926.439 -290.618 Q 923.838 -286.775 918.571 -286.775 L 918.571 -286.775 L 918.571 -286.775 Q 913.501 -286.775 910.868 -290.733 L 910.868 -290.733 L 910.868 -290.733 Q 908.233 -294.69 908.233 -302.458 L 908.233 -302.458 L 908.233 -302.458 Q 908.233 -310.394 910.79 -314.216 L 910.79 -314.216 L 910.79 -314.216 Q 913.346 -318.038 918.571 -318.038 L 918.571 -318.038 L 918.571 -318.038 Q 923.683 -318.038 926.362 -314.08 L 926.362 -314.08 L 926.362 -314.08 Q 929.041 -310.123 929.041 -302.458 Z  M 910.624 -302.458 L 910.624 -302.458 L 910.624 -302.458 Q 910.624 -295.396 912.594 -292.02 L 912.594 -292.02 L 912.594 -292.02 Q 914.564 -288.645 918.571 -288.645 L 918.571 -288.645 L 918.571 -288.645 Q 922.754 -288.645 924.668 -292.134 L 924.668 -292.134 L 924.668 -292.134 Q 926.584 -295.625 926.584 -302.458 L 926.584 -302.458 L 926.584 -302.458 Q 926.584 -309.188 924.668 -312.679 L 924.668 -312.679 L 924.668 -312.679 Q 922.754 -316.168 918.571 -316.168 L 918.571 -316.168 L 918.571 -316.168 Q 914.387 -316.168 912.506 -312.679 L 912.506 -312.679 L 912.506 -312.679 Q 910.624 -309.188 910.624 -302.458 Z  M 778.633 -297.825 L 768.12 -297.825 L 768.12 -299.53 L 778.633 -299.53 L 778.633 -297.825 Z  M 672.496 -287.191 L 654.811 -287.191 L 654.811 -317.56 L 657.069 -317.56 L 657.069 -289.185 L 672.496 -289.185 L 672.496 -287.191 Z  M 687.238 -286.775 L 687.238 -286.775 L 687.238 -286.775 Q 681.991 -286.775 679.058 -289.809 L 679.058 -289.809 L 679.058 -289.809 Q 676.126 -292.841 676.126 -298.304 L 676.126 -298.304 L 676.126 -298.304 Q 676.126 -303.704 678.96 -306.955 L 678.96 -306.955 L 678.96 -306.955 Q 681.792 -310.207 686.596 -310.207 L 686.596 -310.207 L 686.596 -310.207 Q 690.846 -310.207 693.303 -307.422 L 693.303 -307.422 L 693.303 -307.422 Q 695.759 -304.64 695.759 -299.861 L 695.759 -299.861 L 695.759 -298.2 L 678.428 -298.2 L 678.428 -298.2 Q 678.472 -293.548 680.74 -291.096 L 680.74 -291.096 L 680.74 -291.096 Q 683.01 -288.645 687.238 -288.645 L 687.238 -288.645 L 687.238 -288.645 Q 689.297 -288.645 690.856 -288.915 L 690.856 -288.915 L 690.856 -288.915 Q 692.417 -289.185 694.808 -290.079 L 694.808 -290.079 L 694.808 -288.21 L 694.808 -288.21 Q 692.772 -287.378 691.045 -287.078 L 691.045 -287.078 L 691.045 -287.078 Q 689.319 -286.775 687.238 -286.775 Z  M 686.596 -308.379 L 686.596 -308.379 L 686.596 -308.379 Q 683.121 -308.379 681.018 -306.229 L 681.018 -306.229 L 681.018 -306.229 Q 678.915 -304.078 678.561 -300.028 L 678.561 -300.028 L 693.436 -300.028 L 693.436 -300.028 Q 693.436 -303.954 691.622 -306.167 L 691.622 -306.167 L 691.622 -306.167 Q 689.805 -308.379 686.596 -308.379 Z  M 709.881 -287.191 L 707.669 -287.191 L 698.371 -309.77 L 700.629 -309.77 L 706.85 -294.419 L 706.85 -294.419 Q 708.088 -291.47 708.709 -289.268 L 708.709 -289.268 L 708.842 -289.268 L 708.842 -289.268 Q 709.75 -292.094 710.701 -294.461 L 710.701 -294.461 L 716.921 -309.77 L 719.179 -309.77 L 709.881 -287.191 Z  M 732.924 -286.775 L 732.924 -286.775 L 732.924 -286.775 Q 727.679 -286.775 724.746 -289.809 L 724.746 -289.809 L 724.746 -289.809 Q 721.814 -292.841 721.814 -298.304 L 721.814 -298.304 L 721.814 -298.304 Q 721.814 -303.704 724.646 -306.955 L 724.646 -306.955 L 724.646 -306.955 Q 727.48 -310.207 732.282 -310.207 L 732.282 -310.207 L 732.282 -310.207 Q 736.532 -310.207 738.989 -307.422 L 738.989 -307.422 L 738.989 -307.422 Q 741.447 -304.64 741.447 -299.861 L 741.447 -299.861 L 741.447 -298.2 L 724.114 -298.2 L 724.114 -298.2 Q 724.158 -293.548 726.428 -291.096 L 726.428 -291.096 L 726.428 -291.096 Q 728.696 -288.645 732.924 -288.645 L 732.924 -288.645 L 732.924 -288.645 Q 734.983 -288.645 736.544 -288.915 L 736.544 -288.915 L 736.544 -288.915 Q 738.103 -289.185 740.494 -290.079 L 740.494 -290.079 L 740.494 -288.21 L 740.494 -288.21 Q 738.458 -287.378 736.731 -287.078 L 736.731 -287.078 L 736.731 -287.078 Q 735.005 -286.775 732.924 -286.775 Z  M 732.282 -308.379 L 732.282 -308.379 L 732.282 -308.379 Q 728.807 -308.379 726.704 -306.229 L 726.704 -306.229 L 726.704 -306.229 Q 724.601 -304.078 724.247 -300.028 L 724.247 -300.028 L 739.122 -300.028 L 739.122 -300.028 Q 739.122 -303.954 737.307 -306.167 L 737.307 -306.167 L 737.307 -306.167 Q 735.493 -308.379 732.282 -308.379 Z  M 750.277 -319.512 L 750.277 -287.191 L 748.088 -287.191 L 748.088 -319.512 L 750.277 -319.512 Z  M 481.028 -302.666 L 481.028 -302.666 L 481.028 -302.666 Q 481.028 -295.022 476.756 -291.108 L 476.756 -291.108 L 476.756 -291.108 Q 472.484 -287.191 464.205 -287.191 L 464.205 -287.191 L 456.458 -287.191 L 456.458 -317.56 L 465.202 -317.56 L 465.202 -317.56 Q 472.949 -317.56 476.99 -313.758 L 476.99 -313.758 L 476.99 -313.758 Q 481.028 -309.957 481.028 -302.666 Z  M 478.571 -302.583 L 478.571 -302.583 L 478.571 -302.583 Q 478.571 -309.106 475.042 -312.397 L 475.042 -312.397 L 475.042 -312.397 Q 471.511 -315.69 464.67 -315.69 L 464.67 -315.69 L 458.716 -315.69 L 458.716 -289.06 L 464.074 -289.06 L 464.074 -289.06 Q 478.571 -289.06 478.571 -302.583 Z  M 490.105 -309.77 L 490.105 -287.191 L 487.913 -287.191 L 487.913 -309.77 L 490.105 -309.77 Z  M 487.603 -316.044 L 487.603 -316.044 L 487.603 -316.044 Q 487.603 -318.038 488.997 -318.038 L 488.997 -318.038 L 488.997 -318.038 Q 489.684 -318.038 490.07 -317.518 L 490.07 -317.518 L 490.07 -317.518 Q 490.457 -316.998 490.457 -316.044 L 490.457 -316.044 L 490.457 -316.044 Q 490.457 -315.108 490.07 -314.569 L 490.07 -314.569 L 490.07 -314.569 Q 489.684 -314.029 488.997 -314.029 L 488.997 -314.029 L 488.997 -314.029 Q 487.603 -314.029 487.603 -316.044 Z  M 514.387 -287.191 L 512.769 -287.191 L 512.217 -290.763 L 512.04 -290.763 L 512.04 -290.763 Q 510.225 -288.582 508.31 -287.679 L 508.31 -287.679 L 508.31 -287.679 Q 506.396 -286.775 503.784 -286.775 L 503.784 -286.775 L 503.784 -286.775 Q 500.243 -286.775 498.273 -288.478 L 498.273 -288.478 L 498.273 -288.478 Q 496.303 -290.183 496.303 -293.194 L 496.303 -293.194 L 496.303 -293.194 Q 496.303 -296.497 499.235 -298.324 L 499.235 -298.324 L 499.235 -298.324 Q 502.168 -300.152 507.724 -300.256 L 507.724 -300.256 L 512.306 -300.381 L 512.306 -301.876 L 512.306 -301.876 Q 512.306 -305.097 510.91 -306.738 L 510.91 -306.738 L 510.91 -306.738 Q 509.516 -308.379 506.416 -308.379 L 506.416 -308.379 L 506.416 -308.379 Q 503.075 -308.379 499.489 -306.634 L 499.489 -306.634 L 498.669 -308.42 L 498.669 -308.42 Q 502.631 -310.165 506.505 -310.165 L 506.505 -310.165 L 506.505 -310.165 Q 510.467 -310.165 512.427 -308.233 L 512.427 -308.233 L 512.427 -308.233 Q 514.387 -306.301 514.387 -302.209 L 514.387 -302.209 L 514.387 -287.191 Z  M 503.917 -288.645 L 503.917 -288.645 L 503.917 -288.645 Q 507.768 -288.645 509.992 -290.712 L 509.992 -290.712 L 509.992 -290.712 Q 512.217 -292.778 512.217 -296.455 L 512.217 -296.455 L 512.217 -298.678 L 508.012 -298.512 L 508.012 -298.512 Q 502.942 -298.283 500.784 -297.026 L 500.784 -297.026 L 500.784 -297.026 Q 498.625 -295.771 498.625 -293.111 L 498.625 -293.111 L 498.625 -293.111 Q 498.625 -290.992 500.009 -289.818 L 500.009 -289.818 L 500.009 -289.818 Q 501.393 -288.645 503.917 -288.645 Z  M 554.407 -287.191 L 552.237 -287.191 L 552.237 -302.001 L 552.237 -302.001 Q 552.237 -305.305 550.863 -306.821 L 550.863 -306.821 L 550.863 -306.821 Q 549.492 -308.337 546.66 -308.337 L 546.66 -308.337 L 546.66 -308.337 Q 542.961 -308.337 541.191 -306.426 L 541.191 -306.426 L 541.191 -306.426 Q 539.42 -304.515 539.42 -300.423 L 539.42 -300.423 L 539.42 -287.191 L 537.184 -287.191 L 537.184 -302.625 L 537.184 -302.625 Q 537.184 -308.337 531.607 -308.337 L 531.607 -308.337 L 531.607 -308.337 Q 527.822 -308.337 526.096 -306.271 L 526.096 -306.271 L 526.096 -306.271 Q 524.37 -304.203 524.37 -299.655 L 524.37 -299.655 L 524.37 -287.191 L 522.178 -287.191 L 522.178 -309.77 L 523.993 -309.77 L 524.458 -306.676 L 524.589 -306.676 L 524.589 -306.676 Q 525.586 -308.358 527.423 -309.282 L 527.423 -309.282 L 527.423 -309.282 Q 529.26 -310.207 531.474 -310.207 L 531.474 -310.207 L 531.474 -310.207 Q 537.162 -310.207 538.778 -306.197 L 538.778 -306.197 L 538.866 -306.197 L 538.866 -306.197 Q 540.041 -308.129 542.021 -309.167 L 542.021 -309.167 L 542.021 -309.167 Q 544.003 -310.207 546.527 -310.207 L 546.527 -310.207 L 546.527 -310.207 Q 550.467 -310.207 552.437 -308.233 L 552.437 -308.233 L 552.437 -308.233 Q 554.407 -306.26 554.407 -301.959 L 554.407 -301.959 L 554.407 -287.191 Z  M 582.097 -298.512 L 582.097 -298.512 L 582.097 -298.512 Q 582.097 -292.986 579.241 -289.881 L 579.241 -289.881 L 579.241 -289.881 Q 576.386 -286.775 571.361 -286.775 L 571.361 -286.775 L 571.361 -286.775 Q 568.196 -286.775 565.783 -288.21 L 565.783 -288.21 L 565.783 -288.21 Q 563.37 -289.643 562.087 -292.321 L 562.087 -292.321 L 562.087 -292.321 Q 560.802 -295.001 560.802 -298.512 L 560.802 -298.512 L 560.802 -298.512 Q 560.802 -304.037 563.658 -307.122 L 563.658 -307.122 L 563.658 -307.122 Q 566.514 -310.207 571.494 -310.207 L 571.494 -310.207 L 571.494 -310.207 Q 576.453 -310.207 579.275 -307.08 L 579.275 -307.08 L 579.275 -307.08 Q 582.097 -303.954 582.097 -298.512 Z  M 563.104 -298.512 L 563.104 -298.512 L 563.104 -298.512 Q 563.104 -293.86 565.286 -291.251 L 565.286 -291.251 L 565.286 -291.251 Q 567.465 -288.645 571.449 -288.645 L 571.449 -288.645 L 571.449 -288.645 Q 575.434 -288.645 577.615 -291.251 L 577.615 -291.251 L 577.615 -291.251 Q 579.795 -293.86 579.795 -298.512 L 579.795 -298.512 L 579.795 -298.512 Q 579.795 -303.186 577.593 -305.761 L 577.593 -305.761 L 577.593 -305.761 Q 575.389 -308.337 571.405 -308.337 L 571.405 -308.337 L 571.405 -308.337 Q 567.421 -308.337 565.264 -305.772 L 565.264 -305.772 L 565.264 -305.772 Q 563.104 -303.207 563.104 -298.512 Z  M 607.707 -287.191 L 605.537 -287.191 L 605.537 -301.835 L 605.537 -301.835 Q 605.537 -305.243 604.01 -306.789 L 604.01 -306.789 L 604.01 -306.789 Q 602.483 -308.337 599.273 -308.337 L 599.273 -308.337 L 599.273 -308.337 Q 594.958 -308.337 592.954 -306.29 L 592.954 -306.29 L 592.954 -306.29 Q 590.952 -304.245 590.952 -299.655 L 590.952 -299.655 L 590.952 -287.191 L 588.76 -287.191 L 588.76 -309.77 L 590.619 -309.77 L 591.038 -306.676 L 591.171 -306.676 L 591.171 -306.676 Q 593.518 -310.207 599.516 -310.207 L 599.516 -310.207 L 599.516 -310.207 Q 607.707 -310.207 607.707 -301.959 L 607.707 -301.959 L 607.707 -287.191 Z  M 624.308 -310.207 L 624.308 -310.207 L 624.308 -310.207 Q 626.921 -310.207 628.824 -309.312 L 628.824 -309.312 L 628.824 -309.312 Q 630.728 -308.42 632.232 -306.26 L 632.232 -306.26 L 632.365 -306.26 L 632.365 -306.26 Q 632.232 -308.878 632.232 -311.39 L 632.232 -311.39 L 632.232 -319.512 L 634.402 -319.512 L 634.402 -287.191 L 632.964 -287.191 L 632.41 -290.639 L 632.232 -290.639 L 632.232 -290.639 Q 629.487 -286.775 624.353 -286.775 L 624.353 -286.775 L 624.353 -286.775 Q 619.371 -286.775 616.739 -289.684 L 616.739 -289.684 L 616.739 -289.684 Q 614.104 -292.591 614.104 -298.158 L 614.104 -298.158 L 614.104 -298.158 Q 614.104 -304.016 616.716 -307.112 L 616.716 -307.112 L 616.716 -307.112 Q 619.327 -310.207 624.308 -310.207 Z  M 624.308 -308.337 L 624.308 -308.337 L 624.308 -308.337 Q 620.368 -308.337 618.386 -305.74 L 618.386 -305.74 L 618.386 -305.74 Q 616.406 -303.145 616.406 -298.2 L 616.406 -298.2 L 616.406 -298.2 Q 616.406 -288.603 624.353 -288.603 L 624.353 -288.603 L 624.353 -288.603 Q 628.425 -288.603 630.329 -290.826 L 630.329 -290.826 L 630.329 -290.826 Q 632.232 -293.049 632.232 -298.158 L 632.232 -298.158 L 632.232 -298.512 L 632.232 -298.512 Q 632.232 -303.746 630.361 -306.042 L 630.361 -306.042 L 630.361 -306.042 Q 628.492 -308.337 624.308 -308.337 Z " fill-rule="evenodd" fill="rgb(147,147,147)"/></g></svg>