<?xml version="1.0" standalone="no"?><!-- Generator: Gravit.io --><svg xmlns="http://www.w3.org/2000/svg" xmlns:xlink="http://www.w3.org/1999/xlink" style="isolation:isolate" viewBox="371 -22 651 155" width="651" height="155"><g><path d=" M 388.158 -22 L 1004.842 -22 C 1014.311 -22 1022 -13.886 1022 -3.893 L 1022 114.893 C 1022 124.886 1014.311 133 1004.842 133 L 388.158 133 C 378.689 133 371 124.886 371 114.893 L 371 -3.893 C 371 -13.886 378.689 -22 388.158 -22 Z " fill="rgb(177,122,11)"/><path d=" M 371 -4 L 392.873 12 C 394.431 4.912 398.966 0.932 406.415 -2 L 387.665 -22 C 376.816 -20.324 371.271 -14.314 371 -4 Z " fill="rgb(223,163,39)"/><path d=" M 390.675 132.992 L 406.269 111.247 C 398.819 110.094 396.282 104.002 392.873 97 L 371.146 117.877 C 373.412 128.2 379.931 133.228 390.675 132.992 Z " fill="rgb(223,163,39)"/><path d=" M 1021.998 114.427 L 999.529 99.206 C 998.243 106.344 991.869 108.709 984.537 111.901 L 1006.03 133 C 1016.808 130.944 1022.12 124.743 1021.998 114.427 Z " fill="rgb(223,163,39)"/><path d=" M 1007.667 -21.894 L 981.513 -2.059 C 988.31 1.086 993.679 4.355 994.865 12 L 1021.894 -2.059 C 1022.789 -12.574 1018.034 -19.179 1007.667 -21.894 Z " fill="rgb(223,163,39)"/><path d=" M 410.82 1.167 L 982.18 1.167 C 989.785 1.167 995.96 7.683 995.96 15.709 L 995.96 95.291 C 995.96 103.317 989.785 109.833 982.18 109.833 L 410.82 109.833 C 403.215 109.833 397.04 103.317 397.04 95.291 L 397.04 15.709 C 397.04 7.683 403.215 1.167 410.82 1.167 Z " fill="rgb(237,234,125)" vector-effect="non-scaling-stroke" stroke-width="10" stroke="rgb(245,232,129)" stroke-opacity="100" stroke-linejoin="miter" stroke-linecap="square" stroke-miterlimit="3"/><linearGradient id="_lgradient_20" x1="0" y1="0.5" x2="1" y2="0.5" gradientTransform="matrix(276.557,0,0,108.666,397.04,1.167)" gradientUnits="userSpaceOnUse"><stop offset="0%" stop-opacity="1" style="stop-color:rgb(210,154,33)"/><stop offset="100%" stop-opacity="1" style="stop-color:rgb(230,193,61)"/></linearGradient><path d=" M 673.597 109.833 L 411.487 109.833 C 403.514 109.833 397.04 103.618 397.04 95.963 L 397.04 15.037 C 397.04 7.382 403.514 1.167 411.487 1.167 L 605.332 1.167 L 673.597 109.833 L 673.597 109.833 Z " fill="url(#_lgradient_20)"/><linearGradient id="_lgradient_21" x1="0" y1="0.5" x2="0.9999999999999991" y2="0.5" gradientTransform="matrix(220.482,0,0,108.666,605.332,1.167)" gradientUnits="userSpaceOnUse"><stop offset="0%" stop-opacity="1" style="stop-color:rgb(230,193,61)"/><stop offset="100%" stop-opacity="1" style="stop-color:rgb(237,234,125)"/></linearGradient><path d=" M 825.814 109.833 L 673.597 109.833 L 673.597 109.833 C 630.368 80.944 607.623 44.732 605.332 1.167 L 754.841 1.167 C 740.527 17.453 777.419 92.224 825.814 109.833 L 825.814 109.833 Z " fill="url(#_lgradient_21)"/><path d=" M 825.814 109.833 L 981.513 109.833 C 989.486 109.833 995.96 103.618 995.96 95.963 L 995.96 15.037 C 995.96 7.382 989.486 1.167 981.513 1.167 L 754.841 1.167 L 825.814 109.833 L 825.814 109.833 Z " fill="rgb(237,234,125)" vector-effect="non-scaling-stroke" stroke-width="10" stroke="rgb(245,232,129)" stroke-opacity="100" stroke-linejoin="miter" stroke-linecap="square" stroke-miterlimit="3"/><path d=" M 805.005 62.519 L 805.005 62.519 L 805.005 62.519 Q 805.005 65.87 802.51 67.987 L 802.51 67.987 L 802.51 67.987 Q 800.015 70.104 795.605 70.659 L 795.605 70.659 L 795.605 76.606 L 793.564 76.606 L 793.564 70.76 L 793.564 70.76 Q 791.245 70.709 788.511 70.192 L 788.511 70.192 L 788.511 70.192 Q 785.777 69.676 784.164 68.92 L 784.164 68.92 L 784.164 66.324 L 784.164 66.324 Q 786.054 67.231 788.687 67.861 L 788.687 67.861 L 788.687 67.861 Q 791.321 68.491 793.564 68.491 L 793.564 68.491 L 793.564 55.689 L 793.564 55.689 Q 789.91 54.58 788.145 53.471 L 788.145 53.471 L 788.145 53.471 Q 786.381 52.362 785.575 50.85 L 785.575 50.85 L 785.575 50.85 Q 784.768 49.338 784.768 47.171 L 784.768 47.171 L 784.768 47.171 Q 784.768 44.046 787.15 41.916 L 787.15 41.916 L 787.15 41.916 Q 789.532 39.787 793.564 39.283 L 793.564 39.283 L 793.564 34.444 L 795.605 34.444 L 795.605 39.232 L 795.605 39.232 Q 800.57 39.459 804.451 41.047 L 804.451 41.047 L 803.619 43.315 L 803.619 43.315 Q 800.066 41.753 795.605 41.501 L 795.605 41.501 L 795.605 53.748 L 795.605 53.748 Q 800.973 55.412 802.989 57.378 L 802.989 57.378 L 802.989 57.378 Q 805.005 59.343 805.005 62.519 Z  M 802.233 62.418 L 802.233 62.418 L 802.233 62.418 Q 802.233 60.276 800.645 58.877 L 800.645 58.877 L 800.645 58.877 Q 799.058 57.478 795.605 56.47 L 795.605 56.47 L 795.605 68.34 L 795.605 68.34 Q 798.68 68.013 800.456 66.45 L 800.456 66.45 L 800.456 66.45 Q 802.233 64.888 802.233 62.418 Z  M 787.515 47.171 L 787.515 47.171 L 787.515 47.171 Q 787.515 49.338 788.952 50.724 L 788.952 50.724 L 788.952 50.724 Q 790.388 52.11 793.564 53.068 L 793.564 53.068 L 793.564 41.652 L 793.564 41.652 Q 790.565 42.055 789.04 43.567 L 789.04 43.567 L 789.04 43.567 Q 787.515 45.079 787.515 47.171 Z  M 823.024 51.455 L 823.024 51.455 L 823.024 51.455 Q 828.922 51.455 832.311 54.303 L 832.311 54.303 L 832.311 54.303 Q 835.701 57.151 835.701 62.141 L 835.701 62.141 L 835.701 62.141 Q 835.701 67.811 832.173 70.961 L 832.173 70.961 L 832.173 70.961 Q 828.644 74.111 822.445 74.111 L 822.445 74.111 L 822.445 74.111 Q 819.698 74.111 817.228 73.57 L 817.228 73.57 L 817.228 73.57 Q 814.758 73.028 813.095 72.02 L 813.095 72.02 L 813.095 69.424 L 813.095 69.424 Q 815.817 70.81 817.934 71.352 L 817.934 71.352 L 817.934 71.352 Q 820.051 71.894 822.445 71.894 L 822.445 71.894 L 822.445 71.894 Q 827.283 71.894 830.207 69.336 L 830.207 69.336 L 830.207 69.336 Q 833.13 66.778 833.13 62.418 L 833.13 62.418 L 833.13 62.418 Q 833.13 58.31 830.282 55.966 L 830.282 55.966 L 830.282 55.966 Q 827.435 53.622 822.546 53.622 L 822.546 53.622 L 822.546 53.622 Q 819.269 53.622 815.691 54.605 L 815.691 54.605 L 814.179 53.622 L 815.64 36.763 L 833.382 36.763 L 833.382 39.182 L 818.009 39.182 L 816.875 52.186 L 816.875 52.186 Q 820.807 51.455 823.024 51.455 Z  M 865.539 55.084 L 865.539 55.084 L 865.539 55.084 Q 865.539 64.787 862.578 69.449 L 862.578 69.449 L 862.578 69.449 Q 859.617 74.111 853.619 74.111 L 853.619 74.111 L 853.619 74.111 Q 847.848 74.111 844.849 69.31 L 844.849 69.31 L 844.849 69.31 Q 841.85 64.51 841.85 55.084 L 841.85 55.084 L 841.85 55.084 Q 841.85 45.457 844.761 40.82 L 844.761 40.82 L 844.761 40.82 Q 847.672 36.183 853.619 36.183 L 853.619 36.183 L 853.619 36.183 Q 859.441 36.183 862.49 40.984 L 862.49 40.984 L 862.49 40.984 Q 865.539 45.785 865.539 55.084 Z  M 844.572 55.084 L 844.572 55.084 L 844.572 55.084 Q 844.572 63.653 846.815 67.748 L 846.815 67.748 L 846.815 67.748 Q 849.058 71.843 853.619 71.843 L 853.619 71.843 L 853.619 71.843 Q 858.382 71.843 860.562 67.609 L 860.562 67.609 L 860.562 67.609 Q 862.742 63.375 862.742 55.084 L 862.742 55.084 L 862.742 55.084 Q 862.742 46.919 860.562 42.685 L 860.562 42.685 L 860.562 42.685 Q 858.382 38.451 853.619 38.451 L 853.619 38.451 L 853.619 38.451 Q 848.856 38.451 846.714 42.685 L 846.714 42.685 L 846.714 42.685 Q 844.572 46.919 844.572 55.084 Z  M 895 55.084 L 895 55.084 L 895 55.084 Q 895 64.787 892.039 69.449 L 892.039 69.449 L 892.039 69.449 Q 889.078 74.111 883.08 74.111 L 883.08 74.111 L 883.08 74.111 Q 877.309 74.111 874.31 69.31 L 874.31 69.31 L 874.31 69.31 Q 871.311 64.51 871.311 55.084 L 871.311 55.084 L 871.311 55.084 Q 871.311 45.457 874.221 40.82 L 874.221 40.82 L 874.221 40.82 Q 877.132 36.183 883.08 36.183 L 883.08 36.183 L 883.08 36.183 Q 888.901 36.183 891.951 40.984 L 891.951 40.984 L 891.951 40.984 Q 895 45.785 895 55.084 Z  M 874.032 55.084 L 874.032 55.084 L 874.032 55.084 Q 874.032 63.653 876.275 67.748 L 876.275 67.748 L 876.275 67.748 Q 878.518 71.843 883.08 71.843 L 883.08 71.843 L 883.08 71.843 Q 887.843 71.843 890.023 67.609 L 890.023 67.609 L 890.023 67.609 Q 892.203 63.375 892.203 55.084 L 892.203 55.084 L 892.203 55.084 Q 892.203 46.919 890.023 42.685 L 890.023 42.685 L 890.023 42.685 Q 887.843 38.451 883.08 38.451 L 883.08 38.451 L 883.08 38.451 Q 878.317 38.451 876.174 42.685 L 876.174 42.685 L 876.174 42.685 Q 874.032 46.919 874.032 55.084 Z  M 764.305 60.704 L 752.334 60.704 L 752.334 58.638 L 764.305 58.638 L 764.305 60.704 Z  M 643.463 73.607 L 623.327 73.607 L 623.327 36.763 L 625.898 36.763 L 625.898 71.188 L 643.463 71.188 L 643.463 73.607 Z  M 660.248 74.111 L 660.248 74.111 L 660.248 74.111 Q 654.275 74.111 650.936 70.432 L 650.936 70.432 L 650.936 70.432 Q 647.596 66.752 647.596 60.124 L 647.596 60.124 L 647.596 60.124 Q 647.596 53.572 650.822 49.628 L 650.822 49.628 L 650.822 49.628 Q 654.048 45.684 659.517 45.684 L 659.517 45.684 L 659.517 45.684 Q 664.355 45.684 667.153 49.061 L 667.153 49.061 L 667.153 49.061 Q 669.95 52.438 669.95 58.234 L 669.95 58.234 L 669.95 60.25 L 650.217 60.25 L 650.217 60.25 Q 650.268 65.896 652.851 68.869 L 652.851 68.869 L 652.851 68.869 Q 655.434 71.843 660.248 71.843 L 660.248 71.843 L 660.248 71.843 Q 662.591 71.843 664.368 71.516 L 664.368 71.516 L 664.368 71.516 Q 666.145 71.188 668.867 70.104 L 668.867 70.104 L 668.867 72.372 L 668.867 72.372 Q 666.548 73.38 664.582 73.746 L 664.582 73.746 L 664.582 73.746 Q 662.617 74.111 660.248 74.111 Z  M 659.517 47.902 L 659.517 47.902 L 659.517 47.902 Q 655.56 47.902 653.166 50.51 L 653.166 50.51 L 653.166 50.51 Q 650.772 53.118 650.369 58.033 L 650.369 58.033 L 667.304 58.033 L 667.304 58.033 Q 667.304 53.27 665.238 50.586 L 665.238 50.586 L 665.238 50.586 Q 663.171 47.902 659.517 47.902 Z  M 686.029 73.607 L 683.509 73.607 L 672.924 46.213 L 675.495 46.213 L 682.576 64.837 L 682.576 64.837 Q 683.987 68.416 684.693 71.087 L 684.693 71.087 L 684.844 71.087 L 684.844 71.087 Q 685.878 67.66 686.961 64.787 L 686.961 64.787 L 694.043 46.213 L 696.613 46.213 L 686.029 73.607 Z  M 712.264 74.111 L 712.264 74.111 L 712.264 74.111 Q 706.291 74.111 702.952 70.432 L 702.952 70.432 L 702.952 70.432 Q 699.612 66.752 699.612 60.124 L 699.612 60.124 L 699.612 60.124 Q 699.612 53.572 702.838 49.628 L 702.838 49.628 L 702.838 49.628 Q 706.064 45.684 711.533 45.684 L 711.533 45.684 L 711.533 45.684 Q 716.371 45.684 719.169 49.061 L 719.169 49.061 L 719.169 49.061 Q 721.966 52.438 721.966 58.234 L 721.966 58.234 L 721.966 60.25 L 702.233 60.25 L 702.233 60.25 Q 702.284 65.896 704.867 68.869 L 704.867 68.869 L 704.867 68.869 Q 707.45 71.843 712.264 71.843 L 712.264 71.843 L 712.264 71.843 Q 714.607 71.843 716.384 71.516 L 716.384 71.516 L 716.384 71.516 Q 718.161 71.188 720.883 70.104 L 720.883 70.104 L 720.883 72.372 L 720.883 72.372 Q 718.564 73.38 716.598 73.746 L 716.598 73.746 L 716.598 73.746 Q 714.633 74.111 712.264 74.111 Z  M 711.533 47.902 L 711.533 47.902 L 711.533 47.902 Q 707.576 47.902 705.182 50.51 L 705.182 50.51 L 705.182 50.51 Q 702.788 53.118 702.385 58.033 L 702.385 58.033 L 719.32 58.033 L 719.32 58.033 Q 719.32 53.27 717.254 50.586 L 717.254 50.586 L 717.254 50.586 Q 715.187 47.902 711.533 47.902 Z  M 732.022 34.394 L 732.022 73.607 L 729.527 73.607 L 729.527 34.394 L 732.022 34.394 Z  M 514.457 57.453 L 514.457 55.034 L 528.04 55.034 L 528.04 71.843 L 528.04 71.843 Q 522.698 74.111 516.019 74.111 L 516.019 74.111 L 516.019 74.111 Q 507.299 74.111 502.65 69.184 L 502.65 69.184 L 502.65 69.184 Q 498 64.258 498 55.235 L 498 55.235 L 498 55.235 Q 498 49.615 500.306 45.268 L 500.306 45.268 L 500.306 45.268 Q 502.612 40.921 506.909 38.552 L 506.909 38.552 L 506.909 38.552 Q 511.206 36.183 516.775 36.183 L 516.775 36.183 L 516.775 36.183 Q 522.798 36.183 527.587 38.401 L 527.587 38.401 L 526.553 40.719 L 526.553 40.719 Q 521.765 38.502 516.624 38.502 L 516.624 38.502 L 516.624 38.502 Q 509.341 38.502 505.069 43 L 505.069 43 L 505.069 43 Q 500.797 47.499 500.797 55.135 L 500.797 55.135 L 500.797 55.135 Q 500.797 63.451 504.855 67.647 L 504.855 67.647 L 504.855 67.647 Q 508.912 71.843 516.775 71.843 L 516.775 71.843 L 516.775 71.843 Q 521.866 71.843 525.419 70.407 L 525.419 70.407 L 525.419 57.453 L 514.457 57.453 Z  M 559.315 59.872 L 559.315 59.872 L 559.315 59.872 Q 559.315 66.576 556.064 70.344 L 556.064 70.344 L 556.064 70.344 Q 552.813 74.111 547.093 74.111 L 547.093 74.111 L 547.093 74.111 Q 543.489 74.111 540.742 72.372 L 540.742 72.372 L 540.742 72.372 Q 537.995 70.634 536.533 67.383 L 536.533 67.383 L 536.533 67.383 Q 535.072 64.132 535.072 59.872 L 535.072 59.872 L 535.072 59.872 Q 535.072 53.169 538.323 49.426 L 538.323 49.426 L 538.323 49.426 Q 541.574 45.684 547.244 45.684 L 547.244 45.684 L 547.244 45.684 Q 552.889 45.684 556.102 49.477 L 556.102 49.477 L 556.102 49.477 Q 559.315 53.27 559.315 59.872 Z  M 537.693 59.872 L 537.693 59.872 L 537.693 59.872 Q 537.693 65.518 540.175 68.68 L 540.175 68.68 L 540.175 68.68 Q 542.657 71.843 547.193 71.843 L 547.193 71.843 L 547.193 71.843 Q 551.73 71.843 554.212 68.68 L 554.212 68.68 L 554.212 68.68 Q 556.694 65.518 556.694 59.872 L 556.694 59.872 L 556.694 59.872 Q 556.694 54.202 554.187 51.077 L 554.187 51.077 L 554.187 51.077 Q 551.679 47.952 547.143 47.952 L 547.143 47.952 L 547.143 47.952 Q 542.607 47.952 540.15 51.065 L 540.15 51.065 L 540.15 51.065 Q 537.693 54.177 537.693 59.872 Z  M 569.396 34.394 L 569.396 73.607 L 566.901 73.607 L 566.901 34.394 L 569.396 34.394 Z  M 588.6 45.684 L 588.6 45.684 L 588.6 45.684 Q 591.573 45.684 593.741 46.768 L 593.741 46.768 L 593.741 46.768 Q 595.908 47.851 597.622 50.472 L 597.622 50.472 L 597.773 50.472 L 597.773 50.472 Q 597.622 47.297 597.622 44.248 L 597.622 44.248 L 597.622 34.394 L 600.092 34.394 L 600.092 73.607 L 598.453 73.607 L 597.823 69.424 L 597.622 69.424 L 597.622 69.424 Q 594.497 74.111 588.65 74.111 L 588.65 74.111 L 588.65 74.111 Q 582.98 74.111 579.981 70.583 L 579.981 70.583 L 579.981 70.583 Q 576.982 67.055 576.982 60.301 L 576.982 60.301 L 576.982 60.301 Q 576.982 53.194 579.956 49.439 L 579.956 49.439 L 579.956 49.439 Q 582.929 45.684 588.6 45.684 Z  M 588.6 47.952 L 588.6 47.952 L 588.6 47.952 Q 584.114 47.952 581.858 51.102 L 581.858 51.102 L 581.858 51.102 Q 579.603 54.253 579.603 60.25 L 579.603 60.25 L 579.603 60.25 Q 579.603 71.894 588.65 71.894 L 588.65 71.894 L 588.65 71.894 Q 593.287 71.894 595.454 69.197 L 595.454 69.197 L 595.454 69.197 Q 597.622 66.5 597.622 60.301 L 597.622 60.301 L 597.622 59.872 L 597.622 59.872 Q 597.622 53.522 595.492 50.737 L 595.492 50.737 L 595.492 50.737 Q 593.363 47.952 588.6 47.952 Z " fill-rule="evenodd" fill="rgb(140,97,10)"/></g></svg>