<?xml version="1.0" standalone="no"?><!-- Generator: Gravit.io --><svg xmlns="http://www.w3.org/2000/svg" xmlns:xlink="http://www.w3.org/1999/xlink" style="isolation:isolate" viewBox="370 -195 653 155" width="653" height="155"><g><path d=" M 387.364 -195 L 1005.637 -195 C 1015.22 -195 1023 -186.958 1023 -177.052 L 1023 -57.948 C 1023 -48.042 1015.22 -40 1005.637 -40 L 387.364 -40 C 377.781 -40 370 -48.042 370 -57.948 L 370 -177.052 C 370 -186.958 377.781 -195 387.364 -195 Z " fill="rgb(116,109,125)"/><path d=" M 370 -177 L 391.941 -161 C 393.503 -168.088 398.051 -172.068 405.523 -175 L 386.717 -195 C 375.833 -193.324 370.272 -187.314 370 -177 Z " fill="rgb(152,143,164)"/><path d=" M 389.735 -40.008 L 405.377 -61.753 C 397.905 -62.906 395.36 -68.998 391.941 -76 L 370.146 -55.123 C 372.419 -44.8 378.959 -39.772 389.735 -40.008 Z " fill="rgb(152,143,164)"/><path d=" M 1022.998 -58.573 L 1000.46 -73.794 C 999.17 -66.656 992.776 -64.291 985.421 -61.099 L 1006.981 -40 C 1017.792 -42.056 1023.121 -48.257 1022.998 -58.573 Z " fill="rgb(152,143,164)"/><path d=" M 1008.623 -194.894 L 982.388 -175.059 C 989.206 -171.914 994.592 -168.645 995.782 -161 L 1022.894 -175.059 C 1023.791 -185.574 1019.022 -192.179 1008.623 -194.894 Z " fill="rgb(152,143,164)"/><path d=" M 410.065 -171.833 L 982.935 -171.833 C 990.631 -171.833 996.88 -165.374 996.88 -157.418 L 996.88 -77.582 C 996.88 -69.626 990.631 -63.167 982.935 -63.167 L 410.065 -63.167 C 402.368 -63.167 396.12 -69.626 396.12 -77.582 L 396.12 -157.418 C 396.12 -165.374 402.368 -171.833 410.065 -171.833 Z " fill="rgb(207,199,217)" vector-effect="non-scaling-stroke" stroke-width="10" stroke="rgb(207,199,217)" stroke-opacity="100" stroke-linejoin="miter" stroke-linecap="square" stroke-miterlimit="3"/><linearGradient id="_lgradient_16" x1="0" y1="0.5" x2="0.9999999999999996" y2="0.5" gradientTransform="matrix(277.407,0,0,108.666,396.12,-171.833)" gradientUnits="userSpaceOnUse"><stop offset="1.7391304347826086%" stop-opacity="1" style="stop-color:rgb(122,116,130)"/><stop offset="100%" stop-opacity="1" style="stop-color:rgb(139,133,147)"/></linearGradient><path d=" M 673.527 -63.167 L 410.612 -63.167 C 402.613 -63.167 396.12 -69.382 396.12 -77.037 L 396.12 -157.963 C 396.12 -165.618 402.613 -171.833 410.612 -171.833 L 605.051 -171.833 L 673.527 -63.167 L 673.527 -63.167 Z " fill="url(#_lgradient_16)"/><linearGradient id="_lgradient_17" x1="0" y1="0.5" x2="1" y2="0.5" gradientTransform="matrix(221.16,0,0,108.666,605.051,-171.833)" gradientUnits="userSpaceOnUse"><stop offset="2.1739130434782608%" stop-opacity="1" style="stop-color:rgb(139,133,147)"/><stop offset="100%" stop-opacity="1" style="stop-color:rgb(207,199,217)"/></linearGradient><path d=" M 826.211 -63.167 L 673.527 -63.167 L 673.527 -63.167 C 630.165 -92.056 607.35 -128.268 605.051 -171.833 L 755.019 -171.833 C 740.663 -155.547 777.667 -80.776 826.211 -63.167 L 826.211 -63.167 Z " fill="url(#_lgradient_17)"/><path d=" M 826.211 -63.167 L 982.388 -63.167 C 990.387 -63.167 996.88 -69.382 996.88 -77.037 L 996.88 -157.963 C 996.88 -165.618 990.387 -171.833 982.388 -171.833 L 755.019 -171.833 L 826.211 -63.167 L 826.211 -63.167 Z " fill="rgb(207,199,217)" vector-effect="non-scaling-stroke" stroke-width="10" stroke="rgb(207,199,217)" stroke-opacity="100" stroke-linejoin="miter" stroke-linecap="square" stroke-miterlimit="3"/><path d=" M 828.223 -112.418 L 828.223 -112.418 L 828.223 -112.418 Q 828.223 -109.138 825.781 -107.065 L 825.781 -107.065 L 825.781 -107.065 Q 823.339 -104.994 819.022 -104.451 L 819.022 -104.451 L 819.022 -98.629 L 817.024 -98.629 L 817.024 -104.353 L 817.024 -104.353 Q 814.755 -104.401 812.079 -104.907 L 812.079 -104.907 L 812.079 -104.907 Q 809.402 -105.413 807.823 -106.153 L 807.823 -106.153 L 807.823 -108.694 L 807.823 -108.694 Q 809.673 -107.806 812.25 -107.189 L 812.25 -107.189 L 812.25 -107.189 Q 814.829 -106.573 817.024 -106.573 L 817.024 -106.573 L 817.024 -119.104 L 817.024 -119.104 Q 813.447 -120.189 811.721 -121.274 L 811.721 -121.274 L 811.721 -121.274 Q 809.994 -122.359 809.205 -123.84 L 809.205 -123.84 L 809.205 -123.84 Q 808.415 -125.319 808.415 -127.441 L 808.415 -127.441 L 808.415 -127.441 Q 808.415 -130.499 810.746 -132.584 L 810.746 -132.584 L 810.746 -132.584 Q 813.077 -134.669 817.024 -135.161 L 817.024 -135.161 L 817.024 -139.898 L 819.022 -139.898 L 819.022 -135.211 L 819.022 -135.211 Q 823.881 -134.989 827.68 -133.436 L 827.68 -133.436 L 826.866 -131.215 L 826.866 -131.215 Q 823.389 -132.744 819.022 -132.991 L 819.022 -132.991 L 819.022 -121.003 L 819.022 -121.003 Q 824.276 -119.375 826.249 -117.45 L 826.249 -117.45 L 826.249 -117.45 Q 828.223 -115.527 828.223 -112.418 Z  M 825.51 -112.517 L 825.51 -112.517 L 825.51 -112.517 Q 825.51 -114.614 823.956 -115.983 L 823.956 -115.983 L 823.956 -115.983 Q 822.402 -117.352 819.022 -118.339 L 819.022 -118.339 L 819.022 -106.721 L 819.022 -106.721 Q 822.031 -107.041 823.77 -108.571 L 823.77 -108.571 L 823.77 -108.571 Q 825.51 -110.1 825.51 -112.517 Z  M 811.104 -127.441 L 811.104 -127.441 L 811.104 -127.441 Q 811.104 -125.319 812.51 -123.963 L 812.51 -123.963 L 812.51 -123.963 Q 813.916 -122.607 817.024 -121.668 L 817.024 -121.668 L 817.024 -132.843 L 817.024 -132.843 Q 814.089 -132.449 812.596 -130.968 L 812.596 -130.968 L 812.596 -130.968 Q 811.104 -129.489 811.104 -127.441 Z  M 849.437 -137.629 L 849.437 -101.564 L 847.019 -101.564 L 847.019 -127.835 L 847.019 -127.835 Q 847.019 -131.412 847.315 -135.261 L 847.315 -135.261 L 847.315 -135.261 Q 846.946 -134.89 846.551 -134.545 L 846.551 -134.545 L 846.551 -134.545 Q 846.157 -134.2 838.929 -128.551 L 838.929 -128.551 L 837.523 -130.302 L 847.315 -137.629 L 849.437 -137.629 Z  M 865.84 -107.436 L 868.727 -107.436 L 869.023 -106.917 L 869.023 -106.917 Q 867.173 -100.381 864.73 -95.053 L 864.73 -95.053 L 863.128 -95.053 L 863.128 -95.053 Q 865.026 -101.837 865.84 -107.436 L 865.84 -107.436 Z  M 898.327 -119.695 L 898.327 -119.695 L 898.327 -119.695 Q 898.327 -110.199 895.429 -105.634 L 895.429 -105.634 L 895.429 -105.634 Q 892.53 -101.072 886.66 -101.072 L 886.66 -101.072 L 886.66 -101.072 Q 881.011 -101.072 878.075 -105.771 L 878.075 -105.771 L 878.075 -105.771 Q 875.14 -110.47 875.14 -119.695 L 875.14 -119.695 L 875.14 -119.695 Q 875.14 -129.118 877.989 -133.657 L 877.989 -133.657 L 877.989 -133.657 Q 880.839 -138.196 886.66 -138.196 L 886.66 -138.196 L 886.66 -138.196 Q 892.358 -138.196 895.342 -133.497 L 895.342 -133.497 L 895.342 -133.497 Q 898.327 -128.798 898.327 -119.695 Z  M 877.804 -119.695 L 877.804 -119.695 L 877.804 -119.695 Q 877.804 -111.308 880 -107.3 L 880 -107.3 L 880 -107.3 Q 882.195 -103.291 886.66 -103.291 L 886.66 -103.291 L 886.66 -103.291 Q 891.322 -103.291 893.455 -107.436 L 893.455 -107.436 L 893.455 -107.436 Q 895.59 -111.58 895.59 -119.695 L 895.59 -119.695 L 895.59 -119.695 Q 895.59 -127.687 893.455 -131.832 L 893.455 -131.832 L 893.455 -131.832 Q 891.322 -135.975 886.66 -135.975 L 886.66 -135.975 L 886.66 -135.975 Q 881.997 -135.975 879.901 -131.832 L 879.901 -131.832 L 879.901 -131.832 Q 877.804 -127.687 877.804 -119.695 Z  M 927.164 -119.695 L 927.164 -119.695 L 927.164 -119.695 Q 927.164 -110.199 924.265 -105.634 L 924.265 -105.634 L 924.265 -105.634 Q 921.367 -101.072 915.496 -101.072 L 915.496 -101.072 L 915.496 -101.072 Q 909.847 -101.072 906.912 -105.771 L 906.912 -105.771 L 906.912 -105.771 Q 903.976 -110.47 903.976 -119.695 L 903.976 -119.695 L 903.976 -119.695 Q 903.976 -129.118 906.825 -133.657 L 906.825 -133.657 L 906.825 -133.657 Q 909.674 -138.196 915.496 -138.196 L 915.496 -138.196 L 915.496 -138.196 Q 921.194 -138.196 924.179 -133.497 L 924.179 -133.497 L 924.179 -133.497 Q 927.164 -128.798 927.164 -119.695 Z  M 906.64 -119.695 L 906.64 -119.695 L 906.64 -119.695 Q 906.64 -111.308 908.835 -107.3 L 908.835 -107.3 L 908.835 -107.3 Q 911.031 -103.291 915.496 -103.291 L 915.496 -103.291 L 915.496 -103.291 Q 920.158 -103.291 922.292 -107.436 L 922.292 -107.436 L 922.292 -107.436 Q 924.425 -111.58 924.425 -119.695 L 924.425 -119.695 L 924.425 -119.695 Q 924.425 -127.687 922.292 -131.832 L 922.292 -131.832 L 922.292 -131.832 Q 920.158 -135.975 915.496 -135.975 L 915.496 -135.975 L 915.496 -135.975 Q 910.834 -135.975 908.737 -131.832 L 908.737 -131.832 L 908.737 -131.832 Q 906.64 -127.687 906.64 -119.695 Z  M 956 -119.695 L 956 -119.695 L 956 -119.695 Q 956 -110.199 953.101 -105.634 L 953.101 -105.634 L 953.101 -105.634 Q 950.203 -101.072 944.332 -101.072 L 944.332 -101.072 L 944.332 -101.072 Q 938.683 -101.072 935.748 -105.771 L 935.748 -105.771 L 935.748 -105.771 Q 932.813 -110.47 932.813 -119.695 L 932.813 -119.695 L 932.813 -119.695 Q 932.813 -129.118 935.661 -133.657 L 935.661 -133.657 L 935.661 -133.657 Q 938.51 -138.196 944.332 -138.196 L 944.332 -138.196 L 944.332 -138.196 Q 950.03 -138.196 953.015 -133.497 L 953.015 -133.497 L 953.015 -133.497 Q 956 -128.798 956 -119.695 Z  M 935.477 -119.695 L 935.477 -119.695 L 935.477 -119.695 Q 935.477 -111.308 937.672 -107.3 L 937.672 -107.3 L 937.672 -107.3 Q 939.867 -103.291 944.332 -103.291 L 944.332 -103.291 L 944.332 -103.291 Q 948.993 -103.291 951.128 -107.436 L 951.128 -107.436 L 951.128 -107.436 Q 953.261 -111.58 953.261 -119.695 L 953.261 -119.695 L 953.261 -119.695 Q 953.261 -127.687 951.128 -131.832 L 951.128 -131.832 L 951.128 -131.832 Q 948.993 -135.975 944.332 -135.975 L 944.332 -135.975 L 944.332 -135.975 Q 939.67 -135.975 937.573 -131.832 L 937.573 -131.832 L 937.573 -131.832 Q 935.477 -127.687 935.477 -119.695 Z  M 788.386 -114.195 L 776.668 -114.195 L 776.668 -116.217 L 788.386 -116.217 L 788.386 -114.195 Z  M 670.106 -101.564 L 650.397 -101.564 L 650.397 -137.629 L 652.912 -137.629 L 652.912 -103.933 L 670.106 -103.933 L 670.106 -101.564 Z  M 686.534 -101.072 L 686.534 -101.072 L 686.534 -101.072 Q 680.689 -101.072 677.419 -104.673 L 677.419 -104.673 L 677.419 -104.673 Q 674.151 -108.275 674.151 -114.761 L 674.151 -114.761 L 674.151 -114.761 Q 674.151 -121.176 677.309 -125.036 L 677.309 -125.036 L 677.309 -125.036 Q 680.466 -128.896 685.819 -128.896 L 685.819 -128.896 L 685.819 -128.896 Q 690.555 -128.896 693.293 -125.59 L 693.293 -125.59 L 693.293 -125.59 Q 696.031 -122.286 696.031 -116.612 L 696.031 -116.612 L 696.031 -114.638 L 676.717 -114.638 L 676.717 -114.638 Q 676.767 -109.113 679.294 -106.202 L 679.294 -106.202 L 679.294 -106.202 Q 681.823 -103.291 686.534 -103.291 L 686.534 -103.291 L 686.534 -103.291 Q 688.829 -103.291 690.568 -103.612 L 690.568 -103.612 L 690.568 -103.612 Q 692.307 -103.933 694.971 -104.994 L 694.971 -104.994 L 694.971 -102.774 L 694.971 -102.774 Q 692.701 -101.787 690.777 -101.429 L 690.777 -101.429 L 690.777 -101.429 Q 688.853 -101.072 686.534 -101.072 Z  M 685.819 -126.725 L 685.819 -126.725 L 685.819 -126.725 Q 681.947 -126.725 679.602 -124.172 L 679.602 -124.172 L 679.602 -124.172 Q 677.259 -121.62 676.865 -116.809 L 676.865 -116.809 L 693.441 -116.809 L 693.441 -116.809 Q 693.441 -121.472 691.418 -124.099 L 691.418 -124.099 L 691.418 -124.099 Q 689.396 -126.725 685.819 -126.725 Z  M 711.769 -101.564 L 709.302 -101.564 L 698.942 -128.379 L 701.458 -128.379 L 708.389 -110.149 L 708.389 -110.149 Q 709.771 -106.646 710.462 -104.032 L 710.462 -104.032 L 710.61 -104.032 L 710.61 -104.032 Q 711.621 -107.386 712.682 -110.199 L 712.682 -110.199 L 719.613 -128.379 L 722.13 -128.379 L 711.769 -101.564 Z  M 737.448 -101.072 L 737.448 -101.072 L 737.448 -101.072 Q 731.601 -101.072 728.333 -104.673 L 728.333 -104.673 L 728.333 -104.673 Q 725.065 -108.275 725.065 -114.761 L 725.065 -114.761 L 725.065 -114.761 Q 725.065 -121.176 728.222 -125.036 L 728.222 -125.036 L 728.222 -125.036 Q 731.38 -128.896 736.733 -128.896 L 736.733 -128.896 L 736.733 -128.896 Q 741.468 -128.896 744.206 -125.59 L 744.206 -125.59 L 744.206 -125.59 Q 746.945 -122.286 746.945 -116.612 L 746.945 -116.612 L 746.945 -114.638 L 727.63 -114.638 L 727.63 -114.638 Q 727.679 -109.113 730.208 -106.202 L 730.208 -106.202 L 730.208 -106.202 Q 732.736 -103.291 737.448 -103.291 L 737.448 -103.291 L 737.448 -103.291 Q 739.741 -103.291 741.48 -103.612 L 741.48 -103.612 L 741.48 -103.612 Q 743.219 -103.933 745.883 -104.994 L 745.883 -104.994 L 745.883 -102.774 L 745.883 -102.774 Q 743.615 -101.787 741.69 -101.429 L 741.69 -101.429 L 741.69 -101.429 Q 739.766 -101.072 737.448 -101.072 Z  M 736.733 -126.725 L 736.733 -126.725 L 736.733 -126.725 Q 732.859 -126.725 730.516 -124.172 L 730.516 -124.172 L 730.516 -124.172 Q 728.173 -121.62 727.778 -116.809 L 727.778 -116.809 L 744.354 -116.809 L 744.354 -116.809 Q 744.354 -121.472 742.332 -124.099 L 742.332 -124.099 L 742.332 -124.099 Q 740.309 -126.725 736.733 -126.725 Z  M 756.787 -139.947 L 756.787 -101.564 L 754.344 -101.564 L 754.344 -139.947 L 756.787 -139.947 Z  M 458.708 -127.268 L 458.708 -127.268 L 458.708 -127.268 Q 458.708 -122.039 455.155 -119.252 L 455.155 -119.252 L 455.155 -119.252 Q 451.604 -116.464 445.091 -116.464 L 445.091 -116.464 L 439.517 -116.464 L 439.517 -101.564 L 437.001 -101.564 L 437.001 -137.629 L 445.832 -137.629 L 445.832 -137.629 Q 458.708 -137.629 458.708 -127.268 Z  M 439.517 -135.359 L 439.517 -118.635 L 444.474 -118.635 L 444.474 -118.635 Q 450.567 -118.635 453.281 -120.645 L 453.281 -120.645 L 453.281 -120.645 Q 455.994 -122.655 455.994 -127.169 L 455.994 -127.169 L 455.994 -127.169 Q 455.994 -131.338 453.429 -133.349 L 453.429 -133.349 L 453.429 -133.349 Q 450.864 -135.359 445.486 -135.359 L 445.486 -135.359 L 439.517 -135.359 Z  M 468.377 -139.947 L 468.377 -101.564 L 465.936 -101.564 L 465.936 -139.947 L 468.377 -139.947 Z  M 495.438 -101.564 L 493.636 -101.564 L 493.02 -105.807 L 492.822 -105.807 L 492.822 -105.807 Q 490.8 -103.218 488.666 -102.145 L 488.666 -102.145 L 488.666 -102.145 Q 486.532 -101.072 483.622 -101.072 L 483.622 -101.072 L 483.622 -101.072 Q 479.675 -101.072 477.479 -103.095 L 477.479 -103.095 L 477.479 -103.095 Q 475.284 -105.117 475.284 -108.694 L 475.284 -108.694 L 475.284 -108.694 Q 475.284 -112.616 478.552 -114.786 L 478.552 -114.786 L 478.552 -114.786 Q 481.82 -116.957 488.012 -117.081 L 488.012 -117.081 L 493.118 -117.229 L 493.118 -119.004 L 493.118 -119.004 Q 493.118 -122.828 491.564 -124.777 L 491.564 -124.777 L 491.564 -124.777 Q 490.01 -126.725 486.557 -126.725 L 486.557 -126.725 L 486.557 -126.725 Q 482.832 -126.725 478.836 -124.653 L 478.836 -124.653 L 477.923 -126.775 L 477.923 -126.775 Q 482.339 -128.847 486.656 -128.847 L 486.656 -128.847 L 486.656 -128.847 Q 491.072 -128.847 493.255 -126.553 L 493.255 -126.553 L 493.255 -126.553 Q 495.438 -124.259 495.438 -119.399 L 495.438 -119.399 L 495.438 -101.564 Z  M 483.77 -103.291 L 483.77 -103.291 L 483.77 -103.291 Q 488.062 -103.291 490.541 -105.746 L 490.541 -105.746 L 490.541 -105.746 Q 493.02 -108.2 493.02 -112.566 L 493.02 -112.566 L 493.02 -115.206 L 488.333 -115.009 L 488.333 -115.009 Q 482.684 -114.738 480.279 -113.245 L 480.279 -113.245 L 480.279 -113.245 Q 477.875 -111.753 477.875 -108.595 L 477.875 -108.595 L 477.875 -108.595 Q 477.875 -106.079 479.416 -104.686 L 479.416 -104.686 L 479.416 -104.686 Q 480.958 -103.291 483.77 -103.291 Z  M 511.199 -103.243 L 511.199 -103.243 L 511.199 -103.243 Q 513.519 -103.243 515.244 -103.637 L 515.244 -103.637 L 515.244 -101.664 L 515.244 -101.664 Q 513.469 -101.072 511.151 -101.072 L 511.151 -101.072 L 511.151 -101.072 Q 507.598 -101.072 505.908 -102.97 L 505.908 -102.97 L 505.908 -102.97 Q 504.219 -104.87 504.219 -108.941 L 504.219 -108.941 L 504.219 -126.257 L 500.247 -126.257 L 500.247 -127.687 L 504.219 -128.798 L 505.452 -134.865 L 506.71 -134.865 L 506.71 -128.379 L 514.579 -128.379 L 514.579 -126.257 L 506.71 -126.257 L 506.71 -109.285 L 506.71 -109.285 Q 506.71 -106.202 507.796 -104.722 L 507.796 -104.722 L 507.796 -104.722 Q 508.881 -103.243 511.199 -103.243 Z  M 523.484 -128.379 L 523.484 -101.564 L 521.042 -101.564 L 521.042 -128.379 L 523.484 -128.379 Z  M 520.697 -135.828 L 520.697 -135.828 L 520.697 -135.828 Q 520.697 -138.196 522.251 -138.196 L 522.251 -138.196 L 522.251 -138.196 Q 523.015 -138.196 523.447 -137.579 L 523.447 -137.579 L 523.447 -137.579 Q 523.878 -136.962 523.878 -135.828 L 523.878 -135.828 L 523.878 -135.828 Q 523.878 -134.717 523.447 -134.076 L 523.447 -134.076 L 523.447 -134.076 Q 523.015 -133.436 522.251 -133.436 L 522.251 -133.436 L 522.251 -133.436 Q 520.697 -133.436 520.697 -135.828 Z  M 553.578 -101.564 L 551.161 -101.564 L 551.161 -118.956 L 551.161 -118.956 Q 551.161 -123.001 549.459 -124.838 L 549.459 -124.838 L 549.459 -124.838 Q 547.756 -126.677 544.179 -126.677 L 544.179 -126.677 L 544.179 -126.677 Q 539.37 -126.677 537.137 -124.246 L 537.137 -124.246 L 537.137 -124.246 Q 534.905 -121.816 534.905 -116.365 L 534.905 -116.365 L 534.905 -101.564 L 532.463 -101.564 L 532.463 -128.379 L 534.535 -128.379 L 535.004 -124.703 L 535.152 -124.703 L 535.152 -124.703 Q 537.766 -128.896 544.452 -128.896 L 544.452 -128.896 L 544.452 -128.896 Q 553.578 -128.896 553.578 -119.104 L 553.578 -119.104 L 553.578 -101.564 Z  M 561.965 -128.379 L 564.383 -128.379 L 564.383 -111.012 L 564.383 -111.012 Q 564.383 -106.967 566.085 -105.13 L 566.085 -105.13 L 566.085 -105.13 Q 567.786 -103.291 571.363 -103.291 L 571.363 -103.291 L 571.363 -103.291 Q 576.149 -103.291 578.405 -105.709 L 578.405 -105.709 L 578.405 -105.709 Q 580.663 -108.127 580.663 -113.578 L 580.663 -113.578 L 580.663 -128.379 L 583.08 -128.379 L 583.08 -101.564 L 581.008 -101.564 L 580.563 -105.265 L 580.416 -105.265 L 580.416 -105.265 Q 577.801 -101.072 571.117 -101.072 L 571.117 -101.072 L 571.117 -101.072 Q 561.965 -101.072 561.965 -110.864 L 561.965 -110.864 L 561.965 -128.379 Z  M 627.974 -101.564 L 625.557 -101.564 L 625.557 -119.152 L 625.557 -119.152 Q 625.557 -123.074 624.028 -124.875 L 624.028 -124.875 L 624.028 -124.875 Q 622.498 -126.677 619.34 -126.677 L 619.34 -126.677 L 619.34 -126.677 Q 615.222 -126.677 613.248 -124.407 L 613.248 -124.407 L 613.248 -124.407 Q 611.275 -122.137 611.275 -117.278 L 611.275 -117.278 L 611.275 -101.564 L 608.784 -101.564 L 608.784 -119.893 L 608.784 -119.893 Q 608.784 -126.677 602.567 -126.677 L 602.567 -126.677 L 602.567 -126.677 Q 598.349 -126.677 596.425 -124.222 L 596.425 -124.222 L 596.425 -124.222 Q 594.501 -121.768 594.501 -116.365 L 594.501 -116.365 L 594.501 -101.564 L 592.059 -101.564 L 592.059 -128.379 L 594.081 -128.379 L 594.6 -124.703 L 594.747 -124.703 L 594.747 -124.703 Q 595.858 -126.7 597.905 -127.798 L 597.905 -127.798 L 597.905 -127.798 Q 599.952 -128.896 602.419 -128.896 L 602.419 -128.896 L 602.419 -128.896 Q 608.759 -128.896 610.559 -124.136 L 610.559 -124.136 L 610.658 -124.136 L 610.658 -124.136 Q 611.965 -126.429 614.173 -127.663 L 614.173 -127.663 L 614.173 -127.663 Q 616.38 -128.896 619.192 -128.896 L 619.192 -128.896 L 619.192 -128.896 Q 623.583 -128.896 625.779 -126.553 L 625.779 -126.553 L 625.779 -126.553 Q 627.974 -124.209 627.974 -119.104 L 627.974 -119.104 L 627.974 -101.564 Z " fill-rule="evenodd" fill="rgb(78,75,83)"/></g></svg>