<?xml version="1.0" standalone="no"?><!-- Generator: Gravit.io --><svg xmlns="http://www.w3.org/2000/svg" xmlns:xlink="http://www.w3.org/1999/xlink" style="isolation:isolate" viewBox="367.5 -571.5 655.5 1050.5" width="655.5" height="1050.5"><g><path d=" M 369 -431 L 369 -542 L 435.203 -570 L 948.279 -570 L 1020 -542 L 1020 -430 L 948.279 -406 L 435.203 -406 L 369 -431 Z " fill="rgb(255,63,63)"/><path d=" M 1020 -542 L 1020 -430 L 948.279 -406 L 435.203 -406 L 369 -430 L 369 -542 L 435.203 -570 L 948.279 -570 L 1020 -542 Z " fill="none" vector-effect="non-scaling-stroke" stroke-width="1" stroke="rgb(185,4,4)" stroke-opacity="100" stroke-linejoin="miter" stroke-linecap="square" stroke-miterlimit="3"/><g style="opacity:0.5;"><g opacity="0.5"><path d=" M 435.203 -542 L 435.203 -570 L 369 -542 L 435.203 -542 Z " fill="rgb(174,11,11)" vector-effect="non-scaling-stroke" stroke-width="1" stroke="rgb(185,4,4)" stroke-opacity="100" stroke-linejoin="miter" stroke-linecap="square" stroke-miterlimit="3"/></g></g><g style="opacity:0.5;"><g opacity="0.5"><path d=" M 369 -430 L 435.203 -430 L 435.203 -406 L 369 -430 Z " fill="rgb(174,11,11)" vector-effect="non-scaling-stroke" stroke-width="1" stroke="rgb(185,4,4)" stroke-opacity="100" stroke-linejoin="miter" stroke-linecap="square" stroke-miterlimit="3"/></g></g><path d=" M 435.203 -542 L 402.102 -486 L 369 -542 L 435.203 -542 Z " fill="none" vector-effect="non-scaling-stroke" stroke-width="1" stroke="rgb(185,4,4)" stroke-opacity="100" stroke-linejoin="miter" stroke-linecap="square" stroke-miterlimit="3"/><path d=" M 435.203 -430 L 402.102 -486 L 369 -430 L 435.203 -430 Z " fill="none" vector-effect="non-scaling-stroke" stroke-width="1" stroke="rgb(185,4,4)" stroke-opacity="100" stroke-linejoin="miter" stroke-linecap="square" stroke-miterlimit="3"/><g style="opacity:0.5;"><g opacity="0.5"><path d=" M 369 -542 L 402.102 -486 L 369 -430 L 369 -542 Z " fill="rgb(217,0,0)" vector-effect="non-scaling-stroke" stroke-width="1" stroke="rgb(185,4,4)" stroke-opacity="100" stroke-linejoin="miter" stroke-linecap="square" stroke-miterlimit="3"/></g></g><g style="opacity:0.5;"><g opacity="0.5"><path d=" M 948.279 -570 L 948.279 -542 L 1020 -542 L 948.279 -570 Z " fill="rgb(174,11,11)" vector-effect="non-scaling-stroke" stroke-width="1" stroke="rgb(185,4,4)" stroke-opacity="100" stroke-linejoin="miter" stroke-linecap="square" stroke-miterlimit="3"/></g></g><g style="opacity:0.5;"><g opacity="0.5"><path d=" M 1020 -430 L 948.279 -430 L 948.279 -406 L 1020 -430 Z " fill="rgb(174,11,11)" vector-effect="non-scaling-stroke" stroke-width="1" stroke="rgb(185,4,4)" stroke-opacity="100" stroke-linejoin="miter" stroke-linecap="square" stroke-miterlimit="3"/></g></g><path d=" M 948.279 -542 L 981.38 -486 L 1020 -542 L 948.279 -542 Z " fill="none" vector-effect="non-scaling-stroke" stroke-width="1" stroke="rgb(185,4,4)" stroke-opacity="100" stroke-linejoin="miter" stroke-linecap="square" stroke-miterlimit="3"/><path d=" M 1020 -430 L 981.38 -486 L 948.279 -430 L 1020 -430 Z " fill="none" vector-effect="non-scaling-stroke" stroke-width="1" stroke="rgb(185,4,4)" stroke-opacity="100" stroke-linejoin="miter" stroke-linecap="square" stroke-miterlimit="3"/><g style="opacity:0.5;"><g opacity="0.5"><path d=" M 1020 -542 L 1020 -430 L 981.38 -486 L 1020 -542 Z " fill="rgb(217,0,0)" vector-effect="non-scaling-stroke" stroke-width="1" stroke="rgb(185,4,4)" stroke-opacity="100" stroke-linejoin="miter" stroke-linecap="square" stroke-miterlimit="3"/></g></g><path d=" M 435.203 -542 L 694.499 -546 L 435.203 -570 L 435.203 -542 Z " fill="none" vector-effect="non-scaling-stroke" stroke-width="1" stroke="rgb(185,4,4)" stroke-opacity="100" stroke-linejoin="miter" stroke-linecap="square" stroke-miterlimit="3"/><path d=" M 948.279 -542 L 948.279 -570 L 694.499 -546 L 948.279 -542 Z " fill="none" vector-effect="non-scaling-stroke" stroke-width="1" stroke="rgb(185,4,4)" stroke-opacity="100" stroke-linejoin="miter" stroke-linecap="square" stroke-miterlimit="3"/><g style="opacity:0.5;"><g opacity="0.5"><path d=" M 435.203 -570 L 694.499 -546 L 948.279 -570 L 435.203 -570 Z " fill="rgb(217,0,0)" vector-effect="non-scaling-stroke" stroke-width="1" stroke="rgb(185,4,4)" stroke-opacity="100" stroke-linejoin="miter" stroke-linecap="square" stroke-miterlimit="3"/></g></g><path d=" M 435.203 -430 L 694.499 -428 L 435.203 -406 L 435.203 -430 Z " fill="none" vector-effect="non-scaling-stroke" stroke-width="1" stroke="rgb(185,4,4)" stroke-opacity="100" stroke-linejoin="miter" stroke-linecap="square" stroke-miterlimit="3"/><path d=" M 948.279 -430 L 948.279 -406 L 688.983 -428 L 948.279 -430 Z " fill="none" vector-effect="non-scaling-stroke" stroke-width="1" stroke="rgb(185,4,4)" stroke-opacity="100" stroke-linejoin="miter" stroke-linecap="square" stroke-miterlimit="3"/><g style="opacity:0.5;"><g opacity="0.5"><path d=" M 435.203 -406 L 694.499 -428 L 948.279 -406 L 435.203 -406 Z " fill="rgb(217,0,0)" vector-effect="non-scaling-stroke" stroke-width="1" stroke="rgb(185,4,4)" stroke-opacity="100" stroke-linejoin="miter" stroke-linecap="square" stroke-miterlimit="3"/></g></g><path d=" M 779.218 -480.521 L 779.218 -480.521 L 779.218 -480.521 Q 779.218 -477.12 776.66 -474.974 L 776.66 -474.974 L 776.66 -474.974 Q 774.104 -472.826 769.584 -472.264 L 769.584 -472.264 L 769.584 -466.231 L 767.492 -466.231 L 767.492 -472.162 L 767.492 -472.162 Q 765.117 -472.212 762.313 -472.737 L 762.313 -472.737 L 762.313 -472.737 Q 759.511 -473.26 757.86 -474.029 L 757.86 -474.029 L 757.86 -476.661 L 757.86 -476.661 Q 759.796 -475.74 762.495 -475.102 L 762.495 -475.102 L 762.495 -475.102 Q 765.193 -474.463 767.492 -474.463 L 767.492 -474.463 L 767.492 -487.448 L 767.492 -487.448 Q 763.748 -488.573 761.939 -489.699 L 761.939 -489.699 L 761.939 -489.699 Q 760.131 -490.824 759.305 -492.358 L 759.305 -492.358 L 759.305 -492.358 Q 758.48 -493.891 758.48 -496.089 L 758.48 -496.089 L 758.48 -496.089 Q 758.48 -499.26 760.919 -501.42 L 760.919 -501.42 L 760.919 -501.42 Q 763.36 -503.58 767.492 -504.091 L 767.492 -504.091 L 767.492 -509.001 L 769.584 -509.001 L 769.584 -504.143 L 769.584 -504.143 Q 774.673 -503.913 778.649 -502.302 L 778.649 -502.302 L 777.797 -500.001 L 777.797 -500.001 Q 774.157 -501.586 769.584 -501.843 L 769.584 -501.843 L 769.584 -489.417 L 769.584 -489.417 Q 775.085 -487.73 777.152 -485.736 L 777.152 -485.736 L 777.152 -485.736 Q 779.218 -483.742 779.218 -480.521 Z  M 776.377 -480.624 L 776.377 -480.624 L 776.377 -480.624 Q 776.377 -482.797 774.749 -484.215 L 774.749 -484.215 L 774.749 -484.215 Q 773.123 -485.634 769.584 -486.657 L 769.584 -486.657 L 769.584 -474.615 L 769.584 -474.615 Q 772.735 -474.947 774.556 -476.534 L 774.556 -476.534 L 774.556 -476.534 Q 776.377 -478.118 776.377 -480.624 Z  M 761.294 -496.089 L 761.294 -496.089 L 761.294 -496.089 Q 761.294 -493.891 762.766 -492.486 L 762.766 -492.486 L 762.766 -492.486 Q 764.238 -491.079 767.492 -490.108 L 767.492 -490.108 L 767.492 -501.688 L 767.492 -501.688 Q 764.419 -501.279 762.857 -499.747 L 762.857 -499.747 L 762.857 -499.747 Q 761.294 -498.212 761.294 -496.089 Z  M 797.683 -491.744 L 797.683 -491.744 L 797.683 -491.744 Q 803.728 -491.744 807.2 -488.855 L 807.2 -488.855 L 807.2 -488.855 Q 810.675 -485.966 810.675 -480.905 L 810.675 -480.905 L 810.675 -480.905 Q 810.675 -475.152 807.058 -471.958 L 807.058 -471.958 L 807.058 -471.958 Q 803.443 -468.761 797.09 -468.761 L 797.09 -468.761 L 797.09 -468.761 Q 794.275 -468.761 791.744 -469.311 L 791.744 -469.311 L 791.744 -469.311 Q 789.213 -469.862 787.509 -470.883 L 787.509 -470.883 L 787.509 -473.517 L 787.509 -473.517 Q 790.297 -472.11 792.467 -471.56 L 792.467 -471.56 L 792.467 -471.56 Q 794.636 -471.012 797.09 -471.012 L 797.09 -471.012 L 797.09 -471.012 Q 802.049 -471.012 805.044 -473.606 L 805.044 -473.606 L 805.044 -473.606 Q 808.041 -476.2 808.041 -480.624 L 808.041 -480.624 L 808.041 -480.624 Q 808.041 -484.791 805.122 -487.168 L 805.122 -487.168 L 805.122 -487.168 Q 802.203 -489.546 797.194 -489.546 L 797.194 -489.546 L 797.194 -489.546 Q 793.836 -489.546 790.169 -488.548 L 790.169 -488.548 L 788.618 -489.546 L 790.116 -506.648 L 808.298 -506.648 L 808.298 -504.193 L 792.543 -504.193 L 791.381 -491.003 L 791.381 -491.003 Q 795.412 -491.744 797.683 -491.744 Z  M 818.603 -475.356 L 821.625 -475.356 L 821.935 -474.82 L 821.935 -474.82 Q 819.999 -468.045 817.441 -462.523 L 817.441 -462.523 L 815.762 -462.523 L 815.762 -462.523 Q 817.751 -469.555 818.603 -475.356 L 818.603 -475.356 Z  M 852.618 -488.062 L 852.618 -488.062 L 852.618 -488.062 Q 852.618 -478.221 849.582 -473.49 L 849.582 -473.49 L 849.582 -473.49 Q 846.548 -468.761 840.402 -468.761 L 840.402 -468.761 L 840.402 -468.761 Q 834.486 -468.761 831.413 -473.631 L 831.413 -473.631 L 831.413 -473.631 Q 828.34 -478.502 828.34 -488.062 L 828.34 -488.062 L 828.34 -488.062 Q 828.34 -497.828 831.324 -502.532 L 831.324 -502.532 L 831.324 -502.532 Q 834.307 -507.237 840.402 -507.237 L 840.402 -507.237 L 840.402 -507.237 Q 846.367 -507.237 849.492 -502.366 L 849.492 -502.366 L 849.492 -502.366 Q 852.618 -497.496 852.618 -488.062 Z  M 831.129 -488.062 L 831.129 -488.062 L 831.129 -488.062 Q 831.129 -479.371 833.427 -475.216 L 833.427 -475.216 L 833.427 -475.216 Q 835.726 -471.062 840.402 -471.062 L 840.402 -471.062 L 840.402 -471.062 Q 845.282 -471.062 847.517 -475.356 L 847.517 -475.356 L 847.517 -475.356 Q 849.749 -479.653 849.749 -488.062 L 849.749 -488.062 L 849.749 -488.062 Q 849.749 -496.346 847.517 -500.64 L 847.517 -500.64 L 847.517 -500.64 Q 845.282 -504.934 840.402 -504.934 L 840.402 -504.934 L 840.402 -504.934 Q 835.52 -504.934 833.324 -500.64 L 833.324 -500.64 L 833.324 -500.64 Q 831.129 -496.346 831.129 -488.062 Z  M 882.809 -488.062 L 882.809 -488.062 L 882.809 -488.062 Q 882.809 -478.221 879.773 -473.49 L 879.773 -473.49 L 879.773 -473.49 Q 876.739 -468.761 870.593 -468.761 L 870.593 -468.761 L 870.593 -468.761 Q 864.677 -468.761 861.604 -473.631 L 861.604 -473.631 L 861.604 -473.631 Q 858.532 -478.502 858.532 -488.062 L 858.532 -488.062 L 858.532 -488.062 Q 858.532 -497.828 861.515 -502.532 L 861.515 -502.532 L 861.515 -502.532 Q 864.498 -507.237 870.593 -507.237 L 870.593 -507.237 L 870.593 -507.237 Q 876.558 -507.237 879.683 -502.366 L 879.683 -502.366 L 879.683 -502.366 Q 882.809 -497.496 882.809 -488.062 Z  M 861.32 -488.062 L 861.32 -488.062 L 861.32 -488.062 Q 861.32 -479.371 863.619 -475.216 L 863.619 -475.216 L 863.619 -475.216 Q 865.917 -471.062 870.593 -471.062 L 870.593 -471.062 L 870.593 -471.062 Q 875.474 -471.062 877.708 -475.356 L 877.708 -475.356 L 877.708 -475.356 Q 879.943 -479.653 879.943 -488.062 L 879.943 -488.062 L 879.943 -488.062 Q 879.943 -496.346 877.708 -500.64 L 877.708 -500.64 L 877.708 -500.64 Q 875.474 -504.934 870.593 -504.934 L 870.593 -504.934 L 870.593 -504.934 Q 865.711 -504.934 863.515 -500.64 L 863.515 -500.64 L 863.515 -500.64 Q 861.32 -496.346 861.32 -488.062 Z  M 913 -488.062 L 913 -488.062 L 913 -488.062 Q 913 -478.221 909.964 -473.49 L 909.964 -473.49 L 909.964 -473.49 Q 906.93 -468.761 900.784 -468.761 L 900.784 -468.761 L 900.784 -468.761 Q 894.869 -468.761 891.796 -473.631 L 891.796 -473.631 L 891.796 -473.631 Q 888.723 -478.502 888.723 -488.062 L 888.723 -488.062 L 888.723 -488.062 Q 888.723 -497.828 891.706 -502.532 L 891.706 -502.532 L 891.706 -502.532 Q 894.689 -507.237 900.784 -507.237 L 900.784 -507.237 L 900.784 -507.237 Q 906.749 -507.237 909.874 -502.366 L 909.874 -502.366 L 909.874 -502.366 Q 913 -497.496 913 -488.062 Z  M 891.513 -488.062 L 891.513 -488.062 L 891.513 -488.062 Q 891.513 -479.371 893.81 -475.216 L 893.81 -475.216 L 893.81 -475.216 Q 896.109 -471.062 900.784 -471.062 L 900.784 -471.062 L 900.784 -471.062 Q 905.665 -471.062 907.899 -475.356 L 907.899 -475.356 L 907.899 -475.356 Q 910.134 -479.653 910.134 -488.062 L 910.134 -488.062 L 910.134 -488.062 Q 910.134 -496.346 907.899 -500.64 L 907.899 -500.64 L 907.899 -500.64 Q 905.665 -504.934 900.784 -504.934 L 900.784 -504.934 L 900.784 -504.934 Q 895.902 -504.934 893.706 -500.64 L 893.706 -500.64 L 893.706 -500.64 Q 891.513 -496.346 891.513 -488.062 Z  M 737.508 -482.363 L 725.239 -482.363 L 725.239 -484.459 L 737.508 -484.459 L 737.508 -482.363 Z  M 613.67 -469.273 L 593.033 -469.273 L 593.033 -506.648 L 595.667 -506.648 L 595.667 -471.726 L 613.67 -471.726 L 613.67 -469.273 Z  M 630.869 -468.761 L 630.869 -468.761 L 630.869 -468.761 Q 624.749 -468.761 621.327 -472.494 L 621.327 -472.494 L 621.327 -472.494 Q 617.905 -476.227 617.905 -482.949 L 617.905 -482.949 L 617.905 -482.949 Q 617.905 -489.596 621.21 -493.597 L 621.21 -493.597 L 621.21 -493.597 Q 624.517 -497.598 630.121 -497.598 L 630.121 -497.598 L 630.121 -497.598 Q 635.079 -497.598 637.945 -494.173 L 637.945 -494.173 L 637.945 -494.173 Q 640.814 -490.747 640.814 -484.868 L 640.814 -484.868 L 640.814 -482.822 L 620.59 -482.822 L 620.59 -482.822 Q 620.643 -477.095 623.291 -474.079 L 623.291 -474.079 L 623.291 -474.079 Q 625.936 -471.062 630.869 -471.062 L 630.869 -471.062 L 630.869 -471.062 Q 633.272 -471.062 635.093 -471.394 L 635.093 -471.394 L 635.093 -471.394 Q 636.914 -471.726 639.702 -472.826 L 639.702 -472.826 L 639.702 -470.525 L 639.702 -470.525 Q 637.327 -469.503 635.311 -469.132 L 635.311 -469.132 L 635.311 -469.132 Q 633.297 -468.761 630.869 -468.761 Z  M 630.121 -495.348 L 630.121 -495.348 L 630.121 -495.348 Q 626.065 -495.348 623.612 -492.702 L 623.612 -492.702 L 623.612 -492.702 Q 621.159 -490.058 620.746 -485.072 L 620.746 -485.072 L 638.101 -485.072 L 638.101 -485.072 Q 638.101 -489.903 635.984 -492.627 L 635.984 -492.627 L 635.984 -492.627 Q 633.866 -495.348 630.121 -495.348 Z  M 657.29 -469.273 L 654.708 -469.273 L 643.861 -497.062 L 646.495 -497.062 L 653.753 -478.168 L 653.753 -478.168 Q 655.198 -474.538 655.921 -471.828 L 655.921 -471.828 L 656.077 -471.828 L 656.077 -471.828 Q 657.136 -475.306 658.245 -478.221 L 658.245 -478.221 L 665.502 -497.062 L 668.137 -497.062 L 657.29 -469.273 Z  M 684.176 -468.761 L 684.176 -468.761 L 684.176 -468.761 Q 678.055 -468.761 674.633 -472.494 L 674.633 -472.494 L 674.633 -472.494 Q 671.211 -476.227 671.211 -482.949 L 671.211 -482.949 L 671.211 -482.949 Q 671.211 -489.596 674.516 -493.597 L 674.516 -493.597 L 674.516 -493.597 Q 677.823 -497.598 683.427 -497.598 L 683.427 -497.598 L 683.427 -497.598 Q 688.386 -497.598 691.252 -494.173 L 691.252 -494.173 L 691.252 -494.173 Q 694.12 -490.747 694.12 -484.868 L 694.12 -484.868 L 694.12 -482.822 L 673.896 -482.822 L 673.896 -482.822 Q 673.949 -477.095 676.595 -474.079 L 676.595 -474.079 L 676.595 -474.079 Q 679.243 -471.062 684.176 -471.062 L 684.176 -471.062 L 684.176 -471.062 Q 686.578 -471.062 688.399 -471.394 L 688.399 -471.394 L 688.399 -471.394 Q 690.218 -471.726 693.009 -472.826 L 693.009 -472.826 L 693.009 -470.525 L 693.009 -470.525 Q 690.632 -469.503 688.618 -469.132 L 688.618 -469.132 L 688.618 -469.132 Q 686.603 -468.761 684.176 -468.761 Z  M 683.427 -495.348 L 683.427 -495.348 L 683.427 -495.348 Q 679.371 -495.348 676.919 -492.702 L 676.919 -492.702 L 676.919 -492.702 Q 674.466 -490.058 674.052 -485.072 L 674.052 -485.072 L 691.408 -485.072 L 691.408 -485.072 Q 691.408 -489.903 689.29 -492.627 L 689.29 -492.627 L 689.29 -492.627 Q 687.171 -495.348 683.427 -495.348 Z  M 704.425 -509.051 L 704.425 -469.273 L 701.867 -469.273 L 701.867 -509.051 L 704.425 -509.051 Z  M 472.914 -485.557 L 463.539 -485.557 L 463.539 -469.273 L 460.905 -469.273 L 460.905 -506.648 L 469.892 -506.648 L 469.892 -506.648 Q 476.917 -506.648 480.274 -504.079 L 480.274 -504.079 L 480.274 -504.079 Q 483.632 -501.511 483.632 -496.346 L 483.632 -496.346 L 483.632 -496.346 Q 483.632 -492.588 481.632 -490.006 L 481.632 -490.006 L 481.632 -490.006 Q 479.629 -487.423 475.548 -486.298 L 475.548 -486.298 L 485.802 -469.273 L 482.651 -469.273 L 472.914 -485.557 Z  M 463.539 -504.296 L 463.539 -487.807 L 470.744 -487.807 L 470.744 -487.807 Q 475.523 -487.807 478.157 -489.917 L 478.157 -489.917 L 478.157 -489.917 Q 480.791 -492.024 480.791 -496.141 L 480.791 -496.141 L 480.791 -496.141 Q 480.791 -500.41 478.208 -502.354 L 478.208 -502.354 L 478.208 -502.354 Q 475.626 -504.296 469.788 -504.296 L 469.788 -504.296 L 463.539 -504.296 Z  M 491.381 -497.062 L 493.912 -497.062 L 493.912 -479.064 L 493.912 -479.064 Q 493.912 -474.872 495.694 -472.967 L 495.694 -472.967 L 495.694 -472.967 Q 497.476 -471.062 501.22 -471.062 L 501.22 -471.062 L 501.22 -471.062 Q 506.231 -471.062 508.594 -473.567 L 508.594 -473.567 L 508.594 -473.567 Q 510.957 -476.072 510.957 -481.722 L 510.957 -481.722 L 510.957 -497.062 L 513.488 -497.062 L 513.488 -469.273 L 511.318 -469.273 L 510.854 -473.108 L 510.698 -473.108 L 510.698 -473.108 Q 507.96 -468.761 500.962 -468.761 L 500.962 -468.761 L 500.962 -468.761 Q 491.381 -468.761 491.381 -478.91 L 491.381 -478.91 L 491.381 -497.062 Z  M 534.743 -497.598 L 534.743 -497.598 L 534.743 -497.598 Q 540.631 -497.598 543.615 -493.929 L 543.615 -493.929 L 543.615 -493.929 Q 546.598 -490.26 546.598 -483.206 L 546.598 -483.206 L 546.598 -483.206 Q 546.598 -476.277 543.459 -472.519 L 543.459 -472.519 L 543.459 -472.519 Q 540.321 -468.761 534.64 -468.761 L 534.64 -468.761 L 534.64 -468.761 Q 531.645 -468.761 529.242 -469.989 L 529.242 -469.989 L 529.242 -469.989 Q 526.84 -471.216 525.446 -473.465 L 525.446 -473.465 L 525.212 -473.465 L 524.491 -469.273 L 522.888 -469.273 L 522.888 -509.051 L 525.446 -509.051 L 525.446 -499.056 L 525.446 -499.056 Q 525.446 -496.805 525.343 -494.914 L 525.343 -494.914 L 525.265 -492.74 L 525.446 -492.74 L 525.446 -492.74 Q 527.047 -495.246 529.307 -496.423 L 529.307 -496.423 L 529.307 -496.423 Q 531.567 -497.598 534.743 -497.598 Z  M 534.692 -495.298 L 534.692 -495.298 L 534.692 -495.298 Q 529.732 -495.298 527.589 -492.486 L 527.589 -492.486 L 527.589 -492.486 Q 525.446 -489.674 525.446 -483.206 L 525.446 -483.206 L 525.446 -482.772 L 525.446 -482.772 Q 525.446 -476.482 527.679 -473.747 L 527.679 -473.747 L 527.679 -473.747 Q 529.913 -471.012 534.64 -471.012 L 534.64 -471.012 L 534.64 -471.012 Q 539.237 -471.012 541.561 -474.195 L 541.561 -474.195 L 541.561 -474.195 Q 543.886 -477.377 543.886 -483.256 L 543.886 -483.256 L 543.886 -483.256 Q 543.886 -495.298 534.692 -495.298 Z  M 560.414 -469.273 L 549.671 -497.062 L 552.305 -497.062 L 558.246 -481.467 L 558.246 -481.467 Q 560.956 -474.283 561.68 -471.778 L 561.68 -471.778 L 561.836 -471.778 L 561.836 -471.778 Q 562.92 -475.077 565.373 -481.619 L 565.373 -481.619 L 571.314 -497.062 L 573.948 -497.062 L 561.37 -464.774 L 561.37 -464.774 Q 559.847 -460.837 558.814 -459.457 L 558.814 -459.457 L 558.814 -459.457 Q 557.78 -458.075 556.398 -457.386 L 556.398 -457.386 L 556.398 -457.386 Q 555.017 -456.695 553.054 -456.695 L 553.054 -456.695 L 553.054 -456.695 Q 551.582 -456.695 549.774 -457.231 L 549.774 -457.231 L 549.774 -459.43 L 549.774 -459.43 Q 551.272 -459.02 553.003 -459.02 L 553.003 -459.02 L 553.003 -459.02 Q 554.319 -459.02 555.327 -459.634 L 555.327 -459.634 L 555.327 -459.634 Q 556.333 -460.248 557.148 -461.539 L 557.148 -461.539 L 557.148 -461.539 Q 557.961 -462.83 559.034 -465.629 L 559.034 -465.629 L 559.034 -465.629 Q 560.104 -468.429 560.414 -469.273 L 560.414 -469.273 Z " fill-rule="evenodd" fill="rgb(181,0,0)"/></g></svg>