<?xml version="1.0" standalone="no"?><!-- Generator: Gravit.io --><svg xmlns="http://www.w3.org/2000/svg" xmlns:xlink="http://www.w3.org/1999/xlink" style="isolation:isolate" viewBox="371 151 651 155" width="651" height="155"><g><path d=" M 388.388 151 L 1004.613 151 C 1014.208 151 1022 159.007 1022 168.868 L 1022 288.132 C 1022 297.993 1014.208 306 1004.613 306 L 388.388 306 C 378.792 306 371 297.993 371 288.132 L 371 168.868 C 371 159.007 378.792 151 388.388 151 Z " fill="rgb(181,181,181)"/><path d=" M 371 169 L 392.873 185 C 394.431 177.912 398.965 173.932 406.415 171 L 387.665 151 C 376.816 152.676 371.272 158.686 371 169 Z " fill="rgb(204,204,204)"/><path d=" M 390.675 305.992 L 406.269 284.247 C 398.819 283.094 396.282 277.002 392.873 270 L 371.146 290.877 C 373.411 301.2 379.931 306.228 390.675 305.992 Z " fill="rgb(204,204,204)"/><path d=" M 1021.998 287.427 L 999.529 272.206 C 998.243 279.344 991.869 281.709 984.537 284.901 L 1006.029 306 C 1016.808 303.944 1022.12 297.743 1021.998 287.427 Z " fill="rgb(204,204,204)"/><path d=" M 1007.667 151.106 L 981.512 170.941 C 988.31 174.086 993.679 177.355 994.865 185 L 1021.894 170.941 C 1022.789 160.426 1018.034 153.821 1007.667 151.106 Z " fill="rgb(204,204,204)"/><path d=" M 411.004 174.167 L 981.996 174.167 C 989.703 174.167 995.96 180.597 995.96 188.517 L 995.96 268.483 C 995.96 276.403 989.703 282.833 981.996 282.833 L 411.004 282.833 C 403.297 282.833 397.04 276.403 397.04 268.483 L 397.04 188.517 C 397.04 180.597 403.297 174.167 411.004 174.167 Z " fill="rgb(232,232,232)" vector-effect="non-scaling-stroke" stroke-width="10" stroke="rgb(232,232,232)" stroke-opacity="100" stroke-linejoin="miter" stroke-linecap="square" stroke-miterlimit="3"/><linearGradient id="_lgradient_18" x1="0" y1="0.5" x2="0.9999999999999998" y2="0.5" gradientTransform="matrix(276.557,0,0,108.666,397.04,174.167)" gradientUnits="userSpaceOnUse"><stop offset="1.7391304347826086%" stop-opacity="1" style="stop-color:rgb(147,147,147)"/><stop offset="98.26086956521739%" stop-opacity="1" style="stop-color:rgb(202,202,202)"/></linearGradient><path d=" M 673.597 282.833 L 411.488 282.833 C 403.514 282.833 397.04 276.618 397.04 268.963 L 397.04 188.037 C 397.04 180.382 403.514 174.167 411.488 174.167 L 605.332 174.167 L 673.597 282.833 L 673.597 282.833 Z " fill="url(#_lgradient_18)"/><linearGradient id="_lgradient_19" x1="0" y1="0.5" x2="1.0000000000000004" y2="0.5" gradientTransform="matrix(220.483,0,0,108.666,605.332,174.167)" gradientUnits="userSpaceOnUse"><stop offset="0%" stop-opacity="1" style="stop-color:rgb(200,200,200)"/><stop offset="98.69565217391305%" stop-opacity="1" style="stop-color:rgb(232,232,232)"/></linearGradient><path d=" M 825.814 282.833 L 673.597 282.833 L 673.597 282.833 C 630.368 253.944 607.623 217.732 605.332 174.167 L 754.841 174.167 C 740.528 190.453 777.419 265.224 825.814 282.833 L 825.814 282.833 Z " fill="url(#_lgradient_19)"/><path d=" M 825.814 282.833 L 981.512 282.833 C 989.486 282.833 995.96 276.618 995.96 268.963 L 995.96 188.037 C 995.96 180.382 989.486 174.167 981.512 174.167 L 754.841 174.167 L 825.814 282.833 L 825.814 282.833 Z " fill="rgb(232,232,232)" vector-effect="non-scaling-stroke" stroke-width="10" stroke="rgb(232,232,232)" stroke-opacity="100" stroke-linejoin="miter" stroke-linecap="square" stroke-miterlimit="3"/><path d=" M 828.318 235.317 L 828.318 235.317 L 828.318 235.317 Q 828.318 238.573 825.894 240.629 L 825.894 240.629 L 825.894 240.629 Q 823.471 242.685 819.188 243.223 L 819.188 243.223 L 819.188 249 L 817.205 249 L 817.205 243.321 L 817.205 243.321 Q 814.953 243.272 812.297 242.77 L 812.297 242.77 L 812.297 242.77 Q 809.641 242.269 808.075 241.534 L 808.075 241.534 L 808.075 239.013 L 808.075 239.013 Q 809.911 239.894 812.468 240.506 L 812.468 240.506 L 812.468 240.506 Q 815.026 241.118 817.205 241.118 L 817.205 241.118 L 817.205 228.684 L 817.205 228.684 Q 813.656 227.607 811.942 226.53 L 811.942 226.53 L 811.942 226.53 Q 810.229 225.453 809.445 223.984 L 809.445 223.984 L 809.445 223.984 Q 808.662 222.515 808.662 220.41 L 808.662 220.41 L 808.662 220.41 Q 808.662 217.375 810.975 215.307 L 810.975 215.307 L 810.975 215.307 Q 813.288 213.238 817.205 212.749 L 817.205 212.749 L 817.205 208.049 L 819.188 208.049 L 819.188 212.7 L 819.188 212.7 Q 824.01 212.92 827.779 214.462 L 827.779 214.462 L 826.971 216.665 L 826.971 216.665 Q 823.52 215.147 819.188 214.903 L 819.188 214.903 L 819.188 226.799 L 819.188 226.799 Q 824.401 228.414 826.359 230.324 L 826.359 230.324 L 826.359 230.324 Q 828.318 232.233 828.318 235.317 Z  M 825.625 235.219 L 825.625 235.219 L 825.625 235.219 Q 825.625 233.139 824.083 231.78 L 824.083 231.78 L 824.083 231.78 Q 822.541 230.421 819.188 229.442 L 819.188 229.442 L 819.188 240.971 L 819.188 240.971 Q 822.174 240.653 823.899 239.136 L 823.899 239.136 L 823.899 239.136 Q 825.625 237.618 825.625 235.219 Z  M 811.33 220.41 L 811.33 220.41 L 811.33 220.41 Q 811.33 222.515 812.725 223.861 L 812.725 223.861 L 812.725 223.861 Q 814.121 225.208 817.205 226.138 L 817.205 226.138 L 817.205 215.05 L 817.205 215.05 Q 814.292 215.441 812.811 216.91 L 812.811 216.91 L 812.811 216.91 Q 811.33 218.379 811.33 220.41 Z  M 857.838 243.737 L 857.838 246.087 L 835.441 246.087 L 835.441 243.933 L 844.962 233.995 L 844.962 233.995 Q 848.977 229.834 850.592 227.631 L 850.592 227.631 L 850.592 227.631 Q 852.208 225.428 852.967 223.421 L 852.967 223.421 L 852.967 223.421 Q 853.725 221.414 853.725 219.211 L 853.725 219.211 L 853.725 219.211 Q 853.725 216.004 851.62 213.997 L 851.62 213.997 L 851.62 213.997 Q 849.515 211.99 846.162 211.99 L 846.162 211.99 L 846.162 211.99 Q 841.682 211.99 837.595 215.245 L 837.595 215.245 L 836.273 213.556 L 836.273 213.556 Q 840.752 209.787 846.211 209.787 L 846.211 209.787 L 846.211 209.787 Q 850.886 209.787 853.566 212.284 L 853.566 212.284 L 853.566 212.284 Q 856.247 214.78 856.247 219.162 L 856.247 219.162 L 856.247 219.162 Q 856.247 222.711 854.448 226.028 L 854.448 226.028 L 854.448 226.028 Q 852.648 229.344 847.875 234.216 L 847.875 234.216 L 838.696 243.639 L 838.696 243.737 L 857.838 243.737 Z  M 887.113 228.096 L 887.113 228.096 L 887.113 228.096 Q 887.113 237.52 884.237 242.048 L 884.237 242.048 L 884.237 242.048 Q 881.361 246.577 875.535 246.577 L 875.535 246.577 L 875.535 246.577 Q 869.93 246.577 867.017 241.914 L 867.017 241.914 L 867.017 241.914 Q 864.104 237.251 864.104 228.096 L 864.104 228.096 L 864.104 228.096 Q 864.104 218.746 866.931 214.242 L 866.931 214.242 L 866.931 214.242 Q 869.758 209.738 875.535 209.738 L 875.535 209.738 L 875.535 209.738 Q 881.189 209.738 884.151 214.401 L 884.151 214.401 L 884.151 214.401 Q 887.113 219.064 887.113 228.096 Z  M 866.748 228.096 L 866.748 228.096 L 866.748 228.096 Q 866.748 236.419 868.926 240.396 L 868.926 240.396 L 868.926 240.396 Q 871.105 244.374 875.535 244.374 L 875.535 244.374 L 875.535 244.374 Q 880.161 244.374 882.279 240.261 L 882.279 240.261 L 882.279 240.261 Q 884.396 236.149 884.396 228.096 L 884.396 228.096 L 884.396 228.096 Q 884.396 220.165 882.279 216.053 L 882.279 216.053 L 882.279 216.053 Q 880.161 211.941 875.535 211.941 L 875.535 211.941 L 875.535 211.941 Q 870.909 211.941 868.828 216.053 L 868.828 216.053 L 868.828 216.053 Q 866.748 220.165 866.748 228.096 Z  M 915.727 228.096 L 915.727 228.096 L 915.727 228.096 Q 915.727 237.52 912.851 242.048 L 912.851 242.048 L 912.851 242.048 Q 909.975 246.577 904.149 246.577 L 904.149 246.577 L 904.149 246.577 Q 898.544 246.577 895.631 241.914 L 895.631 241.914 L 895.631 241.914 Q 892.718 237.251 892.718 228.096 L 892.718 228.096 L 892.718 228.096 Q 892.718 218.746 895.545 214.242 L 895.545 214.242 L 895.545 214.242 Q 898.373 209.738 904.149 209.738 L 904.149 209.738 L 904.149 209.738 Q 909.804 209.738 912.765 214.401 L 912.765 214.401 L 912.765 214.401 Q 915.727 219.064 915.727 228.096 Z  M 895.362 228.096 L 895.362 228.096 L 895.362 228.096 Q 895.362 236.419 897.54 240.396 L 897.54 240.396 L 897.54 240.396 Q 899.719 244.374 904.149 244.374 L 904.149 244.374 L 904.149 244.374 Q 908.776 244.374 910.893 240.261 L 910.893 240.261 L 910.893 240.261 Q 913.01 236.149 913.01 228.096 L 913.01 228.096 L 913.01 228.096 Q 913.01 220.165 910.893 216.053 L 910.893 216.053 L 910.893 216.053 Q 908.776 211.941 904.149 211.941 L 904.149 211.941 L 904.149 211.941 Q 899.523 211.941 897.442 216.053 L 897.442 216.053 L 897.442 216.053 Q 895.362 220.165 895.362 228.096 Z  M 788.786 233.555 L 777.159 233.555 L 777.159 231.547 L 788.786 231.547 L 788.786 233.555 Z  M 671.416 246.087 L 651.859 246.087 L 651.859 210.301 L 654.355 210.301 L 654.355 243.737 L 671.416 243.737 L 671.416 246.087 Z  M 687.718 246.577 L 687.718 246.577 L 687.718 246.577 Q 681.917 246.577 678.674 243.003 L 678.674 243.003 L 678.674 243.003 Q 675.431 239.429 675.431 232.992 L 675.431 232.992 L 675.431 232.992 Q 675.431 226.627 678.564 222.797 L 678.564 222.797 L 678.564 222.797 Q 681.697 218.966 687.008 218.966 L 687.008 218.966 L 687.008 218.966 Q 691.708 218.966 694.425 222.246 L 694.425 222.246 L 694.425 222.246 Q 697.142 225.526 697.142 231.156 L 697.142 231.156 L 697.142 233.114 L 677.976 233.114 L 677.976 233.114 Q 678.025 238.597 680.534 241.485 L 680.534 241.485 L 680.534 241.485 Q 683.043 244.374 687.718 244.374 L 687.718 244.374 L 687.718 244.374 Q 689.995 244.374 691.72 244.056 L 691.72 244.056 L 691.72 244.056 Q 693.446 243.737 696.09 242.685 L 696.09 242.685 L 696.09 244.888 L 696.09 244.888 Q 693.838 245.867 691.928 246.222 L 691.928 246.222 L 691.928 246.222 Q 690.019 246.577 687.718 246.577 Z  M 687.008 221.12 L 687.008 221.12 L 687.008 221.12 Q 683.165 221.12 680.84 223.653 L 680.84 223.653 L 680.84 223.653 Q 678.515 226.187 678.123 230.96 L 678.123 230.96 L 694.572 230.96 L 694.572 230.96 Q 694.572 226.334 692.565 223.727 L 692.565 223.727 L 692.565 223.727 Q 690.558 221.12 687.008 221.12 Z  M 712.759 246.087 L 710.311 246.087 L 700.031 219.48 L 702.527 219.48 L 709.405 237.569 L 709.405 237.569 Q 710.776 241.045 711.462 243.639 L 711.462 243.639 L 711.608 243.639 L 711.608 243.639 Q 712.612 240.31 713.665 237.52 L 713.665 237.52 L 720.543 219.48 L 723.039 219.48 L 712.759 246.087 Z  M 738.24 246.577 L 738.24 246.577 L 738.24 246.577 Q 732.439 246.577 729.196 243.003 L 729.196 243.003 L 729.196 243.003 Q 725.952 239.429 725.952 232.992 L 725.952 232.992 L 725.952 232.992 Q 725.952 226.627 729.085 222.797 L 729.085 222.797 L 729.085 222.797 Q 732.219 218.966 737.53 218.966 L 737.53 218.966 L 737.53 218.966 Q 742.23 218.966 744.947 222.246 L 744.947 222.246 L 744.947 222.246 Q 747.664 225.526 747.664 231.156 L 747.664 231.156 L 747.664 233.114 L 728.498 233.114 L 728.498 233.114 Q 728.547 238.597 731.056 241.485 L 731.056 241.485 L 731.056 241.485 Q 733.565 244.374 738.24 244.374 L 738.24 244.374 L 738.24 244.374 Q 740.517 244.374 742.242 244.056 L 742.242 244.056 L 742.242 244.056 Q 743.968 243.737 746.611 242.685 L 746.611 242.685 L 746.611 244.888 L 746.611 244.888 Q 744.359 245.867 742.45 246.222 L 742.45 246.222 L 742.45 246.222 Q 740.541 246.577 738.24 246.577 Z  M 737.53 221.12 L 737.53 221.12 L 737.53 221.12 Q 733.687 221.12 731.362 223.653 L 731.362 223.653 L 731.362 223.653 Q 729.037 226.187 728.645 230.96 L 728.645 230.96 L 745.094 230.96 L 745.094 230.96 Q 745.094 226.334 743.087 223.727 L 743.087 223.727 L 743.087 223.727 Q 741.079 221.12 737.53 221.12 Z  M 757.431 208 L 757.431 246.087 L 755.007 246.087 L 755.007 208 L 757.431 208 Z  M 538.576 236.859 L 538.576 236.859 L 538.576 236.859 Q 538.576 241.339 535.284 243.958 L 535.284 243.958 L 535.284 243.958 Q 531.992 246.577 526.533 246.577 L 526.533 246.577 L 526.533 246.577 Q 519.973 246.577 516.473 245.133 L 516.473 245.133 L 516.473 242.636 L 516.473 242.636 Q 520.34 244.276 526.337 244.276 L 526.337 244.276 L 526.337 244.276 Q 530.743 244.276 533.326 242.256 L 533.326 242.256 L 533.326 242.256 Q 535.908 240.237 535.908 236.957 L 535.908 236.957 L 535.908 236.957 Q 535.908 234.925 535.051 233.591 L 535.051 233.591 L 535.051 233.591 Q 534.195 232.257 532.261 231.156 L 532.261 231.156 L 532.261 231.156 Q 530.327 230.054 526.582 228.781 L 526.582 228.781 L 526.582 228.781 Q 521.099 226.897 519.006 224.706 L 519.006 224.706 L 519.006 224.706 Q 516.914 222.515 516.914 218.868 L 516.914 218.868 L 516.914 218.868 Q 516.914 214.854 520.059 212.32 L 520.059 212.32 L 520.059 212.32 Q 523.204 209.787 528.149 209.787 L 528.149 209.787 L 528.149 209.787 Q 533.191 209.787 537.622 211.696 L 537.622 211.696 L 536.716 213.85 L 536.716 213.85 Q 532.261 211.99 528.198 211.99 L 528.198 211.99 L 528.198 211.99 Q 524.232 211.99 521.882 213.826 L 521.882 213.826 L 521.882 213.826 Q 519.533 215.661 519.533 218.819 L 519.533 218.819 L 519.533 218.819 Q 519.533 220.802 520.255 222.075 L 520.255 222.075 L 520.255 222.075 Q 520.977 223.347 522.617 224.363 L 522.617 224.363 L 522.617 224.363 Q 524.257 225.379 528.247 226.799 L 528.247 226.799 L 528.247 226.799 Q 532.432 228.243 534.537 229.601 L 534.537 229.601 L 534.537 229.601 Q 536.642 230.96 537.609 232.686 L 537.609 232.686 L 537.609 232.686 Q 538.576 234.411 538.576 236.859 Z  M 547.951 219.48 L 547.951 246.087 L 545.528 246.087 L 545.528 219.48 L 547.951 219.48 Z  M 545.185 212.088 L 545.185 212.088 L 545.185 212.088 Q 545.185 209.738 546.727 209.738 L 546.727 209.738 L 546.727 209.738 Q 547.486 209.738 547.914 210.35 L 547.914 210.35 L 547.914 210.35 Q 548.343 210.962 548.343 212.088 L 548.343 212.088 L 548.343 212.088 Q 548.343 213.189 547.914 213.826 L 547.914 213.826 L 547.914 213.826 Q 547.486 214.462 546.727 214.462 L 546.727 214.462 L 546.727 214.462 Q 545.185 214.462 545.185 212.088 Z  M 559.284 208 L 559.284 246.087 L 556.861 246.087 L 556.861 208 L 559.284 208 Z  M 576.468 246.087 L 574.02 246.087 L 563.739 219.48 L 566.236 219.48 L 573.114 237.569 L 573.114 237.569 Q 574.485 241.045 575.17 243.639 L 575.17 243.639 L 575.317 243.639 L 575.317 243.639 Q 576.321 240.31 577.373 237.52 L 577.373 237.52 L 584.251 219.48 L 586.748 219.48 L 576.468 246.087 Z  M 601.949 246.577 L 601.949 246.577 L 601.949 246.577 Q 596.148 246.577 592.904 243.003 L 592.904 243.003 L 592.904 243.003 Q 589.661 239.429 589.661 232.992 L 589.661 232.992 L 589.661 232.992 Q 589.661 226.627 592.794 222.797 L 592.794 222.797 L 592.794 222.797 Q 595.927 218.966 601.239 218.966 L 601.239 218.966 L 601.239 218.966 Q 605.939 218.966 608.656 222.246 L 608.656 222.246 L 608.656 222.246 Q 611.373 225.526 611.373 231.156 L 611.373 231.156 L 611.373 233.114 L 592.207 233.114 L 592.207 233.114 Q 592.256 238.597 594.765 241.485 L 594.765 241.485 L 594.765 241.485 Q 597.274 244.374 601.949 244.374 L 601.949 244.374 L 601.949 244.374 Q 604.225 244.374 605.951 244.056 L 605.951 244.056 L 605.951 244.056 Q 607.677 243.737 610.32 242.685 L 610.32 242.685 L 610.32 244.888 L 610.32 244.888 Q 608.068 245.867 606.159 246.222 L 606.159 246.222 L 606.159 246.222 Q 604.25 246.577 601.949 246.577 Z  M 601.239 221.12 L 601.239 221.12 L 601.239 221.12 Q 597.396 221.12 595.071 223.653 L 595.071 223.653 L 595.071 223.653 Q 592.745 226.187 592.354 230.96 L 592.354 230.96 L 608.802 230.96 L 608.802 230.96 Q 608.802 226.334 606.795 223.727 L 606.795 223.727 L 606.795 223.727 Q 604.788 221.12 601.239 221.12 Z  M 629.192 218.966 L 629.192 218.966 L 629.192 218.966 Q 630.881 218.966 632.815 219.309 L 632.815 219.309 L 632.35 221.634 L 632.35 221.634 Q 630.685 221.218 628.899 221.218 L 628.899 221.218 L 628.899 221.218 Q 625.496 221.218 623.318 224.106 L 623.318 224.106 L 623.318 224.106 Q 621.139 226.995 621.139 231.401 L 621.139 231.401 L 621.139 246.087 L 618.716 246.087 L 618.716 219.48 L 620.772 219.48 L 621.017 224.278 L 621.188 224.278 L 621.188 224.278 Q 622.828 221.34 624.688 220.153 L 624.688 220.153 L 624.688 220.153 Q 626.549 218.966 629.192 218.966 Z " fill-rule="evenodd" fill="rgb(102,102,102)"/></g></svg>