<?xml version="1.0" encoding="UTF-8"?>
<svg id="Layer_2" data-name="Layer 2" xmlns="http://www.w3.org/2000/svg" viewBox="0 0 163.86 45.51">
  <defs>
    <style>
      .cls-1 {
        fill: #f6f9fd;
      }
    </style>
  </defs>
  <g id="Layer_1-2" data-name="Layer 1">
    <g>
      <path class="cls-1" d="M33.94,39.36c1.49-1.33,2.94-2.47,4.23-4.02,8.13-9.79,7.45-23.92-1.56-32.86l-2.81-2.34h111.4c24.52,1.76,25.04,36.75.56,39.23H33.94s0,0,0,0ZM141.14,3.7c-8.83.36-9.63,6.25-9.7,13.71-.05,4.94-.82,13.95,4.41,16.61,2.67,1.36,7.23,1.16,10.17.8.96-.12,3.69-.52,4.19-1.32.37-.59.42-3.77.15-4.39-.2-.47-.59-.5-1.06-.48-2.38.1-4.35.93-7.06.71-3.52-.29-4.09-2.39-4.31-5.57-.18-2.72-.32-9.79.73-12.11,1.32-2.92,5.86-2.25,8.49-1.9.9.12,2.66.92,3.16-.13.27-.55.25-3.07.14-3.74-.2-1.21-.94-1.2-1.94-1.45-2.13-.52-5.18-.82-7.37-.73h0ZM63.14,22.71l-.49-.14c-2.64-5.1-4.82-10.45-7.43-15.57-.99-1.93-1.27-2.86-3.71-3.06-1.37-.11-4.56-.19-4.46,1.76l.04,27.48c.1.38.14.82.45,1.1.66.59,4.08.53,4.94.27.43-.13,1.07-.58,1.07-1.05V15.94l.54.23c3,5.96,5.93,11.98,9.12,17.84.91.91,3.56.83,4.79.68.96-.11,1.66-.55,1.64-1.6l-.04-27.77c-.21-1.16-1.43-1.31-2.43-1.38-.71-.05-4.03-.01-4.03,1.06v17.71h0ZM80.38,26.96h8.64l.2.22c.59,1.86.85,4.05,1.48,5.86.42,1.22.83,1.54,2.15,1.66,1.66.15,5.34.44,4.57-2.17-2.38-8.24-3.89-17.03-6.4-25.2-.85-2.78-1.57-3.21-4.51-3.39-2.22-.14-6.76-.4-7.52,2.23-1.89,8.36-4.72,16.76-6.48,25.12-.18.84-.7,2.49.1,3.06.75.54,4.33.47,5.22.14.62-.23.86-.59,1.06-1.19.66-1.97.84-4.33,1.5-6.33h0ZM113.66,18.9c-1.83-4.62-3.45-9.35-5.57-13.83-.73-.92-2.13-1.07-3.24-1.13s-3.55-.02-4.31.78c-.16.16-.25.43-.35.63-.09,9.43-.15,18.92.03,28.34.1.34.34.6.65.76.83.41,4.53.43,5.25-.16.2-.16.37-.6.42-.85.56-2.7-.3-6.83.07-9.68-.32-3.19-.07-6.44-.15-9.66.21.04.27.26.35.42,1.44,3,2.33,6.89,3.63,10.05.24.58.6,1.64,1.1,2.01.82.61,4.72.73,5.15-.76,1.65-3.48,2.45-7.89,4.08-11.3.09-.18.17-.44.42-.42l-.04,19.51c.25,1.41,3.42,1.2,4.55,1.09.95-.09,1.79-.38,1.77-1.47-.48-8.9.62-18.42,0-27.24-.05-.7-.15-1.21-.8-1.59-1.11-.65-4.75-.52-6.01-.12-.77.25-1.25.81-1.59,1.51-1.95,3.96-3.15,8.83-5.04,12.88l-.39.25h0Z"/>
      <path class="cls-1" d="M22.37,39.22v-11.85c.95-.47,1.86.68,2.76.29,1.76-.75.65-1.51.94-2.74.04-.17.54-.9.67-1.02.45-.41,1.75-.39,2.11-.85.12-.16.44-1.17.41-1.37-.13-.81-1.45-.9-1.25-2.57.09-.75,1.24-1.72,1.24-2.08,0-.19-.33-1.23-.46-1.37-.33-.34-1.44-.37-1.89-.64-1.25-.75-.66-1.95-.86-2.95-.06-.29-.99-.99-1.22-1.02-.4-.06-1.37.65-1.81.66-.08,0-1.44-.39-1.52-.44-.64-.34-.45-1.56-1.57-1.67-1.77-.18-1.25.89-2.12,1.56-.46.36-1.99.75-2.8,1.29-5.81,3.91-4.59,12.8,2.02,14.93v11.85C8.67,38.07,1.53,31.43.25,23.02-2.74,3.24,21.35-8.02,34.43,6.76c10.39,11.74,3.23,30.32-12.07,32.45ZM9.49,4.39c-.68.11-3.3,2.71-3.84,3.36C-.62,15.26.28,26.7,7.69,33.08c.5.43,2.69,2.32,3.18,1.34.52-1.05-1.51-2-2.19-2.61-7.25-6.48-7.56-17.85-.42-24.56.33-.31,1.96-1.45,2.05-1.62.3-.61-.17-1.35-.82-1.25h0ZM11.89,7.37c-.53-.53-1.38.25-1.8.6-7.17,5.92-7.06,18.44.95,23.47.51.32,1.3.85,1.67.02.43-.97-.71-1.23-1.26-1.69-5.77-4.79-6.82-13.13-1.9-18.97.38-.45,2.39-2.18,2.46-2.33.13-.27.11-.88-.1-1.09h0ZM13.43,9.9c-.49.04-1.97,1.45-2.36,1.87-4.09,4.54-3.86,11.73.57,15.95.44.42,2.4,2.19,2.9,1.2s-1.43-1.97-2.05-2.6c-3.47-3.57-3.59-9.47-.41-13.26.44-.52,2.09-1.8,2.2-2.19s-.42-.99-.84-.96Z"/>
      <path class="cls-1" d="M21.38,43.88h-3.39v-20.1c-3.96-1.66-3.97-7.51.31-8.72,4.65-1.32,7.88,4.44,4.5,7.74-.23.23-1.42.9-1.42.98v20.1Z"/>
      <path class="cls-1" d="M146.39,41.83c.06-.21.37-.27.57-.15.19.12,1.33,2.64,1.54,2.47.16-.34,1.17-2.44,1.3-2.52.13-.08.37,0,.54-.03v3.81s-.56.03-.56,0v-2.68l-1.11,2.03c-.13.17-.58.18-.62-.09l-1.09-1.94v2.68s-.56.03-.56,0c0-.75-.15-3.07,0-3.6h0Z"/>
      <path class="cls-1" d="M91.08,41.62c.27-.04.38.02.57.21.5.48.92,1.87,1.33,2.48.15,0,1.11-2.26,1.41-2.54.18-.17.25-.17.49-.15v3.81h-.42v-2.82l-1.2,2.12-.42.15-1.35-2.26v2.82h-.42v-3.81h0Z"/>
      <path class="cls-1" d="M99.97,41.83c.1-.34,2.68-.59,2.53.97-.06.59-.39.48-.41.51-.2.3.58.28.58,1.06,0,1.37-1.77,1.04-2.7,1.06.17-.9-.23-2.84,0-3.6h0ZM101.91,43.14c.72-.7-.73-1.22-1.38-.95v1.13c.37-.02,1.11.09,1.38-.18ZM100.53,45c2.12.31,2.15-1.62,0-1.27v1.27Z"/>
      <path class="cls-1" d="M85.72,45.43v-3.81c1.49-.09,3.25,0,3.26,1.9s-1.75,2.01-3.26,1.9h0ZM86.28,42.18v2.82c1.03.06,2.03.03,2.13-1.19.13-1.61-.73-1.76-2.13-1.63Z"/>
      <path class="cls-1" d="M64.7,45.43v-3.81c1.52-.12,3.32.11,3.26,2.05-.06,1.78-1.89,1.88-3.26,1.76ZM65.26,42.18v2.82c1.26.08,2.12-.04,2.13-1.48s-.96-1.41-2.13-1.34Z"/>
      <path class="cls-1" d="M126.5,44.3v-2.47c0-.24.56-.24.56,0v3.6c-.33.06-.43-.09-.64-.28-.71-.61-1.25-1.93-2.04-2.55v2.82h-.42v-3.81c.22-.03.33,0,.5.13.63.47,1.24,2.11,2.04,2.55h0Z"/>
      <path class="cls-1" d="M50.02,41.62c.25-.04.31,0,.49.15.64.54,1.33,2.08,2.05,2.67v-2.61c0-.24.56-.24.56,0v3.39s-.16.15-.21.21l-.34-.02-2.13-2.8v2.82h-.42v-3.81h0Z"/>
      <path class="cls-1" d="M77.82,44.3v-2.47c0-.24.56-.24.56,0v3.6c-.33.06-.43-.09-.64-.28-.73-.63-1.23-1.94-2.04-2.55v2.82h-.42v-3.81c.22-.03.33,0,.5.13.63.47,1.24,2.11,2.04,2.55h0Z"/>
      <path class="cls-1" d="M131.96,41.65c2.58-.52,3.1,3.29.92,3.74-2.77.58-3.11-3.3-.92-3.74ZM131.47,44.68c1.42,1.42,3.19-1.41,1.71-2.35-1.59-1.01-2.74,1.31-1.71,2.35Z"/>
      <path class="cls-1" d="M97.11,41.65c2.86-.46,3,4.24-.03,3.77-1.96-.3-1.99-3.45.03-3.77ZM96.97,42.21c-1.07.32-1.08,2.57.29,2.76,2.14.3,2.05-3.45-.29-2.76Z"/>
      <path class="cls-1" d="M47.17,41.65c2.83-.41,2.93,4.13-.02,3.77-2-.25-2.05-3.47.02-3.77ZM47.02,42.21c-.95.22-1.14,2.03-.23,2.57,2.17,1.3,3.01-3.21.23-2.57Z"/>
      <path class="cls-1" d="M121.1,41.65c2.83-.41,2.93,4.13-.02,3.77-2-.25-2.05-3.47.02-3.77ZM120.95,42.21c-.98.23-1.14,2.12-.15,2.63,2.13,1.11,2.89-3.26.15-2.63Z"/>
      <path class="cls-1" d="M34.22,41.62l.49.15,2.05,2.67v-2.61c0-.09.3-.27.42-.21v3.81c-.2.01-.27.04-.43-.09-.71-.61-1.32-2.09-2.11-2.72v2.82h-.42v-3.81h0Z"/>
      <path class="cls-1" d="M144.98,41.62c.82-.23.63,1.9.55,2.46-.15,1.12-.94,1.55-2.03,1.35-.37-.07-1.06-.73-1.06-1.05v-2.75c1.15.01.21,2.09.7,2.9.51.86,1.84.25,1.84-.15v-2.75h0Z"/>
      <path class="cls-1" d="M134.96,41.62c1.71-.33,3.6.9,1.55,2.19l1.13,1.62c-.86.17-1.03-.94-1.54-1.35-1.19-.97-.54,1.18-.72,1.35h-.42v-3.81ZM135.39,43.45c1.38.49,2.07-1.23.76-1.4-1.08-.14-.72.62-.76,1.4Z"/>
      <path class="cls-1" d="M84.94,41.62c.09.03.24.23.21.35-.09.44-1.8.05-1.84.3v1.05c.24.04,1.38-.09,1.42.07.12.68-1.01.23-1.41.35v1.27h1.83c.06.13-.13.42-.21.42h-2.19v-3.81c.59.11,1.68-.15,2.19,0h0Z"/>
      <path class="cls-1" d="M74.86,45.43c-.9.28-.71-.84-.86-.97-.07-.06-1.75-.06-1.84.07-.27.39.01,1.12-.83.9.23-.54,1.29-3.7,1.64-3.8.25-.08.34.03.46.22.56.81.87,2.66,1.43,3.58h0ZM73.73,44.02l-.63-1.69-.63,1.69h1.27,0Z"/>
      <path class="cls-1" d="M57.08,45.43c-.87.26-.63-.81-1.08-.96-.21-.07-1.52-.07-1.62.06-.27.39.01,1.12-.83.9.23-.54,1.29-3.7,1.64-3.8.25-.08.34.03.46.22.56.81.87,2.66,1.43,3.58h0ZM55.95,44.02l-.63-1.69-.78,1.69h1.41Z"/>
      <path class="cls-1" d="M64.27,45.43c-.87.26-.63-.81-1.08-.96-.21-.07-1.52-.07-1.62.06-.27.39.01,1.12-.83.9.2-.54,1.32-3.7,1.64-3.8.25-.08.34.03.46.22.58.82.85,2.66,1.43,3.58h0ZM63.14,44.02l-.63-1.69-.78,1.69h1.41Z"/>
      <path class="cls-1" d="M41.13,45.43c-.44.41-.64-.86-.94-.96-.21-.07-1.52-.07-1.62.06-.27.39.01,1.12-.83.9.18-.56,1.28-3.69,1.63-3.8.2-.06.28-.02.41.14s1.49,3.53,1.34,3.66h0ZM39.58,42.32c-.23-.25-.24.08-.29.2-.2.44-.3,1.05-.55,1.49h1.41c-.2-.23-.49-1.61-.57-1.69h0Z"/>
      <path class="cls-1" d="M119.16,44.58s.11.37.08.43c-.19.42-1.43.49-1.83.41-1.84-.35-1.76-4.37,1.06-3.74.44.1,1.05.7.48.79-.13.02-.63-.43-1.38-.25-1.28.3-1.23,3.16.81,2.79.28-.05.62-.56.78-.42h0Z"/>
      <path class="cls-1" d="M80.46,41.65c1.51-.24,1.93.9,1.26.8-.09-.01-.24-.22-.45-.26-1.45-.24-2.14.97-1.51,2.21.38.75,1.58.88,2.08.18.63.35.06.7-.46.81-2.94.61-3.09-3.4-.92-3.74h0Z"/>
      <path class="cls-1" d="M68.62,41.64c.15.09,1.01,2.7,1.22,3.08.15,0,.9-2.48,1.14-2.81.18-.25.3-.34.63-.29-.23.51-1.37,3.72-1.64,3.8-.25.07-.34-.03-.47-.22-.2-.28-1.3-2.95-1.42-3.38-.09-.31.4-.26.54-.18h0Z"/>
      <path class="cls-1" d="M129.88,42.32c-.12.1-1.47-.7-1.56.21-.09.98,1.77.38,1.71,1.83-.05,1.16-1.5,1.36-2.27.7-.15-.13-.03-.46,0-.49.17-.15.87.88,1.63.15.83-.81-.7-.99-1.06-1.21-1.15-.71-.47-2.12,1.04-1.88.48.08.72.22.5.7h0Z"/>
      <path class="cls-1" d="M111.54,41.62c.45.93-1.27.46-1.27.56v3.24s-.56.03-.56,0v-3.24c0-.09-1.55.34-1.13-.56h2.96Z"/>
      <path class="cls-1" d="M42.68,42.18v3.24s-.56.03-.56,0v-3.24c0-.07-1.4.21-1.27-.35,0-.03.2-.21.21-.21h2.68s.2.19.21.21c.13.56-1.27.28-1.27.35h0Z"/>
      <path class="cls-1" d="M140.61,41.62c.45.93-1.27.46-1.27.56v3.24c-.16.06-.56-.06-.56-.21v-3.03c0-.09-1.55.34-1.13-.56h2.96Z"/>
      <path class="cls-1" d="M114.78,41.62c.13.11-1.13,1.84-1.21,2.11-.19.65.28,1.8-.63,1.7.33-1.56-.72-2.37-1.27-3.67.55-.46,1.16,1.37,1.48,1.69.36-.18,1.01-2.35,1.62-1.83h0Z"/>
      <path class="cls-1" d="M105.33,41.62v3.39h1.69v.42h-2.05c-.1,0-.19-.23-.21-.35-.08-.42-.08-2.68,0-3.1.06-.35.23-.39.56-.35h0Z"/>
      <path class="cls-1" d="M57.5,41.62c.15,0,.29-.04.43.06.31.23.04,2.77.13,3.33h1.55v.42h-2.12v-3.81h0Z"/>
      <path class="cls-1" d="M103.92,41.62v3.81s-.56.03-.56,0v-3.81s.46.02.56,0Z"/>
      <path class="cls-1" d="M44.94,41.62v3.81s-.56.03-.56,0v-3.81s.46.02.56,0Z"/>
      <rect class="cls-1" x="107.59" y="41.76" width=".42" height="3.67"/>
      <rect class="cls-1" x="141.17" y="41.76" width=".42" height="3.67"/>
      <path class="cls-1" d="M88.12,22h-6.49l3.03-12.56.51.07c1.03,4.13,1.99,8.33,2.95,12.5h0Z"/>
    </g>
  </g>
</svg>