<?xml version="1.0" encoding="UTF-8"?>
<svg id="Layer_1" xmlns="http://www.w3.org/2000/svg" baseProfile="tiny" version="1.2" viewBox="0 0 1100 300">
  <!-- Generator: Adobe Illustrator 30.0.0, SVG Export Plug-In . SVG Version: 2.1.1 Build 123)  -->
  <g>
    <polygon points="85.62 121.06 125.23 121.06 121.5 136.31 102.52 136.31 100.64 144.32 120.44 144.32 116.99 158.45 97.45 158.45 92.76 178.53 72.3 178.53 85.62 121.06 85.62 121.06" fill="#fcf9fd"/>
    <polygon points="130.61 121.06 151.07 121.06 137.74 178.53 117.28 178.53 130.61 121.06 130.61 121.06" fill="#fcf9fd"/>
    <path d="M171.53,148.46c6.57,0,11.17-3.88,11.17-9.39,0-2.93-2.16-4.39-6.38-4.39-1.22,0-1.88.09-3.19.34l-3.1,13.27c.66.09.75.17,1.5.17h0ZM156.42,121.41l1.31-.17c6.57-.78,14.73-1.29,19.24-1.29,7.51,0,13.33.86,17.74,2.67,5.63,2.33,9.01,7.41,9.01,13.53,0,5.25-1.78,10.25-5.16,14.13-2.91,3.36-5.54,5-10.98,6.63l-1.31.43c.56.43.75.6,1.03.86,1.59,1.81,6.38,11.11,10.42,20.33h-22.52c-2.91-8.18-3.75-10.34-7.6-19.64l-4.5,19.64h-19.89l13.23-57.12h0Z" fill="#fcf9fd"/>
    <polygon points="252.28 121.06 301.92 121.06 298.46 137.7 283.72 137.7 273.96 178.53 253.5 178.53 263.26 137.7 247.3 137.7 252.28 121.06 252.28 121.06" fill="#fcf9fd"/>
    <path d="M283.4,173.08c.44,0,.69-.21.69-.62s-.23-.6-.68-.6c-.1,0-.12,0-.21.02v1.18c.08.02.12.02.19.02h0ZM281.61,170.69c.25-.02.29-.04.79-.08.5-.04.71-.06.93-.06,1.64,0,2.45.64,2.45,1.85,0,.73-.31,1.18-.96,1.43l-.08.02c.06.04.08.06.1.1.17.15.75,1.02,1.23,1.81h-1.87c-.39-.71-.5-.91-.98-1.72v1.72h-1.6v-5.07h0ZM283.54,177.62c2.43,0,4.38-1.95,4.38-4.36s-1.95-4.38-4.38-4.38-4.36,1.95-4.36,4.36,1.93,4.38,4.36,4.38h0ZM283.54,168.26c2.76,0,4.99,2.22,4.99,4.98s-2.22,5-4.99,5-4.98-2.18-4.98-5,2.2-4.98,4.98-4.98h0Z" fill="#fcf9fd"/>
    <path d="M199.73,177.07c5.75,1.71,12.04,2.67,17.92,2.67,7.98,0,14.08-1.81,19.33-5.6,5.82-4.14,9.57-10.51,9.57-16.28,0-3.88-1.69-7.41-4.69-9.91-2.35-1.89-4.79-3.36-9.76-5.69l-4.03-1.9c-1.31-.69-1.97-1.38-1.97-2.15,0-2.07,2.63-3.62,6.19-3.62,2.67,0,5.85.78,11.92,2.76l4.19-15.56c-4.54-1.23-8.97-1.85-13.4-1.85-16.7,0-29.56,9.13-29.56,20.94,0,6.2,4.13,10.6,14.45,15.42,4.88,2.24,5.73,2.84,5.73,4.39,0,2.33-2.53,3.79-6.66,3.79-3.66,0-8.35-1.12-14.73-3.45h0s-4.49,16.03-4.49,16.03h0Z" fill="#fcf9fd"/>
  </g>
  <g>
    <g>
      <path d="M911.15,124.87h-1.54v3.01h-1.56v-8h3.1c1.65,0,2.64,1.14,2.64,2.49s-.99,2.49-2.64,2.49M911.07,121.27h-1.46v2.19h1.46c.71,0,1.16-.44,1.16-1.09s-.45-1.1-1.16-1.1" fill="#fcf9fd"/>
      <path d="M919.92,127.88l-1.56-3.19h-1.12v3.19h-1.56v-8h3.13c1.63,0,2.6,1.11,2.6,2.45,0,1.12-.69,1.82-1.46,2.1l1.79,3.45h-1.81ZM918.71,121.27h-1.47v2.11h1.47c.69,0,1.13-.44,1.13-1.06s-.45-1.06-1.13-1.06" fill="#fcf9fd"/>
      <polygon points="923.59 127.88 923.59 119.88 928.86 119.88 928.86 121.27 925.15 121.27 925.15 123.15 928.3 123.15 928.3 124.54 925.15 124.54 925.15 126.49 928.86 126.49 928.86 127.88 923.59 127.88" fill="#fcf9fd"/>
      <path d="M933.15,127.95c-1.21,0-2.13-.26-2.92-1.06l1.01-1.01c.51.51,1.19.67,1.93.67.92,0,1.42-.35,1.42-.99,0-.28-.08-.52-.25-.67-.16-.15-.34-.22-.71-.28l-.97-.14c-.69-.1-1.19-.31-1.55-.66-.38-.38-.57-.9-.57-1.57,0-1.43,1.06-2.43,2.79-2.43,1.1,0,1.9.27,2.58.93l-.99.98c-.5-.48-1.11-.55-1.64-.55-.83,0-1.24.46-1.24,1.01,0,.2.07.42.24.57.16.15.42.27.74.31l.94.14c.73.1,1.19.3,1.53.62.43.41.62.99.62,1.7,0,1.55-1.29,2.43-2.97,2.43" fill="#fcf9fd"/>
      <polygon points="938.16 127.88 938.16 119.88 943.43 119.88 943.43 121.27 939.72 121.27 939.72 123.15 942.87 123.15 942.87 124.54 939.72 124.54 939.72 126.49 943.43 126.49 943.43 127.88 938.16 127.88" fill="#fcf9fd"/>
      <polygon points="950.25 127.88 947.08 122.97 947.08 127.88 945.52 127.88 945.52 119.88 946.91 119.88 950.08 124.78 950.08 119.88 951.64 119.88 951.64 127.88 950.25 127.88" fill="#fcf9fd"/>
      <polygon points="957.13 121.27 957.13 127.88 955.57 127.88 955.57 121.27 953.48 121.27 953.48 119.88 959.22 119.88 959.22 121.27 957.13 121.27" fill="#fcf9fd"/>
      <polygon points="961.05 127.88 961.05 119.88 966.32 119.88 966.32 121.27 962.62 121.27 962.62 123.15 965.77 123.15 965.77 124.54 962.62 124.54 962.62 126.49 966.32 126.49 966.32 127.88 961.05 127.88" fill="#fcf9fd"/>
      <path d="M973.42,127.12c-.53.53-1.28.76-2.11.76h-2.89v-8h2.89c.83,0,1.58.24,2.11.76.9.9.81,2,.81,3.2s.09,2.37-.81,3.27M972.33,121.77c-.27-.33-.63-.49-1.17-.49h-1.18v5.21h1.18c.54,0,.9-.17,1.17-.49.29-.36.34-.93.34-2.15s-.05-1.72-.34-2.08" fill="#fcf9fd"/>
      <path d="M982.91,127.88h-3.35v-8h3.21c1.56,0,2.47.88,2.47,2.25,0,.89-.58,1.46-.99,1.65.48.22,1.1.73,1.1,1.8,0,1.49-1.02,2.3-2.45,2.3M982.65,121.27h-1.53v1.84h1.53c.66,0,1.03-.37,1.03-.92s-.37-.92-1.03-.92M982.75,124.52h-1.63v1.97h1.63c.71,0,1.04-.45,1.04-.99s-.34-.98-1.04-.98" fill="#fcf9fd"/>
      <polygon points="990.57 124.6 990.57 127.88 989.02 127.88 989.02 124.6 986.62 119.88 988.32 119.88 989.81 123.1 991.28 119.88 992.98 119.88 990.57 124.6" fill="#fcf9fd"/>
    </g>
    <path d="M914.99,159.62c.4,0,.78.34.78.78v14.67c0,.4-.37.74-.78.74h-1.99c-.37,0-.74-.3-.74-.71v-1.35c-1.01,1.48-2.73,2.5-5.26,2.5-4.22,0-6.81-2.8-6.81-6.95v-8.94c0-.4.37-.74.78-.74h1.99c.4,0,.74.34.74.74v8.37c0,2.7,1.42,4.49,4.22,4.49s4.35-1.86,4.35-4.45v-8.4c0-.4.37-.74.74-.74h1.99ZM885.64,151.49c-6.81,0-12.31,5.3-12.31,12.38s5.5,12.38,12.31,12.38c1.17,0,2.29-.16,3.36-.45l1.33,3.45c.14.37.4.61.91.61h2.13c.51,0,.88-.34.64-.98l-1.73-4.52c3.42-2.15,5.68-5.95,5.68-10.49,0-7.08-5.5-12.38-12.31-12.38M891,171.04l-1.55-4.04c-.13-.34-.4-.64-1.01-.64h-2.02c-.51,0-.91.34-.67.98l2.04,5.31c-.68.17-1.4.26-2.15.26-4.99,0-8.53-3.91-8.53-9.04s3.54-9.04,8.53-9.04,8.53,3.91,8.53,9.04c0,2.98-1.2,5.54-3.17,7.17M1027.64,175c.17.4-.03.81-.54.81h-2.23c-.4,0-.74-.2-.88-.61l-4.12-11.06-4.18,11.06c-.17.44-.47.61-.88.61h-1.99c-.4,0-.71-.17-.88-.61l-4.22-11.13-4.15,11.13c-.17.4-.47.61-.88.61h-2.09c-.4,0-.71-.2-.88-.61l-4.12-11.13-4.25,11.13c-.17.44-.47.61-.88.61h-1.99c-.4,0-.71-.17-.88-.61l-4.15-11.13-4.15,11.13c-.13.4-.47.61-.88.61h-2.16c-.51,0-.71-.41-.54-.81l5.63-14.74c.17-.44.47-.64.88-.64h2.43c.4,0,.71.2.88.64l3.98,10.76,4.01-10.76c.17-.44.47-.64.88-.64h2.4c.4,0,.71.2.88.64l3.98,10.76,3.98-10.76c.17-.44.47-.64.88-.64h2.39c.4,0,.71.2.88.64l4.05,10.76,3.95-10.76c.17-.44.47-.64.88-.64h2.43c.4,0,.71.2.88.64l5.63,14.74M934.28,159.62h-1.99c-.4,0-.78.34-.78.78v1.35c-1.01-1.52-2.97-2.6-5.3-2.6-4.38,0-8.16,3.47-8.16,8.53s3.78,8.57,8.13,8.57c2.36,0,4.28-1.08,5.33-2.6v1.42c0,.4.37.74.78.74h1.99c.4,0,.74-.34.74-.74v-14.67c0-.44-.34-.78-.74-.78M926.59,173.01c-2.9,0-4.96-2.36-4.96-5.3s2.06-5.26,4.96-5.26,4.96,2.29,4.96,5.26-2.09,5.3-4.96,5.3M958.03,173.52c.44.54.07.94-.17,1.11-1.38,1.05-3.21,1.62-5.2,1.62-5.03,0-8.37-3.68-8.37-8.53s3.34-8.57,8.37-8.57c1.99,0,3.81.57,5.2,1.62.24.17.57.54.17,1.11l-.94,1.31c-.37.51-.81.37-1.18.14-.88-.54-1.92-.98-3.14-.98-2.93,0-4.89,2.36-4.89,5.36s1.96,5.33,4.89,5.33c1.21,0,2.19-.47,3.07-.98.37-.2.78-.37,1.18.17l1.01,1.28ZM967.4,159.18c-4.72,0-8.5,3.71-8.5,8.53s3.78,8.53,8.5,8.53,8.5-3.68,8.5-8.53-3.78-8.53-8.5-8.53M967.4,172.98c-2.9,0-4.96-2.33-4.96-5.26s2.06-5.26,4.96-5.26,4.96,2.29,4.96,5.26-2.06,5.26-4.96,5.26M941.26,151.93c.44,0,.74.37.74.78v22.33c0,.4-.3.78-.74.78h-1.99c-.4,0-.78-.37-.78-.78v-22.33c0-.4.37-.78.78-.78h1.99" fill="#fcf9fd"/>
  </g>
  <g>
    <g>
      <path d="M700.12,148.48c0-3.45-.17-6.86-.5-10.22h-93.52l-15.87,32.93h69.5c0,5.47-21,40.22-54.18,38.85-39.95-1.64-59.65-36.12-59.65-61.29s20.25-61.29,56.36-61.29,47.61,18.61,54.18,29.55l33.93-16.05c-15.14-34.48-50.42-52.48-87.78-52.48-53.86,0-97.53,44.77-97.53,100,0,10.47,1.57,20.55,4.48,30.03l12.74-5.53.32,1.04c5.19,17.13,15.81,32.5,29.88,43.3,14.55,11.16,31.88,17.06,50.11,17.06,7.94,0,15.56-.81,22.67-2.39l.81-.18,5.26,13.29c42.92-10.66,68.79-46.07,68.79-96.62Z" fill="#fcf9fd"/>
      <path d="M624.87,234.05c-7.01,1.5-14.5,2.26-22.28,2.26-18.66,0-36.39-6.04-51.29-17.46-14.11-10.82-24.82-26.15-30.24-43.24l-10.91,4.74c.11.33.22.67.33,1,.22.63.42,1.27.65,1.9.46,1.28.95,2.55,1.47,3.81.25.6.51,1.19.77,1.79.32.75.65,1.5.99,2.24.29.64.6,1.27.91,1.91.33.69.68,1.37,1.03,2.05.32.62.64,1.25.98,1.86.38.7.78,1.4,1.17,2.09.32.57.64,1.14.97,1.7.69,1.16,1.41,2.3,2.14,3.43.33.5.67.98,1,1.47.48.71.96,1.41,1.46,2.1.39.54.79,1.07,1.18,1.6.48.64.96,1.27,1.45,1.89.41.52.82,1.04,1.24,1.55.53.65,1.07,1.28,1.62,1.92.39.46.78.92,1.18,1.37.91,1.02,1.83,2.01,2.78,2.99.34.35.7.69,1.04,1.03.67.67,1.35,1.34,2.04,2,.44.41.89.82,1.33,1.23.63.57,1.27,1.14,1.91,1.7.46.4.92.79,1.39,1.18.69.58,1.39,1.14,2.1,1.69.42.33.84.67,1.27,1,1.11.84,2.23,1.66,3.37,2.46.3.21.6.4.9.6.9.61,1.8,1.21,2.72,1.79.46.29.93.57,1.4.86.78.48,1.57.94,2.37,1.4.49.28.98.55,1.47.82.84.46,1.7.91,2.55,1.34.44.22.87.45,1.31.67,1.28.63,2.57,1.23,3.88,1.8.21.09.43.17.64.26,1.13.48,2.27.94,3.42,1.38.47.18.94.35,1.42.52.92.33,1.85.66,2.78.96.51.17,1.02.33,1.53.49.97.3,1.94.58,2.92.85.45.12.9.26,1.36.37,1.42.37,2.85.71,4.3,1.02.11.02.22.04.32.06,1.35.28,2.71.52,4.07.75.48.08.96.14,1.43.21,1.02.15,2.05.28,3.08.4.53.06,1.06.12,1.6.17,1.05.1,2.1.18,3.15.25.48.03.96.07,1.44.09,1.52.07,3.04.12,4.58.12,0,0,0,0,.02,0,0,0,0,0,.01,0,1.65,0,3.28-.04,4.89-.1.43-.02.85-.03,1.27-.05,1.55-.07,3.09-.16,4.61-.29.2-.02.39-.04.59-.05,1.38-.12,2.74-.27,4.09-.43.5-.06,1-.13,1.5-.19,1.3-.18,2.58-.37,3.85-.58.49-.08.97-.17,1.45-.26,1.08-.2,2.16-.41,3.22-.64.45-.1.9-.2,1.35-.3l-4.56-11.51Z" fill="#fcf9fd"/>
    </g>
    <g>
      <polygon points="736.96 75.23 724.91 62.38 724.91 230.8 736.96 218.54 736.96 75.23" fill="#fcf9fd"/>
      <circle cx="796.69" cy="145.7" r="12.73" fill="#fcf9fd"/>
      <path d="M764.37,205.14l.55-115.5h70.54v-37.76h-117.65l5.38,5.82,15.71,16.76v144.86l-.85.86h0s0,0,0,0h0s-13.13,13.35-13.13,13.35v.03l-8.57,8.73h8.57s0,0,0,0h13.13s97.46-.05,97.46-.05l.45-37.12h-71.58ZM824.46,234.43h-1.77v4.82h-1.61v-4.82h-1.77v-1.42h5.15v1.42ZM832.51,239.26h-1.59v-3.08l-1.21,3.05h-1.08l-1.21-3.06v3.09h-1.59v-6.24h1.84l1.49,3.68,1.49-3.68h1.84v6.24Z" fill="#fcf9fd"/>
    </g>
    <g>
      <path d="M511.68,245.06l-77.25-192.62h-54.68l11.29,21.89h0s6.54,12.61,6.54,12.61l-.03.07.58,1.13-.16.41-62.84,156.52h27.06l23.53-61.14,58.83.8,18.06,46.52-8.17,13.82h57.24ZM417.24,158.43c-7.03,0-12.73-5.7-12.73-12.73s5.7-12.73,12.73-12.73,12.73,5.7,12.73,12.73-5.7,12.73-12.73,12.73Z" fill="#fcf9fd"/>
      <polygon points="396.02 88.23 390.05 76.73 321.2 245.06 333.06 245.06 396.02 88.23" fill="#fcf9fd"/>
    </g>
  </g>
</svg>