<?xml version="1.0" encoding="UTF-8"?>
<svg id="Layer_1" xmlns="http://www.w3.org/2000/svg" version="1.1" viewBox="0 0 500 500">
  <!-- Generator: Adobe Illustrator 30.5.1, SVG Export Plug-In . SVG Version: 2.1.4 Build 3)  -->
  <defs>
    <style>
      .st0 {
        fill: #efb821;
      }

      .st1 {
        fill: #0f0f0f;
      }
    </style>
  </defs>
  <rect class="st1" x="0" y="0" width="500" height="500" rx="100" ry="100"/>
  <path class="st0" d="M433.9,351.6l4.5,4.5-70.7,70.7-4.5-4.5-18.3-18.3c-10.5,5.7-21.6,10.3-33.3,13.8v32.2h-100v-32.2c-11.6-3.5-22.8-8.1-33.3-13.8l-18.3,18.3-4.5,4.5-70.7-70.7,4.5-4.5,18.3-18.3c-5.7-10.5-10.3-21.6-13.8-33.3h-32.2v-100h32.2c3.5-11.6,8.1-22.8,13.8-33.3l-18.3-18.3-4.5-4.5,35.4-35.4,35.3-35.4,22.8,22.8c10.5-5.7,21.6-10.3,33.3-13.8v-32.2h100v32.2c11.6,3.5,22.8,8.1,33.3,13.8l22.8-22.8,35.4,35.4,35.4,35.4-4.5,4.5-18.3,18.3-33.3,33.3h-38.7c-16.9-27.6-47.3-46-82-46-53,0-96,43-96,96s43,96,96,96,65.1-18.4,82-46h38.7l33.3,33.3,18.3,18.3h-.1Z"/>
</svg>