<?xml version="1.0" standalone="no"?><!-- Generator: Gravit.io --><svg xmlns="http://www.w3.org/2000/svg" xmlns:xlink="http://www.w3.org/1999/xlink" style="isolation:isolate" viewBox="0 0 225.684 169.496" width="225.684" height="169.496"><g><clipPath id="_clipPath_ijX6xRJOc7zy6mg3kT0BPm5njwoBO7L7"><path d=" M 0 0 L 0 169.496 L 225.684 169.496 L 225.684 0 L 0 0 Z " fill="rgb(255,255,255)"/></clipPath><g clip-path="url(#_clipPath_ijX6xRJOc7zy6mg3kT0BPm5njwoBO7L7)"><g><path d=" M 52.331 70.729 L 51.106 77.141 L 63.323 71.902 C 62.543 70.259 61.917 68.561 61.463 66.817 L 52.331 70.729 Z " fill="rgb(254,254,254)"/></g></g><path d=" M 0 0 L 0 169.496 L 225.684 169.496 L 225.684 0 L 0 0 Z " fill="none"/><clipPath id="_clipPath_yNxzLyGBIZsyI1THHR8DKcuXP0sgq01x"><path d=" M 0 0 L 0 169.496 L 225.684 169.496 L 225.684 0 L 0 0 Z " fill="rgb(255,255,255)"/></clipPath><g clip-path="url(#_clipPath_yNxzLyGBIZsyI1THHR8DKcuXP0sgq01x)"><g><path d=" M 152.829 96.394 L 142.785 86.748 C 146.734 84.046 150.076 80.875 152.649 77.345 C 152.684 77.298 152.717 77.242 152.751 77.194 L 177.183 51.827 L 177.908 51.045 L 181.097 47.726 L 151.261 19.082 L 144.556 26.062 L 137.159 33.769 L 132.121 39.019 L 122.62 48.912 L 122.626 48.918 L 121.803 49.774 L 124.574 52.428 L 137.43 64.963 C 134.616 67.626 131.042 69.908 127.005 71.588 C 127.004 71.588 127 71.588 126.998 71.589 L 118.513 63.445 L 110.184 55.444 L 104.516 50.073 L 117.984 36.044 L 124.748 28.997 L 132.101 21.342 L 150.469 2.211 L 198.826 48.494 L 152.829 96.394 Z  M 159.062 55.733 C 159.281 54.302 159.405 52.884 159.405 51.525 C 159.405 43.506 155.773 35.053 149.673 28.749 L 151.261 27.093 L 175.976 50.825 L 155.512 72.133 C 157.685 67.081 159.091 60.847 159.091 56.377 C 159.091 56.187 159.08 55.968 159.062 55.733 Z  M 138.517 63.878 L 126.85 52.516 L 136.731 42.224 C 140.247 45.154 142.847 48.655 144.222 52.503 C 144.137 53.132 144.03 53.764 143.875 54.397 C 143.044 57.804 141.235 60.989 138.517 63.878 Z  M 136.578 80.863 C 134.776 81.78 132.865 82.611 130.894 83.339 C 124.124 85.838 116.824 87.106 109.199 87.106 C 98.389 87.106 88.156 84.536 79.61 79.672 C 74.885 76.982 70.917 73.722 67.816 69.981 C 66.63 68.546 65.582 67.054 64.7 65.543 C 62.877 62.436 61.677 59.162 61.129 55.814 C 60.881 54.32 60.761 52.916 60.761 51.525 C 60.761 46.347 62.246 41.362 65.178 36.693 L 73.04 44.651 C 72.506 46.476 72.236 48.332 72.236 50.176 C 72.236 51.709 72.427 53.27 72.803 54.815 C 73.338 56.999 74.26 59.135 75.54 61.168 C 76.553 62.777 77.786 64.311 79.205 65.726 C 83.107 69.622 88.401 72.689 94.516 74.595 C 99.155 76.041 104.097 76.774 109.199 76.774 C 113.319 76.774 117.39 76.286 121.301 75.316 C 123.528 74.76 125.677 74.053 127.685 73.22 C 132.312 71.294 136.385 68.61 139.465 65.457 C 142.593 62.248 144.653 58.668 145.592 54.814 C 145.972 53.26 146.165 51.699 146.165 50.176 C 146.165 45.797 144.515 40.84 141.826 37.051 L 148.516 30.083 C 154.242 36.051 157.635 44.001 157.635 51.525 C 157.635 52.907 157.512 54.351 157.271 55.814 C 156.237 62.123 152.889 68.133 147.587 73.194 C 144.48 76.163 140.776 78.743 136.578 80.863 Z  M 59.383 56.101 C 59.393 56.158 59.409 56.211 59.418 56.27 C 59.398 56.493 59.382 56.702 59.382 56.868 C 59.382 59.231 60.831 64.84 61.416 67.078 C 61.416 67.081 61.418 67.083 61.418 67.086 L 53.737 70.369 L 61.062 32.191 L 64.071 35.167 C 60.71 40.289 58.994 45.787 58.994 51.525 C 58.994 53.012 59.122 54.51 59.383 56.101 Z  M 77.311 60.612 C 77.225 60.482 77.118 60.358 77.035 60.226 C 75.856 58.355 75.011 56.39 74.521 54.397 C 74.469 54.186 74.448 53.975 74.406 53.765 C 74.975 51.755 75.878 49.833 77.066 48.023 L 86.405 57.262 L 77.311 60.612 Z  M 112.746 65.917 L 120.771 73.623 C 117.031 74.539 113.139 75.006 109.199 75.006 C 104.275 75.006 99.511 74.3 95.041 72.906 C 94.445 72.72 93.863 72.515 93.284 72.308 L 111.07 64.308 L 112.746 65.917 Z  M 34.34 97.718 L 51.581 1.672 L 76.194 24.998 L 83.904 32.304 L 89.796 37.889 L 103.784 51.225 L 103.784 57.308 L 109.729 63.02 L 91.155 71.475 C 86.959 69.698 83.306 67.32 80.455 64.473 C 80.39 64.409 80.337 64.336 80.273 64.272 L 94.526 57.614 L 61.006 26.401 L 60.345 25.736 L 59.545 30.058 L 51.629 71.317 L 50.403 77.729 L 52.502 76.83 L 52.511 76.779 L 63.278 72.165 C 64.961 75.713 67.374 79.011 70.38 81.959 L 34.34 97.718 Z  M 117.902 34.001 L 103.52 48.982 L 90.886 37.008 C 96.313 34.649 102.685 33.281 109.51 33.281 C 112.402 33.281 115.209 33.538 117.902 34.001 Z  M 107.545 14.485 C 115.346 14.485 125.777 16.488 132.399 18.903 L 132.101 19.214 L 124.748 26.868 L 124.723 26.894 C 120.101 25.348 114.949 24.478 109.51 24.478 C 100.015 24.478 91.393 27.116 84.982 31.41 L 84.886 31.32 L 77.175 24.013 L 76.488 23.361 C 84.917 18.272 95.851 14.485 107.545 14.485 Z  M 199.93 47.362 L 199.93 47.343 L 199.921 47.354 L 150.469 0.083 L 133.834 17.408 C 126.962 14.749 116.156 12.612 107.941 12.612 C 95.991 12.612 83.672 16.693 75.068 22.018 L 51.874 0.037 L 51.878 0.012 L 51.851 0.015 L 51.836 0 L 51.832 0.018 L 43.537 0.886 L 25.631 98.935 L 33.966 99.802 L 33.971 99.774 L 71.755 83.247 C 71.816 83.301 71.873 83.357 71.934 83.413 C 80.923 91.343 94.418 96.394 109.51 96.394 C 119.982 96.394 129.677 93.956 137.639 89.818 L 152.829 104.406 L 199.93 55.352 L 199.93 47.373 L 199.935 47.367 L 199.93 47.362 Z " fill="rgb(254,254,254)"/></g></g><clipPath id="_clipPath_DGw476zH38MMK3veBBNT7RvXSrzIHFUY"><path d=" M 0 0 L 0 169.496 L 225.684 169.496 L 225.684 0 L 0 0 Z " fill="rgb(255,255,255)"/></clipPath><g clip-path="url(#_clipPath_DGw476zH38MMK3veBBNT7RvXSrzIHFUY)"><g><path d=" M 13.097 111.831 L 52.02 111.831 L 48.355 126.819 L 29.699 126.819 L 27.855 134.694 L 47.316 134.694 L 43.928 148.581 L 24.718 148.581 L 20.107 168.311 L 0 168.311 L 13.097 111.831 Z " fill="rgb(254,254,254)"/></g></g><clipPath id="_clipPath_tXo3c2kWSZsfFcDwbgS5TanTIEdYrHjy"><path d=" M 0 0 L 0 169.496 L 225.684 169.496 L 225.684 0 L 0 0 Z " fill="rgb(255,255,255)"/></clipPath><g clip-path="url(#_clipPath_tXo3c2kWSZsfFcDwbgS5TanTIEdYrHjy)"><g><path d=" M 57.311 111.831 L 77.418 111.831 L 64.321 168.311 L 44.214 168.311 L 57.311 111.831 Z " fill="rgb(254,254,254)"/></g></g><clipPath id="_clipPath_T05LqjHhI5ZxTmNpHY7G2QS2WAzKZpEA"><path d=" M 0 0 L 0 169.496 L 225.684 169.496 L 225.684 0 L 0 0 Z " fill="rgb(255,255,255)"/></clipPath><g clip-path="url(#_clipPath_T05LqjHhI5ZxTmNpHY7G2QS2WAzKZpEA)"><g><path d=" M 97.528 138.759 C 103.985 138.759 108.504 134.947 108.504 129.529 C 108.504 126.649 106.382 125.211 102.231 125.211 C 101.033 125.211 100.388 125.295 99.096 125.549 L 96.052 138.589 C 96.698 138.674 96.79 138.759 97.528 138.759 Z  M 82.679 112.17 L 83.97 112.001 C 90.426 111.239 98.451 110.731 102.878 110.731 C 110.256 110.731 115.975 111.577 120.31 113.355 C 125.844 115.642 129.165 120.638 129.165 126.649 C 129.165 131.814 127.412 136.726 124.091 140.537 C 121.231 143.839 118.65 145.447 113.3 147.056 L 112.008 147.48 C 112.562 147.904 112.747 148.073 113.023 148.327 C 114.591 150.105 119.296 159.251 123.262 168.311 L 101.125 168.311 C 98.266 160.267 97.436 158.149 93.654 149.004 L 89.227 168.311 L 69.674 168.311 L 82.679 112.17 Z " fill="rgb(254,254,254)"/></g></g><clipPath id="_clipPath_7qVX9p7a513Mc4LyYuM7shdnhRLIuUrW"><path d=" M 0 0 L 0 169.496 L 225.684 169.496 L 225.684 0 L 0 0 Z " fill="rgb(255,255,255)"/></clipPath><g clip-path="url(#_clipPath_7qVX9p7a513Mc4LyYuM7shdnhRLIuUrW)"><g><path d=" M 176.897 111.831 L 225.684 111.831 L 222.275 128.181 L 207.796 128.181 L 198.203 168.311 L 178.096 168.311 L 187.689 128.181 L 171.994 128.181 L 176.897 111.831 Z " fill="rgb(254,254,254)"/></g></g><clipPath id="_clipPath_dosLAFXedMJ46yn706Dn1CektZTacZmO"><path d=" M 0 0 L 0 169.496 L 225.684 169.496 L 225.684 0 L 0 0 Z " fill="rgb(255,255,255)"/></clipPath><g clip-path="url(#_clipPath_dosLAFXedMJ46yn706Dn1CektZTacZmO)"><g><path d=" M 207.481 162.96 C 207.917 162.96 208.164 162.751 208.164 162.353 C 208.164 161.974 207.935 161.765 207.5 161.765 C 207.405 161.765 207.386 161.765 207.291 161.785 L 207.291 162.941 C 207.367 162.96 207.405 162.96 207.481 162.96 Z  M 205.718 160.609 C 205.965 160.59 206.002 160.572 206.496 160.533 C 206.988 160.495 207.197 160.476 207.405 160.476 C 209.017 160.476 209.812 161.102 209.812 162.296 C 209.812 163.016 209.51 163.453 208.865 163.7 L 208.789 163.718 C 208.845 163.757 208.865 163.775 208.884 163.813 C 209.054 163.965 209.623 164.818 210.098 165.595 L 208.259 165.595 C 207.879 164.893 207.766 164.704 207.291 163.909 L 207.291 165.595 L 205.718 165.595 L 205.718 160.609 Z  M 207.614 167.415 C 210.002 167.415 211.918 165.5 211.918 163.131 C 211.918 160.742 210.002 158.827 207.614 158.827 C 205.243 158.827 203.329 160.742 203.329 163.111 C 203.329 165.519 205.226 167.415 207.614 167.415 Z  M 207.614 158.22 C 210.324 158.22 212.524 160.401 212.524 163.111 C 212.524 165.841 210.344 168.022 207.614 168.022 C 204.865 168.022 202.722 165.879 202.722 163.111 C 202.722 160.382 204.884 158.22 207.614 158.22 Z " fill="rgb(254,254,254)"/></g></g><clipPath id="_clipPath_jBBmNT4IccLykPI1bXlxtjraCXjI2FGX"><path d=" M 0 0 L 0 169.496 L 225.684 169.496 L 225.684 0 L 0 0 Z " fill="rgb(255,255,255)"/></clipPath><g clip-path="url(#_clipPath_jBBmNT4IccLykPI1bXlxtjraCXjI2FGX)"><g><path d=" M 125.24 166.875 C 130.894 168.555 137.075 169.496 142.85 169.496 C 150.691 169.496 156.686 167.718 161.85 163.992 C 167.568 159.927 171.259 153.662 171.259 147.989 C 171.259 144.177 169.599 140.706 166.648 138.249 C 164.341 136.388 161.943 134.947 157.055 132.662 L 153.089 130.799 C 151.797 130.121 151.152 129.444 151.152 128.682 C 151.152 126.649 153.735 125.126 157.239 125.126 C 159.862 125.126 162.987 125.888 168.958 127.841 L 173.08 112.552 C 168.614 111.339 164.262 110.731 159.914 110.731 C 143.497 110.731 130.86 119.705 130.86 131.306 C 130.86 137.403 134.918 141.722 145.064 146.464 C 149.86 148.666 150.691 149.259 150.691 150.783 C 150.691 153.069 148.2 154.509 144.142 154.509 C 140.545 154.509 135.934 153.408 129.661 151.121 L 129.653 151.123 L 125.24 166.875 Z " fill="rgb(254,254,254)"/></g></g></g></svg>