<?xml version="1.0" encoding="UTF-8"?>
<svg id="Layer_1" xmlns="http://www.w3.org/2000/svg" version="1.1" viewBox="0 0 1424 452">
  <!-- Generator: Adobe Illustrator 29.3.1, SVG Export Plug-In . SVG Version: 2.1.0 Build 151)  -->
  <defs>
    <style>
      .st0 {
        fill: #f4f7fc;
      }

      .st1 {
        fill: #f0b825;
      }
    </style>
  </defs>
  <g id="White">
    <g>
      <path class="st0" d="M1192.7,161.8c2.2-7.3,5.1-14.2,8.6-20.8l-14.2-14.3,44.2-44.2h0c0,0,0,0,0,0l14.2,14.2c6.5-3.5,13.4-6.4,20.7-8.6v-20.2h62.6v20.2c7.2,2.1,14.2,5,20.7,8.6l11.4-11.4,2.8-2.8h0c0,0,0,0,0,0l22.1,22.1,22.1,22.1-14.2,14.3c3.6,6.6,6.4,13.5,8.6,20.8h20.1v31.2h-81.2c0-24.2-19.6-43.8-43.8-43.8s-43.8,19.6-43.8,43.8h-81.2v-31.2h20.2Z"/>
      <polygon class="st0" points="1422.5 161.8 1416.4 145.5 1415.9 157.9 1412.5 152.4 1412.6 167 1422.5 161.8"/>
      <polygon class="st0" points="1363.8 82.6 1350.3 74.8 1359.9 92.7 1363.8 82.6"/>
      <polygon class="st0" points="1266.2 68.1 1244.7 72.7 1261.4 74.6 1255.8 76.6 1270.5 77.4 1266.2 68.1"/>
      <polygon class="st0" points="1187 126.8 1180.2 138.2 1194.4 128.5 1187 126.8"/>
    </g>
    <path class="st0" d="M299.4,373.8l3.6,3.6-56.3,56.3-3.6-3.5-14.6-14.6c-8.4,4.5-17.2,8.2-26.5,11v25.7h-79.6v-25.7c-9.3-2.8-18.1-6.5-26.5-11l-14.6,14.6-3.6,3.5-56.3-56.3,3.5-3.6,14.6-14.6c-4.5-8.4-8.2-17.2-11-26.5H3v-79.6h25.7c2.8-9.3,6.5-18.1,11-26.5l-14.6-14.6-3.5-3.6,28.1-28.1,28.1-28.1,18.2,18.2c8.4-4.5,17.2-8.2,26.5-11v-25.7h79.6v25.7c9.3,2.8,18.1,6.5,26.5,11l18.2-18.2,28.1,28.1,28.2,28.1-3.6,3.6-14.6,14.6-26.5,26.5h-30.9c-13.4-22-37.6-36.6-65.3-36.6-42.2,0-76.4,34.2-76.4,76.4s34.2,76.4,76.4,76.4,51.8-14.7,65.3-36.6h30.9l26.5,26.5,14.6,14.6h0Z"/>
    <path class="st0" d="M359.2,321.2h-8.2v32.3h-39.4v-119h55.6c9.2,0,17.3,1.9,24.5,5.6,7.1,3.7,12.7,9,16.7,15.9,4,6.9,6,14.7,6,23.5s-1.4,13-4.2,18.5-6.9,10.1-12.2,13.8l20.7,41.7h-44l-15.3-32.3h0ZM351.1,290.9h9.7c3.8,0,6.9-1.1,9.2-3.2,2.3-2.2,3.4-4.9,3.4-8.2s-1.1-6-3.4-8.1c-2.3-2.1-5.3-3.1-9.2-3.1h-9.7v22.6Z"/>
    <path class="st0" d="M511.7,321.5v32h-82.3v-119h81.4v32h-42.3v12.9h37.9v29.2h-37.9v12.9h43.2Z"/>
    <path class="st0" d="M646.7,234.5l-46.9,119h-36.2l-46.9-119h46.4l18.7,63.1,18.5-63.1h46.4Z"/>
    <path class="st0" d="M862.4,316.8v35.7h-80.1v-119h40.5v83.3h39.6Z"/>
    <path class="st0" d="M897,349.6c-8.3-4.2-14.8-10.1-19.4-17.8-4.6-7.7-6.9-16.7-6.9-26.9v-71.4h41.1v71.6c0,4.3,1.3,7.8,3.8,10.5,2.6,2.7,5.9,4,10.1,4s7.6-1.3,10.1-4c2.6-2.7,3.8-6.2,3.8-10.5v-71.6h41.1v71.4c0,10.2-2.3,19.2-6.9,26.9-4.6,7.7-11.1,13.7-19.4,17.8s-17.9,6.3-28.8,6.3-20.5-2.1-28.8-6.3h0Z"/>
    <path class="st0" d="M1095.3,268h-32.1v84.5h-39.8v-84.5h-32.1v-34.5h104v34.5Z"/>
    <path class="st0" d="M1107.1,233.5h40.5v119h-40.5v-119Z"/>
    <path class="st0" d="M1193.2,348.1c-10.3-5.2-18.2-12.6-23.9-22.1-5.7-9.5-8.5-20.5-8.5-33s2.8-23.5,8.5-33,13.6-16.9,23.9-22.1c10.3-5.2,22.1-7.8,35.6-7.8s25.4,2.6,35.6,7.8c10.3,5.2,18.2,12.6,23.9,22.1,5.7,9.5,8.5,20.5,8.5,33s-2.8,23.5-8.5,33c-5.7,9.5-13.6,16.9-23.9,22.1-10.3,5.2-22.1,7.8-35.6,7.8s-25.4-2.6-35.6-7.8ZM1247.5,312.2c4.8-4.9,7.1-11.3,7.1-19.2s-2.4-14.3-7.1-19.2-11-7.3-18.7-7.3-13.9,2.4-18.7,7.3-7.1,11.3-7.1,19.2,2.4,14.3,7.1,19.2,11,7.3,18.7,7.3,13.9-2.4,18.7-7.3Z"/>
    <path class="st0" d="M1422.1,233.5v119h-32.3l-42-56.3v56.3h-37.7v-119h33.5l40.8,53.9v-53.9h37.7Z"/>
    <path class="st0" d="M763.1,277.4c-1.1-3.7-2.6-7.2-4.5-10.5l3.1-3.1-24.9-24.9-5.2,5.2c-2.7-1-5.5-1.9-8.4-2.6v-6h-35.3v6c-2.9.7-5.7,1.5-8.4,2.6l-5.2-5.2-24.9,24.9,3.1,3.1c-1.9,3.3-3.4,6.8-4.5,10.5h-5.3v35.3h5.3c1.1,3.7,2.6,7.2,4.5,10.5l-3.1,3.1,24.9,24.9,5.2-5.2c2.7,1,5.5,1.9,8.4,2.6v6h35.3v-6c2.9-.7,5.7-1.5,8.4-2.6l5.2,5.2,24.9-24.9-3.1-3.1c1.9-3.3,3.4-6.8,4.5-10.5h5.3v-35.3h-5.3ZM723.2,310.7c-.3.4-.7.9-1.2,1.3-.2.2-.5.5-.7.7-3.8,3.5-8.5,5.4-14.2,5.7-.5,0-1.1,0-1.6,0s-1.1,0-1.6,0c-5.7-.3-10.4-2.2-14.2-5.7-.2-.2-.5-.5-.7-.7-.4-.4-.8-.8-1.2-1.3-3-3.6-4.7-8.1-5.1-13.4,0-.7,0-1.5,0-2.2s0-1.5,0-2.2c.4-5.3,2-9.8,5.1-13.4.3-.4.7-.9,1.2-1.3.2-.2.5-.5.7-.7,3.8-3.5,8.5-5.4,14.2-5.7.5,0,1.1,0,1.6,0s1.1,0,1.6,0c5.7.3,10.4,2.2,14.2,5.7.2.2.5.5.7.7.4.4.8.8,1.2,1.3,3,3.6,4.7,8.1,5.1,13.4,0,.7,0,1.5,0,2.2s0,1.5,0,2.2c-.4,5.3-2,9.8-5.1,13.4Z"/>
  </g>
  <g id="UI">
    <polygon class="st1" points="819 124.3 900.3 138.3 874.9 105.3 943.6 125.3 922 69.3 1022.4 112.3 995.7 64.3 1064.3 82.3 1109.3 116.6 1145.6 66.6 1145.6 193.1 937.2 193.3 854.6 164.3 819 124.3"/>
    <polygon class="st1" points="822.7 28.7 835.2 43.7 873.4 48.7 848.1 17 822.7 28.7"/>
    <polygon class="st1" points="538 60.4 549.2 83.8 581.9 72.5 538 60.4"/>
    <polygon class="st1" points="1093.8 26.7 1033.9 0 1033.9 23.4 1065.5 32.5 1093.8 26.7"/>
    <polygon class="st1" points="352.7 87.2 373.5 98.5 394.3 89.5 364.4 83.5 352.7 87.2"/>
    <polygon class="st1" points="521.3 152.1 479.8 169.9 525.3 182.1 521.3 152.1"/>
    <polygon class="st1" points="686 52.1 705.7 75.3 770.7 99.9 764.7 75.3 742.2 68.3 718.7 35.3 712.2 56.8 686 52.1"/>
    <polygon class="st1" points="633.3 149.8 649.7 135.3 690.5 139.9 738.7 161.3 677.7 168.3 633.3 149.8"/>
    <g>
      <path class="st1" d="M1183.4,435.5v4.4h46.7v10.4h-58.1v-14.8c0-3.2.3-5.9.9-8.1.7-2.5,2.1-4.6,4.1-6.2,1.9-1.5,4.5-2.5,7.9-3.1,3.1-.6,7.2-.9,12.2-.9h11.8c3.3,0,5.9-.1,7.7-.3,2-.2,2.8-.7,3-.8.2-.2.5-.5.6-1.2.2-1.1.3-2.6.3-4.5s-.3-3.5-.5-4.2c-.2-.5-.5-.9-1-1.1-.6-.3-1.8-.7-4.3-.8-2.2-.1-5.2-.2-8.9-.2h-7.2c-3.9,0-7,0-9.3.2-2.6.2-3.8.5-4.5.8-.6.3-.9.6-1.1,1.1-.2.6-.5,1.9-.5,4.2v2.5h-11.5v-2.5c0-3.2.4-5.8,1.1-8,.8-2.4,2.4-4.4,4.6-5.7,2-1.3,4.7-2.1,8.2-2.6,3.2-.4,7.4-.7,12.5-.7h7.9c4.9,0,9,.2,12.1.7,3.4.5,6.1,1.3,8.1,2.6,2.2,1.4,3.7,3.3,4.5,5.7.7,2.2,1.1,4.8,1.1,8s-.6,7.3-1.7,9.8c-1.3,2.8-3.5,4.8-6.6,5.9-2.8,1-6.5,1.5-11.3,1.5h-14.6c-3.8,0-6.9.1-9.1.4-2.5.3-3.5.8-4,1.1-.6.4-.9.9-1.1,1.6-.3,1.2-.4,2.8-.4,4.8h0Z"/>
      <path class="st1" d="M1293.8,421.5c.6-.5,1.1-1.2,1.6-1.8,1.6-2.3,2.4-5.3,2.4-9.3s-.4-5.8-1.1-8c-.8-2.4-2.4-4.4-4.6-5.7-2-1.3-4.7-2.1-8.3-2.6-3.2-.4-7.4-.7-12.5-.7h-7.9c-5.1,0-9.3.2-12.5.7-3.5.5-6.2,1.3-8.3,2.6-2.2,1.4-3.8,3.3-4.6,5.7-.8,2.2-1.1,4.8-1.1,8s.8,7,2.4,9.3c.5.7,1,1.3,1.6,1.8-.6.6-1.2,1.2-1.7,2-1.6,2.3-2.4,5.5-2.4,9.6s.3,5.9.9,8.2c.7,2.6,2.1,4.7,4.2,6.2,2,1.5,4.6,2.5,8.1,3.1,3.2.5,7.4.8,12.4.8h9.5c5.1,0,9.3-.3,12.4-.8,3.5-.6,6.1-1.6,8.1-3.1,2.1-1.5,3.5-3.6,4.2-6.2.6-2.2.9-5,.9-8.2s-.8-7.3-2.4-9.6c-.5-.8-1.1-1.4-1.7-2h0ZM1271.8,440.8h-8.9c-3.8,0-6.9-.1-9.1-.4-2.5-.3-3.6-.8-4-1.1-.6-.4-.9-.8-1-1.5-.3-1.2-.4-2.7-.4-4.7s.1-3.1.4-4.1c.1-.5.4-.9.9-1.1.4-.2,1.5-.7,4-.9,2.2-.2,5.2-.3,9.1-.3h9.2c3.9,0,6.9,0,9.1.3,2.5.2,3.6.7,4,.9.5.3.7.6.9,1.1.3,1,.4,2.3.4,4.1s-.1,3.6-.4,4.7c-.2.7-.5,1.2-1,1.5-.4.3-1.5.8-4,1.1-2.2.2-5.2.4-9.1.4h0ZM1248.9,406.1c.2-.5.5-.9,1.1-1.1.6-.3,1.9-.7,4.5-.8,2.3-.1,5.4-.2,9.3-.2h7.2c3.9,0,7,0,9.3.2,2.6.2,3.8.5,4.5.8.6.3.9.6,1.1,1.1.2.6.5,1.9.5,4.2s-.1,2.8-.3,3.7c-.1.5-.3.7-.7,1-.4.2-1.4.6-3.6.9-2,.2-4.8.3-8.3.3h-11.8c-3.5,0-6.3-.1-8.3-.3-2.3-.2-3.3-.6-3.6-.9-.4-.2-.6-.5-.8-1-.2-.9-.3-2.2-.3-3.7,0-2.3.3-3.5.5-4.2h0Z"/>
      <path class="st1" d="M1364.1,429.8v3.3c0,3.2-.3,6-.9,8.2-.7,2.6-2.1,4.7-4.2,6.2-2,1.5-4.6,2.5-8.1,3.1-3.2.5-7.4.8-12.4.8h-8.2c-5.1,0-9.3-.3-12.4-.8-3.5-.6-6.1-1.6-8.1-3.1-2.1-1.5-3.5-3.6-4.2-6.2-.6-2.2-.9-5-.9-8.2v-2.5h11.4v2.5c0,2,.1,3.6.4,4.7.2.7.5,1.2,1,1.5.4.3,1.5.8,4,1.1,2.2.2,5.3.4,9.1.4h7.5c3.8,0,6.9-.1,9.1-.4,2.5-.3,3.6-.8,4-1,.6-.4.9-.8,1-1.5.3-1.2.4-2.8.4-4.8v-3.3c0-1.7-.1-3.1-.4-4.1-.1-.5-.4-.9-.9-1.1-.4-.2-1.5-.7-4-.9-2.2-.2-5.2-.3-9.1-.3h-7c-4.8,0-8.3.2-10.5.5-2.3.3-3,1-3.2,1.2l-.8,1h-11.3v-31.6h56.4v10.4h-44.9v9.4c2.2-.9,5-1.3,8.4-1.3h15.3c4.7,0,8.6.3,11.6.8,3.2.6,5.7,1.6,7.4,3,1.9,1.5,3.1,3.4,3.7,5.8.5,2,.8,4.5.8,7.3h0Z"/>
      <polygon class="st1" points="1422 440.4 1422 450.8 1372.5 450.8 1372.5 440.4 1392.8 440.4 1392.8 405.3 1372.5 405.3 1372.5 394.8 1395.3 394.8 1397.9 394.8 1404.2 394.8 1404.2 440.4 1422 440.4"/>
    </g>
  </g>
</svg>