<?xml version="1.0" encoding="UTF-8"?>
<svg id="Layer_1" xmlns="http://www.w3.org/2000/svg" baseProfile="tiny" version="1.2" viewBox="0 0 2800.72 1714.51">
  <!-- Generator: Adobe Illustrator 30.0.0, SVG Export Plug-In . SVG Version: 2.1.1 Build 123)  -->
  <path d="M1349,1714.51v-21h-489c17.17-16.69,46.22-29.37,56.82-51.68,2.28-4.8,2.74-10.18,4.7-15.3,4.2-10.98,12.13-27.77,17.3-38.7,8.17-17.28,31.18-33.8,39.06-48.94,16.29-31.28,21.05-77.42,28.16-111.84-3.11-42.96.09-81.85-14.02-123.06-19.06-55.67-47.14-108.98-69.87-163.19-.08-1.85,2.97-2.91,4.38-4.26,5.76-5.53,30.7-32.47,31.51-38.49,1.83-13.44-5.69-34.92-12.17-46.92-4.3-7.98-13.85-12.58-17.81-20.98,5.82-6.52,13.3-11.42,18.91-18.16,14.75-17.74,37.14-52.22,44.06-73.94,3.89-12.22,11.21-39.81,12-52,1.06-16.36-6.36-28.81-9.04-44.53,10.59,1.25,19.81-4.67,29.46-8.04,9.1-3.18,13.13.35,16.06-10.94,3.47-13.34,1.54-29.33,4.47-43.03h17.5c1.57,0,10.74-14.91,12.98-16.86,7.33,2.14,18.14,8.66,25.29,9.66,5.77.81,7.04-3.03,9-7.54,3.12-7.19,4.01-15.2,6.38-22.62,4.37-4.39,28.8-39.86,31.32-40.23s8.82,2.72,11.68,2.08c1.74-.39,11.21-9.26,11.85-8.49-2.91,10.04-6.12,18.58-17.99,19,2.29,9.26,4.19,19.94,3.03,29.52-.71,5.82-6.74,12.39-9.02,17.98l7,.49c.49.5-1.15,12.11-1.67,13.84-1.05,3.5-4.16,5.5-5.26,8.74-1.49,4.39-2.29,17.97-2.11,22.98.16,4.48,1.57,9.87,2.08,14.41,2.28.17,5.76-.36,7.42-1.98,1.96-4.48,17.6-34.27,16.45-35.88-.19-.26-4.9-1.85-5.92-2.1,4.01-6.81,9-20.59,17.99-20.98l-1.46,23.03-18.52,37.48c2.21.6,12.85,3.77,14,3.06,1.27-.79,11.56-23.38,13.17-26.89,8.38-18.29,19.51-41.06,20.86-61.14,1.36-20.12-2.46-40.04-6.59-59.54l20.07-11.99c3.28-.82-1.42,4.04,1.96,2.97,5.86-1.85,14.09-9,19.85-12.16,14.04-7.69,25.81-11.2,41.93-8.59,2.55.41,5.66,2.61,8.08,2.48,1.34-.07,22.75-5.89,23.55-6.81.7-.8-.27-8,.09-9.9-5.43,3.77-11.49,1.61-17.25-.24-20.6-6.6-28.74-24.34-31.49-44.5l41.3-41.29c2.24-3.3-8.91-12.33-7.53-13.97,13.46,2.03,29.94,4.55,43.49,3,6.82-.78,8.06-6.3,14.71-5.79,11.7,5.09,26.45,7.15,37.79,12.29,7.51,3.41,21.52,15.89,27.71,17.29,7.93,1.79,22.71-.37,31.78.22,14.88.96,30.54,4.64,39.95,17.05l17.71,35.79c12.76-1.73,23.75-4.88,36.66-1.15,25.77,7.45,53.49,29.12,81.65,37.35,7.54,2.2,24.27,2.76,29.47,5.53,4.52,2.4,17.08,15.16,21.6,19.45.64.6,1.6.92,2.47.99l-.02,1.45c-.63,1.86-5.79,3.72-4.58,6.53l32.59,57.52c.23,1.57.09,1.69-1.47,1.48-1.89-.25-8.18-2.18-10.06-2.96-3.87-1.61-10.09-7.01-13.2-7.8-1.83-.46-9.92-.69-11.58-.28-.78.19-6.44,12.43-6.69,14.52-1.41,11.55,2.5,25.73,11.12,33.93,4.36,4.15,13.4,6.64,18.65,9.85,1.52,9.26,6.82,18.12,8.14,27.36,2.9,20.32,3.21,38.67-6.83,56.95l-3,71.82c-.35,1.38-7.42,1.3-9.62,2.56-4.66,2.68-12.83,18.01-17.95,22.05.45-14.52-16.4-6.84-21.9.1-10.21,12.86-4.96,25.42-5.91,39.28-.42,6.08-5.75,14.03-5.71,20.59-.72.68-16.63.71-19.8,1.7-5.45,1.7-7.34,8.57-10.17,9.83-2.68,1.19-9.41,1.04-13.02,1.98-2.71.7-19.64,6.73-20.7,7.8-8.61,19.11-19.69,40.01-25.29,60.21-7.81,28.17,17.94,37.18,40.81,41.22,5.47.97,27.55,4.22,31.5,3.07,2.31-.67,11.84-9.94,13.69-12.31,2.52-3.22,9.12-17.47,10-18,2.19-1.31,10.95-.09,13.78-1.72.63-.36,8.09-9.96,9.04-11.45,4.12-6.51,7.4-17.1,12.18-22.82,3.24-3.87,11.88-7.58,16.06-11.94,4.35-4.55,5.61-10.9,8.25-14.26,6.64-8.42,27.02-15.31,37.48-17.01,2.94-.48,19.54-1.18,20.23-2.28.1-.17-1.26-1.76-.53-3.91,2.39-7.07,31.69-21.03,39.02-21.07,24.72-.13,51.17,44.06,61.68,63.32,4.36,7.99,14.19,25.79,16.14,33.86,3.82,15.73.07,41.16,2.74,58.26,1.53,9.78,12.42,25.21,13.86,36.14,2.15,16.35-2.27,37.25-.82,52.8.61,6.5,4.71,16.63,6.89,23.13,4.57,13.65,10.08,27.37,16.02,40.48v19c-6.11,15.03-5.65,28.71-4.43,44.86-1.46,10.44-5.53,20.36-12.21,29.76-4.41,15.43-11.55,28.73-21.44,39.9-1.7,5.29-16.01-2.83-16.34-4.06-.71-2.67,3.66-10.93,5.28-13.83,15.45-15.86-2.17-14.86-14.38-13.66-13.08,1.29-17.12,5.17-26.12,14.68,3.09,3.75,5.6,7.68,7.53,11.79.09,1.69-6.74,12.15-9.41,9.57-1.29,3.24-12.93,3.1-14.5,0l1.93,1.93c2.24,20.18,5.05,48.61-18.98,56.07-21.32,2.98-37.9,19.62-47.9,37.67.4,10.88.26,21.69-.41,32.45-1.49,2.78-11.48,10.48-14.65,10.38.78.1,1.93.33,2,.88.39,3.37.39,12.79,0,16.2l-2,1.42c-.96,3.32-13.45,3.06-15,0,3.3.79,3.04,12.62,0,14l-1.14,2.09c-8.26-1.99-13.25.38-14.96,7.11l-4.73,14.65-32.51,44.22-1.68,1.5c-98.83,3.63-197.49,6.44-295.97,8.44h-19Z" fill="#fcf9fd"/>
  <path d="M0,256.51c7.3-1.8,16.83-10.36,23.73-11.77,5.61-1.15,12.61.46,18.53-.47,7.7-1.2,51.55-14.94,58.69-18.31,11.12-5.24,29.83-26.33,42.11-33.89,8.39-5.16,34.66-10.84,44.35-9.48,4.18.59,8.77,4.04,13.12,3.94,3.98-.09,9.52-4.32,14.05-4.94,10.54-1.46,24.45,1.59,34.68-.32,4.35-.81,37.76-16.08,42.07-18.93,5.02-3.33,18.09-19.65,21.37-20.63,4.67-1.39,14.1.43,19.71-.29,2.85-.36,6.24-2.04,9.34-2.66,3.47-.7,7.08.34,10.53-1.47,5.19-2.72,12.48-23.25,18.19-27.81,3.74-2.98,10.86-3.55,14.49-6.51,2.34-1.91,3.15-6.05,5.03-6.97,3.1-1.5,7.69.49,10.99-1.01,1.93-.88,7.08-7.44,9.55-9.45,10.79-8.84,11.06-8.05,23.77-11.01.49-.11,6.17-6.17,7.37-6.82,2.64-1.43,5.89-.65,8.31-1.73,6.11-2.71,23.78-28.25,32.69-34.31,6.21-4.23,25.82-10.81,34.07-13.93,4.3-1.62,10.27-2.1,13.55-3.45,2.19-.9,2.5-4.53,5.45-5.55,8.83-3.04,26.34-3.62,36.52-5.48,2.52-.46,4.24-2.33,6.3-2.7,12.21-2.21,27.25,2.78,38.95,2.94,5.45.07,9.92-1.93,16.51-.51,1.68.36,17.98,7.99,18.73,8.76,1.11,1.15,2.5,12.64,1.81,13.76-1.73,2.8-20.3,4.94-24.11,7.92-4.51,1.58-9.33-1.63-12.91-1.77-5.45-.22-13.68,2.98-19.54,2.84,8.06,16.68-10.97,17.56-21.39,22.1-15.36,6.7-17.64,18.96-27.65,25.35-3.66,2.33-16.02,5.09-17.72,6.78-2.52,2.51.06,11.52-2.74,14.76-1.68,1.95-6.94,1.01-9,3-2.35,2.26-1.39,8.13-4.49,10.51s-11.95,1.8-13.51,4.49c-.38.65-2.98,12.47-3.41,14.59s.36,4.23-.28,6.23c-4.45,1.02-8.28,7.5-11.86,8.7-3.32,1.11-5.35-1.89-7.38,1.55-1.11,12.68-7.98,29.58-8.29,41.71-.15,5.74,3.35,11.29.73,17.23,4.15-3.94,5.91-10.64,9.55-14.94,1.3-1.54,5.16-3.43,5.37-4.68.15-.89-4.33-6.48-.69-10.14,4.59-4.6,10.74,2.83,12.07,2.63,9.84-6.81,19.45-14.19,29.77-20.29,4.29-2.53,21.28-13.83,24.46-7.57,2.45,4.81-8.24,10.54-10.55,13.98,6.9-1.69,13.37-2.5,20.54-2.03,3.95.26,8.17,1.8,11.98,2.02,9.17.54,22.26-.38,30.93,1.07,4.81.8,8.76,6.81,12.31,7.73,4.12,1.06,9.57-2.05,14.54-.57,2.36.7,4.7,5.39,6.72,6.28s5.6,0,6.56,1.44c1.22,1.83-.6,5.65,1.39,7.6,4.86,4.75,9.55-1.36,12.03-.09,3.41,1.75,2.65,9.19,3.01,9.57.32.33,3.47-1.08,5.67-.27,1.22.45,10.81,7.78,11.39,8.7,2.56,4.03,1.31,12.67,3.89,17.11.79,1.36,6.88,6.99,8.54,8.47,1.32,1.17,3.56,1.49,4.26,2.22,1.35,1.41,1.05,5.32,2.01,7.5,2.27,5.15,9.6,6.37,10.75,8.25,1.52,2.49-.41,8.16.65,9.85,1.58,2.51,15.58,3.99,17.91,7.59,4.52,7-5,14.5,7.01,21.99,8.98,5.59,21.9,6.53,32.29,5.45,5.36-.56,6.49-3.85,10.15-3.92,4.16-.07,6.9,2.51,11.87,1.98,4.4-.47,8.79-4.24,13.05-5.99,2-.82,4.36-.52,5.89-1.15s1.38-2.58,2.37-2.84c1.89-.5,14.17,1.71,15.85,2.98,4.12,3.11,3.42,17.4,9.13,17.84,2.79.21,5.35-1.8,8.33-.3,3.39,1.71.48,8.64,10.49,8.6,11.39-.05,4.16-13.85,18.91-11.99,8.33,1.05,11.26,7.64,17.54,9.45s8.34-.59,11.53,7.46c3.15-4.77,7.87-8.21,11.48-12.52,2.43-2.91,5.69-11.14,9.55-11.47,1.49-.13,2.83,1.17,4.45.53,1.97-.77,10.62-12.7,13.03-15.04,3.61-1.17,6.24.84,10.23.3,8.47-1.15,44.38-19.36,52.08-24.96,7.08-5.15,11-14.17,21.97-9.61,3.24,1.35,3.18,3.12,3.92,3.56,2.26,1.36,14.95-3.66,18.58-4.48,9.07-2.04,17.45-2.22,26.47-3.53,3.57-.52,7.06-2.76,11.25-2.84,5.24-.1,11.71,2.43,17.12,2.95,19.3,1.84,39.56,1.62,58.88,2.12,25.03.64,48.38-21.05,70.23-24.75,8.71-1.48,20.51.28,29.75-.25,11.01-.63,24.15-3.66,34.97-4.04,1.84-.07,8.92-.38,8.54,2.51-.34,2.64-6.42,10.42-8.5,12.56-2.36,2.42-9.15,6.53-9.52,8.48-.13,13.48,2.47,28.64,1.01,42.01-.7,6.45-6.52,12.27-2.02,18.01,6.57,8.36,18.38-.06,24.29,1.64,1.65.48,2.95,3.17,5.01,4.07,2.43,1.07,10.16.03,11.78,1.2s.09,7.45,7.4,7.59c4.79.09,16.77-4.41,21.52-6.54,10-4.48,9.81-8.26,23.43-6.4,9.11,1.25,13.8,11.96,18.1,18.93,4.12-1.11,10.26-5.42,14.25-5.85,2.16-.23,4.45,1.08,5.62.76,3.07-.82.74-7.09,1.78-8.78.68-1.09,21.55-9.27,23.78-9.72,8.23-1.66,15.45-.87,21.05,5.56-.9-7.14,6.57-6.49,11.15-9.36,5.27-3.3,3.53-7.22,12.31-5.59,1.76.33,2.78,1.94,4.99,2.01,2.07.06,14.5-3.79,12.54,2.43-.44,1.38-3.62,1.13-4.84,3.17-1.7,2.83-1.64,9.76-3.14,12.61-.82,1.55-4.42,1.49-5.51,3.74-.47.96-1.48,7.19-1.43,8.42.22,5.06,5.28,7.15,6.46,11.54.58,2.18.1,6.02.63,6.88.57.93,6.93,1.89,8.81,6.67,3.21,8.13-1.47,6.53-2.97,8.5-.31.41,3.6,7.31,3.94,9.54s.49,13.2-.07,14.81c-.72,2.09-8.06,3.06-10.15,2.44-2.88-.85-3.86-5.71-6.7-6.82.19,4.06-5,4.3-6.09,5.68-.7.89-.51,2.94-1.93,3.82-1.72,1.06-6.72,1.11-9,1.51-1.41,5.88,4.09,5.08,6.06,7.43,1.04,1.23.78,3.8,2.57,4.44,4.9,1.75,6.17-2.45,8.92-2.9,1.28-.21,10.9.92,12.72,1.26,4.17.78,4.66,3.17,7.49,4.51s19.53,5.39,20.2,6.32c2.83,3.9-6.59,9.94-9.95,10.43l17.16,22.38c15.27-5.24,33.61,14.05,13.23,22.03-4.81,1.89-7.98.24-11.71,1.12-.75.18-.61,1.76-1.37,1.95-8.18,2.01-25.84-5.86-34.92-6.87-10.6-1.18-21.7.55-32.77-1.23-4.22-.68-15.13-5.12-17.13-4.92-4.34.44-.68,4.26-1.93,6.07-.8,1.05-1.76,1.01-2.95.95-5.1-.27-20.71-8.39-24.03-8.05-.82.08-.79,2.04-1.57,2.53-1.33.84-3.38.35-4.98,1.06-2.57,1.14-6.44,8.19-9.37,8.28-4.4.14-6.47-15.4-9.66-17.36-1.92-1.18-4.14.49-6.26.32-5.91-.49-11.73-5.16-16.25-8.65-1.32.85-2.17,1.81-2.47,3.41-.6,3.18-.19,18.82-1.16,20.34-.28.44-8.17,2.55-9.8,3.7-6.2,4.37,2.54,7.59,2.8,11.11.13,1.83-2.26,2.44-2.47,3.77-.07.44.49,7.13.66,8,.79,4.19,8.9,10.09,1.42,11.52-9.45,1.81-14.4-2.19-22.19-5.75-2.42-1.1-5.29-1.02-7.64-2.36-4.12-2.33-10.07-12.4-16.64-15.36-2.77-1.24-5.76.38-8.56-1.44-3.47-2.26-11.95-15.11-15.92-19.08-7.56-7.58-29.27-13.53-40.27-15.73-6.3-1.26-14.63-1.04-20.52-2.48-6.85-1.67-14.51-10.84-22.02-8.57-2.52.76-3.9,5.52-7.03,4.7s-6.08-10.85-9.13-10.92c-2.4-.05-7.37,4.19-10.27,4.78-3.87.79-8.13-.32-11.83.17-4.3.57-17.08,15.4-20.42,19.58-4.66,5.82-8.57,12.12-12.69,18.31-8.18-.18-16.68.84-24.82.14-5.86-.5-13.67-4.05-19-2.97-2.17.44-2.78,2.35-4.21,2.78-5.27,1.6-11.14-1.74-14.58,6.5-.88,2.1,3.36,6.61-1.36,7.54-1.12.22-15.8-8.37-19.1-9.6-18.27-6.8-22.53-1.02-38.76-1.45-3.77-.1-9.96-2.62-13.05-2.35-2.93.25-6.11,4.8-8.19,5.39-2.67.76-6.9-1.64-8.15-.72-.36.26-.7,2.81-1.62,3.87-1.69,1.94-4.15,2.33-5.25,4.76-2.11,4.63-2.03,12.31-3.74,17.26-1.05,3.04-3.45,5.36-4.7,8.3-1.16,2.74-1.65,9.09-3.27,10.73-3.1,3.16-15.93-2.16-18.83,4.26-.93,2.06.98,5.39-1.45,6.71-4.55,2.49-8.51-1-12.76-1.01-9.52-.01-5.93,8.41-9.53,11.47-2.22,1.9-10.67,2.9-12.43,5.57-1.12,1.71-3.12,12.43-3.63,12.86-.77.65-4.49-.3-4.91.1-2.05,1.93,3.75,18.1-1.47,18.03-1.33-.02-20.43-13.19-22.07-14.98-2.37-2.59-5.07-9.07-4.49-12.52.85-5.06,9.89-2.79,11.81-4.75,1.08-1.11,2.87-11.82,5.16-14.34,1.98-2.19,5.54-.85,6.64-2.36,3.49-4.79-6.23-13.6,12.43-8.08-6.61-7.71,7.69-15.86,8.95-22.54.52-2.73.47-11.17-3.97-10.06-3.17.79-15.39,10.73-16.53,13.59-.46,1.16-.3,3.78-.5,3.97-.76.76-19.48.39-21.43.02-3.89-.73-4.39-5.45-6.52-6.48-1.01-.49-4.53-.9-4.98-.47-.79.76-1.87,12.95-2.48,15.02-1.46,4.95-9.92,14.3-12.95,19.05-1.36,2.12-1.1,4.71-3.03,6.97-.9,1.06-11.38,7.69-12.83,8.16-4.24,1.39-9.33-.23-10.79.31-2.52.94-2.65,6.54-7.35,5.52-2.91-.63-3.07-29.05-3.68-33.47-.55-4.04-3.99-8.26-3.95-12.11.05-5.33,7.73-10.77,9.56-15.46.44-1.14,2.96-13.4-.51-10.02-.37.36-3.19,7.59-4.18,9.34-.91,1.62-3.36,3-3.71,4.38-.48,1.88,1.07,3.59.41,5.26-1.19,2.99-10.02,7.96-11.3,10.76-.68,1.51-2.25,9.1-2.28,10.82-.07,4.19,3.25,6.16,1.51,10.4-1.21,2.96-12.1,15.94-14.97,18.05-4.26,3.14-10.03,3.22-14.57,5.69l-38.38,63.35c-1.31,3.94.36,7.32-1.68,11.32-1.81,3.55-10.18,8.23-13.31,12.69-2.54,3.62-3.78,10.35-6.12,12.88-1.58,1.72-6.03,2.79-6.29,3.21-.65,1.06.1,5.02-.37,7.14-2.8,12.78-38.68,34.62-40.6,49.47-.73,5.68,4.24,8.8-4.78,10.13-17.97,2.66-8.28-6.81-14.51-14.29-1.64-1.96-4.52-2.12-6.92-4.08s-10.78-10.42-11.01-13.1c-.19-2.25,3.42-5.56,4.51-8.45,2.72-7.22,2.85-15.94,6.65-23.35,4.22-8.26,11.72-9.67,9.82-21.07-.9-5.39-4.78-6.82-9.69-4.79-3.72,1.54-6.79,8.42-8.94,9.05-2.49.74-15.86,2.16-18.85,2.2-3.41.05-15.2-1.23-16.26-4.71-2.55-8.35,4.58-9.86,5.66-14.04.61-2.37-1.42-4.07-.36-7.2,1.59-4.69,14.7-15.09,17.36-20.79.46-3.58-7.88-20.29-5.87-22.28,5.63,2.37,9.26-4.43,8.8-9.26-.55-5.73-9.68-9.83-9.89-16.22s3.53-6.39,9.1-6.52c-.54-7.97-9.84-6.55-13.88-12.64-.83-1.24-.72-3.29-1.38-4.1-.24-.3-6.23-3.67-6.69-3.81-10.33-3.15-14.59,4.06-24.62-7.4-1.15-1.32-1.26-3.89-2.05-4.12-3.87-1.08-13.66.65-18.8-.02-2.73-.36-10.14-3.05-12.1-4.9-8.87-8.33,10.4-19.24,9.38-23.28-.3-1.2-2-2.33-2.42-3.68-.71-2.3.07-5.42-.92-7.08-.56-.94-17.53-10.86-18.8-11.23-2.19-.64-4.38.63-6.99.07-2.82-.6-4.31-3.7-8.24-3.89-3.62-.18-7.28,2.46-10.74,1.89-4.36-.72-13.45-9.15-17.5-9.68-2.32-.31-4.04,2-6.21,2.48-6.18,1.36-11.83-3.98-17.05-6.12-2.13-.87-5.26-.51-7.31-1.68-2.46-1.41-2.13-4.57-3.35-4.86-2.18-.52-18.3-.11-19.76.93-1.66,1.19.78,6.69-2.08,8.11h-15.5c-.39,0,.53-7.14-.11-7.89-1.37-1.61-10.11-.55-12.2-1.08-1.03-.26-.96-2.41-2.31-2.88-2.25-.78-5.88.27-8.67-.36-2.33-.52-4.59-3.55-5.19-3.55s-1.75,1.88-3.93,1.79c-3.89-.15-39-19.41-45.27-22.86-7.44-4.09-14.22-9.34-21.78-13.22l-242.56-66.43c-1.36-4.43.41-6.15-1.51-11.5-5.02-14.04-14.29-27.39-20.63-40.85-3.31-.64-6.82.37-10.13-.37-.58-.13-10.04-4.86-10.69-5.33-3.76-2.7,2.46-7.55-2.51-11.43-4.17,4.31-11.28,5.08-17.02,3.99-3.1-.59-4.52-6.43-7.49-8.01v-3Z" fill="#fcf9fd"/>
</svg>