<?xml version="1.0" encoding="UTF-8"?>
<svg id="Scylla_White" data-name="Scylla White" xmlns="http://www.w3.org/2000/svg" xmlns:xlink="http://www.w3.org/1999/xlink" viewBox="0 0 778.44 364.01">
  <defs>
    <style>
      .cls-1 {
        fill: url(#linear-gradient-2);
      }

      .cls-2 {
        fill: url(#linear-gradient-4);
      }

      .cls-3 {
        fill: url(#linear-gradient-3);
      }

      .cls-4 {
        fill: #eeb81e;
      }

      .cls-5 {
        fill: #f6f9fd;
      }

      .cls-6 {
        fill: url(#linear-gradient);
      }
    </style>
    <linearGradient id="linear-gradient" x1="99.66" y1="328.27" x2="104.49" y2="264.31" gradientUnits="userSpaceOnUse">
      <stop offset="0" stop-color="#eeb81e"/>
      <stop offset=".89" stop-color="#f6f9fd"/>
    </linearGradient>
    <linearGradient id="linear-gradient-2" x1="235.7" y1="338.2" x2="300.93" y2="317.83" gradientUnits="userSpaceOnUse">
      <stop offset=".05" stop-color="#eeb81e"/>
      <stop offset=".12" stop-color="#eeba26"/>
      <stop offset=".24" stop-color="#efc13e"/>
      <stop offset=".38" stop-color="#f0cc64"/>
      <stop offset=".55" stop-color="#f2dc9a"/>
      <stop offset=".74" stop-color="#f4efdd"/>
      <stop offset=".82" stop-color="#f6f9fd"/>
    </linearGradient>
    <linearGradient id="linear-gradient-3" x1="8.72" y1="164.46" x2="40.26" y2="248.75" gradientUnits="userSpaceOnUse">
      <stop offset=".09" stop-color="#eeb81e"/>
      <stop offset=".16" stop-color="#eeba26"/>
      <stop offset=".28" stop-color="#efc13e"/>
      <stop offset=".43" stop-color="#f0cc64"/>
      <stop offset=".6" stop-color="#f2dc9a"/>
      <stop offset=".78" stop-color="#f4efdd"/>
      <stop offset=".86" stop-color="#f6f9fd"/>
    </linearGradient>
    <linearGradient id="linear-gradient-4" x1="754.36" y1="209.67" x2="691.75" y2="245.57" gradientUnits="userSpaceOnUse">
      <stop offset=".13" stop-color="#eeb81e"/>
      <stop offset=".41" stop-color="#f1d47e"/>
      <stop offset=".69" stop-color="#f4eed9"/>
      <stop offset=".82" stop-color="#f6f9fd"/>
    </linearGradient>
  </defs>
  <g id="Bubbles">
    <path class="cls-4" d="M510.4,303.66c-8.26-1.8-16.78,2.02-17.02,11.34-.46,17.69,29.81,24.86,31.06,4.48-.9-8.58-5.51-13.96-14.04-15.82ZM505.61,326.79c-9.81-.07-11.36-20.48-3.74-18.59,6.06,1.51,14.05,18.77,3.74,18.59Z"/>
    <path class="cls-4" d="M769.13,184.36c8.31-4.52,12.72-13.98,6.11-22.04-12.56-15.3-43.41.78-29.56,18.93,7.04,6.6,14.87,7.78,23.45,3.11ZM756.26,161.29c8.35-7.12,24.59,9.02,16.77,12.99-6.23,3.16-25.63-5.6-16.77-12.99Z"/>
    <path class="cls-4" d="M293.22,108.9c.39,6.55,10.64,7.17,10.69.18.06-8.28-11.18-8.37-10.69-.18Z"/>
    <path class="cls-4" d="M432.87,333.71c.39,6.55,10.64,7.17,10.69.18.06-8.28-11.18-8.37-10.69-.18Z"/>
    <path class="cls-4" d="M748.12,126.47c-7.95.9-8.04,13.41.47,13.02,10.07-.45,9.47-14.15-.47-13.02Z"/>
    <path class="cls-4" d="M136.84,303.92c6.02.9,6.09,13.41-.36,13.02-7.63-.45-7.17-14.15.36-13.02Z"/>
    <path class="cls-4" d="M253.2,96.26c7.71.02,12.94-5.82,12.79-13.3-.75-7.2-5.19-14.21-13.27-13.99-7.52.2-11.37,5.86-11.49,12.77-.14,7.68,3.35,14.51,11.97,14.53ZM253.18,74.92c8.22-1.91,3.19,7.54.3,10.16-6.72.38-5.96-8.85-.3-10.16Z"/>
    <path class="cls-4" d="M177.88,283.48l.03.02c0-.12,0-.25,0-.37l-.03.02c-12.1-11.1-28.16,10.74-15.8,20.51,4.69,3.71,12.2,3.97,16.78-.06,6.45-5.68,3.21-14.38-.98-20.11ZM166.28,298.51c-6.72.38-5.96-8.85-.3-10.16,8.22-1.91,3.19,7.54.3,10.16Z"/>
    <path class="cls-4" d="M637.67,285.95c.39,6.55,10.64,7.17,10.69.18.06-8.28-11.18-8.37-10.69-.18Z"/>
    <path class="cls-4" d="M34.67,126.47c6.02.9,6.09,13.41-.36,13.02-7.63-.45-7.17-14.15.36-13.02Z"/>
    <path class="cls-4" d="M539.48,42.7c.39,6.55,10.64,7.17,10.69.18.06-8.28-11.18-8.37-10.69-.18Z"/>
    <path class="cls-4" d="M511.64,28.93l-.03-.03c-.03.12-.05.24-.08.37h.04c9.49,13.4,29.79-4.57,19.78-16.72-3.8-4.62-11.09-6.45-16.42-3.48-7.51,4.19-6.18,13.38-3.29,19.87ZM521.27,11.7c6.65,1.04,3.96,9.91-1.85,10-8.44.13-1.53-8.04,1.85-10Z"/>
  </g>
  <g id="Text">
    <path class="cls-6" d="M148.79,248.73c-35.64,23.02-36.65,36.65-41.12,57.31-6.55,30.24-51.18,22.94-51.18,22.94,48.28-17.75,25.47-32.15,29.77-63.1,3.93-28.27,27.27-18.67,39.17-23.95,7.63-3.38,23.36,6.8,23.36,6.8Z"/>
    <path class="cls-1" d="M336.64,275.12c-13.06,3.19-54.1,18.52-61.36,44.9-2.53,9.21-4.05,13.63-7.93,19.06-8.74,12.23-30.32,10.04-30.32,10.04,7.68,9.67,30.15,17.23,47.19,2.75,12.22-10.39,3.44-22.48,27.59-40.05,9.13-6.64,19.64-11.63,26.24-18.02l-1.41-18.69Z"/>
    <path class="cls-3" d="M60.08,227.55c-6.78,13.46-18.82,23.06-32.96,25.2-4.57-2.81-8.6-6-11.98-9.63-28.36-30.38-9.9-69.86-.52-80.87,0,0-1.54,21.23,13.22,42.37,7.94,11.38,18.02,18.91,29.9,22.3.78.23,1.57.44,2.34.63Z"/>
    <path class="cls-2" d="M715.03,255.83c-2.71,2.25-5.98,4.48-9.65,6.35-5.58-8.41-8.97-19.42-8.97-31.48,0-1.13.03-2.25.09-3.36.64,1.17,1.76,1.76,3.38,1.76,2.6,0,9.63-2.06,16.77-6.21,18.28-10.64,24.92-30.39,24.92-30.39,3.26,27.27-10.08,49.7-26.54,63.33Z"/>
    <g>
      <path class="cls-5" d="M188.51,189.2c4-10.6,9.3-20.25,15.9-28.95,6.6-8.7,14.25-15.85,22.95-21.45,8.7-5.6,17.75-6.4,27.15-6.4,5.2,0,10.42.62,13.8,1.7,4.18,1.34,8.49,4.34,10.9,7.5,2.95,3.87,3.55,6.85,4.85,10.95,1.3,4.1,1.95,7.55,1.95,12.35,0,9.8-2.3,17.5-6.9,23.1-4.6,5.6-10.32,7.16-16.72,7.16-4.4,0-8.33-.21-12.23-3.11-3.9-2.9-6.95-7.65-9.15-14.25-5,6.8-8.55,12.95-10.65,18.45-2.1,5.5-3.15,10.45-3.15,14.85,0,6.6,2.1,11.25,6.3,13.95,4.2,2.7,9.4,4.05,15.6,4.05,4.8,0,9.8-.8,15-2.4,5.2-1.6,10.3-4.05,15.3-7.35,5-3.3,9.7-7.55,14.1-12.75,4.4-5.2,8.1-11.4,11.1-18.6,1-2.2,2.35-3.8,4.05-4.8,1.7-1,3.65-1.5,5.85-1.5,6.8,0,10.2,3.4,10.2,10.2-2,10.4-5.9,20.15-11.7,29.25-5.8,9.1-12.85,17.05-21.15,23.85-8.3,6.8-17.6,12.15-27.9,16.05-10.3,3.9-20.85,4.85-31.65,4.85-8.6,0-16.05-.25-22.35-2.75-6.3-2.5-11.5-5.9-15.6-10.2-4.1-4.3-7.1-9.3-9-15-1.9-5.7-2.85-11.75-2.85-18.15,0-9.8,2-20,6-30.6Z"/>
      <path class="cls-5" d="M365.21,256.56c.6-3.3,1.2-6.75,1.8-10.35-5,6.2-10.6,11.2-16.8,15-6.2,3.8-13.1,5.7-20.7,5.7-5.8,0-10.65-1.1-14.55-3.3-3.9-2.2-7-5.2-9.3-9-2.3-3.8-3.95-8.25-4.95-13.35-1-5.1-1.5-10.45-1.5-16.05,0-7,.65-14.2,1.95-21.6,1.3-7.4,2.8-14.35,4.5-20.85,1.7-6.5,3.4-12.35,5.1-17.55,1.7-5.2,2.95-9,3.75-11.4,2.8-8.4,6.85-14.4,12.15-18,5.3-3.6,10.65-3.4,16.05-3.4s9.7-.55,13.5,2.35c3.8,2.9,5.7,6.65,5.7,11.25,0,2.6-.7,5.2-2.1,7.8-.6,1.2-2.1,4.55-4.5,10.05-2.4,5.5-4.95,11.7-7.65,18.6-2.7,6.9-5.1,13.8-7.2,20.7-2.1,6.9-3.15,12.45-3.15,16.65,0,2.4.4,4.55,1.2,6.45.8,1.9,2.3,2.85,4.5,2.85,2.6,0,5.3-1.6,8.1-4.8,2.8-3.2,5.55-7.35,8.25-12.45s5.3-10.8,7.8-17.1c2.5-6.3,4.7-12.45,6.6-18.45,1.9-6,3.55-11.55,4.95-16.65,1.4-5.1,2.4-9.05,3-11.85,1.2-6,3.8-10.35,7.8-13.05,4-2.7,8.6-3.05,13.8-3.05,6.6,0,12.15.9,16.65,4.7,4.5,3.8,6.75,9.1,6.75,15.9,0,3.8-.5,8.95-1.5,15.45-1,6.5-2.3,13.8-3.9,21.9-1.6,8.1-3.5,16.75-5.7,25.95-2.2,9.2-4.5,18.3-6.9,27.3,8.8-7.6,15.9-16.1,21.3-25.5,5.4-9.4,10.2-19.2,14.4-29.4,1-2.2,2.45-3.8,4.35-4.8,1.9-1,3.85-1.5,5.85-1.5,2.6,0,4.95.7,7.05,2.1,2.1,1.4,3.15,3.5,3.15,6.3,0,.8-.1,1.4-.3,1.8-2.6,12.6-6.2,23.6-10.8,33-4.6,9.4-9.8,17.6-15.6,24.6-5.8,7-12.05,12.9-18.75,17.7-6.7,4.8-13.55,8.8-20.55,12-1.2,4.6-2.4,8.85-3.6,12.75-1.2,3.9-2.3,7.55-3.3,10.95-4.2,12.8-8.3,23.25-12.3,31.35-4,8.1-8.15,14.4-12.45,18.9-4.3,4.5-7.75,6.6-12.35,8.3-4.6,1.7-10.6,2.55-16,2.55-7.8,0-14.6-.3-20.4-2.9-5.8-2.6-10.55-6-14.25-10.2-3.7-4.2-6.45-9.05-8.25-14.55-1.8-5.5-2.7-11.15-2.7-16.95,0-9.2,2-16.55,6-22.05,4-5.5,9.3-10.05,15.9-13.65,6.6-3.6,14.1-6.65,22.5-9.15,8.4-2.5,16.9-5.15,25.5-7.95.8-3.4,1.5-6.75,2.1-10.05ZM347.36,318.06c3.3-6.3,6.45-14.55,9.45-24.75-5,1.2-9.6,2.45-13.8,3.75-4.2,1.3-7.8,2.7-10.8,4.2s-5.35,3.25-7.05,5.25c-1.7,2-2.55,4.4-2.55,7.2,0,2.4.55,4.45,1.65,6.15,1.1,1.7,2.4,3.15,3.9,4.35s3.05,2.05,4.65,2.55c1.6.5,2.9.75,3.9.75,3.8,0,7.35-3.15,10.65-9.45Z"/>
      <path class="cls-5" d="M443.21,191.9c1.8-10.2,4.15-20.45,7.05-30.75,2.9-10.3,6.1-20.5,9.6-30.6,3.5-10.1,6.95-19.4,10.35-27.9,3.4-8.5,6.5-16,9.3-22.5,2.8-6.5,5-11.45,6.6-14.85,3.4-7,7.7-12.05,12.9-15.15,5.2-3.1,10.4-3.65,15.6-3.65s9.75.35,13.65,3.05c3.9,2.7,5.85,6.35,5.85,10.95,0,3-1,6.2-3,9.6-1.6,2.6-4,7.4-7.2,14.4-3.2,7-6.75,15.2-10.65,24.6-3.9,9.4-7.9,19.5-12,30.3-4.1,10.8-7.8,21.3-11.1,31.5-3.3,10.2-6.05,19.6-8.25,28.2-2.2,8.6-3.3,15.5-3.3,20.7,0,1.8.25,3.8.75,6,.5,2.2,1.85,3.3,4.05,3.3,2.8,0,5.7-1.8,8.7-5.4,3-3.6,5.9-7.7,8.7-12.3,2.8-4.6,5.25-9.2,7.35-13.8,2.1-4.6,3.55-7.8,4.35-9.6,1-2.2,2.45-3.8,4.35-4.8,1.9-1,3.85-1.5,5.85-1.5,2.6,0,4.95.7,7.05,2.1,2.1,1.4,3.15,3.5,3.15,6.3,0,.4-.05.7-.15.9-.1.2-.15.5-.15.9-1.6,7.8-4.05,16.1-7.35,24.9-3.3,8.8-7.5,16.9-12.6,24.3-5.1,7.4-11,13.55-17.7,18.45-6.7,4.9-14.25,7.35-22.65,7.35-5.6,0-10.4-1.15-14.4-3.45-4-2.3-7.3-5.5-9.9-9.6-2.6-4.1-4.5-9-5.7-14.7-1.2-5.7-1.8-11.95-1.8-18.75,0-8.8.9-18.3,2.7-28.5Z"/>
      <path class="cls-5" d="M511.61,191.9c1.8-10.2,4.15-20.45,7.05-30.75,2.9-10.3,6.1-20.5,9.6-30.6,3.5-10.1,6.95-19.4,10.35-27.9,3.4-8.5,6.5-16,9.3-22.5,2.8-6.5,5-11.45,6.6-14.85,3.4-7,7.7-12.05,12.9-15.15,5.2-3.1,10.4-3.65,15.6-3.65s9.75.35,13.65,3.05c3.9,2.7,5.85,6.35,5.85,10.95,0,3-1,6.2-3,9.6-1.6,2.6-4,7.4-7.2,14.4-3.2,7-6.75,15.2-10.65,24.6-3.9,9.4-7.9,19.5-12,30.3-4.1,10.8-7.8,21.3-11.1,31.5-3.3,10.2-6.05,19.6-8.25,28.2-2.2,8.6-3.3,15.5-3.3,20.7,0,1.8.25,3.8.75,6,.5,2.2,1.85,3.3,4.05,3.3,2.8,0,5.7-1.8,8.7-5.4,3-3.6,5.9-7.7,8.7-12.3,2.8-4.6,5.25-9.2,7.35-13.8,2.1-4.6,3.55-7.8,4.35-9.6,1-2.2,2.45-3.8,4.35-4.8,1.9-1,3.85-1.5,5.85-1.5,2.6,0,4.95.7,7.05,2.1,2.1,1.4,3.15,3.5,3.15,6.3,0,.4-.05.7-.15.9-.1.2-.15.5-.15.9-1.6,7.8-4.05,16.1-7.35,24.9-3.3,8.8-7.5,16.9-12.6,24.3-5.1,7.4-11,13.55-17.7,18.45-6.7,4.9-14.25,7.35-22.65,7.35-5.6,0-10.4-1.15-14.4-3.45-4-2.3-7.3-5.5-9.9-9.6-2.6-4.1-4.5-9-5.7-14.7s-1.8-11.95-1.8-18.75c0-8.8.9-18.3,2.7-28.5Z"/>
      <path class="cls-5" d="M714.25,134.75c-3.9-2.89-7.27-3.2-12.47-3.2-2.8,0-6.87.41-9.87,1.5-3,1.11-5.53,2.04-8.71,3.95-4-2.4-8.39-4.09-13.2-5.1-4.8-.99-9.3-1.5-13.5-1.5-11,0-21.65,3.06-31.94,9.15-10.31,6.11-19.36,13.8-27.15,23.1-7.8,9.3-14.06,19.46-18.75,30.45-4.7,11.01-7.05,21.51-7.05,31.5,0,5.81.85,11.31,2.55,16.5,1.7,5.21,4.2,9.71,7.5,13.5,3.29,3.81,7.39,6.81,12.29,9,4.9,2.21,10.55,3.3,16.96,3.3,9.19,0,18-2.19,26.4-6.6,8.39-4.39,15.89-9.99,22.5-16.8,1.99,7.01,5.34,12.66,10.04,16.95,4.7,4.31,10.97,6.86,18.75,6.45,6.16-.32,11.91-2.18,16.9-4.72-5.58-8.41-8.97-19.42-8.97-31.48,0-1.13.03-2.25.09-3.36-.15-.28-.27-.59-.37-.94-.5-1.8-.75-3.49-.75-5.1,0-4.59,1.06-10.44,3.16-17.55,2.09-7.09,4.5-14.14,7.19-21.15,2.71-6.99,5.25-13.24,7.65-18.75,2.41-5.49,3.91-8.85,4.5-10.05,1.4-2.59,2.1-5.19,2.1-7.8,0-4.59-1.94-8.34-5.85-11.25ZM665.35,176.9c-1.5,5.4-2.95,11.21-4.35,17.4-2.8,4.2-5.84,8.36-9.15,12.45-3.29,4.11-6.6,7.86-9.9,11.25-3.29,3.41-6.55,6.15-9.75,8.25-3.2,2.1-6.1,3.15-8.7,3.15-2.2,0-3.95-.69-5.25-2.1-1.3-1.39-1.94-3.19-1.94-5.4,0-3.6,1.59-8.44,4.79-14.55,3.2-6.09,7.35-12.24,12.46-18.45,5.1-6.19,10.79-11.74,17.1-16.65,6.29-4.89,12.64-8.04,19.04-9.45-1.4,4.01-2.85,8.7-4.35,14.1Z"/>
      <path class="cls-5" d="M199.18,55.87c-.54.59.88-3.19.95-3.46,4.18-15.65,29.25-21.41,29.25-21.41,0,0-19.18-1.14-29.61,9.33-.85-9.17-5.9-16.67-12.45-22.13-7.2-6-15.86-10.69-25.95-14.1-10.11-3.39-21.36-4.1-33.75-4.1s-23.36.65-34.65,3.95c-11.31,3.3-21.36,8.21-30.15,14.7-8.81,6.51-15.9,14.66-21.3,24.45-5.4,9.81-8.1,21.21-8.1,34.2,0,11.21,1.95,21.41,5.85,30.6,3.9,9.21,8.74,17.55,14.55,25.05,5.79,7.5,12.15,14.4,19.05,20.7,6.9,6.3,13.24,12.15,19.05,17.55,5.79,5.4,10.65,10.61,14.55,15.6,3.9,5.01,5.85,10.11,5.85,15.3,0,3.21-.81,6.41-2.4,9.6-1.61,3.21-4.01,6.11-7.2,8.7-3.21,2.61-7.16,4.76-11.85,6.45-4.71,1.71-10.05,2.55-16.05,2.55-4.86,0-9.83-.65-14.91-1.92-6.78,13.46-18.82,23.06-32.96,25.2,4.66,2.9,9.9,5.4,15.62,7.62,11.29,4.41,25.05,6.6,41.25,6.6,13.39,0,25.54-1.54,36.45-4.65,10.89-3.09,20.19-7.44,27.9-13.05,7.69-5.59,13.65-12.19,17.85-19.8,4.2-7.59,6.3-15.9,6.3-24.9s-1.91-17.1-5.7-24.3c-3.81-7.2-8.55-13.99-14.25-20.4-5.7-6.39-11.91-12.49-18.6-18.3-6.71-5.79-12.96-11.79-18.75-18-5.81-6.19-10.71-12.75-14.7-19.65-4.01-6.9-6.11-14.44-6.3-22.65-.21-5.19.39-10.39,1.8-15.6,1.39-5.19,3.64-9.99,6.75-14.4,3.09-4.39,6.99-7.95,11.7-10.65,4.69-2.7,10.14-4.05,16.35-4.05,4.8,0,8.55.75,11.25,2.25,2.7,1.5,5.63,4.27,6.85,6.25,4.22,6.85-.8,12.43-7.56,15.62-7.31,3.46-3.73,24.88-9.03,47.3-.99,4.15-2.88,7.67,1.04,11.42.83.8,2.7,1.93,3.96,2.11.98.14,2.04-1.66,3.86-3.06.11-.08.21-.17.3-.26,3.09.49,5.75.11,5.75.11,0,0-2.36-2.14-4.5-4.59.04-1.88-.09-4.27.12-7.21,2.33.19,4.09-.06,4.09-.06,0,0-1.79-1.64-3.66-3.67.23-1.45.55-3.02,1.01-4.7,3.32-12.22,15.08-17.95,15.08-17.95-.59,3.38-4.99,12.32-6.17,19.04v.02c-1.45-.06-2.44-.16-2.44-.16,0,0,.73,1.09,2.02,2.4-.26,1.32-.53,2.51-.8,3.6-1.9-.36-3.32-.73-3.32-.73,0,0,.88,1.89,2.53,3.91-.25.96-.49,1.84-.69,2.68-2.85-.45-5.41-1.1-5.62-1.15.1.21,1.77,3.68,4.74,6.22-.11,1.57-.06,3.29.22,5.35-3.16-.32-6.17-.96-6.17-.96,0,0,3.52,6.76,9.23,8.11.16.07.31.15.48.24,8.11,4.31,15.1.91,15.52.26,3.78-5.98,7.03-11.62,5.99-14.29-4.12-10.52-.81-19.57,1.55-23.84,4.58-8.28,19.47-6.23,22.21-13.28.52-1.31,1.25-6.47,2.47-10.66,4.49-15.38,29.87-22.59,29.87-22.59,0,0-19.04-2.12-31.62,11.64ZM164.91,123.28c-1.45.23-2.16-1.64-2.06-3.8.01-.18.13-2.01,1.47-2.62,1.26-.56,1.45,1.95,2.13,2.99,1.27,1.94.02,3.17-1.54,3.43ZM172.66,84.09s-.95-.9-.76-2.64c.25-2.33,1.59-6.09,5.41-6.51,1.62-.17,2.09.79,2.09.79-1.29,3.54-4.32,4.65-6.74,8.36Z"/>
    </g>
  </g>
</svg>