<?xml version="1.0" encoding="UTF-8"?>
<svg id="Layer_6" data-name="Layer 6" xmlns="http://www.w3.org/2000/svg" xmlns:xlink="http://www.w3.org/1999/xlink" viewBox="0 0 1080 407.84">
  <defs>
    <style>
      .cls-1 {
        fill: url(#linear-gradient-2);
      }

      .cls-2 {
        fill: url(#linear-gradient-4);
      }

      .cls-3 {
        fill: #7dbbe7;
      }

      .cls-4 {
        fill: url(#linear-gradient-3);
      }

      .cls-5 {
        fill: url(#linear-gradient-5);
      }

      .cls-6 {
        fill: #efb821;
      }

      .cls-7 {
        fill: url(#linear-gradient-8);
      }

      .cls-8 {
        fill: #aa4744;
      }

      .cls-9 {
        fill: #f6f9fd;
      }

      .cls-10 {
        fill: url(#linear-gradient-7);
      }

      .cls-11 {
        fill: url(#linear-gradient-6);
      }

      .cls-12 {
        fill: #b7514f;
      }

      .cls-13 {
        fill: #5bb35c;
      }

      .cls-14 {
        fill: url(#linear-gradient);
      }

      .cls-15 {
        fill: #f0b825;
      }

      .cls-16 {
        fill: #c75650;
      }
    </style>
    <linearGradient id="linear-gradient" x1="328.41" y1="282.46" x2="347.37" y2="282.46" gradientUnits="userSpaceOnUse">
      <stop offset="0" stop-color="#af4b48"/>
      <stop offset=".11" stop-color="#c75650"/>
      <stop offset=".89" stop-color="#aa4744"/>
      <stop offset="1" stop-color="#aa4735"/>
    </linearGradient>
    <linearGradient id="linear-gradient-2" x1="306.03" y1="279.15" x2="324.99" y2="279.15" xlink:href="#linear-gradient"/>
    <linearGradient id="linear-gradient-3" x1="306.59" y1="285.66" x2="325.55" y2="285.66" xlink:href="#linear-gradient"/>
    <linearGradient id="linear-gradient-4" x1="284.57" y1="282.42" x2="303.53" y2="282.42" xlink:href="#linear-gradient"/>
    <linearGradient id="linear-gradient-5" x1="284.79" y1="289.11" x2="303.75" y2="289.11" xlink:href="#linear-gradient"/>
    <linearGradient id="linear-gradient-6" x1="262.41" y1="285.8" x2="281.36" y2="285.8" xlink:href="#linear-gradient"/>
    <linearGradient id="linear-gradient-7" x1="262.41" y1="292.45" x2="281.36" y2="292.45" xlink:href="#linear-gradient"/>
    <linearGradient id="linear-gradient-8" x1="240.03" y1="289.15" x2="258.98" y2="289.15" xlink:href="#linear-gradient"/>
  </defs>
  <path class="cls-13" d="M182.85,314.87v-20.25h-6.53c-.7-2.36-1.64-4.62-2.79-6.74l4.62-4.62-14.32-14.32-.91.91-3.71,3.71h0c-1.59-.86-3.26-1.6-4.99-2.22-.57-.19-1.16-.39-1.74-.56v-.02h0v-6.52h-20.24v6.53c-2.36.7-4.61,1.64-6.73,2.79h0l-3.71-3.71-.9-.91-14.33,14.32.91.91,3.7,3.69h0c-1.15,2.14-2.09,4.38-2.79,6.74h-6.52v20.25h6.53c.7,2.36,1.64,4.61,2.79,6.74l-3.72,3.71-.9.91h0l14.31,14.32,4.62-4.62c1.85,1,3.81,1.85,5.85,2.52.29.1.59.19.88.28h0v6.53h20.24v-6.53c2.36-.7,4.62-1.64,6.74-2.79v.02l4.62,4.61,7.16-7.16,7.16-7.16-.9-.89-3.71-3.72c1.15-2.12,2.09-4.37,2.79-6.73h6.54ZM142.36,324.18c-3.69,0-7.14-1.04-10.08-2.83-.53-.32-1.05-.66-1.55-1.04-.02,0-.04-.02-.06-.04-.23-.17-.45-.35-.67-.53-.24-.19-.48-.4-.71-.62,0,0-.02,0-.02-.02-.22-.2-.44-.41-.65-.62-.36-.36-.71-.75-1.04-1.13-.28-.32-.53-.64-.79-.98-.19-.25-.37-.51-.54-.77-2.1-3.1-3.32-6.84-3.32-10.86,0-3.7,1.04-7.16,2.84-10.11,3.41-5.6,9.56-9.33,16.59-9.33,1.68,0,3.31.21,4.87.62.62.15,1.23.34,1.82.57.6.21,1.18.45,1.75.74.53.25,1.06.53,1.56.85.07.04.15.09.23.14.22.12.44.27.65.42.45.29.88.61,1.3.96.1.08.19.15.29.23.14.11.28.23.4.36.14.11.27.23.4.36.17.15.33.31.49.47.31.3.6.62.87.94.19.21.37.43.54.65.02.02.05.05.06.07.18.22.35.45.51.67.11.14.21.28.31.43.19.28.38.56.55.84,1.81,2.96,2.85,6.42,2.85,10.14s-1.04,7.16-2.84,10.11c-3.4,5.6-9.56,9.33-16.59,9.33h0Z"/>
  <g>
    <polyline class="cls-8" points="359.68 284.66 271.41 298.44 271.41 335.37 359.68 321.6"/>
    <polygon class="cls-12" points="271.41 298.44 227.47 291.43 314.73 278.28 359.68 284.66 271.41 298.44"/>
    <polygon class="cls-16" points="271.41 335.37 227.47 328.36 227.47 291.43 271.41 298.44 271.41 335.37"/>
    <g>
      <path class="cls-14" d="M347.37,278.61v6.26c0,.79-4.24,1.44-9.48,1.44s-9.48-.65-9.48-1.44v-6.26c0,.79,4.24,1.44,9.48,1.44s9.48-.65,9.48-1.44Z"/>
      <ellipse class="cls-12" cx="337.89" cy="278.61" rx="9.48" ry="1.44"/>
    </g>
    <g>
      <path class="cls-1" d="M324.99,275.3v6.26c0,.79-4.24,1.44-9.48,1.44s-9.48-.65-9.48-1.44v-6.26c0,.79,4.24,1.44,9.48,1.44s9.48-.65,9.48-1.44Z"/>
      <ellipse class="cls-12" cx="315.51" cy="275.3" rx="9.48" ry="1.44"/>
    </g>
    <g>
      <path class="cls-4" d="M325.55,281.8v6.26c0,.79-4.24,1.44-9.48,1.44s-9.48-.65-9.48-1.44v-6.26c0,.79,4.24,1.44,9.48,1.44s9.48-.65,9.48-1.44Z"/>
      <ellipse class="cls-12" cx="316.07" cy="281.8" rx="9.48" ry="1.44"/>
    </g>
    <g>
      <path class="cls-2" d="M303.53,278.57v6.26c0,.79-4.24,1.44-9.48,1.44s-9.48-.65-9.48-1.44v-6.26c0,.79,4.24,1.44,9.48,1.44s9.48-.65,9.48-1.44Z"/>
      <ellipse class="cls-12" cx="294.05" cy="278.57" rx="9.48" ry="1.44"/>
    </g>
    <g>
      <path class="cls-5" d="M303.75,285.26v6.26c0,.79-4.24,1.44-9.48,1.44s-9.48-.65-9.48-1.44v-6.26c0,.79,4.24,1.44,9.48,1.44s9.48-.65,9.48-1.44Z"/>
      <ellipse class="cls-12" cx="294.27" cy="285.26" rx="9.48" ry="1.44"/>
    </g>
    <g>
      <path class="cls-11" d="M281.36,281.95v6.26c0,.79-4.24,1.44-9.48,1.44s-9.48-.65-9.48-1.44v-6.26c0,.79,4.24,1.44,9.48,1.44s9.48-.65,9.48-1.44Z"/>
      <ellipse class="cls-12" cx="271.89" cy="281.95" rx="9.48" ry="1.44"/>
    </g>
    <g>
      <path class="cls-10" d="M281.36,288.6v6.26c0,.79-4.24,1.44-9.48,1.44s-9.48-.65-9.48-1.44v-6.26c0,.79,4.24,1.44,9.48,1.44s9.48-.65,9.48-1.44Z"/>
      <ellipse class="cls-12" cx="271.89" cy="288.6" rx="9.48" ry="1.44"/>
    </g>
    <g>
      <path class="cls-7" d="M258.98,285.3v6.26c0,.79-4.24,1.44-9.48,1.44s-9.48-.65-9.48-1.44v-6.26c0,.79,4.24,1.44,9.48,1.44s9.48-.65,9.48-1.44Z"/>
      <ellipse class="cls-12" cx="249.51" cy="285.3" rx="9.48" ry="1.44"/>
    </g>
  </g>
  <g>
    <path class="cls-3" d="M445.79,274.12c4.11,6.66,8.03,17.41,9.02,34.61l7.61,9.29c1.8,2.25,2.78,5.05,2.78,7.93v16.74c0,1.4-1.14,2.54-2.54,2.54-.8,0-1.55-.38-2.03-1.02l-5.71-7.61c-.84-1.13-2.13-2.03-3.82-2.89-1.09-.55-2.1-.97-3.18-1.43l-.99-.42c-3.55,2.17-7.87,3.22-12.18,3.22s-8.63-1.05-12.18-3.22c-.34.15-.68.29-1,.43-1.07.45-2.09.88-3.17,1.43-1.69.86-2.97,1.77-3.82,2.89l-5.71,7.61c-.84,1.12-2.43,1.35-3.55.51-.64-.48-1.02-1.23-1.02-2.03v-16.74c0-2.88.98-5.68,2.78-7.93l.02-.03,7.6-9.26c1-16.87,4.92-27.58,9-34.29,2.37-3.89,4.77-6.41,6.65-7.97.95-.79,1.97-1.49,3.05-2.08.41-.24.88-.37,1.35-.38.51,0,.86.14,1.27.32.19.08.43.21.74.38.6.33,1.41.85,2.35,1.6,1.89,1.51,4.31,3.95,6.68,7.8M442.36,294.47c0-5.61-3.41-10.15-7.61-10.15s-7.61,4.54-7.61,10.15,3.41,10.15,7.61,10.15,7.61-4.54,7.61-10.15"/>
    <path class="cls-3" d="M434.75,337.61c2.54,0,5.07-.23,7.51-.71l-5.48,7.3c-.84,1.12-2.43,1.35-3.55.51-.19-.14-.36-.32-.51-.51l-5.48-7.3c2.44.47,4.97.71,7.51.71"/>
  </g>
  <polygon class="cls-6" points="81.87 261.96 81.87 134.41 46.91 134.41 81.87 261.96"/>
  <polygon class="cls-6" points="1067.77 97.42 418.46 97.42 418.46 61.24 1067.77 97.42"/>
  <g>
    <g>
      <g id="Black">
        <g>
          <path class="cls-9" d="M340.97,44.66c.6-2.01,1.4-3.93,2.38-5.75l-3.94-3.94,12.21-12.22.02.02.02-.02,3.93,3.93c1.81-.98,3.72-1.77,5.72-2.37v-5.57h17.31v5.57c2,.59,3.91,1.39,5.72,2.37l3.15-3.16.77-.77.02.02.02-.02,6.1,6.11,6.11,6.11-3.94,3.94c.98,1.81,1.78,3.73,2.38,5.75h5.57v8.64h-22.46c0-6.68-5.42-12.09-12.09-12.09s-12.09,5.42-12.09,12.09h-22.46v-8.64h5.57Z"/>
          <polygon class="cls-9" points="404.52 44.66 402.82 40.13 402.69 43.57 401.75 42.04 401.78 46.1 404.52 44.66"/>
          <polygon class="cls-9" points="388.29 22.75 384.55 20.6 387.22 25.56 388.29 22.75"/>
          <polygon class="cls-9" points="361.31 18.74 355.36 20.03 359.97 20.55 358.42 21.09 362.49 21.32 361.31 18.74"/>
          <polygon class="cls-9" points="339.41 34.97 337.52 38.13 341.46 35.45 339.41 34.97"/>
        </g>
        <path class="cls-9" d="M94.18,103.3l.98.98-15.56,15.56-.98-.98-4.04-4.04c-2.31,1.25-4.76,2.27-7.32,3.03v7.1h-22.01v-7.1c-2.56-.76-5.01-1.78-7.32-3.03l-4.04,4.04-.98.98-15.56-15.56.98-.98,4.04-4.04c-1.25-2.31-2.27-4.76-3.03-7.32h-7.1v-22.01h7.1c.76-2.56,1.78-5.01,3.03-7.32l-4.04-4.04-.98-.98,7.78-7.78,7.78-7.78,5.02,5.02c2.31-1.25,4.76-2.27,7.32-3.03v-7.1h22.01v7.1c2.56.76,5.01,1.78,7.32,3.03l5.02-5.02,7.78,7.78,7.78,7.78-.98.98-4.04,4.04-7.32,7.32h-8.53c-3.71-6.07-10.4-10.13-18.04-10.13-11.67,0-21.13,9.46-21.13,21.13s9.46,21.13,21.13,21.13c7.64,0,14.33-4.05,18.04-10.13h8.53l7.32,7.32,4.04,4.04h0Z"/>
        <path class="cls-9" d="M110.71,88.77h-2.26v8.93h-10.9v-32.9h15.37c2.54,0,4.79.52,6.77,1.55,1.97,1.03,3.51,2.5,4.61,4.39,1.1,1.9,1.64,4.07,1.64,6.51,0,1.88-.39,3.58-1.17,5.1s-1.91,2.8-3.38,3.83l5.73,11.51h-12.17l-4.23-8.93h0ZM108.45,80.41h2.68c1.06,0,1.91-.3,2.54-.89.63-.59.94-1.35.94-2.26s-.31-1.65-.94-2.23c-.63-.58-1.47-.87-2.54-.87h-2.68v6.25Z"/>
        <path class="cls-9" d="M152.87,88.86v8.84h-22.75v-32.9h22.51v8.84h-11.7v3.57h10.48v8.08h-10.48v3.57h11.94Z"/>
        <path class="cls-9" d="M190.18,64.8l-12.97,32.9h-10.01l-12.97-32.9h12.83l5.17,17.44,5.12-17.44h12.83Z"/>
        <path class="cls-9" d="M249.83,87.55v9.87h-22.14v-32.9h11.19v23.03h10.95Z"/>
        <path class="cls-9" d="M259.39,96.62c-2.3-1.16-4.09-2.8-5.36-4.93-1.27-2.13-1.9-4.61-1.9-7.43v-19.74h11.37v19.79c0,1.19.35,2.15,1.06,2.89.7.74,1.64,1.1,2.8,1.1s2.09-.37,2.79-1.1c.7-.74,1.06-1.7,1.06-2.89v-19.79h11.37v19.74c0,2.82-.63,5.29-1.9,7.43-1.27,2.13-3.05,3.78-5.36,4.93s-4.96,1.74-7.96,1.74-5.66-.58-7.97-1.74h0Z"/>
        <path class="cls-9" d="M314.21,74.07h-8.88v23.36h-11v-23.36h-8.88v-9.54h28.76v9.54Z"/>
        <path class="cls-9" d="M317.45,64.53h11.19v32.9h-11.19v-32.9Z"/>
        <path class="cls-9" d="M341.26,96.2c-2.84-1.44-5.04-3.48-6.6-6.11-1.57-2.63-2.35-5.67-2.35-9.12s.78-6.49,2.35-9.12,3.77-4.67,6.6-6.11c2.84-1.44,6.12-2.16,9.85-2.16s7.01.72,9.85,2.16c2.84,1.44,5.04,3.48,6.6,6.11,1.57,2.63,2.35,5.67,2.35,9.12s-.78,6.49-2.35,9.12c-1.57,2.63-3.77,4.67-6.6,6.11-2.84,1.44-6.12,2.16-9.85,2.16s-7.01-.72-9.85-2.16ZM356.27,86.29c1.32-1.35,1.97-3.12,1.97-5.31s-.66-3.96-1.97-5.31-3.04-2.02-5.17-2.02-3.85.67-5.17,2.02-1.97,3.12-1.97,5.31.66,3.96,1.97,5.31,3.04,2.02,5.17,2.02,3.85-.67,5.17-2.02Z"/>
        <path class="cls-9" d="M404.54,64.53v32.9h-8.93l-11.61-15.56v15.56h-10.43v-32.9h9.26l11.28,14.9v-14.9h10.43Z"/>
        <path class="cls-9" d="M222.36,76.65c-.3-1.02-.72-1.98-1.23-2.89l.85-.85-6.89-6.89-1.43,1.43c-.74-.29-1.51-.53-2.32-.71v-1.66h-9.75v1.66c-.8.19-1.58.42-2.32.71l-1.43-1.43-6.89,6.89.85.85c-.52.91-.93,1.87-1.23,2.89h-1.47v9.75h1.47c.3,1.02.72,1.98,1.23,2.89l-.85.85,6.89,6.89,1.43-1.43c.74.29,1.51.53,2.32.71v1.66h9.75v-1.66c.8-.19,1.58-.42,2.32-.71l1.43,1.43,6.89-6.89-.85-.85c.52-.91.93-1.87,1.23-2.89h1.47v-9.75h-1.47ZM211.35,85.85c-.1.12-.2.24-.32.36-.07.07-.13.13-.2.19-1.04.97-2.34,1.5-3.92,1.58-.14,0-.29.01-.44.01s-.3,0-.44-.01c-1.57-.08-2.88-.61-3.92-1.58-.07-.06-.13-.13-.2-.19-.11-.11-.22-.23-.32-.36-.83-1-1.3-2.24-1.4-3.71-.01-.2-.02-.41-.02-.62s0-.42.02-.62c.1-1.47.57-2.71,1.4-3.71.1-.12.2-.24.32-.36.07-.07.13-.13.2-.19,1.04-.97,2.34-1.5,3.92-1.58.14,0,.29-.01.44-.01s.3,0,.44.01c1.57.08,2.88.61,3.92,1.58.07.06.13.13.2.19.11.11.22.23.32.36.83,1,1.3,2.24,1.4,3.71.01.2.02.41.02.62s0,.42-.02.62c-.1,1.47-.57,2.71-1.4,3.71Z"/>
      </g>
      <g id="UI">
        <polygon class="cls-15" points="237.82 34.35 260.31 38.22 253.28 29.1 272.25 34.63 266.28 19.14 294.04 31.03 286.66 17.76 305.64 22.74 318.07 32.2 328.1 18.4 328.1 53.35 270.5 53.42 247.65 45.41 237.82 34.35"/>
        <polygon class="cls-15" points="238.84 7.91 242.29 12.05 252.87 13.43 245.86 4.69 238.84 7.91"/>
        <polygon class="cls-15" points="160.13 16.67 163.22 23.13 172.27 20.03 160.13 16.67"/>
        <polygon class="cls-15" points="313.77 7.36 297.21 0 297.21 6.44 305.97 8.97 313.77 7.36"/>
        <polygon class="cls-15" points="108.91 24.09 114.66 27.2 120.41 24.71 112.13 23.06 108.91 24.09"/>
        <polygon class="cls-15" points="155.51 42.02 144.03 46.93 156.62 50.31 155.51 42.02"/>
        <polygon class="cls-15" points="201.04 14.38 206.48 20.8 224.47 27.58 222.79 20.8 216.58 18.85 210.08 9.74 208.28 15.68 201.04 14.38"/>
        <polygon class="cls-15" points="186.48 41.38 191 37.39 202.28 38.66 215.61 44.58 198.74 46.51 186.48 41.38"/>
      </g>
    </g>
    <g>
      <path class="cls-9" d="M123.8,255.82c-9.19-4.09-16.25-9.94-21.2-17.54-4.95-7.61-7.43-16.72-7.43-27.34h43.7c0,3.3.75,6.14,2.26,8.5,1.51,2.37,3.55,4.16,6.13,5.38,2.58,1.22,5.6,1.83,9.04,1.83,3.01,0,5.78-.5,8.29-1.51,2.51-1,4.48-2.51,5.92-4.52,1.43-2.01,2.15-4.38,2.15-7.1,0-3.3-1.15-5.99-3.45-8.07-2.3-2.08-5.13-3.69-8.5-4.84-3.37-1.15-8.29-2.51-14.75-4.09-9.9-2.44-18.12-5.02-24.65-7.75-6.53-2.72-12.13-7.17-16.79-13.35-4.66-6.17-7-14.56-7-25.19,0-9.61,2.29-17.87,6.89-24.76,4.59-6.89,11.23-12.2,19.91-15.93,8.68-3.73,18.98-5.6,30.89-5.6s21.92,1.9,30.46,5.7c8.54,3.8,15.03,9.33,19.48,16.58,4.45,7.25,6.67,15.82,6.67,25.73h-41.98c0-4.45-1.33-7.89-3.98-10.33-2.66-2.44-6.28-3.66-10.87-3.66s-8,1.04-10.66,3.12c-2.66,2.08-3.98,4.84-3.98,8.29,0,3.01,1.15,5.53,3.44,7.53,2.3,2.01,5.13,3.59,8.5,4.74,3.37,1.15,8.29,2.58,14.75,4.31,10.19,2.58,18.62,5.31,25.3,8.18,6.67,2.87,12.45,7.39,17.33,13.56,4.88,6.17,7.32,14.42,7.32,24.76s-2.48,19.23-7.43,26.69c-4.95,7.46-11.98,13.13-21.1,17.01-9.12,3.87-19.84,5.81-32.18,5.81s-23.32-2.04-32.51-6.14Z"/>
      <path class="cls-9" d="M267.71,254.31c-10.12-5.24-17.98-12.63-23.57-22.17-5.6-9.54-8.4-20.56-8.4-33.04v-91.49h43.06v91.28c0,4.88.97,9.19,2.91,12.92,1.94,3.73,4.74,6.64,8.4,8.72,3.66,2.08,7.86,3.12,12.59,3.12s8.68-1.04,12.27-3.12c3.59-2.08,6.39-4.99,8.4-8.72,2.01-3.73,3.01-8.04,3.01-12.92v-91.28h43.06v91.49c0,12.49-2.8,23.5-8.4,33.04-5.6,9.55-13.45,16.94-23.57,22.17-10.12,5.24-21.71,7.86-34.77,7.86s-24.86-2.62-34.98-7.86Z"/>
      <path class="cls-9" d="M816.76,107.6h98.16v34.44h-72.98l15.93-14.42v110.65l-15.93-14.21h74.49v34.23h-99.67V107.6ZM847.55,166.59h61.78v31.65h-61.78v-31.65Z"/>
      <path class="cls-9" d="M939.47,107.6h66.73c11.05,0,20.88,2.26,29.49,6.78,8.61,4.52,15.32,10.91,20.13,19.16,4.81,8.25,7.21,17.62,7.21,28.09s-2.48,18.91-7.43,26.59c-4.95,7.68-11.98,13.64-21.1,17.87-9.11,4.23-19.56,6.35-31.32,6.35h-35.09l-1.08-32.72h32.94c4.02,0,7.53-.75,10.55-2.26s5.34-3.66,7-6.46c1.65-2.8,2.48-5.92,2.48-9.36s-.83-6.53-2.48-9.26c-1.65-2.72-3.98-4.84-7-6.35s-6.53-2.26-10.55-2.26h-32.08l13.13-11.62v126.15h-41.55V107.6ZM992.42,201.25l43.27-4.09,32.07,61.14h-46.5l-28.85-57.05Z"/>
      <path class="cls-9" d="M620,107.6h40.9l41.76,96.44-11.62.22,41.98-96.66h41.12l22.82,150.69h-41.55l-13.13-98.6,6.24.43-44.56,97.09h-13.99l-44.56-96.87,6.24-.65-12.92,98.6h-41.76l23.03-150.69Z"/>
      <path class="cls-6" d="M612.73,330.68c-16.61,17.17-36.65,25.75-60.13,25.75-16.82,0-30.61-5.27-41.36-15.82-10.76-10.55-16.14-24.09-16.14-40.63s3.89-32.13,11.67-46.99c7.78-14.86,17.96-26.73,30.54-35.63,12.58-8.9,24.93-13.35,37.05-13.35,10.16,0,18.45,3.05,24.86,9.14,6.41,6.1,9.62,14.02,9.62,23.76,0,12.68-3.87,23.67-11.62,32.95-7.74,9.29-16.8,13.93-27.17,13.93-5.47,0-9.95-1.4-13.45-4.2-3.5-2.8-5.26-6.41-5.26-10.83,0-3.78,1.51-7.29,4.52-10.51,2.24,4.14,5.32,6.2,9.25,6.2,5.6,0,10.81-3.5,15.61-10.51,4.8-7.01,7.2-14.68,7.2-23.02,0-5.82-1.35-10.44-4.05-13.88-2.7-3.43-6.29-5.15-10.77-5.15-6.52,0-13.47,4.06-20.87,12.19-7.39,8.13-13.56,18.57-18.5,31.32-4.94,12.76-7.41,24.88-7.41,36.37,0,14.65,4.15,26.66,12.46,36.05,8.3,9.39,18.87,14.09,31.69,14.09,8.13,0,15.45-1.88,21.97-5.65,6.52-3.77,13.28-9.66,20.29-17.69v12.09Z"/>
      <path class="cls-9" d="M577.28,258.3h-32.84l-13.13-98.6,6.24.43-44.56,97.09h-13.99l-44.56-96.87,6.24-.65-12.92,98.6h-41.76l23.03-150.69h40.9l41.76,96.44-11.62.22,41.98-96.66h41.12l21.22,140.16c-.78,3.15-7.11,10.53-7.11,10.53Z"/>
      <path class="cls-6" d="M724.89,330.58c-11.21,10.65-19.24,17.59-24.07,20.81-4.83,3.22-9.46,4.84-13.88,4.84-11.07,0-16.29-9.78-15.66-29.33-7.01,10.02-13.47,17.41-19.39,22.18-5.92,4.76-12.04,7.15-18.34,7.15s-11.4-2.89-15.71-8.67c-4.31-5.78-6.46-12.88-6.46-21.29,0-10.51,2.89-20.53,8.67-30.06,5.78-9.53,13.19-17.24,22.23-23.13,9.04-5.89,17.03-8.83,23.97-8.83,8.76,0,14.89,4.03,18.4,12.09l21.48-11.88h5.9l-9.27,30.8c-4.78,15.49-7.16,26.11-7.16,31.85s2.14,9.04,6.41,9.04c2.73,0,5.74-1.45,9.03-4.36,3.29-2.91,7.91-7.34,13.87-13.3v12.09ZM647.94,336.36c7.01,0,13.61-5.97,19.81-17.92,6.2-11.95,9.3-22.97,9.3-33.06,0-3.92-.88-6.99-2.63-9.2-1.75-2.21-4.1-3.31-7.04-3.31-7.01,0-13.65,5.96-19.92,17.87-6.27,11.91-9.41,22.88-9.41,32.9,0,3.78.93,6.85,2.79,9.2,1.86,2.35,4.22,3.52,7.1,3.52Z"/>
      <path class="cls-6" d="M879.62,330.58c-8.76,8.55-16.26,14.96-22.5,19.24-6.24,4.27-12.3,6.41-18.18,6.41-4.63,0-8.29-1.59-10.98-4.78-2.7-3.19-4.05-7.48-4.05-12.88,0-7.57,1.89-17.17,5.68-28.8,3.78-11.63,5.67-18.71,5.67-21.23,0-2.24-1.16-3.36-3.47-3.36-.7,0-1.54.25-2.52.74-1.05.49-2.24,1.19-3.57,2.1-1.33.98-2.77,2.17-4.31,3.57-1.54,1.4-3.15,3.01-4.83,4.84-1.82,1.82-3.64,3.82-5.47,5.99-3.08,3.64-4.9,6.69-5.46,9.14l-3.49,15.04-6.36,24.81-26.63,4.82,10.2-43.31c.77-3.15,1.68-7.78,2.73-13.88,1.05-6.1,1.58-9.74,1.58-10.93,0-2.38-.81-3.57-2.42-3.57-.49,0-1.19.25-2.1.74-1.05.49-2.24,1.23-3.58,2.21-1.54,1.12-3.19,2.45-4.94,3.99-1.89,1.68-3.92,3.61-6.1,5.78-2.31,2.31-4.7,4.87-7.15,7.67-3.36,3.78-5.47,8.2-6.31,13.24-1.12,6.03-1.89,11.42-2.31,16.19-.49,4.77-.77,10.09-.84,15.98l-23.34,5.57c-.56-8.06-.84-14.78-.84-20.18,0-12.82,1.33-23.98,3.99-33.48,2.66-9.5,7.01-20.59,13.03-33.27l25.44-4.94c-4.56,11.42-8.09,22.46-10.62,33.11,18.85-21.93,33.28-32.9,43.31-32.9,3.64,0,6.6,1.49,8.88,4.47,2.28,2.98,3.42,6.89,3.42,11.72,0,2.24-.35,6.38-1.05,12.4,11.85-11.84,20.35-19.57,25.5-23.18,5.15-3.61,9.9-5.41,14.25-5.41,3.85,0,7.01,1.54,9.46,4.63,2.45,3.08,3.68,7.01,3.68,11.77,0,7.5-2.06,17.14-6.19,28.91s-6.19,19.55-6.19,23.33,1.43,5.88,4.3,5.88c1.82,0,4.35-1.21,7.61-3.63,3.25-2.42,8.94-7.97,17.05-16.66v12.09Z"/>
      <path class="cls-6" d="M929.9,282.55c5.04-6.1,9.8-10.6,14.29-13.51,4.48-2.91,9.45-4.36,14.91-4.36,7.07,0,12.83,2.72,17.28,8.15,4.45,5.43,6.67,12.56,6.67,21.39,0,15.49-5.34,29.7-16.03,42.62-10.69,12.93-22.31,19.39-34.85,19.39-3.5,0-6.27-.39-8.3-1.16-2.03-.77-4.7-2.56-7.99-5.36-5.04,22.22-8.3,40.02-9.77,53.4l-26.69,4.73c4.97-32.8,11.32-66.01,19.02-99.65-9.25,12.12-15.49,19.59-18.71,22.39h-2.42v-9.46c13.31-14.36,24.28-31.81,32.9-52.35l23.76-4.31-4.07,18.09ZM917.74,338.77c3.65,6.03,7.68,9.05,12.1,9.05,7.08,0,13.34-5.38,18.78-16.13,5.44-10.76,8.15-21.25,8.15-31.48,0-5.4-1.1-9.76-3.31-13.09-2.21-3.33-5.06-4.99-8.56-4.99-2.73,0-5.6,1.23-8.62,3.68-3.01,2.45-5.29,5.31-6.83,8.57-1.54,3.26-3.29,8.95-5.25,17.08l-6.46,27.32Z"/>
      <path class="cls-6" d="M1030.15,268.67c4.84-1.26,9.71-2.29,14.61-3.1,4.9-.81,7.85-1.21,8.83-1.21.7,0,1.05.28,1.05.84,0,1.05-.28,2.14-.84,3.26-1.12,3.22-1.68,6.31-1.68,9.25.01,3.64,2.12,8.62,6.31,14.93,4.2,6.31,6.3,12.16,6.3,17.56,0,10.72-5.14,21.06-15.4,31.01-10.27,9.95-20.9,14.93-31.9,14.93-4.77,0-9.11-1.26-13.03-3.78s-5.89-5.22-5.89-8.09c0-1.68,1.95-4.87,5.83-9.57,3.89-4.69,6.68-7.04,8.36-7.04,2.24,0,4.24,2.87,5.99,8.62,1.75,5.75,4.77,8.62,9.04,8.62s8.29-1.98,12.04-5.94c3.75-3.96,5.62-8.22,5.62-12.78,0-4.41-2.38-10.3-7.15-17.66s-7.92-13.52-9.46-18.5c-8.13,13.1-18.43,26.53-30.9,40.26h-2.42v-9.46c17.17-18.29,28.73-35.67,34.69-52.14Z"/>
    </g>
  </g>
</svg>