<?xml version="1.0" standalone="no"?><!-- Generator: Gravit.io --><svg xmlns="http://www.w3.org/2000/svg" xmlns:xlink="http://www.w3.org/1999/xlink" style="isolation:isolate" viewBox="616.967 429 606.033 226" width="606.033" height="226"><path d=" M 774 438 L 1202 438 L 1202 429 L 1223 440 L 1202 450 L 1202 442 L 774 442 L 774 438 Z " fill="rgb(255,255,255)"/><path d=" M 774 643 L 1202 643 L 1202 634 L 1223 645 L 1202 655 L 1202 647 L 774 647 L 774 643 Z " fill="rgb(255,255,255)"/><g><path d=" M 769 438 L 769 647 L 668 647 C 635.799 624.965 617.918 592.007 617 553 C 615.457 487.415 668.52 433.554 734 433 C 746.469 432.895 757.059 434.407 769 438 Z  M 765.5 440.62 L 765.5 643.5 L 669.09 643.5 C 654.45 633.28 642.43 619.75 633.98 604.02 C 625.54 588.29 620.92 570.79 620.5 552.94 L 620.47 550.19 C 620.46 535.08 623.5 520.12 629.4 506.21 C 635.13 492.74 643.4 480.51 653.75 470.17 C 664.12 459.79 676.37 451.49 689.86 445.72 C 703.82 439.75 718.84 436.62 734.02 436.5 L 735.22 436.49 C 740.75 436.48 746.27 436.86 751.74 437.66 C 756.38 438.36 760.98 439.35 765.5 440.62 Z " fill-rule="evenodd" fill="rgb(255,255,255)"/><path d=" M 679.288 467.619 C 677.663 464.128 681.877 458.717 688.692 455.544 C 695.508 452.37 702.361 452.628 703.987 456.119 C 705.612 459.61 701.398 465.021 694.583 468.194 C 687.767 471.368 680.914 471.11 679.288 467.619 Z  M 677.47 468.46 C 677.12 467.68 676.93 466.84 676.94 465.98 C 676.97 464.71 677.29 463.49 677.87 462.39 C 678.48 461.2 679.26 460.11 680.18 459.14 C 681.2 458.05 682.33 457.07 683.56 456.21 C 684.91 455.26 686.35 454.43 687.85 453.73 C 689.48 452.96 691.19 452.36 692.94 451.93 C 694.51 451.54 696.13 451.34 697.75 451.32 C 698.58 451.32 699.41 451.39 700.22 451.53 C 700.99 451.66 701.75 451.88 702.47 452.18 C 703.17 452.48 703.83 452.89 704.4 453.4 C 704.99 453.93 705.47 454.56 705.8 455.28 C 706.16 456.06 706.34 456.92 706.34 457.78 C 706.3 459.03 705.99 460.25 705.4 461.35 C 704.79 462.54 704.02 463.63 703.1 464.6 C 702.08 465.69 700.94 466.67 699.71 467.53 C 698.36 468.48 696.93 469.31 695.43 470.01 C 693.79 470.77 692.09 471.38 690.33 471.8 C 688.76 472.2 687.15 472.4 685.53 472.42 C 684.7 472.42 683.87 472.35 683.05 472.21 C 682.28 472.08 681.53 471.86 680.81 471.55 C 680.1 471.25 679.45 470.84 678.87 470.34 C 678.29 469.81 677.81 469.18 677.47 468.46 Z " fill-rule="evenodd" fill="rgb(255,255,255)"/><path d=" M 679.85 642.72 L 680.63 643.69 L 678.68 645.26 L 677.89 644.28 C 673.29 638.54 669.16 632.45 665.53 626.05 C 662.09 619.96 659.17 613.59 656.82 607 C 654.53 600.56 652.8 593.93 651.67 587.19 C 650.53 580.41 649.97 573.55 649.98 566.67 C 649.99 558.99 650.64 551.33 651.91 543.75 C 653.25 535.75 655.15 527.86 657.61 520.12 C 660.23 511.85 663.34 503.74 666.93 495.83 C 670.78 487.33 675.05 479.01 679.73 470.92 L 680.35 469.84 L 682.52 471.09 L 681.89 472.18 C 677.26 480.19 673.02 488.43 669.2 496.87 C 665.66 504.68 662.58 512.7 659.99 520.88 C 657.57 528.5 655.7 536.28 654.37 544.17 C 653.13 551.6 652.49 559.13 652.48 566.68 C 652.47 573.41 653.02 580.13 654.13 586.78 C 655.25 593.37 656.93 599.86 659.17 606.16 C 661.48 612.61 664.33 618.86 667.71 624.82 C 671.27 631.1 675.33 637.08 679.85 642.72 Z " fill="rgb(255,255,255)"/><path d=" M 724.92 642.66 L 725.77 643.58 L 723.92 645.27 L 723.08 644.34 C 720.01 640.99 717.2 637.41 714.65 633.65 C 711.92 629.62 709.46 625.43 707.27 621.09 C 704.91 616.41 702.8 611.6 700.97 606.68 C 698.98 601.35 697.24 595.93 695.76 590.43 C 694.15 584.46 692.78 578.42 691.67 572.34 C 690.45 565.73 689.46 559.08 688.71 552.41 C 687.9 545.17 687.3 537.91 686.92 530.64 C 686.51 522.78 686.31 514.91 686.32 507.04 C 686.34 495.39 686.71 483.75 687.44 472.13 L 687.52 470.88 L 690.02 471.04 L 689.94 472.29 C 689.21 483.86 688.84 495.45 688.82 507.04 C 688.81 514.87 689.01 522.69 689.42 530.51 C 689.79 537.73 690.39 544.94 691.2 552.13 C 691.94 558.75 692.92 565.34 694.13 571.89 C 695.23 577.9 696.58 583.87 698.17 589.78 C 699.63 595.2 701.35 600.55 703.31 605.81 C 705.11 610.64 707.18 615.36 709.5 619.96 C 711.64 624.21 714.05 628.31 716.72 632.25 C 719.2 635.91 721.94 639.39 724.92 642.66 Z " fill="rgb(255,255,255)"/><path d=" M 621.74 571.12 L 621.62 572.37 L 619.13 572.12 L 619.26 570.88 C 619.8 565.47 620.6 560.1 621.65 554.78 C 622.65 549.73 623.92 544.73 625.44 539.81 C 628.35 530.42 632.29 521.37 637.18 512.84 C 639.61 508.62 642.26 504.54 645.12 500.6 C 648.03 496.6 651.13 492.75 654.42 489.05 C 657.81 485.23 661.37 481.56 665.08 478.05 C 668.95 474.39 672.95 470.86 677.08 467.49 L 678.05 466.7 L 679.63 468.64 L 678.66 469.43 C 674.58 472.76 670.62 476.24 666.8 479.87 C 663.14 483.33 659.63 486.95 656.29 490.71 C 653.06 494.35 650 498.14 647.14 502.07 C 644.33 505.94 641.73 509.95 639.35 514.09 C 634.55 522.46 630.68 531.33 627.83 540.55 C 626.33 545.39 625.09 550.3 624.1 555.26 C 623.07 560.51 622.28 565.8 621.74 571.12 Z " fill="rgb(255,255,255)"/><path d=" M 670.93 455.15 L 669.68 455.07 L 669.83 452.58 L 671.07 452.65 C 673.59 452.8 676.09 453.15 678.55 453.7 C 680.62 454.16 682.63 454.85 684.54 455.76 L 685.67 456.3 L 684.54 457.78 L 683.46 458.02 C 681.72 457.19 679.89 456.56 678.01 456.14 C 675.68 455.62 673.31 455.29 670.93 455.15 Z " fill="rgb(255,255,255)"/><path d=" M 700.88 453.24 L 699.56 453 L 698.5 451.78 L 699.56 451.12 C 709.85 444.74 720.5 438.98 731.47 433.87 L 732.6 433.34 L 733.66 435.6 L 732.53 436.13 C 721.65 441.21 711.08 446.92 700.88 453.24 Z " fill="rgb(255,255,255)"/><path d=" M 694.3 470.7 L 693.77 469.57 L 696.03 468.51 L 696.56 469.64 L 768.13 621.47 L 768.66 622.6 L 766.4 623.66 L 765.87 622.53 L 694.3 470.7 Z " fill="rgb(255,255,255)"/><path d=" M 699.21 468.63 L 698.06 468.13 L 699.07 465.84 L 700.21 466.35 C 706.94 469.3 713.55 472.54 720.01 476.06 C 725.83 479.24 731.48 482.74 736.92 486.55 C 742.25 490.3 747.37 494.35 752.25 498.66 C 757.47 503.3 762.5 508.16 767.31 513.23 L 768.17 514.14 L 766.35 515.86 L 765.49 514.95 C 760.73 509.94 755.76 505.13 750.59 500.54 C 745.78 496.28 740.74 492.29 735.48 488.6 C 730.12 484.84 724.55 481.39 718.81 478.25 C 712.41 474.77 705.87 471.56 699.21 468.63 Z " fill="rgb(255,255,255)"/><path d=" M 704.37 462.6 L 703.12 462.57 L 703.987 461 L 704.43 460.1 C 710.06 460.26 715.68 460.64 721.27 461.26 C 726.65 461.86 731.99 462.7 737.29 463.78 C 747.43 465.82 757.34 468.86 766.88 472.85 L 768.04 473.33 L 767.07 475.64 L 765.92 475.15 C 756.53 471.23 746.77 468.24 736.8 466.23 C 731.57 465.17 726.3 464.34 720.99 463.75 C 715.47 463.14 709.92 462.75 704.37 462.6 Z " fill="rgb(255,255,255)"/><path d=" M 705.84 456.45 L 704.67 456.89 L 703.79 454.55 L 704.96 454.11 C 711.45 451.69 718.14 449.84 724.96 448.57 C 731.61 447.35 738.37 446.73 745.14 446.73 C 752.34 446.74 759.52 447.42 766.58 448.77 L 767.81 449.01 L 767.34 451.46 L 766.12 451.23 C 759.2 449.91 752.18 449.24 745.14 449.23 C 738.52 449.23 731.92 449.84 725.41 451.03 C 718.74 452.27 712.19 454.08 705.84 456.45 Z " fill="rgb(255,255,255)"/><path d=" M 692.94 453.4 L 691.67 453.9 L 690.05 454.81 L 690.51 453.65 C 691.43 451.31 692.59 449.07 693.95 446.95 C 695.56 444.45 697.33 442.07 699.26 439.81 L 700.07 438.86 L 701.97 440.48 L 701.16 441.43 C 699.31 443.61 697.6 445.9 696.05 448.31 C 694.78 450.28 693.81 451.21 692.94 453.4 Z " fill="rgb(255,255,255)"/><path d=" M 656.38 467.03 L 655.18 467.41 L 654.43 465.02 L 655.62 464.65 C 659.02 463.57 662.51 462.8 666.04 462.35 C 669.26 461.92 672.5 461.71 675.75 461.71 C 676.53 461.71 677.31 461.73 678.09 461.75 L 679.34 461.79 L 678.55 463 L 678.01 464.25 C 677.26 464.23 676.5 464.21 675.75 464.21 C 672.61 464.21 669.48 464.41 666.37 464.83 C 662.98 465.26 659.63 466 656.38 467.03 Z " fill="rgb(255,255,255)"/><path d=" M 643.55 481.12 L 642.42 481.67 L 641.33 479.42 L 642.45 478.88 C 648.47 475.96 654.57 473.24 660.75 470.71 C 666.25 468.46 671.83 466.44 677.49 464.65 L 678.68 464.27 L 678.25 465.84 L 678.25 467.03 C 672.65 468.8 667.13 470.8 661.7 473.03 C 655.56 475.53 649.51 478.23 643.55 481.12 Z " fill="rgb(255,255,255)"/><path d=" M 753.831 435.885 C 754.054 436.266 754.277 436.648 754.48 437.04 C 755.42 438.94 755.9 441.04 755.88 443.16 C 755.86 445.09 755.55 447 754.97 448.84 C 754.31 450.91 753.44 452.92 752.37 454.82 C 751.16 456.99 749.79 459.06 748.26 461.02 C 746.55 463.23 744.72 465.33 742.76 467.33 C 740.61 469.54 738.35 471.64 735.99 473.63 C 733.44 475.79 730.8 477.85 728.07 479.79 C 722.09 484.05 715.79 487.85 709.23 491.16 C 704.91 493.36 700.49 495.35 695.98 497.12 C 691.79 498.77 687.52 500.2 683.18 501.41 C 679.24 502.52 675.25 503.39 671.21 504.02 C 667.65 504.58 664.05 504.88 660.45 504.9 C 658.02 504.91 655.59 504.73 653.19 504.36 C 651.08 504.04 649.02 503.49 647.03 502.71 C 645.27 502.03 643.62 501.07 642.15 499.87 C 640.78 498.73 639.65 497.33 638.83 495.74 C 637.89 493.84 637.41 491.75 637.43 489.63 C 637.45 488.37 637.584 487.119 637.855 485.892 L 642.861 479.667 C 641.988 481.274 641.276 482.963 640.73 484.71 C 640.22 486.31 639.95 487.97 639.93 489.65 C 639.91 491.37 640.3 493.07 641.07 494.62 C 641.72 495.89 642.63 497.02 643.74 497.94 C 645 498.97 646.42 499.8 647.94 500.38 C 649.75 501.09 651.64 501.6 653.57 501.89 C 655.84 502.24 658.14 502.41 660.43 502.4 C 663.91 502.38 667.39 502.09 670.82 501.55 C 674.76 500.93 678.66 500.08 682.5 499 C 686.76 497.82 690.95 496.41 695.07 494.79 C 699.5 493.05 703.85 491.09 708.1 488.93 C 714.55 485.68 720.74 481.94 726.62 477.76 C 729.29 475.85 731.88 473.84 734.38 471.72 C 736.67 469.78 738.88 467.73 740.98 465.58 C 742.86 463.65 744.64 461.62 746.29 459.49 C 747.73 457.62 749.04 455.65 750.19 453.59 C 751.18 451.85 751.98 450 752.58 448.08 C 753.09 446.48 753.36 444.81 753.38 443.13 C 753.4 441.41 753.01 439.71 752.25 438.17 C 751.591 436.892 750.683 435.763 749.575 434.854 L 753.831 435.885 L 753.831 435.885 Z " fill="rgb(255,255,255)"/><path d=" M 766.02 519.21 L 766.93 518.35 L 768.65 520.17 L 767.74 521.03 C 766.13 522.55 764.45 524 762.71 525.37 C 760.85 526.83 758.94 528.23 756.98 529.56 C 752.72 532.44 748.3 535.08 743.75 537.46 C 738.83 540.05 733.8 542.43 728.67 544.59 C 723.31 546.85 717.87 548.92 712.37 550.79 C 701.34 554.56 690.06 557.56 678.62 559.77 C 673.26 560.81 667.86 561.62 662.43 562.21 C 657.48 562.76 652.51 563.05 647.53 563.07 C 644.5 563.08 641.46 562.94 638.44 562.65 C 635.75 562.4 633.07 561.96 630.43 561.35 C 628.1 560.81 625.83 560.05 623.66 559.08 C 621.73 558.22 619.93 557.1 618.32 555.73 L 617.37 554.92 L 618.99 553.02 L 619.94 553.83 C 621.37 555.04 622.96 556.04 624.67 556.8 C 626.7 557.7 628.82 558.41 630.99 558.91 C 633.52 559.5 636.09 559.92 638.68 560.16 C 641.62 560.44 644.57 560.58 647.52 560.57 C 652.41 560.55 657.3 560.27 662.15 559.73 C 667.51 559.14 672.85 558.34 678.14 557.31 C 689.47 555.13 700.64 552.16 711.56 548.43 C 717.01 546.58 722.39 544.53 727.7 542.29 C 732.76 540.16 737.73 537.81 742.59 535.25 C 747.06 532.91 751.4 530.32 755.58 527.49 C 757.49 526.2 759.35 524.83 761.16 523.4 C 762.84 522.08 764.46 520.68 766.02 519.21 Z " fill="rgb(255,255,255)"/><path d=" M 766.75 578.9 L 767.85 578.31 L 769.03 580.51 L 767.93 581.1 C 759.73 585.52 751.27 589.47 742.62 592.93 C 734.48 596.19 726.16 598.98 717.7 601.29 C 709.89 603.43 701.97 605.08 693.96 606.25 C 686.75 607.32 679.47 607.87 672.18 607.9 C 667.41 607.91 662.63 607.62 657.9 607.02 C 653.66 606.49 649.48 605.61 645.39 604.4 C 641.76 603.33 638.26 601.86 634.96 600.02 C 631.99 598.38 629.29 596.3 626.93 593.87 L 626.06 592.97 L 627.86 591.23 L 628.73 592.13 C 630.91 594.39 633.42 596.31 636.17 597.83 C 639.31 599.58 642.64 600.98 646.1 602 C 650.06 603.18 654.11 604.03 658.21 604.54 C 662.84 605.13 667.51 605.41 672.18 605.4 C 679.34 605.37 686.5 604.83 693.6 603.78 C 701.5 602.63 709.33 600.99 717.04 598.87 C 725.41 596.59 733.64 593.83 741.69 590.61 C 750.26 587.18 758.62 583.27 766.75 578.9 Z " fill="rgb(255,255,255)"/></g><path d=" M 1059.222 466.364 L 1059.222 466.364 L 1057.162 466.364 L 1057.162 466.364 Q 1057.071 468.309 1057.692 469.693 L 1057.692 469.693 L 1057.692 469.693 Q 1058.313 471.078 1059.464 471.962 L 1059.464 471.962 L 1059.464 471.962 Q 1060.616 472.846 1062.252 473.273 L 1062.252 473.273 L 1062.252 473.273 Q 1063.888 473.7 1065.797 473.7 L 1065.797 473.7 L 1065.797 473.7 Q 1067.706 473.7 1069.07 473.361 L 1069.07 473.361 L 1069.07 473.361 Q 1070.433 473.022 1071.358 472.477 L 1071.358 472.477 L 1071.358 472.477 Q 1072.282 471.932 1072.812 471.255 L 1072.812 471.255 L 1072.812 471.255 Q 1073.342 470.577 1073.63 469.914 L 1073.63 469.914 L 1073.63 469.914 Q 1073.918 469.251 1073.994 468.662 L 1073.994 468.662 L 1073.994 468.662 Q 1074.069 468.073 1074.069 467.719 L 1074.069 467.719 L 1074.069 467.719 Q 1074.069 466.423 1073.63 465.51 L 1073.63 465.51 L 1073.63 465.51 Q 1073.191 464.596 1072.418 463.963 L 1072.418 463.963 L 1072.418 463.963 Q 1071.645 463.33 1070.63 462.902 L 1070.63 462.902 L 1070.63 462.902 Q 1069.615 462.475 1068.464 462.18 L 1068.464 462.18 L 1063.191 460.914 L 1063.191 460.914 Q 1062.525 460.766 1061.934 460.531 L 1061.934 460.531 L 1061.934 460.531 Q 1061.343 460.295 1060.889 459.912 L 1060.889 459.912 L 1060.889 459.912 Q 1060.434 459.529 1060.177 458.984 L 1060.177 458.984 L 1060.177 458.984 Q 1059.919 458.439 1059.919 457.702 L 1059.919 457.702 L 1059.919 457.702 Q 1059.919 456.524 1060.374 455.728 L 1060.374 455.728 L 1060.374 455.728 Q 1060.828 454.933 1061.57 454.447 L 1061.57 454.447 L 1061.57 454.447 Q 1062.313 453.961 1063.298 453.74 L 1063.298 453.74 L 1063.298 453.74 Q 1064.282 453.519 1065.343 453.519 L 1065.343 453.519 L 1065.343 453.519 Q 1066.494 453.519 1067.54 453.828 L 1067.54 453.828 L 1067.54 453.828 Q 1068.585 454.137 1069.388 454.741 L 1069.388 454.741 L 1069.388 454.741 Q 1070.191 455.345 1070.691 456.244 L 1070.691 456.244 L 1070.691 456.244 Q 1071.191 457.143 1071.252 458.35 L 1071.252 458.35 L 1073.312 458.35 L 1073.312 458.35 Q 1073.312 456.73 1072.661 455.507 L 1072.661 455.507 L 1072.661 455.507 Q 1072.009 454.285 1070.918 453.46 L 1070.918 453.46 L 1070.918 453.46 Q 1069.827 452.635 1068.373 452.222 L 1068.373 452.222 L 1068.373 452.222 Q 1066.918 451.81 1065.313 451.81 L 1065.313 451.81 L 1065.313 451.81 Q 1063.04 451.81 1061.586 452.443 L 1061.586 452.443 L 1061.586 452.443 Q 1060.131 453.077 1059.298 453.99 L 1059.298 453.99 L 1059.298 453.99 Q 1058.465 454.903 1058.162 455.935 L 1058.162 455.935 L 1058.162 455.935 Q 1057.859 456.966 1057.859 457.732 L 1057.859 457.732 L 1057.859 457.732 Q 1057.859 458.969 1058.268 459.824 L 1058.268 459.824 L 1058.268 459.824 Q 1058.677 460.678 1059.343 461.267 L 1059.343 461.267 L 1059.343 461.267 Q 1060.01 461.856 1060.904 462.21 L 1060.904 462.21 L 1060.904 462.21 Q 1061.798 462.563 1062.737 462.799 L 1062.737 462.799 L 1067.555 463.948 L 1067.555 463.948 Q 1068.312 464.125 1069.1 464.405 L 1069.1 464.405 L 1069.1 464.405 Q 1069.888 464.685 1070.539 465.127 L 1070.539 465.127 L 1070.539 465.127 Q 1071.191 465.569 1071.6 466.217 L 1071.6 466.217 L 1071.6 466.217 Q 1072.009 466.865 1072.009 467.749 L 1072.009 467.749 L 1072.009 467.749 Q 1072.009 468.898 1071.433 469.708 L 1071.433 469.708 L 1071.433 469.708 Q 1070.858 470.518 1069.994 471.034 L 1069.994 471.034 L 1069.994 471.034 Q 1069.13 471.549 1068.131 471.785 L 1068.131 471.785 L 1068.131 471.785 Q 1067.131 472.021 1066.282 472.021 L 1066.282 472.021 L 1066.282 472.021 Q 1064.797 472.021 1063.495 471.741 L 1063.495 471.741 L 1063.495 471.741 Q 1062.192 471.461 1061.237 470.813 L 1061.237 470.813 L 1061.237 470.813 Q 1060.283 470.165 1059.737 469.075 L 1059.737 469.075 L 1059.737 469.075 Q 1059.192 467.984 1059.222 466.364 Z  M 1093.159 458.616 L 1093.159 458.616 L 1095.219 458.616 L 1095.219 458.616 Q 1095.007 456.966 1094.204 455.699 L 1094.204 455.699 L 1094.204 455.699 Q 1093.401 454.432 1092.205 453.563 L 1092.205 453.563 L 1092.205 453.563 Q 1091.008 452.694 1089.538 452.252 L 1089.538 452.252 L 1089.538 452.252 Q 1088.068 451.81 1086.523 451.81 L 1086.523 451.81 L 1086.523 451.81 Q 1083.978 451.81 1082.054 452.709 L 1082.054 452.709 L 1082.054 452.709 Q 1080.13 453.607 1078.857 455.124 L 1078.857 455.124 L 1078.857 455.124 Q 1077.584 456.642 1076.948 458.616 L 1076.948 458.616 L 1076.948 458.616 Q 1076.312 460.59 1076.312 462.77 L 1076.312 462.77 L 1076.312 462.77 Q 1076.312 464.95 1076.948 466.924 L 1076.948 466.924 L 1076.948 466.924 Q 1077.584 468.898 1078.857 470.4 L 1078.857 470.4 L 1078.857 470.4 Q 1080.13 471.903 1082.054 472.801 L 1082.054 472.801 L 1082.054 472.801 Q 1083.978 473.7 1086.523 473.7 L 1086.523 473.7 L 1086.523 473.7 Q 1088.432 473.7 1089.993 473.111 L 1089.993 473.111 L 1089.993 473.111 Q 1091.553 472.522 1092.705 471.431 L 1092.705 471.431 L 1092.705 471.431 Q 1093.856 470.341 1094.583 468.78 L 1094.583 468.78 L 1094.583 468.78 Q 1095.31 467.218 1095.522 465.274 L 1095.522 465.274 L 1093.462 465.274 L 1093.462 465.274 Q 1093.311 466.688 1092.765 467.911 L 1092.765 467.911 L 1092.765 467.911 Q 1092.22 469.133 1091.341 470.047 L 1091.341 470.047 L 1091.341 470.047 Q 1090.462 470.96 1089.25 471.49 L 1089.25 471.49 L 1089.25 471.49 Q 1088.038 472.021 1086.523 472.021 L 1086.523 472.021 L 1086.523 472.021 Q 1084.372 472.021 1082.826 471.225 L 1082.826 471.225 L 1082.826 471.225 Q 1081.281 470.43 1080.296 469.119 L 1080.296 469.119 L 1080.296 469.119 Q 1079.312 467.808 1078.842 466.143 L 1078.842 466.143 L 1078.842 466.143 Q 1078.372 464.479 1078.372 462.77 L 1078.372 462.77 L 1078.372 462.77 Q 1078.372 461.031 1078.842 459.382 L 1078.842 459.382 L 1078.842 459.382 Q 1079.312 457.732 1080.296 456.421 L 1080.296 456.421 L 1080.296 456.421 Q 1081.281 455.11 1082.826 454.314 L 1082.826 454.314 L 1082.826 454.314 Q 1084.372 453.519 1086.523 453.519 L 1086.523 453.519 L 1086.523 453.519 Q 1087.705 453.519 1088.781 453.858 L 1088.781 453.858 L 1088.781 453.858 Q 1089.856 454.196 1090.75 454.845 L 1090.75 454.845 L 1090.75 454.845 Q 1091.644 455.493 1092.265 456.45 L 1092.265 456.45 L 1092.265 456.45 Q 1092.886 457.408 1093.159 458.616 Z  M 1100.734 452.252 L 1098.674 452.252 L 1098.674 473.288 L 1100.734 473.288 L 1100.734 463.094 L 1113.582 463.094 L 1113.582 473.288 L 1115.642 473.288 L 1115.642 452.252 L 1113.582 452.252 L 1113.582 461.385 L 1100.734 461.385 L 1100.734 452.252 Z  M 1120.915 462.77 L 1120.915 462.77 L 1120.915 462.77 Q 1120.915 461.031 1121.384 459.382 L 1121.384 459.382 L 1121.384 459.382 Q 1121.854 457.732 1122.839 456.421 L 1122.839 456.421 L 1122.839 456.421 Q 1123.823 455.11 1125.369 454.314 L 1125.369 454.314 L 1125.369 454.314 Q 1126.914 453.519 1129.066 453.519 L 1129.066 453.519 L 1129.066 453.519 Q 1131.217 453.519 1132.747 454.314 L 1132.747 454.314 L 1132.747 454.314 Q 1134.277 455.11 1135.262 456.421 L 1135.262 456.421 L 1135.262 456.421 Q 1136.247 457.732 1136.716 459.382 L 1136.716 459.382 L 1136.716 459.382 Q 1137.186 461.031 1137.186 462.77 L 1137.186 462.77 L 1137.186 462.77 Q 1137.186 464.479 1136.716 466.143 L 1136.716 466.143 L 1136.716 466.143 Q 1136.247 467.808 1135.262 469.119 L 1135.262 469.119 L 1135.262 469.119 Q 1134.277 470.43 1132.747 471.225 L 1132.747 471.225 L 1132.747 471.225 Q 1131.217 472.021 1129.066 472.021 L 1129.066 472.021 L 1129.066 472.021 Q 1126.914 472.021 1125.369 471.225 L 1125.369 471.225 L 1125.369 471.225 Q 1123.823 470.43 1122.839 469.119 L 1122.839 469.119 L 1122.839 469.119 Q 1121.854 467.808 1121.384 466.143 L 1121.384 466.143 L 1121.384 466.143 Q 1120.915 464.479 1120.915 462.77 Z  M 1118.854 462.77 L 1118.854 462.77 L 1118.854 462.77 Q 1118.854 464.95 1119.49 466.924 L 1119.49 466.924 L 1119.49 466.924 Q 1120.127 468.898 1121.399 470.4 L 1121.399 470.4 L 1121.399 470.4 Q 1122.672 471.903 1124.596 472.801 L 1124.596 472.801 L 1124.596 472.801 Q 1126.52 473.7 1129.066 473.7 L 1129.066 473.7 L 1129.066 473.7 Q 1131.611 473.7 1133.52 472.801 L 1133.52 472.801 L 1133.52 472.801 Q 1135.429 471.903 1136.701 470.4 L 1136.701 470.4 L 1136.701 470.4 Q 1137.974 468.898 1138.61 466.924 L 1138.61 466.924 L 1138.61 466.924 Q 1139.247 464.95 1139.247 462.77 L 1139.247 462.77 L 1139.247 462.77 Q 1139.247 460.59 1138.61 458.616 L 1138.61 458.616 L 1138.61 458.616 Q 1137.974 456.642 1136.701 455.124 L 1136.701 455.124 L 1136.701 455.124 Q 1135.429 453.607 1133.52 452.709 L 1133.52 452.709 L 1133.52 452.709 Q 1131.611 451.81 1129.066 451.81 L 1129.066 451.81 L 1129.066 451.81 Q 1126.52 451.81 1124.596 452.709 L 1124.596 452.709 L 1124.596 452.709 Q 1122.672 453.607 1121.399 455.124 L 1121.399 455.124 L 1121.399 455.124 Q 1120.127 456.642 1119.49 458.616 L 1119.49 458.616 L 1119.49 458.616 Q 1118.854 460.59 1118.854 462.77 Z  M 1143.368 462.77 L 1143.368 462.77 L 1143.368 462.77 Q 1143.368 461.031 1143.837 459.382 L 1143.837 459.382 L 1143.837 459.382 Q 1144.307 457.732 1145.292 456.421 L 1145.292 456.421 L 1145.292 456.421 Q 1146.276 455.11 1147.822 454.314 L 1147.822 454.314 L 1147.822 454.314 Q 1149.367 453.519 1151.518 453.519 L 1151.518 453.519 L 1151.518 453.519 Q 1153.67 453.519 1155.2 454.314 L 1155.2 454.314 L 1155.2 454.314 Q 1156.73 455.11 1157.715 456.421 L 1157.715 456.421 L 1157.715 456.421 Q 1158.7 457.732 1159.169 459.382 L 1159.169 459.382 L 1159.169 459.382 Q 1159.639 461.031 1159.639 462.77 L 1159.639 462.77 L 1159.639 462.77 Q 1159.639 464.479 1159.169 466.143 L 1159.169 466.143 L 1159.169 466.143 Q 1158.7 467.808 1157.715 469.119 L 1157.715 469.119 L 1157.715 469.119 Q 1156.73 470.43 1155.2 471.225 L 1155.2 471.225 L 1155.2 471.225 Q 1153.67 472.021 1151.518 472.021 L 1151.518 472.021 L 1151.518 472.021 Q 1149.367 472.021 1147.822 471.225 L 1147.822 471.225 L 1147.822 471.225 Q 1146.276 470.43 1145.292 469.119 L 1145.292 469.119 L 1145.292 469.119 Q 1144.307 467.808 1143.837 466.143 L 1143.837 466.143 L 1143.837 466.143 Q 1143.368 464.479 1143.368 462.77 Z  M 1141.307 462.77 L 1141.307 462.77 L 1141.307 462.77 Q 1141.307 464.95 1141.943 466.924 L 1141.943 466.924 L 1141.943 466.924 Q 1142.58 468.898 1143.852 470.4 L 1143.852 470.4 L 1143.852 470.4 Q 1145.125 471.903 1147.049 472.801 L 1147.049 472.801 L 1147.049 472.801 Q 1148.973 473.7 1151.518 473.7 L 1151.518 473.7 L 1151.518 473.7 Q 1154.064 473.7 1155.973 472.801 L 1155.973 472.801 L 1155.973 472.801 Q 1157.882 471.903 1159.154 470.4 L 1159.154 470.4 L 1159.154 470.4 Q 1160.427 468.898 1161.063 466.924 L 1161.063 466.924 L 1161.063 466.924 Q 1161.7 464.95 1161.7 462.77 L 1161.7 462.77 L 1161.7 462.77 Q 1161.7 460.59 1161.063 458.616 L 1161.063 458.616 L 1161.063 458.616 Q 1160.427 456.642 1159.154 455.124 L 1159.154 455.124 L 1159.154 455.124 Q 1157.882 453.607 1155.973 452.709 L 1155.973 452.709 L 1155.973 452.709 Q 1154.064 451.81 1151.518 451.81 L 1151.518 451.81 L 1151.518 451.81 Q 1148.973 451.81 1147.049 452.709 L 1147.049 452.709 L 1147.049 452.709 Q 1145.125 453.607 1143.852 455.124 L 1143.852 455.124 L 1143.852 455.124 Q 1142.58 456.642 1141.943 458.616 L 1141.943 458.616 L 1141.943 458.616 Q 1141.307 460.59 1141.307 462.77 Z  M 1166.972 452.252 L 1164.911 452.252 L 1164.911 473.288 L 1179.092 473.288 L 1179.092 471.579 L 1166.972 471.579 L 1166.972 452.252 Z  M 1182.153 466.364 L 1182.153 466.364 L 1180.092 466.364 L 1180.092 466.364 Q 1180.001 468.309 1180.622 469.693 L 1180.622 469.693 L 1180.622 469.693 Q 1181.244 471.078 1182.395 471.962 L 1182.395 471.962 L 1182.395 471.962 Q 1183.546 472.846 1185.183 473.273 L 1185.183 473.273 L 1185.183 473.273 Q 1186.819 473.7 1188.728 473.7 L 1188.728 473.7 L 1188.728 473.7 Q 1190.637 473.7 1192 473.361 L 1192 473.361 L 1192 473.361 Q 1193.364 473.022 1194.288 472.477 L 1194.288 472.477 L 1194.288 472.477 Q 1195.212 471.932 1195.743 471.255 L 1195.743 471.255 L 1195.743 471.255 Q 1196.273 470.577 1196.561 469.914 L 1196.561 469.914 L 1196.561 469.914 Q 1196.848 469.251 1196.924 468.662 L 1196.924 468.662 L 1196.924 468.662 Q 1197 468.073 1197 467.719 L 1197 467.719 L 1197 467.719 Q 1197 466.423 1196.561 465.51 L 1196.561 465.51 L 1196.561 465.51 Q 1196.121 464.596 1195.349 463.963 L 1195.349 463.963 L 1195.349 463.963 Q 1194.576 463.33 1193.561 462.902 L 1193.561 462.902 L 1193.561 462.902 Q 1192.546 462.475 1191.394 462.18 L 1191.394 462.18 L 1186.122 460.914 L 1186.122 460.914 Q 1185.455 460.766 1184.865 460.531 L 1184.865 460.531 L 1184.865 460.531 Q 1184.274 460.295 1183.819 459.912 L 1183.819 459.912 L 1183.819 459.912 Q 1183.365 459.529 1183.107 458.984 L 1183.107 458.984 L 1183.107 458.984 Q 1182.85 458.439 1182.85 457.702 L 1182.85 457.702 L 1182.85 457.702 Q 1182.85 456.524 1183.304 455.728 L 1183.304 455.728 L 1183.304 455.728 Q 1183.759 454.933 1184.501 454.447 L 1184.501 454.447 L 1184.501 454.447 Q 1185.243 453.961 1186.228 453.74 L 1186.228 453.74 L 1186.228 453.74 Q 1187.213 453.519 1188.273 453.519 L 1188.273 453.519 L 1188.273 453.519 Q 1189.425 453.519 1190.47 453.828 L 1190.47 453.828 L 1190.47 453.828 Q 1191.516 454.137 1192.319 454.741 L 1192.319 454.741 L 1192.319 454.741 Q 1193.121 455.345 1193.621 456.244 L 1193.621 456.244 L 1193.621 456.244 Q 1194.121 457.143 1194.182 458.35 L 1194.182 458.35 L 1196.242 458.35 L 1196.242 458.35 Q 1196.242 456.73 1195.591 455.507 L 1195.591 455.507 L 1195.591 455.507 Q 1194.94 454.285 1193.849 453.46 L 1193.849 453.46 L 1193.849 453.46 Q 1192.758 452.635 1191.303 452.222 L 1191.303 452.222 L 1191.303 452.222 Q 1189.849 451.81 1188.243 451.81 L 1188.243 451.81 L 1188.243 451.81 Q 1185.97 451.81 1184.516 452.443 L 1184.516 452.443 L 1184.516 452.443 Q 1183.062 453.077 1182.228 453.99 L 1182.228 453.99 L 1182.228 453.99 Q 1181.395 454.903 1181.092 455.935 L 1181.092 455.935 L 1181.092 455.935 Q 1180.789 456.966 1180.789 457.732 L 1180.789 457.732 L 1180.789 457.732 Q 1180.789 458.969 1181.198 459.824 L 1181.198 459.824 L 1181.198 459.824 Q 1181.607 460.678 1182.274 461.267 L 1182.274 461.267 L 1182.274 461.267 Q 1182.94 461.856 1183.834 462.21 L 1183.834 462.21 L 1183.834 462.21 Q 1184.728 462.563 1185.667 462.799 L 1185.667 462.799 L 1190.485 463.948 L 1190.485 463.948 Q 1191.243 464.125 1192.031 464.405 L 1192.031 464.405 L 1192.031 464.405 Q 1192.818 464.685 1193.47 465.127 L 1193.47 465.127 L 1193.47 465.127 Q 1194.121 465.569 1194.53 466.217 L 1194.53 466.217 L 1194.53 466.217 Q 1194.94 466.865 1194.94 467.749 L 1194.94 467.749 L 1194.94 467.749 Q 1194.94 468.898 1194.364 469.708 L 1194.364 469.708 L 1194.364 469.708 Q 1193.788 470.518 1192.925 471.034 L 1192.925 471.034 L 1192.925 471.034 Q 1192.061 471.549 1191.061 471.785 L 1191.061 471.785 L 1191.061 471.785 Q 1190.061 472.021 1189.213 472.021 L 1189.213 472.021 L 1189.213 472.021 Q 1187.728 472.021 1186.425 471.741 L 1186.425 471.741 L 1186.425 471.741 Q 1185.122 471.461 1184.168 470.813 L 1184.168 470.813 L 1184.168 470.813 Q 1183.213 470.165 1182.668 469.075 L 1182.668 469.075 L 1182.668 469.075 Q 1182.122 467.984 1182.153 466.364 Z  M 887.204 458.616 L 887.204 458.616 L 889.265 458.616 L 889.265 458.616 Q 889.053 456.966 888.25 455.699 L 888.25 455.699 L 888.25 455.699 Q 887.447 454.432 886.25 453.563 L 886.25 453.563 L 886.25 453.563 Q 885.053 452.694 883.583 452.252 L 883.583 452.252 L 883.583 452.252 Q 882.114 451.81 880.568 451.81 L 880.568 451.81 L 880.568 451.81 Q 878.023 451.81 876.099 452.709 L 876.099 452.709 L 876.099 452.709 Q 874.175 453.607 872.902 455.124 L 872.902 455.124 L 872.902 455.124 Q 871.63 456.642 870.993 458.616 L 870.993 458.616 L 870.993 458.616 Q 870.357 460.59 870.357 462.77 L 870.357 462.77 L 870.357 462.77 Q 870.357 464.95 870.993 466.924 L 870.993 466.924 L 870.993 466.924 Q 871.63 468.898 872.902 470.4 L 872.902 470.4 L 872.902 470.4 Q 874.175 471.903 876.099 472.801 L 876.099 472.801 L 876.099 472.801 Q 878.023 473.7 880.568 473.7 L 880.568 473.7 L 880.568 473.7 Q 882.477 473.7 884.038 473.111 L 884.038 473.111 L 884.038 473.111 Q 885.598 472.522 886.75 471.431 L 886.75 471.431 L 886.75 471.431 Q 887.901 470.341 888.628 468.78 L 888.628 468.78 L 888.628 468.78 Q 889.356 467.218 889.568 465.274 L 889.568 465.274 L 887.507 465.274 L 887.507 465.274 Q 887.356 466.688 886.81 467.911 L 886.81 467.911 L 886.81 467.911 Q 886.265 469.133 885.386 470.047 L 885.386 470.047 L 885.386 470.047 Q 884.507 470.96 883.295 471.49 L 883.295 471.49 L 883.295 471.49 Q 882.083 472.021 880.568 472.021 L 880.568 472.021 L 880.568 472.021 Q 878.417 472.021 876.872 471.225 L 876.872 471.225 L 876.872 471.225 Q 875.326 470.43 874.342 469.119 L 874.342 469.119 L 874.342 469.119 Q 873.357 467.808 872.887 466.143 L 872.887 466.143 L 872.887 466.143 Q 872.417 464.479 872.417 462.77 L 872.417 462.77 L 872.417 462.77 Q 872.417 461.031 872.887 459.382 L 872.887 459.382 L 872.887 459.382 Q 873.357 457.732 874.342 456.421 L 874.342 456.421 L 874.342 456.421 Q 875.326 455.11 876.872 454.314 L 876.872 454.314 L 876.872 454.314 Q 878.417 453.519 880.568 453.519 L 880.568 453.519 L 880.568 453.519 Q 881.75 453.519 882.826 453.858 L 882.826 453.858 L 882.826 453.858 Q 883.901 454.196 884.795 454.845 L 884.795 454.845 L 884.795 454.845 Q 885.689 455.493 886.31 456.45 L 886.31 456.45 L 886.31 456.45 Q 886.932 457.408 887.204 458.616 Z  M 893.628 462.77 L 893.628 462.77 L 893.628 462.77 Q 893.628 461.031 894.098 459.382 L 894.098 459.382 L 894.098 459.382 Q 894.567 457.732 895.552 456.421 L 895.552 456.421 L 895.552 456.421 Q 896.537 455.11 898.082 454.314 L 898.082 454.314 L 898.082 454.314 Q 899.628 453.519 901.779 453.519 L 901.779 453.519 L 901.779 453.519 Q 903.93 453.519 905.46 454.314 L 905.46 454.314 L 905.46 454.314 Q 906.991 455.11 907.975 456.421 L 907.975 456.421 L 907.975 456.421 Q 908.96 457.732 909.43 459.382 L 909.43 459.382 L 909.43 459.382 Q 909.9 461.031 909.9 462.77 L 909.9 462.77 L 909.9 462.77 Q 909.9 464.479 909.43 466.143 L 909.43 466.143 L 909.43 466.143 Q 908.96 467.808 907.975 469.119 L 907.975 469.119 L 907.975 469.119 Q 906.991 470.43 905.46 471.225 L 905.46 471.225 L 905.46 471.225 Q 903.93 472.021 901.779 472.021 L 901.779 472.021 L 901.779 472.021 Q 899.628 472.021 898.082 471.225 L 898.082 471.225 L 898.082 471.225 Q 896.537 470.43 895.552 469.119 L 895.552 469.119 L 895.552 469.119 Q 894.567 467.808 894.098 466.143 L 894.098 466.143 L 894.098 466.143 Q 893.628 464.479 893.628 462.77 Z  M 891.568 462.77 L 891.568 462.77 L 891.568 462.77 Q 891.568 464.95 892.204 466.924 L 892.204 466.924 L 892.204 466.924 Q 892.84 468.898 894.113 470.4 L 894.113 470.4 L 894.113 470.4 Q 895.385 471.903 897.31 472.801 L 897.31 472.801 L 897.31 472.801 Q 899.234 473.7 901.779 473.7 L 901.779 473.7 L 901.779 473.7 Q 904.324 473.7 906.233 472.801 L 906.233 472.801 L 906.233 472.801 Q 908.142 471.903 909.415 470.4 L 909.415 470.4 L 909.415 470.4 Q 910.687 468.898 911.324 466.924 L 911.324 466.924 L 911.324 466.924 Q 911.96 464.95 911.96 462.77 L 911.96 462.77 L 911.96 462.77 Q 911.96 460.59 911.324 458.616 L 911.324 458.616 L 911.324 458.616 Q 910.687 456.642 909.415 455.124 L 909.415 455.124 L 909.415 455.124 Q 908.142 453.607 906.233 452.709 L 906.233 452.709 L 906.233 452.709 Q 904.324 451.81 901.779 451.81 L 901.779 451.81 L 901.779 451.81 Q 899.234 451.81 897.31 452.709 L 897.31 452.709 L 897.31 452.709 Q 895.385 453.607 894.113 455.124 L 894.113 455.124 L 894.113 455.124 Q 892.84 456.642 892.204 458.616 L 892.204 458.616 L 892.204 458.616 Q 891.568 460.59 891.568 462.77 Z  M 918.141 452.252 L 915.111 452.252 L 915.111 473.288 L 917.172 473.288 L 917.172 455.11 L 917.232 455.11 L 924.656 473.288 L 926.595 473.288 L 933.989 455.11 L 934.049 455.11 L 934.049 473.288 L 936.11 473.288 L 936.11 452.252 L 933.08 452.252 L 925.626 470.695 L 918.141 452.252 Z  M 943.382 452.252 L 940.352 452.252 L 940.352 473.288 L 942.412 473.288 L 942.412 455.11 L 942.473 455.11 L 949.897 473.288 L 951.836 473.288 L 959.229 455.11 L 959.29 455.11 L 959.29 473.288 L 961.35 473.288 L 961.35 452.252 L 958.32 452.252 L 950.866 470.695 L 943.382 452.252 Z  M 967.501 452.252 L 965.441 452.252 L 965.441 465.716 L 965.441 465.716 Q 965.441 467.336 965.911 468.795 L 965.911 468.795 L 965.911 468.795 Q 966.38 470.253 967.395 471.343 L 967.395 471.343 L 967.395 471.343 Q 968.41 472.433 970.001 473.067 L 970.001 473.067 L 970.001 473.067 Q 971.592 473.7 973.834 473.7 L 973.834 473.7 L 973.834 473.7 Q 976.107 473.7 977.698 473.067 L 977.698 473.067 L 977.698 473.067 Q 979.288 472.433 980.304 471.343 L 980.304 471.343 L 980.304 471.343 Q 981.319 470.253 981.788 468.795 L 981.788 468.795 L 981.788 468.795 Q 982.258 467.336 982.258 465.716 L 982.258 465.716 L 982.258 452.252 L 980.197 452.252 L 980.197 465.274 L 980.197 465.274 Q 980.197 467.101 979.773 468.382 L 979.773 468.382 L 979.773 468.382 Q 979.349 469.664 978.531 470.474 L 978.531 470.474 L 978.531 470.474 Q 977.713 471.284 976.531 471.652 L 976.531 471.652 L 976.531 471.652 Q 975.349 472.021 973.834 472.021 L 973.834 472.021 L 973.834 472.021 Q 972.35 472.021 971.168 471.652 L 971.168 471.652 L 971.168 471.652 Q 969.986 471.284 969.168 470.474 L 969.168 470.474 L 969.168 470.474 Q 968.35 469.664 967.926 468.382 L 967.926 468.382 L 967.926 468.382 Q 967.501 467.101 967.501 465.274 L 967.501 465.274 L 967.501 452.252 Z  M 988.682 452.252 L 986.379 452.252 L 986.379 473.288 L 988.439 473.288 L 988.439 455.493 L 988.5 455.493 L 1001.105 473.288 L 1003.408 473.288 L 1003.408 452.252 L 1001.347 452.252 L 1001.347 470.047 L 1001.287 470.047 L 988.682 452.252 Z  M 1009.953 452.252 L 1007.892 452.252 L 1007.892 473.288 L 1009.953 473.288 L 1009.953 452.252 Z  M 1029.285 452.252 L 1012.165 452.252 L 1012.165 453.961 L 1019.679 453.961 L 1019.679 473.288 L 1021.74 473.288 L 1021.74 453.961 L 1029.285 453.961 L 1029.285 452.252 Z  M 1028.861 452.252 L 1037.345 464.626 L 1037.345 473.288 L 1039.405 473.288 L 1039.405 464.626 L 1047.95 452.252 L 1045.496 452.252 L 1038.405 462.917 L 1031.285 452.252 L 1028.861 452.252 Z  M 780.06 452.252 L 778 452.252 L 778 465.716 L 778 465.716 Q 778 467.336 778.47 468.795 L 778.47 468.795 L 778.47 468.795 Q 778.939 470.253 779.954 471.343 L 779.954 471.343 L 779.954 471.343 Q 780.969 472.433 782.56 473.067 L 782.56 473.067 L 782.56 473.067 Q 784.151 473.7 786.393 473.7 L 786.393 473.7 L 786.393 473.7 Q 788.666 473.7 790.257 473.067 L 790.257 473.067 L 790.257 473.067 Q 791.847 472.433 792.863 471.343 L 792.863 471.343 L 792.863 471.343 Q 793.878 470.253 794.347 468.795 L 794.347 468.795 L 794.347 468.795 Q 794.817 467.336 794.817 465.716 L 794.817 465.716 L 794.817 452.252 L 792.757 452.252 L 792.757 465.274 L 792.757 465.274 Q 792.757 467.101 792.332 468.382 L 792.332 468.382 L 792.332 468.382 Q 791.908 469.664 791.09 470.474 L 791.09 470.474 L 791.09 470.474 Q 790.272 471.284 789.09 471.652 L 789.09 471.652 L 789.09 471.652 Q 787.908 472.021 786.393 472.021 L 786.393 472.021 L 786.393 472.021 Q 784.909 472.021 783.727 471.652 L 783.727 471.652 L 783.727 471.652 Q 782.545 471.284 781.727 470.474 L 781.727 470.474 L 781.727 470.474 Q 780.909 469.664 780.485 468.382 L 780.485 468.382 L 780.485 468.382 Q 780.06 467.101 780.06 465.274 L 780.06 465.274 L 780.06 452.252 Z  M 813.785 452.252 L 796.665 452.252 L 796.665 453.961 L 804.18 453.961 L 804.18 473.288 L 806.24 473.288 L 806.24 453.961 L 813.785 453.961 L 813.785 452.252 Z  M 818.027 452.252 L 815.967 452.252 L 815.967 473.288 L 818.027 473.288 L 818.027 452.252 Z  M 838.359 458.616 L 838.359 458.616 L 840.42 458.616 L 840.42 458.616 Q 840.208 456.966 839.405 455.699 L 839.405 455.699 L 839.405 455.699 Q 838.602 454.432 837.405 453.563 L 837.405 453.563 L 837.405 453.563 Q 836.208 452.694 834.738 452.252 L 834.738 452.252 L 834.738 452.252 Q 833.269 451.81 831.723 451.81 L 831.723 451.81 L 831.723 451.81 Q 829.178 451.81 827.254 452.709 L 827.254 452.709 L 827.254 452.709 Q 825.33 453.607 824.057 455.124 L 824.057 455.124 L 824.057 455.124 Q 822.785 456.642 822.148 458.616 L 822.148 458.616 L 822.148 458.616 Q 821.512 460.59 821.512 462.77 L 821.512 462.77 L 821.512 462.77 Q 821.512 464.95 822.148 466.924 L 822.148 466.924 L 822.148 466.924 Q 822.785 468.898 824.057 470.4 L 824.057 470.4 L 824.057 470.4 Q 825.33 471.903 827.254 472.801 L 827.254 472.801 L 827.254 472.801 Q 829.178 473.7 831.723 473.7 L 831.723 473.7 L 831.723 473.7 Q 833.632 473.7 835.193 473.111 L 835.193 473.111 L 835.193 473.111 Q 836.753 472.522 837.905 471.431 L 837.905 471.431 L 837.905 471.431 Q 839.056 470.341 839.783 468.78 L 839.783 468.78 L 839.783 468.78 Q 840.511 467.218 840.723 465.274 L 840.723 465.274 L 838.662 465.274 L 838.662 465.274 Q 838.511 466.688 837.965 467.911 L 837.965 467.911 L 837.965 467.911 Q 837.42 469.133 836.541 470.047 L 836.541 470.047 L 836.541 470.047 Q 835.662 470.96 834.45 471.49 L 834.45 471.49 L 834.45 471.49 Q 833.238 472.021 831.723 472.021 L 831.723 472.021 L 831.723 472.021 Q 829.572 472.021 828.027 471.225 L 828.027 471.225 L 828.027 471.225 Q 826.481 470.43 825.497 469.119 L 825.497 469.119 L 825.497 469.119 Q 824.512 467.808 824.042 466.143 L 824.042 466.143 L 824.042 466.143 Q 823.572 464.479 823.572 462.77 L 823.572 462.77 L 823.572 462.77 Q 823.572 461.031 824.042 459.382 L 824.042 459.382 L 824.042 459.382 Q 824.512 457.732 825.497 456.421 L 825.497 456.421 L 825.497 456.421 Q 826.481 455.11 828.027 454.314 L 828.027 454.314 L 828.027 454.314 Q 829.572 453.519 831.723 453.519 L 831.723 453.519 L 831.723 453.519 Q 832.905 453.519 833.981 453.858 L 833.981 453.858 L 833.981 453.858 Q 835.056 454.196 835.95 454.845 L 835.95 454.845 L 835.95 454.845 Q 836.844 455.493 837.465 456.45 L 837.465 456.45 L 837.465 456.45 Q 838.087 457.408 838.359 458.616 Z  M 855.449 465.038 L 846.934 465.038 L 851.267 454.255 L 855.449 465.038 Z  M 852.51 452.252 L 850.207 452.252 L 841.511 473.288 L 843.692 473.288 L 846.298 466.747 L 856.146 466.747 L 858.782 473.288 L 860.994 473.288 L 852.51 452.252 Z " fill-rule="evenodd" fill="rgb(255,255,255)"/><g><path d=" M 813.704 533.776 L 811.016 527.385 L 793.809 527.385 L 790.794 534.399 L 790.794 534.399 Q 789.68 536.988 789.68 538.266 L 789.68 538.266 L 789.68 538.266 Q 789.68 539.282 790.647 540.052 L 790.647 540.052 L 790.647 540.052 Q 791.613 540.822 794.825 541.052 L 794.825 541.052 L 794.825 542.265 L 780.83 542.265 L 780.83 541.052 L 780.83 541.052 Q 783.616 540.56 784.436 539.774 L 784.436 539.774 L 784.436 539.774 Q 786.107 538.2 788.139 533.383 L 788.139 533.383 L 803.773 496.805 L 804.92 496.805 L 820.39 533.776 L 820.39 533.776 Q 822.258 538.233 823.782 539.561 L 823.782 539.561 L 823.782 539.561 Q 825.306 540.888 828.027 541.052 L 828.027 541.052 L 828.027 542.265 L 810.492 542.265 L 810.492 541.052 L 810.492 541.052 Q 813.147 540.921 814.081 540.167 L 814.081 540.167 L 814.081 540.167 Q 815.015 539.413 815.015 538.332 L 815.015 538.332 L 815.015 538.332 Q 815.015 536.889 813.704 533.776 L 813.704 533.776 Z  M 794.825 524.959 L 810.099 524.959 L 802.56 506.998 L 794.825 524.959 Z " fill-rule="evenodd" fill="rgb(255,255,255)"/><path d=" M 931.775 534.426 L 929.088 528.035 L 911.881 528.035 L 908.866 535.049 L 908.866 535.049 Q 907.751 537.638 907.751 538.916 L 907.751 538.916 L 907.751 538.916 Q 907.751 539.932 908.718 540.702 L 908.718 540.702 L 908.718 540.702 Q 909.685 541.473 912.897 541.702 L 912.897 541.702 L 912.897 542.915 L 898.902 542.915 L 898.902 541.702 L 898.902 541.702 Q 901.688 541.21 902.507 540.424 L 902.507 540.424 L 902.507 540.424 Q 904.179 538.851 906.211 534.033 L 906.211 534.033 L 921.844 497.456 L 922.992 497.456 L 938.462 534.426 L 938.462 534.426 Q 940.33 538.883 941.854 540.211 L 941.854 540.211 L 941.854 540.211 Q 943.378 541.538 946.098 541.702 L 946.098 541.702 L 946.098 542.915 L 928.563 542.915 L 928.563 541.702 L 928.563 541.702 Q 931.218 541.571 932.152 540.817 L 932.152 540.817 L 932.152 540.817 Q 933.086 540.063 933.086 538.982 L 933.086 538.982 L 933.086 538.982 Q 933.086 537.54 931.775 534.426 L 931.775 534.426 Z  M 912.897 525.609 L 928.17 525.609 L 920.632 507.649 L 912.897 525.609 Z " fill-rule="evenodd" fill="rgb(255,255,255)"/><path d=" M 879.726 497.456 L 880.848 497.456 L 881.842 512.235 L 880.848 512.235 L 880.848 512.235 Q 878.861 505.598 875.174 502.681 L 875.174 502.681 L 875.174 502.681 Q 871.487 499.764 866.326 499.764 L 866.326 499.764 L 866.326 499.764 Q 861.998 499.764 858.503 501.96 L 858.503 501.96 L 858.503 501.96 Q 855.009 504.156 853.005 508.965 L 853.005 508.965 L 853.005 508.965 Q 851.002 513.773 851.002 520.923 L 851.002 520.923 L 851.002 520.923 Q 851.002 526.821 852.893 531.149 L 852.893 531.149 L 852.893 531.149 Q 854.785 535.477 858.583 537.785 L 858.583 537.785 L 858.583 537.785 Q 862.382 540.094 867.255 540.094 L 867.255 540.094 L 867.255 540.094 Q 871.487 540.094 874.725 538.282 L 874.725 538.282 L 874.725 538.282 Q 877.963 536.471 881.842 531.085 L 881.842 531.085 L 882.836 531.726 L 882.836 531.726 Q 879.566 537.529 875.206 540.222 L 875.206 540.222 L 875.206 540.222 Q 870.846 542.915 864.851 542.915 L 864.851 542.915 L 864.851 542.915 Q 854.047 542.915 848.116 534.9 L 848.116 534.9 L 848.116 534.9 Q 843.692 528.937 843.692 520.858 L 843.692 520.858 L 843.692 520.858 Q 843.692 514.35 846.61 508.901 L 846.61 508.901 L 846.61 508.901 Q 849.527 503.451 854.64 500.453 L 854.64 500.453 L 854.64 500.453 Q 859.754 497.456 865.813 497.456 L 865.813 497.456 L 865.813 497.456 Q 870.525 497.456 875.11 499.764 L 875.11 499.764 L 875.11 499.764 Q 876.456 500.469 877.033 500.469 L 877.033 500.469 L 877.033 500.469 Q 877.899 500.469 878.54 499.86 L 878.54 499.86 L 878.54 499.86 Q 879.374 498.994 879.726 497.456 L 879.726 497.456 Z " fill="rgb(255,255,255)"/><path d=" M 980.845 542.915 L 961.604 542.915 L 961.604 541.74 L 963.224 541.74 L 963.224 541.74 Q 965.954 541.74 967.097 539.994 L 967.097 539.994 L 967.097 539.994 Q 967.795 538.946 967.795 535.295 L 967.795 535.295 L 967.795 507.482 L 967.795 507.482 Q 967.795 503.45 966.907 502.434 L 966.907 502.434 L 966.907 502.434 Q 965.668 501.037 963.224 501.037 L 963.224 501.037 L 961.604 501.037 L 961.604 499.862 L 979.13 499.862 L 979.13 499.862 Q 988.782 499.862 993.814 502.053 L 993.814 502.053 L 993.814 502.053 Q 998.847 504.243 1001.911 509.355 L 1001.911 509.355 L 1001.911 509.355 Q 1004.975 514.467 1004.975 521.166 L 1004.975 521.166 L 1004.975 521.166 Q 1004.975 530.151 999.514 536.184 L 999.514 536.184 L 999.514 536.184 Q 993.386 542.915 980.845 542.915 L 980.845 542.915 Z  M 973.891 503.196 L 973.891 539.803 L 973.891 539.803 Q 977.924 540.692 980.654 540.692 L 980.654 540.692 L 980.654 540.692 Q 988.02 540.692 992.878 535.517 L 992.878 535.517 L 992.878 535.517 Q 997.736 530.342 997.736 521.484 L 997.736 521.484 L 997.736 521.484 Q 997.736 512.562 992.878 507.418 L 992.878 507.418 L 992.878 507.418 Q 988.02 502.275 980.4 502.275 L 980.4 502.275 L 980.4 502.275 Q 977.543 502.275 973.891 503.196 L 973.891 503.196 Z " fill-rule="evenodd" fill="rgb(255,255,255)"/><path d=" M 1049.787 499.865 L 1037.673 499.865 L 1037.673 517.321 L 1047.377 517.321 L 1047.377 517.321 Q 1051.155 517.321 1052.425 516.181 L 1052.425 516.181 L 1052.425 516.181 Q 1054.119 514.683 1054.314 510.905 L 1054.314 510.905 L 1055.519 510.905 L 1055.519 526.276 L 1054.314 526.276 L 1054.314 526.276 Q 1053.858 523.052 1053.402 522.14 L 1053.402 522.14 L 1053.402 522.14 Q 1052.816 521 1051.481 520.349 L 1051.481 520.349 L 1051.481 520.349 Q 1050.146 519.698 1047.377 519.698 L 1047.377 519.698 L 1037.673 519.698 L 1037.673 534.255 L 1037.673 534.255 Q 1037.673 537.186 1037.933 537.821 L 1037.933 537.821 L 1037.933 537.821 Q 1038.194 538.456 1038.845 538.83 L 1038.845 538.83 L 1038.845 538.83 Q 1039.497 539.205 1041.32 539.205 L 1041.32 539.205 L 1048.81 539.205 L 1048.81 539.205 Q 1052.555 539.205 1054.249 538.684 L 1054.249 538.684 L 1054.249 538.684 Q 1055.942 538.162 1057.505 536.632 L 1057.505 536.632 L 1057.505 536.632 Q 1059.524 534.613 1061.641 530.542 L 1061.641 530.542 L 1062.944 530.542 L 1059.134 541.614 L 1025.103 541.614 L 1025.103 540.41 L 1026.666 540.41 L 1026.666 540.41 Q 1028.229 540.41 1029.629 539.661 L 1029.629 539.661 L 1029.629 539.661 Q 1030.671 539.139 1031.046 538.097 L 1031.046 538.097 L 1031.046 538.097 Q 1031.42 537.055 1031.42 533.831 L 1031.42 533.831 L 1031.42 505.141 L 1031.42 505.141 Q 1031.42 500.94 1030.574 499.963 L 1030.574 499.963 L 1030.574 499.963 Q 1029.401 498.66 1026.666 498.66 L 1026.666 498.66 L 1025.103 498.66 L 1025.103 497.456 L 1059.134 497.456 L 1059.622 507.128 L 1058.352 507.128 L 1058.352 507.128 Q 1057.668 503.643 1056.838 502.34 L 1056.838 502.34 L 1056.838 502.34 Q 1056.007 501.038 1054.379 500.354 L 1054.379 500.354 L 1054.379 500.354 Q 1053.076 499.865 1049.787 499.865 L 1049.787 499.865 Z " fill="rgb(255,255,255)"/><path d=" M 1109.77 541.106 L 1108.708 541.106 L 1091.84 504.377 L 1091.84 533.541 L 1091.84 533.541 Q 1091.84 537.565 1092.709 538.563 L 1092.709 538.563 L 1092.709 538.563 Q 1093.9 539.915 1096.475 539.915 L 1096.475 539.915 L 1098.02 539.915 L 1098.02 541.106 L 1082.826 541.106 L 1082.826 539.915 L 1084.372 539.915 L 1084.372 539.915 Q 1087.14 539.915 1088.299 538.241 L 1088.299 538.241 L 1088.299 538.241 Q 1089.007 537.211 1089.007 533.541 L 1089.007 533.541 L 1089.007 505.02 L 1089.007 505.02 Q 1089.007 502.123 1088.363 500.836 L 1088.363 500.836 L 1088.363 500.836 Q 1087.913 499.902 1086.705 499.274 L 1086.705 499.274 L 1086.705 499.274 Q 1085.498 498.647 1082.826 498.647 L 1082.826 498.647 L 1082.826 497.456 L 1095.188 497.456 L 1111.025 531.61 L 1126.606 497.456 L 1138.967 497.456 L 1138.967 498.647 L 1137.454 498.647 L 1137.454 498.647 Q 1134.653 498.647 1133.495 500.321 L 1133.495 500.321 L 1133.495 500.321 Q 1132.786 501.351 1132.786 505.02 L 1132.786 505.02 L 1132.786 533.541 L 1132.786 533.541 Q 1132.786 537.565 1133.688 538.563 L 1133.688 538.563 L 1133.688 538.563 Q 1134.879 539.915 1137.454 539.915 L 1137.454 539.915 L 1138.967 539.915 L 1138.967 541.106 L 1120.425 541.106 L 1120.425 539.915 L 1121.97 539.915 L 1121.97 539.915 Q 1124.771 539.915 1125.898 538.241 L 1125.898 538.241 L 1125.898 538.241 Q 1126.606 537.211 1126.606 533.541 L 1126.606 533.541 L 1126.606 504.377 L 1109.77 541.106 Z " fill="rgb(255,255,255)"/><path d=" M 1186.776 499.107 L 1186.776 497.916 L 1202 497.916 L 1202 499.107 L 1201.163 499.107 L 1201.163 499.107 Q 1200.326 499.107 1198.717 499.847 L 1198.717 499.847 L 1198.717 499.847 Q 1197.108 500.587 1195.788 501.971 L 1195.788 501.971 L 1195.788 501.971 Q 1194.468 503.355 1192.537 506.477 L 1192.537 506.477 L 1182.012 523.054 L 1182.012 533.997 L 1182.012 533.997 Q 1182.012 538.021 1182.913 539.018 L 1182.913 539.018 L 1182.913 539.018 Q 1184.136 540.37 1186.776 540.37 L 1186.776 540.37 L 1188.192 540.37 L 1188.192 541.561 L 1169.652 541.561 L 1169.652 540.37 L 1171.197 540.37 L 1171.197 540.37 Q 1173.965 540.37 1175.124 538.697 L 1175.124 538.697 L 1175.124 538.697 Q 1175.832 537.667 1175.832 533.997 L 1175.832 533.997 L 1175.832 523.665 L 1163.858 505.383 L 1163.858 505.383 Q 1161.734 502.164 1160.978 501.36 L 1160.978 501.36 L 1160.978 501.36 Q 1160.221 500.555 1157.84 499.428 L 1157.84 499.428 L 1157.84 499.428 Q 1157.196 499.107 1155.973 499.107 L 1155.973 499.107 L 1155.973 497.916 L 1174.641 497.916 L 1174.641 499.107 L 1173.675 499.107 L 1173.675 499.107 Q 1172.163 499.107 1170.891 499.815 L 1170.891 499.815 L 1170.891 499.815 Q 1169.62 500.523 1169.62 501.939 L 1169.62 501.939 L 1169.62 501.939 Q 1169.62 503.098 1171.583 506.123 L 1171.583 506.123 L 1180.692 520.189 L 1189.254 506.735 L 1189.254 506.735 Q 1191.185 503.709 1191.185 502.229 L 1191.185 502.229 L 1191.185 502.229 Q 1191.185 501.327 1190.718 500.619 L 1190.718 500.619 L 1190.718 500.619 Q 1190.252 499.911 1189.383 499.509 L 1189.383 499.509 L 1189.383 499.509 Q 1188.514 499.107 1186.776 499.107 L 1186.776 499.107 Z " fill="rgb(255,255,255)"/><rect x="827.755" y="514.298" width="9.965" height="9.965" transform="matrix(0.707,-0.707,0.707,0.707,-123.284,740.928)" fill="rgb(255,255,255)"/><rect x="890.313" y="514.298" width="9.965" height="9.965" transform="matrix(0.707,-0.707,0.707,0.707,-104.961,785.164)" fill="rgb(255,255,255)"/><rect x="948.162" y="514.298" width="9.965" height="9.965" transform="matrix(0.707,-0.707,0.707,0.707,-88.017,826.069)" fill="rgb(255,255,255)"/><rect x="1013.074" y="514.298" width="9.965" height="9.965" transform="matrix(0.707,-0.707,0.707,0.707,-69.005,871.968)" fill="rgb(255,255,255)"/><rect x="1070.798" y="514.298" width="9.965" height="9.965" transform="matrix(0.707,-0.707,0.707,0.707,-52.098,912.785)" fill="rgb(255,255,255)"/><rect x="1143.944" y="514.298" width="9.965" height="9.965" transform="matrix(0.707,-0.707,0.707,0.707,-30.674,964.508)" fill="rgb(255,255,255)"/></g><path d=" M 980.674 561.765 L 983.034 561.765 L 982.745 562.825 L 980.401 562.825 L 978.636 569.839 L 978.636 569.839 Q 977.464 574.477 976.276 577.013 L 976.276 577.013 L 976.276 577.013 Q 974.591 580.592 972.649 581.957 L 972.649 581.957 L 972.649 581.957 Q 971.172 583 969.696 583 L 969.696 583 L 969.696 583 Q 968.733 583 968.059 582.422 L 968.059 582.422 L 968.059 582.422 Q 967.561 582.021 967.561 581.379 L 967.561 581.379 L 967.561 581.379 Q 967.561 580.865 967.97 580.488 L 967.97 580.488 L 967.97 580.488 Q 968.38 580.111 968.974 580.111 L 968.974 580.111 L 968.974 580.111 Q 969.407 580.111 969.704 580.384 L 969.704 580.384 L 969.704 580.384 Q 970.001 580.657 970.001 581.01 L 970.001 581.01 L 970.001 581.01 Q 970.001 581.363 969.664 581.668 L 969.664 581.668 L 969.664 581.668 Q 969.407 581.893 969.407 582.005 L 969.407 582.005 L 969.407 582.005 Q 969.407 582.149 969.519 582.23 L 969.519 582.23 L 969.519 582.23 Q 969.664 582.342 969.969 582.342 L 969.969 582.342 L 969.969 582.342 Q 970.659 582.342 971.421 581.909 L 971.421 581.909 L 971.421 581.909 Q 972.184 581.475 972.777 580.617 L 972.777 580.617 L 972.777 580.617 Q 973.371 579.758 973.901 578.137 L 973.901 578.137 L 973.901 578.137 Q 974.126 577.463 975.105 573.691 L 975.105 573.691 L 977.898 562.825 L 975.105 562.825 L 975.329 561.765 L 975.329 561.765 Q 976.662 561.765 977.191 561.581 L 977.191 561.581 L 977.191 561.581 Q 977.721 561.396 978.162 560.875 L 978.162 560.875 L 978.162 560.875 Q 978.604 560.353 979.31 558.925 L 979.31 558.925 L 979.31 558.925 Q 980.257 556.999 981.124 555.939 L 981.124 555.939 L 981.124 555.939 Q 982.311 554.511 983.619 553.796 L 983.619 553.796 L 983.619 553.796 Q 984.928 553.082 986.083 553.082 L 986.083 553.082 L 986.083 553.082 Q 987.303 553.082 988.041 553.7 L 988.041 553.7 L 988.041 553.7 Q 988.78 554.318 988.78 555.04 L 988.78 555.04 L 988.78 555.04 Q 988.78 555.602 988.41 555.987 L 988.41 555.987 L 988.41 555.987 Q 988.041 556.373 987.463 556.373 L 987.463 556.373 L 987.463 556.373 Q 986.966 556.373 986.653 556.084 L 986.653 556.084 L 986.653 556.084 Q 986.34 555.795 986.34 555.393 L 986.34 555.393 L 986.34 555.393 Q 986.34 555.137 986.549 554.76 L 986.549 554.76 L 986.549 554.76 Q 986.757 554.382 986.757 554.254 L 986.757 554.254 L 986.757 554.254 Q 986.757 554.029 986.613 553.917 L 986.613 553.917 L 986.613 553.917 Q 986.404 553.756 986.003 553.756 L 986.003 553.756 L 986.003 553.756 Q 984.992 553.756 984.189 554.398 L 984.189 554.398 L 984.189 554.398 Q 983.114 555.249 982.263 557.063 L 982.263 557.063 L 982.263 557.063 Q 981.83 558.01 980.674 561.765 L 980.674 561.765 Z  M 997.623 566.404 L 997.623 566.404 L 997.623 566.404 Q 997.623 568.812 996.347 571.171 L 996.347 571.171 L 996.347 571.171 Q 995.071 573.53 992.792 574.911 L 992.792 574.911 L 992.792 574.911 Q 990.513 576.291 988.362 576.291 L 988.362 576.291 L 988.362 576.291 Q 986.163 576.291 984.775 574.887 L 984.775 574.887 L 984.775 574.887 Q 983.387 573.482 983.387 571.251 L 983.387 571.251 L 983.387 571.251 Q 983.387 568.892 984.743 566.516 L 984.743 566.516 L 984.743 566.516 Q 986.099 564.141 988.37 562.761 L 988.37 562.761 L 988.37 562.761 Q 990.641 561.38 992.76 561.38 L 992.76 561.38 L 992.76 561.38 Q 994.879 561.38 996.251 562.777 L 996.251 562.777 L 996.251 562.777 Q 997.623 564.173 997.623 566.404 Z  M 994.959 565.297 L 994.959 565.297 L 994.959 565.297 Q 994.959 563.804 994.229 563.009 L 994.229 563.009 L 994.229 563.009 Q 993.498 562.215 992.343 562.215 L 992.343 562.215 L 992.343 562.215 Q 989.983 562.215 988.001 565.593 L 988.001 565.593 L 988.001 565.593 Q 986.019 568.972 986.019 572.311 L 986.019 572.311 L 986.019 572.311 Q 986.019 573.835 986.789 574.662 L 986.789 574.662 L 986.789 574.662 Q 987.56 575.488 988.731 575.488 L 988.731 575.488 L 988.731 575.488 Q 990.995 575.488 992.977 572.126 L 992.977 572.126 L 992.977 572.126 Q 994.959 568.763 994.959 565.297 Z  M 1000.689 562.873 L 1000.577 562.279 L 1006.114 561.38 L 1003.803 569.181 L 1003.803 569.181 Q 1006.611 564.382 1008.907 562.472 L 1008.907 562.472 L 1008.907 562.472 Q 1010.207 561.38 1011.025 561.38 L 1011.025 561.38 L 1011.025 561.38 Q 1011.555 561.38 1011.86 561.693 L 1011.86 561.693 L 1011.86 561.693 Q 1012.165 562.006 1012.165 562.6 L 1012.165 562.6 L 1012.165 562.6 Q 1012.165 563.659 1011.619 564.622 L 1011.619 564.622 L 1011.619 564.622 Q 1011.234 565.345 1010.512 565.345 L 1010.512 565.345 L 1010.512 565.345 Q 1010.143 565.345 1009.878 565.104 L 1009.878 565.104 L 1009.878 565.104 Q 1009.613 564.863 1009.549 564.366 L 1009.549 564.366 L 1009.549 564.366 Q 1009.517 564.061 1009.404 563.964 L 1009.404 563.964 L 1009.404 563.964 Q 1009.276 563.836 1009.099 563.836 L 1009.099 563.836 L 1009.099 563.836 Q 1008.826 563.836 1008.586 563.964 L 1008.586 563.964 L 1008.586 563.964 Q 1008.168 564.189 1007.318 565.216 L 1007.318 565.216 L 1007.318 565.216 Q 1005.986 566.789 1004.429 569.293 L 1004.429 569.293 L 1004.429 569.293 Q 1003.755 570.352 1003.273 571.685 L 1003.273 571.685 L 1003.273 571.685 Q 1002.599 573.514 1002.503 573.883 L 1002.503 573.883 L 1001.989 575.906 L 999.533 575.906 L 1002.503 565.939 L 1002.503 565.939 Q 1003.016 564.205 1003.016 563.467 L 1003.016 563.467 L 1003.016 563.467 Q 1003.016 563.178 1002.775 562.985 L 1002.775 562.985 L 1002.775 562.985 Q 1002.454 562.728 1001.925 562.728 L 1001.925 562.728 L 1001.925 562.728 Q 1001.588 562.728 1000.689 562.873 L 1000.689 562.873 Z " fill-rule="evenodd" fill="rgb(255,255,255)"/><g><path d=" M 791.09 600.873 L 791.09 600.28 L 796.986 600.28 L 810.27 616.575 L 810.27 604.045 L 810.27 604.045 Q 810.27 602.042 809.821 601.546 L 809.821 601.546 L 809.821 601.546 Q 809.228 600.873 807.946 600.873 L 807.946 600.873 L 807.193 600.873 L 807.193 600.28 L 814.756 600.28 L 814.756 600.873 L 813.987 600.873 L 813.987 600.873 Q 812.609 600.873 812.032 601.706 L 812.032 601.706 L 812.032 601.706 Q 811.68 602.219 811.68 604.045 L 811.68 604.045 L 811.68 622.36 L 811.103 622.36 L 796.778 604.862 L 796.778 618.242 L 796.778 618.242 Q 796.778 620.245 797.211 620.741 L 797.211 620.741 L 797.211 620.741 Q 797.82 621.414 799.085 621.414 L 799.085 621.414 L 799.855 621.414 L 799.855 622.007 L 792.292 622.007 L 792.292 621.414 L 793.045 621.414 L 793.045 621.414 Q 794.439 621.414 795.016 620.581 L 795.016 620.581 L 795.016 620.581 Q 795.368 620.068 795.368 618.242 L 795.368 618.242 L 795.368 603.132 L 795.368 603.132 Q 794.423 602.026 793.934 601.674 L 793.934 601.674 L 793.934 601.674 Q 793.445 601.321 792.5 601.017 L 792.5 601.017 L 792.5 601.017 Q 792.035 600.873 791.09 600.873 L 791.09 600.873 Z  M 816.47 600.28 L 834.208 600.28 L 834.448 605.375 L 833.839 605.375 L 833.839 605.375 Q 833.663 604.029 833.359 603.452 L 833.359 603.452 L 833.359 603.452 Q 832.862 602.523 832.037 602.082 L 832.037 602.082 L 832.037 602.082 Q 831.212 601.642 829.866 601.642 L 829.866 601.642 L 826.805 601.642 L 826.805 618.242 L 826.805 618.242 Q 826.805 620.245 827.238 620.741 L 827.238 620.741 L 827.238 620.741 Q 827.847 621.414 829.113 621.414 L 829.113 621.414 L 829.866 621.414 L 829.866 622.007 L 820.652 622.007 L 820.652 621.414 L 821.422 621.414 L 821.422 621.414 Q 822.799 621.414 823.376 620.581 L 823.376 620.581 L 823.376 620.581 Q 823.729 620.068 823.729 618.242 L 823.729 618.242 L 823.729 601.642 L 821.117 601.642 L 821.117 601.642 Q 819.595 601.642 818.954 601.866 L 818.954 601.866 L 818.954 601.866 Q 818.121 602.171 817.528 603.036 L 817.528 603.036 L 817.528 603.036 Q 816.935 603.901 816.823 605.375 L 816.823 605.375 L 816.214 605.375 L 816.47 600.28 Z  M 848.084 601.466 L 842.123 601.466 L 842.123 610.054 L 846.898 610.054 L 846.898 610.054 Q 848.757 610.054 849.382 609.493 L 849.382 609.493 L 849.382 609.493 Q 850.215 608.756 850.311 606.897 L 850.311 606.897 L 850.904 606.897 L 850.904 614.46 L 850.311 614.46 L 850.311 614.46 Q 850.087 612.874 849.862 612.425 L 849.862 612.425 L 849.862 612.425 Q 849.574 611.865 848.917 611.544 L 848.917 611.544 L 848.917 611.544 Q 848.26 611.224 846.898 611.224 L 846.898 611.224 L 842.123 611.224 L 842.123 618.386 L 842.123 618.386 Q 842.123 619.828 842.251 620.14 L 842.251 620.14 L 842.251 620.14 Q 842.38 620.453 842.7 620.637 L 842.7 620.637 L 842.7 620.637 Q 843.021 620.821 843.918 620.821 L 843.918 620.821 L 847.603 620.821 L 847.603 620.821 Q 849.446 620.821 850.279 620.565 L 850.279 620.565 L 850.279 620.565 Q 851.112 620.309 851.881 619.556 L 851.881 619.556 L 851.881 619.556 Q 852.875 618.562 853.916 616.559 L 853.916 616.559 L 854.557 616.559 L 852.682 622.007 L 835.938 622.007 L 835.938 621.414 L 836.707 621.414 L 836.707 621.414 Q 837.477 621.414 838.166 621.046 L 838.166 621.046 L 838.166 621.046 Q 838.678 620.789 838.863 620.277 L 838.863 620.277 L 838.863 620.277 Q 839.047 619.764 839.047 618.178 L 839.047 618.178 L 839.047 604.061 L 839.047 604.061 Q 839.047 601.994 838.63 601.514 L 838.63 601.514 L 838.63 601.514 Q 838.053 600.873 836.707 600.873 L 836.707 600.873 L 835.938 600.873 L 835.938 600.28 L 852.682 600.28 L 852.923 605.039 L 852.298 605.039 L 852.298 605.039 Q 851.961 603.324 851.553 602.683 L 851.553 602.683 L 851.553 602.683 Q 851.144 602.042 850.343 601.706 L 850.343 601.706 L 850.343 601.706 Q 849.702 601.466 848.084 601.466 L 848.084 601.466 Z  M 877.486 621.414 L 877.486 622.007 L 871.686 622.007 L 864.331 611.849 L 864.331 611.849 Q 863.514 611.881 863.001 611.881 L 863.001 611.881 L 863.001 611.881 Q 862.793 611.881 862.553 611.873 L 862.553 611.873 L 862.553 611.873 Q 862.312 611.865 862.056 611.849 L 862.056 611.849 L 862.056 618.162 L 862.056 618.162 Q 862.056 620.213 862.505 620.709 L 862.505 620.709 L 862.505 620.709 Q 863.113 621.414 864.331 621.414 L 864.331 621.414 L 865.18 621.414 L 865.18 622.007 L 855.871 622.007 L 855.871 621.414 L 856.688 621.414 L 856.688 621.414 Q 858.066 621.414 858.659 620.517 L 858.659 620.517 L 858.659 620.517 Q 858.995 620.02 858.995 618.162 L 858.995 618.162 L 858.995 604.125 L 858.995 604.125 Q 858.995 602.074 858.547 601.578 L 858.547 601.578 L 858.547 601.578 Q 857.922 600.873 856.688 600.873 L 856.688 600.873 L 855.871 600.873 L 855.871 600.28 L 863.786 600.28 L 863.786 600.28 Q 867.247 600.28 868.89 600.785 L 868.89 600.785 L 868.89 600.785 Q 870.532 601.289 871.678 602.643 L 871.678 602.643 L 871.678 602.643 Q 872.823 603.997 872.823 605.872 L 872.823 605.872 L 872.823 605.872 Q 872.823 607.875 871.517 609.349 L 871.517 609.349 L 871.517 609.349 Q 870.212 610.823 867.472 611.432 L 867.472 611.432 L 871.958 617.665 L 871.958 617.665 Q 873.496 619.812 874.602 620.517 L 874.602 620.517 L 874.602 620.517 Q 875.707 621.222 877.486 621.414 L 877.486 621.414 Z  M 862.056 601.802 L 862.056 610.839 L 862.056 610.839 Q 862.36 610.839 862.585 610.847 L 862.585 610.847 L 862.585 610.847 Q 862.809 610.855 862.953 610.855 L 862.953 610.855 L 862.953 610.855 Q 866.062 610.855 867.64 609.509 L 867.64 609.509 L 867.64 609.509 Q 869.218 608.163 869.218 606.08 L 869.218 606.08 L 869.218 606.08 Q 869.218 604.045 867.944 602.771 L 867.944 602.771 L 867.944 602.771 Q 866.67 601.498 864.571 601.498 L 864.571 601.498 L 864.571 601.498 Q 863.642 601.498 862.056 601.802 L 862.056 601.802 Z  M 876.765 600.873 L 876.765 600.28 L 882.661 600.28 L 895.945 616.575 L 895.945 604.045 L 895.945 604.045 Q 895.945 602.042 895.496 601.546 L 895.496 601.546 L 895.496 601.546 Q 894.903 600.873 893.621 600.873 L 893.621 600.873 L 892.868 600.873 L 892.868 600.28 L 900.431 600.28 L 900.431 600.873 L 899.662 600.873 L 899.662 600.873 Q 898.284 600.873 897.707 601.706 L 897.707 601.706 L 897.707 601.706 Q 897.355 602.219 897.355 604.045 L 897.355 604.045 L 897.355 622.36 L 896.778 622.36 L 882.453 604.862 L 882.453 618.242 L 882.453 618.242 Q 882.453 620.245 882.886 620.741 L 882.886 620.741 L 882.886 620.741 Q 883.495 621.414 884.76 621.414 L 884.76 621.414 L 885.53 621.414 L 885.53 622.007 L 877.967 622.007 L 877.967 621.414 L 878.72 621.414 L 878.72 621.414 Q 880.114 621.414 880.691 620.581 L 880.691 620.581 L 880.691 620.581 Q 881.043 620.068 881.043 618.242 L 881.043 618.242 L 881.043 603.132 L 881.043 603.132 Q 880.098 602.026 879.609 601.674 L 879.609 601.674 L 879.609 601.674 Q 879.12 601.321 878.175 601.017 L 878.175 601.017 L 878.175 601.017 Q 877.71 600.873 876.765 600.873 L 876.765 600.873 Z  M 917.223 617.857 L 915.909 614.733 L 907.497 614.733 L 906.023 618.162 L 906.023 618.162 Q 905.478 619.427 905.478 620.052 L 905.478 620.052 L 905.478 620.052 Q 905.478 620.549 905.951 620.926 L 905.951 620.926 L 905.951 620.926 Q 906.424 621.302 907.994 621.414 L 907.994 621.414 L 907.994 622.007 L 901.152 622.007 L 901.152 621.414 L 901.152 621.414 Q 902.514 621.174 902.915 620.789 L 902.915 620.789 L 902.915 620.789 Q 903.732 620.02 904.725 617.665 L 904.725 617.665 L 912.368 599.783 L 912.929 599.783 L 920.492 617.857 L 920.492 617.857 Q 921.405 620.036 922.15 620.685 L 922.15 620.685 L 922.15 620.685 Q 922.895 621.334 924.225 621.414 L 924.225 621.414 L 924.225 622.007 L 915.653 622.007 L 915.653 621.414 L 915.653 621.414 Q 916.951 621.35 917.407 620.982 L 917.407 620.982 L 917.407 620.982 Q 917.864 620.613 917.864 620.084 L 917.864 620.084 L 917.864 620.084 Q 917.864 619.379 917.223 617.857 L 917.223 617.857 Z  M 907.994 613.547 L 915.461 613.547 L 911.775 604.766 L 907.994 613.547 Z  M 925.843 600.28 L 943.581 600.28 L 943.821 605.375 L 943.212 605.375 L 943.212 605.375 Q 943.036 604.029 942.732 603.452 L 942.732 603.452 L 942.732 603.452 Q 942.235 602.523 941.41 602.082 L 941.41 602.082 L 941.41 602.082 Q 940.585 601.642 939.239 601.642 L 939.239 601.642 L 936.178 601.642 L 936.178 618.242 L 936.178 618.242 Q 936.178 620.245 936.611 620.741 L 936.611 620.741 L 936.611 620.741 Q 937.22 621.414 938.486 621.414 L 938.486 621.414 L 939.239 621.414 L 939.239 622.007 L 930.025 622.007 L 930.025 621.414 L 930.795 621.414 L 930.795 621.414 Q 932.173 621.414 932.749 620.581 L 932.749 620.581 L 932.749 620.581 Q 933.102 620.068 933.102 618.242 L 933.102 618.242 L 933.102 601.642 L 930.49 601.642 L 930.49 601.642 Q 928.968 601.642 928.327 601.866 L 928.327 601.866 L 928.327 601.866 Q 927.494 602.171 926.901 603.036 L 926.901 603.036 L 926.901 603.036 Q 926.308 603.901 926.196 605.375 L 926.196 605.375 L 925.587 605.375 L 925.843 600.28 Z  M 953.98 621.414 L 954.765 621.414 L 954.765 622.007 L 945.456 622.007 L 945.456 621.414 L 946.225 621.414 L 946.225 621.414 Q 947.571 621.414 948.18 620.629 L 948.18 620.629 L 948.18 620.629 Q 948.564 620.116 948.564 618.162 L 948.564 618.162 L 948.564 604.125 L 948.564 604.125 Q 948.564 602.475 948.356 601.946 L 948.356 601.946 L 948.356 601.946 Q 948.196 601.546 947.699 601.257 L 947.699 601.257 L 947.699 601.257 Q 946.994 600.873 946.225 600.873 L 946.225 600.873 L 945.456 600.873 L 945.456 600.28 L 954.765 600.28 L 954.765 600.873 L 953.98 600.873 L 953.98 600.873 Q 952.65 600.873 952.041 601.658 L 952.041 601.658 L 952.041 601.658 Q 951.641 602.171 951.641 604.125 L 951.641 604.125 L 951.641 618.162 L 951.641 618.162 Q 951.641 619.812 951.849 620.341 L 951.849 620.341 L 951.849 620.341 Q 952.009 620.741 952.522 621.03 L 952.522 621.03 L 952.522 621.03 Q 953.211 621.414 953.98 621.414 L 953.98 621.414 Z  M 967.567 599.783 L 967.567 599.783 L 967.567 599.783 Q 971.797 599.783 974.898 602.996 L 974.898 602.996 L 974.898 602.996 Q 977.998 606.208 977.998 611.015 L 977.998 611.015 L 977.998 611.015 Q 977.998 615.966 974.874 619.235 L 974.874 619.235 L 974.874 619.235 Q 971.749 622.504 967.311 622.504 L 967.311 622.504 L 967.311 622.504 Q 962.825 622.504 959.772 619.315 L 959.772 619.315 L 959.772 619.315 Q 956.72 616.127 956.72 611.063 L 956.72 611.063 L 956.72 611.063 Q 956.72 605.888 960.245 602.619 L 960.245 602.619 L 960.245 602.619 Q 963.305 599.783 967.567 599.783 Z  M 967.263 600.953 L 967.263 600.953 L 967.263 600.953 Q 964.347 600.953 962.584 603.116 L 962.584 603.116 L 962.584 603.116 Q 960.389 605.808 960.389 610.999 L 960.389 610.999 L 960.389 610.999 Q 960.389 616.319 962.664 619.187 L 962.664 619.187 L 962.664 619.187 Q 964.411 621.366 967.279 621.366 L 967.279 621.366 L 967.279 621.366 Q 970.339 621.366 972.334 618.979 L 972.334 618.979 L 972.334 618.979 Q 974.329 616.591 974.329 611.448 L 974.329 611.448 L 974.329 611.448 Q 974.329 605.872 972.134 603.132 L 972.134 603.132 L 972.134 603.132 Q 970.371 600.953 967.263 600.953 Z  M 978.832 600.873 L 978.832 600.28 L 984.728 600.28 L 998.011 616.575 L 998.011 604.045 L 998.011 604.045 Q 998.011 602.042 997.562 601.546 L 997.562 601.546 L 997.562 601.546 Q 996.97 600.873 995.688 600.873 L 995.688 600.873 L 994.935 600.873 L 994.935 600.28 L 1002.498 600.28 L 1002.498 600.873 L 1001.728 600.873 L 1001.728 600.873 Q 1000.35 600.873 999.774 601.706 L 999.774 601.706 L 999.774 601.706 Q 999.421 602.219 999.421 604.045 L 999.421 604.045 L 999.421 622.36 L 998.844 622.36 L 984.52 604.862 L 984.52 618.242 L 984.52 618.242 Q 984.52 620.245 984.952 620.741 L 984.952 620.741 L 984.952 620.741 Q 985.561 621.414 986.827 621.414 L 986.827 621.414 L 987.596 621.414 L 987.596 622.007 L 980.033 622.007 L 980.033 621.414 L 980.786 621.414 L 980.786 621.414 Q 982.18 621.414 982.757 620.581 L 982.757 620.581 L 982.757 620.581 Q 983.11 620.068 983.11 618.242 L 983.11 618.242 L 983.11 603.132 L 983.11 603.132 Q 982.164 602.026 981.676 601.674 L 981.676 601.674 L 981.676 601.674 Q 981.187 601.321 980.242 601.017 L 980.242 601.017 L 980.242 601.017 Q 979.777 600.873 978.832 600.873 L 978.832 600.873 Z  M 1019.29 617.857 L 1017.976 614.733 L 1009.564 614.733 L 1008.09 618.162 L 1008.09 618.162 Q 1007.545 619.427 1007.545 620.052 L 1007.545 620.052 L 1007.545 620.052 Q 1007.545 620.549 1008.017 620.926 L 1008.017 620.926 L 1008.017 620.926 Q 1008.49 621.302 1010.06 621.414 L 1010.06 621.414 L 1010.06 622.007 L 1003.219 622.007 L 1003.219 621.414 L 1003.219 621.414 Q 1004.581 621.174 1004.981 620.789 L 1004.981 620.789 L 1004.981 620.789 Q 1005.798 620.02 1006.792 617.665 L 1006.792 617.665 L 1014.435 599.783 L 1014.995 599.783 L 1022.558 617.857 L 1022.558 617.857 Q 1023.472 620.036 1024.217 620.685 L 1024.217 620.685 L 1024.217 620.685 Q 1024.962 621.334 1026.292 621.414 L 1026.292 621.414 L 1026.292 622.007 L 1017.719 622.007 L 1017.719 621.414 L 1017.719 621.414 Q 1019.017 621.35 1019.474 620.982 L 1019.474 620.982 L 1019.474 620.982 Q 1019.931 620.613 1019.931 620.084 L 1019.931 620.084 L 1019.931 620.084 Q 1019.931 619.379 1019.29 617.857 L 1019.29 617.857 Z  M 1010.06 613.547 L 1017.527 613.547 L 1013.842 604.766 L 1010.06 613.547 Z  M 1045.471 615.998 L 1045.471 615.998 L 1046 616.111 L 1044.141 622.007 L 1027.317 622.007 L 1027.317 621.414 L 1028.134 621.414 L 1028.134 621.414 Q 1029.512 621.414 1030.105 620.517 L 1030.105 620.517 L 1030.105 620.517 Q 1030.442 620.004 1030.442 618.146 L 1030.442 618.146 L 1030.442 604.125 L 1030.442 604.125 Q 1030.442 602.09 1029.993 601.578 L 1029.993 601.578 L 1029.993 601.578 Q 1029.368 600.873 1028.134 600.873 L 1028.134 600.873 L 1027.317 600.873 L 1027.317 600.28 L 1037.155 600.28 L 1037.155 600.873 L 1037.155 600.873 Q 1035.425 600.857 1034.728 601.193 L 1034.728 601.193 L 1034.728 601.193 Q 1034.031 601.53 1033.774 602.042 L 1033.774 602.042 L 1033.774 602.042 Q 1033.518 602.555 1033.518 604.494 L 1033.518 604.494 L 1033.518 618.146 L 1033.518 618.146 Q 1033.518 619.475 1033.774 619.972 L 1033.774 619.972 L 1033.774 619.972 Q 1033.967 620.309 1034.367 620.469 L 1034.367 620.469 L 1034.367 620.469 Q 1034.768 620.629 1036.867 620.629 L 1036.867 620.629 L 1038.453 620.629 L 1038.453 620.629 Q 1040.953 620.629 1041.962 620.261 L 1041.962 620.261 L 1041.962 620.261 Q 1042.972 619.892 1043.805 618.955 L 1043.805 618.955 L 1043.805 618.955 Q 1044.638 618.017 1045.471 615.998 Z " fill-rule="evenodd" fill="rgb(255,255,255)"/><path d=" M 1084.235 599.28 L 1102.459 599.28 L 1102.706 604.515 L 1102.08 604.515 L 1102.08 604.515 Q 1101.899 603.133 1101.586 602.54 L 1101.586 602.54 L 1101.586 602.54 Q 1101.076 601.585 1100.228 601.132 L 1100.228 601.132 L 1100.228 601.132 Q 1099.38 600.68 1097.998 600.68 L 1097.998 600.68 L 1094.853 600.68 L 1094.853 617.734 L 1094.853 617.734 Q 1094.853 619.792 1095.298 620.302 L 1095.298 620.302 L 1095.298 620.302 Q 1095.923 620.994 1097.224 620.994 L 1097.224 620.994 L 1097.998 620.994 L 1097.998 621.603 L 1088.532 621.603 L 1088.532 620.994 L 1089.322 620.994 L 1089.322 620.994 Q 1090.738 620.994 1091.33 620.138 L 1091.33 620.138 L 1091.33 620.138 Q 1091.693 619.611 1091.693 617.734 L 1091.693 617.734 L 1091.693 600.68 L 1089.009 600.68 L 1089.009 600.68 Q 1087.445 600.68 1086.787 600.91 L 1086.787 600.91 L 1086.787 600.91 Q 1085.931 601.223 1085.322 602.112 L 1085.322 602.112 L 1085.322 602.112 Q 1084.713 603.001 1084.598 604.515 L 1084.598 604.515 L 1083.972 604.515 L 1084.235 599.28 Z  M 1120.468 599.89 L 1119.629 599.89 L 1119.629 599.28 L 1127.53 599.28 L 1127.53 599.89 L 1126.691 599.89 L 1126.691 599.89 Q 1125.374 599.89 1124.666 600.992 L 1124.666 600.992 L 1124.666 600.992 Q 1124.32 601.503 1124.32 603.363 L 1124.32 603.363 L 1124.32 612.417 L 1124.32 612.417 Q 1124.32 615.775 1123.654 617.627 L 1123.654 617.627 L 1123.654 617.627 Q 1122.987 619.479 1121.036 620.804 L 1121.036 620.804 L 1121.036 620.804 Q 1119.085 622.13 1115.727 622.13 L 1115.727 622.13 L 1115.727 622.13 Q 1112.073 622.13 1110.179 620.862 L 1110.179 620.862 L 1110.179 620.862 Q 1108.286 619.594 1107.496 617.454 L 1107.496 617.454 L 1107.496 617.454 Q 1106.969 615.989 1106.969 611.956 L 1106.969 611.956 L 1106.969 603.231 L 1106.969 603.231 Q 1106.969 601.174 1106.401 600.532 L 1106.401 600.532 L 1106.401 600.532 Q 1105.833 599.89 1104.566 599.89 L 1104.566 599.89 L 1103.726 599.89 L 1103.726 599.28 L 1113.373 599.28 L 1113.373 599.89 L 1112.517 599.89 L 1112.517 599.89 Q 1111.134 599.89 1110.542 600.762 L 1110.542 600.762 L 1110.542 600.762 Q 1110.13 601.355 1110.13 603.231 L 1110.13 603.231 L 1110.13 612.96 L 1110.13 612.96 Q 1110.13 614.261 1110.369 615.94 L 1110.369 615.94 L 1110.369 615.94 Q 1110.607 617.619 1111.233 618.557 L 1111.233 618.557 L 1111.233 618.557 Q 1111.859 619.496 1113.036 620.105 L 1113.036 620.105 L 1113.036 620.105 Q 1114.213 620.714 1115.925 620.714 L 1115.925 620.714 L 1115.925 620.714 Q 1118.114 620.714 1119.843 619.759 L 1119.843 619.759 L 1119.843 619.759 Q 1121.571 618.804 1122.205 617.314 L 1122.205 617.314 L 1122.205 617.314 Q 1122.839 615.825 1122.839 612.269 L 1122.839 612.269 L 1122.839 603.231 L 1122.839 603.231 Q 1122.839 601.141 1122.378 600.614 L 1122.378 600.614 L 1122.378 600.614 Q 1121.736 599.89 1120.468 599.89 L 1120.468 599.89 Z  M 1138.445 621.603 L 1128.469 621.603 L 1128.469 620.994 L 1129.308 620.994 L 1129.308 620.994 Q 1130.724 620.994 1131.317 620.088 L 1131.317 620.088 L 1131.317 620.088 Q 1131.679 619.545 1131.679 617.652 L 1131.679 617.652 L 1131.679 603.231 L 1131.679 603.231 Q 1131.679 601.141 1131.218 600.614 L 1131.218 600.614 L 1131.218 600.614 Q 1130.576 599.89 1129.308 599.89 L 1129.308 599.89 L 1128.469 599.89 L 1128.469 599.28 L 1137.556 599.28 L 1137.556 599.28 Q 1142.56 599.28 1145.169 600.416 L 1145.169 600.416 L 1145.169 600.416 Q 1147.779 601.552 1149.367 604.203 L 1149.367 604.203 L 1149.367 604.203 Q 1150.956 606.853 1150.956 610.326 L 1150.956 610.326 L 1150.956 610.326 Q 1150.956 614.985 1148.124 618.113 L 1148.124 618.113 L 1148.124 618.113 Q 1144.947 621.603 1138.445 621.603 L 1138.445 621.603 Z  M 1134.839 601.009 L 1134.839 619.99 L 1134.839 619.99 Q 1136.93 620.45 1138.346 620.45 L 1138.346 620.45 L 1138.346 620.45 Q 1142.165 620.45 1144.684 617.767 L 1144.684 617.767 L 1144.684 617.767 Q 1147.202 615.084 1147.202 610.491 L 1147.202 610.491 L 1147.202 610.491 Q 1147.202 605.865 1144.684 603.198 L 1144.684 603.198 L 1144.684 603.198 Q 1142.165 600.532 1138.214 600.532 L 1138.214 600.532 L 1138.214 600.532 Q 1136.733 600.532 1134.839 601.009 L 1134.839 601.009 Z  M 1161.837 620.994 L 1162.644 620.994 L 1162.644 621.603 L 1153.079 621.603 L 1153.079 620.994 L 1153.869 620.994 L 1153.869 620.994 Q 1155.252 620.994 1155.878 620.187 L 1155.878 620.187 L 1155.878 620.187 Q 1156.273 619.66 1156.273 617.652 L 1156.273 617.652 L 1156.273 603.231 L 1156.273 603.231 Q 1156.273 601.536 1156.059 600.992 L 1156.059 600.992 L 1156.059 600.992 Q 1155.894 600.581 1155.384 600.285 L 1155.384 600.285 L 1155.384 600.285 Q 1154.66 599.89 1153.869 599.89 L 1153.869 599.89 L 1153.079 599.89 L 1153.079 599.28 L 1162.644 599.28 L 1162.644 599.89 L 1161.837 599.89 L 1161.837 599.89 Q 1160.471 599.89 1159.845 600.696 L 1159.845 600.696 L 1159.845 600.696 Q 1159.434 601.223 1159.434 603.231 L 1159.434 603.231 L 1159.434 617.652 L 1159.434 617.652 Q 1159.434 619.348 1159.648 619.891 L 1159.648 619.891 L 1159.648 619.891 Q 1159.812 620.302 1160.339 620.599 L 1160.339 620.599 L 1160.339 620.599 Q 1161.047 620.994 1161.837 620.994 L 1161.837 620.994 Z  M 1176.636 600.499 L 1170.512 600.499 L 1170.512 609.322 L 1175.418 609.322 L 1175.418 609.322 Q 1177.328 609.322 1177.97 608.746 L 1177.97 608.746 L 1177.97 608.746 Q 1178.826 607.989 1178.925 606.079 L 1178.925 606.079 L 1179.534 606.079 L 1179.534 613.849 L 1178.925 613.849 L 1178.925 613.849 Q 1178.694 612.22 1178.464 611.759 L 1178.464 611.759 L 1178.464 611.759 Q 1178.167 611.182 1177.492 610.853 L 1177.492 610.853 L 1177.492 610.853 Q 1176.817 610.524 1175.418 610.524 L 1175.418 610.524 L 1170.512 610.524 L 1170.512 617.882 L 1170.512 617.882 Q 1170.512 619.364 1170.644 619.685 L 1170.644 619.685 L 1170.644 619.685 Q 1170.776 620.006 1171.105 620.195 L 1171.105 620.195 L 1171.105 620.195 Q 1171.434 620.385 1172.356 620.385 L 1172.356 620.385 L 1176.142 620.385 L 1176.142 620.385 Q 1178.036 620.385 1178.892 620.121 L 1178.892 620.121 L 1178.892 620.121 Q 1179.748 619.858 1180.538 619.084 L 1180.538 619.084 L 1180.538 619.084 Q 1181.558 618.064 1182.628 616.006 L 1182.628 616.006 L 1183.287 616.006 L 1181.361 621.603 L 1164.158 621.603 L 1164.158 620.994 L 1164.948 620.994 L 1164.948 620.994 Q 1165.738 620.994 1166.446 620.615 L 1166.446 620.615 L 1166.446 620.615 Q 1166.973 620.352 1167.162 619.825 L 1167.162 619.825 L 1167.162 619.825 Q 1167.352 619.298 1167.352 617.668 L 1167.352 617.668 L 1167.352 603.165 L 1167.352 603.165 Q 1167.352 601.042 1166.924 600.548 L 1166.924 600.548 L 1166.924 600.548 Q 1166.331 599.89 1164.948 599.89 L 1164.948 599.89 L 1164.158 599.89 L 1164.158 599.28 L 1181.361 599.28 L 1181.608 604.17 L 1180.966 604.17 L 1180.966 604.17 Q 1180.62 602.408 1180.2 601.75 L 1180.2 601.75 L 1180.2 601.75 Q 1179.781 601.091 1178.957 600.746 L 1178.957 600.746 L 1178.957 600.746 Q 1178.299 600.499 1176.636 600.499 L 1176.636 600.499 Z  M 1198.909 598.77 L 1199.518 598.77 L 1199.518 606.491 L 1198.909 606.491 L 1198.909 606.491 Q 1198.613 604.268 1197.848 602.951 L 1197.848 602.951 L 1197.848 602.951 Q 1197.082 601.634 1195.666 600.861 L 1195.666 600.861 L 1195.666 600.861 Q 1194.251 600.087 1192.736 600.087 L 1192.736 600.087 L 1192.736 600.087 Q 1191.024 600.087 1189.905 601.132 L 1189.905 601.132 L 1189.905 601.132 Q 1188.785 602.178 1188.785 603.511 L 1188.785 603.511 L 1188.785 603.511 Q 1188.785 604.532 1189.493 605.371 L 1189.493 605.371 L 1189.493 605.371 Q 1190.514 606.606 1194.349 608.664 L 1194.349 608.664 L 1194.349 608.664 Q 1197.477 610.343 1198.621 611.24 L 1198.621 611.24 L 1198.621 611.24 Q 1199.765 612.137 1200.383 613.355 L 1200.383 613.355 L 1200.383 613.355 Q 1201 614.574 1201 615.907 L 1201 615.907 L 1201 615.907 Q 1201 618.442 1199.033 620.278 L 1199.033 620.278 L 1199.033 620.278 Q 1197.066 622.113 1193.971 622.113 L 1193.971 622.113 L 1193.971 622.113 Q 1192.999 622.113 1192.143 621.965 L 1192.143 621.965 L 1192.143 621.965 Q 1191.633 621.883 1190.028 621.364 L 1190.028 621.364 L 1190.028 621.364 Q 1188.423 620.846 1187.995 620.846 L 1187.995 620.846 L 1187.995 620.846 Q 1187.584 620.846 1187.345 621.093 L 1187.345 621.093 L 1187.345 621.093 Q 1187.106 621.339 1186.991 622.113 L 1186.991 622.113 L 1186.382 622.113 L 1186.382 614.458 L 1186.991 614.458 L 1186.991 614.458 Q 1187.419 616.862 1188.143 618.055 L 1188.143 618.055 L 1188.143 618.055 Q 1188.868 619.249 1190.357 620.039 L 1190.357 620.039 L 1190.357 620.039 Q 1191.847 620.829 1193.625 620.829 L 1193.625 620.829 L 1193.625 620.829 Q 1195.683 620.829 1196.876 619.743 L 1196.876 619.743 L 1196.876 619.743 Q 1198.07 618.656 1198.07 617.175 L 1198.07 617.175 L 1198.07 617.175 Q 1198.07 616.351 1197.617 615.512 L 1197.617 615.512 L 1197.617 615.512 Q 1197.164 614.672 1196.21 613.948 L 1196.21 613.948 L 1196.21 613.948 Q 1195.568 613.454 1192.703 611.849 L 1192.703 611.849 L 1192.703 611.849 Q 1189.839 610.244 1188.629 609.289 L 1188.629 609.289 L 1188.629 609.289 Q 1187.419 608.334 1186.793 607.182 L 1186.793 607.182 L 1186.793 607.182 Q 1186.168 606.03 1186.168 604.647 L 1186.168 604.647 L 1186.168 604.647 Q 1186.168 602.244 1188.012 600.507 L 1188.012 600.507 L 1188.012 600.507 Q 1189.855 598.77 1192.703 598.77 L 1192.703 598.77 L 1192.703 598.77 Q 1194.481 598.77 1196.473 599.643 L 1196.473 599.643 L 1196.473 599.643 Q 1197.395 600.054 1197.773 600.054 L 1197.773 600.054 L 1197.773 600.054 Q 1198.201 600.054 1198.473 599.799 L 1198.473 599.799 L 1198.473 599.799 Q 1198.745 599.544 1198.909 598.77 L 1198.909 598.77 Z " fill-rule="evenodd" fill="rgb(255,255,255)"/><path d=" M 789.996 621.577 L 791.09 621.577 L 791.09 622.402 L 778.122 622.402 L 778.122 621.577 L 779.194 621.577 L 779.194 621.577 Q 781.069 621.577 781.917 620.483 L 781.917 620.483 L 781.917 620.483 Q 782.452 619.769 782.452 617.046 L 782.452 617.046 L 782.452 597.494 L 782.452 597.494 Q 782.452 595.195 782.162 594.458 L 782.162 594.458 L 782.162 594.458 Q 781.939 593.9 781.247 593.499 L 781.247 593.499 L 781.247 593.499 Q 780.265 592.963 779.194 592.963 L 779.194 592.963 L 778.122 592.963 L 778.122 592.137 L 791.09 592.137 L 791.09 592.963 L 789.996 592.963 L 789.996 592.963 Q 788.144 592.963 787.296 594.057 L 787.296 594.057 L 787.296 594.057 Q 786.738 594.771 786.738 597.494 L 786.738 597.494 L 786.738 617.046 L 786.738 617.046 Q 786.738 619.345 787.028 620.081 L 787.028 620.081 L 787.028 620.081 Q 787.251 620.639 787.965 621.041 L 787.965 621.041 L 787.965 621.041 Q 788.925 621.577 789.996 621.577 L 789.996 621.577 Z " fill="rgb(255,255,255)"/><path d=" M 1078.289 591.855 L 1079.079 591.855 L 1079.079 601.869 L 1078.289 601.869 L 1078.289 601.869 Q 1077.904 598.986 1076.911 597.278 L 1076.911 597.278 L 1076.911 597.278 Q 1075.919 595.57 1074.083 594.567 L 1074.083 594.567 L 1074.083 594.567 Q 1072.247 593.563 1070.282 593.563 L 1070.282 593.563 L 1070.282 593.563 Q 1068.062 593.563 1066.61 594.919 L 1066.61 594.919 L 1066.61 594.919 Q 1065.158 596.275 1065.158 598.004 L 1065.158 598.004 L 1065.158 598.004 Q 1065.158 599.328 1066.076 600.417 L 1066.076 600.417 L 1066.076 600.417 Q 1067.4 602.018 1072.375 604.687 L 1072.375 604.687 L 1072.375 604.687 Q 1076.431 606.864 1077.915 608.028 L 1077.915 608.028 L 1077.915 608.028 Q 1079.399 609.192 1080.199 610.771 L 1080.199 610.771 L 1080.199 610.771 Q 1081 612.351 1081 614.081 L 1081 614.081 L 1081 614.081 Q 1081 617.369 1078.449 619.749 L 1078.449 619.749 L 1078.449 619.749 Q 1075.897 622.13 1071.884 622.13 L 1071.884 622.13 L 1071.884 622.13 Q 1070.624 622.13 1069.514 621.937 L 1069.514 621.937 L 1069.514 621.937 Q 1068.852 621.831 1066.77 621.158 L 1066.77 621.158 L 1066.77 621.158 Q 1064.689 620.486 1064.134 620.486 L 1064.134 620.486 L 1064.134 620.486 Q 1063.6 620.486 1063.29 620.806 L 1063.29 620.806 L 1063.29 620.806 Q 1062.981 621.126 1062.831 622.13 L 1062.831 622.13 L 1062.041 622.13 L 1062.041 612.202 L 1062.831 612.202 L 1062.831 612.202 Q 1063.386 615.319 1064.326 616.867 L 1064.326 616.867 L 1064.326 616.867 Q 1065.265 618.415 1067.197 619.44 L 1067.197 619.44 L 1067.197 619.44 Q 1069.129 620.464 1071.435 620.464 L 1071.435 620.464 L 1071.435 620.464 Q 1074.104 620.464 1075.652 619.055 L 1075.652 619.055 L 1075.652 619.055 Q 1077.2 617.646 1077.2 615.725 L 1077.2 615.725 L 1077.2 615.725 Q 1077.2 614.657 1076.613 613.568 L 1076.613 613.568 L 1076.613 613.568 Q 1076.025 612.479 1074.787 611.54 L 1074.787 611.54 L 1074.787 611.54 Q 1073.955 610.9 1070.24 608.818 L 1070.24 608.818 L 1070.24 608.818 Q 1066.525 606.736 1064.956 605.498 L 1064.956 605.498 L 1064.956 605.498 Q 1063.386 604.26 1062.575 602.765 L 1062.575 602.765 L 1062.575 602.765 Q 1061.764 601.271 1061.764 599.477 L 1061.764 599.477 L 1061.764 599.477 Q 1061.764 596.36 1064.155 594.108 L 1064.155 594.108 L 1064.155 594.108 Q 1066.546 591.855 1070.24 591.855 L 1070.24 591.855 L 1070.24 591.855 Q 1072.545 591.855 1075.129 592.987 L 1075.129 592.987 L 1075.129 592.987 Q 1076.324 593.521 1076.815 593.521 L 1076.815 593.521 L 1076.815 593.521 Q 1077.371 593.521 1077.723 593.19 L 1077.723 593.19 L 1077.723 593.19 Q 1078.075 592.859 1078.289 591.855 L 1078.289 591.855 Z " fill="rgb(255,255,255)"/></g></svg>