<?xml version="1.0" encoding="UTF-8"?>
<svg id="Layer_1" xmlns="http://www.w3.org/2000/svg" viewBox="0 0 470.98 500">
  <defs>
    <style>
      .cls-1 {
        fill: #f6f9fd;
      }
    </style>
  </defs>
  <path class="cls-1" d="M465.39,377l5.59,5.59-88.39,88.38-5.59-5.58-22.92-22.93c-13.11,7.1-27.03,12.9-41.58,17.23v40.31h-125v-40.31c-14.55-4.33-28.46-10.13-41.57-17.23l-22.93,22.93-5.59,5.58-88.38-88.38,5.58-5.59,22.93-22.92c-7.1-13.12-12.9-27.03-17.23-41.58H0v-125h40.31c4.33-14.55,10.13-28.46,17.23-41.58l-22.93-22.92-5.58-5.59,44.2-44.19,44.18-44.2,28.52,28.52c13.11-7.1,27.02-12.9,41.57-17.23V0h125v40.31c14.55,4.33,28.47,10.13,41.58,17.23l28.51-28.52,44.19,44.2,44.2,44.19-5.59,5.59-22.93,22.92-41.57,41.58h-48.43c-21.08-34.48-59.08-57.5-102.46-57.5-66.27,0-120,53.73-120,120s53.73,120,120,120c43.38,0,81.38-23.02,102.46-57.5h48.43l41.57,41.58,22.93,22.92Z"/>
</svg>