<?xml version="1.0" encoding="UTF-8"?>
<svg xmlns="http://www.w3.org/2000/svg" xmlns:xlink="http://www.w3.org/1999/xlink" viewBox="0 0 1080 1080">
  <defs>
    <style>
      .cls-1 {
        fill: #efb821;
      }

      .cls-2 {
        filter: url(#outer-glow-12);
      }

      .cls-3 {
        fill: #f6f9fd;
      }

      .cls-4 {
        fill: #5bb35c;
      }
    </style>
    <filter id="outer-glow-12" x="-1230" y="-90" width="1260" height="1260" filterUnits="userSpaceOnUse">
      <feOffset dx="0" dy="0"/>
      <feGaussianBlur result="blur" stdDeviation="30"/>
      <feFlood flood-color="#fff" flood-opacity=".75"/>
      <feComposite in2="blur" operator="in"/>
      <feComposite in="SourceGraphic"/>
    </filter>
  </defs>
  <g id="Layer_4" data-name="Layer 4">
    <g class="cls-2">
      <path class="cls-3" d="M-600,1080h0c0-298.23-241.77-540-540-540h0C-841.77,540-600,298.23-600,0h0c0,298.23,241.77,540,540,540h0c-298.23,0-540,241.77-540,540Z"/>
    </g>
  </g>
  <g id="Layer_5" data-name="Layer 5">
    <rect class="cls-1" width="1080" height="1080"/>
    <rect class="cls-3" x="90" y="90" width="900" height="900"/>
    <g>
      <path class="cls-1" d="M165,539.32h61.29v91.43h-45.57l9.95-38.29v293.72l-9.95-37.72h46.51v90.86h-62.23v-400ZM184.22,695.89h38.58v84h-38.58v-84Z"/>
      <path class="cls-1" d="M241.61,539.32h22.18l41.26,235.43-3.36,9.14v-244.57h24.73v400h-21.24l-41.67-239.43,2.96-10.86v250.29h-24.87v-400Z"/>
      <path class="cls-1" d="M363.86,913.75c-7.66-17.05-13.64-40.82-17.94-71.3-4.3-30.47-6.45-64.94-6.45-103.4s2.15-72.83,6.45-103.13c4.3-30.29,10.28-53.96,17.94-71.02,7.66-17.05,16.37-25.58,26.14-25.58,8.33,0,16.04,6.44,23.12,19.32,7.08,12.88,12.92,30.94,17.54,54.15,4.61,23.22,7.5,49.34,8.67,78.37h-27.42c-.99-10.52-2.55-19.95-4.7-28.3-2.15-8.34-4.73-14.78-7.73-19.32-3-4.53-6.11-6.8-9.34-6.8-4.75,0-8.94,4.27-12.57,12.79-3.63,8.53-6.43,20.6-8.4,36.19-1.97,15.61-2.96,33.39-2.96,53.34s.98,38.19,2.96,53.6c1.97,15.43,4.77,27.48,8.4,36.19,3.63,8.71,7.82,13.06,12.57,13.06,3.85,0,7.39-2.72,10.62-8.16,3.23-5.44,5.87-13.06,7.93-22.86,2.06-9.79,3.31-21.22,3.76-34.29l5.65,10.88h-30.65v-60.41h52.82c-.09,41.73-2.22,78.64-6.38,110.75-4.17,32.11-10.06,57.06-17.68,74.83-7.62,17.77-16.31,26.67-26.08,26.67s-18.62-8.53-26.28-25.58Z"/>
      <path class="cls-1" d="M452.77,539.32h26.48v400h-26.48v-400Z"/>
      <path class="cls-1" d="M496.99,539.32h22.18l41.26,235.43-3.36,9.14v-244.57h24.73v400h-21.24l-41.67-239.43,2.96-10.86v250.29h-24.87v-400Z"/>
      <path class="cls-1" d="M599.68,539.32h61.29v91.43h-45.57l9.95-38.29v293.72l-9.95-37.72h46.51v90.86h-62.23v-400ZM618.9,695.89h38.58v84h-38.58v-84Z"/>
      <path class="cls-1" d="M676.29,539.32h61.29v91.43h-45.57l9.95-38.29v293.72l-9.95-37.72h46.51v90.86h-62.23v-400ZM695.51,695.89h38.58v84h-38.58v-84Z"/>
      <path class="cls-1" d="M752.9,539.32h41.67c6.9,0,13.04,6,18.41,18s9.56,28.96,12.57,50.86c3,21.91,4.5,46.76,4.5,74.57s-1.55,50.2-4.64,70.57c-3.09,20.38-7.48,36.2-13.17,47.43-5.69,11.24-12.21,16.86-19.56,16.86h-21.91l-.67-86.86h20.57c2.51,0,4.7-2,6.59-6s3.34-9.71,4.37-17.14c1.03-7.43,1.55-15.71,1.55-24.86s-.52-17.33-1.55-24.57c-1.03-7.23-2.49-12.86-4.37-16.86s-4.08-6-6.59-6h-20.03l8.2-30.86v334.86h-25.94v-400ZM785.97,787.89l27.02-10.86,20.03,162.29h-29.03l-18.01-151.43Z"/>
      <path class="cls-1" d="M856.8,923.79c-5.74-10.35-10.15-25.15-13.24-44.41-3.09-19.25-4.64-42.32-4.64-69.21h27.29c0,8.36.47,15.53,1.41,21.53.94,5.99,2.22,10.54,3.83,13.63,1.61,3.09,3.49,4.63,5.65,4.63,1.88,0,3.61-1.27,5.17-3.81,1.57-2.54,2.8-6.35,3.7-11.44.89-5.08,1.34-11.08,1.34-17.98,0-8.35-.72-15.17-2.15-20.43-1.43-5.26-3.2-9.35-5.31-12.26-2.11-2.9-5.17-6.36-9.21-10.35-6.18-6.18-11.31-12.72-15.39-19.62-4.08-6.9-7.57-18.16-10.48-33.79-2.91-15.62-4.37-36.87-4.37-63.76,0-24.34,1.43-45.23,4.3-62.67,2.87-17.44,7.01-30.88,12.43-40.33,5.42-9.44,11.85-14.17,19.29-14.17s13.69,4.82,19.02,14.44c5.33,9.63,9.39,23.62,12.16,41.96,2.78,18.35,4.17,40.05,4.17,65.12h-26.21c0-11.26-.83-19.97-2.49-26.16-1.66-6.18-3.92-9.26-6.79-9.26s-5,2.64-6.65,7.9c-1.66,5.27-2.49,12.26-2.49,20.98,0,7.63.72,13.99,2.15,19.07,1.43,5.09,3.2,9.09,5.31,11.99,2.1,2.91,5.17,6.54,9.21,10.9,6.36,6.54,11.63,13.45,15.79,20.71,4.17,7.27,7.77,18.71,10.82,34.33,3.05,15.63,4.57,36.51,4.57,62.67s-1.55,48.69-4.64,67.58c-3.09,18.89-7.48,33.24-13.17,43.05-5.69,9.81-12.39,14.71-20.09,14.71s-14.56-5.18-20.3-15.53Z"/>
    </g>
    <g>
      <path d="M165,140h90.14v98.29h-67.46l16.12-45.14v346.86h-38.8V140ZM192.46,305.14h57.51v94.28h-57.51v-94.28Z"/>
      <path d="M299.42,519.67c-9.35-13.55-16.62-32.68-21.79-57.38-5.17-24.7-7.76-53.2-7.76-85.51v-236.77h39.8v236.21c0,12.63.9,23.77,2.69,33.42,1.79,9.66,4.38,17.18,7.76,22.56,3.38,5.39,7.26,8.08,11.64,8.08s8.02-2.69,11.34-8.08c3.31-5.38,5.9-12.9,7.76-22.56,1.86-9.65,2.79-20.8,2.79-33.42v-236.21h39.8v236.77c0,32.31-2.59,60.82-7.76,85.51-5.17,24.7-12.44,43.83-21.79,57.38-9.35,13.55-20.07,20.33-32.14,20.33s-22.98-6.78-32.34-20.33Z"/>
      <path d="M408.17,140h116.41v97.14h-116.41v-97.14ZM446.97,209.72h38.6v330.28h-38.6V209.72Z"/>
      <path d="M568.85,519.67c-9.35-13.55-16.62-32.68-21.79-57.38-5.17-24.7-7.76-53.2-7.76-85.51v-236.77h39.8v236.21c0,12.63.9,23.77,2.69,33.42,1.79,9.66,4.38,17.18,7.76,22.56,3.38,5.39,7.26,8.08,11.64,8.08s8.02-2.69,11.34-8.08c3.31-5.38,5.9-12.9,7.76-22.56,1.86-9.65,2.79-20.8,2.79-33.42v-236.21h39.8v236.77c0,32.31-2.59,60.82-7.76,85.51-5.17,24.7-12.44,43.83-21.79,57.38-9.35,13.55-20.07,20.33-32.14,20.33s-22.98-6.78-32.34-20.33Z"/>
      <path d="M687.55,140h61.69c10.21,0,19.3,6,27.26,18,7.96,12,14.16,28.96,18.61,50.86,4.44,21.91,6.67,46.77,6.67,74.57s-2.29,50.2-6.87,70.57c-4.58,20.38-11.08,36.2-19.5,47.43-8.43,11.24-18.08,16.86-28.95,16.86h-32.44l-1-86.86h30.45c3.71,0,6.96-2,9.75-6s4.94-9.71,6.47-17.14c1.52-7.43,2.29-15.71,2.29-24.86s-.76-17.33-2.29-24.57c-1.53-7.23-3.68-12.86-6.47-16.86-2.79-4-6.04-6-9.75-6h-29.65l12.14-30.86v334.86h-38.4V140ZM736.5,388.57l40-10.86,29.65,162.28h-42.98l-26.66-151.43Z"/>
      <path d="M822.87,140h90.74v91.43h-67.46l14.73-38.29v293.71l-14.73-37.71h68.85v90.86h-92.13V140ZM851.32,296.57h57.11v84h-57.11v-84Z"/>
    </g>
    <path class="cls-4" d="M803.82,606.01v-131.91h-42.53c-4.54-15.35-10.66-30.08-18.15-43.9l30.08-30.08-93.29-93.29-5.91,5.91-24.17,24.17h-.05c-10.34-5.59-21.26-10.45-32.5-14.46-3.75-1.27-7.55-2.53-11.34-3.64v-.11h0v-42.48h-131.86v42.53c-15.35,4.54-30.02,10.66-43.85,18.15h0l-24.17-24.17-5.86-5.91-93.39,93.29,5.91,5.91,24.11,24.06h0c-7.49,13.93-13.61,28.55-18.2,43.9h-42.48v131.91h42.53c4.59,15.35,10.71,30.02,18.2,43.9l-24.22,24.17-5.86,5.91h0l93.23,93.29,30.08-30.13c12.08,6.54,24.85,12.08,38.1,16.41,1.9.63,3.85,1.21,5.75,1.79h0v42.53h131.86v-42.53c15.35-4.59,30.08-10.71,43.9-18.2v.11l30.08,30.02,46.64-46.64,46.64-46.64-5.86-5.8-24.17-24.22c7.49-13.82,13.61-28.49,18.15-43.85h42.58ZM540,666.69c-24.06,0-46.54-6.75-65.69-18.47-3.48-2.06-6.86-4.33-10.13-6.81-.11-.05-.26-.16-.37-.26-1.48-1.11-2.95-2.27-4.38-3.48-1.58-1.27-3.11-2.59-4.64-4.01-.05,0-.11-.05-.16-.11-1.42-1.32-2.85-2.69-4.22-4.06-2.37-2.37-4.64-4.85-6.81-7.39-1.79-2.06-3.48-4.17-5.12-6.38-1.21-1.64-2.43-3.32-3.54-5.01-13.67-20.21-21.63-44.59-21.63-70.76,0-24.11,6.75-46.64,18.52-65.85,22.21-36.46,62.31-60.78,108.11-60.78,10.97,0,21.58,1.37,31.71,4.06,4.06,1,8.02,2.22,11.87,3.69,3.9,1.37,7.7,2.95,11.4,4.8,3.48,1.64,6.91,3.48,10.18,5.54.47.26,1,.58,1.48.9,1.42.79,2.85,1.74,4.22,2.74,2.9,1.9,5.75,3.96,8.44,6.23.63.53,1.27,1,1.9,1.53.9.74,1.79,1.48,2.64,2.32.9.74,1.74,1.53,2.59,2.32,1.11.95,2.16,2.01,3.17,3.06,2.01,1.95,3.9,4.01,5.7,6.12,1.21,1.37,2.43,2.8,3.54,4.22.16.16.32.32.37.47,1.16,1.42,2.27,2.9,3.32,4.38.74.9,1.37,1.85,2.01,2.8,1.27,1.79,2.48,3.64,3.59,5.49,11.77,19.26,18.57,41.84,18.57,66.06s-6.75,46.64-18.52,65.85c-22.16,36.46-62.31,60.78-108.11,60.78h0Z"/>
  </g>
</svg>