<?xml version="1.0" encoding="UTF-8"?>
<svg xmlns="http://www.w3.org/2000/svg" xmlns:xlink="http://www.w3.org/1999/xlink" viewBox="0 0 1080 1080">
  <defs>
    <style>
      .cls-1 {
        filter: url(#outer-glow-9);
      }

      .cls-2 {
        filter: url(#outer-glow-2);
      }

      .cls-3 {
        filter: url(#outer-glow-11);
      }

      .cls-4 {
        filter: url(#outer-glow-6);
      }

      .cls-5 {
        fill: #7dbbe7;
      }

      .cls-6 {
        filter: url(#outer-glow-5);
      }

      .cls-7 {
        filter: url(#outer-glow-10);
      }

      .cls-8 {
        fill: #efb821;
      }

      .cls-9 {
        filter: url(#outer-glow-1);
      }

      .cls-10 {
        filter: url(#outer-glow-8);
      }

      .cls-11 {
        fill: #f6f9fd;
      }

      .cls-12 {
        fill: #0f0f0f;
      }

      .cls-13 {
        filter: url(#outer-glow-7);
      }

      .cls-14 {
        filter: url(#outer-glow-3);
      }

      .cls-15 {
        filter: url(#outer-glow-4);
      }
    </style>
    <filter id="outer-glow-1" x="588" y="465" width="507" height="630" filterUnits="userSpaceOnUse">
      <feOffset dx="0" dy="0"/>
      <feGaussianBlur result="blur" stdDeviation="5"/>
      <feFlood flood-color="#efb821" flood-opacity=".75"/>
      <feComposite in2="blur" operator="in"/>
      <feComposite in="SourceGraphic"/>
    </filter>
    <filter id="outer-glow-2" x="573" y="465" width="422" height="630" filterUnits="userSpaceOnUse">
      <feOffset dx="0" dy="0"/>
      <feGaussianBlur result="blur-2" stdDeviation="5"/>
      <feFlood flood-color="#7dbbe7" flood-opacity=".75"/>
      <feComposite in2="blur-2" operator="in"/>
      <feComposite in="SourceGraphic"/>
    </filter>
    <filter id="outer-glow-3" x="85" y="465" width="422" height="630" filterUnits="userSpaceOnUse">
      <feOffset dx="0" dy="0"/>
      <feGaussianBlur result="blur-3" stdDeviation="5"/>
      <feFlood flood-color="#7dbbe7" flood-opacity=".75"/>
      <feComposite in2="blur-3" operator="in"/>
      <feComposite in="SourceGraphic"/>
    </filter>
    <filter id="outer-glow-4" x="559" y="465" width="336" height="630" filterUnits="userSpaceOnUse">
      <feOffset dx="0" dy="0"/>
      <feGaussianBlur result="blur-4" stdDeviation="5"/>
      <feFlood flood-color="#efb821" flood-opacity=".75"/>
      <feComposite in2="blur-4" operator="in"/>
      <feComposite in="SourceGraphic"/>
    </filter>
    <filter id="outer-glow-5" x="185" y="465" width="336" height="630" filterUnits="userSpaceOnUse">
      <feOffset dx="0" dy="0"/>
      <feGaussianBlur result="blur-5" stdDeviation="5"/>
      <feFlood flood-color="#efb821" flood-opacity=".75"/>
      <feComposite in2="blur-5" operator="in"/>
      <feComposite in="SourceGraphic"/>
    </filter>
    <filter id="outer-glow-6" x="545" y="465" width="251" height="630" filterUnits="userSpaceOnUse">
      <feOffset dx="0" dy="0"/>
      <feGaussianBlur result="blur-6" stdDeviation="5"/>
      <feFlood flood-color="#7dbbe7" flood-opacity=".75"/>
      <feComposite in2="blur-6" operator="in"/>
      <feComposite in="SourceGraphic"/>
    </filter>
    <filter id="outer-glow-7" x="285" y="465" width="250" height="630" filterUnits="userSpaceOnUse">
      <feOffset dx="0" dy="0"/>
      <feGaussianBlur result="blur-7" stdDeviation="5"/>
      <feFlood flood-color="#7dbbe7" flood-opacity=".75"/>
      <feComposite in2="blur-7" operator="in"/>
      <feComposite in="SourceGraphic"/>
    </filter>
    <filter id="outer-glow-8" x="530" y="465" width="165" height="630" filterUnits="userSpaceOnUse">
      <feOffset dx="0" dy="0"/>
      <feGaussianBlur result="blur-8" stdDeviation="5"/>
      <feFlood flood-color="#efb821" flood-opacity=".75"/>
      <feComposite in2="blur-8" operator="in"/>
      <feComposite in="SourceGraphic"/>
    </filter>
    <filter id="outer-glow-9" x="385" y="465" width="165" height="630" filterUnits="userSpaceOnUse">
      <feOffset dx="0" dy="0"/>
      <feGaussianBlur result="blur-9" stdDeviation="5"/>
      <feFlood flood-color="#efb821" flood-opacity=".75"/>
      <feComposite in2="blur-9" operator="in"/>
      <feComposite in="SourceGraphic"/>
    </filter>
    <filter id="outer-glow-10" x="485" y="465" width="110" height="630" filterUnits="userSpaceOnUse">
      <feOffset dx="0" dy="0"/>
      <feGaussianBlur result="blur-10" stdDeviation="5"/>
      <feFlood flood-color="#7dbbe7" flood-opacity=".75"/>
      <feComposite in2="blur-10" operator="in"/>
      <feComposite in="SourceGraphic"/>
    </filter>
    <filter id="outer-glow-11" x="-15" y="465" width="507" height="630" filterUnits="userSpaceOnUse">
      <feOffset dx="0" dy="0"/>
      <feGaussianBlur result="blur-11" stdDeviation="5"/>
      <feFlood flood-color="#efb821" flood-opacity=".75"/>
      <feComposite in2="blur-11" operator="in"/>
      <feComposite in="SourceGraphic"/>
    </filter>
  </defs>
  <g id="Layer_3" data-name="Layer 3">
    <rect class="cls-12" width="1080" height="1079.81"/>
  </g>
  <g id="Layer_1" data-name="Layer 1">
    <path class="cls-8" d="M2.94,1079.81c-1.93.15-2.94.19-2.94.19-.07-.07.94-.14,2.94-.19Z"/>
    <g class="cls-9">
      <path class="cls-8" d="M1080,780v300h-100v-300c-32.39-1.43-376.81-23.16-376.81-300h14.36c0,276.84,422.69,298.57,462.45,300Z"/>
    </g>
    <g class="cls-2">
      <path class="cls-5" d="M980,780v300h-100v-300c-25.03-1.43-291.17-23.16-291.17-300h14.36c0,276.84,344.42,298.57,376.81,300Z"/>
    </g>
    <g class="cls-14">
      <path class="cls-5" d="M491.17,480c0,276.84-266.14,298.57-291.17,300v300h-100v-300c32.4-1.43,376.81-23.16,376.81-300h14.36Z"/>
    </g>
    <g class="cls-15">
      <path class="cls-8" d="M880,780v300h-100v-300c-17.67-1.43-205.53-23.16-205.53-300h14.36c0,276.84,266.14,298.57,291.17,300Z"/>
    </g>
    <g class="cls-6">
      <path class="cls-8" d="M505.53,480c0,276.84-187.86,298.57-205.53,300v300h-100v-300c25.03-1.43,291.17-23.16,291.17-300h14.36Z"/>
    </g>
    <g class="cls-4">
      <path class="cls-5" d="M780.81,780v300h-100v-300c-10.31-1.43-119.89-23.16-119.89-300h14.36c0,276.84,187.86,298.57,205.53,300Z"/>
    </g>
    <g class="cls-13">
      <path class="cls-5" d="M519.89,480c0,276.84-109.58,298.57-119.89,300v300h-100v-300c17.67-1.43,205.53-23.16,205.53-300h14.36Z"/>
    </g>
    <g class="cls-10">
      <path class="cls-8" d="M680,780v300h-100v-300c-2.95-1.43-34.26-23.16-34.26-300h14.37c0,276.84,109.58,298.57,119.89,300Z"/>
    </g>
    <g class="cls-1">
      <path class="cls-8" d="M534.26,480c0,276.84-31.31,298.57-34.26,300v300h-100v-300c10.31-1.43,119.89-23.16,119.89-300h14.37Z"/>
    </g>
    <g class="cls-7">
      <path class="cls-5" d="M580,780v300h-80v-300c2.95-1.43,34.26-23.16,34.26-300h11.48c0,276.84,31.31,298.57,34.26,300Z"/>
    </g>
    <g class="cls-3">
      <path class="cls-8" d="M476.81,480c0,276.84-344.41,298.57-376.81,300v300H0v-300c39.76-1.43,462.45-23.16,462.45-300h14.36Z"/>
    </g>
  </g>
  <g id="Layer_2" data-name="Layer 2">
    <g>
      <path class="cls-11" d="M609.9,113.99c26.03,42.17,50.88,110.23,57.14,219.15l48.21,58.81c11.39,14.25,17.59,31.96,17.58,50.2v105.99c0,8.87-7.19,16.07-16.07,16.07-5.06,0-9.82-2.38-12.86-6.43l-36.16-48.21c-5.33-7.13-13.5-12.86-24.17-18.32-6.88-3.47-13.31-6.17-20.15-9.06l-6.3-2.67c-22.5,13.76-49.81,20.41-77.13,20.41s-54.64-6.65-77.13-20.41c-2.16.94-4.29,1.84-6.36,2.7-6.78,2.86-13.21,5.56-20.09,9.03-10.67,5.46-18.83,11.18-24.17,18.32l-36.16,48.21c-5.32,7.1-15.4,8.54-22.5,3.21-4.05-3.03-6.43-7.8-6.43-12.86v-105.99c0-18.25,6.21-35.95,17.61-50.2l.13-.16,48.11-58.65c6.33-106.8,31.14-174.64,57.01-217.13,14.98-24.65,30.21-40.56,42.1-50.46,5.99-5.02,12.46-9.43,19.32-13.18,2.6-1.51,5.54-2.33,8.55-2.38,3.25,0,5.46.87,8.03,2.06,1.2.54,2.75,1.34,4.66,2.41,3.79,2.12,8.9,5.37,14.88,10.12,11.99,9.55,27.32,25.04,42.33,49.4M588.21,242.83c0-35.51-21.6-64.28-48.21-64.28s-48.21,28.76-48.21,64.28,21.6,64.28,48.21,64.28,48.21-28.76,48.21-64.28"/>
      <path class="cls-11" d="M540,516.01c16.07,0,32.11-1.48,47.53-4.47l-34.68,46.25c-5.32,7.1-15.4,8.54-22.5,3.21-1.22-.91-2.3-2-3.21-3.21l-34.68-46.25c15.43,2.99,31.5,4.47,47.53,4.47"/>
    </g>
    <path class="cls-5" d="M609.88,225.37v34.94h-11.28c-1.2,4.07-2.82,7.95-4.81,11.61l6.4,6.41,1.55,1.54-12.35,12.35-12.35,12.35-7.97-7.95v-.03c-3.66,1.98-7.56,3.61-11.63,4.82v11.26h-34.93v-11.26c-.5-.15-1.02-.31-1.52-.48-3.51-1.15-6.89-2.61-10.09-4.35l-7.97,7.98-24.7-24.71,1.55-1.57,6.41-6.4c-1.98-3.68-3.61-7.56-4.82-11.63h-11.26v-34.94h11.25c1.22-4.07,2.84-7.94,4.82-11.63l-6.39-6.37-1.57-1.57,24.74-24.71,1.55,1.57,6.4,6.4c3.66-1.98,7.55-3.61,11.61-4.81v-11.26h34.93v11.28c1.01.29,2.01.63,3,.96,2.98,1.06,5.87,2.35,8.61,3.83h.01l6.4-6.4,1.57-1.57,24.71,24.71-7.97,7.97c1.98,3.66,3.61,7.56,4.81,11.63h11.26Z"/>
  </g>
</svg>