<?xml version="1.0" encoding="UTF-8"?>
<svg id="Layer_1" data-name="Layer 1" xmlns="http://www.w3.org/2000/svg" viewBox="0 0 280 300">
  <defs>
    <style>
      .cls-1 {
        fill: #888b8d;
      }

      .cls-1, .cls-2, .cls-3, .cls-4 {
        stroke-width: 0px;
      }

      .cls-2 {
        fill: #fff;
      }

      .cls-3 {
        fill: #231f20;
      }

      .cls-4 {
        fill: #ffcd00;
      }
    </style>
  </defs>
  <path class="cls-4" d="M140,265.96c-64.04,0-115.96-51.92-115.96-115.96s51.92-115.96,115.96-115.96,115.96,51.92,115.96,115.96c-.08,64.01-51.95,115.88-115.96,115.96"/>
  <path class="cls-3" d="M140,20.85C68.67,20.85,10.85,78.67,10.85,150s57.82,129.15,129.15,129.15,129.15-57.82,129.15-129.15S211.33,20.85,140,20.85M140,265.84c-64.04,0-115.96-51.92-115.96-115.96,0-64.04,51.92-115.96,115.96-115.96,64.04,0,115.96,51.92,115.96,115.96,0,.04,0,.08,0,.12-.08,64.01-51.95,115.88-115.96,115.96"/>
  <path class="cls-3" d="M221.95,167.99c5.54-8.46,6.15-24.91,4.92-30.38-.25,0-16.33-8.86-53.2-21.19,2.74-1.35,5.21-3.17,7.32-5.38-4.99-4.27-10.67-7.66-16.79-10.02,8.09-5.2,22.17-20.36,24.94-23.46-7.27-2.95-14.98-4.68-22.82-5.1,6.49-5.1,18.88-13.31,23.95-14.73-5.88-2.64-12.25-3.99-18.7-3.97-17.31-.4-26.51,3.44-39.21,9.93,0,0,4.83-12.79,5.6-15.13-4.62,2.26-9.01,4.95-13.13,8.03-8,6.15-15.38,11.32-21.53,19.16-3.01,3.94-3.94,9.09-2.49,13.84,1.29,3.1,2.37,6.29,3.23,9.53,1.23,6.15.49,6.3,0,6.4-4.74,1.18-8.9,4.03-11.72,8.03-3.59,4.91-6.17,10.48-7.6,16.39-5.07-1.87-10.44-2.76-15.84-2.64-16.61,0-22.72,11.35-23.83,14.36-4.67,13.07,2.37,30.41,2.37,30.41.38,6.84,1.53,13.62,3.44,20.2.95,2.86,5.87,3.38,9.23,3.6,8.24.37,7.56,11.62,5.35,17.65,6.46-1.14,11.39-6.4,12.12-12.92,2.59,1.58,4.83,3.68,6.58,6.15,3.1-3.6,4.25-8.49,3.08-13.1,8.15,9.78,9.78,27.68,9.96,27.68,1.98-1.77,3.81-3.7,5.47-5.78,0,0-1.35,9.62-3.6,9.99l-4.77.8-7.44,9.23h21.53c.82-6.84,2.42-13.57,4.77-20.05,1.79,1.89,3.72,3.64,5.78,5.23.18-.28-.25-6.15,5.66-19.9,1.39,2.36,2.96,4.62,4.7,6.73,15.93-3.26,51.57-25.58,51.94-25.92.86,1.11,9.99,14.91,22.79,19.47-3.08,9.23-18.45,23.89-20.08,24.23l-4.49.83-7.44,9.23h22.88c1.66-10.98,20.2-24.11,25.09-33.83.65-1.19.58-2.63-.18-3.75-2.81-3.2-4.07-7.47-3.44-11.69-.18-6.86,2.74-12.61,5.5-18.23"/>
  <path class="cls-2" d="M61.37,164.98c-2.92.03-5.58,1.68-6.92,4.27v1.63l7.87-2.74,1.32-2.71c-.7-.36-1.49-.52-2.28-.46"/>
  <path class="cls-1" d="M128.31,193.05c1.28,2.14,2.7,4.2,4.24,6.15,14.48-3.08,40.5-19.28,40.84-19.59l-45.08,13.44Z"/>
  <path class="cls-1" d="M146.43,102.55l-9.44,6.15c10.18-.14,20.34,1,30.23,3.41-5.98-4.95-13.14-8.27-20.79-9.62"/>
  <path class="cls-2" d="M173.64,81.37c-23.31,1.11-33.12,7.41-33.12,7.41l7.01-8.49c6.43-8.09,14.23-14.99,23.03-20.39-42.53,17.07-51.29,29.37-51.29,29.37l2.28-10.39c.28-1.85,2.83-10.89,3.26-13.1-13.99,11.41-17.8,18.73-16.17,24.29,1.11,3.75,5.17,12.3,5.32,17.96.15,6.64-2.18,12.52-4.12,20.14,0,0,24.6,7.96,37.79,4.8,0,0-5.78-4.58-5.9-7.16,9.42-2.53,18.13-7.19,25.46-13.62h0c-9.89-2.41-20.05-3.56-30.23-3.41l9.44-6.15h0c9.23-7.01,19.86-11.81,27.24-21.19"/>
  <path class="cls-1" d="M121.55,78.87c11.82-7.53,24.71-13.24,38.22-16.94,3.53-.99,7.14-1.67,10.79-2.03-42.53,17.07-51.29,29.37-51.29,29.37l2.28-10.39Z"/>
  <path class="cls-1" d="M147.56,80.29c8.7-.85,17.48-.48,26.08,1.08-23.31,1.11-33.12,7.41-33.12,7.41l7.04-8.49"/>
  <path class="cls-2" d="M65.71,155.29c4.49-1.85,8.43-8.83,9.75-15.38-.05-2.71-.33-5.42-.83-8.09,0,.74-2.18,18.17-15.19,18.7-3.08,0-4.18.68-4.61,4.24-.08.44-.08.88,0,1.32h0c3.6.94,7.41.68,10.85-.74"/>
  <path class="cls-1" d="M58.11,160.15s10.89,1.51,14.48-5.44c2.06-4.67,3.04-9.75,2.86-14.85h0c-1.32,6.61-5.26,13.59-9.75,15.38-3.44,1.42-7.25,1.68-10.85.74h0c.18,1.9,1.46,3.51,3.26,4.12"/>
</svg>