<?xml version="1.0" encoding="UTF-8"?><svg id="Layer_1" xmlns="http://www.w3.org/2000/svg" viewBox="0 0 643.81 308.05"><defs><style>.cls-1{fill:none;stroke:#aa6f3a;stroke-linecap:square;stroke-miterlimit:3.89;stroke-width:3.89px;}.cls-2{fill:#c3a341;}.cls-3{fill:#aa6f3a;}.cls-4{fill:#fefefe;}.cls-5{fill-rule:evenodd;}</style></defs><path class="cls-2" d="m230.43,58.94l-9.47,13.29c50.7,11.19,84.53-29.85,84.53-29.85-23.74,14.66-40.14,10.3-45.21-.7-5.06-11,2.97-21.47,25.83-20.07,22.87,1.4,39.1,14.14,75.23,13.61,36.13-.52,44.86-15.5,44.86-15.5-28.45,15.39-56.03,6.77-90.06-7.72-34.04-14.49-64.06-11.52-82.91-.87-15.01,8.48-30.11,20.04-35.65,24.41l32.85,23.4Zm-29.66-40.83s-34.58-19.3-76.08.69l11.67-1.9,2.68,16.47c2.69-4.22,9.13-11.64,22.28-14.57,18.85-4.19,39.45-.7,39.45-.7Zm339.04,208.39c-5.96.27-8.67-1.99-24.38-3.16-15.71-1.17-20.68,16.43-20.68,16.43,0,0,3.7-.9,7.58-.36,3.88.54,8.49,4.97,16.7,4.97s10.38-5.24,10.38-5.24c-2.62,2.62-7.04,3.52-12.37,1.72-5.33-1.81-6.59-7.13-1.45-11.56,5.15-4.42,10.38-.27,21.85-.45,11.47-.18,14.18-7.67,14.18-7.67,0,0-5.87,5.06-11.83,5.33Zm-180.27-89.96c9.56-3.02,16.98-9.44,22.93-14.4,10.47-8.73,20.94-12.04,20.94-12.04-18.71.44-29.59,11.47-42.75,16.39l3.4,2.64-4.98,6.82c.16.19.3.4.46.59Zm148.31,70.77c-5.01-3.93-18.82-10.43-41.44-8.53-22.62,1.9-35.75,7.31-55.12,14.63-19.37,7.31-37.92,20.72-63.52,21.67-25.6.95-38.46-7.86-38.6-15.17-.14-7.31,5.82-17.34,23.43-15.85,17.61,1.49,35.12,8.44,35.12,8.44-12.46-8.67-31.42-21.49-63.93-21.49-24.33,0-44.17,7.69-52.63,11.56l5.54,3.99-30.42,42.21-27.63-19.91c-7,5.92-14.71,10.83-23.01,14.64l5.43,34.35-37.36,5.9c21.83,17.84,65.72,11.19,82.83,7.93,17.74-3.39,45.23-10.02,77.06-10.4,31.83-.37,47.4,16.64,47.4,16.64-5.28-11.91-29.12-24.66-52.28-25.2-23.16-.54-34.13,5.15-70.56,6.5-36.43,1.36-42.8-12.46-42.8-12.46,22.21,5.55,49.71-8.26,69.07-19.1,19.37-10.83,30.07-1.49,40.09,3.52,10.02,5.01,18.82,7.04,30.47,8.12,11.65,1.08,27.09,13.81,43.61,22.77,16.52,8.96,32.23-.97,32.23-.97-11.51,4.2-35.62-5.96-35.62-16.66s12.05-16.39,27.49-12.59c15.44,3.79,31.29,17.34,49.98,16.66,18.69-.68,23.02-7.58,23.02-7.58-7.31,5.42-18.15,5.96-34.81.27-16.66-5.69-38.19-18.42-38.19-18.42,12.73-6.23,28.85-21.13,58.51-32.1,29.66-10.97,56.61-3.39,56.61-3.39Zm-248.43-46.6c16.41-9.25,31.94-6.28,42.94-1.74,5.62,2.32,13.83,5.41,20.52,7.88l.27-.39c-1.55-1.79-2.84-3.81-3.8-6l-8.89.63-.62-11.07,7.6-.66c.03-.5.1-.98.17-1.47-10.31-8.79-22.06-18.46-31.49-20.15-9.37-1.69-16.64-1.21-22.61-.06l4.39,26.33-33.59,5.59c-.73,9.13-2.68,18.06-5.82,26.64l2.62,1.89c10.55-7.02,14.45-19.59,28.3-27.41Zm.42-55.12c6.92-.24,14.8.71,22.62,3.8,10.69,4.22,21.29,11.94,35.87,19.23l.94-1.17,5.8,4.36c.47.21.96.42,1.44.63,1.72-1.34,3.61-2.45,5.66-3.28l-.82-6.14c-17.48-8.35-39.05-23.8-56.56-31.78-20.91-9.53-48.29-12.68-57.72-13.53l-6.13,8.6c5.65,6.73,10.39,14.12,14.12,22.06l34.31-5.71.49,2.92Zm66.45-44.43c-20.13,5.43-25.32,16.55-24.45,27.17.86,10.62,26.31,23.71,62.49,4.07,0,0-28.9,3.71-36.8-2.35-7.9-6.05,6.67-15.19,40.38-7.16,33.71,8.03,53.72,12.5,70.89,10.02,17.17-2.48,25.81-13.16,25.81-13.16,0,0-16.55,3.89-28.53-1.17-11.98-5.06-15.44-10.74-15.44-10.74,0,0,9.51-14.7,32.85-14.08,23.34.62,43.97,16.55,53.23,25.69,9.26,9.14,12.35,13.22,12.35,13.22,0,0-8.03-23.09-26.43-36.43-18.4-13.34-40.26-21.86-70.15-14.94-29.89,6.92-38.78,20.5-51.37,21-12.6.49-24.7-6.55-44.83-1.11Zm163.77,47.86c-11.47,1.08-18.6-9.48-10.02-14.99s17.42-1.16,17.42-1.16c-5.8-7.22-15.08-6.96-26.29,0-11.21,6.96-17.27,5.93-17.27,5.93,3.66,7.2,11.77,16.64,21.16,17,9.39.36,15.71-2.44,30.79-7.31,15.08-4.87,22.48,2.44,22.48,2.44-1.63-2.26-5.87-7.22-15.26-7.13-9.39.09-11.56,4.15-23.02,5.24Zm-141.92,19.55c.65.21,1.3.44,1.92.7l.43-.57c-.75,0-1.55-.05-2.35-.13Z"/><path class="cls-3" d="m138.07,15.33l2.13,13.1c3.74-4.27,10.19-9.38,20.7-11.72,9.18-2.04,18.66-2.31,26.12-2.03-11.22-3.13-28.85-5.58-48.95.65Zm-.11,23.04l-3.18-19.52-9.79,1.6-9.48.92,8.35-4.52c41.91-20.19,76.37-1.17,77.83-.64,2.76,1.67,5.54,3.42,8.26,5.19-4.28-.88-7.44-1.42-9.5-1.65-1.07-.14-21.34-3.59-38.72.68-12.5,2.78-18.57,9.8-21.08,13.73l-2.69,4.21Zm86.26,32.33c32.71,6,58.1-10.25,70.82-21.05-9.24,3.78-17.71,4.74-24.55,2.68-5.46-1.65-9.7-5.23-11.94-10.1-2.38-5.17-2.15-10.25.63-14.32,4.28-6.25,13.89-9.25,27.05-8.45,9.58.58,18.04,3.12,27,5.81,12.67,3.8,27,8.11,48.08,7.8,15.37-.22,25.63-3.13,32.28-6.29-25.4,7.51-50.67-1.54-78.2-13.26-29.62-12.61-59.98-12.97-81.23-.97-13.31,7.52-26.68,17.47-33.4,22.68l32.32,23.03-8.87,12.45Zm14.06,5.1c-5.65,0-11.57-.6-17.72-1.96l-2.81-.62,10.03-14.08-33.37-23.77,2-1.57c5.78-4.56,20.86-16.08,35.9-24.57,22.27-12.58,53.9-12.29,84.59.78,31.49,13.4,59.87,23.24,88.41,7.79,2.88-2.01,5.18-4.16,6.83-6.54-1.13,3.15-2.53,6.24-4.28,9.17-.38.65-9.69,15.91-46.48,16.44-21.63.32-36.29-4.08-49.23-7.96-8.74-2.62-17-5.1-26.14-5.65-11.6-.71-20.23,1.77-23.67,6.8-2.56,3.74-1.59,7.82-.32,10.58,1.8,3.92,5.11,6.7,9.58,8.05,8.52,2.57,20.2-.33,32.9-8.17,2.65-1.77,5.67-3.99,9.01-6.71-2.31,3.65-4.48,6.84-6.54,9.55-.3.37-27.3,32.46-68.69,32.46Zm88.02-14.88h0Zm15.27-.16c-4.45,0-9.32.52-14.78,2-16.29,4.4-24.05,12.87-23.05,25.17.24,2.97,3,6.15,7.38,8.52,8.6,4.65,23.85,6.25,42.79-1.45-9.4.52-22.25.37-27.54-3.68-2.63-2.01-3.51-4.66-2.35-7.08,2.97-6.25,19.16-9.45,44.34-3.45,33.59,8,53.42,12.4,70.17,9.98,9.39-1.36,16.12-5.29,20.15-8.37-6.12.7-15.55.97-23.33-2.32-12.41-5.24-16.17-11.26-16.32-11.51l-.62-1.02.65-1c.41-.64,10.37-15.58,34.5-14.95,26.62.7,48.46,20.26,54.52,26.23,1.47,1.46,2.8,2.78,3.97,3.99-4.17-7.55-10.91-17.35-20.51-24.31-21.76-15.78-43.56-20.42-68.6-14.63-16.25,3.76-26.07,9.46-33.97,14.04-6.51,3.78-11.66,6.76-17.76,7-4.66.18-9.2-.61-13.99-1.45-4.73-.83-9.83-1.72-15.64-1.72Zm-12.52,43.47c-10.25,0-16.98-2.92-19.75-4.42-5.6-3.03-9.01-7.25-9.36-11.57-.8-9.9,3.02-23,25.86-29.16,13.4-3.62,23.32-1.88,32.07-.35,4.59.8,8.93,1.56,13.18,1.4,5.16-.2,9.71-2.84,16-6.49,8.12-4.71,18.22-10.57,35.02-14.46,26.19-6.06,48.98-1.21,71.7,15.26,18.67,13.53,26.77,36.38,27.11,37.35.87,2.85,1.48,6.05,1.74,9.53-1.55-2.58-3.23-5.16-5.06-7.76-.03-.04-3.16-4.12-12.17-13.01-11.96-11.8-31.89-24.61-51.94-25.14-18.54-.48-27.77,8.9-30.41,12.15,1.52,1.73,5.52,5.52,13.79,9.01,11.25,4.76,27.19,1.11,27.35,1.07,1.74-.36,3.41-.81,4.98-1.38-.92,1.48-1.93,2.97-3.06,4.43-.37.46-9.32,11.29-27.02,13.85-17.45,2.52-37.56-1.94-71.6-10.05-24.99-5.95-38.39-2.04-40.01,1.38-.34.72.07,1.53,1.23,2.42,5.97,4.57,27.58,2.97,35.4,1.97l1.15,3.57c-14.74,8-26.91,10.39-36.19,10.39Zm161.01,4.55h0Zm-32.96-8.44c4.13,6.64,10.98,13.04,18.04,13.31,6.25.24,11.21-1.03,18.62-3.43-1.08.18-2.25.34-3.52.46h0c-8.02.76-13.83-3.51-15.42-8.12-1.36-3.94.21-7.82,4.19-10.37,2.75-1.76,5.5-2.62,8.04-2.94-5.02-.22-10.44,2.25-14.87,5-6.85,4.25-11.96,5.66-15.08,6.09Zm19.59,17.15c-.55,0-1.12-.01-1.69-.03-10.96-.42-19.48-11.54-22.79-18.04l-1.72-3.38,3.74.64s5.66.71,15.94-5.67c12.24-7.6,22.46-7.44,28.78.43,2.1,2.78,3.82,5.32,5.13,7.59-2.17-1.63-4.64-3.18-7.45-4.68-.32-.15-8.02-3.78-15.55,1.06-2.48,1.59-3.42,3.69-2.65,5.92,1.08,3.12,5.47,6.13,11.46,5.57,5.38-.51,8.57-1.68,11.64-2.82,3.31-1.22,6.43-2.38,11.54-2.43,7.24-.08,13.04,2.67,16.83,7.93,1.36,3.13,2.18,6.06,2.42,8.74-1.55-2.07-3.3-4.15-5.31-6.27-.27-.25-6.88-6.4-20.56-1.98-2.5.81-4.77,1.56-6.84,2.25-9.85,3.28-15.59,5.19-22.92,5.19Zm-126,13.87l-1.37-.57c-.52-.22-1.1-.43-1.77-.64l-7.21-5.8c.83.09,9.55,2.22,10.13,2.21l3.87-.03-3.65,4.84Zm-24.66-1.44c.07.03.14.06.21.09,1.22-.87,2.5-1.62,3.83-2.26l-.49-3.7c-8.24-4.02-17.44-9.58-26.34-14.96-9.96-6.02-20.26-12.25-29.26-16.35-19.68-8.97-44.97-12.22-56.02-13.26l-4.64,6.52c5.03,6.16,9.33,12.89,12.82,20.03l34.78-5.79.53,3.18c7.54-.06,14.99,1.32,21.71,3.97,6.17,2.44,12.11,5.9,18.99,9.9,4.89,2.85,9.93,5.78,15.66,8.7l1.13-1.4,7.1,5.34Zm.75,4.48l-1.33-.58c-.39-.17-.78-.34-1.17-.51l-.37-.22-4.32-3.25-.75.93-1.38-.69c-6.41-3.21-12.16-6.56-17.24-9.51-6.75-3.93-12.58-7.32-18.47-9.65-6.72-2.66-14.28-3.93-21.85-3.67l-1.67.06-.45-2.69-33.85,5.64-.61-1.31c-3.66-7.78-8.32-15.06-13.85-21.65l-.95-1.13,7.62-10.7,1.09.1c10.58.94,37.45,4.17,58.34,13.69,9.2,4.2,19.6,10.48,29.65,16.56,9.16,5.54,18.63,11.27,26.94,15.23l.93.44,1.15,8.63-1.37.55c-1.84.75-3.59,1.76-5.2,3.01l-.89.69Zm37.65-7.64l2.26,1.76-3.01,4.12c6.64-3.08,12.17-7.7,16.78-11.55l.78-.65c3.08-2.56,6.14-4.67,8.96-6.37-5.84,1.92-10.95,4.77-15.95,7.57-3.32,1.86-6.51,3.64-9.83,5.13Zm-5.57,11.75l-1.01-1.29c-.07-.1-.15-.2-.22-.29l-.96-1.14,4.77-6.53-4.63-3.6,3.2-1.19c4.21-1.57,8.19-3.8,12.4-6.16,8.84-4.94,17.97-10.06,30.98-10.36,4.06.15,9.3.44,15.68.84-6.61.68-11.61,1.66-15.05,2.88-.1.03-10.27,3.33-20.3,11.69l-.78.65c-5.92,4.94-13.29,11.1-22.79,14.1l-1.26.4Zm-76.92,13.97c6.85,0,13.91,1.49,21.14,4.48,1.61.66,3.44,1.39,5.37,2.15l-.62-11.08,6.62-.57c-10.12-8.55-20.5-16.63-28.67-18.1-7.16-1.29-13.59-1.42-20.08-.39l4.18,25.12c3.94-1.07,7.96-1.6,12.05-1.6Zm34.86,9.82c.6.23,1.2.45,1.78.67-.14-.25-.27-.51-.4-.77l-1.38.1Zm-86.03,22.97l.36.26c3.92-2.89,6.94-6.67,10.12-10.65,4.54-5.69,9.24-11.57,17.23-16.08,1.54-.86,3.09-1.64,4.65-2.33l-27.06,4.5c-.78,8.29-2.57,16.45-5.31,24.29Zm.3,4.92l-4.87-3.51.5-1.36c3.08-8.4,5-17.2,5.71-26.14l.12-1.49,33.18-5.52-4.38-26.28,1.83-.35c7.59-1.46,14.99-1.44,23.3.06,9.63,1.73,20.82,10.72,32.39,20.58l.79.68-.14,1.03c-.06.47-.13.91-.16,1.35l-.12,1.62-7.38.64.41,7.3,8.3-.59.54,1.23c.88,2,2.05,3.86,3.49,5.52l.97,1.12-1.95,2.81-1.38-.51c-6.18-2.28-14.78-5.51-20.59-7.91-14.69-6.06-28.58-5.51-41.27,1.64-7.35,4.15-11.81,9.74-16.13,15.14-3.65,4.58-7.1,8.9-12.06,12.2l-1.1.73Zm268.65,46.89c.92,0,1.89.05,2.88.19,1.71.24,3.35,1.01,5.25,1.91,2.09.99,4.37,2.07,7.17,2.63-2.41-1.2-4-3.14-4.46-5.49-.58-2.97.81-6.16,3.81-8.73,1.51-1.3,3.02-1.99,4.59-2.3-1.14-.11-2.36-.22-3.68-.31-10.42-.8-15.57,7.59-17.61,12.18.63-.05,1.32-.09,2.05-.09Zm19.32,8.95c-5.63,0-9.62-1.89-12.82-3.4-1.62-.76-3.01-1.42-4.15-1.58-3.48-.49-6.84.32-6.87.32l-3.17.77.89-3.14c.05-.19,5.57-19.06,22.65-17.82,8.57.64,13.34,1.6,16.83,2.3,2.89.58,4.8.97,7.32.85,5.15-.23,10.45-4.68,10.68-4.87l.93-.79c1.45-1.37,2.93-3.12,4.42-5.29-.74,2.44-1.29,4.64-1.73,6.54l-.59,1.64c-.13.36-3.3,8.73-15.94,8.93-4.59.07-8.23-.52-11.15-1.01-4.85-.79-7.09-1.06-9.48,1-1.93,1.66-2.86,3.52-2.55,5.11.27,1.4,1.5,2.56,3.36,3.19,4.35,1.47,8.14,1.01,10.41-1.26.53-.14,1.59-1.24,3.11-3.37.44,2.06.48,3.91,0,5.45-.11.26-2.76,6.42-12.14,6.42Zm-370.44,38.64c20.76,13.08,57.05,8.82,77.59,4.9,2.7-.52,5.62-1.11,8.75-1.74,17.51-3.53,41.49-8.37,68.65-8.69,13.97-.15,24.85,2.9,32.77,6.49-9.81-6.14-23.66-10.92-37.67-11.25-11.35-.28-19.91,1.01-29.81,2.49-10.41,1.56-22.21,3.32-40.63,4.01-37.29,1.37-44.32-12.96-44.6-13.57l-1.66-3.61,3.86.97c20.75,5.19,47.07-7.38,67.68-18.91,17.65-9.87,28.81-3.69,37.77,1.28,1.42.79,2.76,1.53,4.1,2.2,9.13,4.56,17.48,6.79,29.8,7.93,8.32.78,18.26,7.04,28.79,13.67,5.03,3.17,10.24,6.45,15.55,9.33,6.87,3.73,13.65,3.94,19.06,3.04-6.22-1.12-12.59-3.79-17.2-7.02-5.27-3.69-8.05-7.83-8.05-11.97,0-4.57,1.91-8.48,5.52-11.31,5.63-4.41,14.5-5.55,24.34-3.13,6.06,1.49,12,4.34,18.29,7.37,9.86,4.74,20.06,9.66,31.16,9.24.45-.02.9-.04,1.34-.06-4.13-.66-8.67-1.84-13.67-3.54-16.65-5.69-37.66-18.06-38.55-18.58l-3.04-1.8,3.18-1.55c4.14-2.03,8.74-5.05,14.06-8.55,10.99-7.23,24.67-16.24,44.63-23.62,17.35-6.42,33.64-6.65,44.49-5.65-6.57-2.05-15.98-3.63-28.5-2.58-20.97,1.76-33.61,6.55-51.12,13.19l-3.49,1.32c-5.56,2.1-10.99,4.68-16.74,7.41-14.18,6.73-28.84,13.7-47.38,14.38-16.45.6-29.77-2.72-36.55-9.13-2.58-2.44-3.97-5.17-4.02-7.91-.09-4.6,1.85-9.09,5.31-12.33,3.2-3,9.29-6.36,20.19-5.45,7.81.66,15.52,2.35,21.78,4.06-11.56-6.67-27.8-13.3-50.74-13.3-21.57,0-39.74,6.26-48.8,10.06l4.38,3.16-32.65,45.3-27.98-20.17c-6.44,5.29-13.49,9.77-20.98,13.35l5.5,34.82-34.66,5.48Zm209.27,23.37c-3.1-3.63-5.84-6.64-8.26-9.07-.15-.16-15.46-16.32-45.97-16.02-26.8.31-50.58,5.11-67.94,8.62-3.14.63-6.08,1.23-8.79,1.74-22.47,4.29-63.31,8.91-84.39-8.32l-3.3-2.69,39.68-6.27-5.36-33.89,1.31-.6c8.12-3.74,15.72-8.57,22.58-14.37l1.14-.96,27.29,19.67,28.19-39.12-6.65-4.79,2.98-1.36c9.57-4.38,29.23-11.74,53.42-11.74,33.63,0,53.28,13.66,65.01,21.83,3,2.72,6,5.67,8.98,8.78-3.64-2.13-7.22-3.94-10.77-5.45-.17-.07-17.47-6.86-34.58-8.31-7.51-.64-13.48.9-17.26,4.43-2.67,2.5-4.17,5.96-4.1,9.48.03,1.68,1.01,3.49,2.83,5.21,5.95,5.63,18.58,8.65,33.79,8.09,17.76-.66,32.06-7.45,45.89-14.02,5.82-2.77,11.32-5.38,17.02-7.53l3.49-1.32c17.79-6.75,30.65-11.62,52.15-13.43,26.99-2.26,40.37,7.05,42.78,8.93l11.51,9.38c-4.06-2.43-8.45-4.43-13.2-6.04-.27-.08-26.74-7.28-55.44,3.34-19.55,7.23-33.03,16.1-43.85,23.23-4.16,2.74-7.89,5.19-11.37,7.15,6.46,3.65,22.19,12.22,34.86,16.55,15.44,5.27,25.94,5.27,33.06,0,5.07-3.69,8.31-6.6,9.64-8.79-1.99,3.32-4.27,7.11-6.89,11.33-.2.32-5.09,7.77-24.57,8.48-12.07.43-22.68-4.67-32.96-9.61-6.1-2.93-11.87-5.71-17.54-7.1-8.57-2.1-16.45-1.2-21.08,2.43-2.65,2.08-4.05,4.96-4.05,8.31,0,2.81,2.28,5.95,6.43,8.85,8.01,5.61,20.21,8.36,26.64,6.02,3.42-1.19,5.98-2.2,7.65-3.06-1.3,2.45-3.27,4.63-5.98,6.46-.68.43-16.86,10.42-34.16,1.03-5.42-2.94-10.68-6.25-15.77-9.46-10.13-6.38-19.7-12.41-27.11-13.1-12.83-1.19-21.56-3.52-31.15-8.32-1.41-.71-2.78-1.47-4.24-2.27-8.98-4.98-18.27-10.12-34.07-1.29-20.61,11.53-44.11,22.68-64.73,20.31,4.78,3.62,15.39,8.49,37.46,7.67,18.21-.68,29.9-2.42,40.21-3.97,10.08-1.51,18.78-2.81,30.47-2.53,22.77.53,47.99,12.84,53.98,26.34,1.71,3.3,3.43,7.02,5.11,11.13Z"/><path class="cls-3" d="m215.82,151.52c0,20.82-7.92,39.78-20.9,54.05-14.7,16.15-35.88,26.29-59.44,26.29-44.37,0-80.34-35.97-80.34-80.34s35.97-80.34,80.34-80.34c20.78,0,39.72,7.89,53.99,20.84,16.19,14.7,26.36,35.91,26.36,59.5Zm19.65,8.14l33.59-5.59-8.55-51.32-34.31,5.71c-3.73-7.94-8.47-15.34-14.12-22.06l19.51-27.38-42.37-30.19-19.69,27.64c-8.55-3.15-17.45-5.13-26.53-5.88l-5.48-33.61-51.35,8.37,5.59,34.33c-8.03,3.74-15.51,8.51-22.32,14.23l-27.57-20.01-30.56,42.11,28.15,20.43c-3.07,8.31-5.02,16.97-5.83,25.82L0,147.46l7.97,51.41,34.37-5.33c3.68,8.06,8.39,15.58,14.05,22.43l-20.22,27.41,41.87,30.88,20.64-27.99c8.63,3.26,17.63,5.32,26.86,6.13l5.32,33.63,51.39-8.12-5.43-34.35c8.29-3.81,16.01-8.72,23.01-14.64l27.63,19.91,30.42-42.21-28.22-20.34c3.14-8.58,5.09-17.51,5.82-26.64Z"/><path class="cls-2" d="m214.88,151.3c0,20.81-7.91,39.78-20.9,54.05-14.7,16.15-35.88,26.29-59.44,26.29-44.37,0-80.34-35.97-80.34-80.34s35.97-80.34,80.34-80.34c20.78,0,39.72,7.89,53.99,20.84,16.19,14.7,26.35,35.91,26.35,59.5Zm16.51,4.43l32.72-5.45-7.12-42.77-33.33,5.55c-4.22-9.82-10-18.8-17.05-26.62l18.97-26.64-35.31-25.16-19.13,26.86c-9.9-4.04-20.61-6.5-31.82-7.05l-5.33-32.73-42.8,6.97,5.43,33.34c-9.92,4.22-18.99,10.05-26.89,17.16l-26.85-19.48-25.47,35.09,27.35,19.84c-3.96,9.69-6.39,20.16-7.01,31.12l-32.77,5.08,6.64,42.85,33.39-5.17c4.15,9.96,9.9,19.07,16.95,27.03l-19.69,26.69,34.89,25.74,20.05-27.19c9.97,4.16,20.78,6.71,32.11,7.31l5.18,32.76,42.83-6.77-5.28-33.37c10.19-4.28,19.49-10.24,27.55-17.55l26.91,19.39,25.35-35.18-27.42-19.76c4.02-9.93,6.45-20.67,6.95-31.91Z"/><path class="cls-1" d="m214.88,151.3c0,20.81-7.91,39.78-20.9,54.05-14.7,16.15-35.88,26.29-59.44,26.29-44.37,0-80.34-35.97-80.34-80.34s35.97-80.34,80.34-80.34c20.78,0,39.72,7.89,53.99,20.84,16.19,14.7,26.35,35.91,26.35,59.5Zm16.51,4.43l32.72-5.45-7.12-42.77-33.33,5.55c-4.22-9.82-10-18.8-17.05-26.62l18.97-26.64-35.31-25.16-19.13,26.86c-9.9-4.04-20.61-6.5-31.82-7.05l-5.33-32.73-42.8,6.97,5.43,33.34c-9.92,4.22-18.99,10.05-26.89,17.16l-26.85-19.48-25.47,35.09,27.35,19.84c-3.96,9.69-6.39,20.16-7.01,31.12l-32.77,5.08,6.64,42.85,33.39-5.17c4.15,9.96,9.9,19.07,16.95,27.03l-19.69,26.69,34.89,25.74,20.05-27.19c9.97,4.16,20.78,6.71,32.11,7.31l5.18,32.76,42.83-6.77-5.28-33.37c10.19-4.28,19.49-10.24,27.55-17.55l26.91,19.39,25.35-35.18-27.42-19.76c4.02-9.93,6.45-20.67,6.95-31.91Z"/><path class="cls-2" d="m134.52,226.57c-41.67,0-75.57-33.9-75.57-75.57s33.9-75.57,75.57-75.57c18.82,0,36.86,6.96,50.78,19.61l-19.66,21.66c-8.53-7.75-19.58-12.01-31.12-12.01-25.54,0-46.32,20.78-46.32,46.32s20.78,46.32,46.32,46.32c13.01,0,25.51-5.53,34.27-15.16l21.64,19.69c-14.29,15.71-34.67,24.73-55.91,24.73Z"/><path class="cls-1" d="m134.52,226.57c-41.67,0-75.57-33.9-75.57-75.57s33.9-75.57,75.57-75.57c18.82,0,36.86,6.96,50.78,19.61l-19.66,21.66c-8.53-7.75-19.58-12.01-31.12-12.01-25.54,0-46.32,20.78-46.32,46.32s20.78,46.32,46.32,46.32c13.01,0,25.51-5.53,34.27-15.16l21.64,19.69c-14.29,15.71-34.67,24.73-55.91,24.73Z"/><path class="cls-4" d="m561.43,136.93c-7.58,0-13.74,6.17-13.74,13.74s6.17,13.74,13.74,13.74,13.74-6.17,13.74-13.74-6.16-13.74-13.74-13.74Zm0,30.77c-9.39,0-17.02-7.64-17.02-17.02s7.64-17.02,17.02-17.02,17.02,7.64,17.02,17.02-7.64,17.02-17.02,17.02Zm-20.52-17.02c0-11.32,9.21-20.52,20.52-20.52s20.53,9.21,20.53,20.52-9.21,20.52-20.53,20.52-20.52-9.21-20.52-20.52Zm47.55,0c0-.17-.01-.34-.01-.52l.61-.03-.07-1.46-.61.03c-.02-.32-.05-.64-.08-.96l.6-.08-.2-1.44-.6.08c-.05-.32-.11-.64-.17-.95l.59-.14-.33-1.42-.58.13c-.08-.31-.17-.62-.26-.93l.58-.19-.45-1.38-.57.19c-.11-.3-.22-.6-.34-.9l.56-.24-.58-1.34-.56.24c-.13-.29-.27-.58-.42-.87l.54-.29-.69-1.28-.54.29c-.16-.28-.32-.55-.49-.83l.51-.34-.81-1.21-.51.34c-.18-.26-.37-.52-.56-.78l.48-.39-.91-1.14-.48.39c-.21-.24-.41-.49-.63-.73l.45-.43-1.01-1.05-.44.43c-.23-.23-.46-.45-.7-.66l.41-.47-1.1-.96-.4.46c-.25-.2-.5-.4-.76-.6l.37-.5-1.18-.86-.36.5c-.26-.18-.53-.36-.8-.53l.32-.53-1.25-.75-.32.53c-.28-.16-.56-.31-.85-.46l.27-.56-1.31-.63-.26.55c-.29-.13-.59-.26-.88-.38l.21-.57-1.36-.51-.21.57c-.3-.1-.61-.21-.91-.31l.16-.58-1.4-.39-.16.58c-.31-.08-.62-.15-.94-.22l.11-.59-1.43-.26-.11.59c-.32-.05-.64-.09-.96-.12l.06-.61-1.45-.13-.05.61c-.32-.02-.64-.03-.96-.05v-.61h-1.46v.61c-.47.01-.94.03-1.4.07l-.06-.61-1.45.15.06.61c-.32.04-.64.09-.95.14l-.12-.6-1.43.28.12.59c-.31.07-.63.14-.94.22l-.17-.58-1.4.41.17.58c-.31.1-.61.2-.91.31l-.22-.56-1.36.53.22.56c-.3.13-.59.26-.88.4l-.28-.55-1.3.65.27.54c-.28.15-.56.31-.84.47l-.33-.53-1.24.76.32.52c-.27.17-.53.36-.8.54l-.37-.5-1.17.87.37.5c-.25.2-.5.4-.75.61l-.41-.46-1.08.97.42.46c-.23.22-.47.44-.69.67l-.45-.42-.99,1.07.45.42c-.21.24-.43.48-.63.73l-.49-.38-.89,1.15.49.37c-.19.26-.38.52-.56.78l-.52-.33-.79,1.22.51.33c-.17.27-.32.55-.48.83l-.55-.29-.67,1.29.54.28c-.14.29-.28.58-.41.87l-.57-.23-.56,1.35.56.23c-.12.3-.23.6-.33.91l-.58-.18-.43,1.39.58.18c-.09.31-.17.62-.25.93l-.59-.13-.31,1.42.59.13c-.06.31-.12.63-.17.95l-.6-.07-.18,1.45.6.07c-.03.32-.05.64-.07.96l-.61-.02-.05,1.46.61.02c0,.08,0,.15,0,.23,0,.25.01.49.02.74l-.61.03.08,1.45.61-.03c.02.32.06.64.09.96l-.6.09.21,1.44.6-.09c.05.32.11.63.17.95l-.59.14.34,1.42.58-.14c.08.31.17.62.26.93l-.57.19.47,1.38.57-.19c.11.3.23.6.35.9l-.56.25.59,1.33.56-.24c.14.29.28.58.43.86l-.54.3.7,1.28.54-.3c.16.28.33.55.5.82l-.51.35.82,1.21.51-.35c.19.26.37.52.57.78l-.48.39.92,1.13.48-.39c.21.24.42.49.64.72l-.44.43,1.02,1.04.44-.43c.23.22.46.45.69.66l-.4.47,1.11.95.4-.47c.25.2.5.4.76.59l-.36.5,1.19.84.35-.5c.26.18.54.35.81.52l-.31.53,1.26.73.31-.53c.28.15.57.3.85.45l-.26.56,1.32.62.26-.55c.29.13.59.25.89.37l-.21.57,1.37.5.21-.57c.3.1.61.2.92.29l-.16.59,1.41.38.16-.58c.31.07.62.15.94.21l-.1.59,1.43.25.1-.59c.32.05.63.09.95.12l-.05.61,1.45.12.05-.6c.32.02.64.03.96.03v.61s1.46-.01,1.46-.01v-.61c.32,0,.64-.02.96-.05l.06.61,1.45-.14-.06-.61c.32-.04.64-.08.96-.13l.11.59,1.43-.27-.11-.59c.31-.07.63-.14.94-.22l.16.58,1.4-.4-.16-.58c.31-.1.61-.2.91-.31l.22.57,1.36-.52-.22-.57c.3-.12.59-.25.88-.39l.27.55,1.31-.64-.27-.55c.29-.15.57-.3.85-.46l.32.53,1.25-.76-.32-.53c.27-.17.54-.35.8-.53l.37.5,1.17-.86-.37-.5c.25-.2.51-.39.75-.6l.41.46,1.09-.97-.41-.46c.24-.22.47-.44.7-.66l.45.42,1-1.06-.45-.42c.21-.24.42-.48.63-.73l.49.38.9-1.14-.48-.38c.19-.26.38-.52.56-.78l.52.34.8-1.22-.51-.33c.17-.27.33-.55.49-.83l.55.29.68-1.29-.54-.29c.15-.29.28-.58.42-.87l.57.24.57-1.34-.56-.24c.12-.3.23-.6.34-.9l.58.19.44-1.39-.58-.18c.09-.31.18-.62.26-.93l.59.13.32-1.42-.59-.13c.06-.31.12-.63.17-.95l.6.08.19-1.44-.6-.08c.03-.32.06-.64.08-.96l.61.03.06-1.46-.61-.03c0-.15.01-.3.01-.44Zm-297.57,31.92l.14-.34c1.59-3.99,1.89-8.51,1.95-10.32.61.24,1.19.44,1.74.58l1.67,1.5s-.78,10.01-3.19,18.41c-2.41,8.4-4.94,10.66-4.94,10.66l-4.08-.67c4.79-9.63,6.4-17.92,6.42-18.01l.06-.32-1.09-.85v-.64h1.31Zm-14.54-5.69s-.09-3.88.36-4.78c.26-.51,1.01-.68,1.45-1.86,1.63.01,3.77.12,5.57.51-.23,2.9-.33,4.87-.33,4.87h1.04s0-.05.02-.13c3.65,1.35,5.7,3.69,6.23,4.38-.16.54-.33,1.09-.53,1.62h-1.66v2.25l.98.77c-.34,1.62-2.1,9.15-6.4,17.71l-1.94-.32,1.81-15.35-2.17-.45-.63,10.56-1.63.09s-2.26-13.45-2.8-18.15h1.63v-1.72h-.99Zm-111.57-36.06h-14.26c-.6-3.67-2.23-6.47-4.87-8.39-2.64-1.92-6.2-2.88-10.68-2.88-6.36,0-11.19,1.89-14.5,5.68-3.31,3.79-4.96,9.32-4.96,16.6s1.65,12.49,4.94,16.34c3.29,3.85,7.97,5.77,14.04,5.77,4.39,0,7.98-1.03,10.78-3.1,2.8-2.07,4.61-5.04,5.44-8.92h14.16c-.54,7.37-3.62,13.23-9.23,17.57-5.61,4.34-12.93,6.52-21.96,6.52-10.4,0-18.48-2.99-24.25-8.98-5.77-5.99-8.65-14.38-8.65-25.19s2.94-19.49,8.82-25.36c5.88-5.87,14.34-8.81,25.37-8.81,8.97,0,16.05,2.02,21.25,6.05,5.2,4.04,8.05,9.74,8.56,17.11Zm200.86,12.33l8.27-1.35-1.45-11-8.52,1.26c-.92-2.21-2.16-4.25-3.68-6.07l4.98-6.82-8.76-6.81-5.24,6.95c-2.13-.89-4.41-1.48-6.8-1.71l-1.26-8.45-11.02,1.3,1.17,8.76c-2.16.88-4.17,2.06-5.96,3.5l-6.93-5.21-6.93,8.66,7.04,5.46c-1.06,2.41-1.72,5.03-1.92,7.78l-7.6.66.61,11.08,8.89-.63c.96,2.2,2.25,4.22,3.8,6.01l-4.75,6.84,8.91,6.6,4.98-6.94c2.16.86,4.47,1.4,6.88,1.59l1.43,8.2,10.98-1.57-1.34-8.46c2.18-.94,4.2-2.2,5.98-3.71l6.81,4.84,6.7-8.84-6.92-5.08c.87-2.14,1.44-4.43,1.65-6.83Zm162.42-16.29v-3.49c.61-.12,2.29-.54,4.26-1.95-.23,2.72-1.75,3.99-2.63,5.51-1.01,1.76-1.49,2.1-1.63,4.67-.13,2.57-1.22,34.81-1.22,34.81,0,0,.07,1.96-2.85,2.37-.17.02-.33.04-.49.04-1.32-1.16-1.57-3.15-.94-6.9.74-4.38.42-31.6.41-32.76,0-.15-.12-.27-.27-.27h0c-.15,0-.27.12-.27.27,0,.28.33,28.33-.4,32.66-.53,3.11-.58,5.38.58,6.87-1.71-.53-2.08-2.74-2.08-4.73,0-2.44,1.15-32.5.68-34.94-.32-1.65-1.57-2.78-2.3-4.55,1.78-.1,3.59-.2,4.27-.24v2.62h4.88Zm-237.03,41.72c.75-3.18.86-6.15.88-7.13-2.17-.98-4.36-2.28-5.47-2.96-.88,2.52-1.44,4.67-1.74,5.93,3.26,1.17,5.33,3.06,6.33,4.16Zm126.76-53.51h12.24v31.1c0,3.84.9,6.64,2.72,8.4,1.81,1.76,4.69,2.64,8.64,2.64s6.91-.88,8.74-2.63c1.83-1.75,2.74-4.55,2.74-8.41v-31.1h12.12v32.21c0,6.08-2.02,10.75-6.06,14-4.04,3.26-9.86,4.88-17.45,4.88s-13.51-1.62-17.57-4.86c-4.06-3.24-6.1-7.92-6.1-14.02v-32.21Zm186.86,49.72h-11.96v-49.58h12.68l23.91,34.07v-34.07h11.96v49.58h-12.52l-24.07-34.07v34.07Zm-422.15,0h-12.11v-49.58h28.55c6.42,0,11.18,1.15,14.28,3.47,3.09,2.31,4.64,5.85,4.64,10.6,0,3.03-.75,5.55-2.26,7.58-1.51,2.02-3.67,3.4-6.5,4.14,2.56.76,4.38,1.93,5.46,3.5,1.08,1.57,1.7,4.02,1.86,7.34l.24,5.86v.2c.08,2.96.84,4.76,2.28,5.39v1.52h-13.27c-.43-.69-.75-1.55-.98-2.58-.23-1.02-.37-2.24-.42-3.65l-.16-5.22c-.13-3.08-.82-5.15-2.06-6.23-1.24-1.08-3.47-1.61-6.7-1.61h-12.84v19.29Zm205.14-9.16h28.75v9.16h-40.86v-49.58h12.11v40.43Zm-123.91-31.81h-30.83v10.57h28.18v8.48h-28.18v12.76h32.27v9.16h-44.22v-49.58h42.78v8.62Zm251.34.24h-17.35v40.73h-12.11v-40.73h-17.47v-8.85h46.94v8.85Zm-208.29-10.09s-5.6-1.89-7.21,1.23c-1.61,3.13-1.28,8.61-.38,14.48.9,5.87.63,8.22-5.86,15.89-2.98,3.52-5.1,8.03-6.52,11.88,1.38.86,5.3,3.21,8.04,3.96,1.33-7.79,4.97-12.79,8.95-17.19,4.15-4.6,2.62-9.48,2.21-15.8-.41-6.33.77-14.44.77-14.44Zm35.37,46.91c-10.91,0-19.8-8.88-19.8-19.8s8.88-19.8,19.8-19.8,19.8,8.88,19.8,19.8-8.88,19.8-19.8,19.8Zm-63.74-1.73c1.6.02,3.63.14,5.41.51.13-1.53.29-3.26.48-5.05.63-5.87-.99-8.22-4.06-14.17-3.07-5.95-1.63-9.4-.55-12.38,1.08-2.98,3.34-6.5,3.79-12.04.45-5.54-7.24-5.77-7.24-5.77.62,3.68.01,8.96-3.06,15.55-3.07,6.59-1.81,12.64-.36,15.62,1.45,2.98,4.52,7.67,5.42,13.81.26,1.78.28,3.02.16,3.92Zm63.74-35.47c-9.6,0-17.4,7.81-17.4,17.41s7.81,17.41,17.4,17.41,17.41-7.81,17.41-17.41-7.81-17.41-17.41-17.41Zm0,25.9c-4.69,0-8.5-3.81-8.5-8.5s3.81-8.5,8.5-8.5,8.5,3.81,8.5,8.5c0,4.69-3.81,8.5-8.5,8.5Zm-144.86-25.83h-14.8v13.13h14.24c3.09,0,5.36-.53,6.82-1.58,1.45-1.05,2.18-2.72,2.18-4.98s-.71-3.79-2.12-4.9c-1.41-1.11-3.52-1.67-6.32-1.67Zm330.23-1.16v3.72h-3.79v-3.72h3.79Zm-4.33-.54h4.88v.76c.66-.14,2.35-.64,4.27-2.1,0-.23.02-.44,0-.69-.27-3.72-3.66-6.3-3.66-6.3,0,0,.61,3.05.47,5.01-.13,1.96-4.6,2.23-5.62,2.23-.13,0-.27-.1-.41-.27-.67.35-2.08.89-4.73,1.15.02.8.14,1.5.34,2.1,1.86-.1,3.79-.22,4.46-.26v-1.64Zm-2.1-6.85s-2.53,2.22-2.7,6.1c2.49-.26,3.81-.75,4.43-1.06-.86-1.55-1.73-5.04-1.72-5.04Zm-280.02-49.67h5.35l1.84-10.12h5.55l-1.84,10.12h5.83v4.24h-6.6l-.83,4.58h5.47v4.24h-6.24l-1.89,10.41h-5.55l1.89-10.41h-5.35l-1.89,10.41h-5.55l1.89-10.41h-6.56v-4.24h7.33l.83-4.58h-6.2v-4.24h6.97l1.84-10.12h5.55l-1.84,10.12Zm136.73-6.46v29.12h-5.11v-23.09h-5.11v-6.03h10.22Zm-88.17-.41c4.4,0,6.1,3.52,6.1,5.22v4.67c0,8.67-5.69,8.13-5.69,8.13h-18.62c-1.29,0-1.56,1.82-1.56,1.82v4.13h25.87v5.55h-30.66v-9.95c0-7.31,5.73-7.38,5.74-7.38h18.83c1.22,0,1.01-2.24,1.01-2.23v-1.69c0-1.69-1.15-1.74-1.15-1.74h-24.43v-6.52h24.57Zm34.67.41c2.99,0,5.42,2.43,5.42,5.42v5.76c0,1.29-.47,2.46-1.22,3.39.75.93,1.22,2.1,1.22,3.39v5.76c0,2.99-2.43,5.42-5.42,5.42h-19.44c-2.99,0-5.42-2.42-5.42-5.42v-5.76c0-1.29.47-2.46,1.22-3.39-.75-.93-1.22-2.1-1.22-3.39v-5.76c0-2.99,2.43-5.42,5.42-5.42h19.43Zm39.95,0v6.1h-25.51v5.53s12.29,0,18.6,0c6.31,0,6.91,4.9,6.91,4.9v6.5c0,5.78-7.27,6.09-7.27,6.09h-23.81v-5.37h24.08c2.03,0,2.03-2.3,2.03-2.3v-1.33c0-2.59-1.89-2.64-1.9-2.64h-24.22v-17.47h31.08Zm-40.09,23.02c.6,0,1.08-.49,1.08-1.08v-3.66c0-.6-.49-1.08-1.08-1.08h-19.1c-.6,0-1.08.48-1.08,1.08v3.66c0,.6.48,1.08,1.08,1.08h19.1Zm-79.35-7.74l.83-4.58h-5.35l-.83,4.58h5.35Zm79.35-3.37c.6,0,1.08-.48,1.08-1.08v-3.66c0-.6-.49-1.08-1.08-1.08h-19.1c-.6,0-1.08.48-1.08,1.08v3.66c0,.6.48,1.08,1.08,1.08h19.1Z"/><path class="cls-5" d="m467.55,136.68v20.63c0,6.97-2.39,12.29-7.02,16.02-4.42,3.57-10.76,5.46-19.08,5.46s-14.74-1.88-19.19-5.43c-1.26-1.01-2.36-2.13-3.29-3.37v7.42h-46.05v-10.69l-8.17,10.77-7.29-5.18c-1.01.73-2.08,1.4-3.19,1.99l1.45,9.14c-5.36.77-10.72,1.53-16.07,2.3l-1.53-8.77c-1.26-.19-2.49-.48-3.69-.85l-5.38,7.5c-4.35-3.22-8.7-6.44-13.05-9.66l5.08-7.32c-.8-1.07-1.51-2.21-2.14-3.4l-9.76.69-.7-12.6c-.53,1.59-1.4,3.14-2.77,4.66-3.62,4.01-6.97,8.53-8.25,15.52l1.61,1.44-.1,1.28s-.8,10.29-3.28,18.93c-2.7,9.43-5.7,11.88-5.7,11.88l-.93.83-6.53-1.08-4.27-.7.55-4.72-2.48.14-.38-2.29s-2.27-13.55-2.82-18.28l-.33-2.89h.94c0-.73.02-1.8.1-2.71.09-1.03.32-1.91.54-2.36.17-.34.4-.65.68-.94.16-.16.49-.22.65-.66l.07-.18.05-.35c.09-.73.06-1.75-.15-3.2-.85-5.82-3.82-10.24-5.19-13.06-1.65-3.4-3.16-10.31.35-17.84,2.77-5.95,3.41-10.71,2.85-14.03l-.52-3.12,3.16.09s3.47.12,6.13,1.71c2.18,1.3,3.89,3.43,3.61,6.86-.48,5.84-2.8,9.57-3.94,12.72-.9,2.48-2.14,5.35.41,10.3,2.53,4.91,4.09,7.62,4.42,11.38,1.21-2.37,2.67-4.7,4.39-6.73,3.46-4.09,5.04-6.4,5.49-8.78.29-1.52.1-3.04-.21-5.04-1-6.51-1.15-12.59.63-16.06,1.09-2.12,3.16-3.04,5.37-3.19,2.45-.16,4.98.68,4.98.68l2.05.69-.31,2.14s-1.15,7.81-.75,13.9c.21,3.26.7,6.14.61,8.8,0,.19-.02.38-.03.57l7.12-.61c.24-1.56.62-3.06,1.13-4.52l-7.59-5.89c3.38-4.22,6.77-8.45,10.15-12.67l7.39,5.56c1-.68,2.04-1.3,3.13-1.84l-1.26-9.46c5.38-.63,10.75-1.27,16.13-1.9l1.34,9.02c1.24.22,2.44.52,3.61.91l5.66-7.51c4.27,3.32,8.54,6.65,12.82,9.97l-5.31,7.28c.73,1.03,1.4,2.12,1.98,3.26l7.45-1.1v-15.5h17.3v40.43h25.59l-.06-.24c-.39-1.82-.55-3.65-.57-5.51v-34.81h17.42v33.7c.02,2.19.21,4.73,1.8,6.41,1.73,1.82,4.61,2.04,6.96,2.04s5.45-.22,7.2-2.17c1.5-1.68,1.66-4.15,1.69-6.28v-33.7h17.3v.13h50.1v2.72c.87-1.36,1.72-2.08,1.72-2.08l.06.16.02-.02c.49-.37,1.03-.63,1.63-.78l1.01,2.7c.56-1.11,1.2-1.92,1.53-.64.11.42.58,2.31,1.13,3.63.37-.04.78-.1,1.18-.2.19-.04.44-.13.65-.21-.02-1.64-.44-3.66-.44-3.66l4.11-2.57s4.32,3.36,4.67,8.17c.02.31,0,.59,0,.88v1.28l-.06.05c-.37,2.94-1.93,4.46-2.93,6.18-.77,1.33-1.18,1.57-1.28,3.52-.13,2.52-1.18,33.6-1.21,34.73,0,.26-.04,1.28-.74,2.38-.61.95-1.78,2.15-4.33,2.51-.29.04-.55.06-.82.06l-1,.02-.54-.47-.15.22c-1.39-.43-2.38-1.36-3.02-2.63-.64-1.27-.88-2.97-.88-4.58,0-2.4,1.19-32.04.73-34.45-.13-.67-.54-1.18-.91-1.76-.23-.36-.45-.72-.67-1.11h-16.79v40.73h-17.3v-40.73h-15.45Zm-176.67,45.92l.14-.34c1.59-3.99,1.89-8.51,1.95-10.32.61.24,1.19.44,1.74.58l1.67,1.5s-.78,10.01-3.19,18.41c-2.41,8.4-4.94,10.66-4.94,10.66l-4.08-.67c4.79-9.63,6.4-17.92,6.42-18.01l.06-.32-1.09-.85v-.64h1.31Zm-.74-1.08c.2-.53.38-1.08.53-1.62-.54-.68-2.58-3.02-6.23-4.38-.02.08-.02.13-.02.13h-1.04s.1-1.98.33-4.87c-1.8-.39-3.94-.5-5.57-.51-.43,1.18-1.19,1.35-1.45,1.86-.45.9-.36,4.78-.36,4.78h.99v1.72h-1.63c.54,4.7,2.8,18.15,2.8,18.15l1.63-.09.63-10.56,2.17.45-1.81,15.35,1.94.32c4.3-8.55,6.06-16.09,6.4-17.71l-.98-.77v-2.25h1.66Zm-122.6-38.08l-.19-2.77c-.57-8.18-3.78-14.49-9.56-18.98-5.59-4.34-13.19-6.6-22.84-6.6-11.84,0-20.89,3.26-27.2,9.56-6.32,6.31-9.58,15.35-9.58,27.2s3.19,20.56,9.38,26.99c6.22,6.46,14.91,9.78,26.12,9.78,9.69,0,17.52-2.4,23.55-7.06,6.21-4.81,9.63-11.28,10.23-19.43l.2-2.78h-19.05s-.44,2.05-.44,2.05c-.68,3.19-2.14,5.67-4.44,7.37-2.39,1.77-5.48,2.6-9.23,2.6-5.21,0-9.25-1.56-12.07-4.86-2.95-3.44-4.31-8.35-4.31-14.65s1.36-11.51,4.32-14.89c2.85-3.27,7.06-4.79,12.54-4.79,3.83,0,6.9.74,9.15,2.39,2.1,1.53,3.35,3.79,3.83,6.72l.36,2.17h19.24Zm-2.78-2.59c-.51-7.37-3.36-13.07-8.56-17.11-5.2-4.04-12.28-6.05-21.25-6.05-11.03,0-19.49,2.94-25.37,8.81-5.88,5.87-8.82,14.33-8.82,25.36s2.88,19.2,8.65,25.19c5.77,5.99,13.85,8.98,24.25,8.98,9.03,0,16.35-2.17,21.96-6.52,5.61-4.34,8.69-10.2,9.23-17.57h-14.16c-.83,3.88-2.64,6.85-5.44,8.92-2.8,2.07-6.39,3.1-10.78,3.1-6.07,0-10.75-1.92-14.04-5.77-3.29-3.85-4.94-9.29-4.94-16.34s1.65-12.81,4.96-16.6c3.3-3.79,8.14-5.68,14.5-5.68,4.48,0,8.04.96,10.68,2.88,2.64,1.92,4.26,4.72,4.87,8.39h14.26Zm200.86,12.33l8.27-1.35-1.45-11-8.52,1.26c-.92-2.21-2.16-4.25-3.68-6.07l4.98-6.82-8.76-6.81-5.24,6.95c-2.13-.89-4.41-1.48-6.8-1.71l-1.26-8.45-11.02,1.3,1.17,8.76c-2.16.88-4.17,2.06-5.96,3.5l-6.93-5.21-6.93,8.66,7.04,5.46c-1.06,2.41-1.72,5.03-1.92,7.78l-7.6.66.61,11.08,8.89-.63c.96,2.2,2.25,4.22,3.8,6.01l-4.75,6.84,8.91,6.6,4.98-6.94c2.16.86,4.47,1.4,6.88,1.59l1.43,8.2,10.98-1.57-1.34-8.46c2.18-.94,4.2-2.2,5.98-3.71l6.81,4.84,6.7-8.84-6.92-5.08c.87-2.14,1.44-4.43,1.65-6.83Zm195.99-32.82l1.16.1h.81l.02-.09.53.09h.68v.12l.64.12.83.07.03-.09.51.14.69.06v.13s.64.18.64.18l.78.14.03-.09.51.19.67.12-.02.12.61.23.81.22.04-.09.47.23.67.19-.03.12.57.27.8.3.05-.08.44.26.64.24-.04.12.59.36.71.34.06-.08.45.33.6.29-.05.11.55.4.69.41.06-.07.4.35.59.35-.06.11.51.44.65.47.07-.07.38.4.54.39-.07.1.46.48.61.53.07-.06.33.41.52.45-.08.09.42.52.57.59.08-.05.29.44.47.49-.09.09.37.55.52.65.08-.05.25.47.43.53-.1.08.32.59.45.68.09-.04.21.48.38.58-.1.07.26.6.4.73.09-.03.17.51.33.6-.11.06.21.63.32.75h.05v-18.07h16.62l19.97,28.45v-28.45h17.14v54.77h-16.45l-20.14-28.5v28.5h-17.14v-16.85h-.03s-.27.64-.27.64l-.23.73.09.05-.25.48-.21.65-.12-.04-.31.59-.31.74.08.05-.3.46-.26.61-.11-.05-.35.54-.39.74.08.06-.32.41-.33.62-.11-.06-.42.53-.44.68.07.07-.37.39-.37.57-.1-.07-.46.49-.5.64.06.07-.39.35-.43.54-.1-.08-.49.43-.57.6.06.08-.42.31-.47.5-.09-.08-.52.39-.63.55.05.08-.45.27-.51.46-.08-.09-.56.34-.67.49.04.08-.47.23-.56.41-.08-.1-.59.29-.71.43.03.09-.5.19-.58.35-.06-.1-.62.24-.73.36.03.09-.52.15-.61.3-.05-.11-.65.18-.76.29.02.09-.52.1-.64.24-.05-.12-.65.12-.79.23v.1s-.52.05-.52.05l-.65.18-.03-.12-.67.07-.79.15v.09s-.52,0-.52,0l-.69.13-.02-.12h-.65s-.82.09-.82.09v.1s-.55-.04-.55-.04l-.67.06v-.12s-.68-.05-.68-.05h-.83s-.02.1-.02.1l-.52-.09h-.68s0-.12,0-.12l-.66-.11-.81-.07-.02.09-.52-.14-.67-.05v-.12s-.66-.18-.66-.18l-.78-.13-.03.09-.5-.18-.66-.12.02-.12-.62-.23-.8-.21-.04.09-.49-.23-.65-.17.03-.12-.59-.28-.78-.28-.05.08-.45-.26-.65-.24.04-.12-.58-.34-.73-.35-.06.08-.43-.3-.62-.29.05-.11-.53-.38-.72-.42-.06.08-.41-.35-.58-.34.06-.11-.5-.43-.66-.47-.07.07-.36-.37-.58-.41.07-.1-.45-.47-.63-.54-.07.06-.33-.41-.52-.44.08-.09-.41-.51-.58-.6-.08.05-.29-.43-.48-.5.09-.09-.36-.54-.53-.65-.08.05-.25-.46-.44-.53.1-.08-.33-.6-.45-.67-.09.04-.22-.49-.38-.56.1-.07-.27-.61-.39-.71-.09.03-.17-.51-.33-.6.11-.06-.21-.62-.33-.75-.09.02-.13-.52-.28-.62.11-.05-.15-.64-.26-.78h-.09s-.08-.51-.08-.51l-.22-.66.12-.04-.1-.65-.19-.79h-.1s-.03-.52-.03-.52l-.16-.68.12-.03-.04-.65-.12-.81h-.1s.02-.55.02-.55l-.1-.67.12-.02.02-.68-.05-.8h-.1s.07-.56.07-.56l-.04-.67h.12s.08-.68.08-.68l.03-.79-.09-.02.11-.52.02-.67h.12s.14-.66.14-.66l.1-.8-.1-.03.17-.54.08-.66h.12s.2-.63.2-.63l.17-.78-.09-.04.21-.51.14-.65.12.03.26-.64.24-.76-.09-.05.26-.49.2-.64.12.04.32-.61.3-.73-.08-.05.3-.46.26-.62.11.05.37-.58.36-.7-.08-.06.34-.44.31-.6.11.06.4-.52.44-.69-.07-.06.36-.39.37-.57.1.07.46-.5.5-.64-.07-.07.41-.37.41-.53.1.08.48-.44.56-.61-.06-.08.41-.31.48-.51.09.09.53-.4.61-.55-.05-.08.46-.28.51-.45.08.09.56-.34.66-.5-.04-.08.45-.22.57-.43.08.1.57-.28.71-.44-.04-.09.5-.2.58-.36.06.1.6-.24.74-.37-.03-.09.49-.15.62-.31.06.11.64-.19.77-.3-.02-.09.52-.1.64-.25.05.12.64-.13.79-.23v-.1s.53-.06.53-.06l.65-.19.03.12.69-.07,1.27-.25v-.06h.29l.43-.08.02.08h.91l1.07-.11v-.06s.29.02.29.02l.43-.05v.09Zm-38.91,18.56c.15,0,.27.12.27.27.01,1.16.33,28.38-.41,32.76-.63,3.75-.39,5.74.94,6.9.16,0,.32-.01.49-.04,2.91-.41,2.85-2.37,2.85-2.37,0,0,1.08-32.23,1.22-34.81.14-2.57.61-2.91,1.63-4.67.88-1.52,2.41-2.8,2.63-5.51-1.96,1.41-3.65,1.84-4.26,1.95v3.49h-4.88v-2.62c-.68.04-2.49.15-4.27.24.73,1.77,1.98,2.9,2.3,4.55.47,2.44-.68,32.5-.68,34.94,0,1.99.36,4.2,2.08,4.73-1.16-1.5-1.11-3.77-.58-6.87.73-4.33.41-32.38.4-32.66,0-.15.12-.27.27-.27h0Zm-231.68,39.69c.75-3.18.86-6.15.88-7.13-2.17-.98-4.36-2.28-5.47-2.96-.88,2.52-1.44,4.67-1.74,5.93,3.26,1.17,5.33,3.06,6.33,4.16Zm271.21-55.55h-1.46v.61c-.47.01-.94.03-1.4.07l-.06-.61-1.45.15.06.61c-.32.04-.64.09-.95.14l-.12-.6-1.43.28.12.59c-.31.07-.63.14-.94.22l-.17-.58-1.4.41.17.58c-.31.1-.61.2-.91.31l-.22-.56-1.36.53.22.56c-.3.13-.59.26-.88.4l-.28-.55-1.3.65.27.54c-.28.15-.56.31-.84.47l-.33-.53-1.24.76.32.52c-.27.17-.53.36-.8.54l-.37-.5-1.17.87.37.5c-.25.2-.5.4-.75.61l-.41-.46-1.08.97.42.46c-.23.22-.47.44-.69.67l-.45-.42-.99,1.07.45.42c-.21.24-.43.48-.63.73l-.49-.38-.89,1.15.49.37c-.19.26-.38.52-.56.78l-.52-.33-.79,1.22.51.33c-.17.27-.32.55-.48.83l-.55-.29-.67,1.29.54.28c-.14.29-.28.58-.41.87l-.57-.23-.56,1.35.56.23c-.12.3-.23.6-.33.91l-.58-.18-.43,1.39.58.18c-.09.31-.17.62-.25.93l-.59-.13-.31,1.42.59.13c-.06.31-.12.63-.17.95l-.6-.07-.18,1.45.6.07c-.03.32-.05.64-.07.96l-.61-.02-.05,1.46.61.02c0,.08,0,.15,0,.23,0,.25.01.49.02.74l-.61.03.08,1.45.61-.03c.02.32.06.64.09.96l-.6.09.21,1.44.6-.09c.05.32.11.63.17.95l-.59.14.34,1.42.58-.14c.08.31.17.62.26.93l-.57.19.47,1.38.57-.19c.11.3.23.6.35.9l-.56.25.59,1.33.56-.24c.14.29.28.58.43.86l-.54.3.7,1.28.54-.3c.16.28.33.55.5.82l-.51.35.82,1.21.51-.35c.19.26.37.52.57.78l-.48.39.92,1.13.48-.39c.21.24.42.49.64.72l-.44.43,1.02,1.04.44-.43c.23.22.46.45.69.66l-.4.47,1.11.95.4-.47c.25.2.5.4.76.59l-.36.5,1.19.84.35-.5c.26.18.54.35.81.52l-.31.53,1.26.73.31-.53c.28.15.57.3.85.45l-.26.56,1.32.62.26-.55c.29.13.59.25.89.37l-.21.57,1.37.5.21-.57c.3.1.61.2.92.29l-.16.59,1.41.38.16-.58c.31.07.62.15.94.21l-.1.59,1.43.25.1-.59c.32.05.63.09.95.12l-.05.61,1.45.12.05-.6c.32.02.64.03.96.03v.61s1.46-.01,1.46-.01v-.61c.32,0,.64-.02.96-.05l.06.61,1.45-.14-.06-.61c.32-.04.64-.08.96-.13l.11.59,1.43-.27-.11-.59c.31-.07.63-.14.94-.22l.16.58,1.4-.4-.16-.58c.31-.1.61-.2.91-.31l.22.57,1.36-.52-.22-.57c.3-.12.59-.25.88-.39l.27.55,1.31-.64-.27-.55c.29-.15.57-.3.85-.46l.32.53,1.25-.76-.32-.53c.27-.17.54-.35.8-.53l.37.5,1.17-.86-.37-.5c.25-.2.51-.39.75-.6l.41.46,1.09-.97-.41-.46c.24-.22.47-.44.7-.66l.45.42,1-1.06-.45-.42c.21-.24.42-.48.63-.73l.49.38.9-1.14-.48-.38c.19-.26.38-.52.56-.78l.52.34.8-1.22-.51-.33c.17-.27.33-.55.49-.83l.55.29.68-1.29-.54-.29c.15-.29.28-.58.42-.87l.57.24.57-1.34-.56-.24c.12-.3.23-.6.34-.9l.58.19.44-1.39-.58-.18c.09-.31.18-.62.26-.93l.59.13.32-1.42-.59-.13c.06-.31.12-.63.17-.95l.6.08.19-1.44-.6-.08c.03-.32.06-.64.08-.96l.61.03.06-1.46-.61-.03c0-.15.01-.3.01-.44,0-.17-.01-.34-.01-.52l.61-.03-.07-1.46-.61.03c-.02-.32-.05-.64-.08-.96l.6-.08-.2-1.44-.6.08c-.05-.32-.11-.64-.17-.95l.59-.14-.33-1.42-.58.13c-.08-.31-.17-.62-.26-.93l.58-.19-.45-1.38-.57.19c-.11-.3-.22-.6-.34-.9l.56-.24-.58-1.34-.56.24c-.13-.29-.27-.58-.42-.87l.54-.29-.69-1.28-.54.29c-.16-.28-.32-.55-.49-.83l.51-.34-.81-1.21-.51.34c-.18-.26-.37-.52-.56-.78l.48-.39-.91-1.14-.48.39c-.21-.24-.41-.49-.63-.73l.45-.43-1.01-1.05-.44.43c-.23-.23-.46-.45-.7-.66l.41-.47-1.1-.96-.4.46c-.25-.2-.5-.4-.76-.6l.37-.5-1.18-.86-.36.5c-.26-.18-.53-.36-.8-.53l.32-.53-1.25-.75-.32.53c-.28-.16-.56-.31-.85-.46l.27-.56-1.31-.63-.26.55c-.29-.13-.59-.26-.88-.38l.21-.57-1.36-.51-.21.57c-.3-.1-.61-.21-.91-.31l.16-.58-1.4-.39-.16.58c-.31-.08-.62-.15-.94-.22l.11-.59-1.43-.26-.11.59c-.32-.05-.64-.09-.96-.12l.06-.61-1.45-.13-.05.61c-.32-.02-.64-.03-.96-.05v-.61Zm-295.92,13.38h-30.83v5.39h28.18v13.67h-28.18v7.58h32.27v14.34h-63.56l-.76-1.24c-.56-.91-1-2.03-1.3-3.37-.26-1.15-.42-2.52-.48-4.13,0,0-.16-5.23-.16-5.19-.09-2.13-.31-3.64-1.17-4.38-.92-.8-2.62-.98-5-.98h-10.24v19.29h-17.3v-54.77h31.14c7.14,0,12.39,1.41,15.83,3.98,1.48,1.11,2.69,2.44,3.6,4.01v-8h47.96v13.8Zm151.47-11.34h12.24v31.1c0,3.84.9,6.64,2.72,8.4,1.81,1.76,4.69,2.64,8.64,2.64s6.91-.88,8.74-2.63c1.83-1.75,2.74-4.55,2.74-8.41v-31.1h12.12v32.21c0,6.08-2.02,10.75-6.06,14-4.04,3.26-9.86,4.88-17.45,4.88s-13.51-1.62-17.57-4.86c-4.06-3.24-6.1-7.92-6.1-14.02v-32.21Zm97.28,8.99v-8.85h-46.94v8.85h17.47v40.73h12.11v-40.73h17.35Zm-127.43-8.85c-5.19,0-12.11,0-12.11,0v49.58h40.86v-9.16h-28.75v-40.43Zm-168.71,49.58v-1.52c-1.44-.63-2.2-2.42-2.28-5.39v-.2l-.24-5.86c-.16-3.32-.78-5.77-1.86-7.34-1.08-1.57-2.9-2.74-5.46-3.5,2.83-.74,4.99-2.12,6.5-4.14,1.51-2.02,2.26-4.55,2.26-7.58,0-4.76-1.54-8.29-4.64-10.6-3.09-2.31-7.85-3.47-14.28-3.47h-28.55v49.58h12.11v-19.29h12.84c3.22,0,5.46.54,6.7,1.61,1.24,1.08,1.92,3.15,2.06,6.23l.16,5.22c.05,1.41.19,2.63.42,3.65.23,1.02.55,1.88.98,2.58h13.27Zm422.31,0v-49.58h-11.96v34.07l-23.91-34.07h-12.68v49.58h11.96v-34.07c8.02,11.36,16.05,22.71,24.07,34.07h12.52Zm-377.5-40.97v-8.62h-42.78v49.58h44.22v-9.16h-32.27v-12.76h28.18v-8.48h-28.18v-10.57h30.83Zm43.05-9.85s-5.6-1.89-7.21,1.23c-1.61,3.13-1.28,8.61-.38,14.48.9,5.87.63,8.22-5.86,15.89-2.98,3.52-5.1,8.03-6.52,11.88,1.38.86,5.3,3.21,8.04,3.96,1.33-7.79,4.97-12.79,8.95-17.19,4.15-4.6,2.62-9.48,2.21-15.8-.41-6.33.77-14.44.77-14.44Zm234.13,26.68c0-11.32,9.21-20.52,20.52-20.52s20.53,9.21,20.53,20.52-9.21,20.52-20.53,20.52-20.52-9.21-20.52-20.52Zm-198.76,20.23c-10.91,0-19.8-8.88-19.8-19.8s8.88-19.8,19.8-19.8,19.8,8.88,19.8,19.8-8.88,19.8-19.8,19.8Zm-63.74-1.73c1.6.02,3.63.14,5.41.51.13-1.53.29-3.26.48-5.05.63-5.87-.99-8.22-4.06-14.17-3.07-5.95-1.63-9.4-.55-12.38,1.08-2.98,3.34-6.5,3.79-12.04.45-5.54-7.24-5.77-7.24-5.77.62,3.68.01,8.96-3.06,15.55-3.07,6.59-1.81,12.64-.36,15.62,1.45,2.98,4.52,7.67,5.42,13.81.26,1.78.28,3.02.16,3.92Zm63.74-35.47c-9.6,0-17.4,7.81-17.4,17.41s7.81,17.41,17.4,17.41,17.41-7.81,17.41-17.41-7.81-17.41-17.41-17.41Zm219.29,33.99c-9.39,0-17.02-7.64-17.02-17.02s7.64-17.02,17.02-17.02,17.02,7.64,17.02,17.02-7.64,17.02-17.02,17.02Zm0-30.77c-7.58,0-13.74,6.17-13.74,13.74s6.17,13.74,13.74,13.74,13.74-6.17,13.74-13.74-6.16-13.74-13.74-13.74Zm-194.35,22.13l5.84,4.29v-8.74l-4.96.81c-.21,1.24-.5,2.46-.88,3.64Zm194.35-19.54c6.15,0,11.15,5,11.15,11.15s-5,11.15-11.15,11.15-11.15-5-11.15-11.15,5-11.15,11.15-11.15Zm-219.29,20.09c-4.69,0-8.5-3.81-8.5-8.5s3.81-8.5,8.5-8.5,8.5,3.81,8.5,8.5c0,4.69-3.81,8.5-8.5,8.5Zm-123.8-12.21c-.22.35-.45.7-.69,1.03-.77,1.04-1.68,1.94-2.73,2.71.69.58,1.28,1.22,1.75,1.91.7,1.02,1.27,2.35,1.68,3.99v-9.64Zm123.8,9.62c-3.26,0-5.91-2.65-5.91-5.91s2.65-5.91,5.91-5.91,5.91,2.65,5.91,5.91c0,3.26-2.65,5.91-5.91,5.91Zm-144.86-23.24c2.8,0,4.9.56,6.32,1.67,1.41,1.11,2.12,2.74,2.12,4.9,0,2.27-.73,3.93-2.18,4.98-1.45,1.05-3.72,1.58-6.82,1.58h-14.24v-13.13h14.8Zm0,2.59h-12.2v7.94h11.64c2.39,0,4.17-.27,5.29-1.09.83-.6,1.11-1.6,1.11-2.88s-.31-2.22-1.13-2.86c-1.05-.82-2.64-1.11-4.71-1.11Zm330.23-.03v-3.72h-3.79v3.72h3.79Zm-4.33-4.27h4.88v.76c.66-.14,2.35-.64,4.27-2.1,0-.23.02-.44,0-.69-.27-3.72-3.66-6.3-3.66-6.3,0,0,.61,3.05.47,5.01-.13,1.96-4.6,2.23-5.62,2.23-.13,0-.27-.1-.41-.27-.67.35-2.08.89-4.73,1.15.02.8.14,1.5.34,2.1,1.86-.1,3.79-.22,4.46-.26v-1.64Zm-2.1-6.85s-2.53,2.22-2.7,6.1c2.49-.26,3.81-.75,4.43-1.06-.86-1.55-1.73-5.04-1.72-5.04Zm-280.23-34.01l-1.89,10.41h-10.82l1.89-10.41h-6.05v-9.42h1.96v-8.82h7.4l1.84-10.12h10.82l-1.84,10.12h.08l1.84-10.12h10.82l-1.84,10.12h5.32v9.42h-1.96v8.82h-6.67l-1.89,10.41h-10.82l1.89-10.41h-.08Zm57.45,9.6h-35.85v-12.55c0-3.89,1.34-6.2,2.81-7.62,2.44-2.37,5.52-2.35,5.52-2.35h17.25v-.49h-25.58v-11.7h27.16c4.45,0,6.91,2.58,8,4.98,1.29-2.7,4.04-4.58,7.24-4.58h19.43c2.55,0,4.81,1.19,6.28,3.04v-3.04h49.81v34.3h-10.3v-23.09h-3.25v.07h-25.51v.35h16.01c3.4,0,5.54,1.14,6.91,2.41,2.41,2.22,2.59,5.08,2.59,5.08v6.5c0,4.18-2.55,6.43-5.18,7.59-2.28,1.01-4.57,1.1-4.62,1.1h-26.46c0-1.01.05-2.03,0-3.04,0-.07-.09.11-.14.17-.14.17-.29.33-.45.49-.36.37-.76.7-1.19.99-1.27.86-2.74,1.31-4.27,1.38h-19.67c-2.63-.04-5-1.27-6.55-3.39v3.4Zm-46.35-25.25l1.84-10.12h-5.55l-1.84,10.12h-5.35l1.84-10.12h-5.55l-1.84,10.12h-6.97v4.24h6.2l-.83,4.58h-7.33v4.24h6.56l-1.89,10.41h5.55l1.89-10.41h5.35l-1.89,10.41h5.55l1.89-10.41h6.24v-4.24h-5.47l.83-4.58h6.6v-4.24h-5.83Zm112.29-.36v-6.1h-31.08v17.47h24.22s1.9.05,1.9,2.64v1.33s0,2.3-2.03,2.3h-24.08v5.37h23.81s7.27-.31,7.27-6.09v-6.5s-.59-4.9-6.91-4.9h-18.6v-5.53h25.51Zm-74.22,11.52s5.69.53,5.69-8.13v-4.67c0-1.7-1.69-5.22-6.1-5.22h-24.57v6.52h24.43s1.15.05,1.15,1.74v1.69h-1.91l-.08.06c-.09.07-.08.07-.17.14l2.16-.08c.02.45.03,2.12-1.02,2.12h-18.83s-5.74.07-5.74,7.38v9.95h30.66v-5.55h-25.87v-4.13c.14-.79.55-1.69,1.44-1.81h.12s18.62,0,18.62,0Zm87.76,11.5v-29.12h-10.22v6.03h5.11v23.09h5.11Zm-53.5,0c2.99,0,5.42-2.42,5.42-5.42v-5.76c0-1.29-.47-2.46-1.22-3.39.75-.93,1.22-2.1,1.22-3.39v-5.76c0-2.99-2.43-5.42-5.42-5.42h-19.43c-2.99,0-5.42,2.43-5.42,5.42v5.76c0,1.29.47,2.46,1.22,3.39-.75.93-1.22,2.1-1.22,3.39v5.76c0,2.99,2.43,5.42,5.42,5.42h19.44Zm-.14-11.92c.6,0,1.08.48,1.08,1.08v3.66c0,.6-.49,1.08-1.08,1.08h-19.1c-.6,0-1.08-.49-1.08-1.08v-3.66c0-.6.48-1.08,1.08-1.08h19.1Zm32.53,2.86h-24.38v1.09h24.39v-1.09Zm-84.25.14v.77h24.41v-3.03c0-1.22.28-2.36.77-3.39l-.03-.06h0c-.51,1.51-1.24,2.59-1.99,3.38-2.23,2.34-4.96,2.36-5.65,2.33h-17.51Zm50.21-.41h-16.08v.64h16.08v-.64Zm-77.84-4.51h-5.35l.83-4.58h5.35l-.83,4.58Zm79.35-9.19c.6,0,1.08.48,1.08,1.08v3.66c0,.6-.49,1.08-1.08,1.08h-19.1c-.6,0-1.08-.48-1.08-1.08v-3.66c0-.6.48-1.08,1.08-1.08h19.1Zm-1.51,2.59h-16.08v.64h16.08v-.64Zm-33.16.02h-.22.02s.06,0,.1,0h.1Z"/></svg>