<?xml version="1.0" standalone="no"?><!-- Generator: Gravit.io --><svg xmlns="http://www.w3.org/2000/svg" xmlns:xlink="http://www.w3.org/1999/xlink" style="isolation:isolate" viewBox="0 0 500 500" width="500" height="500"><path d=" M 179.798 193.782 L 172.494 204.035 C 211.613 212.668 237.718 180.999 237.718 180.999 C 219.402 192.312 206.742 188.945 202.836 180.461 C 198.931 171.975 205.126 163.895 222.769 164.972 C 240.412 166.049 252.937 175.881 280.816 175.477 C 308.694 175.073 315.428 163.518 315.428 163.518 C 293.475 175.396 272.196 168.743 245.934 157.565 C 219.671 146.386 196.506 148.676 181.961 156.891 C 170.382 163.431 158.727 172.354 154.451 175.724 L 179.798 193.782 Z  M 156.911 162.279 C 156.911 162.279 130.231 147.389 98.209 162.814 L 107.213 161.346 L 109.284 174.056 C 111.362 170.797 116.327 165.072 126.473 162.817 C 141.018 159.585 156.911 162.279 156.911 162.279 Z  M 418.518 323.07 C 413.92 323.279 411.83 321.537 399.707 320.631 C 387.585 319.726 383.753 333.311 383.753 333.311 C 383.753 333.311 386.61 332.614 389.605 333.032 C 392.602 333.45 396.155 336.864 402.494 336.864 C 408.834 336.864 410.506 332.823 410.506 332.823 C 408.486 334.844 405.072 335.541 400.962 334.147 C 396.851 332.754 395.875 328.643 399.847 325.23 C 403.818 321.816 407.858 325.02 416.707 324.881 C 425.555 324.742 427.645 318.96 427.645 318.96 C 427.645 318.959 423.116 322.861 418.518 323.07 Z  M 279.42 253.659 C 286.794 251.328 292.52 246.374 297.112 242.547 C 305.192 235.813 313.273 233.254 313.273 233.254 C 298.834 233.59 290.44 242.108 280.285 245.904 L 282.906 247.943 L 279.067 253.203 C 279.191 253.35 279.302 253.508 279.42 253.659 Z  M 393.855 308.265 C 389.989 305.235 379.33 300.219 361.877 301.681 C 344.427 303.145 334.289 307.325 319.345 312.968 C 304.401 318.611 290.084 328.957 270.333 329.688 C 250.582 330.42 240.654 323.627 240.55 317.984 C 240.445 312.341 245.043 304.607 258.629 305.757 C 272.214 306.907 285.73 312.271 285.73 312.271 C 276.116 305.583 261.485 295.69 236.405 295.69 C 217.635 295.69 202.32 301.625 195.798 304.613 L 200.074 307.694 L 176.601 340.262 L 155.282 324.896 C 149.881 329.462 143.928 333.25 137.529 336.194 L 141.718 362.698 L 112.893 367.254 C 129.734 381.021 163.606 375.889 176.803 373.371 C 190.493 370.758 211.706 365.637 236.265 365.35 C 260.823 365.062 272.841 378.187 272.841 378.187 C 268.766 369 250.373 359.158 232.503 358.74 C 214.633 358.322 206.169 362.711 178.057 363.756 C 149.946 364.802 145.034 354.142 145.034 354.142 C 162.172 358.427 183.387 347.767 198.33 339.407 C 213.274 331.047 221.53 338.258 229.264 342.125 C 236.997 345.99 243.789 347.558 252.776 348.394 C 261.764 349.23 273.677 359.053 286.426 365.967 C 299.175 372.88 311.298 365.219 311.298 365.219 C 302.415 368.459 283.814 360.621 283.814 352.365 C 283.814 344.109 293.114 339.72 305.028 342.647 C 316.94 345.572 329.168 356.023 343.589 355.5 C 358.011 354.978 361.355 349.649 361.355 349.649 C 355.712 353.828 347.351 354.246 334.498 349.858 C 321.644 345.468 305.028 335.644 305.028 335.644 C 314.851 330.837 327.287 319.342 350.173 310.877 C 373.059 302.413 393.855 308.265 393.855 308.265 Z  M 202.163 272.311 C 214.823 265.174 226.809 267.464 235.294 270.965 C 239.629 272.754 245.965 275.139 251.128 277.045 L 251.335 276.747 C 250.139 275.368 249.147 273.807 248.406 272.114 L 241.548 272.598 L 241.073 264.053 L 246.94 263.546 C 246.967 263.163 247.019 262.786 247.07 262.409 C 239.111 255.63 230.047 248.166 222.769 246.858 C 215.539 245.557 209.932 245.927 205.325 246.811 L 208.709 267.127 L 182.788 271.443 C 182.226 278.486 180.721 285.378 178.298 291.999 L 180.323 293.458 C 188.461 288.042 191.472 278.34 202.163 272.311 Z  M 202.49 229.783 C 207.833 229.601 213.913 230.334 219.941 232.716 C 228.193 235.975 236.372 241.932 247.617 247.555 L 248.34 246.653 L 252.814 250.014 C 253.177 250.177 253.551 250.337 253.922 250.498 C 255.246 249.466 256.709 248.607 258.288 247.968 L 257.656 243.23 C 244.166 236.788 227.524 224.867 214.015 218.709 C 197.884 211.357 176.753 208.922 169.475 208.273 L 164.747 214.912 C 169.108 220.102 172.761 225.81 175.641 231.936 L 202.115 227.527 L 202.49 229.783 Z  M 253.766 195.5 C 238.234 199.692 234.232 208.268 234.898 216.464 C 235.565 224.659 255.196 234.76 283.116 219.608 C 283.116 219.608 260.818 222.467 254.719 217.798 C 248.62 213.129 259.864 206.077 285.88 212.27 C 311.894 218.464 327.331 221.912 340.577 219.998 C 353.822 218.084 360.493 209.84 360.493 209.84 C 360.493 209.84 347.724 212.842 338.48 208.935 C 329.237 205.029 326.569 200.645 326.569 200.645 C 326.569 200.645 333.907 189.306 351.916 189.782 C 369.927 190.258 385.84 202.551 392.987 209.602 C 400.135 216.654 402.516 219.799 402.516 219.799 C 402.516 219.799 396.322 201.98 382.123 191.688 C 367.926 181.396 351.056 174.821 327.997 180.157 C 304.937 185.494 298.077 195.975 288.357 196.358 C 278.637 196.738 269.299 191.307 253.766 195.5 Z  M 380.131 232.431 C 371.283 233.267 365.778 225.116 372.397 220.866 C 379.016 216.616 385.839 219.968 385.839 219.968 C 381.364 214.399 374.207 214.599 365.557 219.968 C 356.907 225.336 352.235 224.54 352.235 224.54 C 355.062 230.095 361.32 237.378 368.565 237.656 C 375.811 237.935 380.688 235.776 392.322 232.012 C 403.957 228.251 409.67 233.893 409.67 233.893 C 408.415 232.152 405.141 228.321 397.896 228.39 C 390.65 228.46 388.978 231.595 380.131 232.431 Z  M 270.621 247.513 C 271.125 247.674 271.622 247.85 272.106 248.053 L 272.437 247.614 C 271.855 247.618 271.244 247.577 270.621 247.513 Z " fill="rgb(195,163,65)"/><path d=" M 108.535 160.138 L 110.182 170.243 C 113.064 166.95 118.045 163.003 126.154 161.2 C 133.236 159.626 140.556 159.418 146.308 159.636 C 137.65 157.218 124.048 155.333 108.535 160.138 Z  M 108.451 177.915 L 105.998 162.853 L 98.446 164.085 L 91.13 164.792 L 97.571 161.308 C 129.906 145.732 156.5 160.406 157.628 160.813 C 159.757 162.099 161.901 163.454 164 164.819 C 160.695 164.137 158.26 163.723 156.666 163.548 C 155.844 163.438 140.203 160.778 126.792 164.072 C 117.148 166.216 112.46 171.63 110.524 174.666 L 108.451 177.915 Z  M 175.007 202.862 C 200.244 207.494 219.839 194.954 229.653 186.623 C 222.521 189.539 215.986 190.278 210.712 188.688 C 206.5 187.418 203.229 184.65 201.5 180.895 C 199.665 176.909 199.84 172.984 201.989 169.842 C 205.291 165.018 212.706 162.702 222.858 163.324 C 230.252 163.775 236.781 165.732 243.695 167.805 C 253.473 170.738 264.53 174.059 280.795 173.825 C 292.657 173.653 300.571 171.408 305.7 168.969 C 286.1 174.762 266.604 167.78 245.358 158.737 C 222.506 149.01 199.078 148.732 182.684 157.991 C 172.415 163.791 162.095 171.471 156.909 175.489 L 181.85 193.256 L 175.007 202.862 Z  M 185.852 206.8 C 181.493 206.8 176.926 206.339 172.177 205.291 L 170.006 204.811 L 177.747 193.946 L 151.999 175.603 L 153.54 174.388 C 158.003 170.871 169.635 161.982 181.237 155.429 C 198.423 145.723 222.824 145.948 246.509 156.03 C 270.803 166.371 292.705 173.96 314.728 162.044 C 316.949 160.495 318.726 158.834 320 157 C 319.131 159.432 318.051 161.811 316.699 164.078 C 316.407 164.579 309.22 176.355 280.837 176.767 C 264.144 177.017 252.832 173.616 242.849 170.623 C 236.105 168.601 229.733 166.69 222.68 166.26 C 213.726 165.714 207.073 167.624 204.417 171.504 C 202.439 174.393 203.193 177.536 204.173 179.664 C 205.564 182.687 208.119 184.833 211.562 185.872 C 218.135 187.856 227.15 185.616 236.945 179.566 C 238.992 178.202 241.32 176.486 243.899 174.388 C 242.117 177.202 240.445 179.667 238.852 181.754 C 238.618 182.039 217.788 206.8 185.852 206.8 Z  M 253.766 195.319 L 253.776 195.319 L 253.766 195.319 Z  M 265.552 195.199 C 262.119 195.199 258.36 195.602 254.149 196.739 L 254.149 196.739 C 241.576 200.132 235.592 206.668 236.364 216.164 C 236.551 218.454 238.679 220.913 242.056 222.741 C 248.691 226.332 260.461 227.561 275.073 221.621 C 267.818 222.026 257.903 221.909 253.825 218.785 C 251.799 217.234 251.12 215.191 252.01 213.32 C 254.301 208.496 266.791 206.032 286.221 210.659 C 312.141 216.83 327.438 220.229 340.366 218.361 C 347.614 217.314 352.808 214.283 355.911 211.899 C 351.187 212.437 343.913 212.647 337.908 210.11 C 328.336 206.065 325.431 201.425 325.312 201.229 L 324.833 200.44 L 325.334 199.665 C 325.651 199.174 333.336 187.645 351.955 188.131 C 372.498 188.674 389.346 203.762 394.021 208.374 C 395.159 209.497 396.178 210.522 397.086 211.453 C 393.868 205.631 388.666 198.066 381.26 192.698 C 364.469 180.525 347.651 176.938 328.328 181.41 C 315.793 184.311 308.212 188.709 302.12 192.243 C 297.094 195.158 293.125 197.461 288.414 197.647 C 284.821 197.787 281.319 197.176 277.62 196.527 C 273.967 195.888 270.038 195.199 265.552 195.199 Z  M 255.893 228.739 C 247.981 228.739 242.793 226.485 240.656 225.328 C 236.336 222.99 233.703 219.736 233.432 216.402 C 232.811 208.76 235.766 198.653 253.383 193.899 C 263.726 191.107 271.376 192.447 278.127 193.629 C 281.668 194.25 285.018 194.835 288.299 194.707 C 292.28 194.55 295.788 192.515 300.643 189.698 C 306.906 186.065 314.7 181.544 327.666 178.544 C 347.875 173.865 365.456 177.607 382.987 190.316 C 397.394 200.759 403.646 218.39 403.905 219.135 C 404.579 221.331 405.047 223.803 405.249 226.492 C 404.052 224.498 402.76 222.513 401.344 220.507 C 401.32 220.476 398.906 217.328 391.953 210.468 C 382.721 201.36 367.344 191.481 351.877 191.072 C 337.575 190.703 330.447 197.941 328.415 200.446 C 329.591 201.784 332.677 204.705 339.053 207.4 C 347.736 211.07 360.035 208.257 360.157 208.227 C 361.5 207.946 362.791 207.601 364 207.163 C 363.288 208.305 362.51 209.456 361.636 210.585 C 361.349 210.94 354.445 219.299 340.788 221.273 C 327.322 223.219 311.808 219.775 285.54 213.52 C 266.261 208.932 255.919 211.947 254.666 214.582 C 254.403 215.138 254.721 215.766 255.613 216.449 C 260.221 219.978 276.894 218.742 282.93 217.969 L 283.818 220.721 C 272.442 226.894 263.053 228.738 255.893 228.739 Z  M 380.131 232.251 L 380.14 232.251 L 380.131 232.251 Z  M 354.7 225.735 C 357.884 230.855 363.174 235.796 368.621 236.006 C 373.444 236.193 377.27 235.215 382.988 233.36 C 382.156 233.501 381.254 233.622 380.269 233.715 L 380.268 233.715 C 374.083 234.3 369.595 231.007 368.367 227.452 C 367.318 224.414 368.528 221.421 371.601 219.447 C 373.72 218.087 375.847 217.427 377.806 217.176 C 373.934 217.003 369.752 218.914 366.332 221.036 C 361.048 224.317 357.102 225.404 354.7 225.735 Z  M 369.814 238.971 C 369.387 238.971 368.952 238.962 368.508 238.946 C 360.053 238.62 353.477 230.043 350.924 225.027 L 349.597 222.418 L 352.482 222.91 C 352.502 222.913 356.849 223.46 364.781 218.537 C 374.222 212.676 382.108 212.793 386.985 218.866 C 388.602 221.01 389.932 222.971 390.943 224.72 C 389.27 223.464 387.362 222.27 385.191 221.107 C 384.945 220.989 379.003 218.191 373.192 221.923 C 371.28 223.15 370.554 224.773 371.148 226.492 C 371.98 228.9 375.37 231.221 379.993 230.786 C 384.147 230.393 386.603 229.486 388.977 228.61 C 391.53 227.667 393.94 226.776 397.881 226.738 C 403.466 226.679 407.945 228.799 410.864 232.853 C 411.915 235.27 412.547 237.527 412.732 239.596 C 411.538 237.997 410.183 236.395 408.636 234.759 C 408.431 234.563 403.328 229.82 392.775 233.231 C 390.843 233.856 389.098 234.437 387.496 234.969 C 379.894 237.498 375.468 238.971 369.814 238.971 Z  M 272.592 249.67 L 271.538 249.229 C 271.14 249.062 270.693 248.9 270.172 248.732 L 264.608 244.257 C 265.249 244.325 271.98 245.972 272.425 245.962 L 275.41 245.937 L 272.592 249.67 Z  M 253.563 248.558 C 253.618 248.581 253.673 248.605 253.727 248.629 C 254.667 247.959 255.657 247.376 256.683 246.887 L 256.303 244.029 C 249.942 240.927 242.848 236.638 235.98 232.484 C 228.296 227.838 220.351 223.033 213.405 219.867 C 198.222 212.947 178.706 210.44 170.183 209.635 L 166.601 214.664 C 170.482 219.418 173.803 224.61 176.491 230.123 L 203.324 225.654 L 203.733 228.106 C 209.552 228.06 215.303 229.122 220.481 231.167 C 225.238 233.046 229.825 235.716 235.135 238.808 C 238.906 241.004 242.796 243.268 247.215 245.523 L 248.084 244.439 L 253.563 248.558 Z  M 254.139 252.013 L 253.112 251.569 C 252.811 251.439 252.509 251.308 252.213 251.176 L 251.929 251.009 L 248.596 248.505 L 248.021 249.22 L 246.959 248.69 C 242.014 246.217 237.574 243.631 233.655 241.35 C 228.448 238.319 223.951 235.7 219.4 233.903 C 214.211 231.852 208.383 230.871 202.54 231.072 L 201.252 231.116 L 200.906 229.039 L 174.784 233.389 L 174.31 232.381 C 171.487 226.379 167.891 220.759 163.621 215.678 L 162.887 214.806 L 168.766 206.552 L 169.607 206.627 C 177.772 207.356 198.507 209.843 214.625 217.19 C 221.726 220.427 229.746 225.277 237.503 229.967 C 244.57 234.241 251.879 238.66 258.291 241.722 L 259.009 242.065 L 259.896 248.723 L 258.839 249.151 C 257.42 249.726 256.069 250.508 254.826 251.477 L 254.139 252.013 Z  M 283.189 246.119 L 284.934 247.477 L 282.615 250.655 C 287.737 248.277 292.006 244.713 295.566 241.74 L 296.171 241.236 C 298.545 239.257 300.911 237.633 303.082 236.319 C 298.574 237.799 294.635 240.003 290.774 242.163 C 288.209 243.598 285.752 244.973 283.189 246.119 Z  M 278.893 255.189 L 278.114 254.191 C 278.057 254.116 278.001 254.04 277.942 253.969 L 277.2 253.087 L 280.877 248.047 L 277.304 245.268 L 279.77 244.346 C 283.02 243.131 286.089 241.413 289.338 239.596 C 296.156 235.781 303.206 231.836 313.239 231.603 C 316.375 231.716 320.417 231.942 325.334 232.251 C 320.236 232.779 316.374 233.531 313.718 234.475 C 313.64 234.5 305.796 237.045 298.053 243.496 L 297.451 243.999 C 292.882 247.814 287.194 252.563 279.865 254.881 L 278.893 255.189 Z  M 219.542 265.97 C 224.826 265.97 230.273 267.121 235.855 269.424 C 237.097 269.936 238.509 270.499 240.001 271.083 L 239.526 262.53 L 244.631 262.088 C 236.824 255.494 228.815 249.258 222.509 248.125 C 216.983 247.131 212.02 247.033 207.016 247.826 L 210.242 267.205 C 213.279 266.382 216.381 265.97 219.542 265.97 Z  M 246.437 273.547 C 246.9 273.722 247.36 273.893 247.814 274.064 C 247.708 273.869 247.605 273.671 247.505 273.472 L 246.437 273.547 Z  M 180.055 291.272 L 180.335 291.473 C 183.362 289.245 185.689 286.33 188.142 283.257 C 191.646 278.868 195.27 274.329 201.44 270.848 L 201.44 270.848 C 202.626 270.181 203.822 269.581 205.03 269.051 L 184.154 272.526 C 183.551 278.923 182.174 285.218 180.055 291.272 Z  M 180.29 295.066 L 176.533 292.359 L 176.916 291.312 C 179.289 284.828 180.772 278.043 181.322 271.146 L 181.413 270 L 207.016 265.737 L 203.639 245.456 L 205.048 245.185 C 210.903 244.062 216.616 244.076 223.03 245.229 C 230.464 246.565 239.095 253.503 248.024 261.109 L 248.636 261.63 L 248.528 262.427 C 248.478 262.79 248.431 263.127 248.407 263.471 L 248.316 264.722 L 242.621 265.216 L 242.934 270.845 L 249.337 270.393 L 249.753 271.344 C 250.429 272.886 251.335 274.32 252.447 275.604 L 253.194 276.467 L 251.686 278.639 L 250.618 278.244 C 245.846 276.483 239.217 273.994 234.733 272.143 C 223.395 267.465 212.678 267.891 202.886 273.411 L 202.886 273.411 C 197.214 276.61 193.77 280.923 190.441 285.092 C 187.623 288.623 184.96 291.958 181.138 294.502 L 180.29 295.066 Z  M 387.584 331.247 C 388.291 331.247 389.044 331.288 389.809 331.395 C 391.129 331.579 392.394 332.178 393.86 332.871 C 395.47 333.633 397.23 334.466 399.392 334.904 C 397.533 333.977 396.302 332.479 395.951 330.67 C 395.506 328.375 396.577 325.919 398.888 323.934 C 400.051 322.933 401.218 322.401 402.433 322.16 C 401.554 322.074 400.61 321.993 399.597 321.917 C 391.558 321.299 387.586 327.77 386.006 331.313 C 386.49 331.272 387.022 331.247 387.584 331.247 Z  M 402.494 338.154 C 398.146 338.154 395.071 336.699 392.601 335.53 C 391.353 334.94 390.275 334.431 389.402 334.308 C 386.714 333.933 384.127 334.553 384.101 334.558 L 381.653 335.155 L 382.338 332.73 C 382.38 332.583 386.635 318.02 399.816 318.983 C 406.427 319.477 410.111 320.22 412.801 320.761 C 415.032 321.211 416.506 321.511 418.451 321.42 L 418.451 321.42 C 422.428 321.239 426.517 317.806 426.69 317.66 L 427.406 317.052 C 428.522 315.995 429.669 314.643 430.819 312.968 C 430.249 314.851 429.825 316.552 429.486 318.011 L 429.028 319.279 C 428.928 319.554 426.481 326.018 416.729 326.171 C 413.189 326.222 410.382 325.766 408.122 325.394 C 404.382 324.782 402.652 324.579 400.806 326.165 C 399.318 327.444 398.602 328.882 398.839 330.11 C 399.049 331.187 399.995 332.085 401.433 332.573 C 404.787 333.709 407.715 333.355 409.467 331.602 C 409.873 331.495 410.693 330.648 411.865 329 C 412.202 330.589 412.232 332.02 411.865 333.204 C 411.782 333.406 409.734 338.154 402.494 338.154 Z  M 116.657 367.968 C 132.676 378.063 160.675 374.771 176.527 371.745 C 178.609 371.347 180.864 370.892 183.28 370.405 C 196.791 367.678 215.294 363.943 236.249 363.698 C 247.029 363.585 255.424 365.937 261.534 368.709 C 253.965 363.968 243.276 360.283 232.468 360.031 C 223.712 359.817 217.107 360.811 209.465 361.955 C 201.43 363.156 192.325 364.517 178.112 365.046 C 149.342 366.105 143.915 355.049 143.698 354.577 L 142.414 351.79 L 145.391 352.535 C 161.401 356.536 181.709 346.839 197.613 337.943 C 211.228 330.328 219.84 335.098 226.759 338.932 C 227.855 339.539 228.892 340.114 229.922 340.628 C 236.965 344.149 243.411 345.865 252.912 346.748 C 259.331 347.346 267.004 352.178 275.126 357.293 C 279.011 359.74 283.029 362.27 287.127 364.493 C 292.429 367.368 297.662 367.534 301.83 366.839 C 297.03 365.977 292.112 363.911 288.555 361.422 C 284.49 358.578 282.343 355.384 282.343 352.184 C 282.343 348.657 283.815 345.639 286.599 343.456 C 290.94 340.053 297.784 339.173 305.379 341.038 C 310.055 342.186 314.638 344.389 319.488 346.721 C 327.094 350.379 334.965 354.172 343.535 353.85 C 343.886 353.837 344.231 353.82 344.568 353.803 C 341.381 353.297 337.878 352.385 334.022 351.069 C 321.173 346.681 304.962 337.134 304.279 336.73 L 301.931 335.341 L 304.381 334.142 C 307.577 332.578 311.123 330.244 315.228 327.542 C 323.709 321.96 334.262 315.012 349.662 309.316 C 363.048 304.366 375.621 304.184 383.989 304.956 C 378.922 303.376 371.655 302.156 362 302.966 C 345.822 304.323 336.064 308.022 322.559 313.143 L 319.866 314.163 C 315.576 315.782 311.386 317.773 306.95 319.879 C 296.01 325.075 284.698 330.447 270.388 330.977 C 257.692 331.442 247.414 328.88 242.184 323.931 C 240.192 322.048 239.118 319.938 239.079 317.83 C 239.013 314.284 240.507 310.816 243.176 308.317 C 245.645 306.006 250.344 303.407 258.752 304.11 C 264.775 304.62 270.731 305.925 275.557 307.241 C 266.635 302.091 254.108 296.98 236.405 296.98 C 219.76 296.98 205.739 301.807 198.748 304.744 L 202.127 307.18 L 176.935 342.134 L 155.347 326.574 C 150.376 330.656 144.939 334.115 139.155 336.876 L 143.401 363.741 L 116.657 367.968 Z  M 278.127 386 C 275.736 383.2 273.622 380.876 271.757 379 C 271.643 378.875 259.825 366.406 236.283 366.64 C 215.604 366.881 197.258 370.584 183.862 373.289 C 181.436 373.778 179.169 374.236 177.078 374.635 C 159.738 377.943 128.224 381.507 111.963 368.212 L 109.42 366.133 L 140.035 361.295 L 135.902 335.142 L 136.914 334.677 C 143.182 331.792 149.043 328.064 154.333 323.591 L 155.211 322.849 L 176.268 338.028 L 198.021 307.846 L 192.888 304.148 L 195.186 303.096 C 202.568 299.714 217.738 294.039 236.405 294.039 C 262.355 294.039 277.513 304.582 286.569 310.882 C 288.88 312.984 291.2 315.254 293.5 317.66 C 290.688 316.014 287.927 314.623 285.187 313.457 C 285.054 313.404 271.705 308.16 258.504 307.042 C 252.713 306.548 248.103 307.734 245.186 310.464 C 243.124 312.396 241.97 315.06 242.02 317.775 C 242.044 319.075 242.8 320.465 244.206 321.795 C 248.798 326.139 258.544 328.473 270.278 328.037 C 283.984 327.53 295.017 322.29 305.689 317.222 C 310.181 315.088 314.424 313.074 318.825 311.411 L 321.515 310.393 C 335.245 305.187 345.165 301.427 361.755 300.034 C 382.577 298.292 392.904 305.47 394.763 306.926 L 403.646 314.163 C 400.51 312.288 397.124 310.744 393.458 309.5 C 393.253 309.441 372.823 303.886 350.683 312.076 C 335.6 317.654 325.2 324.5 316.846 330 C 313.634 332.114 310.758 334.006 308.075 335.517 C 313.059 338.334 325.2 344.947 334.972 348.284 C 346.885 352.352 354.989 352.352 360.48 348.286 C 364.39 345.438 366.89 343.197 367.917 341.505 C 366.383 344.067 364.621 346.992 362.601 350.25 C 362.447 350.495 358.67 356.245 343.643 356.79 C 334.327 357.125 326.142 353.185 318.213 349.373 C 313.504 347.11 309.056 344.97 304.677 343.895 C 298.066 342.272 291.985 342.971 288.413 345.77 C 286.366 347.375 285.285 349.594 285.285 352.184 C 285.285 354.35 287.045 356.775 290.243 359.012 C 296.424 363.337 305.836 365.463 310.795 363.657 C 313.434 362.735 315.412 361.958 316.699 361.295 C 315.693 363.188 314.175 364.87 312.084 366.281 C 311.56 366.614 299.078 374.321 285.725 367.079 C 281.543 364.811 277.484 362.255 273.558 359.782 C 265.741 354.86 258.359 350.21 252.64 349.677 C 242.744 348.757 236.005 346.958 228.606 343.26 C 227.521 342.716 226.458 342.128 225.333 341.505 C 218.401 337.664 211.234 333.694 199.048 340.51 C 183.148 349.404 165.015 358.01 149.1 356.184 C 152.791 358.978 160.973 362.737 178.003 362.106 C 192.051 361.583 201.071 360.235 209.029 359.044 C 216.806 357.882 223.523 356.877 232.537 357.089 C 250.104 357.5 269.567 366.996 274.187 377.41 C 275.509 379.957 276.832 382.83 278.127 386 Z " fill="rgb(170,111,58)"/><path d=" M 168.531 265.219 C 168.531 281.28 162.423 295.914 152.404 306.926 C 141.065 319.388 124.716 327.211 106.539 327.211 C 72.301 327.211 44.547 299.457 44.547 265.219 C 44.547 230.982 72.301 203.227 106.539 203.227 C 122.575 203.227 137.189 209.316 148.195 219.307 C 160.687 230.649 168.531 247.018 168.531 265.219 Z  M 183.696 271.501 L 209.618 267.184 L 203.024 227.585 L 176.55 231.993 C 173.67 225.867 170.017 220.16 165.655 214.969 L 180.706 193.839 L 148.01 170.546 L 132.815 191.877 C 126.218 189.443 119.354 187.92 112.347 187.337 L 108.122 161.404 L 68.5 167.859 L 72.816 194.346 C 66.62 197.231 60.845 200.912 55.592 205.323 L 34.322 189.887 L 10.744 222.379 L 32.463 238.141 C 30.094 244.553 28.587 251.233 27.966 258.064 L 2 262.088 L 8.15 301.76 L 34.669 297.649 C 37.507 303.866 41.142 309.67 45.512 314.957 L 29.912 336.106 L 62.22 359.936 L 78.147 338.34 C 84.804 340.859 91.754 342.446 98.872 343.071 L 102.974 369.023 L 142.626 362.755 L 138.437 336.25 C 144.837 333.307 150.79 329.518 156.191 324.954 L 177.511 340.319 L 200.983 307.751 L 179.207 292.057 C 181.63 285.435 183.134 278.543 183.696 271.501 Z " fill="rgb(170,111,58)"/><path d=" M 167.802 265.046 C 167.802 281.106 161.695 295.74 151.676 306.752 C 140.337 319.216 123.987 327.038 105.81 327.038 C 71.572 327.038 43.818 299.283 43.818 265.046 C 43.818 230.809 71.572 203.055 105.81 203.055 C 121.847 203.055 136.46 209.143 147.467 219.135 C 159.958 230.476 167.802 246.845 167.802 265.046 Z  M 180.54 268.465 L 205.785 264.261 L 200.29 231.259 L 174.573 235.542 C 171.32 227.968 166.855 221.039 161.418 215.002 L 176.058 194.449 L 148.809 175.036 L 134.045 195.762 C 126.407 192.647 118.145 190.744 109.49 190.326 L 105.375 165.069 L 72.354 170.449 L 76.545 196.177 C 68.89 199.435 61.889 203.932 55.794 209.417 L 35.08 194.386 L 15.431 221.463 L 36.531 236.775 C 33.477 244.252 31.597 252.331 31.122 260.788 L 5.833 264.708 L 10.957 297.769 L 36.718 293.776 C 39.917 301.459 44.36 308.494 49.796 314.629 L 34.604 335.227 L 61.529 355.086 L 77.003 334.106 C 84.694 337.318 93.036 339.284 101.776 339.748 L 105.771 365.024 L 138.818 359.801 L 134.747 334.054 C 142.607 330.755 149.782 326.15 156.006 320.513 L 176.768 335.478 L 196.33 308.336 L 175.175 293.089 C 178.275 285.428 180.149 277.142 180.54 268.465 Z " fill="rgb(195,163,65)"/><path d=" M 167.802 265.046 C 167.802 281.106 161.695 295.74 151.676 306.752 C 140.337 319.216 123.987 327.038 105.81 327.038 C 71.572 327.038 43.818 299.283 43.818 265.046 C 43.818 230.809 71.572 203.055 105.81 203.055 C 121.847 203.055 136.46 209.143 147.467 219.135 C 159.958 230.476 167.802 246.845 167.802 265.046 Z  M 180.54 268.465 L 205.785 264.261 L 200.29 231.259 L 174.573 235.542 C 171.32 227.968 166.855 221.039 161.418 215.002 L 176.058 194.449 L 148.809 175.036 L 134.045 195.762 C 126.407 192.647 118.145 190.744 109.49 190.326 L 105.375 165.069 L 72.354 170.449 L 76.545 196.177 C 68.89 199.435 61.889 203.932 55.794 209.417 L 35.08 194.386 L 15.431 221.463 L 36.531 236.775 C 33.477 244.252 31.597 252.331 31.122 260.788 L 5.833 264.708 L 10.957 297.769 L 36.718 293.776 C 39.917 301.459 44.36 308.494 49.796 314.629 L 34.604 335.227 L 61.529 355.086 L 77.003 334.106 C 84.694 337.318 93.036 339.284 101.776 339.748 L 105.771 365.024 L 138.818 359.801 L 134.747 334.054 C 142.607 330.755 149.782 326.15 156.006 320.513 L 176.768 335.478 L 196.33 308.336 L 175.175 293.089 C 178.275 285.428 180.149 277.142 180.54 268.465 Z " fill-rule="evenodd" fill="none" vector-effect="non-scaling-stroke" stroke-width="3" stroke="rgb(170,111,58)" stroke-linejoin="miter" stroke-linecap="square" stroke-miterlimit="3"/><path d=" M 105.795 323.132 C 73.643 323.132 47.484 296.975 47.484 264.823 C 47.484 232.669 73.643 206.511 105.795 206.511 C 120.318 206.511 134.233 211.884 144.979 221.64 L 129.806 238.353 C 123.223 232.375 114.696 229.084 105.795 229.084 C 86.089 229.084 70.056 245.117 70.056 264.823 C 70.056 284.528 86.089 300.56 105.795 300.56 C 115.836 300.56 125.475 296.296 132.237 288.863 L 148.934 304.053 C 137.904 316.178 122.179 323.132 105.795 323.132 Z " fill="rgb(195,163,65)"/><path d=" M 105.795 323.132 C 73.643 323.132 47.484 296.975 47.484 264.823 C 47.484 232.669 73.643 206.511 105.795 206.511 C 120.318 206.511 134.233 211.884 144.979 221.64 L 129.806 238.353 C 123.223 232.375 114.696 229.084 105.795 229.084 C 86.089 229.084 70.056 245.117 70.056 264.823 C 70.056 284.528 86.089 300.56 105.795 300.56 C 115.836 300.56 125.475 296.296 132.237 288.863 L 148.934 304.053 C 137.904 316.178 122.179 323.132 105.795 323.132 Z " fill="none" vector-effect="non-scaling-stroke" stroke-width="3" stroke="rgb(170,111,58)" stroke-linejoin="miter" stroke-linecap="square" stroke-miterlimit="3"/><path d=" M 287.815 301.242 C 287.815 300.054 287.391 299.017 286.542 298.131 C 285.693 297.245 284.715 296.801 283.609 296.801 C 282.407 296.801 281.384 297.245 280.538 298.131 C 279.694 299.017 279.27 300.115 279.27 301.425 C 279.27 302.674 279.692 303.729 280.533 304.588 C 281.376 305.446 282.387 305.875 283.568 305.875 C 284.709 305.875 285.701 305.422 286.547 304.516 C 287.392 303.609 287.814 302.519 287.815 301.242 Z  M 287.815 305.143 C 287.366 305.788 286.76 306.293 285.996 306.659 C 285.233 307.026 284.41 307.21 283.527 307.21 C 281.884 307.21 280.517 306.648 279.423 305.523 C 278.33 304.4 277.784 303.014 277.784 301.364 C 277.784 299.687 278.343 298.285 279.46 297.158 C 280.576 296.031 281.973 295.468 283.65 295.468 C 284.512 295.468 285.302 295.642 286.022 295.992 C 286.742 296.342 287.339 296.846 287.814 297.505 L 287.815 295.712 L 289.221 295.712 L 289.221 306.914 L 287.815 306.914 L 287.815 305.143 Z " fill="rgb(254,254,254)"/><path d=" M 306.396 299.154 C 305.954 298.339 305.417 297.737 304.782 297.347 C 304.147 296.956 303.392 296.761 302.516 296.761 C 301.362 296.761 300.383 297.199 299.578 298.074 C 298.774 298.951 298.371 300.034 298.371 301.323 C 298.371 302.613 298.775 303.691 299.583 304.556 C 300.391 305.422 301.389 305.855 302.578 305.855 C 303.447 305.855 304.214 305.641 304.88 305.213 C 305.544 304.786 306.051 304.185 306.396 303.411 L 307.985 303.411 C 307.551 304.627 306.867 305.566 305.939 306.232 C 305.007 306.897 303.912 307.23 302.649 307.23 C 301.026 307.23 299.657 306.654 298.54 305.504 C 297.423 304.353 296.864 302.967 296.864 301.344 C 296.866 299.687 297.429 298.284 298.56 297.133 C 299.69 295.982 301.067 295.407 302.69 295.407 C 303.905 295.407 304.976 295.733 305.902 296.39 C 306.829 297.045 307.522 297.966 307.985 299.154 L 306.396 299.154 Z " fill="rgb(254,254,254)"/><path d=" M 310.483 306.914 L 309.027 306.914 L 309.027 295.712 L 310.382 295.712 L 310.382 297.005 C 310.734 296.509 311.119 296.146 311.537 295.916 C 311.955 295.685 312.441 295.563 312.998 295.549 L 313.009 297.107 C 312.106 297.189 311.46 297.458 311.068 297.917 C 310.678 298.375 310.483 299.121 310.483 300.152 L 310.483 306.914 Z " fill="rgb(254,254,254)"/><path d=" M 323.514 300.519 C 323.243 299.273 322.744 298.335 322.017 297.706 C 321.291 297.076 320.343 296.761 319.176 296.761 C 318.09 296.761 317.17 297.1 316.416 297.776 C 315.663 298.454 315.201 299.367 315.031 300.519 L 323.514 300.519 Z  M 325.102 301.771 L 314.99 301.771 C 315.078 302.99 315.521 303.976 316.315 304.728 C 317.109 305.479 318.1 305.855 319.288 305.855 C 320.13 305.855 320.887 305.637 321.559 305.202 C 322.231 304.765 322.751 304.157 323.117 303.381 L 324.747 303.381 C 324.231 304.62 323.506 305.571 322.572 306.235 C 321.639 306.898 320.558 307.23 319.328 307.23 C 317.7 307.23 316.321 306.65 315.195 305.489 C 314.067 304.328 313.503 302.932 313.503 301.303 C 313.503 299.599 314.055 298.191 315.159 297.077 C 316.262 295.963 317.672 295.407 319.39 295.407 C 321.074 295.407 322.447 295.986 323.509 297.145 C 324.572 298.303 325.102 299.811 325.102 301.666 L 325.102 301.771 Z " fill="rgb(254,254,254)"/><path d=" M 336.152 301.242 C 336.152 300.054 335.728 299.017 334.878 298.131 C 334.03 297.245 333.052 296.801 331.946 296.801 C 330.744 296.801 329.72 297.245 328.876 298.131 C 328.031 299.017 327.608 300.115 327.608 301.425 C 327.608 302.674 328.029 303.729 328.871 304.588 C 329.712 305.446 330.724 305.875 331.905 305.875 C 333.046 305.875 334.039 305.422 334.883 304.516 C 335.73 303.609 336.151 302.519 336.152 301.242 Z  M 336.152 305.143 C 335.704 305.788 335.098 306.293 334.334 306.659 C 333.57 307.026 332.747 307.21 331.865 307.21 C 330.221 307.21 328.853 306.648 327.76 305.523 C 326.667 304.4 326.121 303.014 326.121 301.364 C 326.121 299.687 326.679 298.285 327.796 297.158 C 328.913 296.031 330.31 295.468 331.987 295.468 C 332.849 295.468 333.64 295.642 334.36 295.992 C 335.078 296.342 335.677 296.846 336.151 297.505 L 336.152 295.712 L 337.557 295.712 L 337.557 306.914 L 336.152 306.914 L 336.152 305.143 Z " fill="rgb(254,254,254)"/><path d=" M 341.455 306.914 L 341.455 297.158 L 339.326 297.158 L 339.326 295.712 L 341.455 295.712 L 341.455 292.087 L 342.892 292.087 L 342.892 295.712 L 345.02 295.712 L 345.02 297.158 L 342.892 297.158 L 342.892 306.914 L 341.455 306.914 Z " fill="rgb(254,254,254)"/><path d=" M 346.045 306.914 L 346.045 295.712 L 347.48 295.712 L 347.48 306.914 L 346.045 306.914 Z  M 347.48 294.398 L 346.045 294.398 L 346.045 292.087 L 347.48 292.087 L 347.48 294.398 Z " fill="rgb(254,254,254)"/><path d=" M 354.036 306.914 L 352.722 306.914 L 348.342 295.712 L 349.86 295.712 L 353.446 304.745 L 357.06 295.712 L 358.619 295.712 L 354.036 306.914 Z " fill="rgb(254,254,254)"/><path d=" M 368.859 300.519 C 368.588 299.273 368.089 298.335 367.362 297.706 C 366.636 297.076 365.689 296.761 364.521 296.761 C 363.434 296.761 362.515 297.1 361.761 297.776 C 361.007 298.454 360.546 299.367 360.376 300.519 L 368.859 300.519 Z  M 370.447 301.771 L 360.336 301.771 C 360.423 302.99 360.865 303.976 361.66 304.728 C 362.454 305.479 363.444 305.855 364.633 305.855 C 365.474 305.855 366.231 305.637 366.904 305.202 C 367.577 304.765 368.095 304.157 368.462 303.381 L 370.092 303.381 C 369.575 304.62 368.851 305.571 367.917 306.235 C 366.983 306.898 365.903 307.23 364.674 307.23 C 363.044 307.23 361.666 306.65 360.539 305.489 C 359.412 304.328 358.848 302.932 358.848 301.303 C 358.848 299.599 359.4 298.191 360.503 297.077 C 361.607 295.963 363.017 295.407 364.735 295.407 C 366.419 295.407 367.791 295.986 368.853 297.145 C 369.916 298.303 370.447 299.811 370.447 301.666 L 370.447 301.771 Z " fill="rgb(254,254,254)"/><path d=" M 379.408 306.914 L 377.952 306.914 L 377.952 295.712 L 379.306 295.712 L 379.306 297.005 C 379.659 296.509 380.045 296.146 380.462 295.916 C 380.88 295.685 381.366 295.563 381.923 295.549 L 381.934 297.107 C 381.031 297.189 380.384 297.458 379.993 297.917 C 379.603 298.375 379.408 299.121 379.408 300.152 L 379.408 306.914 Z " fill="rgb(254,254,254)"/><path d=" M 392.44 300.519 C 392.169 299.273 391.67 298.335 390.943 297.706 C 390.217 297.076 389.269 296.761 388.101 296.761 C 387.015 296.761 386.096 297.1 385.342 297.776 C 384.588 298.454 384.127 299.367 383.956 300.519 L 392.44 300.519 Z  M 394.028 301.771 L 383.916 301.771 C 384.004 302.99 384.446 303.976 385.24 304.728 C 386.034 305.479 387.026 305.855 388.214 305.855 C 389.056 305.855 389.813 305.637 390.484 305.202 C 391.157 304.765 391.676 304.157 392.043 303.381 L 393.672 303.381 C 393.157 304.62 392.431 305.571 391.498 306.235 C 390.565 306.898 389.483 307.23 388.254 307.23 C 386.625 307.23 385.247 306.65 384.12 305.489 C 382.992 304.328 382.429 302.932 382.429 301.303 C 382.429 299.599 382.982 298.191 384.085 297.077 C 385.187 295.963 386.598 295.407 388.316 295.407 C 389.999 295.407 391.373 295.986 392.435 297.145 C 393.498 298.303 394.028 299.811 394.028 301.666 L 394.028 301.771 Z " fill="rgb(254,254,254)"/><path d=" M 399.91 306.914 L 398.597 306.914 L 394.218 295.712 L 395.736 295.712 L 399.321 304.745 L 402.936 295.712 L 404.494 295.712 L 399.91 306.914 Z " fill="rgb(254,254,254)"/><path d=" M 406.231 301.303 C 406.231 302.593 406.642 303.674 407.463 304.546 C 408.286 305.419 409.307 305.855 410.53 305.855 C 411.731 305.855 412.739 305.419 413.554 304.546 C 414.368 303.674 414.776 302.586 414.776 301.283 C 414.776 299.959 414.363 298.871 413.538 298.018 C 412.714 297.166 411.667 296.741 410.397 296.741 C 409.257 296.741 408.277 297.178 407.458 298.055 C 406.641 298.93 406.231 300.013 406.231 301.303 Z  M 404.724 301.323 C 404.724 299.681 405.287 298.274 406.415 297.107 C 407.543 295.939 408.876 295.356 410.417 295.356 C 412.04 295.356 413.422 295.929 414.567 297.077 C 415.711 298.223 416.283 299.592 416.283 301.18 C 416.283 302.851 415.722 304.277 414.602 305.457 C 413.482 306.639 412.124 307.23 410.53 307.23 C 408.907 307.23 407.534 306.651 406.41 305.494 C 405.286 304.336 404.724 302.946 404.724 301.323 Z " fill="rgb(254,254,254)"/><path d=" M 417.848 306.914 L 417.848 290.174 L 419.284 290.174 L 419.284 306.914 L 417.848 306.914 Z " fill="rgb(254,254,254)"/><path d=" M 421.42 295.712 L 422.835 295.712 L 422.835 301.659 C 422.835 303.186 423.083 304.268 423.578 304.902 C 424.073 305.538 424.889 305.855 426.023 305.855 C 426.668 305.855 427.234 305.724 427.723 305.463 C 428.211 305.202 428.606 304.823 428.905 304.328 C 429.073 304.036 429.196 303.691 429.271 303.294 C 429.345 302.896 429.383 302.206 429.383 301.221 L 429.383 295.712 L 430.819 295.712 L 430.819 306.914 L 429.383 306.914 L 429.383 305.703 C 428.949 306.231 428.463 306.616 427.926 306.853 C 427.39 307.09 426.741 307.21 425.981 307.21 C 424.366 307.21 423.201 306.774 422.488 305.901 C 421.776 305.028 421.42 303.581 421.42 301.557 L 421.42 295.712 Z " fill="rgb(254,254,254)"/><path d=" M 433.932 306.914 L 433.932 297.158 L 431.803 297.158 L 431.803 295.712 L 433.932 295.712 L 433.932 292.087 L 435.367 292.087 L 435.367 295.712 L 437.496 295.712 L 437.496 297.158 L 435.367 297.158 L 435.367 306.914 L 433.932 306.914 Z " fill="rgb(254,254,254)"/><path d=" M 438.521 306.914 L 438.521 295.712 L 439.957 295.712 L 439.957 306.914 L 438.521 306.914 Z  M 439.957 294.398 L 438.521 294.398 L 438.521 292.087 L 439.957 292.087 L 439.957 294.398 Z " fill="rgb(254,254,254)"/><path d=" M 443.029 301.303 C 443.029 302.593 443.44 303.674 444.261 304.546 C 445.083 305.419 446.104 305.855 447.327 305.855 C 448.528 305.855 449.536 305.419 450.351 304.546 C 451.165 303.674 451.572 302.586 451.572 301.283 C 451.573 299.959 451.16 298.871 450.336 298.018 C 449.512 297.166 448.464 296.741 447.194 296.741 C 446.054 296.741 445.074 297.178 444.256 298.055 C 443.438 298.93 443.029 300.013 443.029 301.303 Z  M 441.522 301.323 C 441.522 299.681 442.085 298.274 443.212 297.107 C 444.339 295.939 445.674 295.356 447.214 295.356 C 448.837 295.356 450.22 295.929 451.364 297.077 C 452.509 298.223 453.08 299.592 453.08 301.18 C 453.08 302.851 452.519 304.277 451.4 305.457 C 450.28 306.639 448.922 307.23 447.327 307.23 C 445.703 307.23 444.331 306.651 443.206 305.494 C 442.084 304.336 441.522 302.946 441.522 301.323 Z " fill="rgb(254,254,254)"/><path d=" M 454.624 295.712 L 456.019 295.712 L 456.019 296.985 C 456.461 296.476 456.972 296.099 457.552 295.855 C 458.133 295.61 458.796 295.488 459.543 295.488 C 460.365 295.488 461.095 295.64 461.737 295.946 C 462.379 296.251 462.887 296.69 463.259 297.26 C 463.518 297.66 463.704 298.131 463.814 298.671 C 463.926 299.211 463.983 300.006 463.983 301.058 L 463.983 306.914 L 462.567 306.914 L 462.567 300.641 C 462.567 299.317 462.314 298.357 461.809 297.759 C 461.303 297.162 460.493 296.863 459.38 296.863 C 458.728 296.863 458.156 296.994 457.664 297.255 C 457.172 297.516 456.783 297.892 456.498 298.38 C 456.321 298.685 456.198 299.034 456.126 299.424 C 456.055 299.815 456.018 300.495 456.018 301.466 L 456.019 306.914 L 454.624 306.914 L 454.624 295.712 Z " fill="rgb(254,254,254)"/><path d=" M 129.214 273.256 C 128.796 278.942 126.423 283.462 122.094 286.814 C 117.764 290.166 112.116 291.842 105.15 291.842 C 97.128 291.842 90.892 289.532 86.439 284.911 C 81.987 280.29 79.761 273.812 79.761 265.476 C 79.761 256.959 82.03 250.436 86.568 245.905 C 91.106 241.376 97.631 239.11 106.143 239.11 C 113.061 239.11 118.525 240.668 122.536 243.782 C 126.547 246.897 128.747 251.297 129.141 256.983 L 118.139 256.983 C 117.673 254.151 116.421 251.993 114.385 250.509 C 112.349 249.026 109.602 248.284 106.143 248.284 C 101.237 248.284 97.508 249.745 94.958 252.667 C 92.406 255.589 91.13 259.859 91.13 265.476 C 91.13 270.913 92.4 275.115 94.939 278.082 C 97.478 281.049 101.089 282.532 105.776 282.532 C 109.161 282.532 111.931 281.734 114.091 280.137 C 116.249 278.54 117.648 276.247 118.286 273.257 L 129.214 273.256 Z " fill="rgb(254,254,254)"/><path d=" M 142.808 261.662 L 153.792 261.662 C 156.178 261.662 157.931 261.255 159.052 260.441 C 160.173 259.627 160.734 258.346 160.734 256.597 C 160.734 254.935 160.189 253.675 159.098 252.818 C 158.008 251.961 156.384 251.532 154.224 251.532 L 142.808 251.532 L 142.808 261.662 Z  M 133.46 283.195 L 133.46 244.935 L 155.488 244.935 C 160.445 244.935 164.117 245.826 166.503 247.61 C 168.889 249.393 170.081 252.121 170.081 255.792 C 170.082 258.13 169.501 260.078 168.339 261.637 C 167.177 263.194 165.506 264.259 163.326 264.831 C 165.3 265.42 166.703 266.32 167.536 267.532 C 168.37 268.744 168.848 270.632 168.971 273.195 L 169.156 277.714 C 169.156 277.75 169.156 277.802 169.156 277.87 C 169.218 280.157 169.804 281.542 170.915 282.026 L 170.915 283.195 L 160.672 283.195 C 160.343 282.659 160.091 281.997 159.916 281.208 C 159.74 280.42 159.633 279.48 159.591 278.39 L 159.469 274.364 C 159.365 271.991 158.836 270.39 157.88 269.558 C 156.923 268.728 155.2 268.312 152.712 268.312 L 142.808 268.312 L 142.808 283.195 L 133.46 283.195 Z " fill="rgb(254,254,254)"/><path d=" M 172.477 283.195 L 172.477 244.935 L 205.487 244.935 L 205.487 251.584 L 181.701 251.584 L 181.701 259.74 L 203.448 259.74 L 203.448 266.285 L 181.701 266.285 L 181.701 276.13 L 206.599 276.13 L 206.599 283.195 L 172.477 283.195 Z " fill="rgb(254,254,254)"/><path d=" M 291.749 283.195 L 291.749 244.935 L 301.096 244.935 L 301.096 276.13 L 323.28 276.13 L 323.28 283.195 L 291.749 283.195 Z " fill="rgb(254,254,254)"/><path d=" M 324.359 244.831 L 333.801 244.831 L 333.801 268.831 C 333.801 271.792 334.499 273.953 335.897 275.312 C 337.297 276.671 339.518 277.351 342.563 277.351 C 345.648 277.351 347.894 276.675 349.303 275.324 C 350.712 273.974 351.417 271.81 351.417 268.831 L 351.417 244.831 L 360.765 244.831 L 360.765 269.688 C 360.765 274.381 359.207 277.983 356.091 280.493 C 352.975 283.005 348.486 284.26 342.624 284.26 C 336.721 284.26 332.201 283.01 329.064 280.507 C 325.928 278.005 324.359 274.399 324.359 269.688 L 324.359 244.831 Z " fill="rgb(254,254,254)"/><path d=" M 376.685 283.195 L 376.685 251.766 L 363.203 251.766 L 363.203 244.935 L 399.423 244.935 L 399.423 251.766 L 386.033 251.766 L 386.033 283.195 L 376.685 283.195 Z " fill="rgb(254,254,254)"/><path d=" M 459.313 283.195 L 459.313 244.935 L 469.094 244.935 L 487.544 271.221 L 487.544 244.935 L 496.769 244.935 L 496.769 283.195 L 487.111 283.195 L 468.538 256.909 L 468.538 283.195 L 459.313 283.195 Z " fill="rgb(254,254,254)"/><path d=" M 435.201 253.962 C 429.355 253.962 424.598 258.72 424.598 264.567 C 424.598 270.413 429.355 275.171 435.201 275.171 C 441.049 275.171 445.805 270.414 445.805 264.567 C 445.805 258.719 441.049 253.962 435.201 253.962 Z  M 435.201 277.702 C 427.959 277.702 422.067 271.81 422.067 264.567 C 422.067 257.324 427.959 251.432 435.201 251.432 C 442.444 251.432 448.336 257.324 448.336 264.567 C 448.336 271.809 442.444 277.702 435.201 277.702 Z " fill="rgb(254,254,254)"/><path d=" M 419.365 264.567 C 419.365 255.834 426.469 248.731 435.201 248.731 C 443.934 248.731 451.039 255.834 451.039 264.567 C 451.039 273.299 443.934 280.404 435.201 280.404 C 426.469 280.404 419.365 273.299 419.365 264.567 Z  M 456.055 264.567 C 456.055 264.433 456.047 264.301 456.044 264.168 L 456.518 264.145 L 456.463 263.022 L 455.994 263.046 C 455.975 262.798 455.957 262.551 455.93 262.306 L 456.394 262.241 L 456.239 261.128 L 455.778 261.193 C 455.738 260.947 455.695 260.703 455.647 260.461 L 456.101 260.355 L 455.848 259.261 L 455.399 259.365 C 455.336 259.124 455.265 258.887 455.195 258.651 L 455.641 258.504 L 455.291 257.437 L 454.848 257.582 C 454.764 257.347 454.675 257.117 454.583 256.888 L 455.017 256.7 L 454.572 255.669 L 454.14 255.855 C 454.037 255.629 453.929 255.408 453.817 255.186 L 454.235 254.961 L 453.699 253.972 L 453.282 254.198 C 453.159 253.983 453.033 253.77 452.903 253.56 L 453.299 253.297 L 452.677 252.361 L 452.281 252.624 C 452.139 252.422 451.996 252.22 451.847 252.023 L 452.219 251.724 L 451.517 250.848 L 451.145 251.146 C 450.985 250.957 450.826 250.768 450.658 250.585 L 451.002 250.253 L 450.225 249.443 L 449.882 249.773 C 449.706 249.598 449.527 249.429 449.345 249.261 L 449.66 248.898 L 448.813 248.161 L 448.502 248.519 C 448.311 248.361 448.115 248.209 447.919 248.058 L 448.201 247.669 L 447.291 247.009 L 447.013 247.394 C 446.809 247.254 446.601 247.118 446.393 246.985 L 446.639 246.574 L 445.674 245.999 L 445.43 246.406 C 445.216 246.284 444.998 246.166 444.777 246.053 L 444.983 245.624 L 443.971 245.138 L 443.767 245.562 C 443.542 245.46 443.315 245.36 443.086 245.267 L 443.251 244.824 L 442.198 244.431 L 442.035 244.87 C 441.801 244.789 441.567 244.707 441.329 244.634 L 441.454 244.184 L 440.37 243.886 L 440.247 244.334 C 440.007 244.275 439.765 244.219 439.523 244.167 L 439.605 243.708 L 438.5 243.508 L 438.418 243.963 C 438.174 243.924 437.928 243.896 437.68 243.867 L 437.724 243.397 L 436.605 243.297 L 436.563 243.764 C 436.316 243.747 436.069 243.737 435.82 243.729 L 435.82 243.257 L 434.697 243.257 L 434.697 243.727 C 434.335 243.735 433.975 243.753 433.617 243.78 L 433.567 243.31 L 432.45 243.428 L 432.5 243.895 C 432.253 243.926 432.008 243.962 431.764 244.003 L 431.673 243.542 L 430.571 243.76 L 430.661 244.218 C 430.419 244.271 430.177 244.326 429.938 244.388 L 429.807 243.941 L 428.729 244.257 L 428.86 244.703 C 428.623 244.778 428.389 244.858 428.156 244.941 L 427.985 244.506 L 426.939 244.917 L 427.109 245.348 C 426.88 245.446 426.656 245.55 426.433 245.654 L 426.22 245.231 L 425.216 245.735 L 425.425 246.155 C 425.207 246.271 424.992 246.394 424.778 246.518 L 424.527 246.112 L 423.572 246.702 L 423.821 247.107 C 423.614 247.242 423.409 247.381 423.207 247.525 L 422.92 247.14 L 422.021 247.814 L 422.307 248.197 C 422.113 248.35 421.921 248.506 421.732 248.666 L 421.412 248.308 L 420.576 249.059 L 420.897 249.416 C 420.716 249.586 420.537 249.756 420.363 249.933 L 420.012 249.606 L 419.248 250.429 L 419.599 250.755 C 419.434 250.94 419.269 251.125 419.112 251.316 L 418.737 251.024 L 418.048 251.913 L 418.423 252.202 C 418.276 252.401 418.131 252.603 417.992 252.807 L 417.591 252.551 L 416.985 253.496 L 417.379 253.749 C 417.251 253.96 417.129 254.177 417.009 254.393 L 416.588 254.173 L 416.068 255.169 L 416.484 255.386 C 416.374 255.608 416.271 255.833 416.17 256.06 L 415.733 255.879 L 415.304 256.918 L 415.738 257.096 C 415.649 257.327 415.564 257.56 415.484 257.795 L 415.034 257.654 L 414.7 258.728 L 415.147 258.866 C 415.08 259.104 415.014 259.343 414.954 259.584 L 414.497 259.486 L 414.261 260.585 L 414.717 260.683 C 414.671 260.925 414.624 261.168 414.587 261.414 L 414.126 261.357 L 413.988 262.472 L 414.449 262.528 C 414.426 262.774 414.408 263.021 414.392 263.269 L 413.923 263.255 L 413.886 264.378 L 414.353 264.392 C 414.352 264.45 414.348 264.509 414.348 264.567 C 414.349 264.757 414.358 264.945 414.363 265.136 L 413.891 265.162 L 413.955 266.284 L 414.423 266.257 C 414.442 266.505 414.466 266.752 414.494 266.997 L 414.029 267.066 L 414.193 268.177 L 414.655 268.109 C 414.697 268.353 414.739 268.598 414.79 268.84 L 414.337 268.948 L 414.6 270.041 L 415.051 269.932 C 415.116 270.172 415.183 270.41 415.255 270.647 L 414.812 270.796 L 415.172 271.861 L 415.61 271.713 C 415.696 271.945 415.789 272.175 415.882 272.404 L 415.451 272.594 L 415.904 273.622 L 416.333 273.434 C 416.439 273.658 416.551 273.878 416.663 274.099 L 416.248 274.328 L 416.791 275.312 L 417.206 275.083 C 417.33 275.297 417.46 275.507 417.592 275.716 L 417.197 275.983 L 417.826 276.914 L 418.221 276.647 C 418.364 276.849 418.51 277.049 418.661 277.245 L 418.289 277.548 L 418.999 278.418 L 419.37 278.116 C 419.531 278.305 419.693 278.491 419.86 278.673 L 419.518 279.008 L 420.304 279.812 L 420.645 279.478 C 420.821 279.651 420.999 279.824 421.181 279.99 L 420.872 280.352 L 421.725 281.083 L 422.033 280.722 C 422.226 280.879 422.42 281.032 422.617 281.181 L 422.34 281.57 L 423.256 282.221 L 423.529 281.838 C 423.733 281.977 423.943 282.109 424.153 282.24 L 423.912 282.652 L 424.882 283.219 L 425.12 282.813 C 425.335 282.932 425.556 283.047 425.777 283.159 L 425.575 283.589 L 426.591 284.067 L 426.791 283.642 C 427.017 283.742 427.245 283.838 427.475 283.931 L 427.314 284.374 L 428.369 284.758 L 428.529 284.319 C 428.764 284.398 428.999 284.475 429.237 284.546 L 429.116 284.999 L 430.202 285.289 L 430.322 284.838 C 430.562 284.895 430.802 284.953 431.046 285.003 L 430.968 285.461 L 432.074 285.653 L 432.154 285.195 C 432.398 285.231 432.643 285.261 432.89 285.289 L 432.853 285.757 L 433.973 285.848 L 434.01 285.383 C 434.256 285.398 434.504 285.403 434.752 285.409 L 434.756 285.882 L 435.88 285.872 L 435.876 285.402 C 436.124 285.395 436.371 285.383 436.617 285.367 L 436.665 285.836 L 437.781 285.727 L 437.736 285.26 C 437.983 285.231 438.229 285.2 438.473 285.161 L 438.559 285.62 L 439.663 285.411 L 439.577 284.954 C 439.819 284.902 440.061 284.847 440.301 284.787 L 440.428 285.236 L 441.51 284.929 L 441.383 284.485 C 441.62 284.411 441.853 284.329 442.086 284.246 L 442.255 284.686 L 443.304 284.284 L 443.137 283.847 C 443.366 283.753 443.594 283.652 443.817 283.549 L 444.026 283.975 L 445.035 283.48 L 444.827 283.056 C 445.047 282.942 445.264 282.823 445.479 282.701 L 445.726 283.108 L 446.687 282.525 L 446.441 282.118 C 446.648 281.985 446.854 281.849 447.058 281.707 L 447.342 282.093 L 448.246 281.426 L 447.963 281.042 C 448.159 280.891 448.353 280.738 448.543 280.579 L 448.86 280.937 L 449.701 280.192 L 449.384 279.834 C 449.566 279.667 449.746 279.497 449.922 279.323 L 450.269 279.65 L 451.04 278.834 L 450.695 278.508 C 450.86 278.323 451.022 278.136 451.181 277.947 L 451.557 278.243 L 452.253 277.36 L 451.881 277.068 C 452.03 276.87 452.171 276.667 452.313 276.465 L 452.714 276.726 L 453.328 275.784 L 452.932 275.526 C 453.063 275.317 453.187 275.103 453.31 274.888 L 453.732 275.112 L 454.258 274.119 L 453.841 273.899 C 453.953 273.677 454.06 273.453 454.163 273.229 L 454.599 273.412 L 455.037 272.377 L 454.603 272.194 C 454.695 271.965 454.783 271.733 454.865 271.5 L 455.312 271.643 L 455.655 270.572 L 455.21 270.43 C 455.28 270.193 455.349 269.955 455.41 269.714 L 455.865 269.816 L 456.11 268.72 L 455.657 268.619 C 455.705 268.377 455.748 268.132 455.788 267.887 L 456.252 267.948 L 456.397 266.834 L 455.937 266.773 C 455.963 266.528 455.98 266.28 455.998 266.033 L 456.469 266.053 L 456.516 264.93 L 456.046 264.91 C 456.048 264.796 456.055 264.682 456.055 264.567 Z " fill="rgb(254,254,254)"/><path d=" M 409.446 253.929 L 405.684 253.929 L 405.684 251.904 C 405.16 251.935 403.765 252.018 402.391 252.093 C 402.957 253.459 403.921 254.327 404.169 255.601 C 404.535 257.482 403.646 280.682 403.646 282.563 C 403.646 284.097 403.926 285.805 405.249 286.212 C 404.352 285.058 404.394 283.305 404.8 280.908 C 405.365 277.568 405.113 255.926 405.11 255.708 C 405.109 255.592 405.201 255.498 405.317 255.496 L 405.318 255.496 C 405.433 255.496 405.526 255.588 405.527 255.703 C 405.538 256.595 405.782 277.602 405.211 280.978 C 404.722 283.87 404.913 285.406 405.933 286.302 C 406.054 286.3 406.179 286.291 406.311 286.272 C 408.559 285.958 408.507 284.443 408.507 284.443 C 408.507 284.443 409.342 259.572 409.446 257.587 C 409.551 255.601 409.917 255.34 410.7 253.981 C 411.378 252.807 412.557 251.823 412.732 249.726 C 411.216 250.816 409.918 251.144 409.446 251.233 L 409.446 253.929 Z  M 404.065 244.935 C 404.065 244.935 402.109 246.646 401.981 249.64 C 403.899 249.443 404.918 249.062 405.396 248.821 C 404.73 247.628 404.064 244.935 404.065 244.935 Z  M 409.028 253.51 L 409.028 250.637 L 406.103 250.637 L 406.103 253.51 L 409.028 253.51 Z  M 405.684 250.219 L 409.446 250.219 L 409.446 250.804 C 409.955 250.693 411.257 250.314 412.741 249.184 C 412.741 249.007 412.753 248.842 412.739 248.651 C 412.53 245.777 409.917 243.792 409.917 243.792 C 409.917 243.792 410.387 246.144 410.282 247.659 C 410.179 249.174 406.73 249.383 405.946 249.383 C 405.843 249.383 405.736 249.304 405.626 249.173 C 405.106 249.444 404.02 249.856 401.976 250.06 C 401.99 250.68 402.087 251.214 402.24 251.683 C 403.677 251.604 405.165 251.517 405.684 251.485 L 405.684 250.219 Z " fill="rgb(254,254,254)"/><path d=" M 228.058 280.976 C 228.015 282.372 227.784 285.861 226.555 288.936 L 226.449 289.199 L 225.437 289.199 L 225.437 289.692 L 226.276 290.35 L 226.229 290.6 C 226.215 290.668 224.975 297.063 221.279 304.495 L 224.424 305.013 C 224.424 305.013 226.375 303.272 228.234 296.787 C 230.093 290.303 230.694 282.579 230.694 282.579 L 229.404 281.425 C 228.98 281.316 228.526 281.161 228.058 280.976 Z  M 238.706 243.983 C 238.706 243.983 234.387 242.521 233.146 244.935 C 231.906 247.348 232.158 251.577 232.855 256.106 C 233.551 260.635 233.342 262.446 228.331 268.366 C 226.031 271.082 224.398 274.56 223.302 277.531 C 224.363 278.192 227.39 280.011 229.502 280.589 C 230.531 274.58 233.338 270.724 236.408 267.322 C 239.612 263.77 238.428 260.007 238.11 255.127 C 237.792 250.246 238.706 243.983 238.706 243.983 Z  M 216.814 278.843 C 218.051 278.859 219.616 278.948 220.988 279.234 C 221.087 278.051 221.21 276.72 221.359 275.334 C 221.847 270.806 220.593 268.994 218.227 264.401 C 215.86 259.807 216.969 257.15 217.806 254.852 C 218.641 252.553 220.383 249.836 220.732 245.561 C 221.08 241.286 215.148 241.109 215.148 241.109 C 215.626 243.947 215.158 248.025 212.79 253.11 C 210.422 258.196 211.396 262.864 212.51 265.163 C 213.625 267.462 215.995 271.084 216.691 275.822 C 216.893 277.196 216.904 278.151 216.814 278.843 Z  M 226.55 286.122 C 227.126 283.672 227.216 281.376 227.229 280.623 C 225.551 279.866 223.861 278.863 223.012 278.336 C 222.334 280.284 221.899 281.942 221.668 282.914 C 224.182 283.819 225.781 285.274 226.55 286.122 Z  M 224.601 290.099 L 224.601 288.362 L 225.88 288.362 C 226.035 287.951 226.171 287.531 226.292 287.112 C 225.878 286.585 224.298 284.779 221.483 283.735 C 221.471 283.798 221.464 283.834 221.464 283.834 L 220.663 283.833 C 220.663 283.833 220.743 282.31 220.919 280.075 C 219.533 279.773 217.879 279.69 216.622 279.681 C 216.287 280.591 215.705 280.72 215.506 281.117 C 215.158 281.813 215.228 284.809 215.228 284.809 L 215.995 284.809 L 215.995 286.133 L 214.74 286.133 C 215.158 289.756 216.9 300.137 216.9 300.137 L 218.154 300.067 L 218.641 291.916 L 220.314 292.264 L 218.921 304.107 L 220.417 304.353 C 223.737 297.752 225.09 291.939 225.356 290.691 L 224.601 290.099 Z " fill="rgb(254,254,254)"/><path d=" M 265.998 280.18 C 257.576 280.18 250.723 273.326 250.723 264.903 C 250.723 256.481 257.576 249.628 265.998 249.628 C 274.422 249.628 281.274 256.481 281.274 264.903 C 281.274 273.326 274.422 280.18 265.998 280.18 Z  M 284.125 266.498 L 290.503 265.454 L 289.384 256.969 L 282.812 257.94 C 282.103 256.234 281.143 254.659 279.976 253.26 L 283.815 248 L 277.059 242.745 L 273.015 248.11 C 271.373 247.422 269.611 246.967 267.768 246.789 L 266.797 240.267 L 258.296 241.268 L 259.197 248.025 C 257.527 248.701 255.979 249.616 254.597 250.729 L 249.249 246.71 L 243.899 253.39 L 249.329 257.604 C 248.512 259.464 247.999 261.484 247.849 263.604 L 241.983 264.11 L 242.457 272.656 L 249.315 272.17 C 250.056 273.865 251.048 275.424 252.244 276.804 L 248.578 282.085 L 255.455 287.179 L 259.299 281.822 C 260.964 282.484 262.747 282.906 264.608 283.047 L 265.714 289.376 L 274.187 288.163 L 273.15 281.639 C 274.835 280.916 276.388 279.945 277.767 278.773 L 283.025 282.51 L 288.195 275.689 L 282.853 271.766 C 283.526 270.116 283.965 268.346 284.125 266.498 Z  M 265.998 271.461 C 262.383 271.461 259.441 268.519 259.441 264.903 C 259.441 261.287 262.383 258.346 265.998 258.346 C 269.615 258.346 272.556 261.287 272.556 264.903 C 272.557 268.519 269.615 271.461 265.998 271.461 Z  M 265.998 251.473 C 258.593 251.473 252.569 257.497 252.569 264.903 C 252.569 272.309 258.593 278.333 265.998 278.333 C 273.405 278.333 279.429 272.309 279.429 264.903 C 279.429 257.497 273.404 251.473 265.998 251.473 Z " fill="rgb(254,254,254)"/><path d=" M 190.891 213.418 L 186.765 213.418 L 187.406 209.881 L 191.533 209.881 L 190.891 213.418 Z  M 200.911 209.881 L 200.911 206.609 L 196.41 206.609 L 197.826 198.803 L 193.543 198.803 L 192.126 206.609 L 187.999 206.609 L 189.416 198.803 L 185.131 198.803 L 183.715 206.609 L 178.338 206.609 L 178.338 209.881 L 183.122 209.881 L 182.479 213.418 L 176.826 213.418 L 176.826 216.689 L 181.886 216.689 L 180.429 224.72 L 184.713 224.72 L 186.171 216.689 L 190.297 216.689 L 188.84 224.72 L 193.124 224.72 L 194.581 216.689 L 199.399 216.689 L 199.399 213.418 L 195.176 213.418 L 195.817 209.881 L 200.911 209.881 Z " fill="rgb(254,254,254)"/><path d=" M 206.514 206.341 L 225.365 206.341 C 225.365 206.341 226.253 206.38 226.253 207.686 C 226.253 208.992 226.253 208.993 226.253 208.993 C 226.253 208.992 226.41 210.717 225.47 210.717 C 224.529 210.717 210.943 210.717 210.943 210.717 C 210.943 210.717 206.514 210.769 206.514 216.413 C 206.514 222.055 206.514 224.093 206.514 224.093 L 230.173 224.093 L 230.173 219.809 L 210.212 219.809 L 210.212 216.621 C 210.212 216.621 210.422 215.217 211.414 215.217 C 212.407 215.217 225.783 215.217 225.783 215.217 C 225.783 215.217 230.173 215.628 230.173 208.94 C 230.173 208.94 230.173 206.641 230.173 205.336 C 230.173 204.028 228.866 201.312 225.47 201.312 C 222.074 201.312 206.514 201.312 206.514 201.312 L 206.514 206.341 Z " fill="rgb(254,254,254)"/><path d=" M 252.954 209.985 C 252.954 210.448 252.579 210.821 252.117 210.821 L 237.383 210.821 C 236.92 210.821 236.547 210.448 236.547 209.985 L 236.547 207.163 C 236.547 206.701 236.92 206.328 237.383 206.328 L 252.117 206.328 C 252.579 206.328 252.954 206.701 252.954 207.163 L 252.954 209.985 Z  M 252.954 218.555 C 252.954 219.016 252.579 219.391 252.117 219.391 L 237.383 219.391 C 236.92 219.391 236.547 219.016 236.547 218.555 L 236.547 215.733 C 236.547 215.271 236.92 214.897 237.383 214.897 L 252.117 214.897 C 252.579 214.897 252.954 215.271 252.954 215.733 L 252.954 218.555 Z  M 256.403 205.805 C 256.403 203.497 254.531 201.625 252.222 201.625 L 237.226 201.625 C 234.918 201.625 233.046 203.497 233.046 205.805 L 233.046 210.246 C 233.046 211.241 233.408 212.142 233.987 212.859 C 233.408 213.577 233.046 214.478 233.046 215.472 L 233.046 219.913 C 233.046 222.222 234.918 224.093 237.225 224.093 L 252.222 224.093 C 254.531 224.093 256.403 222.222 256.403 219.913 L 256.403 215.472 C 256.403 214.477 256.041 213.577 255.461 212.859 C 256.041 212.142 256.403 211.241 256.403 210.246 L 256.403 205.805 Z " fill="rgb(254,254,254)"/><path d=" M 283.051 201.625 L 259.067 201.625 L 259.067 215.106 L 277.755 215.106 C 277.755 215.106 279.219 215.141 279.219 217.144 L 279.219 218.171 C 279.219 218.171 279.219 219.948 277.651 219.948 C 276.084 219.948 259.067 219.948 259.067 219.948 L 259.067 224.093 L 277.442 224.093 C 277.442 224.093 283.051 223.85 283.051 219.391 C 283.051 214.932 283.051 214.375 283.051 214.375 C 283.051 214.374 282.593 210.596 277.723 210.596 C 272.853 210.595 263.369 210.596 263.369 210.596 L 263.369 206.328 L 283.051 206.328 L 283.051 201.625 Z " fill="rgb(254,254,254)"/><path d=" M 285.611 201.625 L 285.611 206.275 L 289.556 206.275 L 289.556 224.093 L 293.5 224.093 L 293.5 206.275 L 293.5 204.603 L 293.5 201.625 L 285.611 201.625 Z " fill="rgb(254,254,254)"/></svg>