<?xml version="1.0" encoding="UTF-8"?>
<svg id="Layer_2" data-name="Layer 2" xmlns="http://www.w3.org/2000/svg" viewBox="0 0 150.14 77.99">
  <defs>
    <style>
      .cls-1 {
        fill: #f6fafb;
      }

      .cls-2 {
        fill: #fff;
      }

      .cls-3 {
        fill: #f4f6f9;
      }

      .cls-4 {
        fill: #f3f7f8;
      }

      .cls-5 {
        fill: #fafdfd;
      }

      .cls-6 {
        fill: #f5f8f8;
      }

      .cls-7 {
        fill: #f4f8f8;
      }

      .cls-8 {
        fill: #f3f7fa;
      }

      .cls-9 {
        fill: #f7fcfc;
      }

      .cls-10 {
        fill: #f2f4f6;
      }

      .cls-11 {
        fill: #f3f6f8;
      }

      .cls-12 {
        fill: #f2f6f8;
      }
    </style>
  </defs>
  <g id="Layer_1-2" data-name="Layer 1">
    <g>
      <path class="cls-5" d="M95.6,11.73c7.2,1.78,12.09,5.98,14.07,13.18,2.33,8.47-1.72,17.24-9.43,20.66-2.41,1.07-4.97,1.42-7.57,1.44-5.45.04-10.89.01-16.34,0-.24,0-.48-.08-.72-.28,1.38-.05,2.48-.49,3.19-1.67.81-1.33.71-2.78.68-4.16-2.37.09-4.66.16-6.95.27-.18,0-.4.15-.53.29-3.53,3.89-8,5.54-13.16,5.55-5.47.01-10.94,0-16.41,0-.14,0-.3.02-.43-.01-.09-.02-.15-.14-.22-.21.08-.07.15-.14.23-.21.01-.01.05,0,.07,0,2.5-.4,3.52-1.59,3.52-4.16,0-5.61,0-11.23,0-16.84,0-3.31.01-6.62-.01-9.93,0-.62-.07-1.25-.24-1.84-.42-1.46-1.53-2.25-3.04-2.28-.16,0-.33,0-.7,0,.22-.23.29-.38.41-.42.15-.05.33-.01.5-.01,3.94,0,7.87-.02,11.81,0,1.94.01,3.88.12,5.87.18,0-.03.05-.16.05-.29,0-2.11.02-4.22,0-6.33-.03-2.08-1.11-3.59-2.85-4-.46-.11-.95-.1-1.68-.17.26-.23.38-.37.53-.46.09-.05.23,0,.35,0,5.02,0,10.03-.03,15.04,0,4.66.03,9.15.85,13.29,3.13,3.3,1.81,5.88,4.35,7.76,7.6.24.41.51.56.95.62.64.08,1.27.22,1.97.36M95.48,21.52c-.26,8.42-4.2,14.43-11.79,18.06-.34.16-.54.32-.51.73.05.67.03,1.34.08,2.01.14,1.96,1.08,3.13,3.04,3.3,2.21.2,4.45.25,6.66.14,5.27-.26,9.01-2.98,11.3-7.64,1.85-3.77,2.01-7.8,1.36-11.87-.6-3.78-2.06-7.16-4.86-9.87-1.95-1.89-4.29-3.06-7.07-3.69,1.19,2.86,1.79,5.71,1.77,8.83M51.61,45.46c.28.07.56.18.84.19,2.37.05,4.74.21,7.1.09,3.26-.17,6.05-1.52,8.32-3.91.17-.18.33-.37.6-.68h-12.54c-.03-.08-.06-.17-.09-.25.18-.09.35-.22.54-.27.59-.16,1.26-.17,1.78-.46,1.52-.84,2.07-2.28,2.08-3.92.02-7.61,0-15.21.02-22.82,0-.49-.11-.7-.63-.8-3.18-.64-6.34-.47-9.51.03-.58.09-.78.28-.77.9.02,9.26.02,18.53.02,27.79,0,.43.02.87.08,1.29.18,1.29.74,2.32,2.17,2.82M87.46,11.08c.22-.01.44-.02.72-.04-1.64-3.27-3.92-5.81-7.1-7.49-3.56-1.89-7.39-2.41-11.35-2.16-1.73.11-3.45.36-5.19.55,0,3.51.01,6.87-.01,10.22,0,.49.33.52.62.63,11.47,4.64,14.01,18.2,8.5,26.52-.08.12-.13.27-.3.65,1.94-.25,3.69-.49,5.44-.71.54-.07.72-.32.72-.9-.02-7.53-.01-15.06-.02-22.6,0-.5-.05-1.01-.13-1.5-.26-1.44-1.21-2.45-2.54-2.7-.3-.06-.62-.02-.93-.06-.09-.01-.17-.11-.25-.17.08-.08.15-.21.25-.24.16-.04.33-.01.5-.01,3.65,0,7.29,0,11.07,0M69.31,19.37c-1.19-1.94-2.7-3.55-4.76-4.8v.83c0,6.42,0,12.85,0,19.27,0,.36,0,.72.04,1.08.29,2.32,1.16,3.33,3.26,3.79.4.09.81.18,1.21.17.23,0,.56-.15.67-.33.38-.63.76-1.28,1.01-1.98,2.22-6.18,1.77-12.16-1.44-18.02M83.2,36.74c.03.14.06.29.1.46,1.84-1.16,3.78-3.2,4.88-5.37,3.19-6.29,2.98-12.73.69-19.23-.06-.18-.42-.38-.63-.36-1.27.09-2.53.22-3.79.36-.42.05-.83.15-1.24.23,0,7.99,0,15.88,0,23.91Z"/>
      <path class="cls-1" d="M119.68,41.9v13.5h30.1v.58H.17c-.15-.41-.05-.62.4-.58.17.01.34,0,.5,0,9.72,0,19.44,0,29.16,0h.91v-.9c0-16.77,0-33.55,0-50.32,0-.48-.25-1.24.53-1.27.83-.03.54.76.54,1.22.01,16.73.01,33.45.01,50.18v1.04h86.34v-.92c0-16.77,0-33.55,0-50.32,0-.22-.06-.46.02-.64.08-.19.29-.45.45-.44.21,0,.49.18.58.37.11.21.06.51.06.78,0,12.55,0,25.1,0,37.73Z"/>
      <path class="cls-2" d="M122.15,77.78h27.62c0,.07,0,.14,0,.21H.16c0-.07,0-.14,0-.21h121.99Z"/>
      <path class="cls-2" d="M59.65,57.04H.15c0-.08,0-.17,0-.25h149.65c0,.08,0,.17,0,.25H59.65Z"/>
      <path class="cls-6" d="M128.23,73.32h-.98c1.05-.24,1.17-1,1.16-1.86-.01-2.69,0-5.37,0-8.06,0-1.28-.1-1.42-1.25-1.88,1.72,0,3.4-.12,5.05.03,1.52.14,2.38,1.25,2.53,2.78.14,1.43-.59,2.42-2.33,3.11,1.45.97,2.05,2.53,2.93,3.89.5.78.93,1.63,1.92,1.99-.64,0-1.28.04-1.92-.02-.21-.02-.45-.26-.58-.46-.71-1.1-1.39-2.24-2.1-3.34-.61-.95-1.33-1.77-2.55-1.91-.11-.01-.23,0-.41,0,0,1.57-.03,3.09.02,4.62.02.65.56.9,1.15,1.12h-2.62M129.66,65.15v2.06c1.31,0,2.55.07,3.33-1.14.58-.89.41-2.45-.29-3.31-.66-.81-1.94-1.16-3.04-.81v3.2Z"/>
      <path class="cls-4" d="M56.95,72.9c-.85.15-1.65.36-2.45.38-1.79.05-3.58.02-5.41-.04,1.02-.22,1.21-.92,1.21-1.8-.02-2.71,0-5.42,0-8.13,0-1.06-.21-1.34-1.17-1.65.04-.03.07-.09.1-.09,2.13.06,4.3-.11,6.37.25,4.02.7,6.07,5.01,4.23,8.5-.63,1.19-1.58,2.03-2.87,2.57M51.57,65.44c0,1.68,0,3.35,0,5.03,0,2.35.06,2.41,2.42,2.41,3,0,4.82-1.64,4.98-4.65.26-4.77-3.18-7.07-7.4-5.99v3.21Z"/>
      <path class="cls-12" d="M19.04,70.55c-1.14,1.8-2.76,2.7-4.82,2.73-1.92.03-3.84,0-5.83-.04,1.37-.24,1.22-1.25,1.22-2.19,0-2.57,0-5.13,0-7.7,0-1.18-.12-1.36-1.14-1.89,2.07.09,4.15.05,6.19.31,1.02.13,2.08.63,2.92,1.24,2.32,1.7,2.88,4.82,1.47,7.53M14.91,72.73c1.3-.3,2.22-1.09,2.83-2.25.58-1.1.7-2.29.57-3.5-.48-4.43-4.08-5.63-7.41-4.75-.01.16-.03.32-.03.48,0,2.81,0,5.61,0,8.42,0,.21.03.43.05.64.06.65.46,1.03,1.08,1.05.93.03,1.86-.04,2.91-.1Z"/>
      <path class="cls-3" d="M110.55,62.13c4.05-2.38,8.81-.34,9.63,4.11.45,2.47-.33,4.58-2.32,6.11-2.04,1.57-4.34,1.76-6.63.64-2.25-1.1-3.43-3-3.48-5.53-.04-2.26.91-4.02,2.81-5.33M109.36,65.52c0,1.19-.15,2.4,0,3.57.34,2.46,2.11,4.03,4.5,4.16,2.11.12,4.01-1.24,4.63-3.37.49-1.67.48-3.37-.02-5.03-.4-1.34-1.22-2.37-2.54-2.95-2.32-1.03-5.73-.15-6.58,3.62Z"/>
      <path class="cls-11" d="M35.36,64.82c.32-.96.68-1.86.91-2.78.16-.66.49-.86,1.2-.68.61,1.76,1.25,3.58,1.89,5.4.58,1.65,1.14,3.3,1.73,4.94.25.7.56,1.38,1.42,1.58h-3.68c.34-.16.83-.24.95-.5.15-.31.04-.79-.07-1.16-.26-.89-.57-1.78-.91-2.64-.08-.2-.37-.43-.57-.44-1.08-.04-2.16-.04-3.23,0-.17,0-.44.19-.5.36-.34.97-.66,1.95-.93,2.94-.25.91-.1,1.13.88,1.44h-2.76c1-.29,1.28-1.14,1.56-1.99.7-2.13,1.39-4.27,2.11-6.46M38.08,68.02c.08-.13.25-.28.22-.38-.55-1.67-1.13-3.33-1.76-5.17-.62,1.94-1.19,3.7-1.78,5.55,1.14,0,2.16,0,3.32,0Z"/>
      <path class="cls-7" d="M98.27,73.12c1.85-.45,2.09-2.73.77-3.85-.53-.44-1.15-.78-1.73-1.15-.47-.29-.97-.53-1.41-.85-1.31-.94-1.79-2.3-1.34-3.71.43-1.35,1.72-2.32,3.21-2.34.57,0,1.13.16,1.7.21.29.02.59-.04.92-.07v2.51c-.18-.42-.27-.7-.41-.96-.47-.89-1.22-1.33-2.23-1.3-.92.03-1.61.47-1.97,1.32-.4.94-.42,1.91.32,2.69.49.51,1.13.87,1.73,1.26.64.42,1.34.76,1.94,1.23,1.14.9,1.5,2.09,1.1,3.31-.41,1.26-1.51,2.14-2.93,2.14-.89,0-1.79-.2-2.66-.43-.7-.18-.68-.26-1.04.53v-3.05c.62,1.96,1.94,2.81,4.03,2.52Z"/>
      <path class="cls-8" d="M147.37,73.12c1.77-.64,2.2-2.46.89-3.72-.51-.49-1.16-.83-1.76-1.22-.52-.34-1.09-.61-1.59-.97-1.23-.92-1.67-2.25-1.24-3.61.43-1.38,1.69-2.34,3.19-2.36.57,0,1.13.16,1.7.2.29.02.59-.04.92-.06v2.48c-.12-.29-.18-.45-.24-.61-.39-1.03-1.19-1.61-2.23-1.63-.97-.02-1.75.47-2.12,1.32-.45,1.03-.3,2.15.46,2.86.4.37.88.66,1.34.95.69.44,1.42.8,2.08,1.27,1.18.85,1.6,2.09,1.23,3.34-.36,1.23-1.43,2.16-2.81,2.19-.93.02-1.89-.19-2.8-.43-.52-.14-.87-.26-1.05.39v-2.87c.63,1.91,1.93,2.78,4.02,2.49Z"/>
      <path class="cls-7" d="M71.22,70.81c-1-2.65-1.99-5.24-2.96-7.84-.28-.74-.67-1.32-1.53-1.47h3.93c-1.21.42-1.34.67-.92,1.82.95,2.56,1.92,5.1,2.88,7.65.04.11.1.21.21.42.72-2.06,1.4-4.01,2.07-5.96.27-.77.54-1.54.76-2.32.27-.97.04-1.31-.92-1.6h3.12c-1.09.29-1.47,1.01-1.75,1.79-1.17,3.26-2.31,6.54-3.47,9.81-.06.18-.14.35-.27.69-.41-1.08-.77-2.01-1.15-2.99Z"/>
      <path class="cls-10" d="M4.16,61.37c1.14.57,1.81,1.4,1.78,2.68-.04,1.44-.78,2.37-2.32,2.89,1.14.31,2.09.61,2.66,1.53.55.89.66,1.84.31,2.82-.58,1.64-2.43,2.61-4.33,2.29C1.05,73.37,0,72.53,0,71.85c.7.34,1.4.81,2.17,1.02,1.57.42,2.79-.43,3.05-1.99.32-1.87-.57-3.3-2.18-3.49-.47-.06-.96-.03-1.43-.07-.12-.01-.23-.16-.35-.25.12-.08.24-.17.37-.23.08-.03.19,0,.29,0,2.67-.01,3.07-2.2,2.58-3.83-.26-.86-.86-1.39-1.76-1.47-.88-.08-1.51.35-1.96,1.08-.11.18-.2.38-.39.74v-2.1c.32,0,.69.05,1.04,0,.91-.15,1.81-.24,2.74.13Z"/>
      <path class="cls-9" d="M84.37,73.09c.6-.24.78-.68.78-1.22,0-3,0-5.99,0-8.99,0-.8-.44-1.2-1.18-1.39h3.61c-1.2.19-1.17,1.07-1.16,1.99.02,2.69,0,5.37,0,8.06,0,1.1.15,1.32,1.24,1.73h-3.66s0-.06,0-.08c.11-.02.21-.05.37-.09Z"/>
    </g>
  </g>
</svg>