<?xml version="1.0" encoding="UTF-8"?>
<svg id="Layer_2" data-name="Layer 2" xmlns="http://www.w3.org/2000/svg" viewBox="0 0 136.36 52.12">
  <defs>
    <style>
      .cls-1 {
        fill: #fff;
      }
    </style>
  </defs>
  <g id="Layer_1-2" data-name="Layer 1">
    <g>
      <g>
        <path class="cls-1" d="M133,25.27c-1.61-2.16-3.7-3.94-6.15-5.13,2.88-2,4.76-5.32,4.76-9.09,0-6.3-4.29-11.06-12.16-11.06h-3.11v25.27h16.65Z"/>
        <rect class="cls-1" x="99.5" width="15.27" height="25.27"/>
        <rect class="cls-1" x="99.5" y="26.85" width="15.27" height="25.27"/>
        <path class="cls-1" d="M116.35,26.85v25.27h3.11c10.35,0,16.9-7.33,16.9-16.85,0-3.08-.86-5.94-2.3-8.42h-17.7,0Z"/>
      </g>
      <g>
        <polygon class="cls-1" points="42.63 25.27 33.69 0 26.85 0 26.85 25.27 42.63 25.27"/>
        <polygon class="cls-1" points="25.27 25.27 25.27 0 18.43 0 9.49 25.27 25.27 25.27"/>
        <polygon class="cls-1" points="25.27 26.85 8.93 26.85 0 52.12 13.16 52.12 16.85 41.59 25.27 41.59 25.27 26.85"/>
        <polygon class="cls-1" points="26.85 26.85 26.85 41.59 35.27 41.59 38.96 52.12 52.12 52.12 43.19 26.85 26.85 26.85"/>
      </g>
      <g>
        <path class="cls-1" d="M89.83,25.27c-1.61-2.16-3.7-3.94-6.15-5.13,2.88-2,4.76-5.32,4.76-9.09,0-6.3-4.29-11.06-12.16-11.06h-3.11v25.27h16.65Z"/>
        <rect class="cls-1" x="56.33" width="15.27" height="25.27"/>
        <rect class="cls-1" x="56.33" y="26.85" width="15.27" height="25.27"/>
        <path class="cls-1" d="M73.18,26.85v25.27h3.11c10.35,0,16.9-7.33,16.9-16.85,0-3.08-.86-5.94-2.3-8.42h-17.7Z"/>
      </g>
    </g>
  </g>
</svg>