<?xml version="1.0" encoding="UTF-8"?>
<svg id="Layer_2" data-name="Layer 2" xmlns="http://www.w3.org/2000/svg" viewBox="0 0 152.21 46.97">
  <defs>
    <style>
      .cls-1 {
        fill: #f6f9fd;
      }
    </style>
  </defs>
  <g id="Layer_1-2" data-name="Layer 1">
    <g>
      <path class="cls-1" d="M1.73,46.23h18.45v-5.88l-4.39-1v-17.46h5.88v-7.58h-5.79v-4.19c.55-1.25,3.29-1.55,4.79-.3l2.79-7.78C19.95,0,17.05-.16,14.55.09c-3.14.32-7.1,1.45-8.68,5.59-.98,2.55-.75,8.33-.75,8.33h-3.06l-2.06,7.92h4.82v17.56l-3.12,1.26.03,5.49h0Z"/>
      <path class="cls-1" d="M24.03,46.23h17.65v-5.64l-4.04-.95v-14.86c2.74-1.95,6.08-.84,7.03-.55l2.64-10.67c-5.59-.42-8.23.6-10.32,4.84l-1.32-4.24h-11.65v6.49l3.04,1.25v17.75l-3.04,1.05v5.54h0Z"/>
      <path class="cls-1" d="M70.96,36.6c-2.24,1.2-3.67,3.04-9.08,2.33-3.29-.43-3.94-3.38-3.89-5.77h15.76c.45-6.03.22-13.26-3.04-16.41-2.49-2.4-6.68-4.23-13.32-3.28-8.11,1.16-9.97,8.76-10.52,11.16-.44,1.91-1.35,12.57,2.24,16.81,4.5,5.31,8.13,5.49,12.97,5.49,5.57,0,10.27-2.75,11.87-3.89l-2.99-6.44h0ZM60.88,19.79c2.15,0,2.73,4.29,2.7,6.78h-5.74c-.1-2.55.5-6.78,3.04-6.78Z"/>
      <path class="cls-1" d="M94.9,42.98l1,3.04h11.87v-5.54l-3.04-.65V14.06h-13.17v6.34l2.84,1v16.46c-.42.36-1.59,1.27-2.94,1.05-1.37-.23-2.16-1.49-2.54-2.1V14.06h-13.87v6.49l2.94.85v17.65c.15,3.59,2.19,6.98,6.88,7.58s8.48-2.24,10.03-3.64h0Z"/>
      <path class="cls-1" d="M136.84,39.79V.89h-13.62v6.03l3.07,1.6-.03,7.43c-.93-.81-3.24-2.74-6.08-2.64-5.92.21-7.55,2.72-8.95,4.81-2.87,4.32-3.28,17.31-.48,23.47,1.25,2.74,4.88,5.36,9.03,5.38,4.66.02,6.68-2.44,7.48-3.79l.65,2.94h12.12v-5.64l-3.19-.7h0ZM126.52,38.4c-.5.45-.94,1.05-2.89,1.03-2.1-.02-3.1-2.47-3.27-4.06-.35-3.39-.53-10.23,1.12-12.53.8-1.11,1.97-1.67,3.64-1.2.82.23,1.19.39,1.4.6v16.16Z"/>
      <g>
        <path class="cls-1" d="M147.97,45.76c-2.34,0-4.24-1.9-4.24-4.24s1.9-4.24,4.24-4.24,4.24,1.9,4.24,4.24-1.9,4.24-4.24,4.24ZM147.97,38.05c-1.92,0-3.48,1.56-3.48,3.48s1.56,3.48,3.48,3.48,3.48-1.56,3.48-3.48-1.56-3.48-3.48-3.48Z"/>
        <path class="cls-1" d="M149.04,43.65l-.91-1.58h-.81v1.58h-.7v-4.25h1.65c.41,0,.75.13,1.02.38s.41.57.41.97c0,.28-.08.54-.23.76s-.37.38-.63.47l.98,1.67h-.78,0ZM147.32,40.06v1.37h.91c.23,0,.41-.07.55-.19s.21-.29.21-.49-.07-.36-.21-.49-.32-.19-.55-.19h-.91,0Z"/>
      </g>
    </g>
  </g>
</svg>