<?xml version="1.0" encoding="UTF-8"?>
<svg id="Layer_2" data-name="Layer 2" xmlns="http://www.w3.org/2000/svg" viewBox="0 0 144.4 43.54">
  <defs>
    <style>
      .cls-1 {
        fill: #fff;
      }
    </style>
  </defs>
  <g id="Layer_1-2" data-name="Layer 1">
    <g id="Layer_2-2" data-name="Layer 2">
      <g>
        <path class="cls-1" d="M32.71,4.77c.55-.48.82-1.14.82-1.98s-.27-1.46-.81-1.97c-.54-.51-1.27-.76-2.19-.76h-2.39v5.43h2.24c1.01,0,1.79-.23,2.33-.72ZM29.49,4.5V1.07h.87c.58,0,1.02.15,1.32.46.3.3.46.73.46,1.26s-.15.93-.46,1.24c-.3.31-.74.47-1.31.47h-.88Z"/>
        <path class="cls-1" d="M36.34,5.57c.65,0,1.2-.16,1.64-.48v-.73c-.47.35-.93.52-1.36.52-.36,0-.64-.09-.86-.27-.21-.18-.33-.44-.35-.77h2.63c.02-.64-.15-1.15-.51-1.52s-.82-.57-1.39-.57-1.03.18-1.38.54c-.36.36-.54.82-.54,1.38s.19,1.03.58,1.37c.38.35.9.53,1.54.53ZM36.23,2.44c.47,0,.74.27.8.8h-1.59c.06-.53.32-.8.79-.8Z"/>
        <path class="cls-1" d="M39.92,5.32c.29.17.61.25.94.25.54,0,.98-.18,1.31-.53s.49-.83.49-1.41c0-.52-.16-.96-.49-1.33-.33-.36-.73-.54-1.21-.54-.39,0-.74.13-1.05.4v-.32h-1.15v5.5h1.15v-2.01h0ZM39.92,2.87c.25-.2.48-.3.72-.3.28,0,.49.1.64.29s.23.46.23.82-.08.61-.25.81c-.16.2-.39.3-.67.3-.23,0-.45-.08-.67-.24v-1.68Z"/>
        <path class="cls-1" d="M43.21,4.67c0,.24.1.45.3.63.2.18.44.27.73.27.4,0,.81-.14,1.21-.41.07.28.28.41.64.41.34,0,.7-.11,1.08-.33v-.64c-.19.14-.34.21-.44.21-.13,0-.19-.09-.19-.26v-1.68c0-.75-.52-1.12-1.55-1.12-.58,0-1.11.15-1.59.45v.94c.41-.41.86-.61,1.35-.61.45,0,.66.2.64.61-1.04.31-1.67.56-1.87.76-.21.2-.31.46-.31.77ZM44.6,4.08c.15-.11.41-.23.79-.36v.89c-.21.18-.42.28-.64.28-.1,0-.19-.04-.27-.12s-.11-.17-.11-.28c0-.16.08-.3.22-.41Z"/>
        <path class="cls-1" d="M48.83,3.91c0-.05.09-.25.28-.58s.41-.49.67-.49c.17,0,.4.09.68.27l.32-1.02c-.3-.22-.55-.33-.76-.33-.45,0-.84.38-1.17,1.13h-.01v-1.05h-1.15v3.67h1.15v-1.59Z"/>
        <path class="cls-1" d="M51.52,4.19c0,.45.13.79.37,1.03.25.23.6.35,1.05.35.34,0,.7-.08,1.07-.23v-.84c-.28.14-.53.21-.77.21-.17,0-.31-.05-.41-.16-.1-.11-.15-.25-.15-.43v-1.51h1.34v-.79h-1.34V.67h-.15l-1.53,1.72v.23h.52v1.57Z"/>
        <path class="cls-1" d="M55.78,3.04c.29-.34.58-.51.88-.51.21,0,.38.07.51.21.13.14.19.33.19.59v2.17h1.15v-2.35c.27-.42.58-.62.91-.62.21,0,.38.07.5.22s.18.34.18.61v2.15h1.15v-2.36c0-.41-.14-.75-.4-1s-.61-.38-1.04-.38c-.52,0-1,.26-1.45.78-.25-.52-.69-.78-1.32-.78-.46,0-.89.18-1.27.55v-.47h-1.15v3.67h1.15v-2.46Z"/>
        <path class="cls-1" d="M64.17,5.57c.65,0,1.2-.16,1.64-.48v-.73c-.47.35-.93.52-1.36.52-.36,0-.64-.09-.86-.27-.21-.18-.33-.44-.35-.77h2.63c.02-.64-.15-1.15-.51-1.52s-.82-.57-1.39-.57-1.03.18-1.38.54c-.36.36-.54.82-.54,1.38s.19,1.03.58,1.37c.38.35.9.53,1.54.53ZM64.06,2.44c.47,0,.74.27.8.8h-1.59c.05-.53.32-.8.79-.8Z"/>
        <path class="cls-1" d="M67.77,3.13c.27-.4.53-.61.8-.61.38,0,.57.25.57.74v2.24h1.15v-2.33c0-.46-.13-.8-.38-1.05s-.57-.36-.95-.36c-.46,0-.85.2-1.19.6v-.52h-1.15v3.67h1.15v-2.37Z"/>
        <path class="cls-1" d="M71.4,4.19c0,.45.13.79.37,1.03.25.23.6.35,1.05.35.34,0,.7-.08,1.07-.23v-.84c-.28.14-.54.21-.77.21-.17,0-.31-.05-.41-.16s-.15-.25-.15-.43v-1.51h1.34v-.79h-1.34V.67h-.15l-1.53,1.72v.23h.52v1.57Z"/>
        <path class="cls-1" d="M78.59,5.57c.56,0,1.05-.16,1.45-.5s.61-.8.61-1.4-.2-1.07-.6-1.41-.89-.5-1.46-.5-1.09.17-1.48.52c-.4.35-.59.81-.59,1.38s.19,1.03.58,1.38.88.53,1.49.53ZM77.97,2.75c.15-.21.35-.31.62-.31.55,0,.83.4.83,1.2s-.28,1.25-.83,1.25-.84-.41-.84-1.22c0-.4.07-.7.22-.91Z"/>
        <path class="cls-1" d="M81.59,5.49h1.15v-2.88h.52v-.79h-.52v-.23c0-.43.21-.64.64-.64.1,0,.28.01.52.05V.07c-.35-.05-.58-.07-.7-.07-.49,0-.88.15-1.17.44-.29.29-.44.7-.44,1.21v.18h-.52v.79h.52v2.88h0Z"/>
        <path class="cls-1" d="M90.73,4.77c.55-.48.82-1.14.82-1.98s-.27-1.46-.8-1.97c-.54-.51-1.27-.76-2.19-.76h-2.39v5.43h2.24c1.01,0,1.79-.23,2.33-.72ZM87.5,4.5V1.07h.87c.58,0,1.02.15,1.32.46s.46.73.46,1.26-.15.93-.46,1.24-.74.47-1.31.47h-.88Z"/>
        <path class="cls-1" d="M94.35,5.57c.65,0,1.2-.16,1.64-.48v-.73c-.47.35-.93.52-1.36.52-.36,0-.64-.09-.86-.27s-.33-.44-.35-.77h2.63c.02-.64-.15-1.15-.51-1.52s-.82-.57-1.39-.57-1.03.18-1.39.54c-.36.36-.54.82-.54,1.38s.19,1.03.58,1.37c.39.35.91.53,1.55.53ZM94.24,2.44c.47,0,.74.27.8.8h-1.59c.05-.53.32-.8.79-.8Z"/>
        <path class="cls-1" d="M96.97,5.49h1.15v-2.88h.52v-.79h-.52v-.23c0-.43.21-.64.64-.64.1,0,.28.01.52.05V.07c-.35-.05-.58-.07-.7-.07-.49,0-.88.15-1.17.44-.29.29-.44.7-.44,1.21v.18h-.52v.79h.52v2.88h0Z"/>
        <path class="cls-1" d="M99.52,5.05c.39.34.9.52,1.54.52s1.2-.16,1.64-.48v-.73c-.47.35-.93.52-1.36.52-.36,0-.64-.09-.86-.27s-.33-.44-.35-.77h2.63c.02-.64-.15-1.15-.51-1.52s-.82-.57-1.39-.57-1.03.18-1.39.54c-.36.36-.54.82-.54,1.38,0,.58.2,1.04.59,1.38ZM100.96,2.44c.47,0,.74.27.8.8h-1.59c.05-.53.32-.8.79-.8Z"/>
        <path class="cls-1" d="M104.67,3.13c.27-.4.53-.61.8-.61.38,0,.57.25.57.74v2.24h1.15v-2.33c0-.46-.13-.8-.38-1.05s-.57-.36-.95-.36c-.46,0-.85.2-1.19.6v-.52h-1.15v3.67h1.15v-2.37Z"/>
        <path class="cls-1" d="M109,4c.39.15.62.26.69.32s.1.13.1.2c0,.18-.19.27-.56.27-.32,0-.71-.1-1.19-.31v.81c.38.18.82.27,1.31.27s.85-.1,1.11-.31.39-.5.39-.88c0-.24-.08-.46-.24-.66-.16-.2-.44-.38-.82-.54s-.61-.26-.67-.3c-.06-.05-.09-.1-.09-.15,0-.19.14-.29.42-.29.38,0,.78.14,1.22.4v-.82c-.35-.18-.75-.27-1.19-.27s-.82.11-1.1.31c-.28.21-.42.48-.42.82,0,.23.07.43.22.61.15.18.42.35.81.5Z"/>
        <path class="cls-1" d="M113.49,5.57c.65,0,1.2-.16,1.64-.48v-.73c-.47.35-.93.52-1.36.52-.36,0-.64-.09-.86-.27s-.33-.44-.35-.77h2.63c.02-.64-.15-1.15-.51-1.52s-.82-.57-1.39-.57-1.03.18-1.39.54c-.36.36-.54.82-.54,1.38s.19,1.03.58,1.37c.39.35.91.53,1.55.53ZM113.38,2.44c.47,0,.74.27.8.8h-1.59c.05-.53.32-.8.79-.8Z"/>
        <path class="cls-1" d="M21.86,20.23c0-3.21-1.09-5.87-3.24-7.9-2.15-2.02-5.1-3.05-8.79-3.05H.18v21.81h9.05c4.01,0,7.15-.97,9.33-2.89,2.19-1.93,3.3-4.61,3.3-7.97ZM5.98,13.68h3.17c2.18,0,3.88.59,5.03,1.74s1.74,2.76,1.74,4.79-.58,3.54-1.72,4.73c-1.14,1.18-2.82,1.78-4.99,1.78h-3.23v-13.04h0Z"/>
        <path class="cls-1" d="M36.76,29.36c1.65-1.35,2.48-3.27,2.48-5.7s-.82-4.35-2.44-5.72c-1.61-1.36-3.6-2.04-5.9-2.04s-4.4.71-5.98,2.11c-1.6,1.4-2.41,3.3-2.41,5.62s.79,4.16,2.36,5.6c1.56,1.43,3.59,2.15,6.03,2.15,2.26,0,4.23-.68,5.86-2.01ZM28.66,20.22c.54-.76,1.28-1.14,2.24-1.14,2.03,0,3.02,1.46,3.02,4.46s-.99,4.67-3.02,4.67-3.07-1.5-3.07-4.58c0-1.48.28-2.63.83-3.41Z"/>
        <path class="cls-1" d="M62.08,20.23c0-3.21-1.09-5.87-3.24-7.9-2.15-2.02-5.1-3.05-8.79-3.05h-9.64v21.81h9.05c4.01,0,7.15-.97,9.33-2.89,2.18-1.93,3.29-4.61,3.29-7.97ZM46.2,13.68h3.17c2.18,0,3.88.59,5.03,1.74s1.74,2.76,1.74,4.79-.58,3.54-1.72,4.73c-1.14,1.18-2.82,1.78-4.99,1.78h-3.23v-13.04h0Z"/>
        <path class="cls-1" d="M69.74,13.85c.53-.3,1.25-.45,2.16-.45,1.64,0,3.88.63,6.67,1.89l.34.15v-4.7l-.15-.06c-2.55-1.11-5.02-1.67-7.32-1.67-2.52,0-4.56.59-6.07,1.74-1.53,1.17-2.31,2.73-2.31,4.63,0,1.46.36,2.68,1.07,3.63.7.93,1.53,1.66,2.49,2.16.94.49,2.22,1.03,3.82,1.6,1.55.56,2.54,1.03,2.93,1.4.37.35.55.71.55,1.09,0,.43,0,1.73-2.89,1.73-1.2,0-2.34-.21-3.41-.64-1.08-.43-2.34-1.12-3.74-2.07l-.37-.25v5.18l.12.07c2.51,1.39,5.14,2.09,7.81,2.09,2.5,0,4.54-.61,6.08-1.81,1.55-1.22,2.34-2.87,2.34-4.91,0-1.43-.36-2.63-1.08-3.58-.71-.93-1.56-1.66-2.53-2.17-.95-.5-2.24-1.05-3.81-1.63-1.54-.57-2.52-1.03-2.9-1.37-.36-.32-.53-.64-.53-.98,0-.44.24-.78.73-1.06Z"/>
        <polygon class="cls-1" points="93.75 31.1 93.75 13.68 101.48 13.68 101.48 9.29 80.23 9.29 80.23 13.68 87.96 13.68 87.96 31.1 93.75 31.1"/>
        <polygon class="cls-1" points="118.73 13.68 118.73 9.29 102.74 9.29 102.74 31.1 118.95 31.1 118.95 26.71 108.53 26.71 108.53 22.06 118.26 22.06 118.26 17.67 108.53 17.67 108.53 13.68 118.73 13.68"/>
        <polygon class="cls-1" points="139.43 9.29 132.68 17.07 125.93 9.29 120.96 9.29 120.96 31.1 126.75 31.1 126.75 18.19 132.17 24.47 133.19 24.47 138.61 18.19 138.61 31.1 144.4 31.1 144.4 9.29 139.43 9.29"/>
        <path class="cls-1" d="M2.9,39.24c-.21-.11-.5-.24-.86-.37s-.58-.24-.67-.32c-.09-.08-.14-.17-.14-.26,0-.12.06-.22.19-.29.13-.07.3-.11.52-.11.38,0,.89.15,1.53.43v-.94c-.58-.25-1.12-.37-1.64-.37-.56,0-1.01.13-1.34.38s-.5.59-.5,1.01c0,.32.08.59.23.79s.33.36.55.47.5.23.86.36c.36.13.59.24.68.33.1.09.14.18.14.29,0,.3-.24.45-.71.45-.28,0-.54-.05-.79-.15s-.54-.26-.86-.47v1.04c.56.31,1.14.47,1.74.47.56,0,1-.13,1.35-.4s.51-.62.51-1.07c0-.31-.08-.57-.23-.78-.15-.2-.34-.36-.56-.47Z"/>
        <path class="cls-1" d="M5.23,40.97c-.18-.18-.27-.41-.27-.7s.09-.51.28-.69.43-.26.74-.26c.28,0,.55.07.84.22v-.76c-.39-.15-.76-.21-1.1-.21-.54,0-.98.16-1.33.48s-.52.73-.52,1.23.17.91.51,1.22c.34.31.8.46,1.38.46.33,0,.7-.07,1.1-.22v-.74c-.4.15-.7.22-.92.22-.29,0-.53-.09-.71-.27Z"/>
        <path class="cls-1" d="M7.73,37.01c-.15,0-.29.05-.4.16-.11.11-.16.25-.16.4s.05.29.16.4c.11.11.24.17.4.17s.29-.06.4-.17c.11-.11.16-.25.16-.4s-.05-.29-.16-.4c-.11-.11-.24-.16-.4-.16Z"/>
        <rect class="cls-1" x="7.22" y="38.64" width="1.03" height="3.27"/>
        <path class="cls-1" d="M11.56,39.07c-.32-.34-.74-.51-1.24-.51s-.91.16-1.23.48c-.32.32-.48.73-.48,1.23s.17.91.51,1.22.8.46,1.38.46,1.07-.15,1.46-.43v-.65c-.42.31-.83.46-1.21.46-.32,0-.57-.08-.76-.24s-.3-.39-.31-.68h2.35c.01-.56-.14-1.01-.46-1.35ZM9.69,39.9c.05-.47.29-.71.71-.71s.65.24.71.71h-1.42Z"/>
        <path class="cls-1" d="M14.41,38.57c-.41,0-.76.18-1.06.53v-.46h-1.03v3.27h1.03v-2.11c.24-.36.47-.54.72-.54.34,0,.51.22.51.65v1.99h1.03v-2.08c0-.4-.11-.72-.34-.93-.23-.22-.51-.33-.85-.33Z"/>
        <path class="cls-1" d="M17.33,40.97c-.18-.18-.27-.41-.27-.7s.09-.51.28-.69.43-.26.74-.26c.28,0,.55.07.84.22v-.76c-.39-.15-.76-.21-1.1-.21-.54,0-.98.16-1.33.48s-.52.73-.52,1.23.17.91.51,1.22c.34.31.8.46,1.38.46.33,0,.7-.07,1.1-.22v-.74c-.4.15-.7.22-.92.22-.29,0-.53-.09-.71-.27Z"/>
        <path class="cls-1" d="M22.09,39.07c-.32-.34-.74-.51-1.24-.51s-.91.16-1.23.48c-.32.32-.48.73-.48,1.23s.17.91.51,1.22c.34.31.8.46,1.38.46s1.07-.15,1.46-.43v-.65c-.42.31-.83.46-1.21.46-.32,0-.57-.08-.76-.24s-.3-.39-.31-.68h2.35c.01-.56-.14-1.01-.46-1.35ZM20.21,39.9c.05-.47.29-.71.71-.71s.65.24.71.71h-1.42Z"/>
        <path class="cls-1" d="M24.99,38.84c-.17,0-.31.06-.44.18-.12.12-.18.27-.18.44s.06.31.18.44c.12.12.27.18.44.18s.31-.06.44-.18.18-.27.18-.44-.06-.31-.18-.44c-.12-.12-.27-.18-.44-.18Z"/>
        <polygon class="cls-1" points="31.06 37.07 26.35 37.07 26.35 37.95 28.1 37.95 28.1 41.9 29.31 41.9 29.31 37.95 31.06 37.95 31.06 37.07"/>
        <path class="cls-1" d="M32.95,39.07c-.32-.34-.74-.51-1.24-.51s-.91.16-1.23.48c-.32.32-.48.73-.48,1.23s.17.91.51,1.22.8.46,1.38.46,1.07-.15,1.46-.43v-.65c-.42.31-.83.46-1.21.46-.32,0-.57-.08-.76-.24s-.3-.39-.31-.68h2.35c.01-.56-.14-1.01-.46-1.35ZM31.08,39.9c.05-.47.29-.71.71-.71s.65.24.71.71h-1.42Z"/>
        <path class="cls-1" d="M34.93,40.97c-.18-.18-.27-.41-.27-.7s.09-.51.28-.69.43-.26.74-.26c.28,0,.55.07.84.22v-.76c-.39-.15-.76-.21-1.1-.21-.54,0-.98.16-1.33.48s-.52.73-.52,1.23.17.91.51,1.22.8.46,1.38.46c.33,0,.7-.07,1.1-.22v-.74c-.4.15-.7.22-.92.22-.29,0-.53-.09-.71-.27Z"/>
        <path class="cls-1" d="M38.99,38.57c-.4,0-.75.18-1.04.55h-.01v-2.04h-1.03v4.84h1.03v-2.09c.23-.33.46-.49.69-.49.35,0,.53.24.53.71v1.87h1.03v-2.09c0-.39-.11-.7-.34-.92-.22-.22-.5-.33-.85-.33Z"/>
        <path class="cls-1" d="M42.77,38.57c-.41,0-.76.18-1.06.53v-.46h-1.03v3.27h1.03v-2.11c.24-.36.47-.54.72-.54.34,0,.51.22.51.65v1.99h1.03v-2.08c0-.4-.11-.72-.34-.93-.23-.22-.51-.33-.85-.33Z"/>
        <path class="cls-1" d="M46.14,38.57c-.53,0-.97.15-1.32.46s-.53.72-.53,1.23.17.91.52,1.23.79.47,1.33.47c.5,0,.93-.15,1.29-.45.36-.3.54-.71.54-1.25s-.18-.95-.53-1.25c-.35-.3-.79-.46-1.3-.46ZM46.14,41.36c-.5,0-.75-.36-.75-1.09,0-.35.07-.61.2-.8.13-.19.31-.28.55-.28.49,0,.74.35.74,1.07s-.24,1.11-.74,1.11Z"/>
        <rect class="cls-1" x="48.33" y="37.07" width="1.03" height="4.84"/>
        <path class="cls-1" d="M52.87,39.02c-.36-.3-.79-.45-1.3-.45s-.97.15-1.32.46-.53.72-.53,1.23.17.91.52,1.23.79.47,1.33.47c.5,0,.93-.15,1.29-.45.36-.3.54-.71.54-1.25s-.18-.96-.53-1.26ZM51.57,41.36c-.5,0-.75-.36-.75-1.09,0-.35.07-.61.2-.8.13-.19.31-.28.55-.28.49,0,.74.35.74,1.07s-.25,1.11-.74,1.11Z"/>
        <path class="cls-1" d="M58.63,40.32l-.69-1.68h-2.92c-.47,0-.84.12-1.08.36-.25.24-.37.52-.37.83,0,.26.09.47.26.66.17.18.39.3.66.34-.4.09-.6.26-.6.49,0,.2.13.35.39.43-.58.15-.87.44-.87.83,0,.29.15.52.45.69.3.17.73.26,1.3.26s.99-.09,1.29-.28c.3-.19.45-.46.45-.82,0-.22-.09-.43-.26-.63-.17-.19-.48-.31-.93-.35s-.7-.07-.76-.11-.1-.08-.1-.14.02-.11.07-.14.26-.07.63-.12c.37-.04.65-.17.84-.38.19-.21.29-.45.29-.7,0-.18-.05-.36-.16-.54h.46v-.44l1.16,2.48-.96,2.1h1.09l2.19-4.84h-1.08l-.73,1.69ZM55.13,42.15c.53,0,.8.12.8.36,0,.11-.07.21-.2.29s-.31.12-.53.12c-.56,0-.84-.13-.84-.38,0-.12.07-.21.21-.28.14-.07.33-.11.57-.11ZM55.52,40.24c-.12.12-.25.18-.42.18s-.3-.06-.42-.17-.17-.26-.17-.41c0-.16.06-.3.17-.42.11-.12.26-.17.42-.17s.31.05.42.16c.11.11.17.24.17.4,0,.17-.06.31-.17.44Z"/>
        <path class="cls-1" d="M62.66,38.84c-.17,0-.31.06-.44.18-.12.12-.18.27-.18.44s.06.31.18.44c.12.12.27.18.44.18s.31-.06.44-.18.18-.27.18-.44-.06-.31-.18-.44c-.12-.12-.27-.18-.44-.18Z"/>
        <polygon class="cls-1" points="66.65 39.86 68.85 39.86 68.85 38.97 66.65 38.97 66.65 37.95 68.96 37.95 68.96 37.07 65.44 37.07 65.44 41.9 69.01 41.9 69.01 41.02 66.65 41.02 66.65 39.86"/>
        <path class="cls-1" d="M71.55,38.57c-.41,0-.76.18-1.06.53v-.46h-1.03v3.27h1.03v-2.11c.24-.36.47-.54.72-.54.34,0,.51.22.51.65v1.99h1.03v-2.08c0-.4-.11-.72-.34-.93-.23-.22-.51-.33-.85-.33Z"/>
        <path class="cls-1" d="M73.54,39c-.25.24-.37.52-.37.83,0,.26.09.47.26.66.17.18.39.3.66.34-.4.09-.6.26-.6.49,0,.2.13.35.39.43-.58.15-.87.44-.87.83,0,.29.15.52.45.69.3.17.73.26,1.3.26s.99-.09,1.29-.28.45-.46.45-.82c0-.22-.09-.43-.26-.63-.17-.19-.48-.31-.93-.35s-.7-.07-.76-.11c-.06-.03-.1-.08-.1-.14s.02-.11.07-.14.26-.07.63-.12c.37-.04.65-.17.84-.38s.29-.45.29-.7c0-.18-.05-.36-.16-.54h.46v-.69h-1.94c-.47,0-.84.12-1.08.36ZM74.74,42.15c.53,0,.8.12.8.36,0,.11-.07.21-.2.29s-.31.12-.53.12c-.56,0-.84-.13-.84-.38,0-.12.07-.21.21-.28s.33-.11.57-.11ZM75.13,39.41c.11.11.17.24.17.4,0,.17-.06.32-.17.44s-.25.18-.42.18-.3-.06-.42-.17-.17-.26-.17-.41c0-.16.06-.3.17-.42s.26-.17.42-.17c.17,0,.31.05.42.16Z"/>
        <path class="cls-1" d="M77.25,37.01c-.15,0-.29.05-.4.16-.11.11-.16.25-.16.4s.05.29.16.4c.11.11.24.17.4.17s.29-.06.4-.17c.11-.11.16-.25.16-.4s-.05-.29-.16-.4c-.11-.11-.25-.16-.4-.16Z"/>
        <rect class="cls-1" x="76.75" y="38.64" width="1.03" height="3.27"/>
        <path class="cls-1" d="M80.38,38.57c-.41,0-.76.18-1.06.53v-.46h-1.03v3.27h1.03v-2.11c.24-.36.47-.54.72-.54.34,0,.51.22.51.65v1.99h1.03v-2.08c0-.4-.11-.72-.34-.93-.23-.22-.51-.33-.85-.33Z"/>
        <path class="cls-1" d="M84.86,39.07c-.32-.34-.74-.51-1.24-.51s-.91.16-1.23.48c-.32.32-.48.73-.48,1.23s.17.91.51,1.22c.34.31.8.46,1.38.46s1.07-.15,1.46-.43v-.65c-.42.31-.83.46-1.21.46-.32,0-.57-.08-.76-.24s-.3-.39-.31-.68h2.35c.02-.56-.14-1.01-.46-1.35ZM82.99,39.9c.05-.47.29-.71.71-.71s.65.24.71.71h-1.42Z"/>
        <path class="cls-1" d="M88.42,39.07c-.32-.34-.74-.51-1.24-.51s-.91.16-1.23.48c-.32.32-.48.73-.48,1.23s.17.91.51,1.22c.34.31.8.46,1.38.46s1.07-.15,1.46-.43v-.65c-.42.31-.83.46-1.21.46-.32,0-.57-.08-.76-.24s-.3-.39-.31-.68h2.35c.01-.56-.14-1.01-.46-1.35ZM86.54,39.9c.05-.47.29-.71.71-.71s.65.24.71.71h-1.42Z"/>
        <path class="cls-1" d="M90.25,39.57h-.01v-.93h-1.03v3.27h1.03v-1.41s.08-.22.24-.51.36-.44.6-.44c.15,0,.35.08.61.24l.29-.91c-.27-.2-.49-.3-.68-.3-.4,0-.75.33-1.04,1Z"/>
        <rect class="cls-1" x="92.02" y="38.64" width="1.03" height="3.27"/>
        <path class="cls-1" d="M92.53,37.01c-.15,0-.29.05-.4.16-.11.11-.16.25-.16.4s.05.29.16.4c.11.11.24.17.4.17s.29-.06.4-.17c.11-.11.16-.25.16-.4s-.05-.29-.16-.4c-.11-.11-.24-.16-.4-.16Z"/>
        <path class="cls-1" d="M95.66,38.57c-.41,0-.76.18-1.06.53v-.46h-1.03v3.27h1.03v-2.11c.24-.36.47-.54.72-.54.34,0,.51.22.51.65v1.99h1.03v-2.08c0-.4-.12-.72-.34-.93-.23-.22-.51-.33-.85-.33Z"/>
        <path class="cls-1" d="M97.65,39c-.25.24-.37.52-.37.83,0,.26.09.47.26.66.17.18.39.3.66.34-.4.09-.6.26-.6.49,0,.2.13.35.39.43-.58.15-.87.44-.87.83,0,.29.15.52.45.69.3.17.73.26,1.3.26s.99-.09,1.29-.28.45-.46.45-.82c0-.22-.09-.43-.26-.63-.17-.19-.48-.31-.93-.35s-.7-.07-.76-.11c-.06-.03-.1-.08-.1-.14s.02-.11.07-.14.26-.07.63-.12c.37-.04.65-.17.84-.38s.29-.45.29-.7c0-.18-.05-.36-.16-.54h.46v-.69h-1.94c-.47,0-.83.12-1.08.36ZM98.85,42.15c.53,0,.8.12.8.36,0,.11-.07.21-.2.29s-.31.12-.53.12c-.56,0-.84-.13-.84-.38,0-.12.07-.21.21-.28s.33-.11.57-.11ZM99.25,39.41c.11.11.17.24.17.4,0,.17-.06.32-.17.44s-.25.18-.42.18-.3-.06-.42-.17-.17-.26-.17-.41c0-.16.06-.3.17-.42s.26-.17.42-.17.31.05.42.16Z"/>
        <path class="cls-1" d="M102.98,38.84c-.17,0-.31.06-.44.18-.12.12-.18.27-.18.44s.06.31.18.44.27.18.44.18.31-.06.44-.18.18-.27.18-.44-.06-.31-.18-.44c-.12-.12-.26-.18-.44-.18Z"/>
        <polygon class="cls-1" points="108.35 38.86 106.79 37.07 105.75 37.07 105.75 41.9 106.95 41.9 106.95 38.88 108.26 40.4 108.44 40.4 109.74 38.88 109.74 41.9 110.95 41.9 110.95 37.07 109.9 37.07 108.35 38.86"/>
        <path class="cls-1" d="M114.33,41.05v-1.49c0-.66-.46-.99-1.38-.99-.51,0-.99.13-1.41.4v.84c.37-.36.77-.55,1.21-.55.4,0,.59.18.57.55-.93.28-1.48.5-1.67.67s-.28.4-.28.69c0,.21.09.4.27.56.18.16.39.24.65.24.36,0,.72-.12,1.07-.37.06.24.25.37.58.37.3,0,.62-.1.96-.3v-.57c-.17.12-.3.18-.39.18-.12,0-.17-.08-.17-.23ZM113.3,41.11c-.18.16-.37.25-.57.25-.09,0-.17-.03-.24-.1-.06-.07-.1-.15-.1-.25,0-.15.06-.27.19-.37s.36-.2.71-.32v.79Z"/>
        <path class="cls-1" d="M116.11,37.61h-.13l-1.37,1.53v.2h.46v1.4c0,.4.11.71.33.91s.53.31.93.31c.3,0,.62-.07.95-.2v-.75c-.25.13-.47.19-.69.19-.15,0-.28-.05-.37-.14s-.13-.22-.13-.38v-1.35h1.19v-.7h-1.19v-1.03h0Z"/>
        <path class="cls-1" d="M119.57,38.57c-.4,0-.75.18-1.04.55h-.01v-2.04h-1.03v4.84h1.03v-2.09c.23-.33.46-.49.69-.49.35,0,.53.24.53.71v1.87h1.03v-2.09c0-.39-.11-.7-.34-.92-.22-.22-.5-.33-.85-.33Z"/>
        <path class="cls-1" d="M124.05,39.07c-.32-.34-.74-.51-1.24-.51s-.91.16-1.23.48c-.32.32-.48.73-.48,1.23s.17.91.52,1.22c.34.31.8.46,1.38.46s1.07-.15,1.46-.43v-.65c-.42.31-.83.46-1.21.46-.32,0-.57-.08-.76-.24s-.3-.39-.31-.68h2.35c0-.56-.14-1.01-.46-1.35ZM122.18,39.9c.05-.47.29-.71.71-.71s.65.24.71.71h-1.42Z"/>
        <path class="cls-1" d="M129.47,38.57c-.46,0-.9.23-1.29.7-.22-.46-.61-.7-1.18-.7-.41,0-.79.16-1.14.49v-.42h-1.03v3.27h1.03v-2.19c.25-.3.51-.46.78-.46.19,0,.34.06.46.18s.17.3.17.53v1.94h1.03v-2.09c.24-.37.51-.55.81-.55.19,0,.34.06.45.19.11.13.16.31.16.54v1.92h1.03v-2.1c0-.37-.12-.66-.36-.9s-.54-.34-.92-.34Z"/>
        <path class="cls-1" d="M134.03,41.05v-1.49c0-.66-.46-.99-1.38-.99-.51,0-.99.13-1.41.4v.84c.37-.36.77-.55,1.21-.55.4,0,.59.18.57.55-.93.28-1.48.5-1.67.67s-.28.4-.28.69c0,.21.09.4.27.56.18.16.39.24.65.24.36,0,.72-.12,1.07-.37.06.24.25.37.58.37.3,0,.62-.1.96-.3v-.57c-.17.12-.3.18-.39.18-.12,0-.17-.08-.17-.23ZM133,41.11c-.18.16-.37.25-.57.25-.09,0-.17-.03-.24-.1-.06-.07-.1-.15-.1-.25,0-.15.06-.27.19-.37s.36-.2.71-.32v.79h0Z"/>
        <path class="cls-1" d="M135.81,37.61h-.13l-1.37,1.53v.2h.46v1.4c0,.4.11.71.33.91s.53.31.93.31c.3,0,.62-.07.95-.2v-.75c-.25.13-.47.19-.69.19-.15,0-.28-.05-.37-.14-.09-.09-.13-.22-.13-.38v-1.35h1.19v-.7h-1.19v-1.03h0Z"/>
        <rect class="cls-1" x="137.2" y="38.64" width="1.03" height="3.27"/>
        <path class="cls-1" d="M137.71,37.01c-.15,0-.29.05-.4.16-.11.11-.16.25-.16.4s.05.29.16.4c.11.11.24.17.4.17s.29-.06.4-.17c.11-.11.16-.25.16-.4s-.05-.29-.16-.4c-.11-.11-.25-.16-.4-.16Z"/>
        <path class="cls-1" d="M139.97,40.97c-.18-.18-.27-.41-.27-.7s.09-.51.28-.69c.18-.17.43-.26.74-.26.28,0,.55.07.84.22v-.76c-.39-.15-.76-.21-1.1-.21-.54,0-.98.16-1.33.48s-.52.73-.52,1.23.17.91.52,1.22c.34.31.8.46,1.38.46.33,0,.7-.07,1.1-.22v-.74c-.4.15-.7.22-.92.22-.3,0-.53-.09-.71-.27Z"/>
        <path class="cls-1" d="M143.4,39.83c-.34-.14-.54-.23-.6-.27-.05-.04-.08-.09-.08-.13,0-.17.12-.25.37-.25.33,0,.7.12,1.09.36v-.73c-.31-.16-.67-.24-1.06-.24-.41,0-.73.09-.98.28-.25.19-.37.43-.37.73,0,.2.06.38.19.55s.37.31.72.45c.35.14.56.23.62.29s.09.12.09.17c0,.16-.16.24-.5.24-.29,0-.63-.09-1.06-.28v.72c.34.16.73.24,1.17.24s.76-.09.99-.28.34-.45.34-.78c0-.21-.07-.41-.21-.59-.15-.17-.4-.33-.74-.47Z"/>
        <rect class="cls-1" x="118.8" y="3.39" width="25.5" height=".97"/>
        <rect class="cls-1" x=".03" y="3.39" width="25.5" height=".97"/>
        <rect class="cls-1" x=".03" y="34.05" width="144.27" height=".97"/>
      </g>
    </g>
  </g>
</svg>