<?xml version="1.0" encoding="UTF-8"?>
<svg id="Layer_2" data-name="Layer 2" xmlns="http://www.w3.org/2000/svg" viewBox="0 0 115.91 117.02">
  <defs>
    <style>
      .cls-1 {
        fill: #f6f9fd;
      }
    </style>
  </defs>
  <g id="Layer_1-2" data-name="Layer 1">
    <g>
      <g>
        <path class="cls-1" d="M99.91,58.5l16-27.81h-14.56l-1.5,2.22V9.14c-6.53-.07-12.99-.81-19.33-2.28-6.58-1.53-12.99-3.82-19.01-6.86-7.75,3.93-16.37,6.68-24.98,8.06-4.41.7-8.87.99-13.34,1.08v50.35s.52,5.68.52,5.68H7.32l-7.32,12.53.14.26h26.44c1.27,3.73,2.84,7.36,4.74,10.81.36.67.75,1.33,1.14,1.99l-7.71,3.01,7.44,1.12.27-.14v-3.86l3.52,5.36c-4.15-.5-8.33-.85-12.4-1.83v15.54c2.43.29,4.83.73,7.26,1.03,7.43.91,14.93,1.32,22.4,1.52,1.1.67,2.19,1.36,3.3,2.01.56.33,1.12.65,1.69.95.53.28,2.9,1.55,3.29,1.55.53,0,3.15-1.46,3.81-1.81.41-.22.81-.46,1.22-.69,1.07-.64,2.12-1.31,3.2-1.94,10.03-.42,20.1-.9,29.97-2.75v-15.41c-4.17.96-8.43,1.39-12.67,1.83l3.52-5.36v3.92c1.5-.13,3-.31,4.49-.54,1.06-.17,2.24-.3,3.22-.7l-7.57-2.99c.36-.6.71-1.2,1.04-1.81,5.12-9.21,7.82-19.71,8.16-30.27ZM86.41,19.72c.95.18,3.99.9,3.64-.85-.13-.69-2.43-.9-2.71-1.99-.43-1.68.85-2.9,2.4-3.16.6-.1,2.56-.07,3.09.15.51.21-.3,1.15-.31,1.53-.86-.21-2.98-.7-3.2.53-.14.79,1.6,1.08,2.16,1.51.8.61.78,1.54.46,2.4-.83,2.27-4.2,1.69-6.07,1.44l.54-1.56ZM82.38,13.87l1.61-.13,1.23,7.68-1.84-.06c-.3-.21.1-1.09-.33-1.23-.62.01-1.35-.09-1.95-.03-.95.1-.67.78-1.3,1.32h-1.89l4.47-7.55ZM76.46,13.85l1.19,7.57h-1.96l-.13-1.31c-.57.1-2.33-.19-2.68.13-.14.12-.52.93-.59,1.18h-2.09l4.46-7.37c.4-.41,1.25-.15,1.8-.2ZM64.47,13.86l1.67-.1.27.14-.65,2.94h2.61l.66-3h1.96l-1.76,7.45-1.9.12.65-3.13h-2.55l-.84,3.14h-1.83l1.71-7.56ZM60.15,13.84l-.28,1.42-3.37.03-.27,1.42h2.61l-.38,1.51-2.61.08-.41,1.68h3.27l-.26,1.44h-5.23l1.7-7.58h5.23ZM48.36,13.87c.69,1.26,1.04,3.02,1.7,4.24.07.12.13.29.29.3l1.06-4.55,1.81-.15-1.71,7.69h-1.92s-1.92-4.56-1.92-4.56l-1.11,4.58h-1.83l1.72-7.56h1.91ZM45,13.84l-.28,1.42-3.37.03-.27,1.42h2.41c.29.11-.12,1.47-.18,1.51l-2.63.12-.39,1.64h3.27l-.26,1.44h-5.23l1.7-7.58h5.23ZM32.26,14.62c1.35-1.39,4.21-.89,5.94-.78l-.64,1.51c-1.31-.17-3.51-.74-4.16.8-.23.55-.73,2.69-.67,3.23.09.87,1.6.74,2.25.6l.61-2.29,1.83-.06-.81,3.63c-1.29.3-5.43.77-5.82-.98-.28-1.23.57-4.73,1.47-5.66ZM36.9,102.95l-3.25-.38-.1.98,2.75.42-.21,1.04-2.84-.24-.13,1.97-1.6-.19.68-5.51,4.55.57.32.04-.17,1.3ZM42.95,106.2c-.37,1.12-1.5,1.58-2.58,1.58-.22,0-.44-.02-.66-.06-1.15-.2-2.49-1.02-2.45-2.66.05-1.82.79-2.84,2.2-3.05.27-.04.52-.06.77-.06,1.02,0,1.85.34,2.39.98.66.79.78,1.95.33,3.27ZM44.17,102.5h1.64l-.16,3.73c-.01.26.29.56.53.67.51.23,1.19.22,1.6-.02.61-.36.59-2,.58-3.08,0-.36-.01-.67.01-.9v-.14h1.63l-.02.16c-.04.44-.05.91-.06,1.4-.01.69-.02,1.41-.13,2.02-.14.78-.62,1.37-1.39,1.7-.42.19-.91.28-1.41.28-.73,0-1.46-.19-2.03-.55-1.23-.8-.9-2.21-.87-3.47M56.51,108.69l-1.27-.08-2.74-3.35-.18,3.29-1.5-.09.03-.64v-.02l.27-4.91,1.23.03,2.81,3.45c.01-.08.01-.22,0-.42v-2.95s.36.02.48.02c.34,0,.55.03.97.08l-.1,5.59ZM65.4,114.52c-1.24.68-2.51,1.31-3.77,1.94-1.35-.55-2.65-1.22-3.92-1.94-1.08-.6-2.13-1.24-3.18-1.88l13.97-.07c-.99.72-2.03,1.36-3.1,1.95ZM57.78,108.67l.13-5.54.17.02c.6-.01,1.06.02,1.62-.01.64-.03,1.3-.08,1.84.01.9.15,1.61.76,1.98,1.68.4,1.01.26,2.18-.34,2.97-.18.23-.46.68-1.4.87h-4ZM69.19,108.62l-.54-1.1-2.83.1-.46.95h-1.59s2.56-5.53,2.56-5.53c0,0,1.16-.01,1.53-.02l2.97,5.51-1.64.09ZM75.31,103.96s-1.62.06-1.83.11l.28,4.34h-1.61l-.2-4.25c-.26,0-1.9.04-1.9.04l.02-1.16,5.24-.29v1.21ZM76.46,108.15l-.28-5.5,1.47-.17.42,5.67h-1.61ZM84.75,106.06c-.29,1.14-1.58,1.72-2.74,1.79-.08.01-.16.01-.25.01-1.23,0-2.22-.55-2.56-1.43-.43-1.08-.4-2.22.07-3.06.38-.66,1.02-1.09,1.85-1.23.28-.05.56-.07.82-.07.95,0,1.73.31,2.27.9.68.73.87,1.83.54,3.09ZM89.99,104.51l-.47-3.09,1.45-.4.64,5.34s-.75.14-1.29.18l-3.08-2.62.33,3.09c-.39.12-1.43.22-1.43.22l-.59-5.33c.46-.15,1.27-.26,1.28-.25.33.26,2.95,2.71,3.16,2.86ZM88.28,93.36c-.37.55-1.58,2.45-1.95,2.75-.36.29-2.15.35-2.74.4-2.04.16-4.1.17-6.14.26-13.51.59-27.1.56-40.59-.55-1.79-2.36-3.4-4.86-4.84-7.45-1.91-3.45-3.51-7.08-4.79-10.81h17.11l-6.13,10.81-2.09,3.69h14.56l2.13-3.69,33.59-58.08h-14.76l-19.91,34.48h-27.5c-.25-2.24-.35-4.49-.53-6.72v-31.55h75.63v7.25l-17.92,30.99-10.82.09-7.31,12.54c0,.18.56.19.72.19h9.99l-6.23,10.81-2.13,3.69h14.76l2.14-3.69,16.79-28.96c-.57,10.1-3.34,20.13-8.25,28.96-.85,1.57-1.79,3.1-2.79,4.59Z"/>
        <polygon class="cls-1" points="100.63 93.44 92.27 90.18 108.34 87.76 105.06 96.05 108.59 102.98 100.63 104.48 100.63 93.44"/>
        <path class="cls-1" d="M22.53,104.41c-.1.13-.12.14-.27.14-.83,0-2.74-.47-3.67-.64-1.1-.2-2.67-.42-3.69-.75-.14-.04-.24-.04-.33-.19l3.53-6.92-3.27-8.29,16.06,2.35-8.36,3.46v10.84Z"/>
        <path class="cls-1" d="M42.78,42.31v3.79h2.81l.2-.2v-2.02h3.07l.2.2v2.02h1.7s0,8.55,0,8.55c-.58,1.46-.58,2.82-.52,4.37h-6.4l-.07,1.05h-.84s0-1.05,0-1.05h-5.75v1.05s-.86-.12-.86-.12l-.06-.92h-5.49v-2.29c0-.16-.91-1.23-.91-1.31v-9.34h5.55c.41-.49.11-1.34.2-1.96h2.55s.08.11.13.1l.18-.18.02-1.75h4.31ZM41.99,43.23h-2.74v2.68l.2.2h2.35c.13-.1.14-.11.14-.27,0-.83-.23-1.77.05-2.61ZM48.13,44.79h-1.57s.06,1.18.06,1.18c.18.25,1.17.07,1.51.12v-1.31ZM38.47,45.05h-1.89l-.18.22.1.77h1.84s.12-.99.12-.99ZM34.42,53.41h-3.2c-.12,0-.54.03-.56.19.14.34.05,2.16.56,2.16h4.18l.2-.2v-8.49l-.19-.15h-4.64s-.09.15-.09.15c.07.66.23,1.39-.04,2.02h3.2c.11,0,.48.04.53.12l.06.79h-3.66v2.61h3.66v.78ZM44.21,47.67l-.2-.78h-7.44c-.26,0-.26.78,0,.78h7.64ZM45.13,55.76h4.24c.08,0,.46-.76.46-.85v-7.84l-.2-.2h-4.51v8.88ZM36.38,48.65v3.92c.17.25.45.2.72.2.17,0,.34,0,.5-.03l.22-.17v-3.92c-.17-.25-.45-.2-.72-.2-.17,0-.34,0-.5.03l-.22.17ZM38.79,52.76h3.07v-3.98c0-.05.23-.15-.07-.33l-.53.12-.05.98-.39.08v.78s-.93,0-.93,0v-.79s-.52,0-.52,0v-1.18s-.73.13-.73.13c.21,1.3,0,2.62,0,3.92,0,.15,0,.17.14.27ZM44.21,48.45c-.34.06-1.29-.18-1.42.21l.04,3.97,1.38.12v-4.31ZM44.21,53.54h-7.64c-.39.5-.14,1.38-.18,2l.18.22h7.64v-2.22ZM49.31,56.55h-17.63v1.57h17.63v-1.57Z"/>
        <path class="cls-1" d="M31.35,30.82c.76.13,1.18.8,1.45,1.45,1.12-.32,2.18-.85,3.31-1.12,1.53-.37,4.29-.87,5.83-.96.38-.02.93-.15,1.15.25.37.64.13,2.12.07,2.87.43.1.23-.6.32-.92.56-2.18,4.12-1.3,3.34.92h6.73c.38,0,1.24.48,1.59.49.26,0,.67-.3,1.03-.35,1.09-.15,1.8.23,2.54.97.11.11.11.32.13.32h1.83v1.04h3v1.96h-4.38c-.06,0-.27-.24-.39-.23-.1,0-.76.79-1.1.96-1.45.71-3.16.02-3.69-1.49-.09-.06-.31-.04-.44-.03-.77.08-.17.8-.91.8h-19.59c-.45.19-.69.6-1.17.78-2.53.98-4.65-1.64-3.34-3.92l-1.55-.02-1.33-3.77h5.55ZM42.51,30.95c-3.41.32-6.82.9-9.99,2.23l-.18-.03c-.14-.35-.6-1.55-1-1.55h-4.51l.8,2.2c1.53.34,2.63-.67,4.1-.25s2.18,2.02,1.76,3.4h19.07s.08-.44.47-.64c.28-.14.8-.12.91-.27.15-.21.07-1.34.58-1.64l-1.83-.33v1.7s-8.36,0-8.36,0v-1.7h-5.68c-.12,0-.93.15-1.12.19-.4.09-2.6.98-2.73.86l-.13-.78,2.97-.88,4.86-.16v-2.35ZM46.17,32.52c-.33-.77-1.61-.95-1.83,0h1.83ZM29.63,34.65c-1.87,1.76.86,4.58,2.63,2.83s-.91-4.45-2.63-2.83ZM51.92,34.21h-6.79v.78h6.79v-.78ZM55.23,37.43c1.83,1.83,4.49-1.04,2.69-2.75-1.8-1.71-4.41,1.03-2.69,2.75ZM59.49,36.96h3.4v-.52h-3v-.91s-.65,0-.65,0l.26,1.44Z"/>
        <path class="cls-1" d="M81.56,18.67l.1-.48,1.2-2,.21,2.35c-.19.26-1.17.07-1.51.13Z"/>
        <path class="cls-1" d="M73.86,18.67l1.3-2.48.21,2.36c-.18.25-1.18.07-1.51.12Z"/>
        <path class="cls-1" d="M49.04,47.67v3.59l-.2.2h-2.29l.2.39h1.96l.19.21-.12.7h-3v-5.09h3.26ZM48.13,48.45l-1.51.12c-.06.33-.19,1.88.13,1.93l1.38-.1v-1.96Z"/>
        <path class="cls-1" d="M30.6,34.63c1.69-.32,2.49,2.03,1.04,2.74-2.06,1.02-3.12-2.34-1.04-2.74ZM30.4,35.55c-.63.63.4,1.77,1.07,1.01.63-.72-.49-1.59-1.07-1.01Z"/>
        <path class="cls-1" d="M57.62,37.18c-1.61,1.42-3.5-1.23-1.85-2.31s3.11,1.21,1.85,2.31ZM57.11,35.55c-.75-.75-1.88.69-.75,1.21.71.33,1.21-.75.75-1.21Z"/>
      </g>
      <path class="cls-1" d="M41.19,106.27c-.3.28-.78.37-1.42.25-.5-.09-.73-.51-.83-.84-.25-.81-.03-1.88.33-2.23.3-.31.93-.4,1.48-.21.48.16.78.5.83.93.13,1.03-.01,1.73-.39,2.1Z"/>
      <path class="cls-1" d="M61.86,107.19c-.26.4-.64.38-.74.4h-1.74v-3.22h1.87c.41.06.69.44.75.59.19.45.14,1.9-.14,2.23Z"/>
      <path class="cls-1" d="M68.01,106.42h-1.67c.13-.44.58-1.55.81-1.94l.86,1.94Z"/>
      <path class="cls-1" d="M83.28,105.22c0,.41-.06.76-.16.93-.14.25-.53.45-1.02.51-.5.07-.97-.03-1.17-.24-.34-.33-.52-2.1-.33-2.53.08-.19.28-.35.59-.46.24-.09.52-.13.79-.13.29,0,.56.05.74.15.17.1.32.35.42.72.1.34.14.72.14,1.05Z"/>
    </g>
  </g>
</svg>