<?xml version="1.0" encoding="UTF-8"?>
<svg id="Layer_1" xmlns="http://www.w3.org/2000/svg" version="1.1" viewBox="0 0 1501 904">
  <!-- Generator: Adobe Illustrator 30.1.0, SVG Export Plug-In . SVG Version: 2.1.1 Build 136)  -->
  <circle cx="270.5" cy="893.5" r=".5" fill="#f6f9fd"/>
  <circle cx="275" cy="894" r=".86" fill="#f6f9fd"/>
  <g>
    <g>
      <path d="M432,806.42c-54.55,23.98-103.9,53.52-155.72,86.51,44.88-53.79,99.57-97.62,159.09-133.41,148.99-89.6,334.6-124.39,506.17-131.9,49.25-2.1,97.88-2.32,146.74-.67l-1.59,70.17c-109.18-7.01-217.77-2.46-325.69,13.86-53.21,8.19-105.59,19.11-157.39,33.5-58.66,16.31-115.68,36.39-171.61,61.94Z" fill="#f6f9fd"/>
      <path d="M547.33,691.42c-107.21,44.75-199.84,109.2-274.84,199.56,37.48-65.21,99.29-120.38,162.94-160.53,145.91-91.67,339.38-135.22,509.51-148.64,48.14-3.8,95.6-5.16,143.83-3.16l-.34,30.61c-181.81-5.53-372.83,11.91-541.1,82.16Z" fill="#f6f9fd"/>
    </g>
    <path d="M1381.13,706.17l2.05-67.66-33.64,43c-1.3.82-2.64.66-3.51-.58l-31.74-45.22-2.5,68.15-30.37-1.21,3.98-117.64,31.6.99,33.01,48.02,34.34-45.75,31.13.94-4.02,117.97-30.33-1.01Z" fill="#f6f9fd"/>
    <path d="M1181.81,636.28c8.58,5.84,14.49,14.16,15.87,22.87,1.8,11.4-1.05,21.94-8.89,29.62-6.68,6.54-15.85,9.95-25.3,9.67l-53.45-1.59,4.15-118.01,50,1.87c8.16.31,15.99,2.77,22.1,7.94,12.22,10.35,12.75,36.32-4.48,47.61ZM1167.53,618.19c.58-5.06-.68-10.1-5.88-11.94-5.7-2.02-11.93-1.96-17.69-1.84l-.76,22.55c8.39.75,23.1,1.87,24.32-8.77ZM1167.56,661.37c0-14.19-15.26-13.13-25.12-13.07l-.58,25.07c5.58.34,10.64.71,15.7.03,6.36-.86,9.99-5.32,10-12.03Z" fill="#f6f9fd"/>
    <rect x="1180.31" y="626.8" width="118.34" height="31.08" transform="translate(554.06 1858.53) rotate(-87.99)" fill="#f6f9fd"/>
  </g>
  <g>
    <path d="M904.34,472.81c.89,28.3,4.34,36.04,13.91,62.19-37.62,8.59-117.74,25.06-146.08-8.23-12.49,28.71-37.2,47.04-66.72,53.95-17.6,4.12-34.21,8.15-52.42,8.18-23.64.03-45.42-7.33-63.02-22.99-9.8-8.23-17.53-17.28-25.84-27.21-31.91-38.14-71.66-68.37-118.32-87.6-32.43,81.12-67.25,160.4-112.36,235.27-23.95,38.5-49.38,75.58-84.58,104.38-31.01,25.37-71.21,32.99-109.32,19.8-45.92-15.89-85.56-57.6-108.08-99.77-9.18-17.18-16.4-49.4-20.23-69.52,41.11,20.78,70.34,35.4,116.31,25.44,16.43-3.56,30.99-9.63,44.84-19.19,28.69-19.8,51.63-43.11,75.34-68.9,39.83-44.88,75.19-92.46,107.12-145.48-45.8-3.05-89.93,11.45-126.05,38.63-21.51,16.18-39.76,34.37-58.06,55.37-5.1-18.81-4.96-37.35-1.35-55.96,9.47-48.88,37.4-104.51,78.3-134.41,19.41-14.18,42.11-20.89,66.18-18.89,30.73,1.59,61.12,12.9,89.75,25.11,14.49-28.18,27.8-56.62,40.41-86.02,30.36-70.79,56.02-142.87,76.78-216.94,2.88-10.28,4.04-19.39,3.17-29.87,13.24-2.05,25.69-3.85,39.08-2.94,31.24,2.13,75.91,15.23,97.48,38.12,5.82,6.18,8.6,13.3,8.66,21.71.11,14.6-1.06,28.3-2.06,43l-7.19,106.06c-5.73,84.48,2.76,227.15,42.63,304.63,27.22-3.85,47.67-30.03,54.38-54.77.51-25.06-.04-48.83,1.74-73.96l6.02-84.94c1.69-23.86,1.95-46.8.64-70.42-1-18.04-4.92-35.32-17.08-49.18,12.73-4.15,25.17-8.23,38.54-9.14,50.29-3.41,96.54,8.3,123.83,54.75,9.79-10.27,17.74-19.21,27.77-27.74,35.85-30.48,83.61-42.96,129.67-32.27,24.98,5.8,48.67,23.49,53.61,50.01,8.4,45.05-61.62,95.77-95.51,116.16-4.41-8.57-9.2-15.76-13.71-23.64l-10.2-17.88c-3.74-6.54-8.24-12.25-14.05-16.93-10.91-8.77-25.24-9.3-36.99-1.46-9.22,6.16-16.23,14.82-21.14,24.98-21.42,44.32-27.36,119.54-25.83,168.52ZM540.34,427.18c-2.75-47.53-3.91-92.12-2.64-138.11.6-34.27,3.2-66.66,6.45-101.69-11.66,22-18.69,44.49-27.47,67.35l-43.96,125.98c23.65,14.52,45.16,29.9,67.61,46.47Z" fill="#f6f9fd"/>
    <path d="M1230.83,425.26c7.89,31.7,36.07,41.77,64.77,47.18,43.92,8.27,91.06,6.32,130.39-17.88,6.65,9.15,11.42,20.64,9.19,31.75-1.17,5.84-7.17,10.7-11.43,14.43-11.52,10.08-24.11,17.38-38.12,23.82-62.66,28.81-139.23,32.64-206.11,18.82-16.78-3.47-31.82-9.23-46.48-17.61-26.2-14.98-44.61-38.68-53.08-67.87-25.95-89.49,26.54-181.53,105.13-224.46,49.12-26.83,105.25-30.84,158.15-13.67,29.98,9.73,58.98,20.2,85.49,37.57,29.9,19.59,58.55,46.82,61.51,84.75-2.56,26.35-40.7,44.74-63.56,53.57-9.15-29.31-23.02-55.58-42.67-78.52-15.7-18.33-35.9-29.67-60.02-32.54-13.71-1.63-26.82.69-38.68,7.94-39.75,24.31-65.8,87.28-54.49,132.73Z" fill="#f6f9fd"/>
  </g>
</svg>