<?xml version="1.0" encoding="UTF-8"?>
<svg id="Layer_1" xmlns="http://www.w3.org/2000/svg" baseProfile="tiny" version="1.2" viewBox="0 0 581 334">
  <!-- Generator: Adobe Illustrator 30.1.0, SVG Export Plug-In . SVG Version: 2.1.1 Build 136)  -->
  <path d="M235.5,36.3c-29.2,19.4-66.1,44.1-82.2,55l-29.2,19.7h-5.6c-3,0-5.5-.2-5.5-.4,0-.3,8.8-21.5,14.5-35.1,1.2-2.8,1.3-3.6.3-2.8-1.2,1-22.3,16.6-77.8,57.9-14,10.4-31,23-37.7,27.9C5.6,163.5.1,167.7.1,168s3.2,2.7,7.2,5.5c7.5,5.1,60.5,42.9,98,69.8,20.1,14.5,24.7,17.2,24.7,14.8,0-.5-4-8.8-8.8-18.5-4.9-9.7-8.6-17.8-8.3-18s3.3-.2,6.6-.1c5.9.3,6.2.4,25.2,13.6,10.6,7.4,33,22.8,49.7,34.4,16.8,11.5,44.4,30.6,61.3,42.4,16.9,11.7,31.3,21.5,31.9,21.8.6.2,15.7-9.4,33.5-21.4,17.9-12,33.2-22.3,34.2-22.8.9-.6,23.9-15.9,51-34.2,47.2-31.7,49.5-33.1,54.3-33.3,2.7-.1,5.2-.1,5.6-.1.5.1-3,7.6-7.6,16.8-4.7,9.3-8.6,17.4-8.8,18.2-.7,2.9,2.3,2,9.8-3.2,4.4-2.9,16.5-11.2,26.9-18.3,19.5-13.4,28.6-19.7,56.9-38.9,33.8-23,36.6-25,36.6-25.6,0-.3-4.2-3.7-9.3-7.5-17.8-13.4-83.4-62.9-99.7-75.4-9.1-6.9-18-13.6-19.8-14.9l-3.4-2.4,2,3.9c5.2,10.3,17.2,35.3,17.2,35.9,0,.4-2.8.5-6.2.3l-6.3-.3-82.3-54.8C327,25.6,289.6,1,289.2,1s-24.6,15.9-53.7,35.3h0ZM354.1,68.1c33.8,22.6,61.8,41.6,62.4,42,.5.5-56.2.9-127,.9h-128l10-6.6c23.7-15.5,70.4-46.2,93.8-61.6,13.8-9.2,25.7-16.5,26.3-16.3s28.7,18.9,62.5,41.6h0ZM110.7,127.3c4.2,2.2,6.3,5.4,6.3,9.5,0,4.4-1.4,6.9-5.3,9.2-2.1,1.3-2.6,2-1.5,2,1,0,3.3,1.4,5.3,3.1,3,2.7,3.5,3.7,3.5,7.4,0,3.2-.7,5.2-2.5,7.3-4.2,5-9.2,6.1-27.7,5.9l-16.3-.2-.1-23.3-.2-23.4,17.7.4c14.2.3,18.2.7,20.8,2.1h0ZM164.8,126.1c12.8,2.7,14.5,16.3,2.7,21.5l-3,1.3,3.2.7c5.3,1.1,6.6,3.7,8.9,19.1l.5,3.1-6.7-.3c-6.6-.3-8.3-1.2-8.4-4.5-.2-5.2-1.4-9.7-2.9-11-1.1-1-4.3-1.6-8.9-1.8l-7.2-.3v18.1l-6.2-.6c-3.4-.3-6.6-.8-7-1-.4-.3-.7-10.6-.6-22.9l.1-22.5h15.3c8.4,0,17.5.5,20.2,1.1h0ZM234.3,147.9c6.4,12.6,11.7,23.1,11.7,23.5,0,.3-3.2.6-7,.6-6.9,0-7.1-.1-8.8-3.2-3.6-6.7-4-6.8-17.7-6.8h-12.6l-1.9,4.4c-1.4,3.4-2.5,4.6-4.8,5.1-2.9.6-11.2.4-11.2-.3,0-1.1,7.7-16.6,14.3-28.6,4.2-7.7,7.9-14.7,8.3-15.8.5-1.6,1.7-1.8,9.2-1.8h8.7l11.8,22.9h0ZM265.8,148.2l-.3,23.3h-13.5v-46.5h14l-.2,23.2ZM295.5,126.7c.3,1,4.8,8.2,9.8,16.1l9.2,14.4.3-16.1.2-16.1h12v46.6l-7.6.2c-4.2.1-8.5-.3-9.5-.8-1-.6-3.1-3.2-4.6-5.8s-6-9.8-10-16.1l-7.3-11.4v34.2l-6-.2-6-.2v-46.5h9.4c8,0,9.5.3,10.1,1.7h0ZM386.3,147.9c6.4,12.6,11.7,23.1,11.7,23.5,0,.3-3.2.6-7,.6-6.9,0-7.1-.1-8.8-3.2-3.6-6.7-4-6.8-17.7-6.8h-12.6l-1.9,4.4c-2,4.9-4.3,5.9-11.9,5.4-3.6-.2-4.2-.5-3.7-2.1.2-1,5.7-11.5,12.1-23.3l11.7-21.4h16.3l11.8,22.9h0ZM440.2,126.1c7.2,1.6,10.8,5.3,10.8,11.1,0,3.5-.6,4.9-2.7,7-1.6,1.4-4.1,3-5.8,3.6-1.93.67-2.07,1.03-.4,1.1,5.4.2,8.6,6.1,10.5,19.7l.4,3.2-6.3.1c-7.2.1-8.8-.7-8.9-4-.1-4.7-2.2-12.1-3.8-12.8-.8-.4-4.5-.8-8.2-1l-6.8-.3v18.2h-4.7c-9.9,0-9.2,2-9.1-24.1v-22.9h14.9c8.1,0,17.2.5,20.1,1.1ZM500.5,126.9c4.1,1.6,10.3,7.8,12.2,12.1.9,2,1.6,6.4,1.6,10.1.1,9.3-3.4,15.2-11.6,19.3-5.5,2.7-6.8,3-20.7,3.4-8.2.2-15.9.2-17.2-.1l-2.3-.6v-46.3l17.5.4c10.1.3,18.8,1,20.5,1.7h0ZM86.9,181.9c1.3.3,3,1.6,3.9,2.9,1.3,1.9,1.3,2.2-.2,2.8-1.1.4-2.5-.2-3.8-1.6-1.6-1.8-2.8-2.1-5.5-1.7-7.6,1.3-7.5,4.8.1,6.7,10.2,2.6,12.7,5,10.4,9.7-1.5,3-3.9,3.7-11.7,3.7-4.4-.1-5.8-.5-7.3-2.3-1-1.3-1.8-2.7-1.8-3.2,0-1.7,3.5-.9,5.3,1.1,1.1,1.3,2.9,2,5.1,2,4.9,0,6.6-.9,6.6-3.5,0-2-.8-2.5-5.6-3.6-6.6-1.5-10.4-4.2-10.4-7.3,0-5.1,7.3-7.9,14.9-5.7h0ZM117.5,183c0,1-1.3,1.6-4.2,1.8-2.5.2-4.3.8-4.4,1.5,0,.7,0,5.1.1,9.9.1,8.6.1,8.8-2.2,8.8s-2.3-.2-2.3-9.7v-9.8l-4.7-.3c-4-.3-4.8-.6-4.8-2.3,0-1.9.6-2,11.3-1.7,9.2.2,11.2.6,11.2,1.8ZM138.5,183c0,1.2-1.5,1.6-6.7,1.8-4.53.2-6.8,1.27-6.8,3.2v3h6.5c5.8,0,6.5.2,6.5,2s-.7,2-6.5,2h-6.5v7h7c5.6,0,7,.3,7,1.5s-1.7,1.5-9,1.5h-9v-24.1l8.8.3c6.9.2,8.7.6,8.7,1.8ZM162,183c0,1.8-.7,2-6.4,2-6.9,0-7.8.5-6.9,3.8.4,1.8,1.4,2.2,6.7,2.4,4.6.2,6.1.7,6.1,1.8s-1.5,1.6-6.2,1.8l-6.3.3v6.9h7c5.6,0,7,.3,7,1.5s-1.7,1.5-9.3,1.5h-9.3l.2-11.3c0-6.1.2-11.5.2-12,.1-.4,4-.7,8.7-.7,7.8,0,8.5.2,8.5,2ZM172.8,191.8l.3,10.2h6.4c5.1,0,6.5.3,6.5,1.5s-1.6,1.5-8.5,1.5h-8.5v-12.1c0-10.9.2-12,1.8-11.7,1.5.3,1.7,1.7,2,10.6ZM211.7,189.5c1.9,4.4,3.7,8.3,4.1,8.7s2.3-3.2,4.2-8c3.3-8.2,3.7-8.7,6.8-9l3.2-.3v12c0,11.3-.1,12.1-1.9,12.1s-2-.7-1.7-9.5c.1-5.3,0-9.7-.3-9.9s-2.4,4.1-4.5,9.5c-3.2,8.2-4.3,9.9-6,9.9s-2.8-1.8-6-10c-2.2-5.5-4.2-9.8-4.5-9.5s-.4,4.8-.2,10c.2,9,.1,9.5-1.8,9.5-2,0-2.1-.5-2.1-12.1v-12l3.7.3c3.5.3,3.7.5,7,8.3ZM255.5,192.6c3,6.5,5.5,11.9,5.5,12,0,.2-.9.4-2,.4s-2-.4-2-.9c0-.4-1-1.9-2.2-3.2-2-2.1-3-2.4-8.1-2.1-5.4.4-5.9.6-6.9,3.3-.6,1.8-1.7,2.9-2.9,2.9-1,0-1.9-.4-1.9-.8s2.5-5.8,5.5-12c7.3-14.9,7.8-14.9,15,.4h0ZM282.7,183.2c1.8,1.3,3.3,2.9,3.3,3.5,0,1.9-3.7,1.6-4.8-.3-1.3-2.3-8.6-2.2-11.2.1-2.8,2.5-2.7,9.3.1,12.9,2.3,3,7.8,3.6,9.9,1.1,1.6-1.9,5-2,5-.1,0,2.6-4.2,4.6-9.5,4.6-5.9,0-8.8-2.2-11-8.6-1.1-3.1-1-4.3.2-7.3.8-2,2-4.2,2.6-5,3-3.6,10.7-4.1,15.4-.9ZM294.8,186.3l.3,4.7,5,.1c2.7.1,5.5.2,6.2.3.8.1,1.2-1.5,1.2-4.9,0-4.3.3-5,2-5,1.9,0,2,.8,2.3,11.7l.3,11.8h-2.5c-2.2,0-2.4-.3-2.2-5.2l.1-5.2-6,.3c-3.3.1-6.2.5-6.4.7-.3.2-.4,2.5-.2,4.9.2,4.1,0,4.5-2.2,4.5-1.6,0-2.43-3.77-2.5-11.3,0-6.1.2-11.6.5-12s1.2-.7,2.1-.5c1.3.2,1.8,1.6,2,5.1h0ZM322.8,193.3c.2,11,.1,11.7-1.7,11.7-1.7,0-1.9-1-2.3-11.3-.3-6.1-.3-11.6,0-12,.2-.4,1.1-.7,2-.5,1.5.3,1.7,2.1,2,12.1ZM341.5,190.2c3.3,4.8,6.3,8.7,6.8,8.7.4.1.6-3.8.5-8.6-.3-7.7-.1-8.8,1.5-9.1,1.5-.3,1.7.8,1.7,11.7,0,12,0,12.1-2.4,12.1-1.8,0-3.8-2.2-9.5-10.2l-7.1-10.2v10.3c0,8.7-.2,10.2-1.5,9.9-1.3-.2-1.6-2.4-1.9-11.3-.2-6.1-.2-11.4.1-11.8.3-.5,1.7-.7,3.1-.5,2.1.2,4,2.3,8.7,9h0ZM376,183c0,1.8-.7,2-6.4,2-6.6,0-7.7.7-6.8,4.2.3,1.3,1.8,1.8,6.6,2,4.6.2,6.1.7,6.1,1.8s-1.5,1.6-6.2,1.8l-6.3.3v6.9h7c5.6,0,7,.3,7,1.5s-1.7,1.5-8.9,1.5h-8.9l-.4-11.3c-.3-6.1-.3-11.5-.1-12,.2-.4,4.2-.7,8.9-.7,7.7,0,8.4.2,8.4,2h0ZM398.8,183.2c3.9,1.9,4.2,6.1.7,8.4-2.6,1.7-2.6,1.8-.8,2.5,1.4.5,2.3,2.3,3,5.9,1,4.8.9,5.1-1,4.8-1.4-.2-2.4-1.6-3.4-5.1l-1.4-4.7h-8.9v5.1c0,4.6-.2,5-2.2,4.7-2.1-.3-2.2-.8-2.2-11.6-.1-6.3.1-11.6.4-11.9.9-.9,13,.6,15.8,1.9h0ZM412.6,186.5c2.1,3,4.2,5.5,4.6,5.5s2-1.9,3.7-4.3c3.6-5.3,5.5-7,7.6-6.5,1.2.2.2,2.1-4,7.8-4.6,6.3-5.5,8.2-5.5,11.7s-.3,4.3-2,4.3-2-.7-2-4.5c0-4-.7-5.5-5-11.2-5.5-7.2-5.9-8.3-3.2-8.3,1.1,0,3.5,2.3,5.8,5.5ZM453.8,193.3c.3,11.6.2,11.7-2,11.7s-2.3-.2-2.2-11.3c.1-13.6,0-12.9,2.2-12.5,1.5.3,1.7,1.8,2,12.1ZM472.5,190.2c3.3,4.8,6.3,8.7,6.6,8.7.4.1.6-3.8.5-8.6-.1-7.6.1-8.8,1.7-9.1,1.5-.3,1.7.8,1.7,11.7,0,11.9,0,12.1-2.2,12.1-1.8-.1-4-2.5-9.3-10.3l-7-10.2-.3,10.2c-.2,9-.5,10.3-2,10.3s-1.7-1.4-1.9-11.1c-.2-6.1,0-11.5.3-12.1.3-.5,1.8-.8,3.2-.6,2.1.2,4,2.3,8.7,9h0ZM507.8,183c1.7,1.1,3.2,2.7,3.2,3.5,0,1.9-3.6,2-4.3.1-.8-2.1-5.8-2.6-9.3-1-2.2,1.1-3.4,2.5-3.8,4.5-.8,4.2.4,8.8,2.8,10.4,2.7,1.9,8,1.9,9.6,0,1.4-1.6,5-2.1,5-.6,0,2.5-5.4,5.1-10.5,5.1-4.7,0-5.6-.4-7.8-3-9.5-11.3,2.6-26.6,15.1-19h0ZM433,201.5c0,.2-.8,2-1.7,4-1.9,4-5.9,5.2-4.4,1.2.5-1.2,1.2-3,1.5-4,.5-1.4,4.6-2.6,4.6-1.2ZM520,203c0,1.5-.7,2-2.5,2s-2.5-.5-2.5-2,.7-2,2.5-2,2.5.5,2.5,2ZM412,222c-.1.3-11.7,8.3-25.8,17.8s-42,28.2-61.8,41.6l-36.2,24.4-11.3-7.5c-6.3-4.2-11.6-7.9-11.9-8.3s-11.3-7.9-24.5-16.8c-34.8-23.3-74-50.2-74.2-51-.2-.4,55.1-.7,122.7-.7s123,.2,123,.5h0Z" fill="#f6f9fd"/>
  <path d="M85.9,134.9c-.3.7-.3,3-.1,5.2l.4,3.9h6.5c3.5,0,7.3-.5,8.4-1,2.3-1.3,2.5-5.2.4-7s-15.1-2.6-15.6-1.1h0Z" fill="#f6f9fd"/>
  <path d="M85.8,154c-.2.8-.1,3.2.1,5.3l.3,3.9,8.5-.4c8.8-.3,10.3-1.1,10.3-5.5,0-3.2-3-4.4-11.5-4.6-5.9-.2-7.5.1-7.7,1.3Z" fill="#f6f9fd"/>
  <path d="M143,139.5v5.5h7.4c5.8,0,7.9-.4,9.7-1.9,2-1.6,2.2-2.3,1.4-4.7-1.2-3.3-3.6-4.1-12.7-4.3l-5.8-.1v5.5h0Z" fill="#f6f9fd"/>
  <path d="M208.6,143.8l-4.6,9.2,6.7.1c3.8,0,7.8.2,9.1.3,1.2.2,2.2-.2,2.1-.8,0-.6-1.9-4.9-4.3-9.6l-4.4-8.5-4.6,9.3Z" fill="#f6f9fd"/>
  <path d="M361.2,143.6c-2.4,4.8-4.2,8.8-4,8.9.7.7,16.8,1,16.8.3,0-.9-7.8-17.8-8.2-17.8-.2,0-2.3,3.9-4.6,8.6h0Z" fill="#f6f9fd"/>
  <path d="M419,139.4v5.6h7.3c8.3,0,11.8-1.7,11.2-5.2-.8-3.9-3-5-10.9-5.5l-7.6-.5v5.6h0Z" fill="#f6f9fd"/>
  <path d="M476,147.9v14.1h6.6c13.6,0,17.7-3.2,17.6-13.8-.1-9.4-4-12.6-16.5-13.8l-7.7-.7v14.2Z" fill="#f6f9fd"/>
  <path d="M245.2,191l-2.1,5h4.5c2.4,0,4.4-.2,4.4-.4,0-.9-3.9-9.6-4.3-9.6-.3,0-1.4,2.2-2.5,5h0Z" fill="#f6f9fd"/>
  <path d="M386,188c0,3,.1,3,5.5,3,4.2,0,5.7-.4,6.2-1.6.9-2.5-2.4-4.4-7.4-4.4-4.1,0-4.3.1-4.3,3h0Z" fill="#f6f9fd"/>
</svg>