<?xml version="1.0" encoding="UTF-8"?>
<svg id="Layer_1" xmlns="http://www.w3.org/2000/svg" baseProfile="tiny" version="1.2" viewBox="0 0 787.5 450">
  <!-- Generator: Adobe Illustrator 30.1.0, SVG Export Plug-In . SVG Version: 2.1.1 Build 136)  -->
  <path d="M255.56,246.72c-1.25-2.56-7.19,3.35-8.47,4.81-6.16,7.05-12.2,13.69-19.04,19.89-5.68,5.15-14.35,3.07-16.36-.11-.68-1.08-.51-3.03-.46-5.22-8.97,5.74-19.06,10.04-29.66,9.88-10.31-.16-16.75-7.48-17.16-17.93-19.35,10.33-21.08,25.64-47.38,23.76-4.66-21.89,6.5-40.68,19.84-57.14,6.64-8.2,12.77-16.1,18.4-25.03,6.65-10.54,18.9-27.27,33.1-19.67-2.37,9.19-6.81,17.03-13.04,24.11-16.77,19.06-31.45,39.45-41.35,63.46,10.45,1.85,20.18-15.49,30.49-19.24,4.42-13.6,9.82-26.28,17.83-38.37,13.24-19.96,33.25-34.83,56.78-39.63,7.38-1.51,13.43,3.17,17.35,8.37.94,1.25,4.14-.09,5.14-.99l9.11-8.15c2.41-2.15,8.27-1.17,9.8,1.33-1.06,8.5-5.74,15.78-10.76,22.27l-18.75,24.21-28.93,44.96c11.32.14,15.4-10.71,21.96-17.53,13.93-14.5,22.74-14.54,33.46-36.97,6.09-12.75,13.21-24.67,22.64-35.12,3.98-4.41,12.23-11.47,17.34-6.08,5.89,6.21-11.82,24.67-14.62,31.53,6.77-2.16,11.68-6.06,16.67-10.55l18.59-16.73c4.79-4.31,9.97-8.13,16.01-10.3,5.13-1.84,11.55.98,11.63,6.76.11,7.54-10.78,18.6-15.91,24.28-2.01,2.23-4.38,4.13-4.21,7.68,16.43-12.63,27.58-24.29,43.35-36.84,5.81-4.62,16.36-11.91,23.67-9.06,3.92,1.53,5.15,6.31,4.28,10.21-3.51,15.62-20,32.58-30.81,43.99-9.53,10.07-21.93,24.9-27.05,38.42,12.87-3.15,20.96-17.13,34.96-21.33,8.08-12.31,16.55-23.65,26.23-34.62,4.98-5.65,9.3-11.18,13.48-17.37,7.05-10.44,17.31-24.77,31.71-20.8,1.57.43,3.22,3.06,2.89,4.86-2.44,13.44-21.05,30.86-30.07,40.74l-5.02,5.49-9.82,10.49c-8.36,8.93-17.95,23.98-19.35,37.07,21.16-3.23,30.46-19.95,49.21-28.37,5.78-21.15,15.47-40.46,29.56-57.36,28.08-33.67,66.62-68.89,108.02-84.6,7.6,10.72,2.45,23.73-5.08,32.23l-17.04,19.26c-13.55,15.31-28.42,28.68-43.93,42.08l-36.99,31.94c-10.08,8.71-19.91,21.21-12.9,35.18,23.7-1.04,35.46-19.97,54.29-30.48,25.04-65.31,77.86-102.81,141.48-127.58l10.08,6.88c-.35,24.39-17.65,39.12-36.75,51.12-12.99,8.16-24.91,16.66-37.47,25.51l-34.27,24.12c-6.86,4.83-13.68,8.62-21.08,12.91l-1.56,6.64c-1.41,5.98-3.51,18.9,3.51,22,1.9.84,5.52.44,7.45-.74,21.55-13.1,40.94-29.69,63.36-42.29,15.1-44.15,59.11-68.6,104.16-54.21,6.88,12.77,8.14,26.22,2.76,39.99,13.98-3.54,20.74-11.7,34.99-14.04,2.56,6.15-.32,11.74-5.96,14.39l-17.8,8.37c-6.07,2.85-12.55,4.97-18.4,8.49-15.14,22.91-43.71,47.14-72.77,45.65-13.32-.68-32.62-7.62-32.45-23.72l.11-10.16-24.37,17.91c-14.02,10.3-48.7,37.99-62.46,14.5-2.42-4.14-3.56-8.19-5.15-13.27-12.15,7.35-19.23,13.81-32.43,20.93-10.24,5.52-26,10.98-34.57.08-3.25-4.14-4.65-8.69-6.56-14.11-12.87,6.36-22.42,17.7-34.47,23.76-7.45,3.74-18.29,8.89-26.51,5.78s-8.45-15.08-7.56-22.07c-16.44,5.88-27.15,30.54-49.57,23.02,6.21-33.11,23.65-50.64,45.04-73.72,4.34-4.68,8.3-9.06,12.21-14.32-36.22,25.84-74.11,55.76-92.36,97.41-3.16.36-5.96-.62-8.23-2.39l-6.29-4.91c7.04-16.42,15.92-31.41,26.16-45.99l24.7-35.12c-15.53,9.33-28.29,20.74-40.27,33.73-15.21,16.49-26.08,35.74-34.08,56.79-4.73,2.29-5.42-3.19-11.96-2.24-4.13-2.59-4.23-9.31-1.02-13.09l6.44-7.57c.31-.37.44-1.75.25-2.13ZM613.14,152.94c14.02-10.14,25.86-21.19,39.21-31.47l7.2-5.55c4.37-3.37,7.39-8.12,7.11-14.08-19.71,11.83-38.65,23.79-56.71,37.83-15.48,12.04-29.96,24.48-42.67,40.43,16.86-7.3,30.94-16.95,45.86-27.15ZM528.3,159.73c17.48-14.93,40.99-35.63,51.82-56.78-26.69,16.01-70.09,56.13-86.59,80.06-2.84,4.12-5.08,8.51-6.02,13.78,13.33-13.17,26.56-24.9,40.79-37.06ZM676.8,193.55c5.75-4.39,14.5-.82,20.27-2.01l13.32-17.26c6.03-7.82,9.07-17.68,7.76-27.63-29.8-2.22-57.84,13.72-70.74,40.18-5.32,10.91-7.95,23.04-6.34,34.76.48,3.53,5.96,3.38,8.3,3.19,18.14-1.46,24.42-7.55,35.55-20.56-3.48-.41-6.26-.87-7.84-2.77-1.4-1.69-2.35-6.33-.29-7.9ZM181.72,262.16c21.63-9.08,38.03-24.36,49.54-43.56,6.07-10.39,9.93-21.15,11.15-33.65-35.69,11.64-57.43,39.62-60.69,77.21Z" fill="#f6f9fd"/>
  <path d="M544.83,277.37l141.99-11.4c4.82-.39,8.43-.52,13.05-.16-35.45,6.64-70.59,13.16-105.84,22.18-50.21,13.28-99.55,30.11-142.83,60.17-51.84-21.6-106.92-30.25-163.24-28.56l-16.41.9-10.63.57-69.6,5.31-14.34.81-18.72.71c-9.79.37-19.12.73-28.85.27-32.22-1.52-70.66-4.99-94.56-29.23-21.44-21.74-20.7-54.81-12.57-82.43,8.63-29.32,23.84-55.95,43.97-78.89,16.74-19.09,41.85-30.55,66.02-36.29,13.62-3.24,33.85-4.35,42.11,9.45,10.68,17.84-3.67,48.65-19.17,61.71-6.43,5.42-15.25,10.35-23.6,7.37-2.22-6.82,1.64-13.91,5.87-18.97l10.27-12.3c5.39-6.45,8.16-14.48,7.2-23.3-13.38-.2-25.8,3.99-37.27,11.1-22.76,14.1-41.29,34.15-53.71,58.01-10.05,19.3-13.94,40.96-10.21,62.09,4.98,28.19,25.75,49.17,53.8,54.5,15.89,3.02,31.9,3.57,48.07,2.8l14.96-.71,60.37-6.31,27.08-2.95,61.61-5.45,225.18-21.01ZM492.86,296.6c-2.21-.68-5.16-.33-6.63,1.33-2.8,3.17-2.78,8.4.11,11.56,1.66,1.81,5.29,1.68,7.21.54,3.96-2.35,3.37-12.18-.68-13.43ZM457.88,310.83c3.3,2.71,7.23.01,8.97-1.97,2.27-2.58,2.67-6.39.74-9.43-.92-1.45-3.6-2.24-5.59-2.11-2.17.14-4.41,1.79-4.97,3.3-.63,1.72-.14,4.91,1.66,5.51,1.99.66,4.18.49,6.45.52-1.38,2.68-4.11,2.59-7.27,4.17ZM472.15,311.28c1.45.13,3.51-.19,3.87-.92l6.41-13.19-10.42-.13c-.45,0-1.97,1.69-1.57,1.87s1.28.49,1.74.49l6.13.1-6.15,11.79ZM432.35,306.36l2.31-.33c.41-.06.58-1.84.17-1.84h-2.09c-.87,0-3.45.13-3.64-.66l-.65-2.72,6.16-.5c.46-.04,1.09-1.65.64-1.79-.33-.1-1.52-.5-1.94-.47l-8.22.63.78,14.54,10.83-.85c-.26-3.73-6.36-.57-7.69-2.28-.43-.55-.5-2.54,0-3.02s1.86-.5,3.34-.72ZM448.6,311.12c.04.55,2.23,1.35,2.38.91s.6-1.84.56-2.54l-.57-11.37c-1.68-.07-4.61.65-5.87,1.33-.43.23-.54,2.46-.08,2.31l2.79-.93.78,10.3ZM419.68,311.03c-4.47.92-7.01-1.9-6.85-5.41.32-7.25,10.89-3.24,9.63-6.41-3.14-1.41-7.53-.86-10.33,1.29-3.67,2.82-3.61,9,.21,11.51,3.15,2.07,7.8,2.35,10.84.35-.66-1.35-2.24-1.59-3.5-1.33ZM406.99,313.16l-.5-13.73-2.92-.08.3,9.57-7.4-9.41-3.61.62.32,13.36c.02.88,2.78.68,2.8-.18l.26-8.98,7.09,9.06c.51.66,3.25.43,3.67-.24ZM380.94,314.35c1.58-.61,2.81-2.84,2.62-3.99-.73-4.44-5.56-3.29-7.75-5.9-.4-2.13,2.63-2.4,4.26-2.2l1.65.2c.34.04.77-1.75.46-1.9-2.01-.98-6.43-.93-8.68.97-.87.74-1.37,3.36-.84,4.3,1.77,3.17,8.21,2.48,7.37,5.16s-4.52,1.87-6.14,1.26c-.6-.23-1.65,1.82-1.08,2.13,1.82.99,5.46,1.02,8.13-.02ZM389.69,312.64l-.45-11.22c-.03-.67-1.28-1.89-1.85-1.67-.43.16-1.22,1.29-1.21,1.75l.16,11.42c0,.64,1.19,1.79,1.8,1.86s1.6-1.25,1.56-2.14Z" fill="#f6f9fd"/>
  <path d="M493.51,135.54c-4.59,5.32-11.51,9.58-18.19,8.93-7.65-.74-11.61-6.85-10.5-14.2,2.01-13.3,16.21-20.72,28.99-16.67,5.69,6.45,5.55,15.16-.3,21.95Z" fill="#f6f9fd"/>
  <path d="M219.98,137.87c8.19,6.88-14.1,36.8-27.73,31.32-10.29-4.14-1.62-24.5,18.04-32.55,3.05-1.25,7.12-.93,9.69,1.23Z" fill="#f6f9fd"/>
  <path d="M568.38,380.88l-.81-18.04-4.04,17.61c-.86.58-3.41.57-4.37.06l-4.53-18.33-.4,18.22c-.77.54-3.03.61-4.55.37l-.02-24.49,7.25.13,4.44,17.12,4.17-17.19,7.13-.05.03,24.24c-1.05.2-2.92.33-4.29.34Z" fill="#f6f9fd"/>
  <path d="M592.49,367.91c2.93,1.44,4.63,4.06,3.97,7.38-.61,3.08-3.33,5.75-6.99,5.74l-12.64-.05v-24.72s12.6.05,12.6.05c2.55.01,5.24,2.31,5.83,4.35.78,2.69-.23,5.24-2.76,7.25ZM590.87,365.62l-.51-4.74-8.66-.06v5.18s9.17-.39,9.17-.39ZM588.95,376.51c1.5,0,2.98-1.86,2.85-3.32-.09-.99-1.76-2.69-2.8-2.67l-7.42.09.2,5.9h7.17Z" fill="#f6f9fd"/>
  <path d="M413.46,380.19c-.35,1.31-4.59,1.07-5.36-.17l-8.72-14.17-.16,14.73c-.97.3-3.01.34-4.61.22l-.02-24.49,4.98.17,9.11,15.44.19-15.52,4.64-.05-.06,23.84Z" fill="#f6f9fd"/>
  <path d="M628.09,380.65c-1.75.33-3.96.31-5.16,0l-9.04-14.8-.18,14.8-4.65.25.02-24.13c.69-.74,4.51-.95,5.23.26l8.81,14.83.38-14.71c.03-1.15,4.38-1.28,4.39-.16l.19,23.66Z" fill="#f6f9fd"/>
  <path d="M244.06,380.09c-.5,1.18-4.34,1.31-5.12.43l-9.05-14.63-.17,14.77-4.65.25.02-24.13c.7-.74,4.5-.95,5.23.27l8.82,14.82.33-14.75c.03-1.13,4.33-1.21,4.46-.1l.12,23.07Z" fill="#f6f9fd"/>
  <path d="M648.06,371.87c-1.4.08-3.87.34-3.87-.34l-.03-3.87,10.09-.21.05,10.05c-4.45,4.6-12.12,5.92-17.35,1.83-4.28-3.34-5.18-9.18-4.28-14.17s3.98-8.12,8.21-9.26c5.45-1.48,11.72.8,12.96,6.94.16.79-2.01,1.4-2.94,1.56-2.51.44-1.42-5.03-7.68-4.43-1.6.15-4.33,1.61-5.05,3.43-1.31,3.31-1.28,7.24.03,10.29,1.63,3.79,5.71,4.35,9.3,2.8.73-.31,1.73-1.3,2.04-1.94s-.67-2.72-1.47-2.67Z" fill="#f6f9fd"/>
  <path d="M263.2,371.9c-1.13.07-3.78.32-3.78-.36l-.06-3.89,10.16-.21.04,10.12c-4.73,4.66-12.98,6.15-18.18,1.01s-5.09-13.75-.78-19.12c3.58-4.46,9.99-5.06,14.71-2.29,2.32,1.36,3.4,3.91,4.09,6.43l-4.42.85c-1.2-3.05-3.09-4.53-5.88-4.48-2.27.04-5.01,1.49-5.94,4.06-1.23,3.39-.99,7.61.81,10.6,2.51,4.16,9.48,2.86,10.86-.06.31-.66-.78-2.7-1.65-2.65Z" fill="#f6f9fd"/>
  <path d="M432.06,372.03c-.77-.16-3.1.18-3.12-.51l-.09-3.89,10.1-.16.16,10.11c-4.83,4.69-13.02,6.02-18.22,1.06-3.91-3.73-4.43-9.74-3.14-14.73,1.37-5.32,5.83-8.47,11.23-8.46,5.06.01,9.13,3.18,9.74,8.1l-3.49.81c-.8.19-1.48-1.72-2.17-2.55-2.34-2.77-7.52-2.32-9.54.78-2.4,3.69-2.1,8.86.3,12.44,2.27,3.38,8.19,2.44,10.11.13.32-.38.64-2.62.17-2.72l-2.04-.42Z" fill="#f6f9fd"/>
  <path d="M170.42,370.44l-11.73.15-.07,5.81,12.34.16c1.14.03,1.25,4.22.14,4.35l-17.26.1v-24.75s17.22,0,17.22,0l.12,4.45-12.47.09v5.11s11.67.16,11.67.16l.05,4.37Z" fill="#f6f9fd"/>
  <path d="M362.64,367.85c.25,7.77-3.98,13.84-11.25,13.98-6.98.14-11.75-5.58-11.82-12.84s3.65-12.91,10.41-13.45c7.19-.57,12.4,4.46,12.66,12.32ZM355.86,375.1c2.45-3.73,2.45-8.69.5-12.31-1.82-3.38-7.06-3.8-9.54-1.01-3.89,4.38-2.6,13.44,1.95,15.04,2.32.82,5.62.53,7.09-1.73Z" fill="#f6f9fd"/>
  <path d="M337.16,368.63c-.02,7.72-4.83,13.44-11.98,13.15s-11.31-6.39-11.11-13.51,4.41-12.7,11.11-12.82c7.19-.13,12.01,5.4,11.99,13.19ZM330.63,374.64c2.21-4.1,2.27-9.28-.42-12.71-2.44-3.12-7.95-2.44-9.82,1.01-2.78,5.15-1.22,13.49,4.09,14.26,2,.29,4.99-.43,6.14-2.56Z" fill="#f6f9fd"/>
  <path d="M148.81,380.19c-.88.76-3.19.94-4.76.76l-.08-10.31-9.33-.02-.04,10.1-4.78.1.02-24.03c.92-.59,3.67-.62,4.75-.12l.13,9.23,9.22.07.1-9.76,4.7.19.09,23.78Z" fill="#f6f9fd"/>
  <path d="M471.01,372.37c-.58,1.22-1.47,2.5-1.1,2.82l2.25,1.99c.64.57-.34,2.49-1.13,2.88-.88.43-2.84-.45-4.13-1.27-4.45,2.45-10.05,3.72-14.07-.79-1.19-1.34-1.71-4.4-.89-6.32.66-1.55,2.9-3.37,4.6-4.73-1.41-2.15-2.55-4.92-1.82-6.95.88-2.47,3.68-3.91,6.48-3.78s5.53,1.95,6.05,4.18c.7,3-.62,4.9-3.78,7.04.6,1.13,2.07,3.16,2.84,3.95,1.04-.87,2.04-1.61,2.76-1.75,1.06-.21,2.36,1.83,1.92,2.75ZM463.54,362.25c0-1.24-1.01-2.25-2.25-2.25s-2.25,1.01-2.25,2.25,1.01,2.25,2.25,2.25,2.25-1.01,2.25-2.25ZM463.39,374.87l-3.95-4.81c-1.07.31-2.54,1.33-3,2.17s-.2,3.42.53,4.14c1.43,1.41,6.03,1.46,6.41-1.49Z" fill="#f6f9fd"/>
  <path d="M189.11,375.15l-9.55-.16-2.09,5.85c-.91.24-3.37-.01-4.64-.33l8.37-23.73c1.69-.52,4.29-.61,6.26-.32l8.44,24.12c-.99.42-4.21.84-4.82-.11-.72-1.12-1.26-3.05-1.97-5.32ZM187.36,370.43l-3.16-9.74-3.11,9.5,6.27.24Z" fill="#f6f9fd"/>
  <path d="M540.01,356.43l4.65-.08-.03,17.17c0,5-3.49,8.03-8.55,8.29-3.78.2-9.1-1.47-9.68-6.06-.81-6.45-.59-12.75-.53-19.25,1.43-.25,3.64-.2,4.69.27l.03,15.88c0,2.43,1.87,4.37,3.77,4.6s5.34-.5,5.37-2.97l.28-17.85Z" fill="#f6f9fd"/>
  <path d="M489.5,372.16l-.41,8.19c-.06,1.19-4.4.8-4.4-.5l.04-23.39c4.3-.22,8.12-.34,12.07,0,4.68.4,6.31,5.04,5.83,8.98s-3.89,6.47-8.4,6.59l-4.73.13ZM497.09,367.12c.7-2.85.71-3.66-.16-6.02l-7.64-.28-.07,6.65,7.87-.35Z" fill="#f6f9fd"/>
  <path d="M296.32,372c.6,2.51,2.64,4.25,4.82,4.5,2.57.29,4.49-1.25,5.69-3.83.54-1.17,4.44-.67,4.32.58-.42,4.63-4.32,7.2-8.02,7.66-4.02.5-8.07-1.17-10.19-5.02-2.71-4.94-2.58-11.39.62-16.1,2.29-3.36,6.38-4.78,10.14-4.08,3.55.66,6.63,3.1,7.54,7.7l-4.04.97c-1.29-2.1-2.22-3.61-3.43-4.09-1.33-.53-4.74-.06-5.7,1-2.45,2.71-2.64,7.05-1.77,10.73Z" fill="#f6f9fd"/>
  <path d="M206.55,380.14c0,1.01-3.84,1.01-4.48.42v-19.49s-6.88-.41-6.88-.41l-.11-4.4,18.58-.02.06,4.41-7,.23-.17,19.25Z" fill="#f6f9fd"/>
  <path d="M381.78,376.61c1.02.03,1.07,3.05.63,4.37l-16.01.05-.11-24.39,4.88-.35-.21,19.99,10.81.33Z" fill="#f6f9fd"/>
  <path d="M522.56,376.59c.32.82.42,3.25.29,4.4h-16.22s-.02-23.99-.02-23.99c.37-1,4.16-.99,4.62.02l.12,19.37,11.2.19Z" fill="#f6f9fd"/>
  <rect x="215.98" y="356.25" width="4.8" height="24.75" fill="#f6f9fd"/>
  <rect x="600" y="356.25" width="4.78" height="24.75" fill="#f6f9fd"/>
  <rect x="385.48" y="356.24" width="4.81" height="24.8" fill="#f6f9fd"/>
  <path d="M277.94,376.55c1.68,3.69-1.37,11.03-3.08,9.96l-1.01-.63c-.4-.25.53-1.22.8-1.73l1.29-2.48c-1.73-1.24-2.4-2.09-2.37-3.28.05-2.1,1.75-2.18,4.38-1.85Z" fill="#f6f9fd"/>
  <circle cx="462.62" cy="302.1" r="2.68" fill="#f6f9fd"/>
  <path d="M493.03,301.86c.41,2.51-.15,6.72-2.4,6.77-4.07.08-4.11-9.07-1.15-10.01,1.5-.48,3.19,1.01,3.55,3.24Z" fill="#f6f9fd"/>
</svg>