<?xml version="1.0" encoding="UTF-8"?>
<svg id="Layer_1" xmlns="http://www.w3.org/2000/svg" baseProfile="tiny" version="1.2" viewBox="0 0 132 132">
  <!-- Generator: Adobe Illustrator 30.1.0, SVG Export Plug-In . SVG Version: 2.1.1 Build 136)  -->
  <path d="M104.9,47.19H38.39c-1.46,0-2.58.2-3.91.41-3.65.55-7.13,1.26-10.32,3.2-2.56,1.56-5.08,4.2-5.14,7.44-.13,7.64-.33,15.11.07,22.66.24,4.59,3.72,8.14,7.62,9.71,2.94,1.19,5.74,1.72,8.86,1.93,3.83.25,7.63.25,11.47,0s7.68-1.03,11.17-2.73c6.45-3.15,6.73-9.37,6.48-15.77l-19.58.02c.03,2.62-.2,5.11.06,7.61.19,1.86-.86,3.14-2.83,3.4-1.11.15-3.71-.07-3.71-1.74l-.02-26.28c0-1.98,2.67-2.97,4.19-2.45,1.24.17,2.44.97,2.46,2.19l.13,10.3h19.08l.14-8.9h19.28v32.28c.57.26,1,.19,1.43.18-2.15,2.92-3.9,6.23-6.56,8.99l-57.62.02c-4.97,0-10.17-4.45-10.16-9.11l.02-43.2c0-4.98,4.88-8.97,9.63-8.97l85.01-.06c.25,1.5,0,2.87-.18,4.31l-.55,4.56h-.01Z" fill="#f6f9fd"/>
  <path d="M90.58,90.75l5.38-.14.06-7.93c0-.16-.09-.32-.2-.27,1.06-2.26,2.22-4.25,3.43-6.39,3.24-5.72,5.57-11.7,7.59-17.84l5.9-.04.03-10.86c-1.27-.17-2.4-.08-3.54-.05.33-3.13.68-5.44.73-8.82,5.25-.63,11.2,3.22,11.2,9.03l.02,43.09c0,4.87-5.3,9.14-10.05,9.13l-26.83-.03c2.19-3.05,4.42-5.84,6.28-8.89h0Z" fill="#f6f9fd"/>
  <path d="M102.27,58c-1.22,4.91-3.43,9.51-5.73,14.12-.18.35-.32.68-.65.71l-.04-14.7,6.42-.14h0Z" fill="#f6f9fd"/>
  <path d="M105.6,30c-.05.13-.35.05-.37-.12-.32-2.45-.99-4.7-1.74-6.93.38-.15.44.35.54.68.67,2.15,1.55,4.21,1.57,6.36h0Z" fill="#f6f9fd"/>
  <path d="M105.61,37.37l.05-4.32c0-.23,0-.57.2-.51.16.15.29.39.29.73l-.05,4.04c-.1.11-.39.06-.49.06Z" fill="#f6f9fd"/>
  <path d="M93.48,12.9l-2.91-.96c-.47-.15-1.01-.11-1.25-.48.2-.25.48-.18.83-.05l3.05,1.07c.23.08.38.25.27.42h.01Z" fill="#f6f9fd"/>
  <path d="M87.47,11.05c-1.21.35-2.69-.02-3.9,0-.8-.4,4.71-.4,3.9,0Z" fill="#f6f9fd"/>
  <path d="M101.77,19.62c-.7-.07-.8-.87-1.11-1.38.64.12.88.82,1.11,1.38Z" fill="#f6f9fd"/>
  <path d="M105.85,32.15c-.77-.08-.52-1.23-.24-1.75.54.38.24,1.17.24,1.75Z" fill="#f6f9fd"/>
  <path d="M103.46,22.56c-.67-.11-.78-.95-.93-1.53.67.09.83.94.93,1.53Z" fill="#f6f9fd"/>
  <path d="M88.93,11.46c-.19,0-.39.06-.63.05-.19,0-.59-.11-.43-.45.22-.04.52-.08.83-.01.14.03.39.17.23.41Z" fill="#f6f9fd"/>
  <path d="M96.35,14.37c-.44-.11-1.07-.16-1.03-.71.44.08,1.06.15,1.03.71Z" fill="#f6f9fd"/>
  <path d="M97.27,15.04c-.35-.05-.68-.24-.7-.62.34.09.64.27.7.62Z" fill="#f6f9fd"/>
  <path d="M98.18,15.75c-.27-.16-.67-.18-.65-.61.35.03.63.26.65.61Z" fill="#f6f9fd"/>
  <path d="M94.66,13.41c-.11,0-.23,0-.36-.05-.14-.05-.36-.2-.21-.39.17.02.37-.08.52.12.08.1.16.21.04.33h.01Z" fill="#f6f9fd"/>
  <path d="M104.89,47.87c0,.18.03.56-.22.57,0-.12-.31-.23-.21-.38.12-.19.27-.33.43-.19Z" fill="#f6f9fd"/>
  <path d="M104.65,49.3c0,.18.03.56-.22.57-.12-.09-.26-.27-.21-.38.08-.17.28-.36.42-.19h.01Z" fill="#f6f9fd"/>
  <path d="M104.42,50.26c-.03.18.04.56-.21.58-.08-.11-.28-.27-.22-.39.1-.2.29-.32.44-.19h-.01Z" fill="#f6f9fd"/>
  <path d="M102.3,20.39c-.12.08-.24.04-.32-.04-.16-.15-.15-.34-.15-.52.19-.08.39.03.41.19l.06.36h0Z" fill="#f6f9fd"/>
  <path d="M103.45,54.57c-.05.22-.2.39-.22.57-.22.06-.29-.25-.21-.39.09-.16.28-.32.43-.17h0Z" fill="#f6f9fd"/>
  <path d="M59.64,17.68c.88-.02,3.63-2.74,4.26-1.17.5,1.25-1.53,1.47-1.58,2.55.68.1.81-.51,1.62-.61-.47,1.59-2.08,2.32-2.54,3.26-.2.1-.52.29-.63.5-.5.13-1.01.41-1.13.96-.17.05-.3.19-.45.29-.08.06-.24.01-.35.08-.14.08-.23.24-.17.42-.28.08-.51.3-.68.53-.57.11-1.04.53-1.21,1.08-.19.03-.34.25-.49.36-.63.2-1.2.7-1.43,1.32-.44.16-1.02.6-1.21,1.05-.9.39-1.62,1.23-2.11,2.07-.42.33-1.04.65-1.22,1.22-.48.11-.89.51-.99.99-.37.09-.83.63-.97.98-.92.55-1.88,1.39-2.31,2.38-.44.2-.86.74-1.01,1.16-.29-.03-.29.29,0,.28h60.57c.1,0,.39.05.49-.06l.05-4.04c0-.33-.13-.58-.29-.73v-.4c-.01-.58.29-1.37-.25-1.75v-.4c-.02-2.15-.9-4.22-1.57-6.36-.1-.33-.16-.84-.54-.68-.04-.12-.01-.26-.03-.38-.09-.59-.25-1.43-.93-1.53-.06-.22-.21-.43-.24-.65l-.06-.36c-.02-.16-.22-.27-.41-.19,0-.07-.03-.16-.06-.22-.23-.56-.47-1.26-1.11-1.38-.6-.99-1.48-1.88-2.47-2.48-.03-.36-.3-.59-.65-.61-.09,0-.17-.08-.26-.09-.06-.35-.36-.54-.7-.62l-.23-.06c.03-.56-.59-.63-1.03-.71-.22-.04-.42-.23-.65-.24.13-.12.04-.23-.04-.33-.15-.19-.35-.1-.52-.12-.2-.02-.43,0-.62-.07.11-.18-.04-.34-.27-.42l-3.05-1.07c-.35-.12-.63-.2-.83.05h-.4c.16-.25-.09-.38-.23-.42-.3-.07-.6-.03-.83.01-.13.02-.28-.04-.4,0,.81-.4-4.71-.4-3.9,0h-.4c-3.34.1-7.44,1.81-10.6,3.32-.37.17-1.24-.16-.97-.45.46-.71,4.17-1.6,4.1-2.07-.01-.09-.03-.43-.25-.36l-2.68.94c-.45.16-.97-.27-1.37-.31.78-1.26,1.66-.83,1.6-2.29,3.55-1.69,7.27-2.8,11.4-2.99,8.01-.38,16.25,3.62,20.75,10.38,3.06,4.6,4.55,9.83,4.84,15.35.09,1.62.3,3.14-.14,4.77,2.39.12,4.57-.02,6.55,1.06,3.38,1.84,6,5.07,6,9.07v42.81c0,2.23-.87,4.22-2.09,5.95-1.14,1.62-3.06,2.75-4.79,3.66-1.15.6-2.56.69-3.93.69l-28.13.06c-6.48,8.2-13.92,15.62-22.87,20.77-6.18,3.55-12.75,5.84-19.89,6.38-2.08.16-4.12.24-6.18,0-13.54-1.55-18.05-17.08-18.78-28.43-3.66-1.77-5.88-5.25-5.88-9.32v-41.87c-.01-4.26,1.81-7.17,5.17-9.37,1.68-1.1,3.79-1.41,5.81-1.41l18.81-.03c.35-1.19,1.02-1.85,1.76-2.68,5.21-5.75,10.7-11.14,16.83-15.91.51-.4,1.1-.63,1.38-1.09v-.02ZM85.32,90.65c3.63-4.92,6.72-10.26,9.7-15.76.35-.64.87-1.39.87-2.05.33-.03.47-.36.65-.71,2.3-4.61,4.51-9.21,5.73-14.12.23-.94.85-1.85.96-2.86.02-.18.17-.34.22-.57l.75-3.73c.26-.02.18-.4.21-.58.02-.13,0-.26.01-.39.25,0,.21-.39.22-.57l.03-.87c.25,0,.22-.39.22-.57v-.68l.56-4.56c.17-1.45.43-2.82.18-4.31l-85.01.06c-4.75,0-9.63,4-9.63,8.97l-.02,43.2c0,4.66,5.2,9.11,10.16,9.11l57.62-.02c2.66-2.76,4.41-6.07,6.56-8.99h.01ZM109.23,47.23c-.56,1.17-.58,2.57-.82,3.95-.42,2.38-1.32,4.54-1.57,7.01-2.02,6.14-4.35,12.11-7.59,17.84-1.21,2.14-2.37,4.13-3.43,6.39-.97.86-1.46,2.12-2.17,3.29l-3.06,5.04c-1.86,3.05-4.1,5.85-6.28,8.89l26.83.03c4.75,0,10.05-4.27,10.05-9.13l-.02-43.09c0-5.81-5.95-9.66-11.2-9.03-.05,3.38-.4,5.69-.73,8.82h-.01ZM59.13,117.37c4.96-3,9.3-6.52,13.32-10.65,1.93-1.98,3.82-3.8,5.47-6.1H20.13c.49,6.08,2.7,14.82,7.2,19.13,2.05,2.23,4.72,3.5,7.74,3.79,8.1.79,17.11-1.98,24.06-6.18h0Z" fill="#f6f9fd"/>
  <g>
    <path d="M73.01,9.84c.05,1.46-.83,1.03-1.6,2.29.4.04.92.46,1.37.31l2.68-.94c.22-.08.23.26.25.36.07.47-3.64,1.36-4.1,2.07-.27.29.6.63.97.45,3.16-1.51,7.26-3.22,10.6-3.31-.02.24-.18.4-.52.45-3.07.4-6.02,1.37-8.86,2.68.1.2.33.31.42.42.86,1.1-2.26.32-2.68.84l8.9,3.63c.23.09.43.11.47.26.07.27.01.63-.36.5-3.18-1.04-6.01-2.71-9.34-3.52,1.44,2.06,3.49,2.8,5.01,4.33.62.25,1.31.65,1.07,1.43l-6.14-4.31c.07,1.24,1.15,1.59,1.45,2.52-.99.78-1.96-2.49-3.13-2.4-.13,1.67,1.15,2.98.8,4.64-1.18-1.15-.93-2.98-1.73-4.11-.31-.42-1.81-.38-2.02.18l-3.09,7.99c-.08.22-.17.39-.28.42s-.53-.02-.48-.17l2.67-7.52c-.98-.28-3.16,2.78-3.57,3.28-.28-.44-.08-.73-.35-.88.46-.95,2.07-1.67,2.54-3.26-.81.11-.94.71-1.62.61.05-1.09,2.08-1.3,1.58-2.55-.63-1.57-3.38,1.15-4.26,1.17-.2-.21-.57-.26-.77-.76.93-.75,3.57-.85,4.02-2.16-.51-.52-1.48-.18-1.76-.86-.32-.78,1.86.01,1.66-.83-.04-.15-.17-.4-.43-.51l-7.57-3.12c-.22-.09-.42-.3-.41-.44.05-1.04,7.39,2.99,8.8,2.94-.32-1.35-6.91-4.79-5.23-5.19l6.03,4.44c.36-.85-1.89-2.15-1.04-2.6.55-.29,1.27,2.16,2.55,1.71.93-.33-1.16-4.1-.87-4.7.04-.07.57-.1.59-.02l.9,2.73c.23.71.32,1.62,1.14,1.83.39-.91-.06-1.75.44-2.63.67.94,0,1.91.96,2.82l3.55-8.84c.07-.17.34-.13.37-.05.37,1.09-2.73,7.14-2.98,9.15,1.21-.75,4.16-5.77,4.75-5.63.1.02.42.15.32.29l-3.64,5.06c.77-.18,1.46-.21,1.98-.46v-.03ZM69.78,13.98c-.39-1.44-1.58-2.4-2.96-2.25-1.25.13-2.29,1.18-2.42,2.4-.15,1.42.74,2.28,1.97,2.91,1.54.79,3.81-1.54,3.41-3.05h0ZM70.91,17.61c0-.07-.05-.12-.12-.12s-.12.05-.12.12.05.12.12.12.12-.05.12-.12Z" fill="#f6f9fd"/>
    <path d="M53.63,28.3c-.38.94-1.31,1.45-2.11,2.07.49-.84,1.21-1.68,2.11-2.07Z" fill="#f6f9fd"/>
    <path d="M48.35,33.55c-.16.39-1.63,2.07-2.31,2.38.43-.99,1.39-1.82,2.31-2.38Z" fill="#f6f9fd"/>
    <path d="M56.28,25.92c-.28.63-.8,1.09-1.43,1.32.23-.63.8-1.12,1.43-1.32Z" fill="#f6f9fd"/>
    <path d="M57.97,24.48c-.19.55-.63.98-1.21,1.08.17-.55.64-.97,1.21-1.08Z" fill="#f6f9fd"/>
    <path d="M60.76,22.21c-.27.43-.64.81-1.13.96.12-.55.64-.83,1.13-.96Z" fill="#f6f9fd"/>
    <path d="M50.31,31.58c-.18.56-.4.85-.99.99.1-.49.51-.89.99-.99Z" fill="#f6f9fd"/>
    <path d="M59.18,23.46c0,.1.02.24-.04.35-.1.17-.33.1-.48.15-.06-.18.03-.33.17-.42.1-.06.26-.02.35-.08Z" fill="#f6f9fd"/>
    <path d="M45.04,37.37c-.3,0-.3-.32,0-.28v.28Z" fill="#f6f9fd"/>
    <circle cx="70.79" cy="17.61" r=".12" fill="#f6f9fd"/>
    <path d="M60.91,22.81c.16-.16.36-.06.43.07.15.28-.4.56-.36.57-.19-.07-.19-.51-.06-.64h0Z" fill="#f6f9fd"/>
  </g>
</svg>