<?xml version="1.0" encoding="utf-8"?>
<!-- Generator: Adobe Illustrator 30.1.0, SVG Export Plug-In . SVG Version: 9.03 Build 0)  -->
<svg version="1.0" id="Layer_1" xmlns="http://www.w3.org/2000/svg" xmlns:xlink="http://www.w3.org/1999/xlink" x="0px" y="0px"
	 viewBox="32.76 97.08 2400 488.18" enable-background="new 32.76 97.08 2400 488.18" xml:space="preserve">
<g>
	<g transform="translate(35.45469665527377,99.77586364746094)">
		<g transform="translate(0,0)">
			<g>
				<rect x="-11.93" y="-76.25" fill="#F6F9FD" fill-opacity="0" width="493.16" height="427.09"/>
				<g transform="matrix(-1,0,0,1,115.47,0)">
					<path fill="#F6F9FD" d="M127.4,350.85h-493.16c0,0,117.83-155.21,422.35-122.62L127.4,350.85z"/>
					<path fill="#F6F9FD" d="M7.47,143.15l-126.63-219.4l-207.78,359.83C-236.15,171.47-69.96,147.89,7.47,143.15z"/>
				</g>
			</g>
		</g>
		<g transform="translate(51.30939865112305,14.843856811523438)">
			<g transform="translate(0,0)">
				<g transform="scale(1.2400000000000002)">
					<g>
						<path fill="#F6F9FD" d="M396.42,31.21L396.42,31.21h68.64c7.29,0,13.38,4.28,18.28,12.85l0,0c0.87,2.62,1.31,4.66,1.31,6.12
							l0,0v4.72c0,6.88-4.31,12.65-12.94,17.31l0,0c-2.8,1.11-5.45,1.66-7.96,1.66l0,0h-57.71c-22.91,0-39.38,9.59-49.4,28.77l0,0
							c-1.75,5.3-2.62,10.38-2.62,15.21l0,0c0,15.62,8.86,28.13,26.58,37.51l0,0c7.81,3.38,15.36,5.07,22.65,5.07l0,0h58.5
							c11.19,0,18.71,5.3,22.56,15.91l0,0l0.35,3.41v4.72c0,6.65-4.11,12.3-12.33,16.96l0,0c-2.33,1.11-4.49,1.66-6.47,1.66l0,0
							h-71.61c-18.77,0-37.22-7.55-55.35-22.65l0,0c-10.32-10.49-16.58-18.74-18.8-24.75l0,0c-6.18-12.18-9.27-23.93-9.27-35.24l0,0
							v-6.3c0-20.46,8.54-39.76,25.62-57.89l0,0C354.86,39.58,374.86,31.21,396.42,31.21z M565.18,31.21L565.18,31.21h53.6
							c19.88,0,36.93,6.88,51.15,20.64l0,0c6.18,7.81,9.27,14.69,9.27,20.64l0,0v89.36c0,8.8-5.6,17.93-16.79,27.37l0,0
							c-13.76,9.27-28.65,13.9-44.68,13.9l0,0h-50.28c-19.41,0-36-5.95-49.75-17.84l0,0c-8.22-8.22-12.33-16.58-12.33-25.1l0,0
							V74.15c0-14.17,9.68-26.23,29.03-36.2l0,0C545.66,33.46,555.92,31.21,565.18,31.21z M637.5,73.8h-90.41v86.74h90.41V73.8z
							 M720.04,31.21L720.04,31.21h3.15c6.18,0,12.45,3.59,18.8,10.76l0,0c40.28,39.64,69.81,68.55,88.58,86.74l0,0v-74.5
							c0-10.67,4.93-18.01,14.78-22.03l0,0c2.16-0.64,4.11-0.96,5.86-0.96l0,0h2.97c7.4,0,13.49,4.28,18.28,12.85l0,0
							c0.87,2.62,1.31,4.66,1.31,6.12l0,0V184.5c0,6.65-4.11,12.3-12.33,16.96l0,0c-2.33,1.11-4.49,1.66-6.47,1.66l0,0h-4.81
							c-6.18,0-13.82-5.3-22.91-15.91l0,0l-84.12-82.28v77.56c0,9.39-5.42,16.15-16.26,20.29l0,0c-1.17,0.23-2.16,0.35-2.97,0.35
							l0,0h-4.81c-7.23,0-13.17-4.4-17.84-13.2l0,0c-0.87-2.33-1.31-4.37-1.31-6.12l0,0V51.24c0-8.69,5.1-15.13,15.3-19.32l0,0
							C717.04,31.45,718.64,31.21,720.04,31.21z M914.6,31.21L914.6,31.21h134.13c7.4,0,13.49,4.28,18.28,12.85l0,0
							c0.87,2.62,1.31,4.66,1.31,6.12l0,0v4.72c0,6.88-4.31,12.65-12.94,17.31l0,0c-2.8,1.11-5.45,1.66-7.96,1.66l0,0H1003V183.1
							c0,8.86-5.25,15.42-15.74,19.67l0,0l-3.5,0.35h-4.72c-7,0-12.85-4.28-17.58-12.85l0,0c-1.11-2.8-1.66-5.39-1.66-7.78l0,0
							V73.88h-43.37c-10.14,0-17.23-5.07-21.25-15.21l0,0c-0.47-2.1-0.7-3.59-0.7-4.46l0,0v-2.97c0-8.69,5.1-15.13,15.3-19.32l0,0
							C911.59,31.45,913.2,31.21,914.6,31.21z M1109.15,31.21L1109.15,31.21h102.39c14.63,0,28.1,6.88,40.4,20.64l0,0
							c7.29,10.43,10.93,20.26,10.93,29.47l0,0v7.08c0,13.99-6.97,27.11-20.9,39.35l0,0c-8.45,5.42-15.19,8.57-20.2,9.44l0,0v0.26
							c17.72,15.74,29.38,26.67,34.98,32.79l0,0c2.45,4.2,3.67,8.16,3.67,11.89l0,0c0,9.04-5.01,15.8-15.04,20.29l0,0
							c-2.04,0.47-3.53,0.7-4.46,0.7l0,0h-4.81c-5.6,0-12.97-4.95-22.12-14.86l0,0c-3.21-2.62-21.36-19.21-54.48-49.75l0,0h-27.28
							v43.98c0,9.39-5.42,16.15-16.26,20.29l0,0c-1.17,0.23-2.16,0.35-2.97,0.35l0,0h-4.81c-7.23,0-13.17-4.4-17.84-13.2l0,0
							c-0.87-2.33-1.31-4.37-1.31-6.12l0,0V51.24c0-8.69,5.1-15.13,15.3-19.32l0,0C1106.15,31.45,1107.75,31.21,1109.15,31.21z
							 M1219.68,73.88h-87.44v22.3h87.44V73.88z M1368.94,31.21L1368.94,31.21h3.76c8.86,0,16,7.08,21.42,21.25l0,0
							c40.98,80.79,62.08,122.8,63.31,126l0,0v6.47c0,7.23-4.81,13.06-14.43,17.49l0,0c-2.04,0.47-3.7,0.7-4.98,0.7l0,0h-3.15
							c-8.92,0-16.15-7.32-21.69-21.95l0,0c-28.21-55.79-42.53-83.83-42.93-84.12l0,0c-31.54,63.42-48.18,96.42-49.93,98.98l0,0
							c-4.72,4.72-9.62,7.08-14.69,7.08l0,0h-2.97c-7.29,0-13.29-4.4-18.01-13.2l0,0c-0.7-2.56-1.05-4.61-1.05-6.12l0,0v-2.62
							c0-3.21,4.08-12.45,12.24-27.72l0,0l57.8-114.11C1358.18,33.92,1363.28,31.21,1368.94,31.21z M1537.87,31.21L1537.87,31.21
							h94.35c8.8,0,15.27,4.75,19.41,14.25l0,0c0.23,1.22,0.35,2.22,0.35,2.97l0,0v6.47c0,6.76-4.23,12.53-12.68,17.31l0,0
							c-3.38,1.11-6.12,1.66-8.22,1.66l0,0h-109.56v21.6h65.23c26.47,0,46.17,8.34,59.11,25.01l0,0c4.08,6.35,6.12,11.69,6.12,16
							l0,0v25.62c0,9.97-6.7,19.79-20.11,29.47l0,0c-12.88,7.69-25.53,11.54-37.95,11.54l0,0h-96.97c-6.53,0-12.24-3.73-17.14-11.19
							l0,0c-1.11-2.39-1.66-4.55-1.66-6.47l0,0v-4.63c0-8.69,5.1-15.13,15.3-19.32l0,0c2.33-0.7,4.98-1.05,7.96-1.05l0,0h107.55
							v-21.6h-68.99c-19.18,0-35.68-5.98-49.49-17.93l0,0c-8.22-8.28-12.33-16.64-12.33-25.1l0,0V74.15
							c0-14.05,9.68-26.12,29.03-36.2l0,0C1518.43,33.46,1528.66,31.21,1537.87,31.21z M1692.82,31.21L1692.82,31.21h134.13
							c7.4,0,13.49,4.28,18.28,12.85l0,0c0.87,2.62,1.31,4.66,1.31,6.12l0,0v4.72c0,6.88-4.31,12.65-12.94,17.31l0,0
							c-2.8,1.11-5.45,1.66-7.96,1.66l0,0h-44.42V183.1c0,8.86-5.25,15.42-15.74,19.67l0,0l-3.5,0.35h-4.72
							c-7,0-12.85-4.28-17.58-12.85l0,0c-1.11-2.8-1.66-5.39-1.66-7.78l0,0V73.88h-43.37c-10.14,0-17.23-5.07-21.25-15.21l0,0
							c-0.47-2.1-0.7-3.59-0.7-4.46l0,0v-2.97c0-8.69,5.1-15.13,15.3-19.32l0,0C1689.82,31.45,1691.42,31.21,1692.82,31.21z"/>
					</g>
				</g>
			</g>
			<g transform="translate(138.80929946899414,28.378400802612305)">
				<g transform="scale(1, 1)">
					<g transform="scale(0.8600000000000001)">
						<path fill="#F6F9FD" d="M1706.67,300.57L1706.67,300.57h1.4c2.8,0,5.92,2.1,9.36,6.3l0,0c0.12,0,6.12,5.98,18.01,17.93l0,0
							c15.16-15.33,22.85-23.03,23.08-23.08l0,0c1.63-0.76,3.03-1.14,4.2-1.14l0,0h1.31c3.15,0,5.74,1.81,7.78,5.42l0,0
							c0.41,1.11,0.61,1.98,0.61,2.62l0,0v57.45c0,2.86-1.78,5.28-5.33,7.26l0,0c-0.99,0.47-1.89,0.7-2.71,0.7l0,0h-2.1
							c-2.68,0-5.01-1.52-7-4.55l0,0c-0.87-1.22-1.31-3.12-1.31-5.68l0,0v-31.57c-8.69,8.69-13.09,13.03-13.2,13.03l0,0
							c-1.63,1.17-3.47,1.75-5.51,1.75l0,0c-3.26,0-6.67-2.19-10.23-6.56l0,0c-5.54-5.6-8.37-8.39-8.48-8.39l0,0v32.88
							c0,4.43-2.39,7.4-7.17,8.92l0,0c-0.12,0.12-0.47,0.17-1.05,0.17l0,0h-2.01c-2.86,0-5.3-1.69-7.34-5.07l0,0
							c-0.58-1.22-0.87-2.39-0.87-3.5l0,0v-56.49c0-3.5,2.16-6.21,6.47-8.13l0,0C1705.44,300.65,1706.14,300.57,1706.67,300.57z
							 M1786.15,300.57L1786.15,300.57h57.27c3.15,0,5.74,1.81,7.78,5.42l0,0c0.41,1.17,0.61,2.04,0.61,2.62l0,0v2.1
							c0,2.91-1.84,5.36-5.51,7.35l0,0c-1.22,0.47-2.36,0.7-3.41,0.7l0,0h-46.96v9.44h36.29c4.61,0,7.72,1.81,9.36,5.42l0,0
							c0.47,1.05,0.7,2.04,0.7,2.97l0,0v1.22c0,3.73-2.19,6.5-6.56,8.31l0,0c-0.7,0.17-1.4,0.26-2.1,0.26l0,0h-37.69v9.36h45.91
							c5.42,0,8.74,2.62,9.97,7.87l0,0v2.45c0,2.86-1.78,5.28-5.33,7.26l0,0c-0.99,0.47-1.89,0.7-2.71,0.7l0,0h-58.06
							c-3.09,0-5.63-1.87-7.61-5.6l0,0c-0.41-0.99-0.61-1.87-0.61-2.62l0,0v-56.66c0-3.73,2.19-6.5,6.56-8.31l0,0
							C1784.81,300.65,1785.51,300.57,1786.15,300.57z M1893.53,300.57L1893.53,300.57h29.38c3.09,0,5.68,1.81,7.78,5.42l0,0
							c0.35,1.17,0.52,2.04,0.52,2.62l0,0v2.1c0,2.91-1.84,5.36-5.51,7.35l0,0c-1.22,0.47-2.36,0.7-3.41,0.7l0,0h-24.66
							c-9.79,0-16.85,4.11-21.16,12.33l0,0c-0.76,2.27-1.14,4.43-1.14,6.47l0,0c0,6.7,3.79,12.07,11.37,16.09l0,0
							c3.38,1.4,6.62,2.1,9.71,2.1l0,0h25.01c4.78,0,7.99,2.27,9.62,6.82l0,0l0.17,1.49v2.01c0,2.86-1.75,5.28-5.25,7.26l0,0
							c-0.99,0.47-1.92,0.7-2.8,0.7l0,0h-30.6c-7.99,0-15.86-3.24-23.61-9.71l0,0c-4.43-4.49-7.11-7.99-8.04-10.49l0,0
							c-2.68-5.25-4.02-10.29-4.02-15.13l0,0v-2.71c0-8.74,3.67-16.99,11.02-24.75l0,0
							C1875.78,304.12,1884.32,300.57,1893.53,300.57z M1944.94,300.57L1944.94,300.57h1.31c3.03,0,5.6,1.75,7.69,5.25l0,0
							c0.58,1.11,0.87,2.45,0.87,4.02l0,0v18.36h37.34v-17.84c0-4.9,2.39-8.1,7.17-9.62l0,0c0.7-0.12,1.25-0.17,1.66-0.17l0,0h1.31
							c3.15,0,5.74,1.81,7.78,5.42l0,0c0.35,1.17,0.52,2.04,0.52,2.62l0,0v57.45c0,2.86-1.75,5.28-5.25,7.26l0,0
							c-0.99,0.47-1.92,0.7-2.8,0.7l0,0h-2.01c-3.26,0-5.86-1.98-7.78-5.95l0,0c-0.41-1.17-0.61-2.48-0.61-3.93l0,0v-17.75h-37.34
							v18.8c0,4.02-2.33,6.91-7,8.66l0,0c-0.47,0.12-0.87,0.17-1.22,0.17l0,0h-2.1c-3.09,0-5.63-1.87-7.61-5.6l0,0
							c-0.35-0.99-0.52-1.87-0.52-2.62l0,0v-56.66c0-3.73,2.19-6.5,6.56-8.31l0,0C1943.69,300.65,1944.36,300.57,1944.94,300.57z
							 M2052.23,300.57L2052.23,300.57h1.57c3.79,0,6.85,3,9.18,9.01l0,0c17.55,34.57,26.55,52.52,27.02,53.86l0,0v2.8
							c0,3.09-2.04,5.57-6.12,7.43l0,0c-0.87,0.23-1.57,0.35-2.1,0.35l0,0h-1.4c-3.79,0-6.88-3.12-9.27-9.36l0,0
							c-12.07-23.84-18.19-35.85-18.36-36.03l0,0c-13.47,27.16-20.58,41.27-21.34,42.32l0,0c-1.98,2.04-4.05,3.06-6.21,3.06l0,0
							h-1.31c-3.09,0-5.65-1.87-7.69-5.6l0,0c-0.29-1.11-0.44-1.98-0.44-2.62l0,0v-1.14c0-1.4,1.75-5.36,5.25-11.89l0,0l24.66-48.7
							C2047.6,301.73,2049.78,300.57,2052.23,300.57z M2103.73,300.57L2103.73,300.57h1.4c2.62,0,5.3,1.52,8.04,4.55l0,0
							c17.2,16.96,29.82,29.32,37.86,37.07l0,0v-31.83c0-4.55,2.1-7.69,6.3-9.44l0,0c0.93-0.23,1.75-0.35,2.45-0.35l0,0h1.31
							c3.15,0,5.74,1.81,7.78,5.42l0,0c0.41,1.17,0.61,2.04,0.61,2.62l0,0v57.45c0,2.86-1.78,5.28-5.33,7.26l0,0
							c-0.99,0.47-1.89,0.7-2.71,0.7l0,0h-2.1c-2.62,0-5.89-2.27-9.79-6.82l0,0l-35.94-35.15v33.14c0,4.02-2.3,6.91-6.91,8.66l0,0
							c-0.52,0.12-0.96,0.17-1.31,0.17l0,0h-2.01c-3.15,0-5.71-1.87-7.69-5.6l0,0c-0.35-0.99-0.52-1.87-0.52-2.62l0,0v-56.66
							c0-3.73,2.19-6.5,6.56-8.31l0,0C2102.48,300.65,2103.15,300.57,2103.73,300.57z M2183.48,300.57L2183.48,300.57h1.31
							c3.15,0,5.77,1.75,7.87,5.25l0,0c0.58,1.11,0.87,2.45,0.87,4.02l0,0v55.35c0,4.02-2.36,6.91-7.08,8.66l0,0
							c-0.52,0.12-0.96,0.17-1.31,0.17l0,0h-2.1c-3.21,0-5.83-1.87-7.87-5.6l0,0c-0.41-0.99-0.61-1.87-0.61-2.62l0,0v-56.66
							c0-3.73,2.27-6.5,6.82-8.31l0,0C2182.08,300.65,2182.78,300.57,2183.48,300.57z M2235.24,300.57L2235.24,300.57h29.38
							c3.09,0,5.68,1.81,7.78,5.42l0,0c0.35,1.17,0.52,2.04,0.52,2.62l0,0v2.1c0,2.91-1.84,5.36-5.51,7.35l0,0
							c-1.22,0.47-2.36,0.7-3.41,0.7l0,0h-24.66c-9.79,0-16.85,4.11-21.16,12.33l0,0c-0.7,2.27-1.05,4.43-1.05,6.47l0,0
							c0,6.7,3.79,12.07,11.37,16.09l0,0c3.32,1.4,6.53,2.1,9.62,2.1l0,0h25.01c4.78,0,7.99,2.27,9.62,6.82l0,0l0.17,1.49v2.01
							c0,2.86-1.75,5.28-5.25,7.26l0,0c-0.99,0.47-1.92,0.7-2.8,0.7l0,0h-30.6c-7.99,0-15.86-3.24-23.61-9.71l0,0
							c-4.43-4.49-7.11-7.99-8.04-10.49l0,0c-2.62-5.25-3.93-10.29-3.93-15.13l0,0v-2.71c0-8.74,3.64-16.99,10.93-24.75l0,0
							C2217.49,304.12,2226.03,300.57,2235.24,300.57z M2314.55,300.57L2314.55,300.57h1.57c3.79,0,6.85,3,9.18,9.01l0,0
							c17.55,34.57,26.55,52.52,27.02,53.86l0,0v2.8c0,3.09-2.04,5.57-6.12,7.43l0,0c-0.87,0.23-1.57,0.35-2.1,0.35l0,0h-1.4
							c-3.79,0-6.88-3.12-9.27-9.36l0,0c-12.07-23.84-18.19-35.85-18.36-36.03l0,0c-13.47,27.16-20.58,41.27-21.34,42.32l0,0
							c-1.98,2.04-4.05,3.06-6.21,3.06l0,0h-1.31c-3.09,0-5.65-1.87-7.69-5.6l0,0c-0.29-1.11-0.44-1.98-0.44-2.62l0,0v-1.14
							c0-1.4,1.75-5.36,5.25-11.89l0,0l24.66-48.7C2309.92,301.73,2312.1,300.57,2314.55,300.57z M2366.05,300.57L2366.05,300.57
							h1.4c3.03,0,5.57,1.75,7.61,5.25l0,0c0.58,1.11,0.87,2.45,0.87,4.02l0,0v45.91h45.91c5.42,0,8.74,2.62,9.97,7.87l0,0v2.45
							c0,2.86-1.78,5.28-5.33,7.26l0,0c-0.99,0.47-1.89,0.7-2.71,0.7l0,0h-58.06c-3.15,0-5.71-1.87-7.69-5.6l0,0
							c-0.35-0.99-0.52-1.87-0.52-2.62l0,0v-56.66c0-3.73,2.19-6.5,6.56-8.31l0,0C2364.8,300.65,2365.47,300.57,2366.05,300.57z"/>
					</g>
				</g>
			</g>
		</g>
	</g>
</g>
</svg>
