<?xml version="1.0" encoding="UTF-8"?>
<svg id="Layer_1" xmlns="http://www.w3.org/2000/svg" baseProfile="tiny" version="1.2" viewBox="0 0 800.16 563.72">
  <!-- Generator: Adobe Illustrator 30.1.0, SVG Export Plug-In . SVG Version: 2.1.1 Build 136)  -->
  <g>
    <path d="M122.87,433.39l.16-49.28c.01-4.59-.36-8.89-1.43-13.16-2.22-8.88-12.72-8.61-20.66-9.77-.58-3.01-.6-5.77.02-8.81l66.12.02c.31,3.08.37,5.78-.03,8.71-4.5.69-8.58.85-12.63,2.91-3.32,2.57-5.47,6.76-5.49,11.35l-.3,62.9c-22.36,15.48-49.7,21.51-76.34,17.02-30.96-5.21-55.82-26.78-65.93-56.51-11.15-32.8-5.41-69.89,14.95-97.69,20.91-28.54,56.74-40.29,90.21-29.17,7.34,2.44,13.8,5.49,21.26,9.02,1.68-4.46.67-8.24,1.4-12.33,3.63-.16,7.05-.2,10.78.04l3.06,59.17c-2.57.38-4.76.43-7.36,0-3.47-12.99-9.56-24.96-19.73-33.74-18.92-16.36-45.91-16.04-64.28.8-8.49,7.78-14.98,17.01-19.05,28.15-12.45,34.05-7.84,79.55,18.98,105.34,16.44,15.81,46.49,20.24,66.28,5.03Z" fill="#f6f9fd"/>
    <path d="M272.84,393.53l-61.02-.03-14.42,36.94c-1.05,2.69-.89,5.61.52,8.03,3.01,5.16,13.65,4.29,19.32,4.64.2,3.52.3,6.61-.08,9.91l-56.01-.05c-.39-3.31-.23-6.25-.13-9.79,6.63.39,11.96-2.57,14.81-8.39,4.01-8.21,7.57-15.93,11.05-24.58l57.35-142.35c2.84-.79,5.41-.58,8.64-.13l65.93,165.56c2.84,7.13,9.22,10.8,16.36,9.64.71,3.47.38,6.42.2,10.07h-65.94c-.5-3.35-.28-6.39-.13-9.77l8.39-.34c3-.12,5.8-1.37,7.26-3.57,1.61-2.41,2.2-5.86,1.1-8.91l-13.22-36.86ZM267.52,379.28l-24.27-64.61-25.8,64.65,50.07-.04Z" fill="#f6f9fd"/>
    <path d="M623.15,399.75c2.99-.24,5.61.62,8.96,1.5l-14.82,51.77-126.91-.05c-.24-3.66-.24-6.6-.02-9.68,5.26-.98,10.14-.79,15.31-2.46,4.36-1.42,7.28-6.18,7.28-11.4l.03-134.33c0-5.53-2.95-10.73-7.53-12.54-4.93-1.94-9.77-1.3-14.78-2.18-.38-3.13-.33-6.27-.04-9.73l76.07-.05c.26,3.32.18,6.15.04,9.69l-13.22,1.1c-7.38.61-12.31,5.97-12.31,13.82l-.02,131.3c0,5.69,3.56,10.09,9.04,10.41,13.26.79,26.31.45,39.52-1.05,19.63-2.22,26.8-19.09,33.39-36.13Z" fill="#f6f9fd"/>
    <path d="M476.15,399.6c3.22.14,5.78.81,8.93,1.61l-14.9,51.81-126.56-.02c-.57-3.14-.46-6.52-.09-9.78,5.67-1.14,11.22-.51,16.49-3.02,4.07-1.94,5.93-7.11,5.93-12.05v-132.39c-.01-5.56-2.51-11.02-7.15-13.01-4.94-2.12-9.96-1.56-15.21-2.28-.32-3.13-.28-6.34-.04-9.86l75.81-.02c.62,3.29.31,6.19.19,9.72l-12.8,1.02c-7.42.59-12.58,5.7-12.58,13.69l-.02,131.66c0,5.82,3.72,9.95,9.24,10.26,13.3.74,26.41.44,39.65-1.13,19.47-2.3,26.55-19.55,33.1-36.22Z" fill="#f6f9fd"/>
    <path d="M716.91,456.89c-19.92-.58-37.3-8.56-50.67-22.55-12.02-12.57-19.91-27.77-23.53-44.99-4.08-19.43-3.87-39.17.74-58.46,4.06-16.98,12.44-31.74,24.85-43.72,14.17-13.67,32.25-20.54,51.98-20.45,19.13.08,36.71,6.61,50.62,19.73,12.76,12.03,21.47,26.96,25.58,44.26,4.94,20.78,4.96,42.29-.2,63.05-5.4,21.73-18.2,40.17-36.91,52.16-12.65,8.11-26.93,11.4-42.45,10.95ZM745.16,432.89c8.85-7.93,14.26-17.47,17.45-28.68,6.64-23.29,6.58-58.92.71-82.3-3.14-12.49-9.08-23.18-18.69-31.52-14.44-12.53-35.09-12.57-49.4.16-8.98,7.99-14.74,18.14-18.01,29.9-6.55,23.56-6.58,58.92-.13,82.45,3.14,11.44,8.56,21.29,17.05,29.33,14.36,13.6,36.02,14.1,51.02.66Z" fill="#f6f9fd"/>
  </g>
  <g>
    <path d="M317.54,562.4l-.54-50.75-17.8,50.4c-2.44.86-5.11.66-7.79.19l-17.82-52.39-.48,52.52c-2.66.27-5.01.31-7.96-.03v-63.11c4.49-.16,8.28-.24,12.63.04l17.98,53.32,18.44-53.33c3.92-.21,7.38-.33,11.2.11l.02,62.91c-2.34.42-4.33.36-7.87.12Z" fill="#f6f9fd"/>
    <path d="M517.55,562.12c-3.1.79-5.73.48-8.8.18l-32.51-48.39-.61,48.49c-2.78.23-4.98.19-7.98.04l-.03-63.02c2.94-.55,5.47-.32,8.69-.18l32.91,49.01.28-49c2.79-.18,5.17-.3,8.03.07l.03,62.81Z" fill="#f6f9fd"/>
    <path d="M661.41,561.41c-7.31,3.03-14.88,2.62-22.28,1.01-9.64-2.1-16.44-10.5-16.32-20.17,2.83-.53,5.16-.72,7.82-.7.54,5.6,3.25,10.13,8.5,12.33,6.66,2.79,14.65,2.99,20.99-.48,3.5-1.91,5.03-5.35,4.87-8.88-.54-12.12-25.07-8.6-35.4-18.2-4.01-3.72-5.22-8.91-4-14.56,2.96-13.82,22.37-16.48,34.89-11.08,6.77,2.92,10.81,9.4,10.51,16.35-2.94.49-5.31.88-7.97.47-.47-5.43-3.57-9.6-8.73-10.94-7.78-2.03-21.47-.78-21.09,9.08.14,3.64,2.88,6.19,6.68,7.21l19.06,5.1c4.79,1.28,9.62,3.9,12.09,8.36,5.29,9.52.71,20.85-9.64,25.13Z" fill="#f6f9fd"/>
    <path d="M606.49,533.64l-34.8.05.08,21.18,38.5.07c.53,2.72.53,4.94-.05,7.55h-47.01s0-63.37,0-63.37h45.58c.5,2.57.52,4.75.03,7.52l-37.13.15-.08,19.04,34.72.19c.59,2.54.43,4.91.15,7.62Z" fill="#f6f9fd"/>
    <path d="M440.32,543.34l-26.18-.04-7.02,18.96c-2.84.46-5.71.4-8.98.02l24.06-62.8c3.11-.66,6.15-.59,9.42-.03l25.55,62.61c-3.06.92-6.16.41-9.43.33l-7.42-19.05ZM416.54,536.55l21.1-.19-10.71-29.31c-1.49,2.86-1.76,5.96-2.91,9.09l-7.47,20.4Z" fill="#f6f9fd"/>
    <path d="M157.18,555.81c7.93-1.72,11.82-8.19,13.62-15.49l8.22,1.97c-2.63,14.49-14.73,22.25-28.59,21.36-10.66-.69-19.18-5.46-23.61-15.5-3.6-8.16-4.47-17.13-2.95-26.12,2.58-15.19,15.32-24.66,30.52-24,11.27.49,20.96,7.13,23.59,18.56-2.74.73-5.3,1.59-8.35,1.79-2.37-9.01-9.75-13.79-18.7-13.04-7.79.66-14.08,4.87-16.85,12.46-2.89,7.93-2.86,16.8-.37,25.01,3.06,10.1,12.84,15.3,23.45,12.99Z" fill="#f6f9fd"/>
    <path d="M373.31,536.53l-22.38.52-.11,25.24c-2.86.36-5.26.4-8.33.03v-63.19s30.33.16,30.33.16c10.23.05,17.93,7.1,17.89,17.47.82,10.58-6.43,19.52-17.41,19.77ZM381.78,515.61c-.75-5.63-4.98-8.63-10.14-8.74-7.02-.15-13.8-.34-20.72.01v22.37c6.99-.02,13.61.32,20.36-.23,7.08-.58,11.98-6,10.5-13.4Z" fill="#f6f9fd"/>
    <rect x="536.18" y="499.12" width="8.55" height="63.41" fill="#f6f9fd"/>
    <path d="M220.72,563.66c-12.18.04-21.81-6.01-27.05-16.52-3.84-7.72-4.12-16.48-2.54-25.01,2.7-14.56,14.59-24.11,29.21-24.15,12.69-.03,23.84,6.82,28.26,19.12,3.14,8.71,3.21,18.55.07,27.31-4.28,11.95-15.03,19.19-27.95,19.23ZM241.04,539.97c3.63-14.95-1.48-32.75-17.53-34.47-9.08-.97-17.83,2.87-21.62,11.3-3.4,7.57-3.78,16.34-1.55,24.19,2.82,9.89,11.32,15.69,20.94,15.39,9.46-.29,17.34-6.44,19.76-16.41Z" fill="#f6f9fd"/>
  </g>
  <g>
    <path d="M546.96,215.14c-66.48,18.32-142.21,22.07-210.56,15.09-56.21-5.74-130.95-22.56-175.11-59.2-9.34-7.75-17.1-16.41-22.88-26.97-9.36-17.12-9.48-36.76-.35-53.95C164.88,39.6,252.96,15.54,305.72,7.31c83.98-13.1,183.69-9.51,264.5,18.28,33.73,11.6,77.71,32.94,94.04,66.34,7.72,15.79,7.83,33.46.15,49.31-19.27,39.79-77.09,62.78-117.44,73.9ZM594.57,191.53c23.68-10.77,50.04-27.08,62.85-50.2,14.83-26.77,2.92-52.65-18.18-71.41-38.69-34.4-106.43-51.56-157.01-58.36-54.08-7.27-108.4-7.29-162.47-.09-50.32,6.7-116.62,23.48-155.71,56.8-7.92,6.75-14.5,14.17-19.64,23.1-9.88,17.14-9.03,37,1.71,53.63,15.51,24.02,44.72,40.25,70.81,50.91,104.62,42.78,274.58,42.5,377.65-4.38Z" fill="#f6f9fd"/>
    <path d="M408.09,194.89c-12.32.02-22.29-4.16-33.71-4.25l-98.58-.83c-.59-1.72-.57-3.99-.02-6.01l81.83-.26-10.52-7.25-82.27-.16c-.41-2.05-.44-3.75.03-5.97l75.8-.09-6.59-9.86-56.03-.11c-.63-2.23-.62-3.92,0-6.16l52.83-.1-3.03-11.12-56.42-.12c-.6-1.9-.6-3.83-.05-6.02l55.39-.05.24-10.03-53.37-.11c-.58-1.91-.59-3.83-.05-6.02l53.96-.09c.81-2.82,1.59-5,1.36-7.62l-55.56-.06c-.81-1.89-.56-3.94-.19-6.22l58.21-.12c1.02-2.63,2.12-4.16,2.8-7.41l-60.05-.12c-.83-1.62-.89-4.32.08-5.98l63.67-.07,8.17-11.72-82.02-.07c-.56-2.19-.56-4.04,0-6.25h88.24s10.77-9.28,10.77-9.28l-75.8-.19c-.56-2.03-.52-3.82-.08-5.99l86.39-.07,14.44-7.56-75.42-.16c-.73-1.94-.47-3.84-.17-6.21l93.84-.02c21.05-6.26,42.26-7.67,64.08-5.16,11.04,1.27,21.59,1.81,32.48-.14,1.84-.33,3.37-1.66,5.32-.9l-.14,42.81c-1.4,2.42-5.02-.66-6.78-.67l-82.32-.25c-.56-2.09-.56-4.04,0-6.2l79.99-.08c-1.15-3.06-3.02-5.17-5.19-7.6l-44.6-.11c-.55-1.97-.39-3.69-.1-5.9l37.25-.58c-6.43-5.25-13.56-7.52-21.12-8.75-15.25-2.48-30,.91-42.94,9.51-18.7,12.43-32.08,31.31-38.27,52.94-7.12,24.88-.59,50.09,22.74,63.27,8.74,4.94,18.17,7.19,28.3,7.96,9.36.7,21.72.38,23.17-11.45l-34.75-.11c-.39-1.95-.23-3.61-.14-6.11l36.69-.2c.76-3.35,1.31-6.15,1.2-9.3l-44.43-.04c-.61-1.74-.42-3.42-.24-5.94l45.57-.19c.81-2.98,1.31-5.41.99-8.57l-62.53-.04c-.6-1.93-.6-3.84-.05-6.04l63.4-.03c1.18-3.32,1.43-6.75,1.4-10.81l-50.74-.07c-.58-1.92-.6-3.84-.05-6.02l51.66-.12c-.47-5.87-5.53-10.51-11.23-10.53l-42.64-.12c-.5-1.93-.65-3.63.07-5.84l113.26.02c1.51,0,1.02,2.48.84,3.25-.24,1.04-12.43,4.57-15.6,19.72-3.57,17.08-6.17,34.12-8.28,51.5-.69,5.71,2.85,10.53,7.73,11.65.73,1.26.63,3.53-.37,4.8l-101.75.19Z" fill="#f6f9fd"/>
  </g>
</svg>