<?xml version="1.0" encoding="UTF-8"?>
<svg id="Layer_1" xmlns="http://www.w3.org/2000/svg" version="1.1" viewBox="0 0 960 956">
  <!-- Generator: Adobe Illustrator 30.1.0, SVG Export Plug-In . SVG Version: 2.1.1 Build 136)  -->
  <g isolation="isolate">
    <g isolation="isolate">
      <g isolation="isolate">
        <path d="M139.58,627.38v13.62c0,2.4-.62,4.18-2.4,5.79-5.52,4.98-12.73,8.19-21.54,8.19-17,0-30.8-12.28-30.8-30.8s13.8-30.71,30.8-30.71c8.9,0,15.4,3.12,20.38,8.1.8.71,1.25,1.78,1.25,2.94,0,2.31-1.87,4.1-4.18,4.1-1.07,0-2.14-.45-2.94-1.16-3.65-3.65-8.72-6.05-14.51-6.05-12.37,0-21.63,9.44-21.63,22.79s9.26,22.88,21.63,22.88c6.59,0,12.19-3.21,15.04-5.88v-10.68h-15.58c-2.14,0-3.92-1.78-3.92-4.01s1.78-3.83,3.92-3.83h19.76c3.03,0,4.72,1.69,4.72,4.72Z" fill="#f6f9fd"/>
        <path d="M169.66,609.75c12.91,0,20.92,10.06,20.92,21.36,0,2.4-1.69,3.83-4.72,3.83h-29.28c.62,7.3,5.96,13.35,14.6,13.35,3.65,0,7.48-1.16,10.68-3.47.45-.36,1.07-.45,1.78-.45,1.78,0,3.2,1.42,3.2,3.2,0,1.16-.53,2.05-1.42,2.67-4.27,3.12-9.35,4.63-15.04,4.63-12.82,0-22.25-9.08-22.25-22.61,0-12.46,8.99-22.52,21.54-22.52ZM156.49,629.16h26.26c-.18-5.7-4.01-12.82-13.08-12.82s-12.73,6.94-13.17,12.82Z" fill="#f6f9fd"/>
        <path d="M237.66,623.64v26.61c0,2.23-1.87,4.01-4.09,4.01s-3.92-1.78-3.92-4.01v-23.94c0-7.12-3.65-9.43-9.17-9.43-4.98,0-9.52,3.03-11.84,6.23v27.15c0,2.23-1.87,4.01-4.01,4.01s-4-1.78-4-4.01v-35.87c0-2.23,1.78-4.01,3.92-4.01s4.09,1.78,4.09,4.01v2.4c2.94-3.38,8.63-7.03,15.22-7.03,9.08,0,13.8,4.81,13.8,13.88Z" fill="#f6f9fd"/>
        <path d="M270.41,650.61c0,1.51-.8,2.58-2.05,3.03-1.51.71-3.56,1.25-6.14,1.25-6.76,0-10.24-3.83-10.24-10.59v-26.43h-4.09c-1.87,0-3.56-1.6-3.56-3.56s1.69-3.47,3.56-3.47h4.09v-8.19c0-2.22,1.78-4,4-4s4,1.78,4,4v8.19h5.61c1.96,0,3.56,1.6,3.56,3.47s-1.6,3.56-3.56,3.56h-5.61v24.65c0,3.03,1.42,5.25,4.18,5.25,1.51,0,2.05-.53,2.85-.53,2.05,0,3.38,1.42,3.38,3.38Z" fill="#f6f9fd"/>
        <path d="M277.62,650.25v-52.24c0-2.23,1.78-4.01,4-4.01s4.01,1.78,4.01,4.01v52.24c0,2.23-1.87,4.01-4.01,4.01s-4-1.78-4-4.01Z" fill="#f6f9fd"/>
        <path d="M317.22,609.75c12.91,0,20.92,10.06,20.92,21.36,0,2.4-1.69,3.83-4.72,3.83h-29.28c.62,7.3,5.96,13.35,14.6,13.35,3.65,0,7.48-1.16,10.68-3.47.45-.36,1.07-.45,1.78-.45,1.78,0,3.2,1.42,3.2,3.2,0,1.16-.53,2.05-1.42,2.67-4.27,3.12-9.35,4.63-15.04,4.63-12.82,0-22.25-9.08-22.25-22.61,0-12.46,8.99-22.52,21.54-22.52ZM304.05,629.16h26.26c-.18-5.7-4.01-12.82-13.08-12.82s-12.73,6.94-13.17,12.82Z" fill="#f6f9fd"/>
        <path d="M413.08,649.81v-22.52h-32.84v22.52c0,2.4-1.96,4.45-4.36,4.45s-4.54-2.05-4.54-4.45v-51.36c0-2.4,2.05-4.45,4.45-4.45s4.45,2.05,4.45,4.45v20.92h32.84v-20.92c0-2.4,1.96-4.45,4.45-4.45s4.45,2.05,4.45,4.45v51.36c0,2.4-1.96,4.45-4.45,4.45s-4.45-2.05-4.45-4.45Z" fill="#f6f9fd"/>
        <path d="M469.5,624.79v25.46c0,2.23-1.87,4.01-4.01,4.01s-4-1.78-4-4.01v-1.25c-3.29,3.83-8.28,5.88-14.06,5.88-7.12,0-14.95-4.81-14.95-14.24s7.74-14.06,14.95-14.06c5.79,0,10.77,1.87,14.06,5.7v-7.12c0-5.34-4.36-8.54-10.5-8.54-3.92,0-7.3,1.16-10.59,3.74-.53.36-1.25.62-1.96.62-1.78,0-3.2-1.51-3.2-3.29,0-1.07.53-2.05,1.33-2.58,4.54-3.65,9.7-5.34,15.66-5.34,9.35,0,17.27,4.09,17.27,15.04ZM461.49,644.38v-7.3c-2.4-3.21-6.59-4.89-11.04-4.89-5.79,0-9.88,3.47-9.88,8.54s4.09,8.54,9.88,8.54c4.45,0,8.63-1.69,11.04-4.89Z" fill="#f6f9fd"/>
        <path d="M519.34,623.64v26.61c0,2.23-1.87,4.01-4.09,4.01s-3.92-1.78-3.92-4.01v-23.94c0-7.12-3.65-9.43-9.17-9.43-4.98,0-9.52,3.03-11.84,6.23v27.15c0,2.23-1.87,4.01-4.01,4.01s-4-1.78-4-4.01v-35.87c0-2.23,1.78-4.01,3.92-4.01s4.09,1.78,4.09,4.01v2.4c2.94-3.38,8.63-7.03,15.22-7.03,9.08,0,13.8,4.81,13.8,13.88Z" fill="#f6f9fd"/>
        <path d="M570.69,598v52.24c0,2.23-1.78,4.01-4,4.01s-4.01-1.78-4.01-4.01v-2.58c-3.29,4.36-8.37,7.21-14.06,7.21-11.21,0-19.22-8.46-19.22-22.52s8.01-22.61,19.22-22.61c5.52,0,10.59,2.58,14.06,7.3v-19.05c0-2.23,1.87-4.01,4.01-4.01s4,1.78,4,4.01ZM562.68,641.53v-18.34c-2.22-3.47-7.03-6.32-11.93-6.32-8.01,0-13,6.5-13,15.49s4.98,15.4,13,15.4c4.89,0,9.7-2.76,11.93-6.23Z" fill="#f6f9fd"/>
        <path d="M580.48,647.22c0-1.96,1.51-3.47,3.47-3.47.71,0,1.42.27,1.96.62,3.29,2.4,7.57,4.09,12.1,4.09,6.05,0,9.26-2.49,9.26-6.14,0-4.27-4.9-5.7-10.41-6.94-7.3-1.69-15.84-3.65-15.84-12.91,0-6.85,5.87-12.73,16.38-12.73,5.96,0,10.68,1.78,14.33,4.45.8.62,1.42,1.51,1.42,2.67,0,1.78-1.51,3.29-3.29,3.29-.62,0-1.33-.27-1.78-.62-2.76-2.05-6.5-3.29-10.59-3.29-5.43,0-8.81,2.13-8.81,5.61,0,3.74,4.63,4.98,9.97,6.23,7.48,1.69,16.38,3.74,16.38,13.62,0,7.39-6.05,13.17-17.36,13.17-5.96,0-11.3-1.51-15.66-4.81-.89-.62-1.51-1.69-1.51-2.85Z" fill="#f6f9fd"/>
        <path d="M690.04,649.81v-22.52h-32.84v22.52c0,2.4-1.96,4.45-4.36,4.45s-4.54-2.05-4.54-4.45v-51.36c0-2.4,2.05-4.45,4.45-4.45s4.45,2.05,4.45,4.45v20.92h32.84v-20.92c0-2.4,1.96-4.45,4.45-4.45s4.45,2.05,4.45,4.45v51.36c0,2.4-1.96,4.45-4.45,4.45s-4.45-2.05-4.45-4.45Z" fill="#f6f9fd"/>
        <path d="M709.26,632.27c0-12.37,8.37-22.52,21.72-22.52s21.72,10.15,21.72,22.52-8.28,22.61-21.72,22.61-21.72-10.15-21.72-22.61ZM744.33,632.27c0-8.1-4.72-15.4-13.35-15.4s-13.35,7.3-13.35,15.4,4.81,15.49,13.35,15.49,13.35-7.3,13.35-15.49Z" fill="#f6f9fd"/>
        <path d="M823.09,622.75v27.5c0,2.23-1.87,4.01-4.09,4.01s-3.92-1.78-3.92-4.01v-25.1c0-4.98-2.23-8.28-7.48-8.28-4.36,0-8.63,3.03-10.68,6.14v27.23c0,2.23-1.78,4.01-4,4.01s-4.01-1.78-4.01-4.01v-25.1c0-4.98-2.14-8.28-7.57-8.28-4.18,0-8.37,3.12-10.5,6.23v27.15c0,2.23-1.87,4.01-4.01,4.01s-4-1.78-4-4.01v-35.87c0-2.23,1.78-4.01,3.92-4.01s4.09,1.78,4.09,4.01v2.49c1.78-2.67,7.48-7.12,13.88-7.12s10.32,3.38,11.66,8.01c2.49-4,8.19-8.01,14.51-8.01,7.92,0,12.19,4.36,12.19,12.99Z" fill="#f6f9fd"/>
        <path d="M854.69,609.75c12.91,0,20.92,10.06,20.92,21.36,0,2.4-1.69,3.83-4.72,3.83h-29.28c.62,7.3,5.96,13.35,14.6,13.35,3.65,0,7.48-1.16,10.68-3.47.45-.36,1.07-.45,1.78-.45,1.78,0,3.2,1.42,3.2,3.2,0,1.16-.53,2.05-1.42,2.67-4.27,3.12-9.35,4.63-15.04,4.63-12.82,0-22.25-9.08-22.25-22.61,0-12.46,8.99-22.52,21.54-22.52ZM841.51,629.16h26.26c-.18-5.7-4.01-12.82-13.08-12.82s-12.73,6.94-13.17,12.82Z" fill="#f6f9fd"/>
      </g>
    </g>
    <g isolation="isolate">
      <g isolation="isolate">
        <path d="M238.16,756.52c0,2.49-2.05,4.54-4.54,4.54-1.96,0-3.65-1.25-4.18-2.85l-3.74-9.88h-29.46l-3.74,9.88c-.62,1.6-2.31,2.85-4.18,2.85-2.49,0-4.54-2.05-4.54-4.54,0-.53.18-1.16.36-1.69l19.58-49.04c1.07-2.85,3.92-4.98,7.21-4.98s6.14,2.14,7.3,4.98l19.58,49.04c.18.45.36,1.07.36,1.69ZM222.76,740.41l-11.84-31.42-11.75,31.42h23.59Z" fill="#f6f9fd"/>
        <path d="M244.02,754.02c0-1.96,1.51-3.47,3.47-3.47.71,0,1.42.27,1.96.62,3.29,2.4,7.57,4.09,12.1,4.09,6.05,0,9.26-2.49,9.26-6.14,0-4.27-4.9-5.7-10.41-6.94-7.3-1.69-15.84-3.65-15.84-12.91,0-6.85,5.87-12.73,16.38-12.73,5.96,0,10.68,1.78,14.33,4.45.8.62,1.42,1.51,1.42,2.67,0,1.78-1.51,3.29-3.29,3.29-.62,0-1.33-.27-1.78-.62-2.76-2.05-6.5-3.29-10.59-3.29-5.43,0-8.81,2.14-8.81,5.61,0,3.74,4.63,4.98,9.97,6.23,7.48,1.69,16.38,3.74,16.38,13.62,0,7.39-6.05,13.17-17.36,13.17-5.96,0-11.3-1.51-15.66-4.81-.89-.62-1.51-1.69-1.51-2.85Z" fill="#f6f9fd"/>
        <path d="M285.68,754.02c0-1.96,1.51-3.47,3.47-3.47.71,0,1.42.27,1.96.62,3.29,2.4,7.57,4.09,12.1,4.09,6.05,0,9.26-2.49,9.26-6.14,0-4.27-4.9-5.7-10.41-6.94-7.3-1.69-15.84-3.65-15.84-12.91,0-6.85,5.87-12.73,16.38-12.73,5.96,0,10.68,1.78,14.33,4.45.8.62,1.42,1.51,1.42,2.67,0,1.78-1.51,3.29-3.29,3.29-.62,0-1.33-.27-1.78-.62-2.76-2.05-6.5-3.29-10.59-3.29-5.43,0-8.81,2.14-8.81,5.61,0,3.74,4.63,4.98,9.97,6.23,7.48,1.69,16.38,3.74,16.38,13.62,0,7.39-6.05,13.17-17.36,13.17-5.96,0-11.3-1.51-15.66-4.81-.89-.62-1.51-1.69-1.51-2.85Z" fill="#f6f9fd"/>
        <path d="M329.11,703.91c0-2.85,2.4-5.07,5.16-5.07s5.16,2.23,5.16,5.07-2.31,5.16-5.16,5.16-5.16-2.31-5.16-5.16ZM330.35,757.05v-35.87c0-2.23,1.78-4.01,4-4.01s4.01,1.78,4.01,4.01v35.87c0,2.23-1.87,4.01-4.09,4.01s-3.92-1.78-3.92-4.01Z" fill="#f6f9fd"/>
        <path d="M348.06,754.02c0-1.96,1.51-3.47,3.47-3.47.71,0,1.42.27,1.96.62,3.29,2.4,7.57,4.09,12.1,4.09,6.05,0,9.26-2.49,9.26-6.14,0-4.27-4.9-5.7-10.41-6.94-7.3-1.69-15.84-3.65-15.84-12.91,0-6.85,5.87-12.73,16.38-12.73,5.96,0,10.68,1.78,14.33,4.45.8.62,1.42,1.51,1.42,2.67,0,1.78-1.51,3.29-3.29,3.29-.62,0-1.33-.27-1.78-.62-2.76-2.05-6.5-3.29-10.59-3.29-5.43,0-8.81,2.14-8.81,5.61,0,3.74,4.63,4.98,9.97,6.23,7.48,1.69,16.38,3.74,16.38,13.62,0,7.39-6.05,13.17-17.36,13.17-5.96,0-11.3-1.51-15.66-4.81-.89-.62-1.51-1.69-1.51-2.85Z" fill="#f6f9fd"/>
        <path d="M412.77,757.41c0,1.51-.8,2.58-2.05,3.03-1.51.71-3.56,1.25-6.14,1.25-6.76,0-10.24-3.83-10.24-10.59v-26.43h-4.09c-1.87,0-3.56-1.6-3.56-3.56s1.69-3.47,3.56-3.47h4.09v-8.19c0-2.22,1.78-4,4-4s4,1.78,4,4v8.19h5.61c1.96,0,3.56,1.6,3.56,3.47s-1.6,3.56-3.56,3.56h-5.61v24.65c0,3.03,1.42,5.25,4.18,5.25,1.51,0,2.05-.53,2.85-.53,2.05,0,3.38,1.42,3.38,3.38Z" fill="#f6f9fd"/>
        <path d="M454.51,731.59v25.46c0,2.23-1.87,4.01-4.01,4.01s-4-1.78-4-4.01v-1.25c-3.29,3.83-8.28,5.88-14.06,5.88-7.12,0-14.95-4.81-14.95-14.24s7.74-14.06,14.95-14.06c5.79,0,10.77,1.87,14.06,5.7v-7.12c0-5.34-4.36-8.54-10.5-8.54-3.92,0-7.3,1.16-10.59,3.74-.53.36-1.25.62-1.96.62-1.78,0-3.2-1.51-3.2-3.29,0-1.07.53-2.05,1.33-2.58,4.54-3.65,9.7-5.34,15.66-5.34,9.35,0,17.27,4.09,17.27,15.04ZM446.5,751.18v-7.3c-2.4-3.21-6.59-4.9-11.04-4.9-5.79,0-9.88,3.47-9.88,8.54s4.09,8.54,9.88,8.54c4.45,0,8.63-1.69,11.04-4.9Z" fill="#f6f9fd"/>
        <path d="M504.35,730.44v26.61c0,2.23-1.87,4.01-4.09,4.01s-3.92-1.78-3.92-4.01v-23.94c0-7.12-3.65-9.43-9.17-9.43-4.98,0-9.52,3.03-11.84,6.23v27.15c0,2.23-1.87,4.01-4.01,4.01s-4-1.78-4-4.01v-35.87c0-2.23,1.78-4.01,3.92-4.01s4.09,1.78,4.09,4.01v2.4c2.94-3.38,8.63-7.03,15.22-7.03,9.08,0,13.8,4.81,13.8,13.88Z" fill="#f6f9fd"/>
        <path d="M536.3,716.55c6.14,0,10.41,1.96,13.71,4.98.71.62,1.25,1.69,1.25,2.67,0,2.05-1.6,3.65-3.56,3.65-.98,0-1.78-.36-2.4-.89-2.49-2.31-5.25-3.29-8.63-3.29-8.46,0-13.88,6.5-13.88,15.4s5.43,15.49,13.88,15.49c3.38,0,6.14-.98,8.63-3.29.53-.53,1.42-.89,2.31-.89,2.05,0,3.65,1.6,3.65,3.56,0,1.07-.53,2.14-1.25,2.76-3.29,3.03-7.57,4.98-13.71,4.98-12.99,0-21.89-9.7-21.89-22.61s8.9-22.52,21.89-22.52Z" fill="#f6f9fd"/>
        <path d="M580.08,716.55c12.91,0,20.92,10.06,20.92,21.36,0,2.4-1.69,3.83-4.72,3.83h-29.28c.62,7.3,5.96,13.35,14.6,13.35,3.65,0,7.48-1.16,10.68-3.47.45-.36,1.07-.45,1.78-.45,1.78,0,3.2,1.42,3.2,3.2,0,1.16-.53,2.05-1.42,2.67-4.27,3.12-9.35,4.63-15.04,4.63-12.82,0-22.25-9.08-22.25-22.61,0-12.46,8.99-22.52,21.54-22.52ZM566.91,735.96h26.26c-.18-5.7-4.01-12.82-13.08-12.82s-12.73,6.94-13.17,12.82Z" fill="#f6f9fd"/>
        <path d="M634.19,755.89v-50.64c0-2.4,2.05-4.45,4.54-4.45s4.36,2.05,4.36,4.45v47.53h23.41c2.14,0,4.01,1.69,4.01,3.83s-1.87,4-4.01,4h-27.5c-3.12,0-4.81-1.69-4.81-4.72Z" fill="#f6f9fd"/>
        <path d="M679.85,755.89v-50.64c0-2.4,2.05-4.45,4.54-4.45s4.36,2.05,4.36,4.45v47.53h23.41c2.14,0,4.01,1.69,4.01,3.83s-1.87,4-4.01,4h-27.5c-3.12,0-4.81-1.69-4.81-4.72Z" fill="#f6f9fd"/>
        <path d="M720.17,730.97c0-18.25,13.53-30.71,30.44-30.71,9.26,0,15.84,3.47,20.65,8.72.71.71,1.07,1.78,1.07,2.85,0,2.31-1.87,4.18-4.18,4.18-1.33,0-2.49-.53-3.2-1.42-3.47-3.92-8.54-6.41-14.33-6.41-12.02,0-21.27,9.43-21.27,22.79s9.26,22.79,21.27,22.79c5.79,0,10.86-2.49,14.42-6.41.71-.89,1.78-1.42,3.12-1.42,2.31,0,4.18,1.87,4.18,4.18,0,1.07-.36,2.14-1.07,2.85-4.9,5.25-11.39,8.72-20.65,8.72-16.91,0-30.44-12.46-30.44-30.71Z" fill="#f6f9fd"/>
      </g>
    </g>
  </g>
  <path d="M480,188c-100.52,0-182,81.48-182,182s81.48,182,182,182,182-81.48,182-182-81.48-182-182-182ZM480,531c-88.92,0-161-72.08-161-161s72.08-161,161-161,161,72.08,161,161-72.08,161-161,161Z" fill="#f6f9fd"/>
  <path d="M520.5,327v-68h-80c-.03,1.14-1,71-1,71h-72v79h73v72h80v-73h72v-81h-72ZM571.5,385h-74v71h-34v-71h-73v-36h72s-2-70,1-70h34v70h74v36Z" fill="#f6f9fd"/>
</svg>