<?xml version="1.0" encoding="UTF-8"?>
<svg id="Layer_1" xmlns="http://www.w3.org/2000/svg" baseProfile="tiny" version="1.2" viewBox="0 0 409.25 180.76">
  <!-- Generator: Adobe Illustrator 30.1.0, SVG Export Plug-In . SVG Version: 2.1.1 Build 136)  -->
  <path d="M0,116.28v-.14l8.33.02,16.21,54.12,15.48-54.13,8.66.02,15.47,54.11,16.23-54.15,8.16.04-20.24,62.87-8.42-.04-15.6-53.13-15.48,53.14-8.41.03L.23,116.4c-.04-.13-.25-.1-.23-.12Z" fill="#f6f9fd"/>
  <path d="M189.79,180.76h-3.89c-4.19,0-8.14-1.26-11.81-3.31-4.27-2.39-7.3-5.94-9.26-10.53l-.12,12.12-7.04-.02v-86.96h7.67s.05,36.2.05,36.2c1.33-3.03,2.76-5.45,5.04-7.57,3.1-2.87,6.8-4.81,10.99-5.69,4.89-1.02,9.95-.88,14.75.55,5.78,1.73,10.6,5.53,13.88,10.55,2.04,3.13,3.4,6.47,4.29,10.12,1.83,7.52,1.8,15.35-.02,22.87-3.01,12.37-11.78,20.71-24.53,21.68h0ZM195.46,172.72c5.54-2.73,9.23-7.93,10.93-13.8,2.15-7.42,2.15-15.25,0-22.67-1.66-5.72-5.21-10.82-10.55-13.6-4.53-2.36-11.29-2.35-15.98-.7-6.62,2.32-11.17,8.04-13.02,14.73-1.99,7.16-1.99,14.66,0,21.81,1.87,6.72,6.48,12.47,13.14,14.78,4.55,1.57,11.07,1.62,15.48-.55Z" fill="#f6f9fd"/>
  <path d="M122.98,180.61h-1.3c-.15,0-.29.02-.28.14h-4.18c-6.29,0-14.21-3.6-18.57-8.93-2.49-3.05-4.28-6.49-5.42-10.29-3.33-11.03-2.74-24.78,3.35-34.81,3.49-5.75,9.03-9.98,15.61-11.57,4.29-1.03,8.66-1.09,12.99-.37,7.2,1.19,13.38,5.84,17.04,12.04,3.97,6.6,5.35,15.16,5.08,22.84h-48.39c.17,9.71,3.66,18.57,12.64,23.09,4.32,2.03,10.19,2.02,14.7.78,3.37-.92,6.18-2.78,8.36-5.5,2.35-2.81,3.82-6.1,4.75-9.73l7.69-.02c-.69,3.13-1.69,6.04-3.12,8.88-3.08,5.87-7.26,10.04-13.67,12.08-2.42.77-4.84,1.35-7.29,1.35v.02ZM139.61,143.2c-.14-4.64-1.3-8.96-3.54-12.77-2.4-4.05-5.91-7.07-10.34-8.69-10.57-3.16-19.92,1.74-24.22,11.69-1.35,3.11-2.2,6.36-2.59,9.78h40.69,0Z" fill="#f6f9fd"/>
  <path d="M248.26,180.61h-1.3c-.15,0-.29.02-.28.14h-3.46l-2.24-.22c-3.9-.38-7.62-1.35-11.05-3.2-7.3-3.94-10.03-10.72-10.69-18.67h7.67c.15,2.01.46,3.8,1.14,5.58,1.83,5.22,6.9,8.55,12.16,9.62,4.48.91,9.1.66,13.45-.76,2.33-.76,4.33-1.98,6.05-3.63,2.02-1.94,2.95-4.37,2.93-7.15-.03-5.01-3.31-7.75-7.66-9.45-2.07-.81-4.11-1.4-6.29-1.9l-10.01-2.25c-2.38-.54-4.58-1.33-6.83-2.24-5.77-2.35-10.01-6.38-10.38-12.93-.15-2.68.03-5.26,1.07-7.75,1.24-2.96,3.37-5.39,6.05-7.15,5.1-3.34,12.02-4.54,18.02-4.3,9.52.38,17.59,4.66,20.53,14.14.59,1.99.88,3.95.97,6.05h-7.7c-.11-6.25-3.77-11.06-9.7-12.81s-13.71-1.33-18.4,2.61c-2.14,1.8-3.17,4.26-3.22,7.03-.04,2.17.64,4.07,2.17,5.62,1.22,1.24,2.61,2.21,4.24,2.95,2.04.94,4.12,1.67,6.34,2.17l10.69,2.4c3.46.77,6.75,1.62,9.78,3.46s5.59,4.58,6.96,8c1.56,3.88,1.37,9.62-.56,13.39-2.71,5.29-7.78,8.56-13.43,10.07-2.35.63-4.68,1.17-7.03,1.17h0Z" fill="#f6f9fd"/>
  <polygon points="219.17 0 219.09 87.07 211.43 87.05 211.39 0 219.17 0" fill="#f6f9fd"/>
  <path d="M122.98,180.61v.14h-1.58c-.01-.12.13-.14.28-.14h1.3Z" fill="#f6f9fd"/>
  <path d="M248.26,180.61v.14h-1.58c0-.12.13-.14.28-.14h1.3Z" fill="#f6f9fd"/>
  <g>
    <path d="M190.3,76.55c2.61-2.95,4.17-6.39,5.15-10.21l7.68.03c-.77,3.34-1.8,6.3-3.29,9.17-1.64,3.12-3.74,5.8-6.46,8.05-6.15,5.05-16.11,5.92-23.66,4.69-5.7-.93-10.91-3.69-14.68-8.06-2.64-3.06-4.48-6.59-5.68-10.47-3.41-11.06-2.82-24.99,3.33-35.05,3.45-5.66,8.9-9.85,15.38-11.46,4.49-1.12,9.1-1.16,13.63-.34,7.04,1.27,13.15,6.01,16.69,12.11,3.9,6.56,5.26,15.11,4.98,22.69h-48.38c.12,8.28,2.74,16.43,9.79,21.4,2.17,1.55,4.46,2.57,7.1,3,3.48.56,6.99.4,10.4-.51,3.18-.85,5.82-2.52,8.01-5.04h.01ZM195.69,51.23c-.15-4.58-1.27-8.83-3.46-12.62-2.38-4.09-5.92-7.19-10.37-8.82-10.74-3.24-20.09,1.82-24.39,11.9-1.23,3.01-2.1,6.11-2.47,9.53h40.69Z" fill="#f6f9fd"/>
    <path d="M264.82,87.21c-11.87,3.44-29.58,1.87-34.86-11.36-1.21-2.9-1.81-5.91-2.08-9.14h7.68c.15,1.96.45,3.72,1.09,5.47,1,2.75,2.74,5.01,5.14,6.68,5.57,4.02,13.68,4.35,20.06,2.42,2.44-.74,4.59-1.97,6.4-3.68,2.07-1.95,3.05-4.4,3.02-7.23-.04-4.77-2.97-7.54-7.14-9.26-2.15-.88-4.3-1.53-6.59-2.04l-9.63-2.16c-2.72-.61-5.27-1.48-7.82-2.56-5.53-2.34-9.58-6.32-9.97-12.61-.17-2.69,0-5.28,1.01-7.78,2.19-5.35,7.01-8.54,12.43-10.14,6.58-1.94,14.47-2.1,20.9.42,5.26,2.06,9.24,6.17,11.08,11.52.75,2.23,1.12,4.46,1.21,6.84l-7.7-.02c-.08-3.41-1.16-6.54-3.43-9-1.7-1.84-3.78-3-6.17-3.78-7.58-2.33-21.39-.86-21.72,9.48-.07,2.38.72,4.43,2.46,6.06,1.37,1.29,2.97,2.28,4.75,3.02,1.96.81,3.91,1.45,6.01,1.92l10.1,2.25c3.32.74,6.51,1.5,9.47,3.23,3.46,2.02,6.27,4.94,7.57,8.79s1.17,8.21-.35,12c-2.13,5.3-7.53,9.1-12.93,10.66h.01Z" fill="#f6f9fd"/>
  </g>
  <g>
    <g>
      <path d="M373.04,26.7v20.8h-34.67V12.87l20.6-.02c7.71-.03,13.98,6.07,14.07,13.84h0Z" fill="#f6f9fd"/>
      <path d="M373.05,76.39c-.04,7.45-5.96,13.84-13.5,13.85l-21.18.04v-34.63h34.67v20.75h.01Z" fill="#f6f9fd"/>
    </g>
    <g>
      <path d="M330.22,47.47l-34.65.03-.02-20.57c-.05-7.82,6.24-14.12,14.07-14.08h20.6v34.62h0Z" fill="#f6f9fd"/>
      <path d="M330.23,90.27h-20.89c-7.71,0-13.83-6.37-13.78-14.03v-20.59h34.66v34.62h0Z" fill="#f6f9fd"/>
    </g>
  </g>
  <g>
    <g>
      <path d="M409.25,115.28v7.69c-9.43-.48-18.17,4.57-21.64,13.59-1.04,2.7-1.6,5.43-1.6,8.38l-.02,34.09-7.69-.02v-62.86l7.07.02.1,14.84c1.38-3.05,2.71-5.69,4.82-8.07,3.33-3.76,7.66-6.31,12.63-7.2,2.15-.43,4.23-.5,6.33-.46Z" fill="#f6f9fd"/>
      <path d="M339.7,180.76h-3.6c.01-.12-.13-.14-.28-.14h-1.16c-.97,0-1.9-.19-2.96-.37-10.25-1.78-17.24-8.79-20.24-18.62-3.37-11.06-2.76-24.91,3.37-34.95,3.27-5.36,8.33-9.38,14.38-11.18,5.72-1.7,13.57-1.6,19.12.72,5,2.09,9.09,5.72,11.91,10.32,4.12,6.69,5.54,15.36,5.26,23.16h-48.39c.18,9.72,3.67,18.59,12.68,23.11,4.2,1.95,9.64,1.97,14.07.93,3.67-.87,6.74-2.84,9.08-5.8,2.3-2.78,3.73-6.05,4.64-9.6h7.68c-.68,3.16-1.72,6.13-3.17,8.99-2.83,5.35-6.64,9.35-12.37,11.53-3.27,1.25-6.62,1.92-10.01,1.92v-.02ZM357.82,143.2c-.15-4.74-1.35-9.12-3.68-12.99-2.41-3.96-5.9-6.92-10.25-8.49-10.64-3.15-19.96,1.83-24.24,11.85-1.31,3.06-2.14,6.25-2.53,9.63h40.7Z" fill="#f6f9fd"/>
    </g>
    <path d="M303.94,172.94v6.41l-3.38.16c-5.59.26-13.92.56-16.08-6.02-.64-1.95-1-3.93-1-6.06l-.02-44.8h-10.96l.02-6.48h10.94v-18.86h7.71v18.86h12.78v6.47h-12.79v43.29c.01,1.52.28,2.85.7,4.22.36,1.18,1.15,2.04,2.29,2.51,2.67,1.13,6.65.52,9.79.3h0Z" fill="#f6f9fd"/>
  </g>
  <g>
    <polygon points="77.18 0 77.22 12.36 69.52 12.37 69.55 0 77.18 0" fill="#f6f9fd"/>
    <rect x="69.52" y="24.18" width="7.7" height="62.89" fill="#f6f9fd"/>
  </g>
  <path d="M10.91,93.01c.54,3.59,2.33,6.6,5.19,8.78,5.23,4.02,13.86,4.48,20.04,3,6.32-1.51,9.91-5.62,11.88-11.63.94-3.17,1.43-6.34,1.47-9.69s.12-6.69-.06-10.23c-2.3,4.76-5.55,8.39-10.03,10.77-5.16,2.8-12.01,2.77-17.64,1.59-9.67-2.02-16.51-8.98-19.14-18.43-1.68-6.01-2.15-12.26-1.4-18.46.56-4.66,1.98-9.06,4.28-13.1,3.86-6.77,10.37-11.41,18.04-12.77s15.18,0,21.08,5.66c2,1.92,3.5,3.98,4.81,6.64l.11-10.96h7.66v59.26c-.3,9.65-2.66,19.76-11.56,24.9-2.63,1.52-5.37,2.5-8.39,3.02-11.26,1.98-26.04.04-32.09-11.06-1.18-2.29-1.79-4.71-1.95-7.28l7.69-.02h0ZM43.05,73.75c2.04-2.2,3.43-4.66,4.46-7.4,2.59-6.88,2.56-14.74.64-21.79-1.7-6.25-5.6-12.08-11.8-14.53-2.85-1.12-5.8-1.33-8.84-1.14-4.09.25-7.76,1.76-10.83,4.49-2.82,2.51-4.9,5.66-6.14,9.29-2.85,8.36-2.84,19.53,1.66,27.33,2.25,3.91,5.63,7.06,9.91,8.64s8.85,1.65,13.1.31c3.07-.97,5.63-2.83,7.83-5.21h0Z" fill="#f6f9fd"/>
  <g>
    <path d="M112.61,0c-.1.26,1.5.09,2.27.18l2.9.36.02,6.54-3.75-.46c-1.65-.2-3.23-.13-4.84.2-2.3.46-4.1,2.04-4.78,4.29-.42,1.2-.55,2.42-.56,3.72l-.07,9.35h21.66l.03-6.92c.01-2.59.3-5.06.87-7.56,1.41-5.4,4.99-8.53,10.48-9.37.52-.08.94-.25,1.4-.19-.1-.01,1.73.08,1.44-.14h2.3c0,.12.13.14.28.14h1.45l3.46.41v6.54l-3.75-.47c-1.69-.21-3.31-.14-4.96.22-2.3.5-4.06,2.12-4.7,4.39-.41,1.21-.52,2.43-.53,3.74l-.06,9.21h12.42v6.45l-12.43.05v56.38l-7.69-.02V30.65l-21.69.03v56.38h-7.69V30.66l-10.72-.02-.02-6.44,10.71-.03.03-6.18c0-2.21.18-4.32.52-6.49.74-4.69,2.98-8.52,7.55-10.29C105.88.54,107.67.25,109.43,0h3.18Z" fill="#f6f9fd"/>
    <path d="M143.71,0v.14h-1.45c-.15,0-.29-.02-.28-.14h1.73Z" fill="#f6f9fd"/>
    <path d="M139.68,0c.29.22-1.54.13-1.44.14V0h1.44Z" fill="#f6f9fd"/>
  </g>
</svg>