<?xml version="1.0" encoding="UTF-8"?>
<svg id="Layer_1" xmlns="http://www.w3.org/2000/svg" version="1.1" viewBox="0 0 1000 770.3">
  <!-- Generator: Adobe Illustrator 30.1.0, SVG Export Plug-In . SVG Version: 2.1.1 Build 136)  -->
  <g>
    <g>
      <path d="M540.96,159.6c31.44,65.49,32.81,133.12,32.81,133.12-100.45-40.99-31.66-140.36-75.4-174.91-11.16,7.56-24.94,9.4-44.9-1.45-43.07-23.41-83.6-3.46-97.31,31.07-13.71,34.54-16.81,117.65,71.32,199.61,59.06,54.94,48.24,12.53,33.9-17.87-30.81-65.33,6.64-93.67,38.76-73.96,26.64,16.35,23.67,49.91,25.66,86.73,1.62,30.07,3.36,74.2,36.31,31.05,66.83-87.53-21.14-213.4-21.14-213.4Z" fill="#f6f9fd"/>
      <path d="M598.71,73.84c-36.33-16.16-62.46-.76-78.46,20.57-6.32,8.42-12.64,16.54-20.12,22.14,30.25,7.89,74.97,27.38,96.75,80.94,15,36.9,13.37,96.34-7.01,139.35,5.28-7.75,10.99-16.5,17.18-26.4,82.28-131.54,31.49-218.89-8.34-236.61Z" fill="#f6f9fd"/>
    </g>
    <path d="M482.65,71.09c-5.72-26.47,6.2-64.55,65.96-71.09-29.24,12.94-2.78,58.59-61.21,72.97,0,0,9.26-31.32,28.15-51.17,0,0-24.23,15.47-32.9,49.29Z" fill="#f6f9fd"/>
    <path d="M482.64,102.2s-4.17-62.37-78.04-65.7c-12.55-.56-13.7,13.62-4.93,14.79,12.37,1.66,62.89-3.61,82.97,50.91Z" fill="#f6f9fd"/>
  </g>
  <g>
    <path d="M68.3,739.31c-.18,16.21-10.12,32.42-32.15,32.42s-32.24-15.85-32.24-32.33,10.57-33.04,32.24-33.04,32.33,16.57,32.15,32.96ZM15.55,739.58c.27,10.3,5.82,21.31,20.6,21.31s20.33-11.1,20.51-21.4c.18-10.57-5.73-22.39-20.51-22.39s-20.86,11.91-20.6,22.48Z" fill="#f6f9fd"/>
    <path d="M157.69,770.3h-14.06l-18.27-20.95h-11.37v20.95h-11.82v-62.78c9.94,0,19.88.09,29.82.09,14.78.09,22.57,9.94,22.57,20.77,0,8.6-3.94,17.29-15.85,19.7l18.98,21.4v.81ZM113.99,718.63v20.06h18c7.52,0,10.75-5.02,10.75-10.03s-3.31-10.03-10.75-10.03h-18Z" fill="#f6f9fd"/>
    <path d="M206.61,718.36h-19.88v-10.74h51.58v10.74h-19.88v51.94h-11.82v-51.94Z" fill="#f6f9fd"/>
    <path d="M313.28,770.39v-25.34h-30.81v25.34h-11.82v-62.68h11.82v26.42h30.81v-26.42h11.73v62.68h-11.73Z" fill="#f6f9fd"/>
    <path d="M422.82,739.31c-.18,16.21-10.12,32.42-32.15,32.42s-32.24-15.85-32.24-32.33,10.57-33.04,32.24-33.04,32.33,16.57,32.15,32.96ZM370.08,739.58c.27,10.3,5.82,21.31,20.6,21.31s20.33-11.1,20.51-21.4c.18-10.57-5.73-22.39-20.51-22.39s-20.87,11.91-20.6,22.48Z" fill="#f6f9fd"/>
    <path d="M511.77,738.42c.27,15.85-9.4,31.88-31.34,31.88h-24.63v-62.68h24.63c21.49,0,31.07,15.31,31.34,30.8ZM467.53,758.92h12.89c14.24,0,19.88-10.39,19.61-20.59-.27-9.76-6-19.53-19.61-19.53h-12.89v40.12Z" fill="#f6f9fd"/>
    <path d="M607.16,739.31c-.18,16.21-10.12,32.42-32.15,32.42s-32.24-15.85-32.24-32.33,10.57-33.04,32.24-33.04,32.33,16.57,32.15,32.96ZM554.42,739.58c.27,10.3,5.82,21.31,20.6,21.31s20.33-11.1,20.51-21.4c.18-10.57-5.73-22.39-20.51-22.39s-20.87,11.91-20.6,22.48Z" fill="#f6f9fd"/>
    <path d="M682.14,707.52h11.82v62.78h-7.34v.09l-32.95-42.35v42.27h-11.82v-62.68h9.58l30.72,38.86v-38.95Z" fill="#f6f9fd"/>
    <path d="M746.1,718.36h-19.88v-10.74h51.58v10.74h-19.88v51.94h-11.82v-51.94Z" fill="#f6f9fd"/>
    <path d="M810.15,770.3v-62.68h11.73v62.68h-11.73Z" fill="#f6f9fd"/>
    <path d="M913.32,762.42c-6.45,6.36-14.77,9.31-23.82,9.31-23.28,0-33.13-16.03-33.22-32.33-.09-16.39,10.57-33.04,33.22-33.04,8.51,0,16.57,3.22,23.02,9.58l-7.88,7.61c-4.12-4.03-9.67-5.91-15.13-5.91-15.13,0-21.67,11.29-21.58,21.76.09,10.39,6.09,21.23,21.58,21.23,5.46,0,11.64-2.24,15.76-6.36l8.06,8.15Z" fill="#f6f9fd"/>
    <path d="M984.71,722.75c-2.15-3.58-8.06-6.99-14.87-6.99-8.77,0-12.99,3.67-12.99,8.33,0,5.46,6.45,6.99,13.97,7.88,13.07,1.61,25.26,5.02,25.26,19.97,0,13.97-12.36,19.97-26.33,19.97-12.81,0-22.66-3.94-27.31-15.4l9.85-5.1c2.78,6.9,10.03,9.94,17.64,9.94s14.42-2.6,14.42-9.4c0-5.91-6.18-8.33-14.51-9.22-12.81-1.52-24.62-4.93-24.62-18.99,0-12.89,12.71-18.18,24.27-18.27,9.76,0,19.88,2.78,24.63,12.45l-9.4,4.84Z" fill="#f6f9fd"/>
  </g>
  <g>
    <g>
      <path d="M102.03,667.15H0v-196.66h23.04v175.81h78.99v20.85Z" fill="#f6f9fd"/>
      <path d="M140.7,491.07c-4.03,0-7.45-1.37-10.29-4.12-2.83-2.74-4.25-6.21-4.25-10.42s1.42-7.7,4.25-10.49c2.83-2.79,6.26-4.19,10.29-4.19s7.61,1.4,10.49,4.19c2.88,2.79,4.32,6.28,4.32,10.49s-1.44,7.45-4.32,10.29c-2.88,2.83-6.37,4.24-10.49,4.24ZM151.67,667.15h-22.49v-140.43h22.49v140.43Z" fill="#f6f9fd"/>
      <path d="M266.59,479c-4.39-2.47-9.37-3.7-14.95-3.7-15.72,0-23.58,9.91-23.58,29.75v21.67h32.91v19.2h-32.91v121.23h-22.36v-121.23h-24v-19.2h24v-22.77c0-14.72,4.25-26.35,12.75-34.9,8.51-8.55,19.11-12.82,31.82-12.82,6.86,0,12.29.82,16.32,2.47v20.29Z" fill="#f6f9fd"/>
      <path d="M397.97,602.56h-99.15c.37,15.63,4.57,27.7,12.62,36.21,8.04,8.5,19.11,12.75,33.18,12.75,15.82,0,30.35-5.21,43.61-15.63v21.12c-12.34,8.97-28.66,13.44-48.96,13.44s-35.43-6.38-46.76-19.13c-11.34-12.76-17-30.69-17-53.82,0-21.86,6.19-39.65,18.58-53.42,12.39-13.76,27.77-20.64,46.15-20.64s32.59,5.94,42.65,17.83c10.06,11.89,15.08,28.39,15.08,49.51v11.79ZM374.93,583.5c-.09-12.98-3.22-23.08-9.39-30.31-6.17-7.22-14.74-10.83-25.71-10.83s-19.61,3.79-27.02,11.38c-7.4,7.59-11.98,17.51-13.71,29.76h75.83Z" fill="#f6f9fd"/>
      <path d="M512.34,665.51c-6.4,3.38-16.04,5.07-28.93,5.07-30.54,0-45.8-15.86-45.8-47.58v-64.32h-22.77v-31.95h22.77v-30.31l43.2-12.34v42.65h31.54v31.95h-31.54v56.77c0,14.63,5.8,21.94,17.41,21.94,4.57,0,9.28-1.32,14.12-3.97v32.09Z" fill="#f6f9fd"/>
      <path d="M580.09,667.15h-43.34v-140.43h43.34v140.43Z" fill="#f6f9fd"/>
      <path d="M839.55,667.15h-43.2v-80.09c0-20.38-7.49-30.58-22.49-30.58-7.13,0-12.94,3.06-17.42,9.18-4.48,6.13-6.72,13.76-6.72,22.9v78.58h-43.34v-80.91c0-19.84-7.36-29.76-22.08-29.76-7.4,0-13.32,2.93-17.76,8.78-4.44,5.85-6.65,13.8-6.65,23.86v78.03h-43.33v-140.43h43.33v21.94h.55c4.47-7.49,10.76-13.6,18.85-18.3,8.09-4.71,16.94-7.07,26.54-7.07,19.84,0,33.41,8.74,40.73,26.2,10.7-17.46,26.42-26.2,47.17-26.2,30.54,0,45.81,18.84,45.81,56.5v87.36Z" fill="#f6f9fd"/>
      <path d="M1000,609.28h-91.61c1.46,20.39,14.31,30.58,38.54,30.58,15.44,0,29.02-3.66,40.72-10.97v31.26c-12.98,6.95-29.85,10.43-50.6,10.43-22.67,0-40.27-6.29-52.8-18.86-12.53-12.56-18.78-30.1-18.78-52.59s6.76-41.78,20.29-55.4c13.53-13.63,30.17-20.44,49.92-20.44s36.32,6.09,47.52,18.24c11.2,12.17,16.8,28.67,16.8,49.51v18.24ZM959.82,582.68c0-20.11-8.14-30.17-24.41-30.17-6.95,0-12.96,2.88-18.04,8.64-5.07,5.76-8.15,12.94-9.25,21.53h51.7Z" fill="#f6f9fd"/>
    </g>
    <path d="M506.57,502.88s86.32,32.35,100.2-61.54c-13.45,33.32-57.47,1.32-70.83,57.24,0,0,31.36-7.34,50.22-25.51,0,0-24.47,39.02-79.59,29.81Z" fill="#f6f9fd"/>
  </g>
</svg>