<?xml version="1.0" encoding="UTF-8"?>
<svg id="Layer_2" data-name="Layer 2" xmlns="http://www.w3.org/2000/svg" viewBox="0 0 345.61 305.63">
  <defs>
    <style>
      .cls-1 {
        fill: #f6f9fd;
      }
    </style>
  </defs>
  <g id="Layer_2-2" data-name="Layer 2">
    <g>
      <path class="cls-1" d="M134.02,305.63h-39.95c-.14-.17-.88-.79-1.27-.93-5.21-1.93-10.66-4.34-14.83-8.3-8.79-8.37-17.71-15.92-27.6-22.97-4.46-3.18-8.76-6.19-12.57-10.16-8.54-8.9-15.85-18.52-22.45-28.9-2.42-3.81-6.78-12.37-7.93-16.13l-7.42-24.35v-21.24l2.67-7.6c2.2-6.26,5.5-11.85,10.1-16.7-.72-2.24-1.24-4.24-1.51-6.58-1.53-13.2-1.84-26.14-1.08-39.4.52-9.17,2.47-17.55,5.18-26.22,2.95-9.45,5.81-18.48,10.01-27.41,6.26-13.3,15.35-24.2,27.2-32.81,9.22-6.69,19.13-11.32,30.48-13.37,4.12-.75,8.46-1.96,12.72-2.08,11.18-.31,22.3-.96,33.41.12l36.9,3.6c7.4.72,14.34,1.4,21.53,3.26,25.05,6.48,36.13,22.6,49.36,42.95,3.65,5.61,6.81,11.08,9.84,17.26,13.6,2.44,27.64,8.43,36.03,19.93,4.22,5.77,8.33,11.32,13.14,16.58l8.74,9.55c4.46,4.88,9.27,9.21,13.08,14.7,9.42,13.59,21.51,36.59,24.25,52.85,1.53,9.05,2.98,17.54,3.47,26.74.9,17.1-4.9,33.65-17.09,45.68-5.89,5.81-13.05,9.44-20.64,12.63-8.83,3.72-24.16,7.7-33.52,9.55l-24.78,4.89c-17.63,3.62-32.61,2.94-48.79-5.8-17.88,13.35-37.84,22.49-59.13,28.35-2.76.76-5.19,1.34-7.53,2.31h-.02ZM219.11,254.64c5.67,0,10.28.47,15.36-.12,24.28-2.86,45.22-17.02,56.99-38.3,6.04-10.93,9.33-23.42,9.23-35.99-.09-11.95.58-23.42-.32-35.41-1.97-26.44-19.19-50.37-43.42-61.29-8.42-3.8-17.14-6.76-26.59-6.79l-59.46-.18-.02-31.44c3.88-1.37,7.13-3.83,7.43-8.2,1.29-3.45-.51-6.87-2.72-9.27-2.27-2.46-5.58-3.17-9.32-2.67-4.68.62-8.21,5.34-8.09,9.79.13,4.72,2.69,8.77,7.68,10.29l-.03,32.05h-61.1c-2.56,0-5.02.58-7.59,1.01-14.37,2.38-27.2,9.34-37.79,19.37-12.24,11.59-21.73,29.84-22.86,46.79-.34,5.07-.17,9.94-.13,14.84l.17,24.53c.02,2.38.19,4.72.53,7.09,3.08,21.92,15.83,40.97,34.46,52.64,7.83,4.9,15.77,8.36,24.99,9.9,3.52.59,6.98,1.31,10.8,1.31l111.82.06h-.02Z"/>
      <path class="cls-1" d="M216.46,235.62c-32.71.7-64.84.88-97.16-.06-29.48-.85-53.29-25.98-54.82-54.7-.56-10.53-.55-19.61,0-30.03,1.56-29.55,26.41-54.9,56.23-54.93l94.15-.1c30.58-.03,56.24,25.21,57.44,55.56.4,10.02.44,18.85,0,28.98-1.3,29.39-25.59,54.64-55.83,55.28h0ZM139.63,174.55v-17.55l-17.72-.03-.09,17.57h17.81ZM214.81,174.39l.07-14.43c0-.77-.54-2.38-.86-2.99h-16.82v17.02c.95.23,2.36.62,3.01.61l14.6-.21Z"/>
    </g>
  </g>
</svg>