<?xml version="1.0" encoding="UTF-8"?>
<svg id="svg2" xmlns="http://www.w3.org/2000/svg" version="1.1" xmlns:cc="http://creativecommons.org/ns#" xmlns:dc="http://purl.org/dc/elements/1.1/" xmlns:inkscape="http://www.inkscape.org/namespaces/inkscape" xmlns:rdf="http://www.w3.org/1999/02/22-rdf-syntax-ns#" xmlns:sodipodi="http://sodipodi.sourceforge.net/DTD/sodipodi-0.dtd" xmlns:svg="http://www.w3.org/2000/svg" viewBox="0 0 190 75">
  <!-- Generator: Adobe Illustrator 30.1.0, SVG Export Plug-In . SVG Version: 2.1.1 Build 136)  -->
  <sodipodi:namedview id="namedview84" bordercolor="#666666" borderopacity="1" fit-margin-bottom="0" fit-margin-left="0" fit-margin-right="0" fit-margin-top="0" gridtolerance="10" guidetolerance="10" inkscape:current-layer="svg2" inkscape:cx="95" inkscape:cy="37.5" inkscape:pagecheckerboard="0" inkscape:pageopacity="0" inkscape:pageshadow="2" inkscape:showpageshadow="false" inkscape:window-height="705" inkscape:window-maximized="1" inkscape:window-width="1366" inkscape:window-x="-8" inkscape:window-y="-8" inkscape:zoom="3" objecttolerance="10" pagecolor="#ffffff" showgrid="false"/>
  <g id="MeijerLogo-Primary-FullColor">
    <path id="Meijer-Logo-_x2F_-Primary-_x2F_-Red" d="M.99,18.6h10.75v5.64c1.93-4.24,5.21-6.36,9.85-6.36s7.75,2.12,8.76,6.36c1.84-4.24,5.17-6.36,9.98-6.36,2.68,0,4.83.48,6.42,1.45,1.59.97,2.69,2.29,3.32,3.97.62,1.68.94,4.84.94,9.48v26.57h-11.37v-25.41c0-3.03-.22-5.01-.66-5.92-.44-.91-1.41-1.37-2.93-1.37-1.81,0-3,.6-3.55,1.79-.55,1.2-.82,3.61-.82,7.23v23.68h-11.37v-25.77c0-2.9-.21-4.78-.62-5.64-.41-.86-1.35-1.29-2.82-1.29-1.81,0-3.02.63-3.62,1.88-.6,1.25-.9,3.63-.9,7.15v23.68H.99V18.6ZM72.76,25.43c-3.45,0-5.18,2.97-5.21,8.9h10.41c.03-.48.04-.85.04-1.12,0-5.19-1.75-7.78-5.24-7.78ZM72.81,52.33c3.26,0,5.16-2.1,5.7-6.29h10.15c-1.79,9.5-7.15,14.25-16.08,14.25-5.51,0-9.69-1.87-12.55-5.61-2.86-3.74-4.29-8.75-4.29-15.02,0-7.08,1.52-12.48,4.55-16.2,3.04-3.73,7.1-5.59,12.21-5.59,4.6,0,8.44,1.65,11.53,4.94,3.09,3.3,4.63,9.34,4.63,18.13h-21.19v2.24c0,3.64.49,6.06,1.47,7.29.98,1.23,2.27,1.84,3.86,1.84ZM94.37,18.51h11.4v40.83h-11.4V18.51ZM112.66,18.19h11.46v39.63c0,4.22-.23,7.39-.69,9.51-.46,2.11-1.56,3.79-3.3,5.03-1.74,1.23-3.95,1.85-6.64,1.85-1.71,0-3.76-.19-6.15-.57v-9.41c.57.08,1.07.12,1.51.12,1.69,0,2.74-.42,3.16-1.26.43-.84.63-2.71.63-5.6V18.19ZM146.2,25.43c-3.45,0-5.18,2.97-5.21,8.9h10.41c.02-.48.04-.85.04-1.12,0-5.19-1.75-7.78-5.25-7.78h0ZM146.25,52.33c3.26,0,5.16-2.1,5.7-6.29h10.15c-1.79,9.5-7.15,14.25-16.08,14.25-5.5,0-9.69-1.87-12.55-5.61-2.86-3.74-4.29-8.75-4.29-15.02,0-7.08,1.52-12.48,4.55-16.2,3.03-3.73,7.1-5.59,12.21-5.59,4.59,0,8.44,1.65,11.53,4.94,3.08,3.3,4.63,9.34,4.63,18.13h-21.19v2.24c0,3.64.5,6.06,1.47,7.29.98,1.23,2.27,1.84,3.86,1.84h0ZM167.49,18.39h10.04v9.93c1.79-6.97,4.98-10.45,9.57-10.45.56,0,1.2.07,1.92.2v11.26c-.83-.11-1.45-.16-1.88-.16-5.51,0-8.26,4.2-8.26,12.6v17.57h-11.38V18.39Z" fill="#f6f9fd"/>
    <path id="Meijer-Logo-_x2F_--Primary-_x2F_-Blue" d="M106.08,7.11c0,3.5-2.9,6.33-6.49,6.33s-6.49-2.83-6.49-6.33,2.9-6.33,6.49-6.33,6.49,2.83,6.49,6.33ZM124.44,7.11c0,3.5-2.91,6.33-6.49,6.33s-6.49-2.83-6.49-6.33c0-3.5,2.9-6.33,6.49-6.33s6.49,2.83,6.49,6.33Z" fill="#f6f9fd"/>
  </g>
</svg>