<?xml version="1.0" encoding="UTF-8"?>
<svg id="Layer_2" data-name="Layer 2" xmlns="http://www.w3.org/2000/svg" xmlns:xlink="http://www.w3.org/1999/xlink" viewBox="0 0 138.9 87.72">
  <defs>
    <style>
      .cls-1 {
        fill: #ba3a49;
      }

      .cls-1, .cls-2 {
        fill-rule: evenodd;
      }

      .cls-3, .cls-2 {
        fill: #f6f9fd;
      }

      .cls-4 {
        clip-path: url(#clippath);
      }
    </style>
    <clipPath id="clippath">
      <path class="cls-3" d="M53.32,20.73v.08c.02,2.62,2.15,4.75,4.77,4.75s4.77-2.14,4.77-4.79-2.14-4.79-4.77-4.79-4.75,2.12-4.77,4.75Z"/>
    </clipPath>
  </defs>
  <g id="Layer_1-2" data-name="Layer 1">
    <g>
      <g>
        <path class="cls-3" d="M53.32,20.73v.08c.02,2.62,2.15,4.75,4.77,4.75s4.77-2.14,4.77-4.79-2.14-4.79-4.77-4.79-4.75,2.12-4.77,4.75Z"/>
        <g class="cls-4">
          <rect class="cls-3" x="53.32" y="15.99" width="9.54" height="9.57"/>
        </g>
      </g>
      <path class="cls-2" d="M46.68,30h-7.25l-10.48,11.94-3.67-11.94h-7.33l-6.83,24.79c1.3,2.7,3.01,5.26,5.09,7.66l5.69-20.28,3.9,11.18,9.96-11.4-3.98,14.41h7.45l7.07-24.99,4.53,3.17-5.93,21.82h8.25l7.6-26.35h-14.07,0ZM110.66,32.03c-1.19,1.12-1.62,2.39-2.04,3.66l-1.19,4.22c-.17.71-.34,1.42-.34,2.16,0,3.46,3.36,3.46,5.7,3.5h5.82l-1.53,5.3h-13.7l1.66-20.85h-13.02l-10.08,20.85-2.81,5.49h8.39l2.8-6.48h5.06l-.77,6.48h21.7c1.96,0,4.55,0,6.59-1.72.85-.71,1.79-2.09,2.17-3.36l1.15-3.88c.42-1.57.68-2.5.68-3.5,0-3.35-3.23-3.42-6.04-3.46h-5.48l1.4-4.93h10.2s1.47-5.49,1.47-5.49h-11.28c-1.95.04-4.46.07-6.5,2.02h0ZM96.01,45.42h-3.74l5.06-11.11-1.32,11.11h0ZM83.57,35.95s2.2-5.94-4.43-5.94l-13.86-.04-7.32,26.39h12.85s6.46.64,8.46-5.51l4.31-14.9ZM71.38,50.85h-4.07l4.39-15.42,3.86.09-4.19,15.32h0ZM131.69,30.06c-1.06,0-1.95.82-1.95,1.92s.89,1.93,1.95,1.93,1.94-.81,1.94-1.93c0-1.11-.89-1.92-1.94-1.92ZM131.69,33.59c-.88,0-1.56-.68-1.56-1.61s.68-1.61,1.56-1.61,1.55.69,1.55,1.61c0,.93-.68,1.61-1.55,1.61Z"/>
      <path class="cls-2" d="M132.58,31.51c0-.44-.26-.63-.78-.63h-.84v2.22h.33v-.96h.39l.58.96h.37l-.63-.98c.32-.04.57-.21.57-.61h0ZM131.28,31.85v-.69h.46c.23,0,.48.05.48.32,0,.34-.26.36-.54.36h-.4,0Z"/>
      <path class="cls-3" d="M69.65,87.72h-.2c-9.35,0-18.43-1.15-26.97-3.43-8.26-2.2-15.68-5.35-22.06-9.36-6.39-4.02-11.41-8.71-14.92-13.93C1.85,55.58,0,49.81,0,43.86s1.85-11.72,5.5-17.15c3.51-5.22,8.53-9.91,14.92-13.93,6.38-4.01,13.8-7.16,22.06-9.36,8.54-2.27,17.62-3.43,26.97-3.43s18.43,1.15,26.97,3.43c8.26,2.2,15.68,5.35,22.06,9.36,6.39,4.02,11.41,8.71,14.92,13.93,3.65,5.43,5.5,11.2,5.5,17.15s-1.85,11.72-5.5,17.15c-3.51,5.22-8.53,9.91-14.92,13.93-6.38,4.01-13.8,7.16-22.06,9.36-8.49,2.26-17.49,3.41-26.78,3.43h0ZM69.45.89c-18.35,0-35.6,4.49-48.56,12.65C7.99,21.65.89,32.42.89,43.86s7.1,22.21,20,30.33c12.93,8.13,30.11,12.62,48.4,12.65h.16c18.35,0,35.6-4.49,48.56-12.65,12.9-8.12,20-18.89,20-30.33s-7.1-22.21-20-30.33C105.05,5.38,87.8.89,69.45.89Z"/>
      <path class="cls-1" d="M71.94.48c-.18,0-.37,0-.55,0,.16,0,.33,0,.5,0,.02,0,.04,0,.05,0h0Z"/>
      <path class="cls-2" d="M81.44,86.46c4.27-.49,9.23-1.28,14.08-2.4,10.22-2.63,19.22-6.75,26.3-11.94-11.6,7.38-27.87,11.92-46.92,11.92-36.22,0-62.09-16.26-65.4-37.02-1.46-9.11,1.1-17.9,8.16-26.05C29.16,8.06,49.28,1.05,71.89.48c-.16,0-1.33-.02-1.75-.02-5.37,0-10.53.35-15.46.99C23.67,5.71.44,23.07.44,43.86c0,19,19.4,35.13,46.41,41.02,7.02,1.4,14.63,2.17,22.73,2.17l11.86-.59h0Z"/>
    </g>
  </g>
</svg>