<?xml version="1.0" encoding="UTF-8"?>
<svg id="Layer_1" xmlns="http://www.w3.org/2000/svg" version="1.1" viewBox="0 0 350 336.23">
  <!-- Generator: Adobe Illustrator 30.1.0, SVG Export Plug-In . SVG Version: 2.1.1 Build 136)  -->
  <path d="M235.97,12.17c61.74,27.17,95.17,93.38,81.53,158.61-13.14,62.88-68.27,110.78-135.5,112.46l-.46-111.07-51.84-52.01c.75-6.1.21-11.92-4.21-15.11-4.78-3.45-11.37-3.29-15.87.51s-4.15,9.21-2.83,14.69c1.68,6.99,10.29,4.73,15,6.78l50.64,49.3-.21,106.52c-9.85.07-18.4-1.64-28.19-4l-.45-80.4-36.91-39.52c-2.78-5.84.89-16.54-10-17.68-7.27-.76-13.91,3.48-14.78,11.05-1.23,10.68,7.77,11.15,14.67,14.2,14.35,9.13,24.24,24.35,37.87,35.6l-.1,73.87c-66.79-22.65-106.09-89.27-95.01-157.28C50.26,51.56,108.36.26,178.88,0l.29,129.73,51.73,51.98c-.8,6.31,1.07,11.78,5.67,14.42,5.21,2.99,11.7,1.97,15.59-2.33,3.87-4.29,3.42-9.87,1.31-14.73-2.66-6.12-10.52-4.9-15.96-5.15l-49.17-48.16.2-125.24c13.84.93,25.67,3.24,37.66,7.8l.44,94.37c10.8,12.84,24.56,22.04,33.61,35.57,2.98,4.46-.66,12.52,6.63,15.06,4.79,1.67,10.29,2.58,14.85-2.05,4.1-4.17,4.22-9.66,1.61-15.77-2.43-5.67-10.44-3.81-14.99-5.28-12.22-9.07-21.44-21.22-32.74-31.54l.36-86.53Z" fill="#f6f9fd"/>
  <g>
    <path d="M19.72,304.02c-1.1-3.1-3.93-5.07-7.23-5.07-4.05,0-7.11,2.93-7.11,6.76,0,1.97.92,3.88,2.54,5.07,1.39.96,3.12,1.86,6.53,3.21,3.87,1.58,4.97,2.2,6.36,3.55,1.74,1.63,2.6,3.77,2.6,6.36,0,6.98-5.96,12.33-13.71,12.33C6.01,336.23,2.66,335.16,0,333.08c.81-2.42.98-3.32,1.16-5.01h.58c1.56,3.38,5.26,5.69,9.02,5.69,4.68,0,8.15-3.32,8.15-7.94,0-1.97-.69-3.55-2.02-4.79-1.39-1.24-2.26-1.69-6.3-3.32-7-2.82-9.6-5.63-9.6-10.47,0-6.25,4.97-10.47,12.2-10.47,3.35,0,5.9.79,8.67,2.65-.69,1.46-1.27,3.26-1.56,4.62h-.58Z" fill="#f6f9fd"/>
    <path d="M51.06,335.44q-6.71-.17-7.98-.17c-3.35,0-10.35.11-11.91.22.4-3.83.64-12.67.64-22.01,0-7.21-.17-12.89-.4-15.99,1.85.17,1.91.17,10.35.23l4.68-.06c3.18,0,4.11-.06,5.2-.17-.12.79-.17,1.18-.17,1.63,0,.39.06.79.17,1.63-3.18-.34-8.79-.56-12.89-.56-.64,0-1.16,0-1.91.05-.06.39-.12,2.59-.29,6.59q-.17,5.41-.17,6.19c0,.11,0,.62.06,1.13.81.06,1.16.06,2.08.06,4.34,0,9.6-.23,11.8-.51-.17.84-.23,1.3-.23,1.8,0,.56.06.9.23,1.52-2.43-.23-6.82-.39-11.91-.39-.75,0-1.21,0-2.02.05v.96l.06,2.82v4.17c0,1.13,0,2.53.06,4.11.06,1.75.12,2.87.12,3.15v.9c.81.06,1.33.06,2.02.06,4.74,0,10.76-.34,13.3-.73-.12.73-.17,1.13-.17,1.69,0,.62.06.96.17,1.69l-.87-.05Z" fill="#f6f9fd"/>
    <path d="M91.61,304.02c-1.1-3.1-3.93-5.07-7.23-5.07-4.05,0-7.11,2.93-7.11,6.76,0,1.97.92,3.88,2.54,5.07,1.39.96,3.12,1.86,6.53,3.21,3.87,1.58,4.97,2.2,6.36,3.55,1.74,1.63,2.6,3.77,2.6,6.36,0,6.98-5.96,12.33-13.71,12.33-3.7,0-7.05-1.07-9.71-3.15.81-2.42.98-3.32,1.16-5.01h.58c1.56,3.38,5.26,5.69,9.02,5.69,4.68,0,8.15-3.32,8.15-7.94,0-1.97-.69-3.55-2.02-4.79-1.39-1.24-2.26-1.69-6.3-3.32-7-2.82-9.6-5.63-9.6-10.47,0-6.25,4.97-10.47,12.2-10.47,3.35,0,5.9.79,8.67,2.65-.69,1.46-1.27,3.26-1.56,4.62h-.58Z" fill="#f6f9fd"/>
    <path d="M143.94,316.8c0,11.88-8.33,19.43-21.45,19.43s-21.4-7.55-21.4-19.76,8.21-19.71,21.34-19.71,21.51,7.49,21.51,20.04ZM110,304.59c-2.14,2.93-3.18,6.92-3.18,11.88s1.04,8.95,3.18,11.94c2.66,3.83,7.23,6.02,12.49,6.02,9.77,0,15.73-6.76,15.73-17.68,0-5.24-.98-9.06-3.18-12.16-2.66-3.83-7.29-6.02-12.55-6.02s-9.71,2.14-12.49,6.02Z" fill="#f6f9fd"/>
    <path d="M155.05,297.72c1.1,0,1.62-.06,2.54-.23-.46,5.91-.58,10.02-.58,21.17,0,3.66.17,10.64.4,14.25,1.16.06,1.73.06,2.54.06,4.28,0,9.66-.39,12.95-.9-.17.73-.23,1.18-.23,1.86,0,.62.06.96.23,1.58-1.79-.11-8.44-.22-11.04-.22-1.74,0-7.92.11-9.95.22.29-3.32.52-10.7.52-18.92,0-10.3-.06-12.84-.52-19.09,1.16.17,1.85.23,3.12.23Z" fill="#f6f9fd"/>
    <path d="M180.09,297.72c.98,0,1.62-.06,2.83-.23-.46,4.28-.81,12.73-.81,19.88,0,6.14.46,8.78,1.91,11.15,2.14,3.49,5.49,5.12,10.29,5.12,6.13,0,10.58-2.98,11.91-7.83.75-2.93.92-5.86.92-15.48,0-7.09-.06-8.73-.35-12.84,1.56.23,1.79.23,2.26.23.58,0,1.04-.06,1.97-.23-.35,2.03-.81,11.09-.93,16.83-.17,6.7-.23,7.77-.58,9.8-.75,4.28-2.37,7.04-5.49,9.23-2.66,1.86-6.36,2.87-10.58,2.87-5.03,0-9.37-1.35-12.2-3.83-2.83-2.53-3.93-5.57-3.93-11.15,0-.68.06-4.39.17-8.16.06-1.86.06-3.43.06-4.95,0-3.94-.12-8.05-.29-10.64,1.21.17,1.91.23,2.83.23Z" fill="#f6f9fd"/>
    <path d="M227.63,300.36c-8.44.34-8.9.34-11.45.73.17-.68.23-1.07.23-1.69s-.06-1.07-.23-1.92c5.15.28,6.77.34,14.11.34,8.1,0,9.71-.06,15.5-.34-.29.79-.35,1.18-.35,1.8s.06,1.01.23,1.8c-1.91-.39-6.3-.68-11.91-.73-.23,3.49-.35,9.12-.35,14.92,0,9.68.17,17.17.52,20.21-1.39-.17-2.08-.22-2.95-.22-.93,0-1.5.06-2.72.22.35-2.7.58-11.88.58-21.79,0-3.88-.12-8.11-.29-13.34h-.93Z" fill="#f6f9fd"/>
    <path d="M254.12,297.72c1.04,0,1.68-.06,2.83-.23-.35,3.94-.58,10.64-.58,17.17,0,9.57.17,16.55.58,20.83-1.39-.17-2.08-.22-2.89-.22-.87,0-1.5.06-2.78.22.35-4.45.52-11.32.52-21.9,0-6.25-.23-12.61-.52-16.1,1.16.17,1.79.23,2.83.23Z" fill="#f6f9fd"/>
    <path d="M307.78,316.8c0,11.88-8.33,19.43-21.45,19.43s-21.4-7.55-21.4-19.76,8.21-19.71,21.34-19.71,21.51,7.49,21.51,20.04ZM273.84,304.59c-2.14,2.93-3.18,6.92-3.18,11.88s1.04,8.95,3.18,11.94c2.66,3.83,7.23,6.02,12.49,6.02,9.77,0,15.73-6.76,15.73-17.68,0-5.24-.98-9.06-3.18-12.16-2.66-3.83-7.29-6.02-12.55-6.02s-9.71,2.14-12.49,6.02Z" fill="#f6f9fd"/>
    <path d="M317.73,296.76c1.04,1.07,1.68,1.8,5.26,5.63,2.31,2.42,4.22,4.45,5.49,5.74,1.91,1.91,3.82,3.88,5.67,5.8,1.91,1.86,4.11,4.17,5.9,6.19,3.12,3.27,4.51,4.62,6.19,6.19l.06-1.41q.12-7.6.12-10.81c0-7.88-.12-13.29-.4-16.61,1.1.17,1.56.23,2.02.23.58,0,1.04-.06,1.97-.23-.64,5.12-1.04,16.1-1.04,27.59,0,5.46,0,7.99.12,11.15h-.87c-3.87-4.62-13.53-15.03-23.3-24.94-1.62-1.63-3.18-3.21-4.74-4.84l-.69-.68-.06,1.01c-.11,11.54-.11,11.77-.11,13.23,0,5.35.23,11.88.52,15.48-.81-.17-1.33-.22-2.08-.22s-1.16.06-1.97.22c.4-2.76.75-10.02.93-19.54q.17-7.37.17-13.57c0-3.04,0-4.05-.06-5.63h.92Z" fill="#f6f9fd"/>
  </g>
</svg>