<?xml version="1.0" encoding="UTF-8"?>
<svg id="Layer_1" data-name="Layer 1" xmlns="http://www.w3.org/2000/svg" viewBox="0 0 1500.13 735.23">
  <defs>
    <style>
      .cls-1 {
        fill: #f6f9fd;
      }
    </style>
  </defs>
  <path class="cls-1" d="M24.8,288.92l1.35,1.35c-.85.51-2.41,1.11-2.7,1.35l-1.35-1.35c1.09-.91,2.23-1,2.7-1.35Z"/>
  <path class="cls-1" d="M28.85,288.92c-.94.47-1.62.71-2.7,1.35l-1.35-1.35c.75-.56,1.89-.82,2.7-1.35l1.35,1.35Z"/>
  <path class="cls-1" d="M1112.15,117.37c.23-.19,1.9.5,2.47-.25.71-.92-.48-3.59.98-3.89,4.87-1,24.31.71,28.04,4.06,1.17,1.05.93,2.78,1.79,3.95s2.48,1.25,3.13,2.62c2.61,5.53-.3,13.93,2.76,19.18-6.38,53.47-27.66,111.7-37.4,165.89-1.37,7.61-5.11,23.57-2.92,30.43.51,1.61,1.38,2.14,3.05,2.17,7.37.16,18.85-11.34,23.72-16.86,23.76-26.95,29.55-58.86,51.37-85.73-.31,4.59.73,2.11,2.96.88,6.59-3.62,10.95-10.74,17.96-14.41l6.09-8.09c19.51-10.95,33.35-15.02,57.06-11.81,40.77,5.52,34.14,46.83,7.67,67.75-21.34,16.87-47.78,22.62-73.55,29.1-5.95,57.35,52.87,43.63,82.41,18.92,22.65-18.95,51.62-67.08,58.19-95.79,2.29-10.01-1.15-10.61,6.01-20.33.52,1.94-2.23,5.37,2.08,2.76,3.86-2.34,6.55-7.55,10.13-8.78,6.16-2.11,15.4-1.82,21.38.8.65,4.39-.18,8.93.17,13.33.88,10.78,24.52,36.37,31.62,47.4,12.11,18.78,19.29,37.2,10.26,59.31,1.28,1.44,5.74-3.62,6.78-4.69,12.41-12.69,25.04-31.65,33.97-47.08,1.31-2.26,4.71-11.29,5.24-11.65,3.22-2.23,9.12,5.44,9.45,8.84.23,2.35-2.18,1.67-2.67,2.93-20.62,52.78-74.41,105.1-135.83,98.92-21.92-2.2-39.17-20.52-19.6-39.16l.67,2.69,10.14-5.39c7.99,4.96,12.42,12.06,23.78,13.35,23.28,2.65,38.07-11.02,30.32-34.36-6.64-20-21.35-29.21-31.69-45.3-2.34-3.63-2.91-7.46-5.52-10.66-13.97,28.6-25.86,55.41-47.92,79.03-34,36.42-95.03,62.79-135.17,19.94l-10.08-27.43c-3.55.53-10.09,14.09-13.05,18.03-15.61,20.8-40.73,47.08-67.34,25.92-18.3-14.55-8.68-33.48-7.05-51.7.5-5.58-3.77-2.81-5.06-.64-8.04,13.49-16.48,22.64-28.36,33.42-4.62,4.19-18.61,12.68-20.85,16.97-3.19,6.11-5.58,25.14-8.19,33.68-11.65,38.09-26.26,84.7-74.28,85.19-26.48.27-57.8-16.67-47.29-47.38,9.92-28.98,68.78-55.01,94.53-68.93,4.08-29.66,14.84-58.09,19.59-87.75-2.66-.52-3.22,1.23-4.32,3.1-2.65,4.51-4.72,11.52-7.6,16.71-16.15,29.15-67.65,109.65-105.62,65.98-8.37-9.62-11.75-21.12-10.78-33.8.12-1.52,1.71-5.76,1.35-6.06-3.3-2.77-6.26,5.29-8.14,7.39-6.74,7.52-36.38,30.95-38.37,34.56-3.69,6.68-5.75,23.98-8.18,32.34-12.63,43.4-28.52,91.4-83.73,86.42-20.4-1.84-47.13-18.37-39.73-42.14,8.44-27.14,40.57-43.86,64.29-57.53,9.84-5.67,20.56-10.06,30.23-16.02l21.5-88.24c-1.52.16-3.03-.79-4.17.79-1.99,2.76-6.06,14.78-8.63,19.49-16.03,29.4-67.25,108.59-105.42,66.19-8.61-9.57-11.41-22.59-10.11-35.16-5.54-1.11-3.29,1.8-5.37,4.71-15.29,21.34-40.77,57.55-71.2,38.78-24.36-15.02-10.09-40.81-7.18-62.39-2.48-2.85-10.36,14.21-11.59,16.08-14.86,22.48-45.88,62.72-77.14,50.37-10.74-4.24-20.67-19.42-20.67-30.66v-23.64c-5.19.26-6.03,7.08-8.06,10.18-9.52,14.47-30.11,43.98-48.11,46.43-15.89,2.17-35.23-7.47-39.8-23.45-6.61-23.13,16.25-70.55,18.81-96.13.37-3.66,1.77-16.79-2.94-16.52-2.43.14-15.46,7.75-18.04,9.72-10.31,7.87-34.28,38.06-40.76,49.07-6,10.2-22.66,43.58-24.44,53.91-.73,4.21-.66,21.5-2.06,23.6-2.98,4.46-25.2-4.01-29.57-7.05-12.15-8.46-8.97-19.67-7.49-32.7,3.58-31.5,13.03-72.53,20.49-103.78.91-3.81,4.86-19.31,7.7-20.73,1.88-.94,20.34,3.61,23.49,4.96,4.75,2.03,11.91,7.38,12.91,12.74,3.21,17.11-17.87,55.16-22.29,73.56-.63,2.6-1.13,3.59,1.44,5.39l11.47-24.68c17.9-29.31,52.45-77.69,92.4-72.44,6.86.9,19.19,8.3,21.66,14.81,5.48,14.42.41,30.64-3.1,45.39-4.49,18.84-11.3,39.07-16.3,56.89-3,10.71-4.44,22.58,9.81,14.95,14.59-7.82,43.72-52.16,49.42-68.08,4.02-11.22,5.6-25.41,8.85-37.07,2.6-9.3,6.67-18.24,8.71-27.76,15.63-3.15,33.84,1.39,36.08,19.2-5.26,31.22-24.43,70.94-23.87,102.38.34,18.97,9.96,14.98,22.07,7.24,22.25-14.21,48.36-48.43,60.63-71.75.95-1.8,1.57-7.11,2.44-7.69.46-.31,2.46.33,2.7.01.5-.66.63-14.83-1.35-16.22.2-1.72-.79-4.44,1.35-5.4.02,1.47-.9,4.42,1.33,4.04,3.51-5.51.63-9.09,3.01-15.24.57-1.48,6.68-11.66,7.36-11.82,2.87-.7,14.92-.17,18.36.39,7.67,1.24,10.3,8.07,17.22,10.48.22,15.65-13,33.92-17.18,48.33-3.91,13.47-10.26,44.05-11.15,57.72-.67,10.14-.36,14.49,10.37,9.03,13.83-7.04,31.91-34.58,39.81-47.98,8.43-14.3,12.51-30.74,21.36-44.83,14.81-23.57,35.98-39.66,64.86-39.83-.3.04-5.92,1.47-5.4,2.69l17.55-1.34c4.19.41,9.4.32,13.51,1.35-.63,5.37.19,3.2,3.17,4.2,3.53,1.18,17.97,7.94,19.79,6.6.07-.89-.04-1.8,0-2.7.02-.45-.02-.9,0-1.35,15.22-8.4,37.52,1.2,40.52,18.91-4.1,31.22-18.4,62.05-25.58,92.62-.37,1.56-.93,5.8,1.92,4.63,12.19-12.17,24.9-23.96,34.76-38.19,12.51-18.05,15.73-38.1,28.83-56.26,24.21-33.54,66.2-46.28,103.64-25.75,1.05.57.84,2.76,1.6,2.69,4.79-.39,4.06-7.77,5.58-8.19,2.44-.68,13.82-.03,17.06.44,8.66,1.24,25.19,8.67,23.93,19.08-5.08,31.52-22.28,67.03-26.61,97.75-.27,1.94-1.7,4.95,1.67,4.37,20.62-19.14,39.43-40.25,51.62-65.9,5.78-17.57,25.48-146.62,31.47-151.56ZM1209.41,288.91c20.11-3.77,51.47-21.47,54.02-43.89,1.4-12.26.24-27.35-16.26-23-17.53,4.62-35.52,49.89-37.77,66.89ZM987.88,278.11c2.52-4.09,16.78-29.25,16.1-31.54-17.68-12.67-43.67-22-59.89-2.12-13.53,16.58-24.08,51.07-25.09,72.16-.29,5.97-.12,18.4,3.95,23.03,7.67,8.74,26.83-13.24,32.51-18.32-.75,6.15,4.1-1.24,6.75-3.38-.68-1.8-2.96-.11-4.05.68,1.22-1.06,2.21-2.53,4.05-4.05,11.2-9.24,16.14-13.12,23.69-26.96,1.05-1.92,4.33-7.59,1.97-9.51ZM768.69,236.55c-19.87,4.04-34.64,50.5-37.29,68.06-2.86,18.91-6.62,53.34,21.33,32.14,25.84-19.6,44.31-56.5,60.67-83.96,1.91-4.99-7.48-9.06-11.55-10.85-9.47-4.17-22.9-7.47-33.16-5.39ZM979.77,386.18c-2.02-.47-3.17.46-4.81,1.25-15.53,7.52-55.66,36.03-61.66,51.79-4.12,10.82.48,23.62,13.17,23.99,33.31.99,47.54-51.73,53.3-77.04ZM787.97,399.68c.61-2.79.71-6.5,1.34-9.45-1.49-.09-2.98-.1-4.44.27-2.2.54-26.62,16.96-30.31,19.67-10.89,7.98-27.34,21.35-32.66,33.8-8.18,19.17,16.69,26.66,32.3,17.85l5.52.46c2.98-6.24,11.11-10.95,14.7-16.32,7.74-11.57,10.28-26.46,13.96-39.79.54-1.97,2.17-5.15-.42-6.48Z"/>
  <path class="cls-1" d="M278.74,30.92c-1.85,6.69,6.77,6.63,5.4,13.5-10.79-2.46-23.13,6.56-31.82,8.03-10.21,1.72-27.87-4.57-30.31,10.89-.41-.12-.93.11-1.35,0-5.05-1.31-9.04-7.24-13.91-9.73-25.38-12.97-66.97-11.3-85.09,12.8-38.25,50.83,9.74,83.77,43.64,115.11,5.12,4.74,9.63,10.24,14.82,14.89,17.28,15.49,35.78,30.47,53.35,45.25,4.18,0,15.26-12.88,18.96-16.27,1.27-1.16,3.25-1.16,3.35-1.31,33.3,30.18,25.57,81.84-2.67,112.82-42,46.09-124.55,55.6-182.69,43.49-29.98-6.25-62.46-21.01-51.7-57.7,4.03-13.76,12.72-21.33,25.37-25.73.66-.23,1.91-5.05,7.37.41,5.18,5.18,9.06,14.14,16.54,20.6,28.02,24.2,75.67,27.66,110.56,20.03,27.51-6.02,58.18-23.29,45.81-56.19-19.49-51.84-131.53-62.39-153.56-135.5C39.72,43.07,180.58-4.76,259.54,21.09c7.57,2.48,12.87,6.92,19.2,9.84Z"/>
  <path class="cls-1" d="M1318.81,240.29c1.12.26,3.11,2.6,5.26,1.19.85-.55,6.85-16.31,7.6-18.73.98-3.18.32-6.48,1.26-9.55,6.95-22.71,20.4-37.21,46-36.49,6.31.18,18.1,3.36,21.87,8.59,1.04,1.44.76,3.79,1.74,5.41.56.93,2.28,1.07,2.73,1.88,3.46,6.25-.46,16.85,2.39,24.35,3.41,8.96,19.55,25.37,25.71,35.07,4.31,6.79,8.47,14.4,11.08,22.03,1.9.44,2.22-.29,3.39-1.31,5.52-4.78,14.76-29.19,17.16-30.21,6.01-2.56,19.69-1.1,25.29,2.55,24.01,15.64-1.92,54.25-14.24,70.73-34.19,45.75-108.18,89.05-162.94,54.15l-11.17-17.55c-32.18,30.6-93.87,46.35-131.01,16.16-3.69-1.24-11.58-15.17-13.5-14.89-2.9.43-13.03,13.62-16.91,16.96-25.62,22.15-63.62,23.27-82.25-8.28-1.4-2.38-1.36-9.39-4.87-8.61-3.37,5.97-16.19,11.43-18.84,16.29-3.91,7.18-7.7,31.57-10.9,41.78-12.72,40.65-32.11,79.71-79.86,83.58-26.67,2.16-61.25-8.39-69.79-36.57-9.19-30.31,12.26-50.54,32.82-68.6-10.05-1.33-21.91-7.02-29.24-14-4.84-4.61-7.63-10.96-11.49-16.2s-6.24,1.79-9.92,4.52c-2.42,1.79-5.17,2.63-7.48,4.68-7.54,6.73-8.3,23.5-11.15,33.42-8.43,29.35-21.53,70.09-51.38,86.39-56.12,30.63-138.71-16.53-90.02-76.51,4.63-5.7,14.32-11.82,17.56-16.21.87-1.18,1.81-1.44,1.31-3.4-15.94-3.23-27.78-12.77-37.16-25.67h-1.98c-20.86,34.12-75.13,39.15-91.9-1.36-3.63-1.04-2.59,2.35-4.59,4.11-11.57,10.16-25.73,21.57-41.01,25.23-24.3,5.82-45.08-6.56-56.37-27.99-3.81-.96-8.2,9.26-9.75,10.86-21.31,21.96-51.27,25.3-75.3,5.32-32.94-27.39-7.93-67.42-3.41-101.27-2.6-.57-3.23,1.33-4.59,2.82-13.19,14.5-37.14,54.91-41.01,73.8-2.16,10.55-1.17,24.36-3.05,34.77-1.2,6.67-12.65,5.13-18.26,4.82-22.23-1.25-51.39-13.15-53.34-38.5-.6-7.75,1.2-14.75,1.38-22.34-21.41,25.45-50.71,43.82-82.7,53.04-5.59,1.61-34.34,8.4-37.95,7.55-.95-.22-2.26-1.39-2.26-2.49,51.15-7.43,102.81-28.63,129-75.65-.43,14.41-5.31,28.76-3.26,43.77,2.33,17.1,26.89,28.97,42.44,30.5,3.49.34,18.9.72,20.31-1.28,2.39-3.42,3.07-31.1,5.34-39.23,5.96-21.37,23.27-49.47,37.18-66.82,2.58-3.22,14.32-17.16,16.87-18.26,4.79-2.07-.89,7.32-1.09,8.11-4.05,16.54-16.47,59.01-15.74,73.41,1.17,23.3,26.86,42.54,49.21,42.83,23.81.31,34.89-18.15,51.34-31.18,18.41,41.57,59.21,35.67,89.2,9.51,3.28-2.87,6.25-7.78,8.65-9.95,1.3-1.18,1.61-1.11,3.47-.93,16.48,37.42,52.07,39.04,81.09,13.57,3.72-3.26,7.1-8.67,10-11.3,1.28-1.16,1.58-1.13,3.42-.94,8.89,17.18,26.86,29.17,46.65,28.42l-25.69,23.6c-38.45,45.02,5.22,86.23,54.57,81.58,61.66-5.81,74.28-75.77,87.22-124.5,7.68-4.02,13.87-13.05,20.36-17.62,1.03-.72,1.37-1.57,3.23-.78,1.51.64,8.44,14.67,11.61,18.12,9.91,10.77,24.47,17.06,39.16,16.91-18.85,16.57-42.95,32.97-40.57,61.51,2.96,35.45,46.65,47.33,76.03,42.14,45.68-8.07,60.79-55.32,72.22-93.92,2.13-7.2,4.34-23.69,7.16-28.97.77-1.45,23.47-20.79,25.06-21.23,2.69-.75,1.59.56,2.06,1.8,18.94,49.36,60.08,40.95,91.07,7.6,1.55-1.67,6.24-9.35,6.8-9.52,4.35-1.34,3.2,2.57,4.83,4.57,19.57,23.86,39.09,31.73,70.58,29.08,28.2-2.37,51.24-17.14,73.1-33.62,3.05-.37,1.62.47,2,2.06,9.5,39.57,61.42,32.12,90.82,21.89,29-10.09,53.26-29.89,71.87-53.75,7.84-10.05,25.92-36.12,27.71-47.92,2.6-17.13-14.25-28.72-29.56-22.8l-20.57,35.43c-5.28,1.73-3.14-1.41-4.87-4.68-5.74-10.8-12.75-23.09-19.44-33.29-4.17-6.36-21.31-25.6-21.44-31.24-.18-8.09,4.34-12.03-1.51-21.44-9.73-15.64-38.62-10.77-50.48.39-11.18,10.51-9.04,17.72-13.16,30.06-1.14,3.41-7.07,19.7-8.43,21.37s-12.23,2.71-12.79-2.75c1.27.18,2.92-.27,4.05,0Z"/>
  <path class="cls-1" d="M1164.83,140.33c.97-14.9-.52-29.41-14.43-37.58-10.17-5.96-14.02-2.36-22.47-4.32-1.09-.25-.36-2.45-2.86-2.78-4.26-.56-18.43-.64-21.11,2.05l-31.68,141.22c-5.99-.92-4.02-6.98-5.31-10.87-7.01-21.17-31.99-29.62-52.74-28.26-4.93.32-11.44,2.97-16.07,2.63-3.85-.28-10.28-3.11-15.22-3.8-34.87-4.87-62.53,5.3-85.52,31.57-7.07,8.07-8.13,18.55-21.65,15.49,8.66-28.49-24.74-43.35-47.96-43.34-6.12,0-13.28,3.09-18.87,2.9-4.14-.14-10.35-3.08-15.27-3.75-25.28-3.45-47.94.5-69.1,15.26-34.22,23.86-37.9,65.14-62.2,95.84-2.03,2.57-7.19,3.42-6.8,8.75-5.69-3.57,1.3-14.05.02-20.26,5.2-1.45,1.56,6.82,2.7,8.1,2.08.5,2.17-.31,3.28-1.43,12.59-12.61,21.06-42.82,30.25-58.9,20.38-35.67,52.34-54.73,94.17-51.83,7.57.52,15.03,3.77,21.6,4.14,8.52.48,18.69-2.2,28.37-1.43,16.22,1.3,37.85,10.41,43.5,26.74,3.12,3-.71,15.95,2.4,16.53,2.79.51,10.91-13.3,13.47-16.22,22.77-25.95,50.61-35.45,85.09-32.38,6.09.54,13.64,3.96,18.99,4.08s13.84-2.28,19.97-2.24c21.06.13,46.9,10.46,51.55,33.25l28.96-135.83c21.66-1.95,60.18-3.32,67.31,23.37,1.18,4.42,4.63,23.14-2.37,23.31Z"/>
  <path class="cls-1" d="M1314.76,232.18c-5.21-45.48-62.51-44.98-95.47-31.31-53.07,22-54.93,68.88-86.91,107.96-2.83,3.45-1.2,8.47-6.71,7.09l39.84-174.25c1.17,14.15-4.27,27.94-7.08,41.56-7.59,36.8-15.17,77.97-24.76,114.13-.21.8-4.79,2.79-2.6,7.76,3.5.81,2.36-1.03,3.48-2.55,24.37-33,25.24-67.13,62.81-93.91,35.22-25.11,115.47-33.8,121.46,23.53h-4.05Z"/>
  <path class="cls-1" d="M49.12,278.11c1.98-.47,4.7-4.18,8.09-2.08,6.86,10.41,11.38,20.7,20.92,29.13,25.87,22.89,61.58,23.93,94.19,18.48,8.15-1.36,16.11-4.13,24.02-6.35.88,3.42-2.34,3.29-4.65,4.07-3.06,1.03-16.22,3.55-16.95,4.03-2.87-.32-3.02-.17-2.7,2.7-1.2.13-2.83.1-4.05,0s-4.72-4.14-4.05,1.35c-3.07-.07-6.02,0-8.78,0h-35.12c-18.51,0-45.72-20.75-56.61-35.24-4.32-5.75-5.95-15.93-14.3-14.74v-1.35Z"/>
  <path class="cls-1" d="M23.45,291.62c-4.3,3.58-13.77,19.67-15.88,25.31-5.82,15.51-4.42,35.21,6.47,48.27l20.22,16.91c-11.88-1.58-26.74-16.89-30.88-27.86-8.77-23.24.35-48.6,18.73-63.98l1.35,1.35Z"/>
  <path class="cls-1" d="M185.54,1.21v2.7c-36.98,3.92-68.83,17.84-97.94,40.51-2.05-1.57.02-3.99,1.33-5.42C109.03,17.09,156.86,3.85,185.54,1.21Z"/>
  <path class="cls-1" d="M150.41,395.63c1.28,3.59-6.81,3.87-8.79,4.03-29.22,2.37-63.79-.86-91.69-9.58-3.45-1.08-9.5-3.51-11.62-6.6,9.22,1.74,17.82,5.26,27,7.43,28.16,6.69,56.37,8,85.11,4.72Z"/>
  <path class="cls-1" d="M665.05,230.83c-6.92-2.41-9.55-9.24-17.22-10.48-3.44-.56-15.49-1.08-18.36-.39-.68.16-6.79,10.34-7.36,11.82-2.38,6.15.5,9.73-3.01,15.24-2.23.37-1.31-2.58-1.33-4.04-.09-5.46,4.02-26.46,9-28.15,5.66-1.93,23.33,1.51,29.14,4.2,5.84,2.7,9.05,5.13,9.14,11.79Z"/>
  <path class="cls-1" d="M1151.32,143.04c-3.06-5.26-.15-13.66-2.76-19.18-.65-1.37-2.31-1.49-3.13-2.62s-.62-2.9-1.79-3.95c-3.73-3.35-23.16-5.06-28.04-4.06-1.46.3-.27,2.97-.98,3.89-.58.75-2.24.06-2.47.25,0-.9,0-1.8,0-2.7l1.35-5.4c3.14-2.97,18.49-.93,23.27.36,17.81,4.82,16.34,18.37,14.55,33.4Z"/>
  <path class="cls-1" d="M862.26,241.64c-3-17.71-25.3-27.31-40.52-18.91.13-2.51-.85-7.11,2.19-8.01.76-.22,13.94,1.23,15.72,1.57,9.78,1.88,23.39,8.1,24.03,19.37.2,3.55-1.25,4.65-1.42,5.98Z"/>
  <path class="cls-1" d="M1353.93,205.17c.17-.23-.33-1.42.94-2.74,13-13.46,45.24-15.5,32.82,10.84-.36-4.4.48-8.94-.17-13.33-5.98-2.62-15.22-2.91-21.38-.8-3.58,1.23-6.27,6.44-10.13,8.78-4.31,2.62-1.56-.82-2.08-2.76Z"/>
  <path class="cls-1" d="M1216.15,217.33l-6.09,8.09c-7.01,3.67-11.37,10.79-17.96,14.41-2.23,1.23-3.27,3.7-2.96-.88,10.53-12.96,12.86-13.67,27.01-21.61Z"/>
  <path class="cls-1" d="M49.12,278.11v1.35c.95,4.04-2.34,2.21-5.36,3.37-4.51,1.73-10.76,3.99-14.9,6.08l-1.35-1.35c.54-.35,1.2-2.41,2.72-3.3,7.76-4.5,10.86-4.25,18.89-6.16Z"/>
  <path class="cls-1" d="M821.74,224.08c-.04.9.06,1.8,0,2.7-1.81,1.34-16.26-5.42-19.79-6.6-2.98-1-3.8,1.17-3.17-4.2,7.66,1.92,15.02,6.99,22.96,8.1Z"/>
  <path class="cls-1" d="M1337.72,325.39l-10.14,5.39-.67-2.69c1.04-.99,5.71-5.09,6.35-5.27,3.41-.94,3.6,2.03,4.46,2.56Z"/>
  <path class="cls-1" d="M616.43,248.39c1.98,1.39,1.85,15.55,1.35,16.22-.24.32-2.24-.32-2.7-.01.24-3.55-.35-7.27,0-10.81l1.35-1.35c.14-1.32-.15-2.73,0-4.05Z"/>
  <path class="cls-1" d="M785.27,214.62l-17.55,1.34c-.53-1.21,5.1-2.65,5.4-2.69,2.56-.3,6.22-.2,8.87-.05,1.79.1,3,1.38,3.28,1.4Z"/>
  <path class="cls-1" d="M1318.81,232.18c.27,2.63-.19,5.45,0,8.1-1.13-.27-2.78.18-4.05,0-.27-2.62.3-5.5,0-8.1h4.05Z"/>
  <path class="cls-1" d="M82.88,48.48l-1.35-1.35c3.38-4.8,8.69-1.77,1.35,1.35Z"/>
  <path class="cls-1" d="M462.44,317.28c-.74,1.05-.31,4.58-3.36,4.07-2.08-.84.55-3.29.66-4.07h2.7Z"/>
  <path class="cls-1" d="M167.98,328.09c-.66,1.69-2.56,1.38-4.05,1.35-.67-5.49,2.85-1.45,4.05-1.35Z"/>
  <path class="cls-1" d="M74.78,57.94c-1.14,2.02-2.02,2.93-2.7,4.05.02-.9-.03-1.8,0-2.7.02-.47-.11-1.05,0-1.35h2.7Z"/>
  <path class="cls-1" d="M74.78,57.94h-2.7c.92-2.45,3.16-2.36,4.74-4.02,1.09,1.39-1.46,2.99-2.04,4.02Z"/>
  <path class="cls-1" d="M174.73,325.39c-.88.57,2.36,2.15-2.7,2.7-.32-2.87-.17-3.02,2.7-2.7Z"/>
  <path class="cls-1" d="M1112.15,114.67c-.02-2.3-.6-3.56,1.35-5.4l-1.35,5.4Z"/>
  <path class="cls-1" d="M462.44,311.88c.32,2.87.17,3.02-2.7,2.7,1.14-5.2,1.96-1.66,2.7-2.7Z"/>
  <path class="cls-1" d="M82.88,48.48c-.32.14-.2,2.09-2.69,1.34-.73-2.56,1.02-2.23,1.34-2.69l1.35,1.35Z"/>
  <path class="cls-1" d="M36.28,382.12c.88.45.88.9,0,1.35v-1.35Z"/>
  <path class="cls-1" d="M615.08,253.8c.1-1.01,1.34-1.26,1.35-1.35l-1.35,1.35Z"/>
  <path class="cls-1" d="M72.08,61.99c-42.76,70.7-6.44,123.58,54.96,161.83,21.42,13.35,81.73,39.42,86.54,64.74,2.18,11.47-1.99,23.77-13.87,27.34-.8-3.21,3.83-4.91,4.77-6.38,1.94-3.05,2.73-6.82,4.14-10.1.45-1.04,2.52-1.07,2.62-1.94.22-1.86-2.14-10.74-3.08-12.95-9.81-23.08-81.14-54.45-104.9-72.04-42.74-31.66-65.52-76.54-46.07-129.59,2.81-7.65,7.26-20.63,14.89-23.61-.03.9.02,1.8,0,2.7Z"/>
  <path class="cls-1" d="M787.97,399.68c2.58,1.33.96,4.51.42,6.48-3.68,13.34-6.22,28.22-13.96,39.79-3.6,5.38-11.72,10.08-14.7,16.32l-5.52-.46c16.86-9.52,29.77-43.96,33.77-62.13Z"/>
  <path class="cls-1" d="M962.22,314.58c7.85-12.53,17.92-23.89,25.66-36.47,2.35,1.92-.93,7.59-1.97,9.51-7.55,13.84-12.49,17.72-23.69,26.96Z"/>
  <path class="cls-1" d="M958.16,318.63c1.09-.79,3.37-2.48,4.05-.68-2.65,2.14-7.49,9.54-6.75,3.38.95-.85,1.75-1.88,2.7-2.7Z"/>
  <path class="cls-1" d="M185.54,1.21c38.78-3.57,98.08-1.12,123.51,33.85,3.49,4.8,6.58,15.48,9.6,18.77,1.79,1.95,9.04,5.93,12.05,8.21,4.19,3.17,5.09,8.18,11.58,6.15,3.2-1,4.5-5.02,8.04-4.84l-1.34,10.79,6.74-2.69c.11,2.29.14,4.61-.58,6.83-1.38,4.2-5.4,2.59-4.8,6.66l9.44.67c-.29,3.46-9.29,9.01-9.47,9.74-1.31,5.37.66,15.52-.33,22.33-3.07,21.19-31.02,44.43-46.21,59.15-4.54,4.4-35.07,30.97-35.69,33.33-.92,3.55,5.09,7.13,7.17,9.97,3.29,4.49,6.79,10,9.4,14.91,1.57,2.94,5.66,15.43,6.26,16.04.73.74,3.51.28,2.72-1.96l10.19-46.82c23.87-2.84,58.02,1.24,67.44,27.19,12.08-9.78,24.31-22.21,39.84-26.35,20.89-5.58,45.05-3.97,59.46,13.85,12.78,15.8,9.66,30.49,6.09,49-2.33,12.08-8.19,24.52-8.16,36.42,5-8.35,13.24-19.07,16.61-27.96,4.96-13.07,6.48-32.42,10.36-46.37,2.02-7.29,6.16-22.97,12.84-26.33,20.11-10.1,52.44.32,60.12,22.35,3.21,9.23,2.14,13.74.04,22.95-5.79,25.41-18.96,50.81-19.6,77.65,2.73,2.83,2.7-1.34,4.13-2.56,12.65-10.86,44.04-46.34,45.85-62.27,1.42-12.39.9-23.37,4.44-36.08,2.36-8.49,8.1-24.24,17.81-25.4,9.76-1.17,32.02,2.23,41.21,6.12,6.04,2.55,17.18,11.37,18.64,17.83,5.6,24.73-19.72,52.5-19.98,77.39h-4.04c-3.21-22.12,27.34-56,20.32-76.38-2.54-7.38-11.54-13.85-18.61-16.52-8.12-3.07-30.82-6.48-38.61-4.1-3.82,1.17-10.03,15.62-11.35,19.72-4.18,13.01-3.68,25.73-6.13,38.44-3.04,15.73-30.65,49.84-42.86,61.14l-16.22,11.46c-.7-9.77,2.31-19.2,4.44-28.64,4.35-19.34,15.65-45.37,18.2-62.85,4.18-28.66-21.86-42.87-47.51-39.4-14.15,1.91-16.53,19.4-20.06,31.27-6.21,20.9-7.46,38.19-18.31,57.33-4.97,8.76-11.94,17.77-17.8,26.1h-2.7c.13-.86-.17-1.91,0-2.7,2.87.32,3.02.17,2.7-2.7,1.91-2.67,13.05-57.97,13.48-64.18,2.09-29.68-22.9-46.19-50.61-43.86-14.98,1.26-27.95,9.74-39.73,18.35-2.92,2.14-15.56,14.76-17.69,12.7-3.46-27.88-38.08-32-60.73-29.66l-15.59,63.4c-4.62-2.99-1.51-7.23-2.33-12.48-1.14-7.3-17.43-39.79-23.57-41.41-1.58-.42-10.45,6.07-10.99,6.87-.36.54,1.19,2.33,1.1,2.46-.1.15-2.08.15-3.35,1.31-3.71,3.39-14.78,16.26-18.96,16.27-17.57-14.78-36.07-29.75-53.35-45.25-5.19-4.65-9.7-10.16-14.82-14.89-33.9-31.34-81.89-64.28-43.64-115.11,18.13-24.09,59.71-25.76,85.09-12.8,4.86,2.49,8.86,8.42,13.91,9.73-1.71,6.24,11.8,13.06,13.5,7.41,1.84-6.09-9.01-6.48-12.15-7.41,2.43-15.46,20.09-9.17,30.31-10.89,8.7-1.46,21.03-10.49,31.82-8.03,1.37-6.87-7.25-6.81-5.4-13.5,6.71,3.1,12.22,2.85,19.23,4.41,3.66.81,12.2,5.44,3.61-3.61C275.11,3.86,221.33.11,185.54,3.91V1.21ZM310.15,54.9c-1.01-1.27-1.08-5.26-2.47-7.67-3.62-6.3-11-9.5-18.13-8.19,5.96,17.66-10.42,10.27-20.82,12.27-1.37.26-12.75,3.78-13.44,4.16-1.81,1.01-2.06,3.77-3.02,3.87-4.14.42-9.97-4.74-18.18-2.13-10.31,3.27,1.55,6.38,3.56,8.71,6.26,7.24-2.6,7.77-4.19,10.92-1.94,3.82,2.61,24.34,4.5,29.31,3.72,9.83,14.44,21.48,22.29,28.34,1.77,1.55,5.23,1.39,6.11,4.04.94,2.84-.39,17.65-1.17,21.12-.25,1.14-2.19,1.09-2.63,1.94-5.93,11.32-6.37,16.28-20.24,20.01-10.98,2.95-27.18,3.11-36.87-3.42-2.53-1.7-17.12-19.98-19.71-11.25-.5,1.69.32,4.83-.42,5.64-.49.54-2.83.12-3.81.88-1.58,1.22-.97,3.81-1.65,4.44-1.05.98-5.33-.57-6.4,2.44-2.27,6.38,11.52,13.4,15.42,16.78,14.73,12.74,28.63,26.43,43.53,39,2.49.65,7.72-4.16,9.88-5.92,8.66-7.09,16.74-18.38,24.97-26.31,14.28-13.76,29.29-27.18,43.23-40.57,16.18-15.54,35.58-28.11,36.63-53.59.19-4.64-2.24-11.12-.65-15.83,1.04-3.1,9.82-1.87-1.54-6.93l2.7-6.03c-1.7-1-8.75-.61-9.44-1.37-2.53-2.81,5.63-3.39,4.04-6.73-9.15,2.1-11.65-5.44-17.67-10.02-2.94-2.24-13.87-7.22-14.4-7.88ZM118,111.97c-.28-1.75-.43-13,0-13.5.48-.55,2.8,1.11,3.7,1.08,6.23-.23-.99-11.57.96-15.89.59-1.3,3.03-2.49,4.02-4.2,1.15-1.97,1.13-4.51,2.5-6.28,3.5-4.52,12.69-4.43,10.42-11.19,11,3.68,4.59-2.33,8.03-4.84,1.78-1.29,4.12.72,5.9.35,3.52-.73,8.14-4.79,8.63-4.91,2.06-.48,9.71-.46,11.85-.03,3.91.77,4.24,1.86,10.67,2.84,9.83,1.49,14.8,5.66,23.79,7.95,2.45-2.31-11.86-8.58-13.22-9.05-22.85-7.82-50.28-5.18-66.9,13.28-10.58,11.76-17.59,28.56-14.42,44.41,3,15.01,10.66,25.06,21.61,35.12.91.84.58,4.41,6.16,5.33,14.91,2.46,19.2-11.11,16.78-23.54-.47-2.42-6.38-10.45-6.75-6.77,3.88,7.28-2.17,21.47-10.79,19.57-.62-.14-10.04-6.62-10.44-7.11-1.32-1.62-.95-4.01-1.83-5.31-2.97-4.39-9.9-12.3-10.7-17.3ZM166.62,66.04c-9.2-2.5-18.55,20.96-16.19,22.96,4.89,4.13,7.5-13.29,9.68-14.62,3.52-2.14,10.06,3.14,6.51-8.34ZM227.37,119.99c-14.03-1.21-41.23,30.78-34.39,41.95.38.61,9.5,8.44,10.83,9.43,14.61,10.92,40.2,12.24,51.97-3.36,8.95-11.87-.83-11.08-4.03-20.33-2.05-5.94,1.68-11.52-.73-16.78-1.01-2.21-7.94-7.71-10.41-11.19-6.91-9.75-10.44-22.42-11.89-34.16-.69-5.59,4.12-10.48-6.64-9.99-4.87,15.38,2.51,29.64,5.29,44.44ZM166.64,113.33c9.04.72,15.76,6.75,25.06,5.46,2.65-.37,17.95-4.65,19.87-5.77,5.74-3.34,3.47-8.9,1.25-14.14-9.11-21.55-54.62-24.01-59.37.58-2.22,11.52,6.47,16.72,11.08,26.11.44.89,3.2,7.29,3.34,7.72,2.8,8.6,1.71,16.49-1.98,24.55-1.02,3.26-11.91,5.93-11.46,8.84.39,2.51,7.87,10.05,10.14,10.11,13.99.37,19.01-33.95,12.94-43.95l-10.88-19.5ZM262.53,144.38c1.6-1.64-1.39-9.31-6.05-8.1-5.96,1.55,3.71,10.5,6.05,8.1Z"/>
  <path class="cls-1" d="M220.66,63.34c.42.11.94-.12,1.35,0,3.13.94,13.98,1.32,12.15,7.41-1.7,5.65-15.21-1.18-13.5-7.41Z"/>
  <path class="cls-1" d="M262.53,144.38c-2.34,2.4-12.01-6.54-6.05-8.1,4.66-1.21,7.65,6.45,6.05,8.1Z"/>
  <path class="cls-1" d="M300.35,98.46c-1.39,7.66-6.01,12,6.43,13.19,4.14.4,6.58-3.84,5.73,3.01-2.64,1.3-14.26-1.81-14.81-1.31-.25.23-.17,3.55-2.67,6.13-2.05,2.12-5.16,3.6-8.18,3.28-1.93-6.34,5.3-3.16,7.44-6.72,4.34-7.22-2.63-9.49-7.45-12.18v-1.35c3.97-.18,7.43-3.01,10.81-4.05.7-.22,1.86.14,2.7,0Z"/>
  <path class="cls-1" d="M286.85,102.51v1.35c-.5-.28-2.43.31-3.98-.69-5.49-3.56-7.79-16.78-19.52-9.97-.51.29-8.85,10.48-7.59,3.22,1.01-5.84,7.98-6.38,9.19-7.79s-1.81-5.03,4.97-3.65c4.05.83,14.86,13.11,16.93,17.53Z"/>
  <path class="cls-1" d="M297.65,98.46c.86-7.2-1.21-16.82.01-23.63.34-1.92,1.1-3.58,3.35-3.39,1.52.39,1.86,3.89,2.07,4.05.66.47,12.81-8.32,12.12,2.7-17.38-3.23-12.11,6.2-13.44,17-.22,1.82-1.33,2.85-1.41,3.26-.84.14-2-.22-2.7,0Z"/>
  <path class="cls-1" d="M271.99,114.67c-3.09-.11-22.92-4.34-24.76-5.38-1.42-.8-1.24-3.71-.89-4.07,1.79-1.85,24.2,6.82,28.78,5.4,1.49.29.8,2.6.93,2.69-.65,1.68-2.57,1.4-4.05,1.35Z"/>
  <path class="cls-1" d="M323.32,95.76c-.29,3.79-2.75,6.35-5.39,8.8-.88,3.05,2.31,1.64,2.69,2.01.24.23-.16,1.95,0,2.7-.78.1-3.25,2.65-5.28,1.22-.52-.37-.72-3.96-2.14-5.31-2.65-2.53-6.64.64-3.79-5.05.84-1.67.98-2.11,3.09-1.66.43.09.91-.07,1.35,0v4.04s1.34,0,1.34,0c.16-2.84,4.35-5.33,6.77-6.74.33-.19.99.19,1.35,0Z"/>
  <path class="cls-1" d="M282.78,122.78c3.47,3.88-11.47,8.91-13.89,9.74-2.59.88-2.91,1.88-5-.99.45-4.85,18.17-9.56,18.89-8.76Z"/>
  <path class="cls-1" d="M312.51,98.46c-.39-2.73,6.42-19.88,7.43-20.28.65-.26,3.26-.43,3.39.7.66,5.72-6.03,14.94-9.47,19.57-.44-.07-.92.09-1.35,0Z"/>
  <path class="cls-1" d="M320.61,106.57c1.92-1.66,17.64-6.44,17.57-3.36-.11,5.04-13.98,5.6-17.57,6.06-.16-.75.24-2.47,0-2.7Z"/>
  <path class="cls-1" d="M276.04,113.32c.44.32,3.59-.33,4.85,1.28.69.89-.68,6.42-.95,6.66-.74.64-6.08.11-7.94.16.09-.87-.14-1.86,0-2.7.2-1.22,1.24-2.24,0-4.05,1.48.05,3.4.33,4.05-1.35Z"/>
  <path class="cls-1" d="M271.99,118.72c-.14.84.09,1.83,0,2.7-2.43.07-17.36.49-17.57-.68-.45-2.52-.77-3.34,2.03-3.42,5.17-.16,10.24,2.3,15.53,1.4Z"/>
  <path class="cls-1" d="M321.96,95.76c-2.1-4.99,10.41-10.26,8.14-3.38-.41,1.25-5.43,2.67-6.78,3.38-.36.19-1.02-.19-1.35,0Z"/>
  <path class="cls-1" d="M170.69,101.17c.67-.66,11.33,1.51,14.18,1.43,3.32-.09,19.52-5.75,18.22.57-.74,3.58-28.35,4.64-31.09,2.75-1.51-1.04-1.84-4.24-1.31-4.75Z"/>
  <g>
    <path class="cls-1" d="M1255.33,569.85c28.65,14.06,38.47,51.47,31.75,81.08-18.13,79.87-131.89,98.65-173.81,26.56-6.53-11.23-8.78-28.36-21.76-33.62s-19.74-2.54-32.67-2.34c-104.97,1.59-209.9,3.97-314.72,5.4-92.83,1.27-190.38-2.85-282.37,2.63-16.85,1-31.75-2.56-40.57,16.16-9.88,20.97-11.15,32.65-31,48.69-72.64,58.73-192.18-16.42-148.16-104.94,5.77-11.6,14.36-18.38,21.92-28.12-5.24-6.13-11.78-11.48-16.82-18.35-33.81-46.06-13.83-106.81,37.47-128.44,46.45-19.59,102.84-1.96,125.89,43.42,8.08,15.91,8.85,30.21,31.04,32.44,173.44-.37,346.91-2.97,519.96-6.79,35.29-.78,77.79,2.16,112.15-1.31,25.22-2.55,24.82-19.28,33.27-36.97,19.92-41.7,74.5-61.37,117.33-44.71,48.27,18.77,83.1,82.42,49.21,128.86-4.66,6.38-13.16,11.69-16.79,16.98-.78,1.14-1.88,1.33-1.33,3.38ZM1246.07,569.69c-.63-1.12-.34-2.84.45-3.91,73.34-47.65,14.65-152.26-62.08-145.83-26.06,2.18-54.58,18.88-67.99,41.42-9.31,15.64-9.02,35.34-28.28,43.31-13.37,5.53-33.56,2.53-48.33,3-189.56,6.05-380.01,6.68-570.01,8.1-6.92.05-13.63,1.84-21.54,1.39-43.47-2.44-33.8-31.51-56.55-56.24-77.87-84.66-219.2,30-124.44,114.3,1.56,1.39,7.28,4.24,7.45,4.81,1.3,4.24-3.46,3.66-6.14,6.02-93.64,82.46,53.81,201.01,128.35,113.49,18.44-21.65,14.19-52.57,48.76-56.6,191.06-.33,381.7-4.41,572.62-6.84,18.95-.24,56.34-5.28,73.13,1.05,18.21,6.86,17.81,19.61,25.36,34.08,19.18,36.74,66.99,55.32,106.07,41.12,52.55-19.09,84.08-91.72,37.12-132.99-2.32-2.04-13.53-8.93-13.95-9.67Z"/>
    <path class="cls-1" d="M978.42,615.79l26.29-81.13c5.86,1.19,27.95-1.86,31.16,1.4l29,78.38h-24.99c-3.42-1.6-4.22-14.25-4.78-14.8-1.04-1.02-27.86-.3-29.02,1.26-1.96,2.64-1.51,11.97-5.37,14.89h-22.29ZM1020.29,550.96c-2.32-.47-2.75.57-3.75,2.31-.76,1.33-6.78,29.01-5.7,30.1h17.57c2.44-2.49-8.85-27.16-8.12-32.41Z"/>
    <path class="cls-1" d="M590.76,541.5v16.21h-39.85c-2.15,0-1.46,14.86-.68,14.86h39.17v16.21h-40.52c.27,2.88-1.18,16.21,2.03,16.21h43.9c.39,2.69-2.25,3.54-2.7,6.14-.65,3.74,2.49,8.94-.86,9.88-18.93,1.92-40.8-1.86-59.35.08-1.56.16-4.99,7.52-6.04-1.84-2.19-19.45.76-44.59.12-64.96-.07-2.31-3.24-12.78.62-12.78h64.16Z"/>
    <path class="cls-1" d="M844.7,595.53c.39.25,1.82,5.78,5.45,7.39,15.74,6.97,29.46-8.22,13.08-14.43-17.04-6.46-44.81-4.3-41.52-31.49,3.39-27.94,67.21-28.65,70.26,2.06h-19.59c-.5,0-3.69,2.36-4.72,1.35-.14-.14.08-2.67-.76-3.91-9.13-13.48-29.04-.39-17.8,7.04,10.92,7.22,41.42,4.88,45.26,23.51s-6.55,28.31-23.47,31.29c-18.83,3.32-47.45.77-50.51-22.82,4.01.86,22.51-1.16,24.31,0Z"/>
    <path class="cls-1" d="M466.49,594.18v28.37h-24.31l-2.7-79.69h52c3.2,0,14.34,7.3,16.69,10.33,6.38,8.21,6.27,24.66-1.28,32.09-3.45,3.39-14.87,8.91-19.46,8.91h-20.94ZM465.14,577.97c9.53-.55,23.68,3.6,23.09-10.16-.53-12.35-14.02-10.16-23.09-10.1v20.26Z"/>
    <path class="cls-1" d="M908.19,617.14l-1.36-79.7c24.67-.44,77.05-10.67,71.47,30.28-3.02,22.16-31.26,18.9-47.16,21.06-.51,1.36,1.36,2.83,1.36,3.36v24.99h-24.31ZM952.41,569.52c1.76-1.87,2.07-7.29,1.81-9.83-1.18-11.48-16.68-7.05-24.42-7.39l1.35,20.28c5.62-.27,17.15,1.33,21.26-3.05Z"/>
    <path class="cls-1" d="M659.65,557.71c-3,.36-6.4-.26-9.46,0l1.36,63.49h-25.66v-63.48h-25.66v-16.22c24.74,1.97,49.81-3.76,74.1.2.39.63.55,13.15.19,14.67-4.26.17-8.59-.3-12.86.04-2.16.17-1.88,1.3-2,1.31Z"/>
    <path class="cls-1" d="M261.18,540.15c-24.56-51.75,11.33-99.56,66.92-95.96,8.85.57,22.6,3.18,28.98,9.5-27.16-5.63-52.54-4.42-74.31,14.18-18.72,15.99-30.13,49.22-18.89,72.28h-2.7Z"/>
    <path class="cls-1" d="M1258.04,519.89c2.36-53.64-55.37-85-102.65-64.14-4.66,2.05-10.93,7.73-14.23,8.74-1.73.53-2.68-.32-1.99-1.99.87-2.09,13.8-11.48,16.65-13.08,46.65-26.24,100.54,2.85,106.19,55.07.42,3.92-.34,13-3.97,15.39Z"/>
    <path class="cls-1" d="M265.74,663.94c13.78,37.52,67.4,55.09,102.55,37.97,1.72-.84,1.79-3.02,3.35-3.67,1.23-.51,7.33-1.81,8.37.62-29.17,18.96-65.52,24-95.77,3.94-24.91-16.51-35.1-49.89-16.33-74.86-2.85,11.85-6.61,23.93-2.18,35.99Z"/>
    <path class="cls-1" d="M1147.27,677.93c21.08,8.26,37.39,10.48,59.73,3.67,28.9-8.82,53.2-36.85,45.64-68.5,2.26-2.79,6.2,7.78,6.44,9.08,2.4,13.39.23,27.79-6.38,38.93-20.25,34.11-73.37,38.51-105.78,20.84-1.52-.83-.87-2.59-.99-2.67l1.35-1.35Z"/>
    <path class="cls-1" d="M674.51,556.36c-.98,4.12-11.89,3.52-14.86,1.35.12-.01-.16-1.14,2-1.31,4.27-.34,8.6.13,12.86-.04Z"/>
    <path class="cls-1" d="M263.88,540.15c.22.46,8.85,9.48.67,6.78-1.14-.38-2.7-5.36-3.38-6.78h2.7Z"/>
    <path class="cls-1" d="M1147.27,677.93l-1.35,1.35c-1.5-.97-6.19-.69-6.75-4.04,3.98-1.42,6.21,1.94,8.1,2.69Z"/>
    <path class="cls-1" d="M752.85,573.92c.47.05.99-.11,1.35,0-.82,5.68,3.12,6.34,5.48,9.09,2.05,2.39-.97,2.14,3.98,4.41.6.28,1.31-.26,1.35,1.35l-1.35,1.35c-.05.44.04.9,0,1.35-.18,2.22.11,4.53.01,6.75l2.69-1.35c2.87,5.79,6.43,8,5.35,15.43-1.66,11.4-16.57,11.49-25.36,9.31-4.71-1.17-31.24-12.5-34.69-15.29-8.29-6.71-4.61-17.31,3.77-21.88,5.39-2.94,16.55-7.93,22.56-10.53,3.99,2.91,9.41-.55,14.86,0Z"/>
    <path class="cls-1" d="M767.98,579.04c-.37-.17-5.04-5.34-5.48-5.97-5.44-7.85.49-19.51,6-26.04,9.96-11.79,19.14,7.53,18.11,15.3-.87,6.57-11.99,19.87-18.63,16.71Z"/>
    <path class="cls-1" d="M748.45,535.08c5.75-.96,11.9-.45,11.15,7.01-.22,2.19-2.55,4.16-3.16,6.38-1.36,4.95-.2,7.84-3.8,12.4-9.35,11.85-24.39,4.32-21.08-11.64,1.37-6.59,10.55-13.1,16.89-14.16Z"/>
    <path class="cls-1" d="M711.36,577.57c-8.36-6.94-4.25-24.17,5.4-28.31,9.78-4.19,13.43,14.9,11.17,22.03-1.76,5.55-11.61,10.39-16.57,6.27Z"/>
    <path class="cls-1" d="M789.32,576.62c1.49-.15,4.42,1.92,6.74-.02,1.69,7.58,1.18,17.17-5.73,22.11-11.08,7.91-25.15,3.22-17.22-11.28-.3,4.48.7,2.36,2.85.83,4.8-3.44,9.07-7.61,13.36-11.63Z"/>
    <path class="cls-1" d="M789.32,576.62c-4.29,4.02-8.56,8.2-13.36,11.63-2.15,1.54-3.16,3.65-2.85-.83,3.41-6.24,8.92-10.06,16.21-10.81Z"/>
    <path class="cls-1" d="M763.66,587.43c-4.94-2.28-1.93-2.02-3.98-4.41-2.36-2.75-6.3-3.41-5.48-9.09,3.95,1.19,9.45,9.14,9.46,13.51Z"/>
    <path class="cls-1" d="M752.85,573.92c-5.45-.55-10.87,2.91-14.86,0,5.41-2.34,9.21-4.78,14.86,0Z"/>
    <path class="cls-1" d="M766.36,596.88l-2.69,1.35c.1-2.23-.19-4.53-.01-6.75,1.68,1.4,1.81,3.61,2.7,5.4Z"/>
    <path class="cls-1" d="M763.66,590.13l1.35-1.35c.05,1.7-1.34,1.26-1.35,1.35Z"/>
  </g>
</svg>