<?xml version="1.0" encoding="UTF-8"?>
<svg id="Layer_1" xmlns="http://www.w3.org/2000/svg" version="1.1" viewBox="0 0 306.3 211.9">
  <!-- Generator: Adobe Illustrator 29.0.1, SVG Export Plug-In . SVG Version: 2.1.0 Build 192)  -->
  <defs>
    <style>
      .st0 {
        fill: #f6f9fd;
      }
    </style>
  </defs>
  <path class="st0" d="M33.1,175.2c-1.1,1.4-2.2,2.8-3.1,4.4-.9,1.5-1.7,3-2.5,4.6-.8,1.5-1.5,3-2.2,4.5-.7,1.5-1.4,2.9-2.1,4.2-.7,1.3-1.5,2.5-2.4,3.7-.8,1.1-1.8,2.1-2.9,3-1.1.8-2.3,1.5-3.7,2-1.5.5-3.1.7-4.7.7-1.4,0-2.8-.2-4.2-.6-1.1-.3-2.1-.9-3-1.7-.8-.7-1.4-1.5-1.9-2.5C.2,196.5,0,195.5,0,194.4c0-.4,0-.8,0-1.2,0-.4.1-.7.2-1l1,.3c0,.3-.2.6-.2.9,0,.3,0,.7,0,1,0,1,.2,2.1.7,3,.5.8,1.1,1.5,1.9,2.1.8.6,1.7,1,2.7,1.3,1,.3,2,.4,3,.4,1.4,0,2.7-.2,4-.8,1.2-.5,2.2-1.2,3.2-2.1,1-.9,1.9-2,2.6-3.1.8-1.2,1.5-2.5,2.3-3.9.7-1.4,1.5-2.8,2.2-4.3.7-1.5,1.5-3,2.4-4.4.9-1.5,1.8-2.9,2.8-4.2,1-1.4,2.2-2.6,3.6-3.7l.7.6ZM47.4,170.4c-.9.6-1.8,1-2.8,1.4-1,.4-2,.7-3,.9-1,.2-2.1.4-3.1.5-1.1,0-2.2.1-3.3.1-1.4,0-2.9,0-4.4-.2-1.5-.1-3.1-.3-4.6-.5-1.5-.2-3-.3-4.4-.5-1.4-.1-2.7-.2-3.8-.2-1.5,0-3.1.2-4.6.6-1.3.4-2.5,1-3.5,1.8-2,1.6-3.1,4-3.1,6.5,0,.9.1,1.7.5,2.5.3.7.8,1.4,1.4,1.9.6.5,1.4.9,2.1,1.2.9.3,1.8.4,2.8.4.9,0,1.8-.1,2.7-.3.9-.2,1.9-.5,2.7-.9l.4.8c-1,.6-2.1,1-3.2,1.3-1.2.3-2.4.5-3.6.5-1,0-2-.1-3-.4-.9-.3-1.8-.7-2.6-1.4-.8-.6-1.4-1.4-1.8-2.3-.5-1-.7-2.1-.7-3.2,0-1.1.2-2.2.6-3.3.4-.9.9-1.8,1.5-2.6.6-.8,1.4-1.4,2.2-1.9.9-.5,1.8-1,2.8-1.3,1-.3,2-.6,3.1-.8,1-.2,2.1-.2,3.2-.2,1.3,0,2.7,0,4,.2,1.4.1,2.9.3,4.4.5,1.5.2,3,.3,4.5.5,1.5.2,3,.2,4.4.2,1.1,0,2.1,0,3.1-.1,1,0,2-.2,3-.5,1-.2,1.9-.5,2.8-.9.9-.4,1.8-.8,2.6-1.4l.6.9Z"/>
  <path class="st0" d="M34.7,191.4c.7-.9,1.4-1.9,2.2-2.7.7-.8,1.5-1.5,2.3-2.1.7-.6,1.5-1,2.3-1.4.7-.3,1.5-.5,2.2-.5.4,0,.8,0,1.2.2.3.1.6.3.8.6.2.2.3.5.4.8,0,.3.1.6.1.9,0,.5-.1,1.1-.3,1.6-.2.6-.5,1.2-.8,1.8-.3.6-.6,1.2-1,1.9-.4.6-.7,1.3-1,1.9-.3.6-.5,1.2-.8,1.8-.2.5-.3,1.1-.3,1.6,0,.3,0,.6.2.9.2.3.5.4.8.4.5,0,1.1-.3,1.4-.7.6-.5,1.1-1.1,1.6-1.7.6-.7,1.1-1.5,1.7-2.3.6-.8,1.1-1.7,1.5-2.5l.7.6c-.2.3-.4.6-.6,1-.3.5-.6,1-.9,1.5-.3.6-.7,1.1-1.2,1.7-.4.6-.9,1.1-1.4,1.6-.5.5-1,.9-1.5,1.2-.5.3-1,.5-1.6.5-.4,0-.7,0-1.1-.1-.3,0-.7-.2-1-.4-.3-.2-.5-.5-.7-.9-.2-.4-.3-.9-.3-1.4,0-.7.1-1.4.3-2,.2-.7.5-1.4.8-2,.3-.7.7-1.3,1.1-2,.4-.6.8-1.2,1.1-1.8.3-.6.6-1.1.8-1.5.2-.4.3-.7.3-1.2,0-.4-.2-.8-.6-.8,0,0-.1,0-.2,0-.9,0-1.7.3-2.5.8-.9.6-1.8,1.2-2.6,2-.9.9-1.8,1.8-2.6,2.7-.8,1-1.6,2-2.4,3l-3.1,5.8-1.9-.7c1.7-3.8,3.4-7.5,5-11.2,1.6-3.7,3.2-7.3,4.9-10.9.3-.6.6-1.2.9-1.8.3-.7.7-1.3,1.1-2,.4-.6.8-1.3,1.3-1.9.4-.6.9-1.1,1.4-1.6.5-.4,1-.8,1.5-1.1.5-.3,1-.4,1.6-.4.5,0,1,.1,1.4.5.4.4.5.9.5,1.4,0,.8-.2,1.5-.5,2.2-.4.9-.8,1.7-1.4,2.6-.6,1-1.3,1.9-2,2.8-.8,1-1.6,1.9-2.4,2.8-.8.9-1.7,1.8-2.5,2.7-.9.9-1.7,1.7-2.5,2.4l-2.5,5.5ZM46.7,169.6c-.6,0-1.2.3-1.7.7-.7.7-1.2,1.5-1.7,2.3-.6,1.1-1.3,2.5-2.1,4.2-.8,1.7-1.7,3.9-2.8,6.4,1.4-1.3,2.7-2.8,3.9-4.2,1-1.2,1.9-2.5,2.8-3.7.6-.9,1.2-1.9,1.7-3,.3-.6.5-1.2.6-1.9,0-.2,0-.4-.2-.6-.1-.1-.3-.2-.5-.2Z"/>
  <path class="st0" d="M51,194.7c0,.2,0,.3,0,.5,0,.2,0,.3,0,.5,0,.5,0,.9.2,1.4.1.4.3.8.6,1.2.3.3.6.6,1,.8.4.2.9.3,1.4.3,1.9,0,3.7-.7,5.2-1.8,2-1.6,3.7-3.5,5-5.8l.7.6c-.8,1.3-1.7,2.6-2.7,3.8-.8.9-1.8,1.8-2.8,2.5-.8.6-1.7,1.1-2.7,1.4-.8.3-1.7.4-2.5.4-.6,0-1.3,0-1.9-.2-.6-.2-1.3-.4-1.8-.8-.6-.4-1-.9-1.4-1.5-.4-.7-.6-1.6-.5-2.4,0-1,.2-2,.5-3,.3-.9.8-1.8,1.4-2.6.6-.8,1.2-1.6,1.9-2.2.7-.6,1.4-1.2,2.2-1.7.7-.4,1.4-.8,2.2-1.1.6-.2,1.2-.4,1.9-.4.4,0,.7,0,1.1.2.4.1.7.3,1,.5.3.2.5.6.7.9.2.4.3.9.3,1.4,0,.7-.2,1.4-.5,2-.3.7-.8,1.2-1.3,1.8-.6.6-1.2,1-1.9,1.5-.7.4-1.5.8-2.3,1.1-.8.3-1.6.5-2.4.7-.8.2-1.5.3-2.3.3ZM51.2,193.9c.9,0,1.7-.3,2.6-.6,1.5-.5,2.8-1.3,4-2.4.5-.5.9-1,1.3-1.5.3-.5.6-.9.8-1.5.2-.4.3-.8.3-1.2,0-.3,0-.6-.3-.9-.2-.2-.4-.3-.7-.3-.7,0-1.4.3-2,.6-.8.5-1.6,1.1-2.2,1.8-.8.8-1.5,1.7-2.1,2.7-.7,1-1.2,2.1-1.6,3.3Z"/>
  <path class="st0" d="M130.7,206.4s-.2.1-.6.3c-.4.2-.8.4-1.3.5-.6.2-1.2.4-1.8.5-.7.2-1.4.2-2.1.2-1.1,0-2.2-.2-3.2-.6-.9-.4-1.8-1-2.4-1.8-.7-.8-1.2-1.8-1.5-2.8-.4-1.2-.5-2.4-.5-3.6,0-1.4.2-2.8.5-4.2.3-1.6.7-3.1,1.2-4.7.5-1.6,1.1-3.2,1.7-4.8.6-1.6,1.3-3.1,1.9-4.6.6-1.5,1.3-2.8,1.8-4,.6-1.2,1.1-2.2,1.5-3-.8.9-1.6,1.9-2.6,3-1,1.1-2,2.4-3.1,3.7-1.1,1.4-2.3,2.8-3.5,4.3-1.2,1.5-2.4,3.1-3.6,4.8-1.2,1.7-2.4,3.4-3.6,5.1-1.2,1.7-2.3,3.5-3.4,5.2l-1-.3c.2-2.2.5-4.4,1-6.6.5-2.2,1-4.3,1.6-6.3.6-2,1.2-3.9,1.9-5.7.7-1.8,1.3-3.4,1.9-4.8-.9,1.3-1.8,2.6-2.7,4.1-.9,1.5-1.8,3-2.7,4.5-.9,1.5-1.9,3.1-2.9,4.7-1,1.6-2,3.1-3.1,4.5-1,1.4-2.2,2.8-3.4,4-1.1,1.2-2.4,2.3-3.8,3.2-1.3.9-2.7,1.6-4.2,2.2-1.6.5-3.2.8-4.8.8-1.2,0-2.4-.2-3.6-.6-1-.4-2-.9-2.8-1.6-.8-.7-1.4-1.5-1.8-2.4-.4-.9-.6-2-.6-3,0-1,.2-1.9.5-2.9.3-.8.8-1.6,1.3-2.3.6-.7,1.2-1.2,2-1.7.7-.5,1.5-.9,2.3-1.2,1.6-.6,3.2-.9,4.9-.9,1.5,0,3.1.2,4.5.6,1.5.4,2.9,1.1,4.2,2l-.7.8s-.2-.1-.5-.4c-.5-.3-1-.6-1.5-.8-.8-.3-1.6-.6-2.4-.8-1.1-.2-2.1-.4-3.2-.3-1.2,0-2.3.2-3.4.5-1,.3-2,.8-2.9,1.4-.8.6-1.5,1.5-2,2.4-.5,1-.8,2.2-.8,3.4,0,.9.2,1.8.5,2.6.4.8.9,1.5,1.5,2.1.7.6,1.5,1.1,2.3,1.4,1,.3,2,.5,3,.5,1.6,0,3.2-.4,4.7-1,1.6-.7,3-1.7,4.3-2.8,1.5-1.3,2.8-2.6,4-4.1,1.3-1.6,2.5-3.2,3.7-5,1.2-1.8,2.3-3.6,3.5-5.4,1.1-1.9,2.2-3.6,3.2-5.4,1-1.7,2.1-3.3,3.1-4.8.9-1.4,1.9-2.7,2.9-3.9l.9.6c-.6,1.8-1.1,3.4-1.6,4.8-.4,1.4-.8,2.6-1.1,3.6-.3,1-.6,2-.8,2.7-.2.8-.4,1.4-.6,2-.2.6-.3,1.1-.4,1.6-.1.5-.3,1-.4,1.4-.1.5-.3,1-.4,1.5-.2.5-.4,1.1-.6,1.8-.2.7-.5,1.5-.8,2.4-.3.9-.7,2-1.1,3.3,1.1-1.7,2.3-3.4,3.5-5.1,1.2-1.7,2.4-3.3,3.6-4.9,1.2-1.6,2.4-3.1,3.5-4.5,1.2-1.4,2.2-2.8,3.3-4,1-1.2,2-2.3,2.8-3.3.9-1,1.6-1.9,2.3-2.6.6-.7,1.1-1.3,1.5-1.7.4-.4.5-.6.6-.6l.9.6c-.8,2-1.6,4-2.4,6-.8,2-1.5,3.9-2.3,5.8-.7,1.9-1.4,3.7-2,5.5-.6,1.8-1.2,3.4-1.6,4.9-.5,1.5-.8,2.9-1.1,4.2-.2,1.1-.4,2.1-.4,3.2,0,1,.1,1.9.4,2.9.2.8.6,1.5,1.1,2.2.5.6,1.1,1.1,1.8,1.4.7.3,1.6.5,2.4.5.7,0,1.3,0,2-.2.6-.1,1.1-.3,1.7-.5.4-.1.8-.3,1.2-.5.3-.2.5-.2.5-.2l.5.9Z"/>
  <path class="st0" d="M132.5,185.8c-.2.4-.4.8-.7,1.4-.3.6-.7,1.2-1,1.9-.4.7-.7,1.4-1.1,2.2-.4.8-.7,1.5-1,2.2-.3.7-.5,1.3-.7,2-.2.5-.3,1.1-.3,1.6,0,.3,0,.6.2.8.2.2.4.2.7.2.6,0,1.2-.2,1.6-.6.6-.4,1.1-.9,1.6-1.4.6-.6,1.1-1.3,1.5-2,.5-.8,1-1.5,1.5-2.3l.7.6c-.4.7-.8,1.5-1.3,2.3-.5.8-1,1.5-1.7,2.2-.6.7-1.3,1.2-2,1.7-.7.4-1.6.7-2.4.7-.7,0-1.4-.2-1.9-.7-.4-.5-.7-1.2-.7-1.9,0-1,.2-2,.6-2.9.4-1,1-2,1.6-3,.6-1,1.3-1.9,2.1-2.8.7-.9,1.4-1.7,2.1-2.5l.7.3ZM136.4,181.3c0,.3,0,.6-.2.8-.1.3-.3.6-.5.8-.2.2-.4.4-.7.6-.2.1-.5.2-.8.2-.2,0-.4,0-.5-.3-.1-.2-.2-.4-.2-.6,0-.3,0-.5.1-.8,0-.3.2-.6.4-.8.2-.3.4-.5.6-.7.2-.2.5-.3.8-.3.3,0,.5.1.7.3.2.2.3.4.3.7h0Z"/>
  <path class="st0" d="M151.8,188.8c0,.6-.1,1.2-.3,1.8-.2.6-.5,1.2-.8,1.8-.3.6-.6,1.2-1,1.8-.4.6-.7,1.2-1,1.7-.3.5-.6,1-.8,1.6-.2.4-.3.9-.3,1.4,0,.2,0,.5.2.6.1.1.3.2.5.2.6,0,1.3-.3,1.7-.8.7-.6,1.4-1.2,2-1.9.7-.8,1.3-1.6,2-2.5.7-.9,1.2-1.8,1.8-2.6l.7.6c-.1.2-.3.5-.6,1-.3.5-.6,1-1.1,1.7-.4.6-.9,1.3-1.4,1.9-.5.7-1.1,1.3-1.7,1.9-.6.5-1.2,1-1.8,1.4-.6.4-1.2.5-1.9.6-.3,0-.7,0-1-.2-.3-.1-.5-.3-.8-.5-.2-.2-.4-.5-.5-.8-.1-.3-.2-.6-.2-.9,0-.6.1-1.2.4-1.7.3-.7.6-1.3.9-1.9.4-.7.7-1.3,1.2-2,.4-.7.8-1.3,1.2-1.9.4-.6.7-1.2.9-1.7.2-.4.3-.9.4-1.3,0-.4-.1-.8-.3-1.1-.2-.3-.6-.4-.9-.4-.5,0-1.1.2-1.5.5-.7.5-1.3,1-1.9,1.6-.8.8-1.6,1.7-2.3,2.6-.8,1-1.7,2.2-2.7,3.5-.6.7-1.1,1.5-1.6,2.2-.2.3-.5.6-.7.9-.2.3-.5.6-.7.9-.2.3-.5.6-.7.9-.2.3-.4.5-.6.7l-1.8-.7,2.4-3.3c.3-.5.7-1,1-1.5.4-.5.7-1.1,1.1-1.6.3-.6.7-1.1,1-1.7.3-.6.6-1.1.9-1.7.3-.7.6-1.3.8-2,.1-.4.2-.9.2-1.3,0-.3,0-.5-.2-.7-.2-.1-.4-.2-.6-.2-.3,0-.6.2-.9.4-.4.3-.7.6-1,1-.4.5-.7.9-1.1,1.4-.4.5-.7,1-1,1.6-.3.5-.6,1-.9,1.5-.3.5-.5.8-.7,1.1l-.7-.6c.7-1.1,1.3-2.1,1.9-3,.5-.8,1-1.6,1.6-2.3.4-.6,1-1.1,1.5-1.5.5-.3,1-.5,1.6-.5.3,0,.6,0,.9.2.3.1.5.3.7.5.2.3.4.5.5.9.1.4.2.8.2,1.2,0,.4,0,.7-.1,1.1.5-.5,1.1-1,1.7-1.4.5-.3.9-.6,1.4-.9.4-.2.8-.4,1.2-.5.3,0,.7-.1,1-.1.3,0,.6,0,.9.1.4.1.7.3,1,.5.3.3.6.7.8,1.1.2.6.3,1.2.3,1.8Z"/>
  <path class="st0" d="M178.5,172.6c-.2.2-.4.6-.7,1.1-.3.5-.7,1.1-1.2,1.8-.5.7-.9,1.5-1.5,2.3-.5.8-1,1.7-1.6,2.6-.5.9-1,1.8-1.5,2.7-.5.9-.9,1.8-1.3,2.6-.6,1.3-1.1,2.5-1.5,3.5-.4,1-.7,1.9-.9,2.7-.2.7-.4,1.4-.5,2.1,0,.5-.1,1-.1,1.5,0,.6,0,1.1.4,1.6.2.3.6.5,1,.4.4,0,.8-.1,1.2-.3.4-.2.8-.5,1.1-.8.4-.4.7-.7,1-1.2.3-.4.6-.9.9-1.3.3-.4.5-.9.8-1.2.2-.4.4-.7.6-1l.7.6c-.2.2-.3.6-.6,1-.2.4-.5.8-.8,1.3-.3.5-.6,1-1,1.4-.4.5-.8.9-1.2,1.3-.4.4-.9.7-1.5,1-.8.4-1.8.5-2.7.3-.3,0-.6-.2-.9-.4-.3-.2-.6-.5-.8-.8-.2-.4-.4-.9-.4-1.4-.9,1-1.9,1.8-3,2.5-.8.5-1.8.8-2.7.8-.5,0-1,0-1.4-.2-.5-.2-1-.4-1.5-.8-.5-.4-.9-.9-1.2-1.5-.3-.7-.5-1.5-.5-2.3,0-1,.2-2,.5-2.9.3-.9.7-1.8,1.3-2.5.5-.8,1.1-1.5,1.8-2.1.7-.6,1.4-1.2,2.2-1.6.7-.4,1.5-.8,2.3-1,.7-.2,1.4-.4,2.1-.4.7,0,1.4,0,2.1.3.4.2.8.4,1.1.7.2-.4.4-.9.8-1.5.3-.6.7-1.3,1.1-2,.4-.7.9-1.5,1.5-2.3.5-.8,1.1-1.7,1.7-2.5.6-.8,1.2-1.7,1.9-2.5.7-.8,1.3-1.6,2-2.3l.9.6ZM165.6,194.4c.1-1.2.3-2.4.7-3.6.5-1.6,1.1-3.2,1.9-4.7-.2-.3-.5-.5-.8-.7-.4-.2-.8-.2-1.2-.2-.7,0-1.4.1-2,.4-.7.3-1.4.7-2,1.1-.7.5-1.3,1-1.8,1.6-.6.6-1,1.3-1.5,2-.4.7-.7,1.5-1,2.3-.2.8-.4,1.5-.4,2.3,0,.8.2,1.7.6,2.4.4.6,1,.9,1.7.9.4,0,.8,0,1.1-.2.5-.2.9-.4,1.3-.7.5-.4,1-.7,1.5-1.2.6-.6,1.2-1.1,1.7-1.8Z"/>
  <path class="st0" d="M174.9,197.9c.5.4,1.1.5,1.7.5.7,0,1.5-.1,2.2-.4.7-.2,1.3-.6,1.9-1,.6-.4,1.1-.8,1.7-1.3.5-.5.9-1,1.4-1.5.4-.5.8-1,1.1-1.4.3-.4.6-.8.7-1.1h1.1c-.2.3-.5.7-.8,1.3-.3.5-.7,1.1-1.2,1.6-.5.6-1,1.2-1.5,1.7-.6.6-1.2,1.1-1.9,1.6-.7.5-1.4.8-2.2,1.1-.8.3-1.6.4-2.5.4-.4,0-.7,0-1.1-.1-.4,0-.7-.2-1.1-.4-.4,1.1-.9,2.2-1.3,3.2-.4,1.1-.8,2.1-1.2,3-.4,1-.7,1.8-1.1,2.6-.3.8-.6,1.5-.9,2.1-.2.6-.4,1.1-.6,1.4-.1.3-.2.5-.2.5l-2.1-1.1c.7-1.6,1.3-3.1,1.9-4.5.6-1.4,1.1-2.6,1.5-3.8.5-1.2.9-2.3,1.3-3.3.4-1,.8-2.1,1.3-3-.2-.3-.4-.6-.5-.9,0-.2-.2-.5-.2-.7,0-.3,0-.6.3-.8.2-.2.5-.3.8-.3.3,0,.5,0,.7.3.4-1,.8-1.8,1.1-2.6.3-.7.6-1.4.8-1.9.2-.6.5-1.1.7-1.5,1.2-2.8,2.3-5.2,3.3-7.2,1-2,2-3.8,2.8-5.2.7-1.2,1.5-2.4,2.3-3.5.6-.7,1.2-1.4,1.9-2.1.5-.4,1-.8,1.6-1,.4-.2.8-.2,1.2-.3.5,0,1.1.1,1.5.4.4.3.7.8.7,1.4,0,.8,0,1.6-.3,2.4-.3,1-.7,2.1-1.1,3-.5,1.1-1.1,2.2-1.7,3.2-.6,1-1.3,2-2,3-1.3,1.7-2.4,3.1-3.4,4.3-1,1.1-1.9,2-2.7,2.7-.6.6-1.3,1.1-1.9,1.5-.4.2-.8.5-1.1.7l-2.8,6.8ZM190.9,170.6c0-.2,0-.4-.2-.6-.1-.2-.3-.3-.5-.3-.2,0-.4,0-.6.1-.3.1-.6.3-.9.5-.4.3-.8.7-1.2,1.1-.5.6-1,1.2-1.5,1.9-.5.8-1.1,1.8-1.8,3-.6,1.2-1.3,2.6-2,4.3-.5,1.1-1,2.4-1.7,3.9-.6,1.5-1.3,3.2-2.1,4.9.7-.5,1.4-1.1,2-1.7.7-.7,1.4-1.4,2.1-2.2.7-.8,1.4-1.7,2.1-2.6.7-.9,1.4-1.8,2-2.8.6-.9,1.2-1.9,1.7-2.8.5-.9,1-1.8,1.3-2.6.3-.7.6-1.5.8-2.3.2-.6.3-1.2.2-1.8Z"/>
  <path class="st0" d="M195.1,194.9c-.6.7-1.2,1.4-1.9,2-.6.6-1.2,1.1-1.8,1.6-.6.4-1.2.8-1.8,1-.6.2-1.2.4-1.8.4-.5,0-1,0-1.4-.3-.4-.2-.8-.4-1.1-.8-.3-.4-.6-.8-.7-1.2-.2-.5-.3-1.1-.2-1.6,0-1,.2-2,.6-2.9.4-1,1-2,1.6-2.9.6-.9,1.3-1.8,2.1-2.7.8-.8,1.5-1.6,2.2-2.2l.9.6c-.5.7-1,1.5-1.6,2.5-.6.9-1.2,1.9-1.7,2.8-.5.9-1,1.9-1.4,2.9-.3.9-.5,1.8-.6,2.7,0,.5,0,1,.3,1.4.3.4.7.6,1.2.6.8,0,1.5-.3,2.2-.8.9-.6,1.7-1.3,2.4-2,.9-.9,1.7-1.8,2.5-2.8.8-1,1.6-2.1,2.3-3.2.7-1.1,1.4-2.1,2-3,.6-1,1.1-1.8,1.5-2.5l1.5.7c-.8,1.6-1.5,3-2.3,4.3-.7,1.3-1.4,2.5-1.9,3.6-.6,1.1-1,2-1.3,2.8-.3.6-.5,1.2-.5,1.9,0,.2,0,.3.1.5,0,.1.2.2.4.2.6,0,1.2-.3,1.7-.7.7-.5,1.3-1.1,1.8-1.7.6-.7,1.3-1.5,1.8-2.2.6-.8,1.1-1.6,1.6-2.3l.7.6c0,.1-.3.4-.5.8-.3.4-.6.9-1,1.4-.4.5-.8,1.1-1.3,1.7-.5.6-1,1.1-1.6,1.6-.5.5-1.1.9-1.7,1.2-.5.3-1.1.5-1.7.5-.3,0-.6,0-.9-.2-.3-.1-.5-.3-.7-.5-.2-.2-.3-.4-.4-.7-.1-.3-.2-.6-.2-.9,0-.4,0-.8.2-1.2.1-.5.3-.9.5-1.3Z"/>
  <path class="st0" d="M218.5,169.7c.4,0,.8.1,1.2.3.4.3.5.8.5,1.3,0,.5-.1,1-.3,1.5-.2.6-.4,1.3-.7,1.9-.3.7-.6,1.4-1,2.2-.4.8-.8,1.5-1.3,2.3-.5.7-.9,1.5-1.4,2.2-.5.7-1,1.4-1.5,2-1,1.2-1.8,2.2-2.5,3.1-.7.8-1.3,1.5-1.9,2.1-.5.6-1,1-1.3,1.4-.4.4-.7.7-.9.9-.3.3-.5.5-.8.7-.2.2-.5.4-.7.7-.1.5-.2,1-.2,1.5,0,.5,0,.9,0,1.3,0,.9.1,1.8.6,2.6.3.6,1,.9,1.6.9.5,0,1-.1,1.4-.4.5-.3,1-.6,1.4-.9.5-.4.9-.8,1.3-1.3.4-.5.8-1,1.2-1.5.4-.5.7-1,1.1-1.4.3-.5.6-.9.8-1.2l.8.6c0,0-.2.3-.4.6-.2.4-.5.8-.9,1.4-.4.5-.8,1.1-1.3,1.7-.5.6-1,1.2-1.6,1.7-.6.5-1.2.9-1.9,1.3-1.1.6-2.4.7-3.6.2-.5-.2-1-.6-1.3-1-.4-.5-.7-1.1-.9-1.7-.3-.8-.4-1.7-.4-2.6,0-1.3.2-2.6.4-3.9.3-1.4.7-2.8,1.2-4.1.5-1.4,1.1-2.7,1.8-4.1.7-1.3,1.4-2.6,2.2-3.8.7-1.2,1.5-2.3,2.4-3.4.8-.9,1.6-1.8,2.5-2.7.7-.7,1.5-1.3,2.3-1.8.6-.4,1.3-.6,2-.6ZM206.3,190.4c1.2-1.2,2.3-2.4,3.4-3.6,1.1-1.2,2.1-2.5,3-3.7.9-1.2,1.8-2.4,2.6-3.5.8-1.1,1.5-2.2,2-3.2.5-.9.9-1.8,1.3-2.8.3-.7.4-1.4.5-2.1,0-.2,0-.3-.2-.4,0-.2-.2-.3-.4-.3-.6,0-1.2.4-1.7.8-.8.7-1.6,1.4-2.3,2.3-.9,1.1-1.7,2.2-2.5,3.4-.9,1.3-1.7,2.7-2.4,4.1-.8,1.5-1.4,3-2,4.5-.6,1.5-1,3-1.3,4.6h0Z"/>
  <path class="st0" d="M270.6,173.9c0,.9-.2,1.8-.5,2.7-.4,1-.9,1.9-1.5,2.8-.7,1-1.5,1.9-2.4,2.6-1,.9-2.1,1.7-3.3,2.3-1.3.7-2.7,1.3-4.1,1.8-1.6.5-3.2.9-4.9,1-.7,1.3-1.5,2.6-2.2,3.9-.8,1.3-1.6,2.5-2.5,3.7-.8,1.2-1.8,2.2-2.8,3.3-.9,1-2,1.9-3.1,2.6-1.1.7-2.3,1.3-3.6,1.7-1.3.4-2.7.6-4.1.6-1.2,0-2.4-.2-3.5-.5-1.1-.3-2.1-.8-3-1.5-.9-.6-1.6-1.5-2.1-2.4-.5-1-.8-2.1-.8-3.3,0-1.2.2-2.4.7-3.5.5-.9,1.1-1.8,1.9-2.5.8-.7,1.7-1.2,2.7-1.5,1-.3,2-.5,3.1-.5.8,0,1.6,0,2.4.2.8.2,1.5.4,2.2.7.7.3,1.4.6,2,1,.6.4,1.1.8,1.6,1.3l-.6.7c-.4-.3-.7-.6-1.2-.9-.5-.3-1-.6-1.5-.8-.6-.2-1.2-.4-1.9-.5-.7-.1-1.5-.2-2.2-.2-.9,0-1.8.2-2.7.5-.8.3-1.6.7-2.3,1.3-.7.6-1.2,1.3-1.6,2.1-.4.9-.6,1.9-.6,2.9,0,1.7.7,3.3,2,4.4.7.6,1.4,1,2.2,1.3.9.3,1.9.5,2.9.5,1.2,0,2.3-.2,3.4-.6,1.1-.4,2.1-.9,3-1.6,1-.7,1.8-1.5,2.6-2.4.8-.9,1.6-1.9,2.4-3,.7-1.1,1.5-2.2,2.1-3.4.7-1.2,1.4-2.4,2-3.7h-.6c-2.1,0-4.2-.2-6.2-.7-1.7-.4-3.2-1-4.7-1.9-1.2-.7-2.2-1.7-3-2.9-.7-1.1-1-2.3-1-3.5,0-1.2.2-2.3.7-3.4.5-1,1.2-1.8,2-2.4.9-.7,1.9-1.2,2.9-1.5,1.2-.3,2.4-.5,3.6-.5,1,0,2,0,3,.3.8.1,1.6.4,2.4.7.7.2,1.3.5,1.9.9.5.3,1,.6,1.4.9.3.2.6.5.9.8l.4.4-.7.6s-.2-.2-.6-.5c-.5-.4-1-.8-1.6-1.1-.8-.4-1.6-.8-2.5-1.1-1.1-.3-2.2-.5-3.3-.5-1.1,0-2.3.2-3.3.5-1,.3-1.8.8-2.6,1.4-.7.6-1.3,1.3-1.7,2.2-.4.8-.6,1.8-.6,2.7,0,1.1.3,2.2,1,3.2.7,1,1.6,1.8,2.7,2.4,1.3.7,2.6,1.3,4,1.6,1.7.4,3.4.6,5.1.6h1c.7-1.3,1.4-2.7,2.1-4,.7-1.3,1.4-2.6,2.2-3.8.7-1.2,1.5-2.3,2.3-3.4.7-1,1.6-1.9,2.5-2.7.9-.7,1.8-1.3,2.8-1.8,1-.4,2.1-.7,3.2-.6.5,0,1,0,1.4.2.5.1.9.3,1.3.7.4.3.7.7.9,1.2.2.6.4,1.2.3,1.8ZM267.1,171.1c-.9,0-1.7.2-2.5.6-.8.4-1.6,1-2.2,1.6-.8.7-1.4,1.6-2.1,2.4-.7.9-1.3,2-2,3.1-.6,1.1-1.3,2.3-2,3.5-.7,1.2-1.3,2.5-2,3.7,1.6-.2,3.3-.6,4.8-1.1,1.3-.5,2.6-1.1,3.8-1.8,1-.6,2-1.4,2.9-2.2.8-.7,1.4-1.5,2-2.4.5-.7.9-1.5,1.2-2.3.2-.6.4-1.3.4-2,0-.4,0-.8-.1-1.2,0-.3-.2-.7-.4-1-.2-.3-.5-.5-.8-.6-.4-.2-.8-.2-1.2-.2h0Z"/>
  <path class="st0" d="M264,194.7c0,.2,0,.3,0,.5,0,.2,0,.3,0,.5,0,.5,0,.9.2,1.4.1.4.3.8.6,1.2.3.3.6.6,1,.8.4.2.9.3,1.4.3,1.9,0,3.7-.7,5.2-1.8,2-1.6,3.7-3.5,5-5.8l.7.6c-.8,1.3-1.7,2.6-2.7,3.8-.8.9-1.8,1.8-2.8,2.5-.8.6-1.7,1.1-2.7,1.4-.8.3-1.7.4-2.5.4-.6,0-1.3,0-1.9-.2-.6-.2-1.3-.4-1.8-.8-.6-.4-1-.9-1.4-1.5-.4-.7-.6-1.6-.5-2.4,0-1,.2-2,.5-3,.3-.9.8-1.8,1.4-2.6.6-.8,1.2-1.6,1.9-2.2.7-.6,1.4-1.2,2.2-1.7.7-.4,1.4-.8,2.2-1.1.6-.2,1.2-.4,1.9-.4.4,0,.7,0,1.1.2.4.1.7.3,1,.5.3.2.5.6.7.9.2.4.3.9.3,1.4,0,.7-.2,1.4-.5,2-.3.7-.8,1.2-1.3,1.8-.6.6-1.2,1-1.9,1.5-.7.4-1.5.8-2.3,1.1-.8.3-1.6.5-2.4.7-.8.2-1.5.3-2.3.3ZM264.2,193.9c.9,0,1.7-.3,2.6-.6.8-.3,1.5-.6,2.2-1.1.6-.4,1.2-.8,1.8-1.4.5-.5.9-1,1.3-1.5.3-.5.6-.9.8-1.5.2-.4.3-.8.3-1.2,0-.3,0-.6-.3-.9-.2-.2-.4-.3-.7-.3-.7,0-1.4.3-2,.6-.8.5-1.6,1.1-2.2,1.8-.8.8-1.5,1.7-2.1,2.7-.7,1-1.2,2.1-1.6,3.3Z"/>
  <path class="st0" d="M292.2,169.7c.4,0,.8.1,1.2.3.4.3.5.8.5,1.3,0,.5-.1,1-.3,1.5-.2.6-.4,1.3-.7,1.9-.3.7-.6,1.4-1,2.2-.4.8-.8,1.5-1.3,2.3-.5.7-.9,1.5-1.4,2.2-.5.7-1,1.4-1.5,2-1,1.2-1.8,2.2-2.5,3.1-.7.8-1.3,1.5-1.9,2.1-.5.6-1,1-1.3,1.4-.4.4-.7.7-.9.9-.3.3-.5.5-.8.7-.2.2-.5.4-.7.7-.1.5-.2,1-.2,1.5,0,.5,0,.9,0,1.3,0,.9.1,1.8.6,2.6.3.6,1,.9,1.6.9.5,0,1-.1,1.4-.4.5-.3,1-.6,1.4-.9.5-.4.9-.8,1.3-1.3.4-.5.8-1,1.2-1.5.4-.5.7-1,1.1-1.4.3-.5.6-.9.8-1.2l.8.6c0,0-.2.3-.4.6-.2.4-.5.8-.9,1.4-.4.5-.8,1.1-1.3,1.7-.5.6-1,1.2-1.6,1.7-.6.5-1.2.9-1.9,1.3-1.1.6-2.4.7-3.6.2-.5-.2-1-.6-1.3-1-.4-.5-.7-1.1-.9-1.7-.3-.8-.4-1.7-.4-2.6,0-1.3.2-2.6.4-3.9.3-1.4.7-2.8,1.2-4.1.5-1.4,1.1-2.7,1.8-4.1.7-1.3,1.4-2.6,2.2-3.8.7-1.2,1.5-2.3,2.4-3.4.8-.9,1.6-1.8,2.5-2.7.7-.7,1.5-1.3,2.3-1.8.6-.4,1.3-.6,2-.6ZM279.9,190.4c1.2-1.2,2.3-2.4,3.4-3.6,1.1-1.2,2.1-2.5,3-3.7.9-1.2,1.8-2.4,2.6-3.5.8-1.1,1.5-2.2,2-3.2.5-.9.9-1.8,1.3-2.8.3-.7.4-1.4.5-2.1,0-.2,0-.3-.2-.4,0-.2-.2-.3-.4-.3-.6,0-1.2.4-1.7.8-.8.7-1.6,1.4-2.3,2.3-.9,1.1-1.7,2.2-2.5,3.4-.9,1.3-1.7,2.7-2.4,4.1-.8,1.5-1.4,3-2,4.5-.6,1.5-1,3-1.3,4.6Z"/>
  <path class="st0" d="M289.1,197.9c.5.4,1.1.5,1.7.5.7,0,1.5-.1,2.2-.4.7-.2,1.3-.6,1.9-1,.6-.4,1.1-.8,1.7-1.3.5-.5.9-1,1.4-1.5.4-.5.8-1,1.1-1.4.3-.4.6-.8.7-1.1h1.1c-.2.3-.5.7-.8,1.3-.3.5-.7,1.1-1.2,1.6-.5.6-1,1.2-1.5,1.7-.6.6-1.2,1.1-1.9,1.6-.7.5-1.4.8-2.2,1.1-.8.3-1.6.4-2.5.4-.4,0-.7,0-1.1-.1-.4,0-.7-.2-1.1-.4-.4,1.1-.9,2.2-1.3,3.2-.4,1.1-.8,2.1-1.2,3-.4,1-.7,1.8-1.1,2.6-.3.8-.6,1.5-.9,2.1-.2.6-.4,1.1-.6,1.4-.1.3-.2.5-.2.5l-2.1-1.1c.7-1.6,1.3-3.1,1.9-4.5.6-1.4,1.1-2.6,1.5-3.8.5-1.2.9-2.3,1.3-3.3.4-1,.8-2.1,1.3-3-.2-.3-.4-.6-.5-.9,0-.2-.2-.5-.2-.7,0-.3,0-.6.3-.8.2-.2.5-.3.8-.3.3,0,.5,0,.7.3.4-1,.8-1.8,1.1-2.6.3-.7.6-1.4.8-1.9.2-.6.5-1.1.7-1.5,1.2-2.8,2.3-5.2,3.3-7.2,1-2,2-3.8,2.8-5.2.7-1.2,1.5-2.4,2.3-3.5.6-.7,1.2-1.4,1.9-2.1.5-.4,1-.8,1.6-1,.4-.2.8-.2,1.2-.3.5,0,1.1.1,1.5.4.4.3.7.8.7,1.4,0,.8,0,1.6-.3,2.4-.3,1-.7,2.1-1.1,3-.5,1.1-1.1,2.2-1.7,3.2-.6,1-1.3,2-2,3-1.3,1.7-2.4,3.1-3.4,4.3-1,1.1-1.9,2-2.7,2.7-.6.6-1.3,1.1-1.9,1.5-.4.2-.8.5-1.1.7l-2.8,6.8ZM305,170.6c0-.2,0-.4-.2-.6-.1-.2-.3-.3-.5-.3-.2,0-.4,0-.6.1-.3.1-.6.3-.9.5-.4.3-.8.7-1.2,1.1-.5.6-1,1.2-1.5,1.9-.5.8-1.1,1.8-1.8,3-.6,1.2-1.3,2.6-2,4.3-.5,1.1-1,2.4-1.7,3.9-.6,1.5-1.3,3.2-2.1,4.9.7-.5,1.4-1.1,2-1.7.7-.7,1.4-1.4,2.1-2.2.7-.8,1.4-1.7,2.1-2.6.7-.9,1.4-1.8,2-2.8.6-.9,1.2-1.9,1.7-2.8.5-.9,1-1.8,1.3-2.6.3-.7.6-1.5.8-2.3.2-.6.3-1.2.2-1.8h0Z"/>
  <path class="st0" d="M120.1,113.9c0,0,0-.2,0-.2h0c.8,0,1.3-.6,2-.9h0c.5,0,1-.3,1.4-.7,1.3-1,2.6-2.2,3.8-3.4.6-.8,1.4-1.6,2.2-2.2-.3-.3-.8-.4-1.3-.4h0c-2.9-.9-5.9-1-8.8-.3h0,0c-1.3,0-2.2.9-3.3,1.3,0,.2-.4.2-.3.5-.1.3-.4.2-.6.3-.8,1.2-1.6,2.5-2.3,3.7l-.9,1.2h0c-.3,0-.3.3-.3.5-.3.2-.7.4-.5.9,3,.1,5.9,0,8.9-.3ZM116.1,109.5s0,0-.1,0c0,0,0,0,0,0,0,0,0,0,.1,0h0Z"/>
  <path class="st0" d="M241.3,84.8c-.8-.3-1.5-.6-2.3-.9-1.1-.5-2.3-.9-3.5-1.1h0c-.7-.4-1.6,0-2.3-.3,0,0-.1,0-.2,0-.5.3-1,0-1.6.1-1.9.2-3.7.3-5.4,1.4-2.1.9-4.3,1.6-6.4,2.5l-.3.2h0c-.9.2-1.7.4-2.6.6-.2.2-.3.5-.1.7,0,0,0,0,0,0h0c.2,0,.3,0,.5,0,0,0,.1.2.2.2.3.2.6.3.9.3,5,1.1,10.1,1.6,15.2,1.3,2.1-.2,4.2-.8,6-1.9h0c.1,0,.3-.2.4-.3,1.1-.5,2.2-1.2,3.1-2,.2-.4.9-.4.9-1.1h-2.7ZM232.2,89.2c0,0,0,.1,0,.2,0,0-.1,0-.2,0,0,0,.1-.1.2-.2Z"/>
  <path class="st0" d="M227,83c.1,0,.3,0,.4-.1,1.1-.5.9-1,0-1.5-.4-.2-.8-.4-1.2-.6-1.9-1.3-3.9-2.5-6-3.5-1.2-.5-2.6-.6-3.9-.5-3,0-5.7,1.7-7.1,4.3-.3.6-.8,1.4.5,1.5.2,0,.3,0,.4,0,.4.2.8.3,1.3.3,0,0,0,0,0,.1.5.5,1.3.5,1.9.8.8,0,1.6.2,2.3.6,2.7.8,5.5.6,8-.6h0c1.1-.3,2.2-.6,3.4-.8Z"/>
  <path class="st0" d="M212.3,53.5c.6-.4,1.3-.7,1.6-1.3h0l2.3-1.5c.5-.3,1-.7,1.5-1.2h0c1.2-1,2.3-2.1,3.4-3.2.8-1.1,1.4-2.3,1.8-3.5.1-.4.3-.8,0-1.2-.4-.4-.8-.2-1.2,0-.9.4-1.7,1-2.4,1.7-2.7,2.5-4.9,5.5-6.4,8.9-.3.4-.5.9-.4,1.4Z"/>
  <path class="st0" d="M129.9,16c.1,2.8,1.3,5.5,3.2,7.5,2.1,2.1,4.8,3.3,7.1,5h0c.1.3.2.5.4.8.8.2.8-.2.6-.7,0,0,.2-.2.2-.3.2-2.6.2-5.2,0-7.7-.1-.5-.1-1-.3-1.5h0c0,0,0-.1,0-.2,0,0,0,0,0-.1,0,0,0,0,0,0,.2-.5,0-1.1-.2-1.5-.9-1.8-2.3-3.4-4-4.5-1.8-.9-3.3-2.2-5.1-3-.7-.6-1.6-1.1-2.5-1.4-.2.8.4,1.3.4,2,0,1.9.1,3.8.3,5.7ZM131.1,10.6c.1,0,.3-.1.4-.2,0,0,0,0,0,0-.3.3-.5.5-.7.7,0,0,0-.2,0-.3,0-.1.1-.2.2-.3h0Z"/>
  <path class="st0" d="M125.9,29.3c.2,1.6.2,3.2,1.3,4.5h0c0,.2,0,.3.1.4.3.4.6.9.9,1.3,1.2,1.5,2.4,3,4.3,3.6h0c.2.1.3.2.5.3h0c1.3,1.1,3,1.5,4.4,2.6.1-1.9.2-3.5.3-5.1,0-2.8-.9-5.4-2.7-7.6-1.4-1.7-3.2-2.8-4.8-4.3-.6-.9-1.6-1.5-2.3-2.4,0,0-.1,0-.2,0h0c0-.4-.2-.7-.4-1.1-.5-1-.7-.3-.9.2,0,.1,0,.2,0,.4,0,.2-.1.3-.1.5-.4,1.6-.3,3.3-.7,4.9-.2.5,0,1.1.2,1.5,0,0,0,.2,0,.2Z"/>
  <path class="st0" d="M145.5,14.9h0c1,1.3,2.2,2.3,3.6,3.1.3.4.7.5.9-.2,0-.1,0-.3,0-.5,0-.4.2-.8.3-1.1.3-1.6.3-3.2,0-4.7l-.2-.6c-.1-1-.6-2-1.5-2.6h0c-1.2-1.8-3.2-2.6-4.9-3.7-.5-.2-.9-.4-1.4-.6-.4-.1-.7,0-.7.5,0,3,0,5.9,1.7,8.6.8.6,1.1,1.7,2.3,1.9Z"/>
  <path class="st0" d="M115.9,29.1c.1.5.3.9.4,1.4h.1c.8,1.7,2.1,3,3.7,3.9.9.4,1.8,1,2.6,1.6.5.1,1,.4,1.4.7.2,0,.4.2.6.2q1.6.3,2,0c0,0,0-.2,0-.2-.8-1.4-1.3-3-1.4-4.7h0c-.3-.4,0-1-.3-1.4-.3-.6,0-1.3-.6-1.7l-1.1-1.5c0-.5-.3-1-.8-1.2-.2-.6-.6-1.1-1.2-1.5h0c-1.7-2.3-3.2-4.7-3.7-7.8-1.3,1.4-1.5,3.1-1.9,4.5-.7,2.5-1,5.2.3,7.7h0Z"/>
  <path class="st0" d="M121.8,17.8h0c.1,1.4.8,2.7,1.9,3.6.2.2.4.3.6.3.4,0,.3-.4.3-.7.3-2.2-.4-4.5-1.9-6.1,0-.6-.4-1-.9-.9-.6,0-.3.7-.3,1.1-.1.9,0,1.9.3,2.8Z"/>
  <path class="st0" d="M90,89.8s0,0,0,0c0,0,0,0,0,0,4.9.2,9.8,0,14.6-.9,1-.7,2.4-.2,3.5-1.2-.6-.2-1-.4-1.4-.5h0c-1.8-.8-3.8-1.1-5.5-2.2-.3,0-.6,0-.8,0h0c-3.3-1.8-7-2.5-10.7-2.2-.3.2-.6.3-.9.5,0,0-.1-.1-.2-.1-.3,0-.6,0-.8,0-2,.8-4.2,1.3-6.3,1.4-.8,0-.9.5-.4,1,.3.3.6.5.9.7.8.4,1.6.9,2.3,1.5,1.6,1.3,3.6,2.1,5.7,2.2Z"/>
  <path class="st0" d="M120.9,98c-.3.1-.5-.1-.8-.2-4.8-2.2-9.3-2.5-13.5,1.4h0c-.7.4-1.3.8-2,1.2-.4.4-1,.5-1.4.9-.8.7-1.6,1.3-2.6,1.7,0,0,0,0,0,0,0,0,0,.1,0,.2h0c-.6.2-1.2.4-2,.7.5.2.8.3,1,.4h0c.2,0,.5-.2.7-.3.9.1,1.7.2,2.6.4,0,0,0,0,0,0,0,0,0,0,0,0,1.7.4,3.5.6,5.3.6,2.1,0,4.1-.2,5.7-1.8.9,0,1.1-1.3,2-1.1.4-.8,1.2-1.1,1.7-1.8.2-.1.4-.2.4-.5.6.1.9-.5,1.4-.7.3-.2.6-.4.9-.6,0,0,0,0,0,0h0c.4,0,1.1.3,1.2-.2.1-.4-.4-.4-.7-.3h0ZM107.9,104.1s0,0,0,0h0s0,0,0,0h0ZM106.3,101.8c0,.2,0,.4,0,.6-.1,0-.3-.1-.4-.2.1-.1.3-.3.4-.4h0Z"/>
  <path class="st0" d="M103.6,109.3c.7-.4.9-1.2,1.5-1.7.4,0,.7-.5.6-.9,0,0,0,0,0,0-.1-.4-.6-.2-.9-.3-1.8-.2-3.6-.2-5.3.2-.4.4-1,.3-1.3.8-.7.2-1.3.6-1.7,1.1h0c-1,.5-1.4,1.7-2.3,2.3l-.2.5c.2,0,.5,0,.7,0,3.1,0,6.5.7,9-2ZM100.8,109c0-.2,0-.3,0-.4,0,0,.1.1.2.2-.1,0-.2.2-.3.3h0Z"/>
  <polygon class="st0" points="118.1 92.6 118.1 92.6 118.1 92.6 118.1 92.6"/>
  <path class="st0" d="M221.4,101.5c-.8,0-1-.8-1.5-1.1-.3-.4-.7-.7-1.2-.9-1.7-1.3-3.5-2.4-5.5-3.2-3.2-.4-6.4.2-9.2,1.7-.3,0-.5,0-.8,0h0c-.2,0-.2.3-.1.5,0,0,0,0,0,0,.7.1,1.3.2,2,.3h0c1.8,1.2,3.4,2.6,5.1,4,3.8,3,8,2.5,12.3,1.3h0c1,.3,2.1,0,3.2.2,0-.9-.7-.7-1.1-.9-.3-.3-.7-.5-1.2-.5h0c-.7-.5-1.3-1-2-1.5ZM205,98.8c0,0,.1,0,.2.1h-.2Z"/>
  <path class="st0" d="M211.9,111.5s0,0-.1,0c-.6-1.3-1.6-2.4-2.3-3.6-1.3-1.2-2.9-2-4.7-2.3-2.7-.4-5.5-.3-8.2.4-.1,0-.3,0-.4.1h-.8c-.2.2-.5.3-.3.6,2.6,1.9,4.4,4.7,7.2,6.4,1.4.7,2.9,1.1,4.4,1.1h.1s.1,0,.1,0c1.5.2,2.9.3,4.4.1.8,0,1.6.3,2.3-.3,0-1.1-.7-2.1-1.7-2.6Z"/>
  <path class="st0" d="M239.2,77.5c-5.1-2.2-9.3-1.2-10.8,2.3,3.7,1.3,7.9.4,10.8-2.3Z"/>
  <path class="st0" d="M198.9,25.5c-2.1,1.9-3.4,4.5-3.8,7.4,0,1.5-.6,3-1.4,4.3.3,1,.9.3,1.4.3,1.1-.4,2.1-1.1,3.3-1.5,1.2-.6,2.4-1.4,3.4-2.3h0c.6-.3,1.1-.8,1.4-1.4h0c.6-.6,1-1.3,1.2-2.1.7-2.4.7-5,.2-7.4-.3-.8-.5-1.5-.8-2.3,0-.6-.2-1.2-.7-1.6-.6.3-.4.8-.5,1.2h0c-.7,2.1-2,3.9-3.7,5.4Z"/>
  <path class="st0" d="M195.1,24.7l.8-.6c.4-.2.9-.5,1.2-.9.7-.8,1.7-1.4,2.1-2.5,0,0,.2,0,.2,0,1.6-2.9,1.2-6,.9-9.2,0-.5-.3-.6-.8-.6-1.2.4-2.3,1.1-3.3,1.9h0c-.4.2-.7.4-1.1.7l-1.4,2.9c-.4,2-.2,4,.4,5.9.2.8,0,1.9,1,2.5Z"/>
  <path class="st0" d="M97.3,82.8c1.7.6,3.3,1.2,5,1.6,3.8,1.3,7.4.7,10.9-1,.1-.2.3-.3.4-.4h.3c.6,0,1.2-.2,1.8-.4.4-.1.5-.3.2-.7h0c-.2-.2-.4-.5-.6-.7,0,0,0-.2-.1-.3,0,0,0,0,0,0,0-.3-.2-.6-.5-.7,0,0,0,0,0-.1-.2-.4-.6-.7-.9-1-.2,0-.3-.2-.5-.3-.5-.4-1-.7-1.6-.9-.2,0-.4-.2-.5-.3-.1,0-.3-.1-.4-.1-.5-.1-1.1-.3-1.6-.4-2.2-.5-4.5,0-6.5,1.1-.1,0-.3,0-.4,0-.8.2-1.5.6-2,1.2-1.1.9-2.2,1.6-3.4,2.3-.8.8,0,1,.5,1.2ZM104.5,77.8s0,0,0,0c0,0,0,0-.1,0,0,0,0,0,0,0h0ZM103,78.4h0s0,0,0,0h0Z"/>
  <path class="st0" d="M95.8,80.1c.8,0,.9-.3.5-.9-1.2-1.5-2.6-2.8-4.8-2.7h0c-2-.3-3.8.3-5.9,1.1,1.8.9,3.2,1.8,4.7,2.4,1,.5,2.2.6,3.2.2h0c.8,0,1.5-.1,2.3-.1Z"/>
  <path class="st0" d="M203,160.7c-.3,0-.7-.1-1-.1-2-.2-4-.5-6-.7,0,0,.1,0,.2.1,0,0-.1,0-.2-.1h-.5c0,0,0-.2-.1-.2-.7-.1-1.3-.2-2-.3h0c0,0,0,0-.1,0,0,0,0,0,0,0-.8-.3-1.6-.5-2.4-.5l-1-.3c-.6-.4-1.2-.6-1.9-.6h0c-.2,0-.3-.2-.5-.2-5.6-1.8-11-3.8-14.2-9.3-1.1-1.8-2.1-3.7-2.9-5.7-2.7-4.7-3.2-10.3-1.5-15.4,1-3,2.2-6,3.5-8.9,3.3-5.5,7.6-10.3,12.7-14.1,0,0,.1-.1.2-.2l-.2.2c3-.4,6.1-.6,9.2-.6.3,0,.6.1.9.1,1.4.1,2.9,0,4.4.1h.5c.8.5,1.8.2,2.6.4,1,0,1.9,0,2.9,0,.5,0,1,.2,1.4-.2-.5,0-.9,0-1.4,0h0c-1.1.1-2.1-1-3.2-.3h0c-.2-.1-.4-.2-.5-.3h-.3c0,.1-.5,0-.5,0h0c-.4-.7-1.2-.5-1.8-.6h0c-2.3-.6-4.6-1-6.9-1.1h0c-1.7-.7-3.6-.7-5.4-.9-.6-.2-1.3-.3-2-.2-.4,0-.9.1-.8-.6h0c1.2-.7,1.9-1.9,2.8-2.9.4-.1.4-.6.6-.9,1-1.4,1.7-2.9,2.4-4.5h0c1-1.9,1.4-3.9,2.2-5.9.3-1.9,1.2-3.7,1.3-5.7,0,0,0,0,0,0h0s0,0,0,0c.3-.6.5-1.3.6-2.1h0s0,0,0,0h0s0,0,0,0h0c.3-.4.4-.9.3-1.4.4-.5.6-1.1.6-1.7h0s.8-2.5.8-2.5c.4-1,.7-2,.8-3.1.2-.7-.3-.8-.8-.7-.1.3-.3.5-.4.8h0c-.6,1-1.3,2-1.9,2.9-1.5,2-2.1,4.3-2.9,6.6,0,.1,0,.3,0,.4-1.3,3.6-2.9,7.2-4.8,10.5h0c-.2.2-.5.5-.7.7-.7,1.2-1.6,2.2-2.6,3.1-.5,1.1-1.8,1.5-2.4,2.5,0,0,0,0,0,0-.5,0-.6-.3-.9-.5,0,0,0-.1,0-.2,0,0,0-.1,0-.2.1-.7.2-1.5,0-2.2,0-.2,0-.3,0-.4,0-.6-.1-1.2-.2-1.8,0-1,0-2-.2-3,0-.3,0-.6-.1-.8,0-.1,0-.3,0-.4,0-.4,0-.8,0-1.2,0-.2.1-.4.2-.7,0-.4,0-.9,0-1.3,0-.2,0-.4.2-.5.2-.7.5-1.4.9-2,1-1.9,2.9-2.8,4.4-4l.3-.3s0,0,.1,0c0,0,0,0,0-.2.6.1,1-.2,1.4-.4.3-.2.5-.4.8-.6.8-.8,1.6-1.6,2.4-2.4,1.3-1.7,2.6-3.5,3.8-5.4.5-.6.8-1.3,1-2.1.4,0,.7-.3.9-.7.1-.7,1.1-1.2.8-2.1-1.3.2-1.8,1.4-2.7,2.1h0c-1,1.1-1.9,2.3-2.9,3.3-1.4,1.6-3,2.9-4.8,4-.2.1-.5.2-.4.5h0c-1,.5-1.9,1-2.9,1.5h0s0,0,0,0c-.8,0-1.5.7-2.3.3.3-.8.5-1.7.6-2.5h0c.4-.7.7-1.4.9-2.2,1-2.6,1.5-5.3,2.2-8,0-.5,0-.9,0-1.4h0c.3-1,.4-2.1.3-3.1h0c.3-1.3.3-2.5.2-3.8.4-.4.2-.9.3-1.4-.3-.2.2-1.3-.8-.9-.1,1-.2,1.9-.3,2.9h0c0,.7-.2,1.3-.3,2h0c.2.9-.7,1.5-.6,2.3v.3c-1,3.1-2,6.1-3,9.2h0c-1.2,2.8-2.3,5.7-3.1,8.6h0c-1.5,4.6-2.6,9.2-3.4,13.9-.8,4.6-1.5,9.1-3.7,13.3-.4.8-.7,1.6-1.1,2.3,0,0,0,0,0,0-.5-.5-.2-1.4-.9-1.8,0,0,0,0,0,.1,0,0,0,0,0-.1.3-.3.2-.7,0-1.1-.4-2.4-.8-4.9-1.2-7.3-.5-2-.9-4.1-1-6.2,0-2.4.2-4.9.7-7.3v-1.1h0c.2-.9.4-1.8.5-2.8.6-4.4,1.2-8.7,1.8-13.1h0s0,0,0,0c.3-1.4.4-2.8.5-4.2,0-5.7.6-11.3-1.1-16.9.1-.6,0-1.2-.3-1.7-.2-.7-.4-1.3-.6-2h0c-.2-.7-.5-1.4-.9-2-.1-.3-.2-.6-.3-.9-.2,0-.5-.3-.4.2,0,.4.2.8.3,1.2,0,0,.1,0,.2.1h0c0,.6,0,1.1.3,1.7,0,.3,0,.7.2.9h0s0,.5,0,.5c0,.6,0,1.2.2,1.8h0c0,3.2,0,6.5-.3,9.7l-.2.9c-.2,2.6-.6,5.2-1.1,7.8-.2.4-.3.9-.2,1.4,0,0,0,.1,0,.2-.5,2.2-1,4.3-1.7,6.5-.6,2.7-1.5,5.3-2.5,7.9v.8c-.3.8-.5,1.6-.8,2.4-.1-.3-.3-.5-.4-.7-.9-1.5-1.9-2.9-3-4.3-.7-.7-1.5-1.4-2.2-2.1l-.6-.3c-.5-.7-1.2-1.3-2-1.8l-.4-.5h0c-.2-.6-.6-1.1-1.1-1.5h0c-.7-1.5-1.3-3-2-4.6,0,0-.2-.1-.2-.2,0,0,.2.2.2.2-1.4-4.8-3.5-9.3-6-13.6h0c-.2-.8-.7-1.4-1.2-2l-.3-.6c-.4-1-1-2-1.6-2.9h0c0-.4-.3-.7-.6-.9h0c-.2-.7-.9-1-1.2-1.6h0c-.2-.5-.6-1-1.1-1.2-.2.1-.3.4-.3.6,0,.5.4,1,.9,1.1h0c0,.4,0,.7.3,1,.1.3.4.6.7.8-.2.6,0,.9.7.9,0,0,0,0,0,0,0,0,0,0,0,0,0,.1,0,.2,0,.3.4.9.4,1.9,1.2,2.5,0,0,0,.2,0,.2.8,1.9,1.2,3.9,2.3,5.7,0,0,0,0,0,0,0,0,0,0,0,0h0c0,.2,0,.5.1.7,1.3,4.2,2.1,8.5,3.1,12.8.8,1.8,1.3,3.7,2.5,5.3h0c1.2,2.4,2.6,4.6,4.4,6.5.3.4.6.8.8,1.1h0c.2.5.5.9.8,1.2.3.6.6,1.2.9,1.8h0s.2.3.2.3h0c.4,1.1.8,2.2,1.1,3.4l.2.5c0,0,0,.2,0,.3,0,.1,0,.3,0,.4.4,1.4.5,2.9.5,4.3,0,.1,0,.3,0,.4,0,.5,0,1,0,1.5,0,.1,0,.3,0,.4,0,0,0,0,0,0-.5.3-.5.9-.6,1.4-.2,1.6-.5,3.1-1,4.6,0,1.7-.3,3.4-.7,5.1-.1.7-.4.9-.9.3h0c-.4-.3-.3-1-.8-1.2-1.5-2.4-2.4-5.1-2.6-8,0-2.5,0-5,0-7.5-.2-2.5.1-5-.7-7.4h0c-.1-.5-.2-1-.4-1.5-1-2.4-2.3-4.7-4-6.7-2.2-2.3-4.6-4.4-7.3-6.1-.6-.7-1.4-1.3-2.2-1.7-.6-.6-1.2-1.1-1.8-1.7-.5-.4-1.2-.6-1.7-1.2,0-.6-.7-.7-.9-1.2-.2,0-.6-.4-.5.2,0,.4.4.8.8,1h0c.2.4.4.8.6,1.1.5,1.2,1.5,2.2,2.6,2.8,0,0,.1,0,.2,0,0,0,0,0,0,0,0,.7.6,1,1.1,1.3.2,0,.4.1.5.3.2.2.3.3.5.5.1.2.2.3.3.5,1.1,1.3,2.4,2.4,3.3,3.8,2.6,3.2,3.3,7.1,3.4,11.1,0,.6,0,1.2-.1,1.8-.2.8-.4,1.7-.4,2.5,0,.6,0,1.1-.2,1.7,0,0,0,.1,0,.2-.2,0-.1.3-.2.5-.3,1.4-.3,2.9-.8,4.5-1-1.3-1.8-2.8-2.4-4.4-.7-2.1-1.9-3.9-3.4-5.5-.8-.3-1.6-1.3-2.2.3-.4.3-.5.9-.3,1.4h0s0,.9,0,.9h0c0,.3,0,.6,0,.8-.2-.5-.6-.7-1.1-.9h0c-.6-1-1.1-1.9-1.7-2.9h0s0-.3,0-.3c0-.7-.4-1.3-.8-1.8h0c-.6-1-.5-2.4-2-2.8-.3.5-.4,1.2,0,1.7h0c.3,1.2.6,2.5.8,3.8h0s0,0,0,0c0,2,1,3.7,1.7,5.5,0,0,.1.2.2.3,0,0,0,0,0,.1-.1.3-.2.6-.1.9,0,0,0,0-.1,0-2.6-.9-5.3-1.6-8-2.1-.1,0-.2,0-.3,0-1.1-.3-2.2-.3-3.3,0-.3.2-.6,0-.9.2-.8.3-1,.7-.2,1.2.5.1.9.2,1.4.3h0c.9.5,1.7,1,2.6,1.4,1.8,1.1,4,1.4,6,.9.8,0,1.6-.1,2.3-.6h0s0,0,0,0h0s0,0,0,0c.7,0,1.3-.7,2-.3h0c.5.6.9,1.2,1.4,1.8.7.6.5,1.1-.3,1.4-1.2.3-2.3,1-3.5,1.3-.4,0-.7.3-.7.7h-.4c-.7.4-1.4.8-2.1,1.1h0c-.6,0-1.2.3-1.7.6h0c-.6.2-1.2.4-1.7.6h0c-.5,0-1,.2-1.4.3v.5c.9-.1,1.9-.2,2.8-.3,0,0,0-.1.1-.2.4,0,.9,0,1.2-.3h0s0,0,0,0c2.2-.2,4.4-.3,6.5-.5,0,0,.2.2.3.2,2.1-.2,4.3,0,6.4.5,1.4-.2,2.4.9,3.7.9h0c.5.2.9.5,1.4.7,3.7,2,6.6,5.1,8.4,8.9h0c0,.7.3,1.3.7,1.9.1,1.2.4,2.3.8,3.5h0c0,.6,0,1.1,0,1.7.6,2.5,0,4.9-.4,7.2-.8,4.6-2,9.1-3.7,13.5-1.7,4.4-3.5,8.8-6.6,12.4-.3.2-.4.6-.6.9-.2.1-.5.3-.3.6-.3,0-.6.3-.8.6v.4h0c-1.6,1.5-3.8,2.3-6,2.4-6.6.2-13.2,1.5-19.8,1.5-.8,0-1.6.3-2.2.8.9.1,1.8.2,2.7.1,6.3,0,12.7-.3,19,.7,1.6.2,3.2,0,4.6-.8,1-.1,2-.5,2.8-1.2.6-.2,1-.5,1.4-1l.3-.2c.9-.2,1.3-1.1,2-1.5,1-.9,1.8-1.9,2.4-3.1h0c.2-.1.3-.3.3-.5,0,0,0,0,0,0,.7-.4.5.4.5.8,0,2.1.8,4.1,2.2,5.6.9.6,2,1.1,3,1.5.4,0,.7.4,1.1.1.4-.4,0-.7-.1-1-.6-1.3-1-2.8-.9-4.3.2-.8.3-1.6.4-2.5,0,0,0,0,0,0,.2-.1.3-.4.5,0,.1.3,0,.7.2,1,.2,1,.6,1.9,1.1,2.8.1-2.5.2-4.7,1.5-6.6.5,0,.6.3.6.7,0,.5.1,1,.5,1.4h0c0,1.1.3,2.2.9,3.1,1.7,3.4,4.2,5.8,8.1,6.4,2.1.7,4.4.6,6.6.5.4,0,.8-.2,1.2-.3.4-.4,0-.6-.3-.8-.5-.2-1.1-.4-1.7-.4h0c-3-.9-5.9-1.8-7.7-4.6,0-.7-.8-1.3-.6-2.1,1.6.6,2.8,1.8,4.2,2.5h0c0,.2.3.3.5.3,1,.7,2,1.3,3,2,.2.2.4.6.8.3.2-.2.2-.5-.2-.6h0c-.4-.3-.3-1-.8-1.2,0-.4-.4-1,.5-.7.4.1.8.2,1.2.2h0c.8.3,1.5.5,2.3.8,1.5.7,3,1.4,4.4,2.2,1.5.8,3.2.9,4.8.5h0c3.8,0,7.7,0,11.5,0,3.2.2,6.3.1,9.9,0-1.4-.8-3-1.1-4.5-.9ZM167.1,155.5s0,0,0,0c0,0,0,0,0,0h0ZM166.5,106.7s0,0,0,0h0s0,0,0,0ZM171.2,148.6c-.1,0-.2-.2-.1-.3,0,.1,0,.2.1.3ZM164.1,68.6h0c0,0,.1,0,.2,0,0,0-.1,0-.2,0h0ZM157.7,96.4s0,0,0-.1h0c0,.1,0,.1-.1.1h0ZM170.6,103h0s0,0,0,0h0ZM164.2,103.2c-.2,0-.3,0-.5,0,0-.2.2-.3.3-.4.1,0,.2.2.2.4h0ZM149.9,153.7s0,0,0,.1c0,0,0,0,0-.1h0ZM148.6,151.2h0s0,0,0,0h0s0,0,0,0h0ZM167.4,155s0,0,0,0c0,0,0,0,0,0,0,0,0,0,0,0h0ZM187.1,102.1s0,0,0-.1c0,0,0,0,0,.1h0ZM183.3,100.9h0s0,0,0,0h0ZM183.3,99.8h0s0,0,0,0h0s0,0,0,0c0,0,0,0,0,0h0ZM190.5,79.3h0s0,0,0,0h0ZM150.1,71.5h0s0,0,0,0h0ZM149.5,70.9h0s0,0,0,0c0,0,0,0,0,0,0,0,0,0,0,0h0ZM142.3,54.2s0,0,0,0h0s0,0,0,0ZM146.6,73.2h0s0,0,0,0h0ZM148.3,92.9s0,0,0,0c0,0,0,0,0,0,0,0,0,0,0,0h0ZM143.7,90.5s0,0,0,0h0c0,0,0,0,0,0ZM130.4,93.8h0s0,0,0,0h0ZM130.4,93.8h0s0,0,0,0h0s0,0,0,0ZM193.7,77.9l-.2.2c0,0,0-.2.2-.2h0s0,0,0,0ZM166.1,39.9c0,0,.1,0,.2,0,0,0-.1,0-.2,0ZM203.1,161.3c0,0,.2,0,.2,0,0,0,0,0,0,0h-.3Z"/>
  <path class="st0" d="M171.7,15.6c1.3-.9,2.5-1.7,3.8-2.6,1.9-1.2,3.3-2.8,3.3-5.2,0-1,0-2,.2-3,.2-1.1-.4-1-1-.8-1.6.5-3.1,1.2-4.5,2.2-.5.3-.9.7-1.2,1.1-2.4,2.3-1.9,5.2-1.6,8,0,.8.6.6,1,.3Z"/>
  <path class="st0" d="M172,18.9c-2,1.4-3.3,3.4-3.8,5.8h0c-.2.2-.3.4-.5.7-.6,3.3-.7,6.7-.3,10,0,.4-.3,1.3.8,1.2.2-.3.4-.7.4-1.1.1,0,.2,0,.2-.1,0-.2,0-.4.3-.5v-.3c.1,0,.2,0,.2-.1,1-1.3,2.3-2.3,3.3-3.6.6-.8,1.2-1.4,2-2,.3-.5,1-.7.9-1.4h0c.3.2.4,0,.5-.3,1-1.2,1.7-2.6,2-4v-.8h0c1.1-2.9,1.7-6.1,3.9-8.6-3.6,1.1-7,2.9-10,5.3h0ZM168.4,33.5c0-.1,0-.2,0-.3.8-.7,1.5-1.4,2.3-2-.8.8-1.5,1.6-2.3,2.4Z"/>
  <path class="st0" d="M180.9,23.3c.2,1.9.5,3.7.9,5.6.6,0,.7-.6,1.2-.7h0s0,0,0-.1c0,0,0,0,0-.1.5-.2.8-.5,1.1-.9l.4-.5h0c.7,0,1-.4,1.4-.9.7-.4,1.3-1,1.7-1.7h0c1.3-1.2,2.2-2.8,2.6-4.5.4-2.2.4-4.5-.2-6.7-.2-.9,0-2.2-.7-2.4-.8-.2-1.6.8-2.3,1.4h0c-1.5.7-2.8,1.7-3.8,2.9h0c-2.5,2.5-2.9,5.4-2.3,8.7ZM183.9,14.6h0s0,0,0,0h0s0,0,0,0h0Z"/>
  <path class="st0" d="M112.3,109.6q.8-1.3-.6-1.4c-2.1-.2-4.2.3-6,1.4,0,0,0,.2,0,.3h0l-.5.4-.6.2c-.4.5-.8.9-1.2,1.4h0s0,0,0,0c-.3.1-.5.3-.6.6-.3.3-.8.9,0,.9,2,0,4,.5,5.8-.5h0s0,0,0,0c.9-.2,1.7-.8,2.3-1.5.6-.4,1.1-1,1.5-1.7ZM107.1,109.9h0s0,0,0,0c0,0,0,0,0,0h0s0,0,0,0h0ZM103.4,113s0,0,0,0c0,0,0,0,0,0,0,0,0,0,0,0h0ZM108.3,112.7c0,0,.1,0,.2.1,0,0-.2,0-.2-.1h0Z"/>
  <path class="st0" d="M213.7,30.7c.1.4.2.8.2,1.3.3.4.5.7,1,.3,1.4-.9,2.5-2.4,3-4,.2-1.3.2-2.6.1-3.8,0-.5-.2-1.1-1-.8-.9.9-1.9,1.7-2.8,2.6-.9,1.3-1.1,3-.5,4.5Z"/>
  <path class="st0" d="M213.3,23c.6-.1,1.1-.5,1.4-.9.3-.3.6-.7.9-1.1.4-.9.5-1.9.2-2.8-.1-.4-.8.1-1.3,0-1.6,1.1-2.1,3.2-1.2,4.9h0Z"/>
  <path class="st0" d="M233.2,55.3h0c-.5.3-.9.8-1.2,1.4-.3.2-.5.6-.5.9,0,0-.2,0-.3,0,0,.5,0,.9,0,1.4h0s0,0,0,0c-.5,1.2-.4,1.4.3,1.5h0c1.6-.5,3.2-1,3.8-2.8h0c.7-.8.6-1.8,1.1-2.7.4-.4.5-1.1.2-1.6-.1-.3-.5,0-.7.1h0c-1,.4-1.9,1-2.6,1.7ZM231.6,58.3c0,0,0,.1,0,.2h0c0-.2,0-.2,0-.2h0Z"/>
  <polygon class="st0" points="231.2 57.7 231.2 57.7 231.2 57.7 231.2 57.7"/>
  <path class="st0" d="M100.4,36h0c.2.6.6,1.1,1.2,1.3h0s0,0,0,0c.4.4.8.8,1.3,1.1,1.1.8,1.3.7,1.5-.7.2-2.1-.6-4.2-2.3-5.6h0c-.3-.1-.5-.3-.8-.4h0c-.2-.2-.4-.4-.7-.5-.4-.2-.7-.6-1.1-.4-.4.2-.2.8-.2,1.2,0,1.4.3,2.7,1.1,3.9ZM102.2,33.1s0,0,0,0h0s0,0,0,0c0,0,0,0,0,0,0,0,0,0,0,0h0ZM101,36.3h0s0,0,0,0h0s0,0,0,0h0Z"/>
  <path class="st0" d="M223.7,66.6c.4-.2.7-.5.9-.9,1.6-2,2.6-4.5,2.9-7.1,0-.5.1-.8-.6-.7-3.9.4-7.6,1.1-10.6,4-1,.9-2,1.8-3,2.7,0,0,0,.1,0,.2v-.2c-.3.1-.6.3-1,.4-.4.8.2.6.6.6h0s0,0,0,0c.7.3,1.5.7,2.2,1.1,2.6,1.8,6.1,1.9,8.8,0Z"/>
  <polygon class="st0" points="212.2 64.9 212.2 64.9 212.2 64.9 212.2 64.9"/>
  <path class="st0" d="M200.9,42.4c-.7.6-1.3,1.3-1.7,2-.7.9-1.5,1.7-2.3,2.8,4.2-.6,8.2-.7,12.1-1.1,1.4-.5,3-.7,4.1-1.9,1-.5,1.8-1.3,2.3-2.4h0s0,0,0,0h0s0,0,0,0c2.6-2.7,2.7-6,2.8-9.7-1.4,1.6-3.4,2.6-5.5,2.9-3.8.4-7.2,1.7-9.7,4.7,0,.6-.6.7-.9,1.1-.1,0-.2.2-.1.4-.4.3-.8.7-1,1.1ZM204.6,39.2h0s0,0,0,0h0s0,0,0,0h0s0,0,0,0h0s0,0,0,0Z"/>
  <path class="st0" d="M209.7,47.6c-1.8,0-3.5.5-5,1.4-.2.3-.4.6-.6.8-1.2,1.1-1.9,2.7-1.9,4.4,0,.4,0,.7.5.6,1.9-.3,3.9,0,5.4-1.5h0c1.7-.8,2.1-2.5,3.1-3.9.6-2,.6-1.9-1.5-1.9Z"/>
  <path class="st0" d="M191.6,52.1c-4.4,1.7-7.1,7.8-5.2,12.9,1.1-.8,2.3-1.6,3.5-2.2,3.4-1.1,6-3.8,6.9-7.2h0s.3-1.1.3-1.1c1.1-.7,1.3-1.9,2-2.9.6-.4,1.1-.9,1.4-1.5-3.2,0-6.2.3-8.8,2,0,0,0,0-.1,0Z"/>
  <path class="st0" d="M224.8,42.9c-.3,0-.5.3-.5.6h0c-1.2.9-1.2,2.3-1.3,3.8,1.3-.7,2.6-1.2,3.9-1.7.9-.4,1.6-1.1,2-2,.2-.5.7-1.2.4-1.6-.4-.6-1.2-.3-1.7-.2-1,0-2,.4-2.7,1.1Z"/>
  <path class="st0" d="M236.1,61.6c-5.3-.9-8.4,2.4-10.3,5.8-.3.5-.3.8.5.7,1.8,0,3.6,0,5.3,0,1.4,0,2.7-.4,3.8-1.2.7-.2,1.2-.6,1.7-1.2h0c1.2-.9,2.4-1.8,3.7-2.8-1.4-.7-3-1.2-4.6-1.3Z"/>
  <path class="st0" d="M230.6,74.4h0s.3-.3.3-.3c1.2-.2,2-1.2,3-1.8.6-.3,0-.6-.3-.8-1-.6-2.1-1.1-3.3-1.2h0c-3.6-1.1-7.6-.4-10.6,1.8-.4.3-.9.6-.3,1.1,1.3.8,2.3,2,3.8,2.4.5.3,1,.4,1.5.3h0s0,0,0,0h0,0c.1,0,.3,0,.4,0,1.9.4,3.9-.2,5.3-1.6h0Z"/>
  <path class="st0" d="M227.4,48.7c-2.4.6-4.5,2-6,4-.2.1-.3.2-.5.4-.1.3-.2.6-.3.8.6-.1,1.2-.2,1.7-.3h0s0,0,0,0l1.1.3c0,0,.2,0,.3,0,1.3.6,2.7.8,4.1.3h0c.8,0,1.5-.3,2-.8.9-.3,1.7-1,2.3-1.8,1-.7,1.8-1.5,2.4-2.6h0s0,0,0,0h0s0,0,0,0c.7-.8.7-.9.2-.9-2.4,0-4.9-.6-7.3.5h0Z"/>
  <path class="st0" d="M213,87.1c0,0,0-.1,0-.2-1.3-1.3-2.9-2.2-4.7-2.5-2-.5-4-.5-5.9,0-1,.4-2.1.8-3,1.3-.2,0-.4.2-.5.3-.2.5-.9.5-1,1.3,1.8.3,3.5,1.1,4.9,2.3,1.1.8,2.3,1.4,3.5,1.9.2.2.6.2.8,0,0,0,0,0,0,0h0s0,0,0,0c.6.2,1.2.3,1.8.1h0c2.6.3,5.3.2,8.3.9-1.1-2.1-2.7-3.9-4.5-5.4Z"/>
  <path class="st0" d="M197.5,67.5c.4,0,.7.1,1.1.2,1.5-.1,3,.4,4.4-.2.2,0,.4-.1.5-.2h0s0,0,0,0l1.7-.4.6-.6h.3c1.7-1,3.1-2.6,4-4.4.1-.2.2-.4.3-.5,1.2-1.9,2.9-3.5,4.9-4.7-2.4.2-4.5-.3-6.4.3h0c-6,.4-10.6,2.7-12.6,8.8-.4,1.1,0,1.7,1.2,1.7Z"/>
  <path class="st0" d="M221.6,38.9c2.2-1.4,4.1-3.1,4.2-6,0-.7.4-1.7-.3-2-.5-.2-1.3.4-1.8.9-.8.3-1.4.9-1.8,1.7h0c-1.4,1.4-1.1,3.3-1,5,0,.5.4.5.7.3Z"/>
  <path class="st0" d="M204.3,70.6h0c-2.2.3-4.3,1.5-5.7,3.2-.7,1.2-1.2,2.5-1.5,3.8-.4,2.4-.4,2.5,2,2.5.7,0,1.3,0,2,0,2.1,0,4.2-.3,6.2-1.2,2-.4,3.8-1.3,5.2-2.8h0c1-.7,1.9-1.5,2.6-2.4h0c.3-.2.5-.4.8-.6.4-.7,1.4-.8,1.7-1.6-.4,0-.9,0-1.3,0-2.7,0-5.2-1.3-7.9-1.2h0s0,0,0,0h0c-.6-.2-1.2-.2-1.8,0h0c-.8-.1-1.6,0-2.3.3ZM216.4,72s0,0,0-.1c0,0,.1,0,.2,0h-.1Z"/>
  <path class="st0" d="M239.6,95.8h0c-1.6,0-3.3-.3-4.9-.6,0,0,0-.2,0-.2-.6-.1-1.1-.2-1.7-.3-2.4-1.1-5.2-1.4-7.8-.9-2.5.2-4.8,1.6-7.5,1.7,1.4,1.8,2.9,3.5,4.6,5,.6.3,1.1.6,1.7.9h0c.3.2.5.4.8.5,2.8,1.1,5.9,1.1,8.7,0,.2-.2.4-.3.7-.5,2.1-.6,3.5-2.3,5.1-3.6.1-.3.3-.5.4-.8h0s0,0,0,0h0c.4-.2,1-.4.9-1,0-.5-.6-.2-.9-.2Z"/>
  <path class="st0" d="M154.2,56.5c-.1-2.5-.2-4.7-.4-6.9,0-2.5-.9-4.8-2.5-6.8-1.9-2.4-4.5-3.6-7-5.1-.3-.4-.7-.7-1.2-.9h0s-.6-.7-.6-.7c-.3-.3-.6-.6-.9-.9l-.2-.3c-.6-.9-.6-.9-1-.2,0,0,.2,0,.2.1.2,1.3.4,2.6.5,3.9,0,1.2.2,2.4.5,3.6,0,0,.1,0,.2,0,0,0,0,0,0,0h0s0,0,0,0c0,.9-.2,1.8.3,2.6h0c0,.3,0,.6,0,.8.6,1.2,1.1,2.5,1.7,3.7,1.1,1.4,2.4,2.5,4,3.3h0c2,1.5,4.3,2.3,6.5,3.8ZM144.9,49h0s0,0,0,0h0ZM144.9,49h0s0,0,0,0h0ZM142,43.5s0,0,0,0h0s0,0,0,0ZM143.1,36.9h0s0,0,0,0h0Z"/>
  <path class="st0" d="M144.8,20.4l-1.7-2.3c-.8.3-.3.9-.3,1.4.2,1.8.3,3.5.3,5.3-.1.8,0,1.5.3,2.2,0,1.7.4,3.4,1.1,4.9h0c0,.6.3,1.1.6,1.6,1,1.8,2.3,3.4,3.9,4.7.9.5,1.8,1,2.5,1.7.3.3.6.6,1.1.4h0s0,0,0,0h0c.5.5,1,1,1.7,1.4h0c0,.2,0,.5.1.6.3.2.5.7,1,.7.4-2.9.6-5.9.3-8.9,0-.6,0-1.4-.8-1.7h0c0,0,0-.1,0-.2,0-.7,0-1.3-.3-2-1.2-2.5-2.9-4.6-5.1-6.3-1.6-1.2-3.2-2.4-4.8-3.6ZM147.9,34.2h0s0,0,0,0c0,0,0,0,0,0h0ZM143.6,21.2s0,0-.1.1c0,0,0,0,0-.1,0,0,0,0,.1,0h0Z"/>
  <path class="st0" d="M179.3,53.1c.4-2.8.6-5.6.6-8.4h0c0,0,.2,0,.2,0,0-3.1,0-6.1-.1-9.2,0-.1,0-.2,0-.3,0-1.1-.1-2.1-.3-3.2-.2,1.1-.5,2.1-.7,3.2,0,.1,0,.3,0,.4-.9,2.8-1.4,5.8-2.3,8.7-.2.5-.6,1.1-.4,1.7h0c-.4.7-.7,1.5-.7,2.3-.2.8-.4,1.7-.6,2.5h0c-1,2.9-2,5.8-3,8.7-1.2,2.8-2.1,5.7-2.9,8.7-.7,2.5-.5,5.1.6,7.5.3.6.8,1.7,1.2,1.5.7-.2,1-1.2,1-2h0c.2,0,.5-.1.6-.3,2.5-4.2,4.4-8.8,5.4-13.6h0c.3-1.5,1-2.8.8-4.4.3-.3.4-.7.3-1.1h0c.3-.8.4-1.7.3-2.6h0ZM178.9,51.8h0s0,0,0,0c0,0,0,0,0,0ZM179,39.6s0,0,0,0c0,0,0,0,0,0,0,0,0-.1,0-.2,0,0,0,.2,0,.2ZM172.3,60.8h0s0,0,0,0h0ZM171.7,75h0s0,0,0,0h0Z"/>
  <path class="st0" d="M171,47.5c.3-.7.6-1.5.7-2.2h0c1-1.3,1.9-2.7,2.9-4h0c2.1-1.8,2.1-4.3,2.2-6.7,0-1.1.6-2.7-.2-3.1-1-.5-1.9,1-2.9,1.5-.2.1-.2.3-.2.5-.3.3-.5.6-.8.8,0,0,0,0,0,0-.2-.2-.4.1-.6.3-1.5,2.1-2.2,4.7-2,7.2h0c0,1.9.2,3.9.7,5.7Z"/>
  <path class="st0" d="M165.3,19.6c.4-1.2,1.2-1.9,1.3-3h0c.1-.4.2-.7.3-1.1h0c.7-1,1.2-2,1.6-3.1.9-2.7.5-5.6-1.1-7.9h0c-1.1-1.1-2-2.2-2.8-3.5-.1-.4-.1-1-.7-1-.3,0-.5.4-.5.8h0c-.8,1.3-1.4,2.6-1.8,4-1.4,4.1-1.2,8,2,11.3.7,1.1,1.2,2.3,1.7,3.5ZM164.2,16.4h0s0,0,0,0h0s0,0,0,0Z"/>
  <path class="st0" d="M163,60.7c.3-4.1,0-7.9-3.4-10.8-.7-.6-1-.6-1.3.2-1.1,2.6-1.8,5.3-.7,8.1h0c.2.1.4.2.5.3h0c.8,1.7,2.5,2.3,4.1,2.8.5.2.8-.1.8-.7Z"/>
  <path class="st0" d="M109.6,31.4s0,0,.1,0h-.1c.4.5.9,1.2,1.6.9.6-.2.6-1.1.7-1.6.5-2-.1-4.1-1.7-5.4l-.9-.6-.3-.5c-.3-.2-.7-.4-1-.6-.4-.2-.6-.3-.8.3-.7,2.7.2,5.6,2.3,7.5Z"/>
  <path class="st0" d="M107.1,34c-.2,2.9.6,5.7,2.2,8,2.1,2.7,5.3,4.2,8.7,4.1h0s0,0,0,0c.8,1,1.9.4,2.8.6.8,0,1.6,0,2.4,0,.5,0,.9,0,1.4.1.2,0,.3,0,.5,0,.3,0,.7,0,1,0,.1,0,.2,0,.3,0,.4-.1.9.2,1.1-.4.1-.2,0-.6-.2-.6-.9,0-.9-.9-1.1-1.4-.4-.9-1.3-1.5-2.2-1.7-.5-.4-.9-.8-1.3-1.3-.8-1.2-1.9-2.2-2.7-3.4-.7-1-1.8-1.7-3-1.9-.2,0-.5,0-.6-.2-1.9-.8-3.8-1.4-5.8-1.8-.9-.2-1.5-1-2.3-1.4h0c-.3-.3-.6-.6-.9-.9,0,0-.1-.1-.2-.2,0,0-.1,0-.1,0-.3.7-.3,1.5,0,2.2h0Z"/>
  <path class="st0" d="M158.1,63.5c-.2-.7-.6-1.3-1.2-1.8h0c-.2,0-.4-.2-.5-.3-1-1.6-2.7-2.4-4.1-3.5-.3-.2-.7-.4-.7.2,0,3.5-.7,7.1,1.6,10.1,1.1,1.3,2.2,2.5,3.5,3.5h0c0,0,.1.2.2.3h0c0,.2,0,.3.1.5.5.5.9.9,1.2-.2.3-.8.5-1.5.5-2.4h0c.6-2.2.3-4.5-.6-6.6Z"/>
  <path class="st0" d="M153.9,23.2c.6.6.7,1.6,1.4,2.1h0c0,0,0,0,0,0h0s0,0,0,0c1,2,2.7,3.4,4.3,4.9h0c.2.6.6,1,1.2,1.2.6-3.7,2.4-7.2,2-11.1-.4-1.5-1.2-2.9-2.3-4.1h0c-1.2-2-2.9-3.6-3.8-5.7,0-.3,0-.6,0-.9-.3-.3-.7-.4-1.1-.3,0,.2,0,.4,0,.6h0s0,0,0,0c-1.9,4.2-3.2,8.5-1.7,13.2ZM157.1,13.9s0,0-.1,0c0,0,0,0,0,0,0,0,0,0,0,0h0ZM160.5,16.9h0s0,0,0,0h0Z"/>
  <path class="st0" d="M162.7,38.4c-.3-.6-.7-1.2-1-1.8-.2-.9-.9-1.5-1.2-2.3-.8-.6-1.4-1.6-2.7-1.9,0,.8,0,1.5.4,2.2,0,0,0,.2,0,.2h0v.3c.3,1.6,1,3.1,2,4.3h0c.8,2,2.1,3.8,2.4,6,.9,1.2.6,2.8,1.3,4.1.3-.5.5-1.2.4-1.8,0-3.2-.8-6.3-1.5-9.4ZM163.2,45.5s0,0,0,0c0,0,0,0,0,0,0,0,0,0,0,0,0,0,0,0,0,0Z"/>
  <path class="st0" d="M88.6,100.2c2.8,2,6.2,2.8,9.5,2.4.7-.3,1.5-.6,2.2-.9.7-.3,1.4-.4,1.8-1.1h0c.3-.2.6-.4.9-.6l.9-1.1c1.2-1,2.3-2.2,3.2-3.4-1.7-.3-3.4-.7-5.1-1.3-3-1-6.2-1-9.2,0-2.9.9-5.8,2.1-9.2,1.3.7.9,1.2,1.6,1.8,2.3,1,.8,2.1,1.7,3.1,2.5Z"/>
  <path class="st0" d="M95.7,106.7c-1.3-.3-2.6-.5-3.9-.3-1.4,0-2.7.4-3.8,1.4h0c-1,.5-1.9,1.2-2.5,2.1-.2.3-.6.6-.5,1,.2.5.7.3,1,.3.8,0,1.6,0,2.4,0,3.4.3,5.5-1.7,7.2-4.4Z"/>
  <path class="st0" d="M120.4,90.3h0s0,0,0,0c.3,0,.6.2.8-.2,1.6-1.3,3.1-2.8,5.4-2.8.5-.4.1-.7,0-1-.1-.1-.2-.2-.4-.3-3.4-2.4-7.7-2.9-11.6-1.5-.3.1-.4.4-.4.7h0c-.2-.1-.4-.3-.5-.2-1.4.9-2.9,1.6-3.7,3.1h0c-.7.9-1.4,1.9-2.1,2.8-.3.4-.9.9-.3,1.5.6-.3,1.2-.5,1.8-.5,2.9-.6,5.9-.2,8.9-.7.6-.6,1.6-.3,2.1-1ZM109.5,90.9h0s0,0,0,0c0,0,0,0,0,0Z"/>
  <path class="st0" d="M239.5,109.9c-2.9-3-6.3-4.3-10.6-3.2,1.4,1.8,2.6,3.8,5,4.2,1.6.1,3.2.2,4.9.2,1.1,0,1-.4.7-1.2h0Z"/>
  <path class="st0" d="M229.2,109.3h0c-1.2-1.7-3-2.3-4.7-3.1-1.5.1-3.1-.2-4.6.2-1.3-.2-.7.6-.5,1.1.4.3.7.7,1.1,1,1,1.5,2.6,2,4.1,2.8,1.3,0,2.6,0,3.8,0,.7,0,1.7.4,2-.2.3-.6-.5-1.3-1.1-1.8ZM220.6,107.2h0s0,0,0,0c0,0,0,0,0,0h0Z"/>
  <path class="st0" d="M219.3,109.6c-.5-.2-1-.5-1.4-.9-1.7-.5-3.5-.7-5.2-.6-1.1,0-1.2.3-.6,1.2,2,3.2,5.9,4.8,9.6,4,.9-.2.4-.7.2-1-.8-.9-1.7-1.8-2.6-2.7Z"/>
  <path class="st0" d="M200.8,97s0,0,0,0c1.3-.4,2.4-1.1,3.5-2h0s0,0,0,0c.5-.2.9-.4,1.4-.7l1.3-1c-4.5-1.3-8.8-2.5-13.4-1.5-.2.2-.4.4-.7.5h0c-1.5.5-2.9,1.5-4,2.7h0c-.5.6-.9,1.1-1.4,1.7-.3,0-.2.4-.3.5-.2.1-.3.4-.2.6.3.2.5.1.8,0,1.7-.5,3.5-.5,5.2-.1,1.9.2,3.9.7,5.8-.1h0c.7,0,1.4-.2,1.9-.5Z"/>
  <path class="st0" d="M102.2,42.5c.4,1.3,1,2.5,1.7,3.6l.3.5c1.4,1.7,3,3.2,4.8,4.3.4.5,1,.8,1.7.9.4.3.8.6,1.2.9.8.5.7-.1.6-.6-.4-.3-.4-.9-.8-1.1h0s0,0,0,0l-.6-.9c0-.8-.5-1.2-.9-1.7h0s0,0,0,0c-1.4-2.2-3.2-4.1-5.2-5.7-.5-.5-1.1-.9-1.8-1.1-1-.2-1.3,0-1,.9Z"/>
  <path class="st0" d="M90.1,48.7h0c.2.3.4.8.9.6,1.3,1.6,2.8,3,4.4,4.3,1.6.8,3.4.6,5.1.6.4-.2.8-.3,1.2-.5,0,0,.1.1.2.2.8.2,1.6.1,2.4-.2-.4-1.3-1.7-2-2.6-2.9-.2-.2-.4-.3-.6-.5-1.3-.9-2.8-1.5-4.4-1.9-2.1-.6-4.3-.2-6.5-.3-.7,0-.6.4-.1.7ZM94.1,49s0,0,0,0c0,0,0,0,0,0,0,0,0,0,0,0h0ZM101.6,53.4h0c0,0,0,0,0,0,0,0,0,0,0,0h0Z"/>
  <path class="st0" d="M90.5,72c1.9,1.1,3.4,2.6,5.3,3.4,2.1.8,4.3,1.2,6.4,0h0c1-.3,1.9-.9,2.7-1.6,1.2-.9,1.2-1,0-1.9-.3-.2-.6-.3-.9-.4h0c-4.5-2.6-8.9-2.1-13.4.5Z"/>
  <path class="st0" d="M90,58.8c.8.8,1.9,1.3,2.9,1.7,1,.4,1.2,0,1-.8-.5-2.8-2.5-5.2-5.2-6.2-.8-.2-.8.2-.7.7.3,1.6,1,3.2,1.9,4.6Z"/>
  <polygon class="st0" points="90.1 58.8 90 58.8 90 58.8 90.1 58.8"/>
  <path class="st0" d="M85.1,63.5h0c.3.4.6.8,1.2.9h0c1.1,1.2,2.5,2.2,4,2.9h0c.5.4,1.1.7,1.7.7,2.5.4,4.9,0,7.6.1-.4-1-.9-1.9-1.7-2.7h0c0-.2-.1-.3-.2-.5-.5-.2-.7-.9-1.3-.9h0c-.2-.5-.7-.8-1.2-.9h0c-1.8-1.4-4.2-1.9-6.4-1.4-.9,0-1.7.1-2.6.3-.3.4-.8.2-1.2.4-.3.1-.7.1-.7.5,0,.4.4.5.7.6ZM85.7,63.4h0s0,0,0,0h0s0,0,0,0h0Z"/>
  <path class="st0" d="M96.1,43c0,.9.6,1.6,1.5,2,.4.5,1,.9,1.7.9h0c.2.1.4.2.7.3.7.1,1.6,1.2,2,.6.5-.7,0-1.8-.6-2.7-.2-.2-.3-.4-.5-.7,0,0,0,0-.1,0h0s.1,0,.1,0c-.7-1.3-2-1.4-3.2-1.4h0s0,0,0,0h0s0,0,0,0c-.5-.4-1.2-.5-1.7-.2-.3.2,0,.8.2,1.1h0Z"/>
  <path class="st0" d="M186.8,27.6c-3.4,2.8-4.9,7.3-3.8,11.6,0,1.2,0,2.3.3,3.4.3,1.1.5-.2.8,0,0,0,0-.2,0-.3h0s0,0,0,0v-.3s0,0,0,0h0l.3-.3h0c.5,0,1-.4,1.2-.8h0c1.1-.6,2.2-1.3,3.1-2.1h0c.6,0,.9-.4,1.2-.9,1.4-1.1,2.4-2.6,2.9-4.3h0c1.8-3.9.8-7.8,0-11.9-.8.7-1,1.6-1.8,2l-.9,1.1c-1.1.9-2.3,1.7-3.4,2.6ZM189.3,38h0s0,0,0,0h0,0Z"/>
  <path class="st0" d="M209.9,31.1c2.4-1.8,2.9-4.4,2.8-7.2,0-.5-.2-.7-.7-.5-3.7,1.6-5.6,5.7-4.4,9.6.8-.5,1.6-1.2,2.3-1.9Z"/>
  <path class="st0" d="M127.9,79.8c0-2.3-.3-4.4-2-6h0l-.3-.3c0-.5-.4-.8-.8-1h0c-2.6-2.1-5.6-2.5-8.7-2.3-2.8.2-5.6,1.3-8.4,1.3-.1.6.5.7.4,1.1l.8.6c.7.5,1.3,1.1,1.9,1.7.2.2.4.5.7.3,0,0,0,0,0,0,0,0,.1.2.2.3h0c.4.5.9.9,1.3,1.4,1,.5,1.8,1.4,3,1.6h0c.7.4,1.5.7,2.4.8h0c1.6.5,3.3.8,5.1.9,1.3-.1,2.6-.1,3.9,0,.5.1.6,0,.6-.5ZM116,78.4h0s0,0,0,0h0Z"/>
  <path class="st0" d="M120.8,54.7c2,.4,2.3,0,1.7-2-1.1-3.8-5-6.1-8.9-5.2-.6.1-.7.4-.5.9.5,1.4,1.3,2.7,2.3,3.8.2.4.4.7.8.9h0c1.2,1.4,2.9,1.4,4.6,1.7Z"/>
  <path class="st0" d="M107.1,67.5s0,0,0,0c.6.2,1.3.2,1.8-.2,1.1-.5,2.1-1.1,3.1-1.7.2-.2.4-.4.3-.8-.5-.4-1-.7-1.5-1.1-2.3-2.1-4.7-4.2-7.8-5.2-1.5-.2-3.1-.4-4.6-.6h0c-.3-.2-.7-.4-1-.1-.3.3-.1.7,0,1h0c.4,4,1.8,7.3,5.8,8.9,1.2,0,2.5.5,3.7-.2Z"/>
  <path class="st0" d="M128.8,69c0,2.6.6,5.1,1.6,7.4h0c.4,1.3,1,2.6,1.9,3.7,1.9,2.5,4.7,4,7.4,5.5.7-.1,1,.7,1.9.5-.9-1.8-1.7-3.5-2.5-5.3-1.4-2.7-3.1-5.2-5-7.6-.3-.2-.4-.6-.8-.6-.1-.1-.2-.3-.3-.4,0-.2,0-.3-.2-.4-1-.8-1.7-2-2.9-2.6h0s0,0,0,0l-.3-.3h0c-.4-.5-.9-.7-.8.1Z"/>
  <path class="st0" d="M131.9,61.6c1.3.4,2.3,1.3,3.7,1.5.7.4,1.5.7,2.1,1.1,1.1.7,1.3.3,1.4-.8.3-3-.5-5.9-2.1-8.4-.7-.4-1.1-1.3-1.9-1.5h0s-.6-.7-.6-.7c-3.2-1.8-6.8-2.7-10.4-2.6,1.5,1.5,2.7,3.4,3.5,5.4.4,1.1,1,2.1,1.7,3,.5,1.4,1.7,2.1,2.6,3.1ZM136.4,63.1s0,0,0,0c0,0,0,0,0,0h0Z"/>
  <path class="st0" d="M128.6,66.1c-.5-1.8-1.4-3.5-2.5-5-.6-.5-1.2-1-1.9-1.5-2.5-1.9-5.5-2.3-8.5-2.8-1.1,0-2.1,0-3.2,0h0s0,0,0,0c-.6,0-1.2,0-1.8,0-.4,0-.7,0-.4.6.2,0,.4.2.6.3h.5c0,0,0,0,0,0,.2.4.5.6.9.8h0c1.7,1.4,2.8,3.4,4.3,5.1h0s0,.4,0,.4c.7.5,1.1,1.4,1.9,1.8h0c0,0,0,.2.2.2,2.9,2.3,6.1,2.2,9.4,1.3.7-.2.6-.7.5-1.3ZM116.6,62.9h0c0,0,.1,0,.1,0,0,0,0,0-.1,0h0Z"/>
  <path class="st0" d="M180.7,87.6c.5-.4,1.1-.7,1.7-1,3.1-1.1,4.6-3.5,5.1-6.5,0-.4.4-.9,0-1.2-.4-.3-.9,0-1.3.2-1,.5-2,1-2.9,1.5h0c-2,1.8-3,4.4-2.6,7.1Z"/>
</svg>