<?xml version="1.0" encoding="UTF-8"?>
<svg id="Layer_1" xmlns="http://www.w3.org/2000/svg" viewBox="0 0 215.9 215.9">
  <defs>
    <style>
      .cls-1 {
        fill: #fff;
      }

      .cls-1, .cls-2, .cls-3, .cls-4 {
        fill-rule: evenodd;
      }

      .cls-5 {
        fill: #f4fbfe;
      }

      .cls-2 {
        fill: #b3962d;
      }

      .cls-3 {
        fill: #231f20;
      }

      .cls-4 {
        fill: #838485;
      }
    </style>
  </defs>
  <path class="cls-1" d="M188.94,114.49l26.95-4.49-6.86-41.18-27.53,4.58c-2.99-6.37-6.79-12.31-11.33-17.7l15.65-21.97-34-24.22-15.8,22.18c-6.86-2.53-14-4.11-21.28-4.72L110.35,0l-41.2,6.71,4.49,27.54c-6.44,3-12.45,6.83-17.91,11.41l-22.12-16.05L9.09,63.41l22.59,16.39c-2.46,6.67-4.03,13.61-4.68,20.72L0,104.7l6.39,41.25,27.58-4.27c2.95,6.47,6.73,12.5,11.27,18l-16.22,21.99,33.6,24.78,16.56-22.46c6.92,2.62,14.15,4.27,21.55,4.92l4.27,26.99,41.23-6.52-4.36-27.56c6.65-3.06,12.85-7,18.46-11.75l22.17,15.98,24.41-33.87-22.64-16.32c2.52-6.89,4.08-14.05,4.67-21.38h0Z"/>
  <path class="cls-4" d="M185.64,111.51l26.25-4.37-5.71-34.32-26.74,4.45c-3.38-7.88-8.03-15.08-13.68-21.36l15.22-21.37-28.34-20.19-15.35,21.55c-7.94-3.24-16.53-5.22-25.53-5.65l-4.28-26.26-34.34,5.59,4.36,26.75c-7.96,3.39-15.24,8.06-21.58,13.77l-21.54-15.63-20.43,28.16,21.94,15.92c-3.18,7.77-5.13,16.18-5.62,24.97l-26.3,4.08,5.33,34.38,26.79-4.15c3.33,7.99,7.95,15.3,13.6,21.68l-15.8,21.42,28,20.65,16.09-21.82c8,3.34,16.67,5.38,25.76,5.87l4.15,26.28,34.36-5.43-4.23-26.77c8.17-3.43,15.63-8.22,22.11-14.08l21.59,15.56,20.34-28.22-22-15.86c3.22-7.97,5.17-16.58,5.58-25.61h0Z"/>
  <path class="cls-3" d="M172.4,107.96c0,16.7-6.35,31.92-16.77,43.37-11.79,12.96-28.79,21.1-47.69,21.1-35.6,0-64.46-28.86-64.46-64.46,0-35.6,28.86-64.46,64.46-64.46,16.68,0,31.87,6.33,43.32,16.72,12.99,11.79,21.15,28.81,21.15,47.74h0Z"/>
  <path class="cls-4" d="M107.93,168.59c-33.43,0-60.64-27.2-60.64-60.64s27.2-60.64,60.64-60.64c15.1,0,29.57,5.59,40.75,15.73l-15.78,17.38c-6.85-6.21-15.71-9.64-24.97-9.64-20.49,0-37.16,16.67-37.16,37.16s16.67,37.16,37.16,37.16c10.44,0,20.46-4.43,27.5-12.16l17.36,15.8c-11.47,12.61-27.82,19.84-44.86,19.84h0Z"/>
  <g>
    <path class="cls-2" d="M107.26,135.89c-8.37,0-14.98-2.45-19.64-7.28-4.65-4.83-7.01-11.69-7.01-20.38s2.41-15.79,7.15-20.53c4.75-4.74,11.65-7.14,20.53-7.14,7.22,0,13,1.65,17.2,4.91,4.21,3.27,6.55,7.95,6.96,13.91l.02.27h-11.92l-.03-.21c-.47-2.86-1.75-5.07-3.8-6.57-2.06-1.5-4.9-2.27-8.42-2.27-5,0-8.85,1.5-11.44,4.47-2.6,2.98-3.92,7.4-3.92,13.16s1.31,9.92,3.9,12.95c2.58,3.01,6.31,4.54,11.08,4.54,3.45,0,6.31-.82,8.5-2.44,2.18-1.62,3.62-3.97,4.27-7l.04-.2h11.83l-.02.27c-.44,5.96-2.96,10.76-7.5,14.28-4.53,3.5-10.51,5.28-17.77,5.28Z"/>
    <path class="cls-5" d="M108.3,80.81c7.19,0,12.88,1.62,17.05,4.86,4.17,3.24,6.46,7.81,6.87,13.73h-11.44c-.48-2.94-1.79-5.19-3.9-6.73-2.12-1.54-4.97-2.31-8.57-2.31-5.1,0-8.98,1.52-11.63,4.56-2.65,3.04-3.98,7.48-3.98,13.32s1.32,10.02,3.96,13.11c2.64,3.09,6.4,4.63,11.27,4.63,3.52,0,6.4-.83,8.65-2.49,2.24-1.66,3.7-4.05,4.36-7.15h11.36c-.43,5.91-2.9,10.61-7.4,14.1-4.5,3.49-10.38,5.23-17.62,5.23-8.34,0-14.83-2.4-19.46-7.21-4.63-4.81-6.94-11.54-6.94-20.21s2.36-15.64,7.08-20.35c4.72-4.71,11.5-7.07,20.36-7.07M108.3,80.31h0c-8.95,0-15.91,2.43-20.71,7.21-4.79,4.79-7.23,11.75-7.23,20.7s2.38,15.68,7.08,20.56c4.71,4.88,11.37,7.36,19.82,7.36,7.32,0,13.35-1.79,17.93-5.33,4.6-3.56,7.15-8.42,7.6-14.46l.04-.54h-11.9s-.4,0-.4,0l-.08.4c-.63,2.97-2.04,5.28-4.17,6.86-2.15,1.59-4.96,2.39-8.35,2.39-4.7,0-8.36-1.5-10.89-4.45-2.55-2.98-3.84-7.28-3.84-12.78s1.3-10.06,3.86-12.99c2.54-2.91,6.33-4.39,11.26-4.39,3.47,0,6.26.75,8.28,2.22,2,1.46,3.24,3.61,3.7,6.41l.07.42h12.4l-.04-.53c-.42-6.03-2.79-10.77-7.06-14.09-4.24-3.29-10.08-4.96-17.35-4.96h0Z"/>
  </g>
</svg>