<?xml version="1.0" encoding="UTF-8"?>
<svg xmlns="http://www.w3.org/2000/svg" version="1.1" viewBox="0 0 1421.1 455">
  <defs>
    <style>
      .cls-1 {
        fill: #f4f7fc;
      }

      .cls-2 {
        fill: #f0b825;
      }
    </style>
  </defs>
  <!-- Generator: Adobe Illustrator 28.7.1, SVG Export Plug-In . SVG Version: 1.2.0 Build 142)  -->
  <g>
    <g id="Layer_1">
      <g id="White">
        <g>
          <path class="cls-1" d="M1189.7,161.7c2.2-7.3,5.1-14.2,8.6-20.8l-14.2-14.3,44.2-44.2h0c0,0,0,0,0,0l14.2,14.2c6.5-3.5,13.4-6.4,20.7-8.6v-20.2h62.6v20.2c7.2,2.1,14.2,5,20.7,8.6l11.4-11.4,2.8-2.8h0c0,0,0,0,0,0l22.1,22.1,22.1,22.1-14.2,14.3c3.6,6.6,6.4,13.5,8.6,20.8h20.1v31.2h-81.2c0-24.2-19.6-43.8-43.8-43.8s-43.8,19.6-43.8,43.8h-81.2v-31.2h20.2Z"/>
          <polygon class="cls-1" points="1419.5 161.7 1413.4 145.4 1412.9 157.8 1409.5 152.3 1409.6 167 1419.5 161.7"/>
          <polygon class="cls-1" points="1360.8 82.5 1347.3 74.7 1357 92.6 1360.8 82.5"/>
          <polygon class="cls-1" points="1263.2 68 1241.7 72.6 1258.4 74.5 1252.8 76.5 1267.5 77.3 1263.2 68"/>
          <polygon class="cls-1" points="1184 126.7 1177.2 138.1 1191.4 128.4 1184 126.7"/>
        </g>
        <path class="cls-1" d="M296.4,373.7l3.6,3.6-56.3,56.3-3.6-3.5-14.6-14.6c-8.4,4.5-17.2,8.2-26.5,11v25.7h-79.6v-25.7c-9.3-2.8-18.1-6.5-26.5-11l-14.6,14.6-3.6,3.5-56.3-56.3,3.5-3.6,14.6-14.6c-4.5-8.4-8.2-17.2-11-26.5H0v-79.6h25.7c2.8-9.3,6.5-18.1,11-26.5l-14.6-14.6-3.5-3.6,28.1-28.1,28.1-28.1,18.2,18.2c8.4-4.5,17.2-8.2,26.5-11v-25.7h79.6v25.7c9.3,2.8,18.1,6.5,26.5,11l18.2-18.2,28.1,28.1,28.2,28.1-3.6,3.6-14.6,14.6-26.5,26.5h-30.9c-13.4-22-37.6-36.6-65.3-36.6-42.2,0-76.4,34.2-76.4,76.4s34.2,76.4,76.4,76.4,51.8-14.7,65.3-36.6h30.9l26.5,26.5,14.6,14.6h0Z"/>
        <path class="cls-1" d="M356.2,321.1h-8.2v32.3h-39.4v-119h55.6c9.2,0,17.3,1.9,24.5,5.6,7.1,3.7,12.7,9,16.7,15.9,4,6.9,6,14.7,6,23.5s-1.4,13-4.2,18.5-6.9,10.1-12.2,13.8l20.7,41.7h-44l-15.3-32.3h0ZM348.1,290.9h9.7c3.8,0,6.9-1.1,9.2-3.2,2.3-2.2,3.4-4.9,3.4-8.2s-1.1-6-3.4-8.1c-2.3-2.1-5.3-3.1-9.2-3.1h-9.7v22.6Z"/>
        <path class="cls-1" d="M508.7,321.4v32h-82.3v-119h81.4v32h-42.3v12.9h37.9v29.2h-37.9v12.9h43.2Z"/>
        <path class="cls-1" d="M643.7,234.4l-46.9,119h-36.2l-46.9-119h46.4l18.7,63.1,18.5-63.1h46.4Z"/>
        <path class="cls-1" d="M859.4,316.7v35.7h-80.1v-119h40.5v83.3h39.6Z"/>
        <path class="cls-1" d="M894.1,349.5c-8.3-4.2-14.8-10.1-19.4-17.8-4.6-7.7-6.9-16.7-6.9-26.9v-71.4h41.1v71.6c0,4.3,1.3,7.8,3.8,10.5,2.6,2.7,5.9,4,10.1,4s7.6-1.3,10.1-4c2.6-2.7,3.8-6.2,3.8-10.5v-71.6h41.1v71.4c0,10.2-2.3,19.2-6.9,26.9-4.6,7.7-11.1,13.7-19.4,17.8s-17.9,6.3-28.8,6.3-20.5-2.1-28.8-6.3h0Z"/>
        <path class="cls-1" d="M1092.3,267.9h-32.1v84.5h-39.8v-84.5h-32.1v-34.5h104v34.5Z"/>
        <path class="cls-1" d="M1104.1,233.4h40.5v119h-40.5v-119Z"/>
        <path class="cls-1" d="M1190.2,348c-10.3-5.2-18.2-12.6-23.9-22.1-5.7-9.5-8.5-20.5-8.5-33s2.8-23.5,8.5-33,13.6-16.9,23.9-22.1c10.3-5.2,22.1-7.8,35.6-7.8s25.4,2.6,35.6,7.8c10.3,5.2,18.2,12.6,23.9,22.1,5.7,9.5,8.5,20.5,8.5,33s-2.8,23.5-8.5,33c-5.7,9.5-13.6,16.9-23.9,22.1-10.3,5.2-22.1,7.8-35.6,7.8s-25.4-2.6-35.6-7.8ZM1244.5,312.1c4.8-4.9,7.1-11.3,7.1-19.2s-2.4-14.3-7.1-19.2-11-7.3-18.7-7.3-13.9,2.4-18.7,7.3-7.1,11.3-7.1,19.2,2.4,14.3,7.1,19.2,11,7.3,18.7,7.3,13.9-2.4,18.7-7.3Z"/>
        <path class="cls-1" d="M1419.1,233.4v119h-32.3l-42-56.3v56.3h-37.7v-119h33.5l40.8,53.9v-53.9h37.7Z"/>
        <path class="cls-1" d="M760.1,277.3c-1.1-3.7-2.6-7.2-4.5-10.5l3.1-3.1-24.9-24.9-5.2,5.2c-2.7-1-5.5-1.9-8.4-2.6v-6h-35.3v6c-2.9.7-5.7,1.5-8.4,2.6l-5.2-5.2-24.9,24.9,3.1,3.1c-1.9,3.3-3.4,6.8-4.5,10.5h-5.3v35.3h5.3c1.1,3.7,2.6,7.2,4.5,10.5l-3.1,3.1,24.9,24.9,5.2-5.2c2.7,1,5.5,1.9,8.4,2.6v6h35.3v-6c2.9-.7,5.7-1.5,8.4-2.6l5.2,5.2,24.9-24.9-3.1-3.1c1.9-3.3,3.4-6.8,4.5-10.5h5.3v-35.3h-5.3ZM720.3,310.6c-.3.4-.7.9-1.2,1.3-.2.2-.5.5-.7.7-3.8,3.5-8.5,5.4-14.2,5.7-.5,0-1.1,0-1.6,0s-1.1,0-1.6,0c-5.7-.3-10.4-2.2-14.2-5.7-.2-.2-.5-.5-.7-.7-.4-.4-.8-.8-1.2-1.3-3-3.6-4.7-8.1-5.1-13.4,0-.7,0-1.5,0-2.2s0-1.5,0-2.2c.4-5.3,2-9.8,5.1-13.4.3-.4.7-.9,1.2-1.3.2-.2.5-.5.7-.7,3.8-3.5,8.5-5.4,14.2-5.7.5,0,1.1,0,1.6,0s1.1,0,1.6,0c5.7.3,10.4,2.2,14.2,5.7.2.2.5.5.7.7.4.4.8.8,1.2,1.3,3,3.6,4.7,8.1,5.1,13.4,0,.7,0,1.5,0,2.2s0,1.5,0,2.2c-.4,5.3-2,9.8-5.1,13.4Z"/>
      </g>
      <g id="UI">
        <polygon class="cls-2" points="816 124.2 897.4 138.2 871.9 105.2 940.6 125.2 919 69.2 1019.4 112.2 992.7 64.2 1061.3 82.2 1106.3 116.5 1142.6 66.6 1142.6 193 934.2 193.2 851.6 164.2 816 124.2"/>
        <polygon class="cls-2" points="819.7 28.6 832.2 43.6 870.5 48.6 845.1 17 819.7 28.6"/>
        <polygon class="cls-2" points="535 60.3 546.2 83.7 578.9 72.5 535 60.3"/>
        <polygon class="cls-2" points="1090.8 26.6 1030.9 0 1030.9 23.3 1062.5 32.4 1090.8 26.6"/>
        <polygon class="cls-2" points="349.7 87.1 370.5 98.4 391.3 89.4 361.4 83.4 349.7 87.1"/>
        <polygon class="cls-2" points="518.3 152 476.8 169.8 522.3 182 518.3 152"/>
        <polygon class="cls-2" points="683 52 702.7 75.2 767.7 99.8 761.7 75.2 739.2 68.2 715.7 35.2 709.2 56.7 683 52"/>
        <polygon class="cls-2" points="630.3 149.7 646.7 135.2 687.5 139.9 735.7 161.2 674.7 168.2 630.3 149.7"/>
        <g>
          <path class="cls-2" d="M1180.4,435.4v4.4h46.7v10.4h-58.1v-14.8c0-3.2.3-5.9.9-8.1.7-2.5,2.1-4.6,4.1-6.2,1.9-1.5,4.5-2.5,7.9-3.1,3.1-.6,7.2-.9,12.2-.9h11.8c3.3,0,5.9-.1,7.7-.3,2-.2,2.8-.7,3-.8.2-.2.5-.5.6-1.2.2-1.1.3-2.6.3-4.5s-.3-3.5-.5-4.2c-.2-.5-.5-.9-1-1.1-.6-.3-1.8-.7-4.3-.8-2.2-.1-5.2-.2-8.9-.2h-7.2c-3.9,0-7,0-9.3.2-2.6.2-3.8.5-4.5.8-.6.3-.9.6-1.1,1.1-.2.6-.5,1.9-.5,4.2v2.5h-11.5v-2.5c0-3.2.4-5.8,1.1-8,.8-2.4,2.4-4.4,4.6-5.7,2-1.3,4.7-2.1,8.2-2.6,3.2-.4,7.4-.7,12.5-.7h7.9c4.9,0,9,.2,12.1.7,3.4.5,6.1,1.3,8.1,2.6,2.2,1.4,3.7,3.3,4.5,5.7.7,2.2,1.1,4.8,1.1,8s-.6,7.3-1.7,9.8c-1.3,2.8-3.5,4.8-6.6,5.9-2.8,1-6.5,1.5-11.3,1.5h-14.6c-3.8,0-6.9.1-9.1.4-2.5.3-3.5.8-4,1.1-.6.4-.9.9-1.1,1.6-.3,1.2-.4,2.8-.4,4.8h0Z"/>
          <path class="cls-2" d="M1290.8,421.4c.6-.5,1.1-1.2,1.6-1.8,1.6-2.3,2.4-5.3,2.4-9.3s-.4-5.8-1.1-8c-.8-2.4-2.4-4.4-4.6-5.7-2-1.3-4.7-2.1-8.3-2.6-3.2-.4-7.4-.7-12.5-.7h-7.9c-5.1,0-9.3.2-12.5.7-3.5.5-6.2,1.3-8.3,2.6-2.2,1.4-3.8,3.3-4.6,5.7-.8,2.2-1.1,4.8-1.1,8s.8,7,2.4,9.3c.5.7,1,1.3,1.6,1.8-.6.6-1.2,1.2-1.7,2-1.6,2.3-2.4,5.5-2.4,9.6s.3,5.9.9,8.2c.7,2.6,2.1,4.7,4.2,6.2,2,1.5,4.6,2.5,8.1,3.1,3.2.5,7.4.8,12.4.8h9.5c5.1,0,9.3-.3,12.4-.8,3.5-.6,6.1-1.6,8.1-3.1,2.1-1.5,3.5-3.6,4.2-6.2.6-2.2.9-5,.9-8.2s-.8-7.3-2.4-9.6c-.5-.8-1.1-1.4-1.7-2h0ZM1268.8,440.7h-8.9c-3.8,0-6.9-.1-9.1-.4-2.5-.3-3.6-.8-4-1.1-.6-.4-.9-.8-1-1.5-.3-1.2-.4-2.7-.4-4.7s.1-3.1.4-4.1c.1-.5.4-.9.9-1.1.4-.2,1.5-.7,4-.9,2.2-.2,5.2-.3,9.1-.3h9.2c3.9,0,6.9,0,9.1.3,2.5.2,3.6.7,4,.9.5.3.7.6.9,1.1.3,1,.4,2.3.4,4.1s-.1,3.6-.4,4.7c-.2.7-.5,1.2-1,1.5-.4.3-1.5.8-4,1.1-2.2.2-5.2.4-9.1.4h0ZM1245.9,406c.2-.5.5-.9,1.1-1.1.6-.3,1.9-.7,4.5-.8,2.3-.1,5.4-.2,9.3-.2h7.2c3.9,0,7,0,9.3.2,2.6.2,3.8.5,4.5.8.6.3.9.6,1.1,1.1.2.6.5,1.9.5,4.2s-.1,2.8-.3,3.7c-.1.5-.3.7-.7,1-.4.2-1.4.6-3.6.9-2,.2-4.8.3-8.3.3h-11.8c-3.5,0-6.3-.1-8.3-.3-2.3-.2-3.3-.6-3.6-.9-.4-.2-.6-.5-.8-1-.2-.9-.3-2.2-.3-3.7,0-2.3.3-3.5.5-4.2h0Z"/>
          <path class="cls-2" d="M1361.1,429.7v3.3c0,3.2-.3,6-.9,8.2-.7,2.6-2.1,4.7-4.2,6.2-2,1.5-4.6,2.5-8.1,3.1-3.2.5-7.4.8-12.4.8h-8.2c-5.1,0-9.3-.3-12.4-.8-3.5-.6-6.1-1.6-8.1-3.1-2.1-1.5-3.5-3.6-4.2-6.2-.6-2.2-.9-5-.9-8.2v-2.5h11.4v2.5c0,2,.1,3.6.4,4.7.2.7.5,1.2,1,1.5.4.3,1.5.8,4,1.1,2.2.2,5.3.4,9.1.4h7.5c3.8,0,6.9-.1,9.1-.4,2.5-.3,3.6-.8,4-1,.6-.4.9-.8,1-1.5.3-1.2.4-2.8.4-4.8v-3.3c0-1.7-.1-3.1-.4-4.1-.1-.5-.4-.9-.9-1.1-.4-.2-1.5-.7-4-.9-2.2-.2-5.2-.3-9.1-.3h-7c-4.8,0-8.3.2-10.5.5-2.3.3-3,1-3.2,1.2l-.8,1h-11.3v-31.6h56.4v10.4h-44.9v9.4c2.2-.9,5-1.3,8.4-1.3h15.3c4.7,0,8.6.3,11.6.8,3.2.6,5.7,1.6,7.4,3,1.9,1.5,3.1,3.4,3.7,5.8.5,2,.8,4.5.8,7.3h0Z"/>
          <polygon class="cls-2" points="1419 440.3 1419 450.7 1369.5 450.7 1369.5 440.3 1389.8 440.3 1389.8 405.2 1369.5 405.2 1369.5 394.8 1392.3 394.8 1394.9 394.8 1401.2 394.8 1401.2 440.3 1419 440.3"/>
        </g>
      </g>
    </g>
  </g>
</svg>