<?xml version="1.0" standalone="no"?><!-- Generator: Gravit.io --><svg xmlns="http://www.w3.org/2000/svg" xmlns:xlink="http://www.w3.org/1999/xlink" style="isolation:isolate" viewBox="340.769 116.93 637.231 362.446" width="637.231" height="362.446"><rect x="340.769" y="116.93" width="637.231" height="362.446" transform="matrix(1,0,0,1,0,0)" fill="rgb(0,0,0)"/><g><path d=" M 589.798 224.782 L 582.494 235.035 C 621.613 243.668 647.718 211.999 647.718 211.999 C 629.402 223.312 616.742 219.945 612.836 211.461 C 608.931 202.975 615.126 194.895 632.769 195.972 C 650.412 197.049 662.937 206.881 690.816 206.477 C 718.694 206.073 725.428 194.518 725.428 194.518 C 703.475 206.396 682.196 199.743 655.934 188.565 C 629.671 177.386 606.506 179.676 591.961 187.891 C 580.382 194.431 568.727 203.354 564.451 206.724 L 589.798 224.782 Z  M 566.911 193.279 C 566.911 193.279 540.231 178.389 508.209 193.814 L 517.213 192.346 L 519.284 205.056 C 521.362 201.797 526.327 196.072 536.473 193.817 C 551.018 190.585 566.911 193.279 566.911 193.279 Z  M 828.518 354.07 C 823.92 354.279 821.83 352.537 809.707 351.631 C 797.585 350.726 793.753 364.311 793.753 364.311 C 793.753 364.311 796.61 363.614 799.605 364.032 C 802.602 364.45 806.155 367.864 812.494 367.864 C 818.834 367.864 820.506 363.823 820.506 363.823 C 818.486 365.844 815.072 366.541 810.962 365.147 C 806.851 363.754 805.875 359.643 809.847 356.23 C 813.818 352.816 817.858 356.02 826.707 355.881 C 835.555 355.742 837.645 349.96 837.645 349.96 C 837.645 349.959 833.116 353.861 828.518 354.07 Z  M 689.42 284.659 C 696.794 282.328 702.52 277.374 707.112 273.547 C 715.192 266.813 723.273 264.254 723.273 264.254 C 708.834 264.59 700.44 273.108 690.285 276.904 L 692.906 278.943 L 689.067 284.203 C 689.191 284.35 689.302 284.508 689.42 284.659 Z  M 803.855 339.265 C 799.989 336.235 789.33 331.219 771.877 332.681 C 754.427 334.145 744.289 338.325 729.345 343.968 C 714.401 349.611 700.084 359.957 680.333 360.688 C 660.582 361.42 650.654 354.627 650.55 348.984 C 650.445 343.341 655.043 335.607 668.629 336.757 C 682.214 337.907 695.73 343.271 695.73 343.271 C 686.116 336.583 671.485 326.69 646.405 326.69 C 627.635 326.69 612.32 332.625 605.798 335.613 L 610.074 338.694 L 586.601 371.262 L 565.282 355.896 C 559.881 360.462 553.928 364.25 547.529 367.194 L 551.718 393.698 L 522.893 398.254 C 539.734 412.021 573.606 406.889 586.803 404.371 C 600.493 401.758 621.706 396.637 646.265 396.35 C 670.823 396.062 682.841 409.187 682.841 409.187 C 678.766 400 660.373 390.158 642.503 389.74 C 624.633 389.322 616.169 393.711 588.057 394.756 C 559.946 395.802 555.034 385.142 555.034 385.142 C 572.172 389.427 593.387 378.767 608.33 370.407 C 623.274 362.047 631.53 369.258 639.264 373.125 C 646.997 376.99 653.789 378.558 662.776 379.394 C 671.764 380.23 683.677 390.053 696.426 396.967 C 709.175 403.88 721.298 396.219 721.298 396.219 C 712.415 399.459 693.814 391.621 693.814 383.365 C 693.814 375.109 703.114 370.72 715.028 373.647 C 726.94 376.572 739.168 387.023 753.589 386.5 C 768.011 385.978 771.355 380.649 771.355 380.649 C 765.712 384.828 757.351 385.246 744.498 380.858 C 731.644 376.468 715.028 366.644 715.028 366.644 C 724.851 361.837 737.287 350.342 760.173 341.877 C 783.059 333.413 803.855 339.265 803.855 339.265 Z  M 612.163 303.311 C 624.823 296.174 636.809 298.464 645.294 301.965 C 649.629 303.754 655.965 306.139 661.128 308.045 L 661.335 307.747 C 660.139 306.368 659.147 304.807 658.406 303.114 L 651.548 303.598 L 651.073 295.053 L 656.94 294.546 C 656.967 294.163 657.019 293.786 657.07 293.409 C 649.111 286.63 640.047 279.166 632.769 277.858 C 625.539 276.557 619.932 276.927 615.325 277.811 L 618.709 298.127 L 592.788 302.443 C 592.226 309.486 590.721 316.378 588.298 322.999 L 590.323 324.458 C 598.461 319.042 601.472 309.34 612.163 303.311 Z  M 612.49 260.783 C 617.833 260.601 623.913 261.334 629.941 263.716 C 638.193 266.975 646.372 272.932 657.617 278.555 L 658.34 277.653 L 662.814 281.014 C 663.177 281.177 663.551 281.337 663.922 281.498 C 665.246 280.466 666.709 279.607 668.288 278.968 L 667.656 274.23 C 654.166 267.788 637.524 255.867 624.015 249.709 C 607.884 242.357 586.753 239.922 579.475 239.273 L 574.747 245.912 C 579.108 251.102 582.761 256.81 585.641 262.936 L 612.115 258.527 L 612.49 260.783 Z  M 663.766 226.5 C 648.234 230.692 644.232 239.268 644.898 247.464 C 645.565 255.659 665.196 265.76 693.116 250.608 C 693.116 250.608 670.818 253.467 664.719 248.798 C 658.62 244.129 669.864 237.077 695.88 243.27 C 721.894 249.464 737.331 252.912 750.577 250.998 C 763.822 249.084 770.493 240.84 770.493 240.84 C 770.493 240.84 757.724 243.842 748.48 239.935 C 739.237 236.029 736.569 231.645 736.569 231.645 C 736.569 231.645 743.907 220.306 761.916 220.782 C 779.927 221.258 795.84 233.551 802.987 240.602 C 810.135 247.654 812.516 250.799 812.516 250.799 C 812.516 250.799 806.322 232.98 792.123 222.688 C 777.926 212.396 761.056 205.821 737.997 211.157 C 714.937 216.494 708.077 226.975 698.357 227.358 C 688.637 227.738 679.299 222.307 663.766 226.5 Z  M 790.131 263.431 C 781.283 264.267 775.778 256.116 782.397 251.866 C 789.016 247.616 795.839 250.968 795.839 250.968 C 791.364 245.399 784.207 245.599 775.557 250.968 C 766.907 256.336 762.235 255.54 762.235 255.54 C 765.062 261.095 771.32 268.378 778.565 268.656 C 785.811 268.935 790.688 266.776 802.322 263.012 C 813.957 259.251 819.67 264.893 819.67 264.893 C 818.415 263.152 815.141 259.321 807.896 259.39 C 800.65 259.46 798.978 262.595 790.131 263.431 Z  M 680.621 278.513 C 681.125 278.674 681.622 278.85 682.106 279.053 L 682.437 278.614 C 681.855 278.618 681.244 278.577 680.621 278.513 Z " fill="rgb(195,163,65)"/><path d=" M 518.535 191.138 L 520.182 201.243 C 523.064 197.95 528.045 194.003 536.154 192.2 C 543.236 190.626 550.556 190.418 556.308 190.636 C 547.65 188.218 534.048 186.333 518.535 191.138 Z  M 518.451 208.915 L 515.998 193.853 L 508.446 195.085 L 501.13 195.792 L 507.571 192.308 C 539.906 176.732 566.5 191.406 567.628 191.813 C 569.757 193.099 571.901 194.454 574 195.819 C 570.695 195.137 568.26 194.723 566.666 194.548 C 565.844 194.438 550.203 191.778 536.792 195.072 C 527.148 197.216 522.46 202.63 520.524 205.666 L 518.451 208.915 Z  M 585.007 233.862 C 610.244 238.494 629.839 225.954 639.653 217.623 C 632.521 220.539 625.986 221.278 620.712 219.688 C 616.5 218.418 613.229 215.65 611.5 211.895 C 609.665 207.909 609.84 203.984 611.989 200.842 C 615.291 196.018 622.706 193.702 632.858 194.324 C 640.252 194.775 646.781 196.732 653.695 198.805 C 663.473 201.738 674.53 205.059 690.795 204.825 C 702.657 204.653 710.571 202.408 715.7 199.969 C 696.1 205.762 676.604 198.78 655.358 189.737 C 632.506 180.01 609.078 179.732 592.684 188.991 C 582.415 194.791 572.095 202.471 566.909 206.489 L 591.85 224.256 L 585.007 233.862 Z  M 595.852 237.8 C 591.493 237.8 586.926 237.339 582.177 236.291 L 580.006 235.811 L 587.747 224.946 L 561.999 206.603 L 563.54 205.388 C 568.003 201.871 579.635 192.982 591.237 186.429 C 608.423 176.723 632.824 176.948 656.509 187.03 C 680.803 197.371 702.705 204.96 724.728 193.044 C 726.949 191.495 728.726 189.834 730 188 C 729.131 190.432 728.051 192.811 726.699 195.078 C 726.407 195.579 719.22 207.355 690.837 207.767 C 674.144 208.017 662.832 204.616 652.849 201.623 C 646.105 199.601 639.733 197.69 632.68 197.26 C 623.726 196.714 617.073 198.624 614.417 202.504 C 612.439 205.393 613.193 208.536 614.173 210.664 C 615.564 213.687 618.119 215.833 621.562 216.872 C 628.135 218.856 637.15 216.616 646.945 210.566 C 648.992 209.202 651.32 207.486 653.899 205.388 C 652.117 208.202 650.445 210.667 648.852 212.754 C 648.618 213.039 627.788 237.8 595.852 237.8 Z  M 663.766 226.319 L 663.776 226.319 L 663.766 226.319 Z  M 675.552 226.199 C 672.119 226.199 668.36 226.602 664.149 227.739 L 664.149 227.739 C 651.576 231.132 645.592 237.668 646.364 247.164 C 646.551 249.454 648.679 251.913 652.056 253.741 C 658.691 257.332 670.461 258.561 685.073 252.621 C 677.818 253.026 667.903 252.909 663.825 249.785 C 661.799 248.234 661.12 246.191 662.01 244.32 C 664.301 239.496 676.791 237.032 696.221 241.659 C 722.141 247.83 737.438 251.229 750.366 249.361 C 757.614 248.314 762.808 245.283 765.911 242.899 C 761.187 243.437 753.913 243.647 747.908 241.11 C 738.336 237.065 735.431 232.425 735.312 232.229 L 734.833 231.44 L 735.334 230.665 C 735.651 230.174 743.336 218.645 761.955 219.131 C 782.498 219.674 799.346 234.762 804.021 239.374 C 805.159 240.497 806.178 241.522 807.086 242.453 C 803.868 236.631 798.666 229.066 791.26 223.698 C 774.469 211.525 757.651 207.938 738.328 212.41 C 725.793 215.311 718.212 219.709 712.12 223.243 C 707.094 226.158 703.125 228.461 698.414 228.647 C 694.821 228.787 691.319 228.176 687.62 227.527 C 683.967 226.888 680.038 226.199 675.552 226.199 Z  M 665.893 259.739 C 657.981 259.739 652.793 257.485 650.656 256.328 C 646.336 253.99 643.703 250.736 643.432 247.402 C 642.811 239.76 645.766 229.653 663.383 224.899 C 673.726 222.107 681.376 223.447 688.127 224.629 C 691.668 225.25 695.018 225.835 698.299 225.707 C 702.28 225.55 705.788 223.515 710.643 220.698 C 716.906 217.065 724.7 212.544 737.666 209.544 C 757.875 204.865 775.456 208.607 792.987 221.316 C 807.394 231.759 813.646 249.39 813.905 250.135 C 814.579 252.331 815.047 254.803 815.249 257.492 C 814.052 255.498 812.76 253.513 811.344 251.507 C 811.32 251.476 808.906 248.328 801.953 241.468 C 792.721 232.36 777.344 222.481 761.877 222.072 C 747.575 221.703 740.447 228.941 738.415 231.446 C 739.591 232.784 742.677 235.705 749.053 238.4 C 757.736 242.07 770.035 239.257 770.157 239.227 C 771.5 238.946 772.791 238.601 774 238.163 C 773.288 239.305 772.51 240.456 771.636 241.585 C 771.349 241.94 764.445 250.299 750.788 252.273 C 737.322 254.219 721.808 250.775 695.54 244.52 C 676.261 239.932 665.919 242.947 664.666 245.582 C 664.403 246.138 664.721 246.766 665.613 247.449 C 670.221 250.978 686.894 249.742 692.93 248.969 L 693.818 251.721 C 682.442 257.894 673.053 259.738 665.893 259.739 Z  M 790.131 263.251 L 790.14 263.251 L 790.131 263.251 Z  M 764.7 256.735 C 767.884 261.855 773.174 266.796 778.621 267.006 C 783.444 267.193 787.27 266.215 792.988 264.36 C 792.156 264.501 791.254 264.622 790.269 264.715 L 790.268 264.715 C 784.083 265.3 779.595 262.007 778.367 258.452 C 777.318 255.414 778.528 252.421 781.601 250.447 C 783.72 249.087 785.847 248.427 787.806 248.176 C 783.934 248.003 779.752 249.914 776.332 252.036 C 771.048 255.317 767.102 256.404 764.7 256.735 Z  M 779.814 269.971 C 779.387 269.971 778.952 269.962 778.508 269.946 C 770.053 269.62 763.477 261.043 760.924 256.027 L 759.597 253.418 L 762.482 253.91 C 762.502 253.913 766.849 254.46 774.781 249.537 C 784.222 243.676 792.108 243.793 796.985 249.866 C 798.602 252.01 799.932 253.971 800.943 255.72 C 799.27 254.464 797.362 253.27 795.191 252.107 C 794.945 251.989 789.003 249.191 783.192 252.923 C 781.28 254.15 780.554 255.773 781.148 257.492 C 781.98 259.9 785.37 262.221 789.993 261.786 C 794.147 261.393 796.603 260.486 798.977 259.61 C 801.53 258.667 803.94 257.776 807.881 257.738 C 813.466 257.679 817.945 259.799 820.864 263.853 C 821.915 266.27 822.547 268.527 822.732 270.596 C 821.538 268.997 820.183 267.395 818.636 265.759 C 818.431 265.563 813.328 260.82 802.775 264.231 C 800.843 264.856 799.098 265.437 797.496 265.969 C 789.894 268.498 785.468 269.971 779.814 269.971 Z  M 682.592 280.67 L 681.538 280.229 C 681.14 280.062 680.693 279.9 680.172 279.732 L 674.608 275.257 C 675.249 275.325 681.98 276.972 682.425 276.962 L 685.41 276.937 L 682.592 280.67 Z  M 663.563 279.558 C 663.618 279.581 663.673 279.605 663.727 279.629 C 664.667 278.959 665.657 278.376 666.683 277.887 L 666.303 275.029 C 659.942 271.927 652.848 267.638 645.98 263.484 C 638.296 258.838 630.351 254.033 623.405 250.867 C 608.222 243.947 588.706 241.44 580.183 240.635 L 576.601 245.664 C 580.482 250.418 583.803 255.61 586.491 261.123 L 613.324 256.654 L 613.733 259.106 C 619.552 259.06 625.303 260.122 630.481 262.167 C 635.238 264.046 639.825 266.716 645.135 269.808 C 648.906 272.004 652.796 274.268 657.215 276.523 L 658.084 275.439 L 663.563 279.558 Z  M 664.139 283.013 L 663.112 282.569 C 662.811 282.439 662.509 282.308 662.213 282.176 L 661.929 282.009 L 658.596 279.505 L 658.021 280.22 L 656.959 279.69 C 652.014 277.217 647.574 274.631 643.655 272.35 C 638.448 269.319 633.951 266.7 629.4 264.903 C 624.211 262.852 618.383 261.871 612.54 262.072 L 611.252 262.116 L 610.906 260.039 L 584.784 264.389 L 584.31 263.381 C 581.487 257.379 577.891 251.759 573.621 246.678 L 572.887 245.806 L 578.766 237.552 L 579.607 237.627 C 587.772 238.356 608.507 240.843 624.625 248.19 C 631.726 251.427 639.746 256.277 647.503 260.967 C 654.57 265.241 661.879 269.66 668.291 272.722 L 669.009 273.065 L 669.896 279.723 L 668.839 280.151 C 667.42 280.726 666.069 281.508 664.826 282.477 L 664.139 283.013 Z  M 693.189 277.119 L 694.934 278.477 L 692.615 281.655 C 697.737 279.277 702.006 275.713 705.566 272.74 L 706.171 272.236 C 708.545 270.257 710.911 268.633 713.082 267.319 C 708.574 268.799 704.635 271.003 700.774 273.163 C 698.209 274.598 695.752 275.973 693.189 277.119 Z  M 688.893 286.189 L 688.114 285.191 C 688.057 285.116 688.001 285.04 687.942 284.969 L 687.2 284.087 L 690.877 279.047 L 687.304 276.268 L 689.77 275.346 C 693.02 274.131 696.089 272.413 699.338 270.596 C 706.156 266.781 713.206 262.836 723.239 262.603 C 726.375 262.716 730.417 262.942 735.334 263.251 C 730.236 263.779 726.374 264.531 723.718 265.475 C 723.64 265.5 715.796 268.045 708.053 274.496 L 707.451 274.999 C 702.882 278.814 697.194 283.563 689.865 285.881 L 688.893 286.189 Z  M 629.542 296.97 C 634.826 296.97 640.273 298.121 645.855 300.424 C 647.097 300.936 648.509 301.499 650.001 302.083 L 649.526 293.53 L 654.631 293.088 C 646.824 286.494 638.815 280.258 632.509 279.125 C 626.983 278.131 622.02 278.033 617.016 278.826 L 620.242 298.205 C 623.279 297.382 626.381 296.97 629.542 296.97 Z  M 656.437 304.547 C 656.9 304.722 657.36 304.893 657.814 305.064 C 657.708 304.869 657.605 304.671 657.505 304.472 L 656.437 304.547 Z  M 590.055 322.272 L 590.335 322.473 C 593.362 320.245 595.689 317.33 598.142 314.257 C 601.646 309.868 605.27 305.329 611.44 301.848 L 611.44 301.848 C 612.626 301.181 613.822 300.581 615.03 300.051 L 594.154 303.526 C 593.551 309.923 592.174 316.218 590.055 322.272 Z  M 590.29 326.066 L 586.533 323.359 L 586.916 322.312 C 589.289 315.828 590.772 309.043 591.322 302.146 L 591.413 301 L 617.016 296.737 L 613.639 276.456 L 615.048 276.185 C 620.903 275.062 626.616 275.076 633.03 276.229 C 640.464 277.565 649.095 284.503 658.024 292.109 L 658.636 292.63 L 658.528 293.427 C 658.478 293.79 658.431 294.127 658.407 294.471 L 658.316 295.722 L 652.621 296.216 L 652.934 301.845 L 659.337 301.393 L 659.753 302.344 C 660.429 303.886 661.335 305.32 662.447 306.604 L 663.194 307.467 L 661.686 309.639 L 660.618 309.244 C 655.846 307.483 649.217 304.994 644.733 303.143 C 633.395 298.465 622.678 298.891 612.886 304.411 L 612.886 304.411 C 607.214 307.61 603.77 311.923 600.441 316.092 C 597.623 319.623 594.96 322.958 591.138 325.502 L 590.29 326.066 Z  M 797.584 362.247 C 798.291 362.247 799.044 362.288 799.809 362.395 C 801.129 362.579 802.394 363.178 803.86 363.871 C 805.47 364.633 807.23 365.466 809.392 365.904 C 807.533 364.977 806.302 363.479 805.951 361.67 C 805.506 359.375 806.577 356.919 808.888 354.934 C 810.051 353.933 811.218 353.401 812.433 353.16 C 811.554 353.074 810.61 352.993 809.597 352.917 C 801.558 352.299 797.586 358.77 796.006 362.313 C 796.49 362.272 797.022 362.247 797.584 362.247 Z  M 812.494 369.154 C 808.146 369.154 805.071 367.699 802.601 366.53 C 801.353 365.94 800.275 365.431 799.402 365.308 C 796.714 364.933 794.127 365.553 794.101 365.558 L 791.653 366.155 L 792.338 363.73 C 792.38 363.583 796.635 349.02 809.816 349.983 C 816.427 350.477 820.111 351.22 822.801 351.761 C 825.032 352.211 826.506 352.511 828.451 352.42 L 828.451 352.42 C 832.428 352.239 836.517 348.806 836.69 348.66 L 837.406 348.052 C 838.522 346.995 839.669 345.643 840.819 343.968 C 840.249 345.851 839.825 347.552 839.486 349.011 L 839.028 350.279 C 838.928 350.554 836.481 357.018 826.729 357.171 C 823.189 357.222 820.382 356.766 818.122 356.394 C 814.382 355.782 812.652 355.579 810.806 357.165 C 809.318 358.444 808.602 359.882 808.839 361.11 C 809.049 362.187 809.995 363.085 811.433 363.573 C 814.787 364.709 817.715 364.355 819.467 362.602 C 819.873 362.495 820.693 361.648 821.865 360 C 822.202 361.589 822.232 363.02 821.865 364.204 C 821.782 364.406 819.734 369.154 812.494 369.154 Z  M 526.657 398.968 C 542.676 409.063 570.675 405.771 586.527 402.745 C 588.609 402.347 590.864 401.892 593.28 401.405 C 606.791 398.678 625.294 394.943 646.249 394.698 C 657.029 394.585 665.424 396.937 671.534 399.709 C 663.965 394.968 653.276 391.283 642.468 391.031 C 633.712 390.817 627.107 391.811 619.465 392.955 C 611.43 394.156 602.325 395.517 588.112 396.046 C 559.342 397.105 553.915 386.049 553.698 385.577 L 552.414 382.79 L 555.391 383.535 C 571.401 387.536 591.709 377.839 607.613 368.943 C 621.228 361.328 629.84 366.098 636.759 369.932 C 637.855 370.539 638.892 371.114 639.922 371.628 C 646.965 375.149 653.411 376.865 662.912 377.748 C 669.331 378.346 677.004 383.178 685.126 388.293 C 689.011 390.74 693.029 393.27 697.127 395.493 C 702.429 398.368 707.662 398.534 711.83 397.839 C 707.03 396.977 702.112 394.911 698.555 392.422 C 694.49 389.578 692.343 386.384 692.343 383.184 C 692.343 379.657 693.815 376.639 696.599 374.456 C 700.94 371.053 707.784 370.173 715.379 372.038 C 720.055 373.186 724.638 375.389 729.488 377.721 C 737.094 381.379 744.965 385.172 753.535 384.85 C 753.886 384.837 754.231 384.82 754.568 384.803 C 751.381 384.297 747.878 383.385 744.022 382.069 C 731.173 377.681 714.962 368.134 714.279 367.73 L 711.931 366.341 L 714.381 365.142 C 717.577 363.578 721.123 361.244 725.228 358.542 C 733.709 352.96 744.262 346.012 759.662 340.316 C 773.048 335.366 785.621 335.184 793.989 335.956 C 788.922 334.376 781.655 333.156 772 333.966 C 755.822 335.323 746.064 339.022 732.559 344.143 L 729.866 345.163 C 725.576 346.782 721.386 348.773 716.95 350.879 C 706.01 356.075 694.698 361.447 680.388 361.977 C 667.692 362.442 657.414 359.88 652.184 354.931 C 650.192 353.048 649.118 350.938 649.079 348.83 C 649.013 345.284 650.507 341.816 653.176 339.317 C 655.645 337.006 660.344 334.407 668.752 335.11 C 674.775 335.62 680.731 336.925 685.557 338.241 C 676.635 333.091 664.108 327.98 646.405 327.98 C 629.76 327.98 615.739 332.807 608.748 335.744 L 612.127 338.18 L 586.935 373.134 L 565.347 357.574 C 560.376 361.656 554.939 365.115 549.155 367.876 L 553.401 394.741 L 526.657 398.968 Z  M 688.127 417 C 685.736 414.2 683.622 411.876 681.757 410 C 681.643 409.875 669.825 397.406 646.283 397.64 C 625.604 397.881 607.258 401.584 593.862 404.289 C 591.436 404.778 589.169 405.236 587.078 405.635 C 569.738 408.943 538.224 412.507 521.963 399.212 L 519.42 397.133 L 550.035 392.295 L 545.902 366.142 L 546.914 365.677 C 553.182 362.792 559.043 359.064 564.333 354.591 L 565.211 353.849 L 586.268 369.028 L 608.021 338.846 L 602.888 335.148 L 605.186 334.096 C 612.568 330.714 627.738 325.039 646.405 325.039 C 672.355 325.039 687.513 335.582 696.569 341.882 C 698.88 343.984 701.2 346.254 703.5 348.66 C 700.688 347.014 697.927 345.623 695.187 344.457 C 695.054 344.404 681.705 339.16 668.504 338.042 C 662.713 337.548 658.103 338.734 655.186 341.464 C 653.124 343.396 651.97 346.06 652.02 348.775 C 652.044 350.075 652.8 351.465 654.206 352.795 C 658.798 357.139 668.544 359.473 680.278 359.037 C 693.984 358.53 705.017 353.29 715.689 348.222 C 720.181 346.088 724.424 344.074 728.825 342.411 L 731.515 341.393 C 745.245 336.187 755.165 332.427 771.755 331.034 C 792.577 329.292 802.904 336.47 804.763 337.926 L 813.646 345.163 C 810.51 343.288 807.124 341.744 803.458 340.5 C 803.253 340.441 782.823 334.886 760.683 343.076 C 745.6 348.654 735.2 355.5 726.846 361 C 723.634 363.114 720.758 365.006 718.075 366.517 C 723.059 369.334 735.2 375.947 744.972 379.284 C 756.885 383.352 764.989 383.352 770.48 379.286 C 774.39 376.438 776.89 374.197 777.917 372.505 C 776.383 375.067 774.621 377.992 772.601 381.25 C 772.447 381.495 768.67 387.245 753.643 387.79 C 744.327 388.125 736.142 384.185 728.213 380.373 C 723.504 378.11 719.056 375.97 714.677 374.895 C 708.066 373.272 701.985 373.971 698.413 376.77 C 696.366 378.375 695.285 380.594 695.285 383.184 C 695.285 385.35 697.045 387.775 700.243 390.012 C 706.424 394.337 715.836 396.463 720.795 394.657 C 723.434 393.735 725.412 392.958 726.699 392.295 C 725.693 394.188 724.175 395.87 722.084 397.281 C 721.56 397.614 709.078 405.321 695.725 398.079 C 691.543 395.811 687.484 393.255 683.558 390.782 C 675.741 385.86 668.359 381.21 662.64 380.677 C 652.744 379.757 646.005 377.958 638.606 374.26 C 637.521 373.716 636.458 373.128 635.333 372.505 C 628.401 368.664 621.234 364.694 609.048 371.51 C 593.148 380.404 575.015 389.01 559.1 387.184 C 562.791 389.978 570.973 393.737 588.003 393.106 C 602.051 392.583 611.071 391.235 619.029 390.044 C 626.806 388.882 633.523 387.877 642.537 388.089 C 660.104 388.5 679.567 397.996 684.187 408.41 C 685.509 410.957 686.832 413.83 688.127 417 Z " fill="rgb(170,111,58)"/><path d=" M 578.531 296.219 C 578.531 312.28 572.423 326.914 562.404 337.926 C 551.065 350.388 534.716 358.211 516.539 358.211 C 482.301 358.211 454.547 330.457 454.547 296.219 C 454.547 261.982 482.301 234.227 516.539 234.227 C 532.575 234.227 547.189 240.316 558.195 250.307 C 570.687 261.649 578.531 278.018 578.531 296.219 Z  M 593.696 302.501 L 619.618 298.184 L 613.024 258.585 L 586.55 262.993 C 583.67 256.867 580.017 251.16 575.655 245.969 L 590.706 224.839 L 558.01 201.546 L 542.815 222.877 C 536.218 220.443 529.354 218.92 522.347 218.337 L 518.122 192.404 L 478.5 198.859 L 482.816 225.346 C 476.62 228.231 470.845 231.912 465.592 236.323 L 444.322 220.887 L 420.744 253.379 L 442.463 269.141 C 440.094 275.553 438.587 282.233 437.966 289.064 L 412 293.088 L 418.15 332.76 L 444.669 328.649 C 447.507 334.866 451.142 340.67 455.512 345.957 L 439.912 367.106 L 472.22 390.936 L 488.147 369.34 C 494.804 371.859 501.754 373.446 508.872 374.071 L 512.974 400.023 L 552.626 393.755 L 548.437 367.25 C 554.837 364.307 560.79 360.518 566.191 355.954 L 587.511 371.319 L 610.983 338.751 L 589.207 323.057 C 591.63 316.435 593.134 309.543 593.696 302.501 Z " fill="rgb(170,111,58)"/><path d=" M 577.802 296.046 C 577.802 312.106 571.695 326.74 561.676 337.752 C 550.337 350.216 533.987 358.038 515.81 358.038 C 481.572 358.038 453.818 330.283 453.818 296.046 C 453.818 261.809 481.572 234.055 515.81 234.055 C 531.847 234.055 546.46 240.143 557.467 250.135 C 569.958 261.476 577.802 277.845 577.802 296.046 Z  M 590.54 299.465 L 615.785 295.261 L 610.29 262.259 L 584.573 266.542 C 581.32 258.968 576.855 252.039 571.418 246.002 L 586.058 225.449 L 558.809 206.036 L 544.045 226.762 C 536.407 223.647 528.145 221.744 519.49 221.326 L 515.375 196.069 L 482.354 201.449 L 486.545 227.177 C 478.89 230.435 471.889 234.932 465.794 240.417 L 445.08 225.386 L 425.431 252.463 L 446.531 267.775 C 443.477 275.252 441.597 283.331 441.122 291.788 L 415.833 295.708 L 420.957 328.769 L 446.718 324.776 C 449.917 332.459 454.36 339.494 459.796 345.629 L 444.604 366.227 L 471.529 386.086 L 487.003 365.106 C 494.694 368.318 503.036 370.284 511.776 370.748 L 515.771 396.024 L 548.818 390.801 L 544.747 365.054 C 552.607 361.755 559.782 357.15 566.006 351.513 L 586.768 366.478 L 606.33 339.336 L 585.175 324.089 C 588.275 316.428 590.149 308.142 590.54 299.465 Z " fill="rgb(195,163,65)"/><path d=" M 577.802 296.046 C 577.802 312.106 571.695 326.74 561.676 337.752 C 550.337 350.216 533.987 358.038 515.81 358.038 C 481.572 358.038 453.818 330.283 453.818 296.046 C 453.818 261.809 481.572 234.055 515.81 234.055 C 531.847 234.055 546.46 240.143 557.467 250.135 C 569.958 261.476 577.802 277.845 577.802 296.046 Z  M 590.54 299.465 L 615.785 295.261 L 610.29 262.259 L 584.573 266.542 C 581.32 258.968 576.855 252.039 571.418 246.002 L 586.058 225.449 L 558.809 206.036 L 544.045 226.762 C 536.407 223.647 528.145 221.744 519.49 221.326 L 515.375 196.069 L 482.354 201.449 L 486.545 227.177 C 478.89 230.435 471.889 234.932 465.794 240.417 L 445.08 225.386 L 425.431 252.463 L 446.531 267.775 C 443.477 275.252 441.597 283.331 441.122 291.788 L 415.833 295.708 L 420.957 328.769 L 446.718 324.776 C 449.917 332.459 454.36 339.494 459.796 345.629 L 444.604 366.227 L 471.529 386.086 L 487.003 365.106 C 494.694 368.318 503.036 370.284 511.776 370.748 L 515.771 396.024 L 548.818 390.801 L 544.747 365.054 C 552.607 361.755 559.782 357.15 566.006 351.513 L 586.768 366.478 L 606.33 339.336 L 585.175 324.089 C 588.275 316.428 590.149 308.142 590.54 299.465 Z " fill-rule="evenodd" fill="none" vector-effect="non-scaling-stroke" stroke-width="3" stroke="rgb(170,111,58)" stroke-opacity="100" stroke-linejoin="miter" stroke-linecap="square" stroke-miterlimit="3"/><path d=" M 515.795 354.132 C 483.643 354.132 457.484 327.975 457.484 295.823 C 457.484 263.669 483.643 237.511 515.795 237.511 C 530.318 237.511 544.233 242.884 554.979 252.64 L 539.806 269.353 C 533.223 263.375 524.696 260.084 515.795 260.084 C 496.089 260.084 480.056 276.117 480.056 295.823 C 480.056 315.528 496.089 331.56 515.795 331.56 C 525.836 331.56 535.475 327.296 542.237 319.863 L 558.934 335.053 C 547.904 347.178 532.179 354.132 515.795 354.132 Z " fill="rgb(195,163,65)"/><path d=" M 515.795 354.132 C 483.643 354.132 457.484 327.975 457.484 295.823 C 457.484 263.669 483.643 237.511 515.795 237.511 C 530.318 237.511 544.233 242.884 554.979 252.64 L 539.806 269.353 C 533.223 263.375 524.696 260.084 515.795 260.084 C 496.089 260.084 480.056 276.117 480.056 295.823 C 480.056 315.528 496.089 331.56 515.795 331.56 C 525.836 331.56 535.475 327.296 542.237 319.863 L 558.934 335.053 C 547.904 347.178 532.179 354.132 515.795 354.132 Z " fill="none" vector-effect="non-scaling-stroke" stroke-width="3" stroke="rgb(170,111,58)" stroke-opacity="100" stroke-linejoin="miter" stroke-linecap="square" stroke-miterlimit="3"/><path d=" M 697.815 332.242 C 697.815 331.054 697.391 330.017 696.542 329.131 C 695.693 328.245 694.715 327.801 693.609 327.801 C 692.407 327.801 691.384 328.245 690.538 329.131 C 689.694 330.017 689.27 331.115 689.27 332.425 C 689.27 333.674 689.692 334.729 690.533 335.588 C 691.376 336.446 692.387 336.875 693.568 336.875 C 694.709 336.875 695.701 336.422 696.547 335.516 C 697.392 334.609 697.814 333.519 697.815 332.242 Z  M 697.815 336.143 C 697.366 336.788 696.76 337.293 695.996 337.659 C 695.233 338.026 694.41 338.21 693.527 338.21 C 691.884 338.21 690.517 337.648 689.423 336.523 C 688.33 335.4 687.784 334.014 687.784 332.364 C 687.784 330.687 688.343 329.285 689.46 328.158 C 690.576 327.031 691.973 326.468 693.65 326.468 C 694.512 326.468 695.302 326.642 696.022 326.992 C 696.742 327.342 697.339 327.846 697.814 328.505 L 697.815 326.712 L 699.221 326.712 L 699.221 337.914 L 697.815 337.914 L 697.815 336.143 Z " fill="rgb(254,254,254)"/><path d=" M 716.396 330.154 C 715.954 329.339 715.417 328.737 714.782 328.347 C 714.147 327.956 713.392 327.761 712.516 327.761 C 711.362 327.761 710.383 328.199 709.578 329.074 C 708.774 329.951 708.371 331.034 708.371 332.323 C 708.371 333.613 708.775 334.691 709.583 335.556 C 710.391 336.422 711.389 336.855 712.578 336.855 C 713.447 336.855 714.214 336.641 714.88 336.213 C 715.544 335.786 716.051 335.185 716.396 334.411 L 717.985 334.411 C 717.551 335.627 716.867 336.566 715.939 337.232 C 715.007 337.897 713.912 338.23 712.649 338.23 C 711.026 338.23 709.657 337.654 708.54 336.504 C 707.423 335.353 706.864 333.967 706.864 332.344 C 706.866 330.687 707.429 329.284 708.56 328.133 C 709.69 326.982 711.067 326.407 712.69 326.407 C 713.905 326.407 714.976 326.733 715.902 327.39 C 716.829 328.045 717.522 328.966 717.985 330.154 L 716.396 330.154 Z " fill="rgb(254,254,254)"/><path d=" M 720.483 337.914 L 719.027 337.914 L 719.027 326.712 L 720.382 326.712 L 720.382 328.005 C 720.734 327.509 721.119 327.146 721.537 326.916 C 721.955 326.685 722.441 326.563 722.998 326.549 L 723.009 328.107 C 722.106 328.189 721.46 328.458 721.068 328.917 C 720.678 329.375 720.483 330.121 720.483 331.152 L 720.483 337.914 Z " fill="rgb(254,254,254)"/><path d=" M 733.514 331.519 C 733.243 330.273 732.744 329.335 732.017 328.706 C 731.291 328.076 730.343 327.761 729.176 327.761 C 728.09 327.761 727.17 328.1 726.416 328.776 C 725.663 329.454 725.201 330.367 725.031 331.519 L 733.514 331.519 Z  M 735.102 332.771 L 724.99 332.771 C 725.078 333.99 725.521 334.976 726.315 335.728 C 727.109 336.479 728.1 336.855 729.288 336.855 C 730.13 336.855 730.887 336.637 731.559 336.202 C 732.231 335.765 732.751 335.157 733.117 334.381 L 734.747 334.381 C 734.231 335.62 733.506 336.571 732.572 337.235 C 731.639 337.898 730.558 338.23 729.328 338.23 C 727.7 338.23 726.321 337.65 725.195 336.489 C 724.067 335.328 723.503 333.932 723.503 332.303 C 723.503 330.599 724.055 329.191 725.159 328.077 C 726.262 326.963 727.672 326.407 729.39 326.407 C 731.074 326.407 732.447 326.986 733.509 328.145 C 734.572 329.303 735.102 330.811 735.102 332.666 L 735.102 332.771 Z " fill="rgb(254,254,254)"/><path d=" M 746.152 332.242 C 746.152 331.054 745.728 330.017 744.878 329.131 C 744.03 328.245 743.052 327.801 741.946 327.801 C 740.744 327.801 739.72 328.245 738.876 329.131 C 738.031 330.017 737.608 331.115 737.608 332.425 C 737.608 333.674 738.029 334.729 738.871 335.588 C 739.712 336.446 740.724 336.875 741.905 336.875 C 743.046 336.875 744.039 336.422 744.883 335.516 C 745.73 334.609 746.151 333.519 746.152 332.242 Z  M 746.152 336.143 C 745.704 336.788 745.098 337.293 744.334 337.659 C 743.57 338.026 742.747 338.21 741.865 338.21 C 740.221 338.21 738.853 337.648 737.76 336.523 C 736.667 335.4 736.121 334.014 736.121 332.364 C 736.121 330.687 736.679 329.285 737.796 328.158 C 738.913 327.031 740.31 326.468 741.987 326.468 C 742.849 326.468 743.64 326.642 744.36 326.992 C 745.078 327.342 745.677 327.846 746.151 328.505 L 746.152 326.712 L 747.557 326.712 L 747.557 337.914 L 746.152 337.914 L 746.152 336.143 Z " fill="rgb(254,254,254)"/><path d=" M 751.455 337.914 L 751.455 328.158 L 749.326 328.158 L 749.326 326.712 L 751.455 326.712 L 751.455 323.087 L 752.892 323.087 L 752.892 326.712 L 755.02 326.712 L 755.02 328.158 L 752.892 328.158 L 752.892 337.914 L 751.455 337.914 Z " fill="rgb(254,254,254)"/><path d=" M 756.045 337.914 L 756.045 326.712 L 757.48 326.712 L 757.48 337.914 L 756.045 337.914 Z  M 757.48 325.398 L 756.045 325.398 L 756.045 323.087 L 757.48 323.087 L 757.48 325.398 Z " fill="rgb(254,254,254)"/><path d=" M 764.036 337.914 L 762.722 337.914 L 758.342 326.712 L 759.86 326.712 L 763.446 335.745 L 767.06 326.712 L 768.619 326.712 L 764.036 337.914 Z " fill="rgb(254,254,254)"/><path d=" M 778.859 331.519 C 778.588 330.273 778.089 329.335 777.362 328.706 C 776.636 328.076 775.689 327.761 774.521 327.761 C 773.434 327.761 772.515 328.1 771.761 328.776 C 771.007 329.454 770.546 330.367 770.376 331.519 L 778.859 331.519 Z  M 780.447 332.771 L 770.336 332.771 C 770.423 333.99 770.865 334.976 771.66 335.728 C 772.454 336.479 773.444 336.855 774.633 336.855 C 775.474 336.855 776.231 336.637 776.904 336.202 C 777.577 335.765 778.095 335.157 778.462 334.381 L 780.092 334.381 C 779.575 335.62 778.851 336.571 777.917 337.235 C 776.983 337.898 775.903 338.23 774.674 338.23 C 773.044 338.23 771.666 337.65 770.539 336.489 C 769.412 335.328 768.848 333.932 768.848 332.303 C 768.848 330.599 769.4 329.191 770.503 328.077 C 771.607 326.963 773.017 326.407 774.735 326.407 C 776.419 326.407 777.791 326.986 778.853 328.145 C 779.916 329.303 780.447 330.811 780.447 332.666 L 780.447 332.771 Z " fill="rgb(254,254,254)"/><path d=" M 789.408 337.914 L 787.952 337.914 L 787.952 326.712 L 789.306 326.712 L 789.306 328.005 C 789.659 327.509 790.045 327.146 790.462 326.916 C 790.88 326.685 791.366 326.563 791.923 326.549 L 791.934 328.107 C 791.031 328.189 790.384 328.458 789.993 328.917 C 789.603 329.375 789.408 330.121 789.408 331.152 L 789.408 337.914 Z " fill="rgb(254,254,254)"/><path d=" M 802.44 331.519 C 802.169 330.273 801.67 329.335 800.943 328.706 C 800.217 328.076 799.269 327.761 798.101 327.761 C 797.015 327.761 796.096 328.1 795.342 328.776 C 794.588 329.454 794.127 330.367 793.956 331.519 L 802.44 331.519 Z  M 804.028 332.771 L 793.916 332.771 C 794.004 333.99 794.446 334.976 795.24 335.728 C 796.034 336.479 797.026 336.855 798.214 336.855 C 799.056 336.855 799.813 336.637 800.484 336.202 C 801.157 335.765 801.676 335.157 802.043 334.381 L 803.672 334.381 C 803.157 335.62 802.431 336.571 801.498 337.235 C 800.565 337.898 799.483 338.23 798.254 338.23 C 796.625 338.23 795.247 337.65 794.12 336.489 C 792.992 335.328 792.429 333.932 792.429 332.303 C 792.429 330.599 792.982 329.191 794.085 328.077 C 795.187 326.963 796.598 326.407 798.316 326.407 C 799.999 326.407 801.373 326.986 802.435 328.145 C 803.498 329.303 804.028 330.811 804.028 332.666 L 804.028 332.771 Z " fill="rgb(254,254,254)"/><path d=" M 809.91 337.914 L 808.597 337.914 L 804.218 326.712 L 805.736 326.712 L 809.321 335.745 L 812.936 326.712 L 814.494 326.712 L 809.91 337.914 Z " fill="rgb(254,254,254)"/><path d=" M 816.231 332.303 C 816.231 333.593 816.642 334.674 817.463 335.546 C 818.286 336.419 819.307 336.855 820.53 336.855 C 821.731 336.855 822.739 336.419 823.554 335.546 C 824.368 334.674 824.776 333.586 824.776 332.283 C 824.776 330.959 824.363 329.871 823.538 329.018 C 822.714 328.166 821.667 327.741 820.397 327.741 C 819.257 327.741 818.277 328.178 817.458 329.055 C 816.641 329.93 816.231 331.013 816.231 332.303 Z  M 814.724 332.323 C 814.724 330.681 815.287 329.274 816.415 328.107 C 817.543 326.939 818.876 326.356 820.417 326.356 C 822.04 326.356 823.422 326.929 824.567 328.077 C 825.711 329.223 826.283 330.592 826.283 332.18 C 826.283 333.851 825.722 335.277 824.602 336.457 C 823.482 337.639 822.124 338.23 820.53 338.23 C 818.907 338.23 817.534 337.651 816.41 336.494 C 815.286 335.336 814.724 333.946 814.724 332.323 Z " fill="rgb(254,254,254)"/><path d=" M 827.848 337.914 L 827.848 321.174 L 829.284 321.174 L 829.284 337.914 L 827.848 337.914 Z " fill="rgb(254,254,254)"/><path d=" M 831.42 326.712 L 832.835 326.712 L 832.835 332.659 C 832.835 334.186 833.083 335.268 833.578 335.902 C 834.073 336.538 834.889 336.855 836.023 336.855 C 836.668 336.855 837.234 336.724 837.723 336.463 C 838.211 336.202 838.606 335.823 838.905 335.328 C 839.073 335.036 839.196 334.691 839.271 334.294 C 839.345 333.896 839.383 333.206 839.383 332.221 L 839.383 326.712 L 840.819 326.712 L 840.819 337.914 L 839.383 337.914 L 839.383 336.703 C 838.949 337.231 838.463 337.616 837.926 337.853 C 837.39 338.09 836.741 338.21 835.981 338.21 C 834.366 338.21 833.201 337.774 832.488 336.901 C 831.776 336.028 831.42 334.581 831.42 332.557 L 831.42 326.712 Z " fill="rgb(254,254,254)"/><path d=" M 843.932 337.914 L 843.932 328.158 L 841.803 328.158 L 841.803 326.712 L 843.932 326.712 L 843.932 323.087 L 845.367 323.087 L 845.367 326.712 L 847.496 326.712 L 847.496 328.158 L 845.367 328.158 L 845.367 337.914 L 843.932 337.914 Z " fill="rgb(254,254,254)"/><path d=" M 848.521 337.914 L 848.521 326.712 L 849.957 326.712 L 849.957 337.914 L 848.521 337.914 Z  M 849.957 325.398 L 848.521 325.398 L 848.521 323.087 L 849.957 323.087 L 849.957 325.398 Z " fill="rgb(254,254,254)"/><path d=" M 853.029 332.303 C 853.029 333.593 853.44 334.674 854.261 335.546 C 855.083 336.419 856.104 336.855 857.327 336.855 C 858.528 336.855 859.536 336.419 860.351 335.546 C 861.165 334.674 861.572 333.586 861.572 332.283 C 861.573 330.959 861.16 329.871 860.336 329.018 C 859.512 328.166 858.464 327.741 857.194 327.741 C 856.054 327.741 855.074 328.178 854.256 329.055 C 853.438 329.93 853.029 331.013 853.029 332.303 Z  M 851.522 332.323 C 851.522 330.681 852.085 329.274 853.212 328.107 C 854.339 326.939 855.674 326.356 857.214 326.356 C 858.837 326.356 860.22 326.929 861.364 328.077 C 862.509 329.223 863.08 330.592 863.08 332.18 C 863.08 333.851 862.519 335.277 861.4 336.457 C 860.28 337.639 858.922 338.23 857.327 338.23 C 855.703 338.23 854.331 337.651 853.206 336.494 C 852.084 335.336 851.522 333.946 851.522 332.323 Z " fill="rgb(254,254,254)"/><path d=" M 864.624 326.712 L 866.019 326.712 L 866.019 327.985 C 866.461 327.476 866.972 327.099 867.552 326.855 C 868.133 326.61 868.796 326.488 869.543 326.488 C 870.365 326.488 871.095 326.64 871.737 326.946 C 872.379 327.251 872.887 327.69 873.259 328.26 C 873.518 328.66 873.704 329.131 873.814 329.671 C 873.926 330.211 873.983 331.006 873.983 332.058 L 873.983 337.914 L 872.567 337.914 L 872.567 331.641 C 872.567 330.317 872.314 329.357 871.809 328.759 C 871.303 328.162 870.493 327.863 869.38 327.863 C 868.728 327.863 868.156 327.994 867.664 328.255 C 867.172 328.516 866.783 328.892 866.498 329.38 C 866.321 329.685 866.198 330.034 866.126 330.424 C 866.055 330.815 866.018 331.495 866.018 332.466 L 866.019 337.914 L 864.624 337.914 L 864.624 326.712 Z " fill="rgb(254,254,254)"/><path d=" M 539.214 304.256 C 538.796 309.942 536.423 314.462 532.094 317.814 C 527.764 321.166 522.116 322.842 515.15 322.842 C 507.128 322.842 500.892 320.532 496.439 315.911 C 491.987 311.29 489.761 304.812 489.761 296.476 C 489.761 287.959 492.03 281.436 496.568 276.905 C 501.106 272.376 507.631 270.11 516.143 270.11 C 523.061 270.11 528.525 271.668 532.536 274.782 C 536.547 277.897 538.747 282.297 539.141 287.983 L 528.139 287.983 C 527.673 285.151 526.421 282.993 524.385 281.509 C 522.349 280.026 519.602 279.284 516.143 279.284 C 511.237 279.284 507.508 280.745 504.958 283.667 C 502.406 286.589 501.13 290.859 501.13 296.476 C 501.13 301.913 502.4 306.115 504.939 309.082 C 507.478 312.049 511.089 313.532 515.776 313.532 C 519.161 313.532 521.931 312.734 524.091 311.137 C 526.249 309.54 527.648 307.247 528.286 304.257 L 539.214 304.256 Z " fill="rgb(254,254,254)"/><path d=" M 552.808 292.662 L 563.792 292.662 C 566.178 292.662 567.931 292.255 569.052 291.441 C 570.173 290.627 570.734 289.346 570.734 287.597 C 570.734 285.935 570.189 284.675 569.098 283.818 C 568.008 282.961 566.384 282.532 564.224 282.532 L 552.808 282.532 L 552.808 292.662 Z  M 543.46 314.195 L 543.46 275.935 L 565.488 275.935 C 570.445 275.935 574.117 276.826 576.503 278.61 C 578.889 280.393 580.081 283.121 580.081 286.792 C 580.082 289.13 579.501 291.078 578.339 292.637 C 577.177 294.194 575.506 295.259 573.326 295.831 C 575.3 296.42 576.703 297.32 577.536 298.532 C 578.37 299.744 578.848 301.632 578.971 304.195 L 579.156 308.714 C 579.156 308.75 579.156 308.802 579.156 308.87 C 579.218 311.157 579.804 312.542 580.915 313.026 L 580.915 314.195 L 570.672 314.195 C 570.343 313.659 570.091 312.997 569.916 312.208 C 569.74 311.42 569.633 310.48 569.591 309.39 L 569.469 305.364 C 569.365 302.991 568.836 301.39 567.88 300.558 C 566.923 299.728 565.2 299.312 562.712 299.312 L 552.808 299.312 L 552.808 314.195 L 543.46 314.195 Z " fill="rgb(254,254,254)"/><path d=" M 582.477 314.195 L 582.477 275.935 L 615.487 275.935 L 615.487 282.584 L 591.701 282.584 L 591.701 290.74 L 613.448 290.74 L 613.448 297.285 L 591.701 297.285 L 591.701 307.13 L 616.599 307.13 L 616.599 314.195 L 582.477 314.195 Z " fill="rgb(254,254,254)"/><path d=" M 701.749 314.195 L 701.749 275.935 L 711.096 275.935 L 711.096 307.13 L 733.28 307.13 L 733.28 314.195 L 701.749 314.195 Z " fill="rgb(254,254,254)"/><path d=" M 734.359 275.831 L 743.801 275.831 L 743.801 299.831 C 743.801 302.792 744.499 304.953 745.897 306.312 C 747.297 307.671 749.518 308.351 752.563 308.351 C 755.648 308.351 757.894 307.675 759.303 306.324 C 760.712 304.974 761.417 302.81 761.417 299.831 L 761.417 275.831 L 770.765 275.831 L 770.765 300.688 C 770.765 305.381 769.207 308.983 766.091 311.493 C 762.975 314.005 758.486 315.26 752.624 315.26 C 746.721 315.26 742.201 314.01 739.064 311.507 C 735.928 309.005 734.359 305.399 734.359 300.688 L 734.359 275.831 Z " fill="rgb(254,254,254)"/><path d=" M 786.685 314.195 L 786.685 282.766 L 773.203 282.766 L 773.203 275.935 L 809.423 275.935 L 809.423 282.766 L 796.033 282.766 L 796.033 314.195 L 786.685 314.195 Z " fill="rgb(254,254,254)"/><path d=" M 869.313 314.195 L 869.313 275.935 L 879.094 275.935 L 897.544 302.221 L 897.544 275.935 L 906.769 275.935 L 906.769 314.195 L 897.111 314.195 L 878.538 287.909 L 878.538 314.195 L 869.313 314.195 Z " fill="rgb(254,254,254)"/><path d=" M 845.201 284.962 C 839.355 284.962 834.598 289.72 834.598 295.567 C 834.598 301.413 839.355 306.171 845.201 306.171 C 851.049 306.171 855.805 301.414 855.805 295.567 C 855.805 289.719 851.049 284.962 845.201 284.962 Z  M 845.201 308.702 C 837.959 308.702 832.067 302.81 832.067 295.567 C 832.067 288.324 837.959 282.432 845.201 282.432 C 852.444 282.432 858.336 288.324 858.336 295.567 C 858.336 302.809 852.444 308.702 845.201 308.702 Z " fill="rgb(254,254,254)"/><path d=" M 829.365 295.567 C 829.365 286.834 836.469 279.731 845.201 279.731 C 853.934 279.731 861.039 286.834 861.039 295.567 C 861.039 304.299 853.934 311.404 845.201 311.404 C 836.469 311.404 829.365 304.299 829.365 295.567 Z  M 866.055 295.567 C 866.055 295.433 866.047 295.301 866.044 295.168 L 866.518 295.145 L 866.463 294.022 L 865.994 294.046 C 865.975 293.798 865.957 293.551 865.93 293.306 L 866.394 293.241 L 866.239 292.128 L 865.778 292.193 C 865.738 291.947 865.695 291.703 865.647 291.461 L 866.101 291.355 L 865.848 290.261 L 865.399 290.365 C 865.336 290.124 865.265 289.887 865.195 289.651 L 865.641 289.504 L 865.291 288.437 L 864.848 288.582 C 864.764 288.347 864.675 288.117 864.583 287.888 L 865.017 287.7 L 864.572 286.669 L 864.14 286.855 C 864.037 286.629 863.929 286.408 863.817 286.186 L 864.235 285.961 L 863.699 284.972 L 863.282 285.198 C 863.159 284.983 863.033 284.77 862.903 284.56 L 863.299 284.297 L 862.677 283.361 L 862.281 283.624 C 862.139 283.422 861.996 283.22 861.847 283.023 L 862.219 282.724 L 861.517 281.848 L 861.145 282.146 C 860.985 281.957 860.826 281.768 860.658 281.585 L 861.002 281.253 L 860.225 280.443 L 859.882 280.773 C 859.706 280.598 859.527 280.429 859.345 280.261 L 859.66 279.898 L 858.813 279.161 L 858.502 279.519 C 858.311 279.361 858.115 279.209 857.919 279.058 L 858.201 278.669 L 857.291 278.009 L 857.013 278.394 C 856.809 278.254 856.601 278.118 856.393 277.985 L 856.639 277.574 L 855.674 276.999 L 855.43 277.406 C 855.216 277.284 854.998 277.166 854.777 277.053 L 854.983 276.624 L 853.971 276.138 L 853.767 276.562 C 853.542 276.46 853.315 276.36 853.086 276.267 L 853.251 275.824 L 852.198 275.431 L 852.035 275.87 C 851.801 275.789 851.567 275.707 851.329 275.634 L 851.454 275.184 L 850.37 274.886 L 850.247 275.334 C 850.007 275.275 849.765 275.219 849.523 275.167 L 849.605 274.708 L 848.5 274.508 L 848.418 274.963 C 848.174 274.924 847.928 274.896 847.68 274.867 L 847.724 274.397 L 846.605 274.297 L 846.563 274.764 C 846.316 274.747 846.069 274.737 845.82 274.729 L 845.82 274.257 L 844.697 274.257 L 844.697 274.727 C 844.335 274.735 843.975 274.753 843.617 274.78 L 843.567 274.31 L 842.45 274.428 L 842.5 274.895 C 842.253 274.926 842.008 274.962 841.764 275.003 L 841.673 274.542 L 840.571 274.76 L 840.661 275.218 C 840.419 275.271 840.177 275.326 839.938 275.388 L 839.807 274.941 L 838.729 275.257 L 838.86 275.703 C 838.623 275.778 838.389 275.858 838.156 275.941 L 837.985 275.506 L 836.939 275.917 L 837.109 276.348 C 836.88 276.446 836.656 276.55 836.433 276.654 L 836.22 276.231 L 835.216 276.735 L 835.425 277.155 C 835.207 277.271 834.992 277.394 834.778 277.518 L 834.527 277.112 L 833.572 277.702 L 833.821 278.107 C 833.614 278.242 833.409 278.381 833.207 278.525 L 832.92 278.14 L 832.021 278.814 L 832.307 279.197 C 832.113 279.35 831.921 279.506 831.732 279.666 L 831.412 279.308 L 830.576 280.059 L 830.897 280.416 C 830.716 280.586 830.537 280.756 830.363 280.933 L 830.012 280.606 L 829.248 281.429 L 829.599 281.755 C 829.434 281.94 829.269 282.125 829.112 282.316 L 828.737 282.024 L 828.048 282.913 L 828.423 283.202 C 828.276 283.401 828.131 283.603 827.992 283.807 L 827.591 283.551 L 826.985 284.496 L 827.379 284.749 C 827.251 284.96 827.129 285.177 827.009 285.393 L 826.588 285.173 L 826.068 286.169 L 826.484 286.386 C 826.374 286.608 826.271 286.833 826.17 287.06 L 825.733 286.879 L 825.304 287.918 L 825.738 288.096 C 825.649 288.327 825.564 288.56 825.484 288.795 L 825.034 288.654 L 824.7 289.728 L 825.147 289.866 C 825.08 290.104 825.014 290.343 824.954 290.584 L 824.497 290.486 L 824.261 291.585 L 824.717 291.683 C 824.671 291.925 824.624 292.168 824.587 292.414 L 824.126 292.357 L 823.988 293.472 L 824.449 293.528 C 824.426 293.774 824.408 294.021 824.392 294.269 L 823.923 294.255 L 823.886 295.378 L 824.353 295.392 C 824.352 295.45 824.348 295.509 824.348 295.567 C 824.349 295.757 824.358 295.945 824.363 296.136 L 823.891 296.162 L 823.955 297.284 L 824.423 297.257 C 824.442 297.505 824.466 297.752 824.494 297.997 L 824.029 298.066 L 824.193 299.177 L 824.655 299.109 C 824.697 299.353 824.739 299.598 824.79 299.84 L 824.337 299.948 L 824.6 301.041 L 825.051 300.932 C 825.116 301.172 825.183 301.41 825.255 301.647 L 824.812 301.796 L 825.172 302.861 L 825.61 302.713 C 825.696 302.945 825.789 303.175 825.882 303.404 L 825.451 303.594 L 825.904 304.622 L 826.333 304.434 C 826.439 304.658 826.551 304.878 826.663 305.099 L 826.248 305.328 L 826.791 306.312 L 827.206 306.083 C 827.33 306.297 827.46 306.507 827.592 306.716 L 827.197 306.983 L 827.826 307.914 L 828.221 307.647 C 828.364 307.849 828.51 308.049 828.661 308.245 L 828.289 308.548 L 828.999 309.418 L 829.37 309.116 C 829.531 309.305 829.693 309.491 829.86 309.673 L 829.518 310.008 L 830.304 310.812 L 830.645 310.478 C 830.821 310.651 830.999 310.824 831.181 310.99 L 830.872 311.352 L 831.725 312.083 L 832.033 311.722 C 832.226 311.879 832.42 312.032 832.617 312.181 L 832.34 312.57 L 833.256 313.221 L 833.529 312.838 C 833.733 312.977 833.943 313.109 834.153 313.24 L 833.912 313.652 L 834.882 314.219 L 835.12 313.813 C 835.335 313.932 835.556 314.047 835.777 314.159 L 835.575 314.589 L 836.591 315.067 L 836.791 314.642 C 837.017 314.742 837.245 314.838 837.475 314.931 L 837.314 315.374 L 838.369 315.758 L 838.529 315.319 C 838.764 315.398 838.999 315.475 839.237 315.546 L 839.116 315.999 L 840.202 316.289 L 840.322 315.838 C 840.562 315.895 840.802 315.953 841.046 316.003 L 840.968 316.461 L 842.074 316.653 L 842.154 316.195 C 842.398 316.231 842.643 316.261 842.89 316.289 L 842.853 316.757 L 843.973 316.848 L 844.01 316.383 C 844.256 316.398 844.504 316.403 844.752 316.409 L 844.756 316.882 L 845.88 316.872 L 845.876 316.402 C 846.124 316.395 846.371 316.383 846.617 316.367 L 846.665 316.836 L 847.781 316.727 L 847.736 316.26 C 847.983 316.231 848.229 316.2 848.473 316.161 L 848.559 316.62 L 849.663 316.411 L 849.577 315.954 C 849.819 315.902 850.061 315.847 850.301 315.787 L 850.428 316.236 L 851.51 315.929 L 851.383 315.485 C 851.62 315.411 851.853 315.329 852.086 315.246 L 852.255 315.686 L 853.304 315.284 L 853.137 314.847 C 853.366 314.753 853.594 314.652 853.817 314.549 L 854.026 314.975 L 855.035 314.48 L 854.827 314.056 C 855.047 313.942 855.264 313.823 855.479 313.701 L 855.726 314.108 L 856.687 313.525 L 856.441 313.118 C 856.648 312.985 856.854 312.849 857.058 312.707 L 857.342 313.093 L 858.246 312.426 L 857.963 312.042 C 858.159 311.891 858.353 311.738 858.543 311.579 L 858.86 311.937 L 859.701 311.192 L 859.384 310.834 C 859.566 310.667 859.746 310.497 859.922 310.323 L 860.269 310.65 L 861.04 309.834 L 860.695 309.508 C 860.86 309.323 861.022 309.136 861.181 308.947 L 861.557 309.243 L 862.253 308.36 L 861.881 308.068 C 862.03 307.87 862.171 307.667 862.313 307.465 L 862.714 307.726 L 863.328 306.784 L 862.932 306.526 C 863.063 306.317 863.187 306.103 863.31 305.888 L 863.732 306.112 L 864.258 305.119 L 863.841 304.899 C 863.953 304.677 864.06 304.453 864.163 304.229 L 864.599 304.412 L 865.037 303.377 L 864.603 303.194 C 864.695 302.965 864.783 302.733 864.865 302.5 L 865.312 302.643 L 865.655 301.572 L 865.21 301.43 C 865.28 301.193 865.349 300.955 865.41 300.714 L 865.865 300.816 L 866.11 299.72 L 865.657 299.619 C 865.705 299.377 865.748 299.132 865.788 298.887 L 866.252 298.948 L 866.397 297.834 L 865.937 297.773 C 865.963 297.528 865.98 297.28 865.998 297.033 L 866.469 297.053 L 866.516 295.93 L 866.046 295.91 C 866.048 295.796 866.055 295.682 866.055 295.567 Z " fill="rgb(254,254,254)"/><path d=" M 819.446 284.929 L 815.684 284.929 L 815.684 282.904 C 815.16 282.935 813.765 283.018 812.391 283.093 C 812.957 284.459 813.921 285.327 814.169 286.601 C 814.535 288.482 813.646 311.682 813.646 313.563 C 813.646 315.097 813.926 316.805 815.249 317.212 C 814.352 316.058 814.394 314.305 814.8 311.908 C 815.365 308.568 815.113 286.926 815.11 286.708 C 815.109 286.592 815.201 286.498 815.317 286.496 L 815.318 286.496 C 815.433 286.496 815.526 286.588 815.527 286.703 C 815.538 287.595 815.782 308.602 815.211 311.978 C 814.722 314.87 814.913 316.406 815.933 317.302 C 816.054 317.3 816.179 317.291 816.311 317.272 C 818.559 316.958 818.507 315.443 818.507 315.443 C 818.507 315.443 819.342 290.572 819.446 288.587 C 819.551 286.601 819.917 286.34 820.7 284.981 C 821.378 283.807 822.557 282.823 822.732 280.726 C 821.216 281.816 819.918 282.144 819.446 282.233 L 819.446 284.929 Z  M 814.065 275.935 C 814.065 275.935 812.109 277.646 811.981 280.64 C 813.899 280.443 814.918 280.062 815.396 279.821 C 814.73 278.628 814.064 275.935 814.065 275.935 Z  M 819.028 284.51 L 819.028 281.637 L 816.103 281.637 L 816.103 284.51 L 819.028 284.51 Z  M 815.684 281.219 L 819.446 281.219 L 819.446 281.804 C 819.955 281.693 821.257 281.314 822.741 280.184 C 822.741 280.007 822.753 279.842 822.739 279.651 C 822.53 276.777 819.917 274.792 819.917 274.792 C 819.917 274.792 820.387 277.144 820.282 278.659 C 820.179 280.174 816.73 280.383 815.946 280.383 C 815.843 280.383 815.736 280.304 815.626 280.173 C 815.106 280.444 814.02 280.856 811.976 281.06 C 811.99 281.68 812.087 282.214 812.24 282.683 C 813.677 282.604 815.165 282.517 815.684 282.485 L 815.684 281.219 Z " fill="rgb(254,254,254)"/><path d=" M 638.058 311.976 C 638.015 313.372 637.784 316.861 636.555 319.936 L 636.449 320.199 L 635.437 320.199 L 635.437 320.692 L 636.276 321.35 L 636.229 321.6 C 636.215 321.668 634.975 328.063 631.279 335.495 L 634.424 336.013 C 634.424 336.013 636.375 334.272 638.234 327.787 C 640.093 321.303 640.694 313.579 640.694 313.579 L 639.404 312.425 C 638.98 312.316 638.526 312.161 638.058 311.976 Z  M 648.706 274.983 C 648.706 274.983 644.387 273.521 643.146 275.935 C 641.906 278.348 642.158 282.577 642.855 287.106 C 643.551 291.635 643.342 293.446 638.331 299.366 C 636.031 302.082 634.398 305.56 633.302 308.531 C 634.363 309.192 637.39 311.011 639.502 311.589 C 640.531 305.58 643.338 301.724 646.408 298.322 C 649.612 294.77 648.428 291.007 648.11 286.127 C 647.792 281.246 648.706 274.983 648.706 274.983 Z  M 626.814 309.843 C 628.051 309.859 629.616 309.948 630.988 310.234 C 631.087 309.051 631.21 307.72 631.359 306.334 C 631.847 301.806 630.593 299.994 628.227 295.401 C 625.86 290.807 626.969 288.15 627.806 285.852 C 628.641 283.553 630.383 280.836 630.732 276.561 C 631.08 272.286 625.148 272.109 625.148 272.109 C 625.626 274.947 625.158 279.025 622.79 284.11 C 620.422 289.196 621.396 293.864 622.51 296.163 C 623.625 298.462 625.995 302.084 626.691 306.822 C 626.893 308.196 626.904 309.151 626.814 309.843 Z  M 636.55 317.122 C 637.126 314.672 637.216 312.376 637.229 311.623 C 635.551 310.866 633.861 309.863 633.012 309.336 C 632.334 311.284 631.899 312.942 631.668 313.914 C 634.182 314.819 635.781 316.274 636.55 317.122 Z  M 634.601 321.099 L 634.601 319.362 L 635.88 319.362 C 636.035 318.951 636.171 318.531 636.292 318.112 C 635.878 317.585 634.298 315.779 631.483 314.735 C 631.471 314.798 631.464 314.834 631.464 314.834 L 630.663 314.833 C 630.663 314.833 630.743 313.31 630.919 311.075 C 629.533 310.773 627.879 310.69 626.622 310.681 C 626.287 311.591 625.705 311.72 625.506 312.117 C 625.158 312.813 625.228 315.809 625.228 315.809 L 625.995 315.809 L 625.995 317.133 L 624.74 317.133 C 625.158 320.756 626.9 331.137 626.9 331.137 L 628.154 331.067 L 628.641 322.916 L 630.314 323.264 L 628.921 335.107 L 630.417 335.353 C 633.737 328.752 635.09 322.939 635.356 321.691 L 634.601 321.099 Z " fill="rgb(254,254,254)"/><path d=" M 675.998 311.18 C 667.576 311.18 660.723 304.326 660.723 295.903 C 660.723 287.481 667.576 280.628 675.998 280.628 C 684.422 280.628 691.274 287.481 691.274 295.903 C 691.274 304.326 684.422 311.18 675.998 311.18 Z  M 694.125 297.498 L 700.503 296.454 L 699.384 287.969 L 692.812 288.94 C 692.103 287.234 691.143 285.659 689.976 284.26 L 693.815 279 L 687.059 273.745 L 683.015 279.11 C 681.373 278.422 679.611 277.967 677.768 277.789 L 676.797 271.267 L 668.296 272.268 L 669.197 279.025 C 667.527 279.701 665.979 280.616 664.597 281.729 L 659.249 277.71 L 653.899 284.39 L 659.329 288.604 C 658.512 290.464 657.999 292.484 657.849 294.604 L 651.983 295.11 L 652.457 303.656 L 659.315 303.17 C 660.056 304.865 661.048 306.424 662.244 307.804 L 658.578 313.085 L 665.455 318.179 L 669.299 312.822 C 670.964 313.484 672.747 313.906 674.608 314.047 L 675.714 320.376 L 684.187 319.163 L 683.15 312.639 C 684.835 311.916 686.388 310.945 687.767 309.773 L 693.025 313.51 L 698.195 306.689 L 692.853 302.766 C 693.526 301.116 693.965 299.346 694.125 297.498 Z  M 675.998 302.461 C 672.383 302.461 669.441 299.519 669.441 295.903 C 669.441 292.287 672.383 289.346 675.998 289.346 C 679.615 289.346 682.556 292.287 682.556 295.903 C 682.557 299.519 679.615 302.461 675.998 302.461 Z  M 675.998 282.473 C 668.593 282.473 662.569 288.497 662.569 295.903 C 662.569 303.309 668.593 309.333 675.998 309.333 C 683.405 309.333 689.429 303.309 689.429 295.903 C 689.429 288.497 683.404 282.473 675.998 282.473 Z " fill="rgb(254,254,254)"/><path d=" M 600.891 244.418 L 596.765 244.418 L 597.406 240.881 L 601.533 240.881 L 600.891 244.418 Z  M 610.911 240.881 L 610.911 237.609 L 606.41 237.609 L 607.826 229.803 L 603.543 229.803 L 602.126 237.609 L 597.999 237.609 L 599.416 229.803 L 595.131 229.803 L 593.715 237.609 L 588.338 237.609 L 588.338 240.881 L 593.122 240.881 L 592.479 244.418 L 586.826 244.418 L 586.826 247.689 L 591.886 247.689 L 590.429 255.72 L 594.713 255.72 L 596.171 247.689 L 600.297 247.689 L 598.84 255.72 L 603.124 255.72 L 604.581 247.689 L 609.399 247.689 L 609.399 244.418 L 605.176 244.418 L 605.817 240.881 L 610.911 240.881 Z " fill="rgb(254,254,254)"/><path d=" M 616.514 237.341 L 635.365 237.341 C 635.365 237.341 636.253 237.38 636.253 238.686 C 636.253 239.992 636.253 239.993 636.253 239.993 C 636.253 239.992 636.41 241.717 635.47 241.717 C 634.529 241.717 620.943 241.717 620.943 241.717 C 620.943 241.717 616.514 241.769 616.514 247.413 C 616.514 253.055 616.514 255.093 616.514 255.093 L 640.173 255.093 L 640.173 250.809 L 620.212 250.809 L 620.212 247.621 C 620.212 247.621 620.422 246.217 621.414 246.217 C 622.407 246.217 635.783 246.217 635.783 246.217 C 635.783 246.217 640.173 246.628 640.173 239.94 C 640.173 239.94 640.173 237.641 640.173 236.336 C 640.173 235.028 638.866 232.312 635.47 232.312 C 632.074 232.312 616.514 232.312 616.514 232.312 L 616.514 237.341 Z " fill="rgb(254,254,254)"/><path d=" M 662.954 240.985 C 662.954 241.448 662.579 241.821 662.117 241.821 L 647.383 241.821 C 646.92 241.821 646.547 241.448 646.547 240.985 L 646.547 238.163 C 646.547 237.701 646.92 237.328 647.383 237.328 L 662.117 237.328 C 662.579 237.328 662.954 237.701 662.954 238.163 L 662.954 240.985 Z  M 662.954 249.555 C 662.954 250.016 662.579 250.391 662.117 250.391 L 647.383 250.391 C 646.92 250.391 646.547 250.016 646.547 249.555 L 646.547 246.733 C 646.547 246.271 646.92 245.897 647.383 245.897 L 662.117 245.897 C 662.579 245.897 662.954 246.271 662.954 246.733 L 662.954 249.555 Z  M 666.403 236.805 C 666.403 234.497 664.531 232.625 662.222 232.625 L 647.226 232.625 C 644.918 232.625 643.046 234.497 643.046 236.805 L 643.046 241.246 C 643.046 242.241 643.408 243.142 643.987 243.859 C 643.408 244.577 643.046 245.478 643.046 246.472 L 643.046 250.913 C 643.046 253.222 644.918 255.093 647.225 255.093 L 662.222 255.093 C 664.531 255.093 666.403 253.222 666.403 250.913 L 666.403 246.472 C 666.403 245.477 666.041 244.577 665.461 243.859 C 666.041 243.142 666.403 242.241 666.403 241.246 L 666.403 236.805 Z " fill="rgb(254,254,254)"/><path d=" M 693.051 232.625 L 669.067 232.625 L 669.067 246.106 L 687.755 246.106 C 687.755 246.106 689.219 246.141 689.219 248.144 L 689.219 249.171 C 689.219 249.171 689.219 250.948 687.651 250.948 C 686.084 250.948 669.067 250.948 669.067 250.948 L 669.067 255.093 L 687.442 255.093 C 687.442 255.093 693.051 254.85 693.051 250.391 C 693.051 245.932 693.051 245.375 693.051 245.375 C 693.051 245.374 692.593 241.596 687.723 241.596 C 682.853 241.595 673.369 241.596 673.369 241.596 L 673.369 237.328 L 693.051 237.328 L 693.051 232.625 Z " fill="rgb(254,254,254)"/><path d=" M 695.611 232.625 L 695.611 237.275 L 699.556 237.275 L 699.556 255.093 L 703.5 255.093 L 703.5 237.275 L 703.5 235.603 L 703.5 232.625 L 695.611 232.625 Z " fill="rgb(254,254,254)"/></g></svg>