<?xml version="1.0" encoding="UTF-8"?>
<svg xmlns="http://www.w3.org/2000/svg" viewBox="0 0 500 500">
  <defs>
    <style>
      .cls-1 {
        fill: #f4f7fc;
      }

      .cls-2 {
        fill: #efb821;
      }
    </style>
  </defs>
  <g id="White">
    <path class="cls-1" d="M465.39,377l5.59,5.59-88.39,88.38-5.59-5.58-22.92-22.93c-13.11,7.1-27.03,12.9-41.58,17.23v40.31h-125v-40.31c-14.55-4.33-28.46-10.13-41.57-17.23l-22.93,22.93-5.59,5.58-88.38-88.38,5.58-5.59,22.93-22.92c-7.1-13.12-12.9-27.03-17.23-41.58H0v-125h40.31c4.33-14.55,10.13-28.46,17.23-41.58l-22.93-22.92-5.58-5.59,44.2-44.19,44.18-44.2,28.52,28.52c13.11-7.1,27.02-12.9,41.57-17.23V0h125v40.31c14.55,4.33,28.47,10.13,41.58,17.23l28.51-28.52,44.19,44.2,44.2,44.19-5.59,5.59-22.93,22.92-41.57,41.58h-48.43c-21.08-34.48-59.08-57.5-102.46-57.5-66.27,0-120,53.73-120,120s53.73,120,120,120c43.38,0,81.38-23.02,102.46-57.5h48.43l41.57,41.58,22.93,22.92Z"/>
  </g>
  <g id="UI">
    <g>
      <path class="cls-2" d="M219.05,265.47v4.9h54.95v12.89h-69.09v-17.78c0-3.76.37-7.01,1.1-9.64.84-3.06,2.49-5.57,4.91-7.44,2.29-1.78,5.4-3.01,9.48-3.75,3.7-.67,8.55-1.01,14.45-1.04h13.95c3.91,0,6.97-.13,9.1-.39,2.35-.29,3.19-.78,3.39-.94.13-.09.48-.35.63-1.22.21-1.28.32-3.03.32-5.23,0-2.66-.29-4.11-.53-4.86-.19-.56-.48-.88-1.02-1.14-.69-.32-2.09-.74-4.91-.93-2.61-.19-6.13-.27-10.47-.27h-8.5c-4.56,0-8.25.08-10.95.27-2.97.19-4.46.63-5.17.94-.59.28-.9.61-1.09,1.16-.25.74-.55,2.18-.55,4.83v3.33h-14.14v-3.33c0-3.82.44-6.93,1.34-9.51,1.01-2.94,2.89-5.27,5.56-6.92,2.43-1.52,5.65-2.53,9.84-3.1,3.83-.53,8.79-.8,14.77-.8h9.27c5.76,0,10.58.27,14.3.8,4.1.57,7.25,1.6,9.64,3.11,2.59,1.66,4.43,3.99,5.43,6.92.88,2.58,1.3,5.69,1.3,9.5,0,4.88-.67,8.73-2.02,11.72-1.54,3.35-4.2,5.76-7.95,7.16-3.3,1.22-7.69,1.82-13.41,1.82h-17.15c-4.51,0-8.09.16-10.66.45-2.83.32-4.06.9-4.52,1.22-.6.4-.94.93-1.13,1.72-.32,1.36-.48,3.23-.48,5.56Z"/>
      <g>
        <polygon class="cls-2" points="500 270.92 500 283.81 441.06 283.81 441.06 270.92 464.99 270.92 464.99 230.27 441.06 230.27 441.06 217.29 468.31 217.29 471.64 217.3 479.12 217.3 479.12 270.92 500 270.92"/>
        <path class="cls-2" d="M353.77,235.82c0-3.82-.43-6.93-1.33-9.51-1.01-2.94-2.89-5.27-5.56-6.92-2.43-1.52-5.65-2.53-9.86-3.1-3.82-.53-8.78-.8-14.75-.8h-9.27c-5.97,0-10.93.27-14.75.8-4.19.57-7.42,1.58-9.86,3.1-2.67,1.65-4.54,3.98-5.56,6.92-.89,2.58-1.33,5.69-1.33,9.51,0,4.78.94,8.43,2.9,11.16.52.74,1.09,1.41,1.7,2-.64.64-1.24,1.36-1.77,2.17-1.92,2.82-2.83,6.57-2.83,11.48,0,3.79.37,7.06,1.12,9.72.85,3.09,2.55,5.6,5.04,7.48,2.34,1.77,5.49,2.98,9.64,3.7,3.76.65,8.71.98,14.73.98h11.23c6,0,10.95-.33,14.71-.98,4.15-.72,7.3-1.93,9.66-3.7,2.47-1.88,4.18-4.39,5.04-7.48.73-2.66,1.1-5.93,1.1-9.72,0-4.91-.92-8.66-2.82-11.48-.55-.81-1.14-1.53-1.78-2.17.61-.59,1.18-1.25,1.72-2,1.94-2.73,2.89-6.39,2.89-11.16ZM339.24,240.12c-.12.44-.32.71-.73.94-.44.25-1.56.72-4.15,1-2.34.24-5.63.37-9.75.37h-13.95c-4.12,0-7.4-.13-9.74-.37-2.61-.28-3.72-.74-4.15-1-.41-.24-.63-.51-.73-.94-.27-1.04-.41-2.49-.41-4.3,0-2.65.31-4.08.55-4.83.19-.55.51-.88,1.09-1.16.73-.32,2.22-.76,5.17-.94,2.71-.19,6.4-.27,10.95-.27h8.5c4.56,0,8.23.08,10.95.27,2.97.19,4.44.63,5.17.94.59.28.9.61,1.09,1.16.25.74.55,2.18.55,4.83,0,1.81-.13,3.26-.4,4.3ZM296.06,257.89c.15-.53.4-.85.89-1.14.48-.27,1.72-.77,4.58-1.04,2.57-.24,6.16-.36,10.68-.36h10.84c4.52,0,8.11.12,10.68.36,2.87.27,4.1.77,4.58,1.04.51.29.74.61.89,1.14.29,1.13.44,2.71.44,4.74,0,2.33-.16,4.18-.48,5.51-.17.76-.51,1.25-1.09,1.62-.48.32-1.7.89-4.55,1.2-2.57.29-6.16.43-10.67.43h-10.44c-4.51,0-8.09-.13-10.67-.43-2.83-.31-4.07-.88-4.55-1.2-.59-.37-.9-.86-1.09-1.62-.32-1.33-.48-3.18-.48-5.51,0-2.02.15-3.6.44-4.74Z"/>
        <path class="cls-2" d="M430.9,250.08c.63,2.41.94,5.32.94,8.65v3.9c0,3.79-.37,7.08-1.12,9.74-.85,3.11-2.55,5.63-5.05,7.49-2.34,1.74-5.49,2.95-9.63,3.67-3.76.65-8.71.98-14.73.98h-9.62c-6.01,0-10.96-.33-14.73-.98-4.15-.72-7.3-1.93-9.64-3.7-2.49-1.88-4.19-4.39-5.04-7.48-.74-2.66-1.12-5.93-1.12-9.72v-3.33h14.13v3.33c0,2.33.16,4.18.48,5.51.17.76.51,1.25,1.09,1.62.48.32,1.72.89,4.55,1.2,2.57.29,6.16.43,10.67.43h8.85c4.51,0,8.1-.13,10.68-.4,2.83-.31,4.06-.86,4.54-1.18.57-.37.9-.88,1.09-1.64.32-1.34.48-3.21.48-5.53v-3.9c0-2.02-.15-3.6-.44-4.74-.15-.53-.39-.85-.89-1.14-.48-.27-1.72-.77-4.58-1.04-2.57-.24-6.16-.36-10.68-.36h-8.26c-5.61,0-9.76.2-12.34.57-2.63.39-3.41,1.13-3.58,1.34l-1,1.25h-13.77v-37.87h67.02v12.89h-52.89v10.27c2.61-.92,5.77-1.37,9.54-1.37h18.01c5.68,0,10.15.32,13.66.97,3.86.72,6.76,1.89,8.89,3.59,2.25,1.8,3.75,4.14,4.5,6.98Z"/>
      </g>
    </g>
  </g>
</svg>