<?xml version="1.0" encoding="UTF-8"?>
<svg id="Layer_1" xmlns="http://www.w3.org/2000/svg" viewBox="0 0 1419 456">
  <defs>
    <style>
      .cls-1 {
        fill: #fff;
      }

      .cls-2 {
        fill: #f0b825;
      }
    </style>
  </defs>
  <g id="Black">
    <path class="cls-1" d="M1419,165.63v31.25h-81.25c0-24.16-19.59-43.75-43.75-43.75s-43.75,19.59-43.75,43.75h-81.25v-31.25l6.12-16.36.49,12.43,3.41-5.54-.09,9.47h10.21c2.17-7.28,5.07-14.23,8.62-20.79l-14.25-14.26,22.08-22.09,22.09-22.1,13.54-7.77-7.41,13.78,8.2,8.2c6.53-3.53,13.45-6.41,20.69-8.56v-20.16h62.6l21.51,4.66-16.69,1.87,5.61,1.98-10.43.58v11.07c7.24,2.15,14.16,5.03,20.69,8.56l14.2-14.21.07.07.06-.07,44.17,44.19h0l6.86,11.45-10.9-7.41-10.21,10.22c3.55,6.56,6.45,13.51,8.62,20.79h20.14Z"/>
    <path class="cls-1" d="M296.44,377.77l3.56,3.56-56.3,56.3-3.56-3.55-14.6-14.61c-8.35,4.52-17.22,8.22-26.49,10.97v25.68h-79.62v-25.68c-9.27-2.76-18.13-6.45-26.48-10.97l-14.61,14.61-3.56,3.55-56.3-56.3,3.55-3.56,14.61-14.6c-4.52-8.36-8.22-17.22-10.97-26.49H0v-79.62h25.68c2.76-9.27,6.45-18.13,10.97-26.49l-14.61-14.6-3.55-3.56,28.15-28.15,28.14-28.15,18.17,18.17c8.35-4.52,17.21-8.22,26.48-10.97v-25.68h79.62v25.68c9.27,2.76,18.13,6.45,26.49,10.97l18.16-18.17,28.15,28.15,28.15,28.15-3.56,3.56-14.61,14.6-26.48,26.49h-30.85c-13.43-21.96-37.63-36.63-65.26-36.63-42.21,0-76.44,34.22-76.44,76.44s34.22,76.44,76.44,76.44c27.63,0,51.84-14.66,65.26-36.63h30.85l26.48,26.49,14.61,14.6h0Z"/>
    <path class="cls-1" d="M356.22,325.2h-8.16v32.3h-39.44v-119h55.59c9.18,0,17.34,1.87,24.48,5.61s12.69,9.04,16.66,15.89c3.97,6.86,5.95,14.71,5.95,23.54,0,6.8-1.42,12.95-4.25,18.45s-6.91,10.12-12.24,13.85l20.74,41.65h-44.03l-15.3-32.3h0ZM348.06,294.94h9.69c3.85,0,6.91-1.08,9.18-3.23,2.27-2.15,3.4-4.87,3.4-8.16s-1.13-5.98-3.4-8.08c-2.27-2.1-5.33-3.14-9.18-3.14h-9.69v22.61Z"/>
    <path class="cls-1" d="M508.71,325.54v31.96h-82.28v-119h81.43v31.96h-42.33v12.92h37.91v29.24h-37.91v12.92h43.18Z"/>
    <path class="cls-1" d="M643.68,238.5l-46.92,119h-36.21l-46.92-119h46.41l18.7,63.07,18.53-63.07h46.41Z"/>
    <path class="cls-1" d="M859.44,320.8v35.7h-80.07v-119h40.46v83.3h39.61Z"/>
    <path class="cls-1" d="M894.04,353.61c-8.33-4.19-14.79-10.14-19.38-17.85s-6.88-16.66-6.88-26.86v-71.4h41.14v71.57c0,4.31,1.28,7.79,3.83,10.46,2.55,2.66,5.92,3.99,10.12,3.99s7.56-1.33,10.11-3.99,3.83-6.15,3.83-10.46v-71.57h41.14v71.4c0,10.2-2.29,19.15-6.89,26.86-4.59,7.71-11.05,13.66-19.38,17.85s-17.93,6.29-28.81,6.29-20.49-2.1-28.82-6.29h-.01Z"/>
    <path class="cls-1" d="M1092.34,272.01h-32.13v84.49h-39.78v-84.49h-32.13v-34.51h104.04v34.51Z"/>
    <path class="cls-1" d="M1104.07,237.5h40.46v119h-40.46v-119Z"/>
    <path class="cls-1" d="M1190.17,352.08c-10.26-5.21-18.22-12.58-23.88-22.1-5.67-9.52-8.5-20.51-8.5-32.98s2.83-23.46,8.5-32.98c5.67-9.52,13.63-16.89,23.88-22.1,10.26-5.21,22.13-7.82,35.62-7.82s25.36,2.61,35.62,7.82,18.22,12.58,23.88,22.1c5.67,9.52,8.5,20.51,8.5,32.98s-2.83,23.46-8.5,32.98c-5.67,9.52-13.63,16.89-23.88,22.1-10.26,5.21-22.13,7.82-35.62,7.82s-25.36-2.61-35.62-7.82ZM1244.49,316.21c4.76-4.87,7.14-11.28,7.14-19.21s-2.38-14.34-7.14-19.21-10.99-7.31-18.7-7.31-13.94,2.44-18.7,7.31-7.14,11.28-7.14,19.21,2.38,14.34,7.14,19.21,10.99,7.31,18.7,7.31,13.94-2.44,18.7-7.31Z"/>
    <path class="cls-1" d="M1419.08,237.5v119h-32.3l-41.99-56.27v56.27h-37.74v-119h33.49l40.8,53.89v-53.89h37.74Z"/>
    <path class="cls-1" d="M760.1,281.37c-1.1-3.68-2.59-7.17-4.46-10.45l3.09-3.09-24.93-24.93-5.16,5.16c-2.68-1.05-5.47-1.9-8.38-2.57v-5.99h-35.26v5.99c-2.91.67-5.7,1.52-8.38,2.57l-5.16-5.16-24.93,24.93,3.09,3.09c-1.87,3.29-3.36,6.77-4.46,10.45h-5.33v35.26h5.33c1.1,3.68,2.59,7.17,4.46,10.45l-3.09,3.09,24.93,24.93,5.16-5.16c2.68,1.05,5.47,1.9,8.38,2.57v5.99h35.26v-5.99c2.91-.67,5.7-1.52,8.38-2.57l5.16,5.16,24.93-24.93-3.09-3.09c1.87-3.29,3.36-6.77,4.46-10.45h5.33v-35.26h-5.33ZM720.25,314.65c-.35.44-.74.87-1.15,1.29-.24.24-.48.48-.72.7-3.75,3.51-8.47,5.41-14.17,5.7-.52.03-1.06.04-1.6.04s-1.08-.02-1.6-.04c-5.69-.29-10.42-2.19-14.17-5.7-.25-.22-.48-.46-.72-.7-.41-.41-.79-.85-1.15-1.29-3.02-3.62-4.71-8.09-5.07-13.42-.05-.72-.08-1.47-.08-2.23s.03-1.51.08-2.23c.36-5.32,2.05-9.79,5.07-13.42.35-.44.74-.87,1.15-1.29.24-.24.48-.48.72-.7,3.75-3.51,8.47-5.41,14.17-5.7.52-.03,1.06-.04,1.6-.04s1.08.02,1.6.04c5.69.29,10.42,2.19,14.17,5.7.25.22.48.46.72.7.41.41.79.85,1.15,1.29,3.02,3.62,4.71,8.09,5.07,13.42.05.72.08,1.47.08,2.23s-.03,1.51-.08,2.23c-.36,5.32-2.05,9.79-5.07,13.42Z"/>
  </g>
  <g id="UI">
    <polygon class="cls-2" points="816 128.34 897.35 142.34 871.93 109.34 940.57 129.34 918.96 73.34 1019.39 116.34 992.69 68.34 1061.34 86.34 1106.32 120.56 1142.57 70.64 1142.57 197.09 934.22 197.34 851.59 168.34 816 128.34"/>
    <polygon class="cls-2" points="819.71 32.69 832.19 47.67 870.45 52.66 845.08 21.05 819.71 32.69"/>
    <polygon class="cls-2" points="534.99 64.38 546.17 87.77 578.89 76.54 534.99 64.38"/>
    <polygon class="cls-2" points="1090.76 30.71 1030.86 4.09 1030.86 27.38 1062.53 36.53 1090.76 30.71"/>
    <polygon class="cls-2" points="349.71 91.24 370.51 102.47 391.31 93.48 361.36 87.49 349.71 91.24"/>
    <polygon class="cls-2" points="518.29 156.09 476.75 173.86 522.29 186.09 518.29 156.09"/>
    <polygon class="cls-2" points="682.96 56.09 702.66 79.34 767.71 103.86 761.66 79.34 739.2 72.29 715.66 39.34 709.16 60.81 682.96 56.09"/>
    <polygon class="cls-2" points="630.3 153.77 646.66 139.34 687.45 143.94 735.66 165.34 674.66 172.34 630.3 153.77"/>
    <g>
      <path class="cls-2" d="M1180.42,439.47v4.43h46.65v10.4h-58.11v-14.83c0-3.16.31-5.9.92-8.12.69-2.54,2.07-4.61,4.07-6.16,1.92-1.49,4.51-2.51,7.94-3.13,3.12-.56,7.23-.86,12.22-.88h11.85c3.32,0,5.93-.11,7.74-.33,2.01-.24,2.78-.67,3.01-.85.23-.17.51-.46.63-1.21.19-1.1.29-2.61.29-4.49,0-2.3-.26-3.55-.47-4.2-.18-.54-.48-.89-1.01-1.13-.6-.29-1.84-.66-4.27-.83-2.21-.14-5.21-.22-8.91-.22h-7.21c-3.88,0-7.01.08-9.32.22-2.55.17-3.85.55-4.49.84-.56.27-.89.6-1.06,1.14-.22.64-.48,1.9-.48,4.18v2.55h-11.46v-2.55c0-3.21.37-5.82,1.11-7.99.85-2.43,2.4-4.36,4.61-5.73,2.03-1.26,4.73-2.1,8.25-2.59,3.23-.44,7.44-.66,12.49-.66h7.88c4.89,0,8.96.22,12.1.67,3.44.48,6.08,1.34,8.08,2.6,2.15,1.38,3.67,3.3,4.5,5.73.73,2.15,1.09,4.77,1.09,7.97,0,4.11-.55,7.33-1.69,9.84-1.28,2.79-3.49,4.78-6.6,5.94-2.77,1.03-6.46,1.53-11.3,1.53h-14.55c-3.84,0-6.89.12-9.07.38-2.46.29-3.54.81-3.97,1.09-.57.38-.9.88-1.07,1.62-.28,1.17-.41,2.78-.41,4.78h.02Z"/>
      <path class="cls-2" d="M1290.77,425.46c.59-.53,1.13-1.15,1.63-1.85,1.62-2.27,2.41-5.32,2.41-9.32,0-3.21-.37-5.82-1.12-7.99-.84-2.43-2.39-4.36-4.6-5.73-2.04-1.26-4.73-2.1-8.27-2.59-3.22-.44-7.43-.66-12.49-.66h-7.87c-5.06,0-9.27.22-12.49.66-3.52.49-6.22,1.34-8.27,2.59-2.21,1.38-3.76,3.31-4.6,5.73-.76,2.17-1.12,4.78-1.12,7.99,0,4,.8,7.05,2.42,9.32.49.69,1.03,1.32,1.62,1.85-.61.58-1.17,1.24-1.68,2-1.58,2.35-2.36,5.49-2.36,9.6,0,3.19.32,5.94.94,8.17.71,2.56,2.12,4.65,4.18,6.2,1.96,1.47,4.6,2.48,8.08,3.09,3.17.55,7.36.83,12.45.83h9.53c5.08,0,9.27-.28,12.44-.83,3.49-.61,6.13-1.62,8.08-3.09,2.06-1.55,3.47-3.64,4.18-6.2.62-2.23.94-4.98.94-8.17,0-4.11-.78-7.26-2.36-9.6-.51-.76-1.07-1.42-1.68-2h.01ZM1268.83,444.77h-8.87c-3.84,0-6.89-.12-9.08-.37-2.47-.28-3.56-.79-3.99-1.06-.55-.36-.87-.84-1.04-1.54-.28-1.15-.41-2.74-.41-4.73,0-1.74.12-3.12.38-4.09.14-.53.4-.87.89-1.14.42-.24,1.51-.68,3.99-.92,2.18-.19,5.24-.3,9.1-.3h9.19c3.86,0,6.92.1,9.1.3,2.48.23,3.57.67,4,.92.48.28.74.61.88,1.14.26.97.38,2.35.38,4.09,0,1.99-.13,3.58-.41,4.73-.16.7-.49,1.18-1.04,1.54-.43.28-1.52.79-3.99,1.06-2.18.24-5.24.37-9.08.37h0ZM1245.92,410.12c.18-.54.5-.88,1.07-1.14.63-.29,1.93-.66,4.48-.84,2.31-.14,5.44-.22,9.32-.22h7.21c3.88,0,7.01.08,9.32.22,2.55.17,3.85.55,4.49.84.56.27.89.6,1.06,1.14.22.64.48,1.9.48,4.18,0,1.56-.11,2.81-.35,3.71-.11.45-.34.73-.74.98-.39.22-1.38.63-3.63.87-2,.21-4.8.33-8.31.33h-11.85c-3.51,0-6.31-.11-8.3-.33-2.27-.23-3.26-.64-3.63-.87-.42-.24-.63-.53-.76-.98-.23-.91-.35-2.15-.35-3.71,0-2.29.26-3.54.48-4.18h.01Z"/>
      <path class="cls-2" d="M1361.08,433.75v3.32c0,3.19-.31,5.95-.93,8.18-.71,2.58-2.13,4.67-4.19,6.21-1.96,1.46-4.59,2.46-8.07,3.07-3.17.55-7.36.83-12.45.83h-8.17c-5.08,0-9.28-.28-12.45-.83-3.48-.61-6.12-1.62-8.08-3.09-2.05-1.55-3.46-3.64-4.17-6.2-.62-2.23-.94-4.98-.94-8.17v-2.55h11.45v2.55c0,1.99.14,3.58.42,4.73.16.7.49,1.18,1.04,1.54.43.28,1.51.79,3.98,1.06,2.19.24,5.26.37,9.09.37h7.51c3.84,0,6.9-.12,9.09-.36,2.47-.26,3.55-.76,3.97-1.04.55-.36.88-.84,1.04-1.55.28-1.16.42-2.77.42-4.76v-3.32c0-1.73-.13-3.11-.39-4.09-.13-.52-.4-.86-.88-1.13-.43-.24-1.51-.68-4-.92-2.18-.2-5.24-.31-9.09-.31h-7.02c-4.77,0-8.31.16-10.51.49-2.27.33-3,.98-3.21,1.23l-.77.96h-11.29v-31.6h56.36v10.39h-44.9v9.39c2.23-.86,5.01-1.29,8.37-1.29h15.29c4.74,0,8.63.28,11.55.83,3.22.6,5.65,1.58,7.43,2.99,1.86,1.49,3.1,3.43,3.72,5.79.52,2.02.79,4.47.79,7.28h-.01Z"/>
      <polygon class="cls-2" points="1418.96 444.37 1418.96 454.77 1369.46 454.77 1369.46 444.37 1389.78 444.37 1389.78 409.31 1369.46 409.31 1369.46 398.84 1392.33 398.84 1394.88 398.85 1401.23 398.85 1401.23 444.37 1418.96 444.37"/>
    </g>
  </g>
</svg>