<?xml version="1.0" encoding="UTF-8"?>
<svg id="Layer_2" data-name="Layer 2" xmlns="http://www.w3.org/2000/svg" viewBox="0 0 178.61 38.39">
  <defs>
    <style>
      .cls-1 {
        fill: #f6f9fd;
      }
    </style>
  </defs>
  <g id="Layer_1-2" data-name="Layer 1">
    <g>
      <path class="cls-1" d="M177.69,26.23h-10.89c-.25,0-.46-.21-.46-.46v-5.51c0-.25.21-.46.46-.46h8.5c.51,0,.92-.41.92-.92v-4.59c0-.51-.41-.92-.92-.92h-8.5c-.25,0-.46-.21-.46-.46v-5.51c0-.25.21-.46.46-.46h10.7c.51,0,.92-.41.92-.92V1.42c0-.51-.41-.92-.92-.92h-16.68c-.51,0-.92.41-.92.92v3.35c-.36-.57-.77-1.11-1.27-1.6-1.79-1.79-4.09-2.66-6.98-2.66h-10.11c-.51,0-.92.41-.92.92v26.03l-7.03-26.26c-.14-.46-.41-.69-.87-.69h-6.16c-.41,0-.74.23-.87.69l-5.68,21.11c-.14-.34-.47-.58-.85-.58h-4.69c-.56,0-1,.46-1.01,1.03-.05,2.33-1.78,3.93-4.32,3.93-2.02,0-3.35-.74-4.04-2.2-.41-.96-.64-3.58-.64-7.9s.23-6.94.64-7.9c.69-1.47,2.02-2.21,4.04-2.21,2.53,0,4.26,1.6,4.32,3.93.01.56.45,1.03,1.01,1.03h4.68c.5,0,.92-.4.92-.9,0-3.23-1.01-5.81-3.08-7.69-2.07-1.88-4.69-2.85-7.86-2.85-4.78,0-8.32,2.39-9.97,6.11-.21.46-.39,1.01-.55,1.65-.79-4.68-4.49-7.76-10.17-7.76-3.17,0-5.74.87-7.72,2.57-.63.55-1.14,1.15-1.56,1.79V1.42c0-.51-.41-.92-.92-.92h-16.08c-.51,0-.92.41-.92.92v30.32c0,.51.41.92.92.92h4.59c.51,0,.92-.41.92-.92v-11.48c0-.25.21-.46.46-.46h7.53c.51,0,.92-.41.92-.92v-4.59c0-.51-.41-.92-.92-.92h-7.53c-.25,0-.46-.21-.46-.46v-5.51c0-.25.21-.46.46-.46h9.9c-.16.67-.25,1.37-.25,2.11,0,5.05,2.76,8.31,8.22,9.74,2.8.74,4.64,1.42,5.51,2.07.83.64,1.24,1.56,1.24,2.71,0,1.98-1.79,3.31-4.55,3.31s-4.46-1.52-4.46-3.77v-.92c0-.51-.41-.92-.92-.92h-4.87c-.51,0-.92.41-.92.92v.92c0,2.99,1.06,5.38,3.12,7.26,2.07,1.88,4.73,2.8,8.04,2.8s6.06-.92,8.13-2.76c1.24-1.1,2.1-2.43,2.58-3.97.08.21.15.43.24.61,1.65,3.72,5.19,6.11,9.97,6.11,3.17,0,5.79-.96,7.86-2.89.47-.43.88-.9,1.24-1.39l-.59,2.17c-.14.46-.18.78-.18.92,0,.46.32.69.92.69h4.82c.46,0,.74-.23.87-.69l2.18-9.46h6.86l2.03,9.46c.14.46.46.69.87.69h4.82c.16,0,.3-.02.42-.05.09.03.17.05.27.05h4.59c.51,0,.92-.41.92-.92v-11.48c0-.25.21-.46.46-.46h4.13c2.89,0,5.19-.87,6.98-2.66.49-.49.91-1.03,1.27-1.6v16.21c0,.51.41.92.92.92h16.86c.51,0,.92-.41.92-.92v-4.59c0-.51-.41-.92-.92-.92ZM97.92,17.58c-1.34-1.9-3.6-3.27-6.97-4.17-5.1-1.29-6.48-2.34-6.48-4.13,0-1.98,1.42-3.03,4-3.03,2.25,0,3.86,1.42,3.86,3.45v.23c0,.5.41.92.92.92h4.64c.1,0,.19-.03.27-.06-.17,1.63-.25,3.55-.25,5.8,0,.35,0,.67.01,1ZM127.77,16.08l1.14-4.95c.22-.96,1.59-.95,1.79.01l1.06,4.94h-3.99ZM151.44,13.37h-3.9c-.32,0-.46-.14-.46-.46v-5.51c0-.32.14-.46.46-.46h3.9c1.88,0,3.22,1.33,3.22,3.22s-1.33,3.22-3.22,3.22Z"/>
      <path class="cls-1" d="M38.81,25.76c-5.42,1.01-10.94.49-16.04-1.78-.37-.17-.79.1-.79.5v5.06c0,.22.13.42.33.52,5.27,2.47,11.03,3.04,16.67,1.96.23-.04.39-.25.39-.48v-5.33c0-.3-.27-.51-.56-.46Z"/>
      <path class="cls-1" d="M51.15,23.26c-3.01.09-5.81.83-8.67,1.61-.21.06-.35.24-.35.46v5.31c0,.31.3.54.6.46,2.77-.75,5.5-1.45,8.42-1.54,2.36-.07,5.46-.21,7.32,1.44.36.32.93.07.93-.42l.04-4.48c-.02-.1-.05-.19-.07-.29-1.58-2.81-5.41-2.64-8.21-2.55Z"/>
      <path class="cls-1" d="M38.81,14.59c-5.42,1.01-10.94.49-16.04-1.78-.37-.17-.79.1-.79.5v5.06c0,.22.13.42.33.52,5.27,2.47,11.03,3.04,16.67,1.96.23-.04.39-.25.39-.48v-5.33c0-.3-.27-.51-.56-.46Z"/>
      <path class="cls-1" d="M51.15,12.1c-3.01.09-5.81.83-8.67,1.61-.21.06-.35.24-.35.46v5.31c0,.31.3.54.6.46,2.77-.75,5.5-1.45,8.42-1.54,2.36-.07,5.46-.21,7.32,1.44.36.32.93.07.93-.42l.04-4.48c-.02-.1-.05-.19-.07-.29-1.58-2.81-5.41-2.64-8.21-2.55Z"/>
      <path class="cls-1" d="M38.81,3.43c-5.42,1.01-10.94.49-16.04-1.78-.37-.17-.79.1-.79.5v5.06c0,.22.13.42.33.52,5.27,2.47,11.03,3.04,16.67,1.96.23-.04.39-.25.39-.48V3.89c0-.3-.27-.51-.56-.46Z"/>
      <path class="cls-1" d="M51.15.93c-3.01.09-5.81.83-8.67,1.61-.21.06-.35.24-.35.46v5.31c0,.31.3.54.6.46,2.77-.75,5.5-1.45,8.42-1.54,2.36-.07,5.46-.21,7.32,1.44.36.32.93.07.93-.42l.04-4.48c-.02-.1-.05-.19-.07-.29-1.58-2.81-5.41-2.64-8.21-2.55Z"/>
      <path class="cls-1" d="M173.74,36.02c-.25-.07-.39-.12-.42-.13-.23-.07-.4-.13-.51-.17-.11-.05-.19-.09-.25-.14-.05-.05-.08-.11-.08-.18,0-.09.04-.16.11-.21.07-.05.17-.08.3-.08.18,0,.33.05.43.14.11.1.16.2.16.32h0s0,.06.02.07c.02.02.04.02.06.02h.92s.05,0,.06-.02c.02-.02.02-.04.02-.07v-.05c0-.27-.07-.51-.22-.72-.14-.21-.34-.37-.59-.48-.25-.11-.53-.17-.84-.17s-.55.05-.79.15c-.23.1-.42.25-.55.44-.13.19-.2.41-.2.66,0,.37.13.66.4.86.26.2.59.35.98.47l.17.05c.21.06.35.12.43.16.08.04.12.11.12.2,0,.07-.03.14-.09.2-.06.06-.17.09-.31.09-.19,0-.35-.04-.46-.13-.12-.08-.17-.18-.17-.29v-.04s0-.05-.02-.07c-.02-.02-.04-.02-.06-.02h-.92s-.05,0-.06.02c-.02.02-.02.04-.02.07v.08c0,.26.07.5.2.7s.33.36.58.46c.25.11.54.16.87.16s.6-.05.84-.15c.24-.1.43-.25.56-.44s.2-.42.2-.68-.08-.5-.25-.69c-.17-.19-.37-.32-.62-.4Z"/>
      <path class="cls-1" d="M178.52,34.21h-.92s-.08.02-.11.06l-.75,1.2s-.02.02-.04,0l-.75-1.2s-.06-.06-.11-.06h-.92s-.05,0-.07.02c-.02.02-.02.04-.02.06v3.96s0,.05.02.07c.02.02.04.02.07.02h.93s.05,0,.06-.02c.02-.02.02-.04.02-.07v-2.15s0-.02.01-.03c0,0,.02,0,.02.01l.4.66s.06.06.11.06h.45s.08-.02.11-.06l.4-.66s.02-.02.02-.01c0,0,.01.01.01.03v2.15s0,.05.02.07c.02.02.04.02.06.02h.93s.05,0,.07-.02c.02-.02.02-.04.02-.07v-3.96s0-.05-.02-.06c-.02-.02-.04-.02-.07-.02Z"/>
      <path class="cls-1" d="M15.89,18.28c3.17-1.84,4.78-4.55,4.78-8.13,0-2.89-.87-5.19-2.66-6.98-1.79-1.79-4.09-2.66-6.98-2.66H.92c-.51,0-.92.41-.92.92v30.32c0,.51.41.92.92.92h4.59c.51,0,.92-.41.92-.92V7.4c0-.25.21-.46.46-.46h3.82c1.79,0,3.3,1.42,3.3,3.21,0,1.89-1.33,3.22-3.22,3.22h0c-1.81,0-3.07,1.79-2.46,3.49l5.36,14.98c.23.55.64.83,1.15.83h4.59c.69,0,1.15-.46,1.15-1.06,0-.18-.09-.46-.23-.87l-4.73-10.93c-.14-.37-.23-.64-.23-.87s.18-.46.5-.64Z"/>
    </g>
  </g>
</svg>