<?xml version="1.0" encoding="UTF-8"?>
<svg id="Layer_1" data-name="Layer 1" xmlns="http://www.w3.org/2000/svg" xmlns:xlink="http://www.w3.org/1999/xlink" viewBox="0 0 980.64 980.64">
  <defs>
    <style>
      .cls-1 {
        clip-path: url(#clippath-45);
      }

      .cls-2 {
        clip-path: url(#clippath-20);
      }

      .cls-3 {
        clip-path: url(#clippath-11);
      }

      .cls-4 {
        clip-path: url(#clippath-16);
      }

      .cls-5 {
        clip-path: url(#clippath-33);
      }

      .cls-6 {
        clip-path: url(#clippath-47);
      }

      .cls-7 {
        fill: #d33235;
      }

      .cls-7, .cls-8, .cls-9 {
        stroke-width: 0px;
      }

      .cls-10 {
        clip-path: url(#clippath-41);
      }

      .cls-11 {
        clip-path: url(#clippath-32);
      }

      .cls-12 {
        clip-path: url(#clippath-2);
      }

      .cls-13 {
        clip-path: url(#clippath-13);
      }

      .cls-14 {
        clip-path: url(#clippath-37);
      }

      .cls-15 {
        clip-path: url(#clippath-46);
      }

      .cls-16 {
        clip-path: url(#clippath-25);
      }

      .cls-17 {
        clip-path: url(#clippath-15);
      }

      .cls-18 {
        clip-path: url(#clippath-6);
      }

      .cls-19 {
        clip-path: url(#clippath-40);
      }

      .cls-20 {
        clip-path: url(#clippath-26);
      }

      .cls-8 {
        fill: none;
      }

      .cls-21 {
        clip-path: url(#clippath-7);
      }

      .cls-22 {
        clip-path: url(#clippath-21);
      }

      .cls-9 {
        fill: #fefdf8;
      }

      .cls-23 {
        clip-path: url(#clippath-34);
      }

      .cls-24 {
        clip-path: url(#clippath-1);
      }

      .cls-25 {
        clip-path: url(#clippath-4);
      }

      .cls-26 {
        clip-path: url(#clippath-38);
      }

      .cls-27 {
        clip-path: url(#clippath-36);
      }

      .cls-28 {
        clip-path: url(#clippath-27);
      }

      .cls-29 {
        clip-path: url(#clippath-44);
      }

      .cls-30 {
        clip-path: url(#clippath-12);
      }

      .cls-31 {
        clip-path: url(#clippath-24);
      }

      .cls-32 {
        clip-path: url(#clippath-30);
      }

      .cls-33 {
        clip-path: url(#clippath-22);
      }

      .cls-34 {
        clip-path: url(#clippath-9);
      }

      .cls-35 {
        clip-path: url(#clippath);
      }

      .cls-36 {
        clip-path: url(#clippath-39);
      }

      .cls-37 {
        clip-path: url(#clippath-19);
      }

      .cls-38 {
        clip-path: url(#clippath-31);
      }

      .cls-39 {
        clip-path: url(#clippath-3);
      }

      .cls-40 {
        clip-path: url(#clippath-43);
      }

      .cls-41 {
        clip-path: url(#clippath-8);
      }

      .cls-42 {
        clip-path: url(#clippath-29);
      }

      .cls-43 {
        clip-path: url(#clippath-18);
      }

      .cls-44 {
        clip-path: url(#clippath-14);
      }

      .cls-45 {
        clip-path: url(#clippath-17);
      }

      .cls-46 {
        clip-path: url(#clippath-5);
      }

      .cls-47 {
        clip-path: url(#clippath-42);
      }

      .cls-48 {
        clip-path: url(#clippath-10);
      }

      .cls-49 {
        clip-path: url(#clippath-23);
      }

      .cls-50 {
        clip-path: url(#clippath-28);
      }

      .cls-51 {
        clip-path: url(#clippath-35);
      }
    </style>
    <clipPath id="clippath">
      <rect class="cls-8" width="980.64" height="980.64"/>
    </clipPath>
    <clipPath id="clippath-1">
      <rect class="cls-8" width="980.64" height="980.64"/>
    </clipPath>
    <clipPath id="clippath-2">
      <rect class="cls-8" width="980.64" height="980.64"/>
    </clipPath>
    <clipPath id="clippath-3">
      <rect class="cls-8" width="980.64" height="980.64"/>
    </clipPath>
    <clipPath id="clippath-4">
      <rect class="cls-8" width="980.64" height="980.64"/>
    </clipPath>
    <clipPath id="clippath-5">
      <rect class="cls-8" width="980.64" height="980.64"/>
    </clipPath>
    <clipPath id="clippath-6">
      <rect class="cls-8" width="980.64" height="980.64"/>
    </clipPath>
    <clipPath id="clippath-7">
      <rect class="cls-8" width="980.64" height="980.64"/>
    </clipPath>
    <clipPath id="clippath-8">
      <rect class="cls-8" width="980.64" height="980.64"/>
    </clipPath>
    <clipPath id="clippath-9">
      <rect class="cls-8" width="980.64" height="980.64"/>
    </clipPath>
    <clipPath id="clippath-10">
      <rect class="cls-8" width="980.64" height="980.64"/>
    </clipPath>
    <clipPath id="clippath-11">
      <rect class="cls-8" width="980.64" height="980.64"/>
    </clipPath>
    <clipPath id="clippath-12">
      <rect class="cls-8" width="980.64" height="980.64"/>
    </clipPath>
    <clipPath id="clippath-13">
      <rect class="cls-8" width="980.64" height="980.64"/>
    </clipPath>
    <clipPath id="clippath-14">
      <rect class="cls-8" width="980.64" height="980.64"/>
    </clipPath>
    <clipPath id="clippath-15">
      <rect class="cls-8" width="980.64" height="980.64"/>
    </clipPath>
    <clipPath id="clippath-16">
      <rect class="cls-8" width="980.64" height="980.64"/>
    </clipPath>
    <clipPath id="clippath-17">
      <rect class="cls-8" width="980.64" height="980.64"/>
    </clipPath>
    <clipPath id="clippath-18">
      <rect class="cls-8" width="980.64" height="980.64"/>
    </clipPath>
    <clipPath id="clippath-19">
      <rect class="cls-8" width="980.64" height="980.64"/>
    </clipPath>
    <clipPath id="clippath-20">
      <rect class="cls-8" width="980.64" height="980.64"/>
    </clipPath>
    <clipPath id="clippath-21">
      <rect class="cls-8" width="980.64" height="980.64"/>
    </clipPath>
    <clipPath id="clippath-22">
      <rect class="cls-8" width="980.64" height="980.64"/>
    </clipPath>
    <clipPath id="clippath-23">
      <rect class="cls-8" width="980.64" height="980.64"/>
    </clipPath>
    <clipPath id="clippath-24">
      <rect class="cls-8" width="980.64" height="980.64"/>
    </clipPath>
    <clipPath id="clippath-25">
      <rect class="cls-8" width="980.64" height="980.64"/>
    </clipPath>
    <clipPath id="clippath-26">
      <rect class="cls-8" width="980.64" height="980.64"/>
    </clipPath>
    <clipPath id="clippath-27">
      <rect class="cls-8" width="980.64" height="980.64"/>
    </clipPath>
    <clipPath id="clippath-28">
      <rect class="cls-8" width="980.64" height="980.64"/>
    </clipPath>
    <clipPath id="clippath-29">
      <rect class="cls-8" width="980.64" height="980.64"/>
    </clipPath>
    <clipPath id="clippath-30">
      <rect class="cls-8" width="980.64" height="980.64"/>
    </clipPath>
    <clipPath id="clippath-31">
      <rect class="cls-8" width="980.64" height="980.64"/>
    </clipPath>
    <clipPath id="clippath-32">
      <rect class="cls-8" width="980.64" height="980.64"/>
    </clipPath>
    <clipPath id="clippath-33">
      <rect class="cls-8" width="980.64" height="980.64"/>
    </clipPath>
    <clipPath id="clippath-34">
      <rect class="cls-8" width="980.64" height="980.64"/>
    </clipPath>
    <clipPath id="clippath-35">
      <rect class="cls-8" width="980.64" height="980.64"/>
    </clipPath>
    <clipPath id="clippath-36">
      <rect class="cls-8" width="980.64" height="980.64"/>
    </clipPath>
    <clipPath id="clippath-37">
      <rect class="cls-8" width="980.64" height="980.64"/>
    </clipPath>
    <clipPath id="clippath-38">
      <rect class="cls-8" width="980.64" height="980.64"/>
    </clipPath>
    <clipPath id="clippath-39">
      <rect class="cls-8" width="980.64" height="980.64"/>
    </clipPath>
    <clipPath id="clippath-40">
      <rect class="cls-8" width="980.64" height="980.64"/>
    </clipPath>
    <clipPath id="clippath-41">
      <rect class="cls-8" width="980.64" height="980.64"/>
    </clipPath>
    <clipPath id="clippath-42">
      <rect class="cls-8" width="980.64" height="980.64"/>
    </clipPath>
    <clipPath id="clippath-43">
      <rect class="cls-8" width="980.64" height="980.64"/>
    </clipPath>
    <clipPath id="clippath-44">
      <rect class="cls-8" width="980.64" height="980.64"/>
    </clipPath>
    <clipPath id="clippath-45">
      <rect class="cls-8" width="980.64" height="980.64"/>
    </clipPath>
    <clipPath id="clippath-46">
      <rect class="cls-8" width="980.64" height="980.64"/>
    </clipPath>
    <clipPath id="clippath-47">
      <rect class="cls-8" width="980.64" height="980.64"/>
    </clipPath>
  </defs>
  <g class="cls-35">
    <path class="cls-8" d="M0,0v980.64h980.64V0H0Z"/>
    <g class="cls-24">
      <path class="cls-9" d="M296.21,593.38l-6.58,2.36c-4.43-4.71-10.62-7.06-18.59-7.06-6.04,0-10.95,1.55-14.76,4.65-3.8,3.1-5.71,7.04-5.71,11.83s1.88,8.94,5.64,11.98c3.76,3.04,8.85,4.56,15.24,4.56,7.73,0,13.8-2.4,18.23-7.18l6.21,3.44c-3.14,3.66-6.69,6.31-10.65,7.94-3.96,1.63-8.71,2.44-14.22,2.44-7.73,0-14.14-1.93-19.26-5.79-5.83-4.42-8.75-10.22-8.75-17.38s2.96-12.8,8.88-17.26c5.15-3.9,11.53-5.85,19.13-5.85,10.95,0,19.34,3.78,25.17,11.35Z"/>
    </g>
    <g class="cls-12">
      <path class="cls-9" d="M395.57,593.38l-6.58,2.36c-4.43-4.71-10.62-7.06-18.59-7.06-6.04,0-10.96,1.55-14.76,4.65-3.8,3.1-5.7,7.04-5.7,11.83s1.88,8.94,5.64,11.98c3.76,3.04,8.85,4.56,15.24,4.56,7.73,0,13.8-2.4,18.23-7.18l6.22,3.44c-3.14,3.66-6.69,6.31-10.65,7.94-3.96,1.63-8.7,2.44-14.22,2.44-7.73,0-14.14-1.93-19.25-5.79-5.84-4.42-8.75-10.22-8.75-17.38s2.96-12.8,8.87-17.26c5.15-3.9,11.53-5.85,19.13-5.85,10.95,0,19.34,3.78,25.17,11.35Z"/>
    </g>
    <g class="cls-39">
      <path class="cls-9" d="M493.11,612.99c0,4.55-2.21,8.23-6.64,11.04-4.51,2.94-10.52,4.41-18.05,4.41s-13.58-1.47-18.17-4.41c-4.43-2.85-6.64-6.54-6.64-11.04v-29.58h7.24v27.83c0,3.42,1.5,6.04,4.5,7.85,3,1.81,7.36,2.71,13.07,2.71s10.05-.9,13.01-2.71c2.96-1.81,4.44-4.42,4.44-7.85v-27.83h7.24v29.58Z"/>
    </g>
    <g class="cls-25">
      <path class="cls-7" d="M624.48,628.52h-7.48v-45.11h7.48v45.11Z"/>
    </g>
    <g class="cls-46">
      <path class="cls-7" d="M721.23,590.15h-21.56v38.38h-7.47v-38.38h-21.56v-6.73h50.59v6.73Z"/>
    </g>
    <g class="cls-18">
      <path class="cls-7" d="M814.62,628.52h-47.22v-45.11h45.48v6.73h-38v11.59h26.42v6.73h-26.42v13.33h39.75v6.73Z"/>
    </g>
    <g class="cls-21">
      <path class="cls-9" d="M197.96,627.98l-20.63-38.31-20.64,38.31h-8.51l24.76-45.97h8.76l24.76,45.97h-8.51Z"/>
    </g>
    <g class="cls-41">
      <path class="cls-7" d="M561.95,610.86c3.51-.56,6.3-1.92,8.29-4.07,2.15-2.32,3.27-5.39,3.27-9.21,0-4.31-1.35-7.78-4.03-10.34-2.63-2.51-6.3-3.79-10.97-3.79h-22.97l3.67,6.71h17.51c6.14,0,9.22,2.47,9.22,7.46,0,4.62-2.83,6.93-8.53,6.93h-10.29l3.67,6.71h2.47l12.05,17.11h8.58l-11.92-17.51Z"/>
    </g>
    <g class="cls-34">
      <path class="cls-9" d="M334.97,290.54l-145.38,240.13h70.35l75.03-134.44,70.35,134.44h65.66l-136-240.13Z"/>
    </g>
    <g class="cls-48">
      <path class="cls-7" d="M605.78,530.64h-56.54l-39.39-71.4h-24.43l-24.52-43.7h37.54c28.79,0,44.84-13.11,44.84-38.54s-16.05-38.54-44.84-38.54h-78.36l-28.41-47.68h109.9c64.2,0,98.24,30.02,98.24,85.98,0,33.38-16.29,57.62-40.86,71.06l46.83,82.81Z"/>
    </g>
    <g class="cls-3">
      <path class="cls-9" d="M154.35,658.92h-2.13v-12.87h2.13v12.87Z"/>
    </g>
    <g class="cls-30">
      <path class="cls-9" d="M208.8,658.92h-2.65l-9.82-10.55v10.55h-2.13v-12.87h2.65l9.83,10.56v-10.56h2.13v12.87Z"/>
    </g>
    <g class="cls-13">
      <path class="cls-9" d="M257.38,657c1.28,0,2.33-.41,3.15-1.24.82-.83,1.24-1.89,1.24-3.19,0-1.38-.44-2.49-1.33-3.33-.88-.85-2.04-1.27-3.47-1.27h-6.18v9.03h6.59ZM256.79,646.05c2.24,0,4.01.59,5.32,1.79,1.31,1.19,1.96,2.78,1.96,4.79,0,1.84-.69,3.36-2.08,4.58-1.29,1.14-2.89,1.71-4.8,1.71h-8.55v-12.87h8.14Z"/>
    </g>
    <g class="cls-44">
      <path class="cls-9" d="M317.61,654.76c0,1.34-.65,2.42-1.95,3.25-1.33.86-3.1,1.3-5.32,1.3s-4-.44-5.35-1.3c-1.3-.84-1.96-1.93-1.96-3.25v-8.71h2.13v8.19c0,1.01.44,1.78,1.33,2.31.88.53,2.17.8,3.85.8s2.96-.26,3.83-.8c.87-.53,1.31-1.3,1.31-2.31v-8.19h2.13v8.71Z"/>
    </g>
    <g class="cls-17">
      <path class="cls-9" d="M368.65,649.07c-1.91-.97-3.85-1.46-5.83-1.46-1.32,0-2.32.15-3.02.46-.7.31-1.05.73-1.05,1.28s.37.98,1.12,1.24c.53.19,1.41.32,2.61.39,1.78.12,2.95.21,3.52.28,1.61.21,2.8.61,3.57,1.19.77.58,1.16,1.4,1.16,2.47,0,1.36-.6,2.42-1.81,3.16-1.21.75-2.95,1.12-5.21,1.12-3.28,0-5.84-.73-7.66-2.17l1.18-1.55c2.01,1.23,4.18,1.85,6.5,1.85,1.51,0,2.67-.21,3.5-.62.79-.4,1.19-.95,1.19-1.65,0-.82-.52-1.36-1.57-1.64-.55-.14-2.01-.29-4.41-.44-2.12-.15-3.61-.43-4.46-.85-1-.5-1.49-1.33-1.49-2.51s.57-2.16,1.7-2.86c1.13-.7,2.73-1.05,4.79-1.05,2.77,0,5.1.63,6.97,1.9l-1.3,1.44Z"/>
    </g>
    <g class="cls-4">
      <path class="cls-9" d="M422.24,647.97h-6.15v10.95h-2.13v-10.95h-6.15v-1.92h14.43v1.92Z"/>
    </g>
    <g class="cls-45">
      <path class="cls-9" d="M470.12,652.09c1.65,0,2.47-.66,2.47-1.99,0-1.42-.89-2.13-2.67-2.13h-7.5v4.12h7.7ZM474.88,658.92h-2.48l-3.48-4.91h-6.49v4.91h-2.13v-12.87h10.15c1.35,0,2.41.37,3.18,1.09.77.73,1.16,1.72,1.16,2.96,0,1.09-.31,1.96-.94,2.63-.58.62-1.38,1.01-2.4,1.17l3.45,5.01Z"/>
    </g>
    <g class="cls-43">
      <path class="cls-9" d="M515.89,658.92h-2.13v-12.87h2.13v12.87Z"/>
    </g>
    <g class="cls-37">
      <path class="cls-9" d="M569.2,658.92h-13.47v-12.87h12.97v1.92h-10.84v3.3h7.53v1.92h-7.53v3.8h11.34v1.92Z"/>
    </g>
    <g class="cls-2">
      <path class="cls-9" d="M619.25,649.07c-1.91-.97-3.85-1.46-5.83-1.46-1.32,0-2.32.15-3.02.46-.7.31-1.05.73-1.05,1.28s.38.98,1.12,1.24c.53.19,1.4.32,2.61.39,1.78.12,2.95.21,3.52.28,1.61.21,2.81.61,3.57,1.19.77.58,1.16,1.4,1.16,2.47,0,1.36-.61,2.42-1.81,3.16-1.21.75-2.95,1.12-5.21,1.12-3.28,0-5.84-.73-7.66-2.17l1.17-1.55c2.01,1.23,4.18,1.85,6.5,1.85,1.5,0,2.67-.21,3.5-.62.79-.4,1.19-.95,1.19-1.65,0-.82-.52-1.36-1.57-1.64-.54-.14-2.01-.29-4.41-.44-2.12-.15-3.61-.43-4.46-.85-.99-.5-1.49-1.33-1.49-2.51s.57-2.16,1.7-2.86c1.13-.7,2.73-1.05,4.79-1.05,2.77,0,5.1.63,6.97,1.9l-1.29,1.44Z"/>
    </g>
    <g class="cls-22">
      <path class="cls-9" d="M713.15,658.92h-12.07v-12.87h2.13v10.95h9.94v1.92Z"/>
    </g>
    <g class="cls-33">
      <path class="cls-9" d="M763.26,658.92h-12.07v-12.87h2.13v10.95h9.94v1.92Z"/>
    </g>
    <g class="cls-49">
      <path class="cls-9" d="M816.33,648.98l-1.93.69c-1.3-1.39-3.13-2.08-5.48-2.08-1.78,0-3.23.46-4.34,1.37-1.12.91-1.68,2.07-1.68,3.48s.55,2.63,1.66,3.53c1.11.89,2.61,1.34,4.49,1.34,2.27,0,4.06-.7,5.37-2.11l1.83,1.01c-.92,1.08-1.97,1.85-3.14,2.34-1.17.48-2.56.72-4.19.72-2.27,0-4.17-.57-5.67-1.7-1.71-1.3-2.57-3.01-2.57-5.12s.87-3.77,2.61-5.08c1.52-1.15,3.4-1.72,5.63-1.72,3.22,0,5.69,1.12,7.41,3.34Z"/>
    </g>
    <g class="cls-31">
      <path class="cls-7" d="M316.34,686.01c1.47,0,2.2-.6,2.2-1.77,0-1.27-.77-1.9-2.32-1.9h-6.72v3.67h6.84ZM316.68,680.63c1.17,0,2.09.32,2.78.97.68.64,1.03,1.51,1.03,2.59,0,1.14-.36,2.01-1.07,2.61-.71.6-1.74.9-3.11.9h-6.81v4.36h-1.9v-11.44h9.07Z"/>
    </g>
    <g class="cls-16">
      <path class="cls-7" d="M334.56,686.01c1.46,0,2.2-.6,2.2-1.77,0-1.27-.79-1.9-2.37-1.9h-6.67v3.67h6.84ZM338.8,692.07h-2.21l-3.1-4.36h-5.78v4.36h-1.9v-11.44h9.02c1.2,0,2.14.32,2.83.97.68.64,1.02,1.53,1.02,2.63,0,.97-.28,1.75-.84,2.34-.52.55-1.23.9-2.13,1.04l3.07,4.46Z"/>
    </g>
    <g class="cls-20">
      <path class="cls-7" d="M357.03,686.34c0-1.34-.57-2.42-1.71-3.26-.98-.71-2.2-1.07-3.65-1.07-1.59,0-2.89.4-3.89,1.22-1,.82-1.5,1.85-1.5,3.11s.49,2.34,1.47,3.14c.98.79,2.29,1.2,3.92,1.2s2.92-.4,3.89-1.2c.97-.81,1.46-1.84,1.46-3.13ZM359.01,686.34c0,1.88-.77,3.39-2.31,4.55-1.35,1.01-3.02,1.52-5.02,1.52s-3.71-.51-5.06-1.53c-1.54-1.16-2.31-2.67-2.31-4.54s.78-3.34,2.34-4.52c1.37-1.03,3.04-1.55,5.03-1.55s3.66.52,5.01,1.55c1.55,1.18,2.32,2.69,2.32,4.52Z"/>
    </g>
    <g class="cls-28">
      <path class="cls-7" d="M376.63,682.33h-5.47v9.74h-1.89v-9.74h-5.47v-1.7h12.83v1.7Z"/>
    </g>
    <g class="cls-50">
      <path class="cls-7" d="M394.14,686.34c0-1.34-.57-2.42-1.71-3.26-.98-.71-2.19-1.07-3.65-1.07-1.59,0-2.89.4-3.89,1.22-1,.82-1.5,1.85-1.5,3.11s.49,2.34,1.47,3.14c.98.79,2.29,1.2,3.92,1.2s2.92-.4,3.9-1.2c.97-.81,1.46-1.84,1.46-3.13ZM396.12,686.34c0,1.88-.77,3.39-2.31,4.55-1.35,1.01-3.02,1.52-5.02,1.52s-3.71-.51-5.06-1.53c-1.54-1.16-2.31-2.67-2.31-4.54s.78-3.34,2.34-4.52c1.37-1.03,3.04-1.55,5.02-1.55s3.66.52,5.01,1.55c1.55,1.18,2.32,2.69,2.32,4.52Z"/>
    </g>
    <g class="cls-42">
      <path class="cls-7" d="M413.73,682.33h-5.47v9.74h-1.89v-9.74h-5.47v-1.7h12.83v1.7Z"/>
    </g>
    <g class="cls-32">
      <path class="cls-7" d="M431.7,680.63l-6.26,6.91v4.53h-1.89v-4.52l-6.26-6.92h2.36l4.85,5.34,4.83-5.34h2.36Z"/>
    </g>
    <g class="cls-38">
      <path class="cls-7" d="M445.59,686.01c1.46,0,2.2-.6,2.2-1.77,0-1.27-.77-1.9-2.32-1.9h-6.71v3.67h6.84ZM445.92,680.63c1.17,0,2.09.32,2.78.97.68.64,1.02,1.51,1.02,2.59,0,1.14-.35,2.01-1.07,2.61-.71.6-1.74.9-3.11.9h-6.81v4.36h-1.9v-11.44h9.07Z"/>
    </g>
    <g class="cls-11">
      <path class="cls-7" d="M467.05,692.07h-11.98v-11.44h11.54v1.7h-9.64v2.95h6.7v1.7h-6.7v3.38h10.08v1.71Z"/>
    </g>
    <g class="cls-5">
      <path class="cls-7" d="M491,683.32c-1.69-.86-3.42-1.3-5.18-1.3-1.17,0-2.06.14-2.69.41-.62.27-.93.65-.93,1.14,0,.51.33.88.99,1.11.48.16,1.25.28,2.32.34,1.58.1,2.62.19,3.13.26,1.43.18,2.49.54,3.18,1.06.68.51,1.03,1.24,1.03,2.19,0,1.21-.54,2.15-1.61,2.81-1.07.66-2.62,1-4.63,1-2.92,0-5.19-.64-6.81-1.93l1.05-1.38c1.79,1.1,3.72,1.64,5.78,1.64,1.34,0,2.38-.19,3.11-.55.7-.35,1.06-.84,1.06-1.47,0-.73-.46-1.21-1.39-1.46-.49-.12-1.79-.26-3.92-.4-1.89-.12-3.21-.38-3.97-.75-.88-.45-1.33-1.19-1.33-2.23s.5-1.93,1.51-2.55c1.01-.62,2.42-.93,4.26-.93,2.46,0,4.53.56,6.19,1.69l-1.15,1.28Z"/>
    </g>
    <g class="cls-23">
      <path class="cls-7" d="M507.71,686.01c1.46,0,2.2-.6,2.2-1.77,0-1.27-.77-1.9-2.32-1.9h-6.71v3.67h6.84ZM508.04,680.63c1.17,0,2.09.32,2.78.97.68.64,1.03,1.51,1.03,2.59,0,1.14-.36,2.01-1.07,2.61-.71.6-1.74.9-3.11.9h-6.81v4.36h-1.9v-11.44h9.07Z"/>
    </g>
    <g class="cls-51">
      <path class="cls-7" d="M529.17,692.07h-11.98v-11.44h11.54v1.7h-9.64v2.95h6.7v1.7h-6.7v3.38h10.08v1.71Z"/>
    </g>
    <g class="cls-27">
      <path class="cls-7" d="M548.54,683.24l-1.72.61c-1.16-1.23-2.78-1.84-4.87-1.84-1.58,0-2.87.4-3.86,1.22-.99.81-1.49,1.84-1.49,3.1s.49,2.34,1.48,3.13c.98.8,2.32,1.19,3.99,1.19,2.02,0,3.61-.62,4.77-1.88l1.63.9c-.82.96-1.75,1.65-2.79,2.08-1.04.43-2.28.65-3.72.65-2.02,0-3.7-.51-5.04-1.52-1.53-1.16-2.29-2.68-2.29-4.55s.78-3.36,2.32-4.52c1.35-1.02,3.02-1.53,5.01-1.53,2.86,0,5.06.99,6.59,2.97Z"/>
    </g>
    <g class="cls-14">
      <path class="cls-7" d="M556.78,692.07h-1.9v-11.44h1.9v11.44Z"/>
    </g>
    <g class="cls-26">
      <path class="cls-7" d="M572.26,687.8l-2.91-5.55-2.95,5.55h5.86ZM576.58,692.07h-2.07l-1.32-2.56h-7.71l-1.32,2.56h-2.07l6.05-11.44h2.39l6.05,11.44Z"/>
    </g>
    <g class="cls-36">
      <path class="cls-7" d="M592.62,692.07h-10.73v-11.44h1.9v9.73h8.83v1.71Z"/>
    </g>
    <g class="cls-19">
      <path class="cls-7" d="M599.9,692.07h-1.9v-11.44h1.9v11.44Z"/>
    </g>
    <g class="cls-10">
      <path class="cls-7" d="M616.92,683.32c-1.7-.86-3.42-1.3-5.18-1.3-1.17,0-2.06.14-2.69.41-.62.27-.93.65-.93,1.14,0,.51.33.88,1,1.11.47.16,1.25.28,2.32.34,1.58.1,2.62.19,3.13.26,1.43.18,2.49.54,3.18,1.06.68.51,1.02,1.24,1.02,2.19,0,1.21-.54,2.15-1.61,2.81-1.07.66-2.62,1-4.63,1-2.92,0-5.19-.64-6.81-1.93l1.04-1.38c1.79,1.1,3.72,1.64,5.78,1.64,1.34,0,2.38-.19,3.11-.55.7-.35,1.06-.84,1.06-1.47,0-.73-.46-1.21-1.39-1.46-.49-.12-1.79-.26-3.92-.4-1.89-.12-3.21-.38-3.97-.75-.88-.45-1.33-1.19-1.33-2.23s.51-1.93,1.51-2.55c1.01-.62,2.42-.93,4.26-.93,2.47,0,4.53.56,6.19,1.69l-1.15,1.28Z"/>
    </g>
    <g class="cls-47">
      <path class="cls-7" d="M636.12,682.33h-5.47v9.74h-1.9v-9.74h-5.47v-1.7h12.83v1.7Z"/>
    </g>
    <g class="cls-40">
      <path class="cls-7" d="M651.54,683.32c-1.7-.86-3.42-1.3-5.18-1.3-1.17,0-2.07.14-2.69.41-.62.27-.93.65-.93,1.14,0,.51.33.88.99,1.11.48.16,1.26.28,2.33.34,1.58.1,2.63.19,3.13.26,1.43.18,2.49.54,3.18,1.06.68.51,1.02,1.24,1.02,2.19,0,1.21-.54,2.15-1.61,2.81-1.08.66-2.62,1-4.64,1-2.91,0-5.19-.64-6.81-1.93l1.04-1.38c1.79,1.1,3.72,1.64,5.79,1.64,1.34,0,2.37-.19,3.11-.55.71-.35,1.06-.84,1.06-1.47,0-.73-.46-1.21-1.39-1.46-.49-.12-1.79-.26-3.92-.4-1.89-.12-3.21-.38-3.97-.75-.88-.45-1.33-1.19-1.33-2.23s.5-1.93,1.51-2.55c1.01-.62,2.43-.93,4.26-.93,2.46,0,4.52.56,6.19,1.69l-1.16,1.28Z"/>
    </g>
    <g class="cls-29">
      <path class="cls-7" d="M290.64,684.97h-140.56v-3.47h140.56v3.47Z"/>
    </g>
    <g class="cls-1">
      <path class="cls-7" d="M814.36,684.97h-140.57v-3.47h140.57v3.47Z"/>
    </g>
    <g class="cls-15">
      <path class="cls-7" d="M779.1,530.66h-63.45l-117.23-239.88h67.04l113.65,239.88Z"/>
    </g>
    <g class="cls-6">
      <path class="cls-7" d="M534.6,611.22h-21.99l-3.28-6.67h21.51l3.76,6.67Z"/>
    </g>
  </g>
</svg>