<?xml version="1.0" encoding="UTF-8"?>
<svg id="Layer_2" data-name="Layer 2" xmlns="http://www.w3.org/2000/svg" viewBox="0 0 98.29 98.29">
  <defs>
    <style>
      .cls-1 {
        fill: #f6f9fd;
      }
    </style>
  </defs>
  <g id="Layer_1-2" data-name="Layer 1">
    <g>
      <path class="cls-1" d="M12.68,0C5.68,0,0,5.68,0,12.68v72.92c0,7,5.68,12.68,12.68,12.68h72.92c7,0,12.68-5.68,12.68-12.68V12.68c0-7-5.68-12.68-12.68-12.68H12.68ZM12.68,6.34h72.92c3.5,0,6.34,2.84,6.34,6.34v72.92c0,3.5-2.84,6.34-6.34,6.34H12.68c-3.5,0-6.34-2.84-6.34-6.34V12.68c0-3.5,2.84-6.34,6.34-6.34Z"/>
      <path class="cls-1" d="M44.39,66.58v6.34h34.88v-6.34h-34.88Z"/>
      <path class="cls-1" d="M44.39,25.36v34.08h7.13v-27.74h7.13v27.74h7.13v-27.74h4.76c1.31,0,2.38,1.06,2.38,2.38v25.36h7.13v-26.16c0-4.38-3.55-7.93-7.93-7.93h-27.74Z"/>
      <path class="cls-1" d="M26.16,25.36c-4.38,0-7.93,3.55-7.93,7.93v18.23c0,4.38,3.55,7.93,7.93,7.93h6.34v1.59c0,3.06-2.84,5.55-6.34,5.55h-3.96v6.34h3.96c7.44,0,13.48-5.32,13.48-11.89V25.36h-13.48ZM27.74,31.71h4.76v21.4h-4.76c-1.31,0-2.38-1.06-2.38-2.38v-16.65c0-1.31,1.06-2.38,2.38-2.38Z"/>
    </g>
  </g>
</svg>