<?xml version="1.0" encoding="UTF-8"?>
<svg id="Layer_2" data-name="Layer 2" xmlns="http://www.w3.org/2000/svg" viewBox="0 0 408.43 63.69">
  <defs>
    <style>
      .cls-1 {
        fill: #f6f9fd;
      }
    </style>
  </defs>
  <g id="Layer_1-2" data-name="Layer 1">
    <g>
      <polygon class="cls-1" points="18.34 1.07 60.18 56.15 60.41 56.27 60.41 1.07 64.56 1.07 64.56 62.59 60.01 62.59 59.84 62.24 17.6 6.64 17.6 62.59 13.35 62.59 13.35 1.07 18.34 1.07"/>
      <path class="cls-1" d="M196.26,15.88h-4.89c-4.22-5.32-9.92-9.37-16.74-11.11-17.07-4.35-34.3,5.43-37.17,22.22-3.28,19.18,13.12,35.33,33.32,32.56,12.44-1.71,24.49-11.38,25.97-23.67h3.86c-.33,4.49-2.17,9.04-4.74,12.79-9.6,14-29.85,19.08-45.48,11.32-22.92-11.37-23.47-43.64-1.05-55.83,15.76-8.57,37.99-3.56,46.93,11.72Z"/>
      <path class="cls-1" d="M408.43,16.07h-4.8c-8.58-11.75-25.01-15.87-38.38-8.89-20.81,10.86-19.69,40.9,1.98,50.23,12.99,5.59,28.22,1.53,36.4-9.45h4.7c-.44.88-.98,1.72-1.56,2.52-5.05,7.05-14.08,11.9-22.92,12.94-23.02,2.71-41.17-15.57-37.28-37.37,4.82-27.02,40.91-35.09,58.89-14.18,1.1,1.28,2.19,2.73,2.97,4.2Z"/>
      <path class="cls-1" d="M110.14,15.6h-4.35c-.94-5.36-3.88-9.84-9.65-11.22-9.1-2.18-19.37,2.47-19.03,12.31.41,11.79,16.44,11.14,24.75,14.78,4.79,2.1,8.41,5.53,9.61,10.55,3.32,13.95-10.95,23.88-24.47,21.19-8.91-1.78-15.7-8.37-15.82-17.32h4.35c.54,6.69,4.85,11.86,11.72,13.49,10.27,2.43,21.99-4.44,20.08-15.39-1.94-11.13-16.4-10.49-24.85-14.12-6.85-2.94-10.54-8.08-9.72-15.44,1.32-11.87,15.74-16.86,26.45-13.07,6.5,2.3,10.29,7.74,10.92,14.25Z"/>
      <polygon class="cls-1" points="341.5 1.07 341.5 4.84 309.56 4.84 309.56 29.75 341.5 29.75 341.5 33.53 309.56 33.53 309.56 58.82 341.5 58.82 341.5 62.59 305.41 62.59 305.41 1.07 341.5 1.07"/>
      <path class="cls-1" d="M298.39,1.07v3.77h-17.1v57.75h-4.15V4.84h-17.1V1.21s.14-.14.15-.14h38.21Z"/>
      <rect class="cls-1" x="120.13" y="1.07" width="4.25" height="61.52"/>
      <rect class="cls-1" x="248.46" y="1.07" width="4.25" height="61.52"/>
      <path class="cls-1" d="M4.25,62.59H0V1.07h4.1s.15.13.15.14v61.38Z"/>
      <rect class="cls-1" x="208.22" y="1.07" width="4.15" height="61.52"/>
      <rect class="cls-1" x="174.7" y="29.75" width="30.65" height="3.59"/>
      <rect class="cls-1" x="215.34" y="29.75" width="30.35" height="3.59"/>
    </g>
  </g>
</svg>