<?xml version="1.0" encoding="UTF-8"?>
<svg id="Layer_2" data-name="Layer 2" xmlns="http://www.w3.org/2000/svg" viewBox="0 0 193.78 50.8">
  <defs>
    <style>
      .cls-1 {
        fill: #f6f9fd;
      }
    </style>
  </defs>
  <g id="Layer_1-2" data-name="Layer 1">
    <g id="Layer_1-3" data-name="Layer 1">
      <g>
        <g>
          <path class="cls-1" d="M50,19.38v-4.4c0-2.72-.8-4.92-2.43-6.51-1.59-1.64-3.79-2.43-6.51-2.43h-8.9v37.59h5.71v-15.26h3.23c2.72,0,4.87-.8,6.51-2.43,1.59-1.64,2.43-3.79,2.43-6.51l-.05-.05ZM44.34,19.52c0,1.12-.33,1.97-.94,2.57s-1.45.94-2.57.94h-2.95v-11.61h2.95c1.12,0,1.97.33,2.57.94s.94,1.45.94,2.57v4.63-.05Z"/>
          <path class="cls-1" d="M57.73,28.09h2.95l4.12,15.54h5.9l-4.78-16.81c1.26-.75,2.2-1.78,2.9-3.14.7-1.31,1.03-2.86,1.03-4.59v-4.12c0-2.72-.8-4.92-2.43-6.51-1.59-1.64-3.79-2.43-6.51-2.43h-8.9v37.59h5.71v-15.54h0ZM57.73,11.38h2.95c1.12,0,1.97.33,2.57.94s.94,1.45.94,2.57v4.35c0,1.12-.33,1.97-.94,2.57s-1.45.94-2.57.94h-2.95v-11.38Z"/>
          <polygon class="cls-1" points="89.75 19.57 97.29 43.63 103.28 43.63 103.28 6.04 97.71 6.04 97.71 31.27 90.45 6.04 84.18 6.04 84.18 43.63 89.75 43.63 89.75 19.57"/>
          <polygon class="cls-1" points="106.09 6.04 106.09 11.38 112.31 11.38 112.31 43.63 118.03 43.63 118.03 11.38 124.25 11.38 124.25 6.04 106.09 6.04"/>
          <g>
            <path class="cls-1" d="M141.9,24.16c2.53-1.45,3.79-3.84,3.79-7.21v-1.97c0-2.72-.8-4.92-2.43-6.51-1.59-1.64-3.79-2.43-6.51-2.43h-9.04v37.59h9.5c2.72,0,4.87-.8,6.51-2.43,1.59-1.64,2.43-3.79,2.43-6.51v-3.04c0-1.78-.37-3.32-1.12-4.59-.75-1.26-1.78-2.2-3.18-2.86l.05-.05ZM133.48,11.38h3.04c1.12,0,1.97.33,2.57.94s.94,1.45.94,2.57v2.67c0,1.36-.33,2.39-.98,3.04s-1.69.98-3.04.98h-2.53v-10.21ZM140.5,34.74c0,1.12-.33,1.97-.94,2.57s-1.45.89-2.57.89h-3.56v-11.28h3c1.36,0,2.39.33,3.04.98s.98,1.69.98,3.04v3.75l.05.05Z"/>
            <polygon class="cls-1" points="149.21 43.63 165.36 43.63 165.36 38.25 154.87 38.25 154.87 27.25 163.2 27.25 163.2 21.86 154.87 21.86 154.87 11.38 165.36 11.38 165.36 6.04 149.21 6.04 149.21 43.63"/>
            <path class="cls-1" d="M176.92,6.04h-8.9v37.59h8.9c2.72,0,4.87-.8,6.51-2.43,1.59-1.64,2.43-3.79,2.43-6.51V15.03c0-2.72-.8-4.92-2.43-6.51-1.59-1.64-3.79-2.43-6.51-2.43v-.05ZM180.15,34.74c0,1.12-.28,1.97-.94,2.57-.61.61-1.45.89-2.57.89h-2.95V11.33h2.95c1.12,0,1.97.33,2.57.94s.94,1.45.94,2.57v19.9Z"/>
          </g>
          <polygon class="cls-1" points="79.68 6.04 73.22 6.04 73.17 16.53 73.22 16.53 73.22 43.63 79.68 43.63 79.68 16.53 79.68 16.53 79.68 6.04"/>
          <g>
            <rect class="cls-1" width="3.65" height="50.8" rx="1.45" ry="1.45"/>
            <rect class="cls-1" x="21.82" y="0" width="3.65" height="50.8" rx="1.45" ry="1.45"/>
            <path class="cls-1" d="M6.32,45.46c.51,0,.94-.42.94-.94V6.27c0-.51-.42-.94-.94-.94s-.94.42-.94.94v38.25c0,.51.42.94.94.94Z"/>
            <path class="cls-1" d="M9.5,46.21c.51,0,.94-.42.94-.94V5.52c0-.51-.42-.94-.94-.94s-.94.42-.94.94v39.79c0,.51.42.94.94.94v-.05Z"/>
            <path class="cls-1" d="M13.67,4.68v41.39c0,.51-.42.94-.94.94s-.89-.37-.94-.84V4.73c0-.51.42-.94.94-.94s.89.37.94.84v.05Z"/>
            <path class="cls-1" d="M15.96,46.21c.51,0,.94-.42.94-.94V5.52c0-.51-.42-.94-.94-.94s-.94.42-.94.94v39.79c0,.51.42.94.94.94v-.05Z"/>
            <path class="cls-1" d="M19.19,45.46c.51,0,.94-.42.94-.94V6.27c0-.51-.42-.94-.94-.94s-.94.42-.94.94v38.25c0,.51.42.94.94.94Z"/>
          </g>
        </g>
        <g>
          <path class="cls-1" d="M192.18,43.63h-.89l-.23-.51c-.09-.19-.14-.33-.23-.42s-.14-.14-.19-.14h-.33v1.08h-.84v-2.81h1.45c.23,0,.42.05.56.14.14.09.23.23.33.33s.09.28.09.37,0,.28-.09.37c-.05.09-.09.19-.19.23-.05.05-.14.09-.19.14.09.05.19.14.23.19s.14.23.23.42l.28.61h0ZM191.06,41.76c0-.14,0-.23-.14-.28-.09-.05-.23-.09-.42-.09h-.19v.66h.19c.19,0,.33,0,.42-.09s.09-.14.09-.28l.05.09Z"/>
          <path class="cls-1" d="M190.69,45.41c-1.73,0-3.09-1.4-3.09-3.09s1.4-3.09,3.09-3.09,3.09,1.4,3.09,3.09-1.4,3.09-3.09,3.09ZM190.69,39.93c-1.31,0-2.39,1.08-2.39,2.39s1.08,2.39,2.39,2.39,2.39-1.08,2.39-2.39-1.08-2.39-2.39-2.39Z"/>
        </g>
      </g>
    </g>
  </g>
</svg>