<?xml version="1.0" encoding="UTF-8"?>
<svg id="Layer_1" data-name="Layer 1" xmlns="http://www.w3.org/2000/svg" viewBox="0 0 612.43 162.84">
  <defs>
    <style>
      .cls-1 {
        fill: #a0abce;
      }

      .cls-1, .cls-2, .cls-3 {
        stroke-width: 0px;
      }

      .cls-4 {
        stroke-miterlimit: 4;
        stroke-width: 3px;
      }

      .cls-4, .cls-5 {
        fill: #fff;
        stroke: #fff;
      }

      .cls-6, .cls-7, .cls-8, .cls-9, .cls-10, .cls-11 {
        isolation: isolate;
      }

      .cls-2, .cls-7, .cls-9, .cls-10, .cls-11 {
        fill: #144fde;
      }

      .cls-7 {
        letter-spacing: -.02em;
      }

      .cls-7, .cls-8, .cls-9, .cls-10, .cls-11 {
        font-family: TwCenMT-Regular, 'Tw Cen MT';
      }

      .cls-7, .cls-9, .cls-10, .cls-11 {
        font-size: 69px;
      }

      .cls-12 {
        fill: none;
        stroke: #000;
        stroke-width: 7px;
      }

      .cls-8 {
        font-size: 65px;
      }

      .cls-9 {
        letter-spacing: -.02em;
      }

      .cls-10 {
        letter-spacing: -.03em;
      }

      .cls-5 {
        stroke-width: 3px;
      }

      .cls-11 {
        letter-spacing: -.02em;
      }
    </style>
  </defs>
  <g id="bf62f0b2-1e47-4470-a3de-bd9f08dc0ac7">
    <circle class="cls-12" cx="81.42" cy="81.42" r="77.92"/>
    <path class="cls-2" d="M149.59,81.47c.01,37.34-30.24,67.61-67.58,67.62-37.34.01-67.61-30.24-67.62-67.58S44.63,13.9,81.97,13.89c.02,0,.04,0,.05,0,37.27-.05,67.52,30.12,67.57,67.39,0,.06,0,.13,0,.19Z"/>
    <rect class="cls-1" x="73.99" y="6.73" width="15.51" height="83.4" rx="7.76" ry="7.76" transform="translate(31.36 128.98) rotate(-88.61)"/>
    <rect class="cls-1" x="74.11" y="39.77" width="15.51" height="83.4" rx="7.76" ry="7.76" transform="translate(-1.56 161.34) rotate(-88.61)"/>
    <rect class="cls-1" x="75.67" y="73.15" width="15.51" height="83.4" rx="7.76" ry="7.76" transform="translate(-32.78 196.38) rotate(-89.05)"/>
    <rect class="cls-4" x="73.52" y="50.57" width="18.04" height="95.03" rx="9.02" ry="9.02" transform="translate(-39.48 137.39) rotate(-67.77)"/>
    <rect class="cls-4" x="72.74" y="17.48" width="18.04" height="95.03" rx="9.02" ry="9.02" transform="translate(-9.33 116.1) rotate(-67.77)"/>
    <path class="cls-5" d="M120.31,137.15c-6.93,4.78-14.7,8.22-22.9,10.13l-52.14-21.3c-4.61-1.9-6.81-7.17-4.92-11.78,1.89-4.6,7.14-6.8,11.75-4.93l68.21,27.88Z"/>
    <path class="cls-5" d="M126.38,50.08c-1.87,4.6-7.11,6.82-11.71,4.95-.02,0-.03-.01-.05-.02L43.49,25.95c6.88-4.79,14.6-8.25,22.75-10.2l55.21,22.56c4.61,1.89,6.82,7.16,4.93,11.77,0,0,0,0,0,0Z"/>
  </g>
  <g id="baa367ad-d436-4b62-a2ed-e7e13f6153bf">
    <g class="cls-6">
      <text class="cls-8" transform="translate(188.29 81.71) scale(1.02 1)"><tspan x="0" y="0">S</tspan></text>
      <text class="cls-8" transform="translate(221.69 81.71) scale(1.02 1)"><tspan x="0" y="0">P</tspan></text>
      <text class="cls-8" transform="translate(252.7 81.71) scale(1.02 1)"><tspan x="0" y="0">R</tspan></text>
      <text class="cls-8" transform="translate(286.1 81.71) scale(1.02 1)"><tspan x="0" y="0">I</tspan></text>
      <text class="cls-8" transform="translate(300.9 81.71) scale(1.02 1)"><tspan x="0" y="0">N</tspan></text>
      <text class="cls-8" transform="translate(345.71 81.71) scale(1.02 1)"><tspan x="0" y="0">G</tspan></text>
    </g>
    <path class="cls-3" d="M203.22,114.89l5.78,4.55,3.14-2.54,2.69,1.77-3.31,2.73,5.86,4.57h-4.97l-3.31-2.57c-2.63,2.04-5.84,3.2-9.17,3.33-2.34.06-4.64-.55-6.64-1.76-1.86-1.18-2.79-2.57-2.79-4.18-.03-1.12.42-2.21,1.24-2.97,1.77-1.36,3.68-2.51,5.72-3.43-.28-.3-.51-.54-.7-.72-.9-.75-1.67-1.64-2.28-2.65-.22-.47-.34-.98-.36-1.51.08-1.34.81-2.56,1.94-3.27,1.52-1.06,3.35-1.58,5.2-1.48,1.72-.05,3.41.45,4.83,1.42,1.2.73,1.95,2.03,1.99,3.43,0,1.94-1.62,3.7-4.86,5.29ZM206.58,121.41l-6.53-5.11c-1.66.7-3.24,1.6-4.69,2.66-.57.43-.93,1.08-.98,1.79.07,1.02.7,1.91,1.63,2.33,1.19.68,2.55,1.01,3.92.97,1.11,0,2.2-.21,3.22-.64,1.21-.55,2.36-1.22,3.44-2ZM200.65,112.94c1.01-.48,1.98-1.06,2.88-1.72.56-.36.91-.95.96-1.61,0-.65-.34-1.25-.91-1.58-1.51-.79-3.31-.79-4.83-.02-.55.28-.91.84-.93,1.47,0,.86.94,2.01,2.82,3.46Z"/>
    <path class="cls-3" d="M248.82,104.62l7.61,21.38h-3.73l-4.61-13.06-7.93,13.85-7.96-13.97-4.67,13.18h-3.7l7.61-21.38,8.71,15.3,8.65-15.3Z"/>
    <path class="cls-3" d="M275.13,104.69l13.14,21.32h-3.98l-3.23-5.25h-11.81l-3.19,5.25h-3.95l13.03-21.32ZM275.12,111.09l-4.45,7.32h8.95l-4.5-7.32Z"/>
    <path class="cls-3" d="M295.91,104.66l20.58,15.6v-14.78h3.8v21.48l-20.58-15.53v14.58h-3.8v-21.35Z"/>
    <path class="cls-3" d="M330.24,105.51h3.8v12.62c-.09,1.65.58,3.25,1.82,4.33,1.49,1.11,3.32,1.65,5.17,1.53,1.83.11,3.65-.39,5.17-1.41,1.23-.94,1.92-2.43,1.85-3.97v-13.1h3.8v12.91c.07,2.37-1.02,4.62-2.92,6.03-2.26,1.6-5,2.4-7.77,2.26-2.83.14-5.62-.66-7.94-2.29-2.04-1.63-3.15-4.15-2.98-6.75v-12.15Z"/>
    <path class="cls-3" d="M361.45,105.48h15.42v2.8h-11.67v5.12h11.67v2.77h-11.62v9.83h-3.8v-20.53Z"/>
    <path class="cls-3" d="M396.14,104.69l13.14,21.32h-3.98l-3.23-5.25h-11.81l-3.19,5.25h-3.96l13.03-21.32ZM396.13,111.09l-4.45,7.32h8.95l-4.5-7.32Z"/>
    <path class="cls-3" d="M439.66,106.19v3.17c-2.65-1.02-5.45-1.57-8.28-1.63-2.9-.1-5.75.71-8.17,2.31-3.14,1.76-4.25,5.74-2.48,8.87.6,1.07,1.49,1.94,2.56,2.53,2.54,1.61,5.51,2.41,8.51,2.29,2.71-.05,5.38-.64,7.87-1.72v3.21c-2.61,1-5.39,1.51-8.19,1.48-3.93.11-7.8-1.02-11.05-3.23-3.06-2.15-4.59-4.75-4.59-7.79,0-2.98,1.5-5.54,4.51-7.66,3.2-2.18,7-3.3,10.87-3.19,2.87.02,5.72.48,8.46,1.35Z"/>
    <path class="cls-3" d="M446.86,105.48h17.02v2.8h-6.64v17.72h-3.76v-17.72h-6.62v-2.8Z"/>
    <path class="cls-3" d="M472.41,105.51h3.8v12.62c-.09,1.65.58,3.25,1.82,4.33,1.49,1.11,3.32,1.65,5.17,1.53,1.83.11,3.65-.39,5.17-1.41,1.23-.94,1.92-2.43,1.85-3.97v-13.1h3.8v12.91c.07,2.37-1.02,4.62-2.92,6.03-2.26,1.6-5,2.4-7.77,2.26-2.83.14-5.62-.66-7.94-2.29-2.04-1.63-3.15-4.15-2.98-6.75v-12.15Z"/>
    <path class="cls-3" d="M504.53,105.48h6.03c2.55-.11,5.07.46,7.33,1.65,1.89,1.1,2.83,2.51,2.83,4.23-.03,1.43-.7,2.77-1.83,3.64-1.67,1.24-3.64,2-5.71,2.22l8.09,8.79h-4.36l-7.72-8.44h-.85v8.44h-3.8v-20.53ZM508.33,107.96v7.15c5.61.09,8.41-1.11,8.41-3.59.02-.83-.34-1.61-.98-2.13-.76-.6-1.66-.99-2.62-1.13-1.59-.23-3.2-.33-4.81-.3Z"/>
    <path class="cls-3" d="M530.65,105.48h3.76v20.53h-3.76v-20.53Z"/>
    <path class="cls-3" d="M544.68,104.66l20.58,15.6v-14.78h3.8v21.48l-20.58-15.53v14.58h-3.8v-21.35Z"/>
    <path class="cls-3" d="M606.03,108.76l-2.82,2.05c-2.87-2.06-6.32-3.14-9.85-3.08-2.89-.11-5.75.7-8.15,2.32-2.01,1.25-3.23,3.43-3.25,5.79,0,2.03,1.05,3.86,3.16,5.48,2.1,1.63,5.01,2.44,8.71,2.44,5.55,0,9.04-1.78,10.46-5.33h-7.51v-2.8h11.86c.03,1.13-.1,2.27-.38,3.36-.35,1.01-.89,1.95-1.58,2.77-.9,1.09-1.98,2.01-3.2,2.71-1.33.8-2.77,1.37-4.28,1.71-1.79.37-3.62.54-5.45.52-4.81,0-8.64-1.11-11.5-3.34-2.86-2.23-4.29-4.77-4.29-7.64,0-3.02,1.46-5.58,4.39-7.71,3.11-2.18,6.84-3.29,10.64-3.18,2.29-.02,4.57.26,6.78.83,2.26.66,4.39,1.71,6.28,3.1Z"/>
    <g class="cls-6">
      <text class="cls-9" transform="translate(396.04 83.32) scale(1.02 1)"><tspan x="0" y="0">DE</tspan></text>
      <text class="cls-11" transform="translate(466.1 83.32) scale(1.02 1)"><tspan x="0" y="0">S</tspan></text>
      <text class="cls-7" transform="translate(499.87 83.32) scale(1.02 1)"><tspan x="0" y="0">I</tspan></text>
      <text class="cls-10" transform="translate(513.67 83.32) scale(1.02 1)"><tspan x="0" y="0">G</tspan></text>
      <text class="cls-9" transform="translate(565.51 83.32) scale(1.02 1)"><tspan x="0" y="0">N</tspan></text>
    </g>
  </g>
</svg>