<?xml version="1.0" encoding="UTF-8"?>
<svg id="Livello_1" data-name="Livello 1" xmlns="http://www.w3.org/2000/svg" viewBox="0 0 1180.5 250.02">
  <defs>
    <style>
      .cls-1 {
        fill: #243882;
        stroke-width: 0px;
      }
    </style>
  </defs>
  <path class="cls-1" d="M808.1,90.51c1.1-.1,1.9-1,1.8-2.1h0c-.1-1.1-1-1.9-2.1-1.8s-1.9,1-1.8,2.1h0c.1,1,1.1,1.8,2.1,1.8M684.4,27.41c0,3.1,2.5,5.7,5.7,5.7s5.7-2.5,5.7-5.7-2.5-5.7-5.7-5.7c-3.1,0-5.7,2.6-5.7,5.7h0M720.4,39.61c0,3.1,2.5,5.7,5.7,5.7s5.7-2.5,5.7-5.7-2.5-5.7-5.7-5.7h0c-3.1,0-5.7,2.5-5.7,5.7q0-.1,0,0h0M585,187.71c0,3.1,2.5,5.7,5.7,5.7s5.7-2.5,5.7-5.7-2.5-5.7-5.7-5.7h0c-3.1.1-5.6,2.6-5.7,5.7h0M613,211.21c0,3.1,2.5,5.7,5.7,5.7s5.7-2.5,5.7-5.7-2.5-5.7-5.7-5.7h0c-3.1.1-5.7,2.6-5.7,5.7M648.6,222.21c0,3.1,2.5,5.7,5.7,5.7s5.7-2.5,5.7-5.7-2.5-5.7-5.7-5.7h0c-3.1,0-5.6,2.5-5.7,5.7h0M685.2,221.81c.1,3.1,2.7,5.6,5.8,5.5s5.6-2.7,5.5-5.8-2.6-5.5-5.6-5.5-5.7,2.5-5.7,5.6v.2h0M720.4,210.61c0,3.1,2.6,5.7,5.8,5.6,3.1,0,5.7-2.6,5.6-5.8,0-3.1-2.5-5.6-5.6-5.6h0c-3.1,0-5.7,2.5-5.7,5.6q0,.1-.1.2M748.4,188.11c0,3.1,2.5,5.7,5.7,5.7s5.7-2.5,5.7-5.7-2.5-5.7-5.7-5.7h0c-3.1-.1-5.6,2.5-5.7,5.7q0-.1,0,0M748.1,62.01c0,3.1,2.6,5.6,5.7,5.6s5.6-2.6,5.6-5.7-2.5-5.6-5.7-5.6-5.6,2.6-5.6,5.7h0M708.3,47.01c0-4-3.3-7.2-7.3-7.2s-7.2,3.3-7.2,7.3,3.2,7.2,7.2,7.2,7.3-3.3,7.3-7.3h0M732.6,62.01c0-4-3.3-7.2-7.3-7.2s-7.2,3.3-7.2,7.3,3.2,7.2,7.2,7.2c4.1-.1,7.3-3.3,7.3-7.3h0M751.6,83.31c0-4-3.2-7.3-7.3-7.3s-7.3,3.2-7.3,7.3,3.2,7.3,7.3,7.3h0c4,0,7.2-3.2,7.3-7.3q0,.1,0,0h0M699.6,2.11c.1-1.1-.7-2-1.7-2.1-1.1-.1-2,.7-2.1,1.8-.1,1.1.7,2,1.8,2.1,1,.1,1.9-.7,2-1.8q0,.1,0,0h0M748,19.71c.1-1-.7-2-1.7-2.1h0c-1.1,0-1.9.9-1.9,2,0,.9.7,1.7,1.6,1.9,1,.1,2-.7,2-1.8M786.1,47.01c.1-1.1-.7-2-1.8-2.1h0c-1-.1-2,.7-2.1,1.7h0c-.2,1.1.5,2.1,1.5,2.3,1.1.2,2.1-.5,2.3-1.6.1-.1.1-.2.1-.3M720.2,21.81c.1-2-1.5-3.8-3.5-3.9s-3.8,1.5-3.9,3.5c-.1,2,1.4,3.7,3.4,3.9,2,.2,3.8-1.3,4-3.3v-.2h0M757.2,40.21c.2-2-1.3-3.8-3.3-4h-.1c-2-.3-3.9,1-4.2,3s1,3.9,3,4.2h.6c2,.2,3.8-1.3,3.9-3.3v-.2h0M782.3,66.41c-2-.1-3.8,1.5-3.9,3.5-.1,2,1.5,3.8,3.5,3.9s3.7-1.4,3.9-3.4-1.3-3.8-3.3-4h-.2M672.2,11.61c-2.1,0-3.7,1.6-3.7,3.7s1.6,3.7,3.7,3.7,3.7-1.6,3.7-3.7h0c0-1.9-1.6-3.6-3.7-3.7q0,.1,0,0M654.3,21.81c-3.1,0-5.7,2.5-5.7,5.7s2.5,5.7,5.7,5.7,5.7-2.5,5.7-5.7h0c-.1-3.1-2.6-5.6-5.7-5.7h0M618.3,33.91c-3.1,0-5.7,2.5-5.7,5.7s2.5,5.7,5.7,5.7,5.7-2.5,5.7-5.7h0c0-3.1-2.5-5.7-5.7-5.7M565.7,119.51c-3.1,0-5.7,2.5-5.7,5.7s2.5,5.7,5.7,5.7,5.7-2.5,5.7-5.7h0c0-3-2.5-5.6-5.7-5.7h0M572.7,86.21c-3.1,0-5.7,2.5-5.7,5.7s2.5,5.7,5.7,5.7,5.7-2.5,5.7-5.7h0c.1-3.1-2.4-5.7-5.5-5.8h0M591,56.31c-3.1,0-5.7,2.5-5.7,5.7s2.5,5.7,5.7,5.7,5.7-2.5,5.7-5.7h0c-.1-3.1-2.6-5.6-5.7-5.7M672.2,214.91c4,0,7.3-3.2,7.3-7.2s-3.2-7.3-7.2-7.3-7.3,3.2-7.3,7.2h0c0,4,3.2,7.2,7.2,7.3M672.2,50.01c4,0,7.3-3.2,7.3-7.2s-3.2-7.3-7.2-7.3-7.3,3.2-7.3,7.2h0c0,4,3.2,7.2,7.2,7.3M643.4,54.21c4,0,7.3-3.2,7.3-7.2s-3.2-7.3-7.2-7.3-7.3,3.2-7.3,7.2h0c-.1,4,3.1,7.3,7.2,7.3q-.1,0,0,0h0M619,69.11c4,0,7.3-3.2,7.3-7.2s-3.2-7.3-7.2-7.3-7.3,3.2-7.3,7.2h0c0,4,3.2,7.3,7.2,7.3h0M599.8,90.61c4,.2,7.4-2.9,7.6-6.9.2-4-2.9-7.4-6.9-7.6s-7.4,2.9-7.6,6.9v.1h0c0,4,3.2,7.2,7.2,7.3h0M592.2,117.41c4,0,7.3-3.2,7.3-7.2s-3.2-7.3-7.2-7.3-7.3,3.2-7.3,7.2h0c0,4,3.2,7.2,7.2,7.3h0M646.9,3.91c1.1-.1,1.9-1,1.8-2.1-.1-1.1-1-1.9-2.1-1.8-1.1.1-1.8,1-1.7,2.1v.1c0,1,.9,1.8,2,1.7q-.1,0,0,0h0M598.5,21.51c1.1-.1,1.8-1,1.8-2h0c-.1-1.1-1-1.9-2.1-1.8s-1.8,1-1.8,2h0c.1,1.1,1,1.8,2.1,1.8M808.1,173.21c1.1,0,1.9-.9,1.9-1.9,0-1.1-.9-1.9-1.9-1.9h-.4c-1.1.1-1.8,1-1.8,2h0c.1,1.1,1,1.9,2.1,1.8M784.8,205.41c1.1-.1,1.8-1.1,1.8-2.1-.1-1.1-1-1.9-2.1-1.8-1.1.1-1.9,1-1.8,2.1.1,1.1,1,1.9,2.1,1.8h0M746.2,232.61c1.1-.1,1.8-1,1.8-2h0c0-1.1-.9-1.9-1.9-2-1.1,0-1.9.9-2,1.9h0v.4c.1,1.1,1,1.9,2.1,1.7q0,.1,0,0h0M697.9,250.01c1.1-.1,1.9-1,1.8-2.1-.1-1.1-1-1.9-2.1-1.8h0c-1.1.1-1.9,1-1.8,2.1.1,1.1,1,1.9,2.1,1.8M646.9,250.01c1.1-.1,1.9-1,1.8-2.1-.1-1.1-1-1.9-2.1-1.8h0c-1.1.1-1.9,1-1.8,2.1.1,1.1,1,1.9,2.1,1.8h0M598.5,232.41c1.1-.1,1.8-1,1.8-2h0c-.1-1.1-1-1.9-2.1-1.8-1.1.1-1.8,1-1.8,2h0c.1,1.1,1,1.9,2.1,1.8M560.3,205.11c1.1-.1,1.9-1,1.8-2.1h0c-.1-1.1-1-1.9-2.1-1.8-1.1.1-1.9,1-1.8,2.1h0c.1,1.1,1,1.9,2.1,1.8M536.4,173.21c1.1,0,1.9-.9,1.9-1.9,0-1.1-.9-1.9-1.9-1.9h-.4c-1.1.2-1.7,1.2-1.5,2.3.2.9.9,1.6,1.9,1.6M560.5,48.61c1.1-.1,1.9-1,1.8-2.1h0c-.1-1.1-1-1.9-2.1-1.8-1.1.1-1.9,1-1.8,2.1h0c.1,1.1,1,1.9,2.1,1.8M628.1,24.91c2-.3,3.4-2.1,3.2-4.1-.3-1.9-1.9-3.3-3.8-3.2-2,.3-3.4,2.1-3.1,4.1.3,1.8,1.8,3.2,3.6,3.2h0M591,43.41c1.9-.1,3.4-1.7,3.3-3.6-.1-1.9-1.7-3.4-3.6-3.3-1.9.1-3.4,1.7-3.3,3.6.1,1.8,1.5,3.2,3.3,3.3h.3M558.5,70.31c0,1.9,1.6,3.5,3.5,3.5h.5c2,0,3.7-1.7,3.6-3.7,0-2-1.7-3.7-3.7-3.6h-.4c-2.1.1-3.7,1.8-3.5,3.8M796.8,140.31c-2,.2-3.5,2-3.4,4,.2,2,2,3.5,4,3.4h0c2-.2,3.5-2,3.4-4-.2-2.1-2-3.6-4-3.4h0M782.5,176.01c-2,.3-3.4,2.1-3.2,4.1.2,1.9,1.9,3.3,3.8,3.2,2-.3,3.4-2.1,3.1-4.1-.3-1.8-1.8-3.2-3.6-3.2h0M754.1,206.41c-2,0-3.7,1.7-3.6,3.7,0,2,1.7,3.7,3.7,3.6h.4c2-.1,3.6-1.8,3.5-3.9,0-1.9-1.6-3.5-3.5-3.5h-.5M716.3,224.91c-2,.1-3.6,1.8-3.5,3.9h0c.1,2,1.8,3.6,3.8,3.5s3.6-1.8,3.5-3.8h0v-.3c-.1-2-1.8-3.6-3.8-3.5h0M671.8,230.91c-2,.1-3.6,1.8-3.5,3.8s1.8,3.6,3.8,3.5h.3c2-.3,3.4-2.1,3.2-4.1-.3-1.9-1.9-3.2-3.8-3.2M629.1,226.01c-2,.2-3.5,2-3.3,4s2,3.5,4,3.3,3.5-1.9,3.4-3.9-1.8-3.6-3.9-3.5q-.1.1-.2.1h0M590.6,206.61c-2,.1-3.6,1.8-3.5,3.8s1.8,3.6,3.8,3.5h.3c2-.3,3.4-2.1,3.2-4.1-.3-1.9-1.9-3.3-3.8-3.2M561.9,176.21c-2,.3-3.4,2.1-3.2,4.1.2,1.9,1.9,3.3,3.8,3.2,2-.3,3.4-2.1,3.1-4.1-.3-1.8-1.8-3.2-3.6-3.2h0M546.1,105.71c-2,.3-3.4,2.1-3.2,4.1.2,1.9,1.9,3.3,3.8,3.2,2-.3,3.4-2.1,3.1-4.1-.3-1.8-1.8-3.2-3.6-3.2h0M650.9,202.91c0-4-3.2-7.2-7.2-7.2s-7.2,3.2-7.2,7.2,3.2,7.2,7.2,7.2h0c3.9,0,7.2-3.2,7.2-7.2h0M700.7,195.61c-4,0-7.3,3.2-7.3,7.2s3.2,7.3,7.2,7.3,7.3-3.2,7.3-7.2h0c.1-4-3.1-7.2-7.2-7.3q.1.1,0,0h0M725.5,181.31c-4-.1-7.3,3.1-7.4,7.1-.1,4,3.1,7.3,7.1,7.4,4,.1,7.3-3.1,7.4-7.1v-.1c.1-4-3.2-7.3-7.2-7.4h-.2M751.5,166.71c0-4-3.3-7.2-7.3-7.2s-7.2,3.3-7.2,7.3,3.2,7.2,7.2,7.2c4-.1,7.3-3.3,7.3-7.3h0M619.2,180.91c-4,0-7.3,3.2-7.3,7.2s3.2,7.3,7.2,7.3,7.3-3.2,7.3-7.2h0c0-4-3.2-7.2-7.2-7.3h0M600.1,159.51c-4,0-7.3,3.2-7.3,7.2s3.2,7.3,7.2,7.3,7.3-3.2,7.3-7.2v-.1h0c0-4-3.3-7.3-7.2-7.2h0M890,97.21h44.8v59.7h15.7v-59.7h40.8l3.8-10.4h-101.3l-3.8,10.4ZM527.1,86.81h-15.7v70.1h71.7l3.9-10.4h-59.9v-59.7ZM673.3,86.81l37.9,69.4h16.8l-37.9-69.2-16.8-.2ZM616,156.21h16.8l37.9-69.2h-16.8l-37.9,69.2ZM842.1,138.91l-66-51.8h-15.8v69.2h15.7v-52.1l66,52.1h15.7v-69.3h-15.7l.1,51.9ZM1160,116.41h-48.2c-4.8.4-9.1-3.1-9.5-7.9h0v-2.7c.1-4.8,4-8.5,8.7-8.5h65.7l3.8-10.4h-73.5c-13.2,0-20,8.9-20.1,17.8v4.6c0,9,6.9,18.3,20.5,18.3h48.2c4.8-.4,9.1,3.1,9.5,7.9h0v2.6c-.1,4.8-4,8.6-8.8,8.5h-65.6l-3.8,10.4h73.5c13.2,0,20-8.9,20.1-17.8v-4.6c0-9-6.9-18.3-20.5-18.3M73.2,116.31H24.9c-4.8.4-9.1-3.1-9.5-7.9h0v-2.6c.1-4.8,4-8.5,8.7-8.5h65.7l4-10.4H20.1C6.9,87.21.1,96.01,0,104.91v4.6c0,9,6.9,18.3,20.5,18.3h48.2c4.8-.4,9.1,3.1,9.5,7.9h0v2.6c-.1,4.8-4,8.6-8.8,8.5H3.8l-3.8,10.3h73.5c13.2,0,20-8.9,20.1-17.8v-4.8c0-9-6.9-18.3-20.5-18.3M1028.3,156.21h15.7v-69.2h-15.7v69.2ZM127.9,97.21h44.7v59.7h15.7v-59.7h40.8l3.8-10.4h-101.2l-3.8,10.4ZM343.1,97.21l3.8-10.4h-79.6v70.1h75.9l3.8-10.4h-63.9v-19.7h44.7l3.8-10.2h-48.6v-19.4h60.1ZM410,146.61h59.9l-3.9,10.4h-71.7v-70h15.7v59.6Z"/>
</svg>