<?xml version="1.0" encoding="UTF-8"?>
<svg id="Layer_1" data-name="Layer 1" xmlns="http://www.w3.org/2000/svg" viewBox="0 0 611.94 317.69">
  <defs>
    <style>
      .cls-1 {
        fill: #6abd45;
        fill-rule: evenodd;
        stroke-width: 0px;
      }
    </style>
  </defs>
  <path class="cls-1" d="M281.34,300.5l-.4-.22c-.11-.06-.22-.12-.32-.19-2.14-1.3-3.77-3.17-4.87-5.64-1-2.25-1.54-4.94-1.54-8.09v-7c0-3.18.52-5.9,1.49-8.15,1.08-2.5,2.68-4.38,4.75-5.68,2.03-1.27,4.45-1.95,7.29-1.95s5.41.56,7.6,1.62h0c0-.31.12-.6.34-.82.22-.22.51-.34.82-.34h8.69v33.87c0,4.1-.58,9.27-1.93,11.88-1.34,2.61-3.3,4.59-5.87,5.94-2.42,1.28-5.33,1.95-8.75,1.95-2.87,0-5.43-.55-7.67-1.6-2.38-1.12-4.23-2.72-5.55-4.76l-1.25-1.92,6-5.39s.81,1.19,1.74,1.92c.93.73,2.14,1.46,3.21,1.94,1,.45,2.33.56,3.42.56,2.17,0,3.51-.56,5.08-1.7,1.55-1.13,2.23-4.55,1.49-5.97-1.96.82-4.31,1.26-7.08,1.26-2.56,0-4.79-.52-6.71-1.52ZM539.99,300.5l-.4-.22c-.1-.06-.21-.12-.32-.19-2.13-1.3-3.77-3.17-4.87-5.64-1-2.25-1.53-4.94-1.53-8.09v-7c0-3.18.52-5.9,1.49-8.15,1.08-2.5,2.68-4.38,4.75-5.68,2.03-1.27,4.45-1.95,7.29-1.95s5.42.56,7.6,1.62h0c0-.31.12-.6.34-.82.22-.22.52-.34.82-.34h8.68v33.87c0,4.1-.58,9.27-1.93,11.88s-3.3,4.59-5.87,5.94c-2.42,1.28-5.34,1.95-8.75,1.95-2.88,0-5.43-.55-7.67-1.6-2.39-1.12-4.23-2.72-5.55-4.76l-1.24-1.92,6-5.39s.81,1.19,1.74,1.92c.93.73,2.14,1.46,3.21,1.94,1,.45,2.33.56,3.42.56,2.17,0,3.51-.56,5.09-1.7,1.55-1.13,2.23-4.55,1.49-5.97-1.96.82-4.31,1.26-7.07,1.26-2.56,0-4.8-.52-6.71-1.52ZM72.41,274.26c-.53-.72-.97-1.37-1.32-1.95-1.6-2.59-2.36-5.12-2.36-7.58,0-3.1,1.03-5.77,3.1-8.02,2.65-2.85,6.2-4.33,10.68-4.33,3.28,0,6.15.88,8.62,2.59,3.48,2.43,5.19,5.67,5.19,9.68,0,3.69-1.47,6.92-4.5,9.66-1.05.94-2.37,1.87-3.97,2.77,2,1.98,3.99,3.84,5.96,5.56.85-1.8,1.58-3.96,2.2-6.45h0c.18-.73.67-1.35,1.34-1.7.67-.35,1.46-.39,2.17-.12,2.8,1.09,6.71,2.6,6.71,2.6l-.7,2.33c-1.23,4.07-2.62,7.32-4.11,9.79,1.77,1.42,3.8,2.95,6.11,4.59l2.4,1.72-7.03,7.71-1.92-1.45c-2.03-1.54-4.04-3.15-6-4.84-4.18,3.61-9.28,5.42-15.32,5.42-3.34,0-6.28-.7-8.84-2.05-2.42-1.27-4.3-2.97-5.65-5.07-1.41-2.19-2.11-4.59-2.11-7.2,0-5.63,3.01-10.28,9.36-13.67ZM416.74,287.43c.27,1.31.79,2.39,1.62,3.23,1.28,1.3,3.12,1.85,5.44,1.85,1.14,0,2.26-.24,3.38-.72,1.14-.49,2.16-1.17,3.05-2.06h0c1.03-1.03,2.71-1.05,3.76-.04,2.06,1.97,5.05,4.83,5.05,4.83l-1.99,1.93c-1.82,1.77-3.88,3.13-6.17,4.1-2.33.98-4.69,1.46-7.08,1.46-3.48,0-6.44-.69-8.9-2-2.61-1.39-4.59-3.41-5.96-6.07-1.29-2.5-1.96-5.5-1.96-9.01v-3.62c0-3.63.64-6.72,1.86-9.29,1.31-2.77,3.22-4.87,5.72-6.31,2.41-1.4,5.29-2.13,8.68-2.13s6,.73,8.3,2.12c2.36,1.43,4.18,3.5,5.41,6.25,1.14,2.53,1.74,5.56,1.74,9.11v6.36h-21.97ZM379.5,287.43c.27,1.31.79,2.39,1.62,3.23,1.28,1.3,3.12,1.85,5.44,1.85,1.14,0,2.26-.24,3.38-.72,1.14-.49,2.16-1.17,3.05-2.06h0c1.03-1.03,2.71-1.05,3.76-.04,2.06,1.97,5.05,4.83,5.05,4.83l-1.99,1.93c-1.82,1.77-3.87,3.13-6.17,4.1-2.33.98-4.69,1.46-7.07,1.46-3.48,0-6.44-.69-8.9-2-2.61-1.39-4.59-3.41-5.96-6.07-1.29-2.5-1.96-5.5-1.96-9.01v-3.62c0-3.63.64-6.72,1.86-9.29,1.31-2.77,3.22-4.87,5.72-6.31,2.41-1.4,5.29-2.13,8.68-2.13s6,.73,8.3,2.12c2.36,1.43,4.17,3.5,5.41,6.25,1.14,2.53,1.74,5.56,1.74,9.11v6.36h-21.97ZM504.85,265.27c2.23-1.11,4.81-1.69,7.76-1.69,4.4,0,7.77,1.51,10.19,4.38,2.26,2.69,3.5,6.47,3.5,11.4v22.19h-9.84v-22.16c0-2.04-.43-3.66-1.51-4.78-1.03-1.08-2.53-1.52-4.41-1.52s-3.3.38-4.31,1.35c-.97.93-1.37,2.29-1.37,4v23.12h-9.84v-37.51h8.62c.68,0,1.23.55,1.23,1.22h0ZM341.74,265.27c2.23-1.11,4.81-1.69,7.76-1.69,4.4,0,7.77,1.51,10.18,4.38,2.26,2.69,3.5,6.47,3.5,11.4v22.19h-9.84v-22.16c0-2.04-.44-3.66-1.52-4.78-1.03-1.08-2.52-1.52-4.4-1.52s-3.3.38-4.31,1.35c-.97.93-1.36,2.29-1.36,4v23.12h-9.84v-37.51h8.62c.68,0,1.23.55,1.23,1.22h0ZM476.72,264.05v37.51h9.85v-33.64c0-1.03-.41-2.01-1.14-2.74-.73-.73-1.71-1.13-2.74-1.13h-5.97ZM204.15,251.16h20.13c3.21,0,5.81,2.59,5.81,5.79v3.71h-24.54v11.09h15.3c1.55,0,3.03.61,4.12,1.7,1.09,1.09,1.7,2.57,1.7,4.1v3.7h-21.12v10.78h18.72c1.55,0,3.03.61,4.12,1.7,1.09,1.09,1.7,2.57,1.7,4.1v3.7h-34.39v-50.39h8.45ZM0,251.16h17.01c4.29,0,7.85.7,10.7,2.03,3.1,1.45,5.42,3.64,6.95,6.55,1.44,2.73,2.21,6.13,2.21,10.23v12.76c0,4.1-.78,7.5-2.23,10.23-1.55,2.9-3.86,5.08-6.96,6.54-2.85,1.34-6.42,2.05-10.71,2.05H0v-50.39ZM130.38,251.16h17.01c4.28,0,7.85.7,10.7,2.03,3.1,1.45,5.41,3.64,6.95,6.55,1.44,2.73,2.2,6.13,2.2,10.23v12.76c0,4.1-.77,7.5-2.23,10.23-1.55,2.9-3.86,5.08-6.95,6.54-2.85,1.34-6.42,2.05-10.72,2.05h-16.97v-50.39ZM246.2,265.27c2.23-1.11,4.81-1.69,7.76-1.69,4.4,0,7.77,1.51,10.18,4.38,2.26,2.69,3.5,6.47,3.5,11.4v22.19h-9.84v-22.16c0-2.04-.44-3.66-1.51-4.78-1.03-1.08-2.53-1.52-4.41-1.52s-3.3.38-4.31,1.35c-.97.93-1.36,2.29-1.36,4v23.12h-9.85v-37.51h8.62c.68,0,1.23.55,1.23,1.22h0ZM313.61,264.05v37.51h9.85v-33.64c0-1.03-.41-2.01-1.14-2.74-.73-.73-1.72-1.13-2.75-1.13h-5.96ZM455.24,265.52c2.31-1.28,4.84-1.93,7.59-1.93,1.8,0,3.44.27,4.9.79,1.55.55,2.89,1.36,4.05,2.44l1.8,1.67-6.29,8.09-2.15-2.22c-.38-.4-.88-.68-1.46-.89-.75-.26-1.62-.38-2.61-.38-1.88,0-3.37.4-4.41,1.4-1,.96-1.41,2.33-1.41,4.04v23.03h-9.85v-37.51h8.37c.39,0,.76.15,1.04.43.28.28.43.65.43,1.04h0ZM553.98,278.34c0-.97-.23-1.89-.68-2.77-.43-.84-1.06-1.51-1.9-2.03-.83-.53-1.82-.76-2.94-.76-1.82,0-3.25.46-4.25,1.55-1.08,1.19-1.51,2.9-1.51,5.06v6.97c0,2.1.43,3.77,1.5,4.93.99,1.08,2.44,1.53,4.26,1.53,1.1,0,2.06-.24,2.89-.78.84-.54,1.48-1.25,1.93-2.12.46-.9.7-1.84.7-2.82v-8.77ZM295.34,278.34c0-.97-.23-1.89-.68-2.77-.43-.84-1.07-1.51-1.9-2.03-.83-.53-1.82-.76-2.94-.76-1.82,0-3.26.46-4.25,1.55-1.08,1.19-1.51,2.9-1.51,5.06v6.97c0,2.1.43,3.77,1.5,4.93,1,1.08,2.44,1.53,4.27,1.53,1.09,0,2.06-.24,2.88-.78.84-.54,1.49-1.25,1.93-2.12.46-.9.7-1.84.7-2.82v-8.77ZM78.63,281.39c-1.29.67-2.36,1.44-3.22,2.31-1.23,1.24-1.9,2.59-1.9,4.09,0,1.32.48,2.4,1.49,3.26,1.31,1.13,3.09,1.62,5.3,1.62,2.46,0,4.71-.59,6.71-1.78.25-.15.49-.31.72-.48-3.04-2.8-6.08-5.8-9.1-9.02ZM9.84,260.67v31.38h7.35c3.35,0,5.89-.64,7.56-2.2,1.61-1.51,2.27-3.83,2.27-6.86v-13.26c0-3.03-.67-5.35-2.27-6.86-1.67-1.56-4.21-2.2-7.56-2.2h-7.35ZM140.22,260.67v31.38h7.35c3.35,0,5.9-.64,7.56-2.2,1.61-1.51,2.27-3.83,2.27-6.86v-13.26c0-3.03-.67-5.35-2.27-6.86-1.67-1.56-4.21-2.2-7.56-2.2h-7.35ZM429.47,279.98c-.25-1.93-.74-3.53-1.53-4.79-1.09-1.72-2.68-2.46-4.67-2.46-2.3,0-4.1.82-5.35,2.71-.79,1.21-1.32,2.72-1.61,4.53h13.17ZM392.24,279.98c-.25-1.93-.74-3.53-1.54-4.79-1.09-1.72-2.67-2.46-4.66-2.46-2.3,0-4.11.82-5.35,2.71-.8,1.21-1.32,2.72-1.61,4.53h13.17ZM81.49,270.14c2.94-1.5,4.61-3.17,4.61-5.4,0-.71-.26-1.33-.8-1.88-.73-.78-1.69-1.15-2.84-1.15-.89,0-1.67.24-2.36.76-.78.58-1.15,1.36-1.15,2.35,0,1.16.46,2.35,1.28,3.61.36.55.77,1.12,1.26,1.71ZM476.72,251.16v9.82h9.85v-5.95c0-1.03-.41-2.01-1.14-2.74s-1.71-1.13-2.74-1.13h-5.97ZM313.61,251.16v9.82h9.85v-5.95c0-1.03-.41-2.01-1.14-2.74-.73-.73-1.71-1.13-2.74-1.13h-5.97ZM539.89,18.5c6.85-11.09,19.14-18.5,33.15-18.5,21.47,0,38.9,17.38,38.9,38.78s-17.43,38.78-38.9,38.78c-14.01,0-26.3-7.4-33.15-18.5h-89.08v54.28h74.08c6.15,0,12.06,2.44,16.41,6.77,4.35,4.34,6.79,10.22,6.79,16.35v17.44h-97.28v52.86h88.98c13.27,0,24.03,10.73,24.03,23.96v16.61H0V39.03c0-5.45,2.17-10.67,6.03-14.52,3.86-3.85,9.1-6.02,14.57-6.02h519.29ZM204.35,173.81c-6.13,3.04-13.04,4.75-20.35,4.75-6.39,0-12.47-1.31-17.99-3.67-1.16,12.22-4.04,22.84-8.53,31.87h46.87v-32.96ZM370.44,173.93c-1.1,12.63-4.01,23.57-8.62,32.84h46.87v-31.94c-5.57,2.4-11.7,3.73-18.15,3.73-7.21,0-14.04-1.67-20.11-4.63ZM281.91,59.06h-35.45v147.71h35.45c15.91,0,27.99-3.15,35.9-10.57,7.69-7.21,10.99-18.26,10.99-32.76v-61.05c0-14.5-3.3-25.55-10.99-32.76-7.91-7.42-19.99-10.57-35.9-10.57ZM42.11,59.06v147.71h35.45c15.91,0,27.99-3.15,35.91-10.57,7.69-7.21,10.99-18.26,10.99-32.76v-61.05c0-14.5-3.29-25.55-10.99-32.76-7.91-7.42-20-10.57-35.91-10.57h-35.45ZM184,114.09c10.42,0,18.89,8.44,18.89,18.83s-8.47,18.83-18.89,18.83-18.89-8.44-18.89-18.83,8.46-18.83,18.89-18.83ZM390.55,114.09c10.43,0,18.89,8.44,18.89,18.83s-8.46,18.83-18.89,18.83-18.89-8.44-18.89-18.83,8.46-18.83,18.89-18.83ZM204.35,92.02v-32.96h-46.78c4.44,9.06,7.29,19.67,8.44,31.87,5.52-2.36,11.6-3.66,17.99-3.66,7.3,0,14.22,1.71,20.35,4.75ZM408.69,91v-31.94h-46.77c4.55,9.29,7.44,20.23,8.52,32.84,6.07-2.97,12.89-4.63,20.11-4.63,6.44,0,12.58,1.33,18.15,3.73ZM573.04,26.82c6.62,0,12,5.36,12,11.96s-5.37,11.96-12,11.96-12-5.36-12-11.96,5.38-11.96,12-11.96Z"/>
</svg>