<?xml version="1.0" encoding="UTF-8"?>
<svg id="Layer_1" data-name="Layer 1" xmlns="http://www.w3.org/2000/svg" viewBox="0 0 516.19 342.02">
  <defs>
    <style>
      .cls-1 {
        fill: #fff;
      }

      .cls-1, .cls-2 {
        stroke-width: 0px;
      }

      .cls-2 {
        fill: #d81f28;
      }
    </style>
  </defs>
  <g id="g11287">
    <path id="path3098" class="cls-2" d="M389.18,225.44c-145.35,72.93-240.82,72.83-294.42,67.59C41.16,287.8-3,259.61.16,223.22c3.16-36.39,72.48-90.83,84.4-96.61s38.28-22.03,38.28-22.03c0,0-23.16,17.25-36.66,28.02-13.49,10.77-23.32,19.56-30.47,28.93-7.15,9.37-29.97,33.88-19.11,65.47,10.86,31.59,60.18,44.18,81.41,46.53,21.23,2.35,57.91,7.06,101.05.24,43.14-6.82,93.37-18.13,111.01-25.46,17.64-7.33,59.09-22.89,59.09-22.89h0Z"/>
    <path id="path3100" class="cls-2" d="M66.91,166.5c-20.07,23.02-15.47,46.29-12.37,53.94,3.09,7.65,16.52,24.66,33.08,29.91,16.56,5.25,52.16,16.65,108.93,12.11s152.56-28.16,200.89-56.12c48.33-27.96,81.16-52.03,94.96-74.39,13.8-22.36,12.95-33.08,12.95-33.08-12.95,33.08-45.75,59.35-74.4,78.64-27.12,18.26-53.78,31.18-91.32,42.94-37.53,11.76-82.93,25.99-136.77,28.39-53.83,2.41-89.78-3.82-109.52-14.25-19.74-10.43-31.92-25.13-32.05-41.25-.13-16.12,5.6-26.83,5.6-26.83h0Z"/>
    <path id="path3102" class="cls-2" d="M2.11,193.96c10.6-32.64,49.55-72.26,106.54-96.99,56.99-24.73,101.6-41.53,159.99-49.5,58.4-7.98,119.02-4.25,149.8,14.76,30.78,19,25.25,39.04,25.25,39.04,0,0,.62,21.52,4.65,9.85,4.03-11.67,7.97-25.81,3.26-36.9-4.72-11.09-15.73-24.27-36.39-33.01-20.66-8.74-52.67-12.88-84.96-11.77-32.28,1.12-82.75,8.05-102.12,13.26s-44.07,11.6-71.3,22.19-65.01,29.75-81.82,41.17-44.52,31.22-57.47,49.26c-12.95,18.04-15.42,38.65-15.42,38.65h0Z"/>
    <path id="path3104" class="cls-2" d="M382.64,189.75c43.47-30.63,67.55-50.74,77.53-67.95,9.98-17.22,15.85-33.35,12.7-45.9-3.15-12.55-10.41-27.22-26.21-35.81-15.8-8.59-43.62-20.46-71.8-21.34-28.18-.88-76.96-1.03-97.99,3.4-21.03,4.42-38.96,6.26-69.92,14.62-30.96,8.36-89.26,32.01-89.26,32.01,0,0,72.51-38.68,137.45-52.69C320.07,2.07,363.59-4.59,421.85,3.49c58.26,8.08,70.9,28.65,77.2,38.61,6.31,9.96,12.26,28.58-.77,52.17-13.03,23.58-60.22,64.23-69.9,70.17-9.68,5.94-45.75,25.32-45.75,25.32h0Z"/>
    <path id="path3106" class="cls-2" d="M423.35,94.88c-19.99-39.94-90.43-50.47-166.27-30.97-75.84,19.51-183.56,66.88-173.08,135.89,10.48,69.01,199.65,25.85,244.59,4.92,74.75-34.81,116.14-72.82,94.76-109.84h0Z"/>
    <path id="path2047" class="cls-1" d="M359.07,98.86c-6.63,0-10.66.61-14.71,2.24l-.02-.04s-6.94,2.61-14.88,8.34c-.04.03-.1.01-.14.05-.3.23-.46.38-.74.6-1.02.76-2.04,1.56-3.07,2.42l.06.03c-2.33,1.93-4.5,3.86-7.89,7.17-14.95,14.61-22.58,29.9-21.66,43.38.79,11.4,7.71,19.33,19.98,22.88,2.09.6,5.84.88,9.31.69,21.86-1.23,51.03-23.21,58.98-44.46,6.91-18.47,2.26-34.04-12.29-41.15-3.99-1.95-5.17-2.15-12.93-2.14h0ZM246.66,99.34c-.94-.15-2.73.23-6.16,1.02-15.26,3.54-25.73,10-33.72,20.81-3.87,5.24-4.39,8.37-2.92,17.61,1.84,11.55.37,15.36-8.48,22.04-2.19,1.65-6.38,4.21-9.31,5.69l-5.34,2.69.51,4.79c.28,2.63.72,7.49.99,10.8.35,4.39.78,6.02,1.56,6.02,1.49,0,19.18-6.75,23.93-9.13,9.35-4.69,19.25-12.78,22.58-18.46,3.33-5.68,4.19-10.05,4.2-21.39v-10.56s4.08-3.81,4.08-3.81c2.24-2.1,5.76-4.68,7.83-5.74l3.75-1.93-.46-3.43c-.08-.57-.14-.63-.22-1.12l-1.9-12.79c.05-.3.12-.55.12-.9,0-1.08-.07-1.72-.56-2.03v-.03s-.04.01-.04.01c-.12-.07-.25-.14-.43-.17h0ZM444.59,99.88c-1.61-.07-13.44,1.06-19.03,1.82l-6.47.89-1.92,4.33c-1.06,2.38-3.86,9.04-6.22,14.81-3.8,9.29-8.98,21.51-12.5,29.5-.66,1.49-4.46,9.48-8.45,17.73-3.99,8.26-7.25,15.16-7.25,15.33s5.77.31,12.82.31h12.82l3.33-6.79c1.83-3.74,4.67-10.29,6.31-14.55,3.62-9.43,5.42-12.21,7.68-11.88,2.43.35,6.66,9.71,10.2,22.56l2.94,10.67h24.65l2.41-5.24c1.33-2.88,5.47-11.88,9.21-19.99s11.21-24.29,16.6-35.95c5.39-11.66,9.8-21.35,9.8-21.54s-6.26-.34-13.92-.34h-13.92l-2.29,6.01c-1.26,3.31-3.07,8.29-4.03,11.06-2.72,7.91-7.54,17.82-8.94,18.35-.7.27-1.72,0-2.27-.59-.55-.59-2.67-7.02-4.7-14.28-5.74-20.44-6.28-22.21-6.85-22.23h0ZM105.04,100.13c-2.43.09-5.73.27-9.31.52-7.15.5-20.06.91-28.67.9-8.62,0-16.48.3-17.47.69-1.34.52-2.45,2.44-4.38,7.57-1.42,3.78-2.87,7.57-3.22,8.42-.35.85-2.1,5.22-3.9,9.7s-3.89,9.55-4.65,11.26-3.04,6.94-5.07,11.64-5.97,13.26-8.76,19.02c-2.79,5.76-5.51,11.44-6.06,12.61l-.99,2.13h29.25l1.33-3.3c.73-1.81,2.38-6.27,3.67-9.9,2.81-7.94,6.2-14.82,8.04-16.35,1.06-.87,4.18-1.12,14.36-1.12,7.15,0,13.2-.19,13.44-.43s2.33-5,4.65-10.6l4.22-10.17-10.64-.27c-8.56-.21-11.05-.54-12.74-1.64-2.76-1.81-2.75-4.59.04-6.81,2.06-1.64,2.58-1.69,14.55-1.24,6.83.25,13.88.69,15.66.97l3.25.5,2.32-7.28c1.28-4,3.07-9.32,3.98-11.83.91-2.5,1.46-4.75,1.23-4.98-.12-.12-1.68-.12-4.12-.03h0ZM197.17,101.51l-14.09.21-14.1.21-11.3,26.99c-6.24,14.89-12.3,28.23-13.52,29.75-4.37,5.43-10.1,7.26-13.69,4.35-1.41-1.14-1.71-2.16-1.67-5.66.05-4.29.26-4.84,7.88-21.29,7.12-15.35,15.52-33.86,15.52-34.18,0-.2-6.29-.36-13.98-.36h-13.98l-1.86,4.07c-1.02,2.24-3.15,7.22-4.73,11.06s-3.71,8.83-4.73,11.09c-1.02,2.25-1.86,4.25-1.86,4.43s-3.72,8.99-8.27,19.58c-9.41,21.9-10.38,25.9-7.05,29.23,1.94,1.94,5.57,3.24,12.21,4.37,6.18,1.06,22.37.82,31.3-.46,10.82-1.56,15.79-3.98,22.23-10.87,5.76-6.15,8.85-11.43,13.59-23.2,2.07-5.12,6.36-14.73,9.54-21.34,3.18-6.62,7.31-15.62,9.17-20.01l3.38-7.97ZM274.28,101.55l-1.36,3.69c-2.12,5.74-10.92,26.53-14.37,33.96-1.71,3.68-3.11,6.81-3.11,6.96s-1.2,2.84-2.66,5.97-5.45,11.72-8.86,19.08l-6.21,13.39h29.16l1.97-4.46c1.08-2.45,5.37-12.5,9.54-22.32,4.17-9.82,11.39-26.06,16.05-36.1,4.65-10.03,8.65-18.68,8.88-19.21.26-.6-.18-.97-1.15-.97h-27.88ZM349.46,125.19c8.05.15,12.02,7.41,7.66,15.95-2.84,5.56-10.56,12.74-15.74,14.64-5.45,2-7.1,2.02-10.72.1-7.92-4.19-7.69-12.13.61-21.06,4.78-5.14,9.49-8.14,14.51-9.24,1.3-.29,2.54-.41,3.69-.39h0ZM263.98,309.34c-6.46-.03-9.8,1.22-11.92,4.44-1.61,2.46-1.65,7.7-.08,10.11,1.58,2.4,3.94,3.24,12.38,4.39,3.84.52,7.43,1.29,7.96,1.7,1.58,1.22,1.11,3.44-1.08,5.16-3.72,2.93-14.38,1.6-17.44-2.17-1.3-1.61-1.33-1.6-2.85,1.63l-1.54,3.26,4.75,1.72c12.63,4.55,25.32.47,25.32-8.15,0-5.45-3.99-8.15-13.97-9.46-9.56-1.25-11.3-2.64-7.76-6.18,1.24-1.24,2.59-1.55,6.65-1.55,5.22,0,7.28.65,10.08,3.19,1.58,1.43,1.61,1.41,3.32-2.09.95-1.95,1.42-3.36,1.05-3.13-.37.23-2.56-.32-4.87-1.22-2.9-1.13-6-1.64-10.02-1.65h0ZM54.26,309.58c-4.87,0-5.08.07-4.75,1.77.32,1.66-4.65,16.44-6.03,17.93-.67.73-1.4-.8-5.46-11.48-2.17-5.71-2.39-6.88-1.45-7.48.74-.47-.87-.71-4.7-.71s-5.44.24-4.7.71c.94.6.51,2.25-2.62,10.14-2.06,5.18-4.02,9.14-4.37,8.78-.78-.81-6.94-16.62-6.94-17.85,0-.5.43-1.08.97-1.3s-1.44-.42-4.39-.45c-5.04-.06-5.29.02-4.18,1.29.65.75,3.53,7.4,6.4,14.78,4.23,10.87,5.05,13.63,4.28,14.55-.81.98-.27,1.14,3.9,1.14s4.72-.15,3.89-1.16c-.78-.94-.21-3.02,3.12-11.3,2.24-5.58,4.32-9.87,4.63-9.52.86.98,7.77,18.74,7.77,19.98,0,.6-.44,1.27-.97,1.49s1.47.39,4.46.39,5-.17,4.46-.39c-.53-.22-.97-1.03-.97-1.81,0-2.37,10.08-27.49,11.44-28.53,1.06-.81.42-.97-3.81-.97h0ZM85.74,314.55c-.12.02-.27.13-.45.31-.64.64-4.43.93-12.03.93h-11.1v12.42c0,9.33-.24,12.46-.97,12.58-.53.09,4.97.37,12.23.61,7.26.24,13.28.52,13.39.61.11.09.19-1.14.19-2.74v-2.91l-9.7.24-9.7.24v-7.19l6.21.25,6.21.26v-4.66l-6.21.26-6.21.25v-6.42l9.31.24,9.32.24v-3.07c0-1.79-.12-2.5-.48-2.44h0ZM403.22,314.55c-.12.02-.27.13-.45.31-1.3,1.3-23.23,1.3-24.53,0-.72-.72-.92-.08-.87,2.91.03,2.11.23,3.4.45,2.87.25-.62,2.05-.97,5.03-.97h4.63l-.23,10.87-.24,10.87,4.27-.07c2.35-.03,3.83-.23,3.3-.45-.71-.29-.97-3.21-.97-10.87v-10.48l5.05.26,5.05.26v-3.07c0-1.79-.12-2.5-.48-2.44h0ZM299.78,314.94c-7.03-.35-13.86,3.51-15.64,9.84-1.74,6.23,1.04,11.99,7.4,15.33,3.63,1.91,11.72,1.66,15.5-.48,4.61-2.61,6.62-6.08,6.62-11.42s-2.1-8.99-6.96-11.45c-2.21-1.12-4.57-1.7-6.92-1.81h0ZM502.13,314.97c-7.16.06-12.23,3.96-11.13,9.82.7,3.71,3.1,4.98,11.39,6.02,7.94.99,10.01,2.37,7.42,4.95-1.94,1.93-11.88,1.87-14.88-.09-2.36-1.55-2.39-1.54-3.38,1.1-.67,1.78-.46,2.01,2.88,3.21,4.45,1.61,13.25,1.78,16.71.34,4.55-1.9,6.19-5.82,4.24-10.1-1.24-2.72-4.77-4.16-11.8-4.79-6.07-.55-8.58-1.75-7.81-3.73,1.38-3.58,11.72-3.56,15.9.03,1.06.91,1.37.79,2.27-.9,1.27-2.38.78-2.94-4.11-4.57-2.69-.9-5.31-1.3-7.7-1.28h0ZM435.84,315.09c-4.75-.06-9.59,1.49-12.47,4.67-2.15,2.37-3.51,7.49-2.89,10.86.84,4.56,3.31,7.55,8.04,9.75,3.27,1.52,11.31,1.24,14.72-.5,7.65-3.9,9.79-13.18,4.57-19.81-2.55-3.25-7.22-4.91-11.97-4.97h0ZM216.08,315.22c-8.59.69-13.42,5.49-13.42,13.34,0,5.45,2.68,9.6,7.64,11.8,3.34,1.48,11.7,1.23,16.86-.52l4.61-1.55v-10.75l-6.79-.25-6.79-.25v4.66l4.27-.27c4.1-.26,4.27-.19,4.27,1.65,0,2.94-1.82,3.88-7.59,3.92-5.98.05-8.76-1.3-10.29-4.97-2.12-5.11.79-10.83,6.34-12.49,3.21-.96,9.17.21,11.15,2.18.88.88,1.25.65,2.27-1.4.67-1.35,1.22-2.56,1.22-2.7s-1.98-.82-4.41-1.53c-2.98-.87-6-1.15-9.34-.89h0ZM92.82,315.79l.23,11.71c.16,8.13-.04,12.04-.68,12.81-.78.94.85,1.1,11.21,1.1h12.13v-4.66h-17.16l.23-10.48.24-10.48h-6.21ZM120.76,315.79l.23,11.71c.16,8.13-.04,12.04-.68,12.81h0c-.78.94.35,1.1,7.58,1.1,15.45,0,19.77-2.64,20.26-12.4.31-6.08-1.3-9.64-5.32-11.79-2.16-1.16-4.44-1.42-12.36-1.42h-9.71ZM154.53,315.79v12.36c0,9.16-.25,12.46-.97,12.75-.53.22,1.08.42,3.59.45,3.84.05,4.42-.11,3.65-1.03-.63-.76-.84-4.68-.68-12.81l.24-11.71h-5.82ZM168.5,315.79v12.36c0,9.16-.25,12.46-.97,12.75-.53.22,1.12.39,3.69.39s4.22-.17,3.69-.39c-1.06-.43-1.45-16.56-.4-16.56,1.23,0,14.96,14.41,14.96,15.7,0,1.12.68,1.37,3.69,1.37h3.69s-.23-12.81-.23-12.81l-.23-12.81h-5.36v8.35s-.02,8.34-.02,8.34l-8.26-8.34c-7.65-7.73-8.48-8.35-11.24-8.35h-2.99ZM319.94,315.79l-.23,12.79-.23,12.79,11.64.23c6.4.13,11.73.31,11.84.41.11.09.19-1.14.19-2.74v-2.91h-17.46v-20.57h-5.75ZM346.85,315.79l.33,9.9c.36,10.94,1.01,12.93,4.77,14.63,3.88,1.75,15.32,1.17,18.11-.91,2.86-2.13,3.2-3.66,3.29-14.48l.08-9.13h-5.43v9.2c0,8.31-.16,9.34-1.61,10.65-2.43,2.2-9.48,2.02-11.79-.29-1.6-1.6-1.74-2.45-1.74-10.65v-8.9h-6.01ZM408.36,315.79v12.36c0,9.16-.25,12.46-.97,12.75-.53.22,1.08.42,3.59.45,3.84.05,4.42-.11,3.65-1.03-.63-.76-.84-4.68-.68-12.81l.23-11.71h-5.82ZM456.56,315.79l-.23,12.81-.23,12.81,3.88-.07c2.13-.03,3.44-.23,2.91-.45-1.08-.44-1.44-16.56-.37-16.56,1.28,0,15.87,15.4,15.36,16.22-.37.59.87.84,3.98.8,2.48-.03,4.07-.23,3.54-.45-.72-.29-.97-3.59-.97-12.75v-12.36h-5.43v8.35s-.03,8.34-.03,8.34l-8.26-8.34c-7.62-7.69-8.49-8.35-11.21-8.35h-2.94ZM299.03,318.9c2.44,0,7.37,3.06,8.33,5.18,1.81,3.98.58,9.33-2.64,11.44-1.96,1.29-6.44,2.12-8.14,1.53-4.8-1.68-6.99-4.45-6.99-8.85,0-5.02,4.34-9.3,9.44-9.3h0ZM435.8,318.98c1.35.08,2.67.6,4.4,1.56,5.38,3.02,6.33,9.02,2.13,13.47-5.95,6.31-16.1,2.75-16.11-5.64,0-3.73,2.04-7.1,5.07-8.37,1.8-.75,3.17-1.1,4.52-1.02ZM126.58,319.67h4.99c6.28,0,8.59.87,10.11,3.81,2.2,4.25,1.31,9.05-2.19,11.89-1.22.99-3.13,1.35-7.29,1.36h-5.62s0-8.52,0-8.52v-8.54Z"/>
    <path id="path3778" class="cls-1" d="M331.58,4.86l-28,55.4c-1.24.17-2.44.52-3.58,1.05l-43.99-43.01,38.12,48.72c-.12.25-.24.5-.35.75l-60.69-1.62,59.95,8.74s.01.06.02.09l-52,38.79,55.75-32.11c.21.19.43.38.65.56l-18.74,52.32,26.61-49.6c1.49-.02,2.96-.3,4.35-.84l39.29,37.62-32.83-43.36c.13-.25.26-.51.38-.78l64.67,6.44-63.78-13.62c-.04-.21-.08-.43-.13-.64l49.5-36.12-53.85,29.21c-.07-.05-.13-.11-.2-.16l18.84-57.84Z"/>
  </g>
</svg>