<?xml version="1.0" encoding="UTF-8"?>
<svg id="Layer_1" data-name="Layer 1" xmlns="http://www.w3.org/2000/svg" viewBox="0 0 441.79 638">
  <defs>
    <style>
      .cls-1, .cls-2 {
        stroke-width: 0px;
      }

      .cls-3 {
        stroke-width: 0px;
      }

      .cls-3, .cls-4 {
        stroke: #010101;
        stroke-miterlimit: 10;
      }

      .cls-4 {
        stroke-width: 0px;
      }

      .cls-4, .cls-2 {
        fill: #b2892e;
      }
    </style>
  </defs>
  <path class="cls-2" d="M1.22,0h440.55v144.03h-119.39l-50.04,189.39h-99.72l-49.3-189.41H1.22V0ZM23.01,121.2h117.46l49.8,189.31h63.41l50.82-189.02h116.33V22.59H23.01v98.61Z"/>
  <path class="cls-2" d="M403.4,30.64c2.48.21,4.2,1.24,4.64,1.52.53.33,2.19,1.45,3.4,3.62.62,1.09,1.49,3.09,1.33,5.66-.06,1.05-.38,3.56-2.28,5.84-1.57,1.87-3.41,2.62-4.31,2.97-1.97.78-3.6.78-3.98.77-2.08-.02-3.58-.67-3.95-.85-2.44-1.12-3.69-2.98-4.21-3.76-.44-.68-1.54-2.42-1.72-4.95-.05-.62-.15-2.91,1.15-5.41,1.43-2.75,3.65-4.01,4.11-4.26,2.57-1.39,4.96-1.22,5.79-1.15ZM396.65,29.87c-.55.3-3.2,1.8-4.9,5.07-1.54,2.97-1.42,5.7-1.37,6.43.21,3.01,1.51,5.07,2.04,5.89.61.93,2.09,3.16,5,4.48.44.2,2.22.98,4.7,1.01.44,0,2.39,0,4.72-.91,1.06-.42,3.26-1.31,5.12-3.53,2.27-2.71,2.64-5.7,2.71-6.95.18-3.06-.86-5.44-1.59-6.74-1.46-2.57-3.43-3.9-4.05-4.3-.54-.34-2.56-1.56-5.52-1.81-.99-.09-3.83-.3-6.86,1.36Z"/>
  <path class="cls-4" d="M404.95,41.34c.17,0,1.74-.06,2.63-1.37.54-.79.52-1.61.5-1.92-.02-.32-.15-1.62-1.23-2.69-1.16-1.15-2.6-1.2-2.9-1.21h-6.96v13.23h3.86c.14-1.44.28-2.89.42-4.33.18-.04,1.67-.31,2.5.61.12.13.25.31.35.56.22,1.05.44,2.1.66,3.16h3.1v-2.9c.02-.28.04-1.1-.5-1.87-.83-1.19-2.26-1.26-2.43-1.26ZM404.54,39.05c-.07.18-.24.5-.56.78-.39.34-.9.45-1.1.49h-2.04v-3.76h1.61c.2,0,.52.05.86.18.3.12.52.27.66.39.14.13.46.48.57,1.02.08.39.03.71,0,.89Z"/>
  <path class="cls-2" d="M108.19,160.51h2.21l48.18,185.15.83,2.88h126l48.88-188.03h107.5v297.56H1.22V160.51h106.96ZM23.01,183.83v252.2h397.69v-251.96h-69.29l-47.9,187.36h-161.72l-48.8-187.6H23.01Z"/>
  <path class="cls-3" d="M86.2,496.66c2-7.44-1.72-20.73-5.26-23.11-2.87-2.49-6.98-3.99-11.94-4.82l-49.03.57c-4.28-.09-8.75,1.41-13.3,3.6-2.87,1.44-4.44,5.57-5.91,9.88-1.08,6.06-1.04,12.46.3,19.28,1.34,4.16,2.86,7.57,4.79,9.61,2.51,3.43,8.31,4.78,13.38,4.87l3.56.2,39.27,1.21c3.86.37,5.22,2.34,5.36,5.48-.2,2.86-1.59,4.57-3.52,5.09l-34.79.43s-4.92.11-6.52-2.95c-.47-1.03-.78-2.19-.8-3.47l-21.1-.13-.39,8.32c.12,3.92,1.25,7.46,3.2,10.69,2.4,3.13,5.29,5.34,8.87,6.28,2.53.75,5.35,1.08,8.38,1.13l41.03-.1c7.23-.32,13.31-1.29,17.16-3.52,3.96-2.41,6.81-5.28,8-8.82,2.88-9.48,2.44-20.42-1.06-27.48-3.23-4.35-8.83-6.1-15.41-6.76l-42.51-.95c-1.64.05-3.05-.61-4.27-1.85-1.48-1.32-1.87-3.16-1.54-5.36-.08-2.25,2.06-3.95,4.1-5.04,1.84-.97,33.42-.3,33.42-.3,0,0,2.6.66,3.81,1.97.95,1.24,1.27,2.33,1.25,2.83l.36,3.07,21.14.12Z"/>
  <polygon class="cls-1" points="97.25 472.4 130.65 472.4 154.22 520.16 177.96 472.42 212.17 472.42 212.17 548.12 190.51 548.12 190.51 495.12 162.45 548.12 146.2 548.12 118.92 495.72 118.92 548.12 97.25 548.12 97.25 472.4"/>
  <rect class="cls-1" x="223.03" y="472.4" width="23.68" height="75.72"/>
  <polygon class="cls-1" points="256.34 472.4 344.36 472.4 344.36 491.51 311.79 491.51 311.79 548.12 288.23 548.12 288.23 491.51 256.34 491.51 256.34 472.4"/>
  <polygon class="cls-1" points="353.54 472.4 375.69 472.4 375.69 499.25 419.34 499.25 419.34 472.4 441.5 472.4 441.5 548.12 419.37 548.12 419.37 519.66 375.68 519.66 375.68 548.12 353.54 548.12 353.54 472.4"/>
  <polygon class="cls-3" points=".53 560.01 98.4 560.01 98.4 579.45 62.19 579.45 62.19 637.11 36.01 637.11 36.01 579.46 .53 579.46 .53 560.01"/>
  <path class="cls-1" d="M118.84,563.72c3.29-1.6,7.21-2.69,11.39-3.58,23.48-1.09,46.67-1.12,69.53,0,5.17.62,9.74,2.11,13.64,4.64,2.72,1.85,4.62,4.4,6.07,7.33,4.64,19.43,4.52,38.26,0,52.95-1.21,4.97-5.07,7.83-10,9.84-4.03,1.85-9.2,2.92-15.6,3.1h-57.39c-4.46-.29-8.83-.39-12.78-1.8-2.06-.97-3.38-.71-7.38-4.03-10.91-5.85-14.03-63.5,2.53-68.45ZM135.99,584.46c-3.43,10.2-4.25,20.6,1.02,30.35,1.93,2.77,5.67,3.97,10.15,3.83,11.15.89,24.18.33,38-.53,4.36-.13,7.51-1.59,9.05-4.81,3.1-8.01,3.43-16.95.72-26.84-1.38-4-3.88-6.86-9.87-6.82-13.36-.9-27.33-.83-41.74,0-3.87.62-6.44,2.14-7.33,4.82Z"/>
  <path class="cls-1" d="M246.43,563.62c3.29-1.6,7.21-2.69,11.39-3.58,23.48-1.09,46.67-1.12,69.53,0,5.17.62,9.74,2.11,13.64,4.64,2.72,1.85,4.62,4.4,6.07,7.33,4.64,19.43,4.52,38.26,0,52.95-1.21,4.97-5.07,7.83-10,9.84-4.03,1.85-9.2,2.92-15.6,3.1h-57.39c-4.46-.29-8.83-.39-12.78-1.8-2.06-.97-3.38-.71-7.38-4.03-10.91-5.85-14.03-63.5,2.53-68.45ZM263.32,584.46c-3.43,10.2-4.25,20.6,1.02,30.35,1.93,2.77,5.67,3.97,10.15,3.83,11.15.89,24.18.33,38-.53,4.36-.13,7.51-1.59,9.05-4.81,3.1-8.01,3.43-16.95.72-26.84-1.38-4-3.88-6.86-9.87-6.82-13.36-.9-27.33-.83-41.74,0-3.87.62-6.44,2.14-7.33,4.82Z"/>
  <polyline class="cls-1" points="361.91 559.64 362.3 559.64 362.68 559.64 386.96 559.64 386.96 617.58 441.43 617.58 441.43 637.02 361.86 637.02 362.3 559.64"/>
</svg>