<?xml version="1.0" encoding="UTF-8"?>
<svg id="Layer_1" data-name="Layer 1" xmlns="http://www.w3.org/2000/svg" viewBox="0 0 2157.33 528.69">
  <defs>
    <style>
      .cls-1 {
        fill: #632e8f;
      }

      .cls-1, .cls-2 {
        stroke-width: 0px;
      }

      .cls-2 {
        fill: #9068ac;
      }
    </style>
  </defs>
  <g id="g18">
    <path id="path20" class="cls-1" d="M269.65,459.12c-.09,2.76-.41,7.24-1.6,10.51-.03.08-.05.16-.09.25-2.83,7.68-8.93,20.87-19.45,29.48-2.07,1.81-4.41,3.36-6.89,4.64-10.56,5.47-23.32,5.23-37.99-.65-14.32-5.71-23.19-13.91-26.48-24.45-2.25-7.35-1.79-15.2-.12-22.33,3.2-13.85,10.72-25.15,10.81-25.32,3.17-4.75,1.95-11.17-2.76-14.37-4.75-3.16-11.16-1.95-14.37,2.75-.47.68-6.12,9.15-10.48,21.29-2.2,5.99-4.05,12.88-4.83,20.2-.12,1.16-.99,2.13-2.13,2.35-20.77,3.89-35.77,2.56-44.59-3.93-11.09-8.2-12.35-24.96-13.45-39.73-.36-4.81-.71-9.36-1.39-13.45-1.41-8.59,2.96-21.55,13.99-29.75,13.57-10.01,33.07-9.6,54.89,1.2,28.83,14.27,55.52,11.59,71.43-7.19,15.2-18.03,15.72-45.68,1.12-65.77-7.72-10.61-17.95-16.89-29.55-18.21-22.88-2.47-42.88,14.49-45.09,16.39-4.31,3.77-4.73,10.35-.96,14.64,3.75,4.24,10.31,4.68,14.61.91,3.84-3.35,17.47-12.68,29.2-11.35,5.79.63,10.73,3.84,15.07,9.79,8.92,12.28,8.83,29.6-.2,40.28-9.48,11.21-26.39,11.93-46.43,2.03-39.36-19.47-64.71-7.96-76.37.65-10.15,7.51-17.39,18.15-20.69,29.44-.39,1.31-1.73,2.08-3.07,1.8-13.11-2.75-33.2-11.12-36.36-37.15-1.21-9.83.56-17.01,5.33-21.91,8.85-9.03,27.07-9.31,33.36-8.67,5.64.52,10.76-3.51,11.4-9.12.64-5.71-3.49-10.83-9.17-11.47-.65-.05-9.52-.95-20.36.8-.55.09-1.09-.01-1.59-.24-1.23-.55-2.61-.87-4.07-.87-10.29-.13-20.51-10.17-26.11-25.64-5.76-16-5.67-37.09,7.45-48.12,4.33-3.67,8.37-6.4,12.48-8.25.39-.11.87-.25,1.23-.47,16.15-6.53,33.44.68,73.17,18.88,4.85,2.23,10.01,4.63,15.49,7.05,19.43,8.83,36.07,9.03,49.44.63,24.68-15.47,26.31-53.6,26.43-57.91.12-5.69-4.37-10.4-10.05-10.57-5.53-.27-10.47,4.32-10.63,10.07-.21,8.64-3.73,32.77-16.77,40.92-7.11,4.48-17.17,3.79-29.89-1.92-5.41-2.51-10.53-4.85-15.4-7.08-33.63-15.39-56.88-26.07-78.76-22.33-1.24.21-2.47-.43-2.93-1.59-4.29-10.63-9.29-28.55-2.95-44.31,4.88-12.19,15.96-21.47,33.11-27.69.2.53.45,1.09.71,1.61,14.47,28.93,53.01,41.68,54.63,42.2,1.07.31,2.09.48,3.15.48,4.4,0,8.44-2.77,9.89-7.17,1.76-5.41-1.21-11.23-6.69-13-8.8-2.84-33.64-14.12-42.49-31.77-3.96-7.97-4.36-16.39-1.12-25.8,10.19-29.6,43.48-30.84,60.69-29.35-.05.21-.05.47-.11.67-1.47,11.01-.65,21,2.43,29.85,2.11,6.15,5.35,11.73,9.69,16.76,20.57,23.83,58.27,24.68,59.85,24.69h.17c5.61,0,10.28-4.53,10.35-10.23.08-5.67-4.48-10.39-10.2-10.47-.25,0-30.2-.88-44.55-17.52-4.73-5.52-7.31-12.16-7.71-20.27-.2-3.16-.04-6.51.44-10.08,3.63-26.93,29.97-43.64,53.29-44.15,5.95-.09,16.37.71,25.32,7.24,6.47,4.56,12.03,12.16,14.52,24.41.04.19.07.37.07.56l1.68,406v.2h0ZM290.27,450.29v-.07l-1.63-398.53c0-.07,0-.13-.01-.2l-.12-1.56c0-.11-.01-.21-.04-.32-2.12-11.35-6.48-21.01-12.63-28.76C264.81,7.18,247.96-.4,227.6.02c-24.97.56-52.93,14.39-66.17,39.6-.51.96-1.53,1.53-2.63,1.41-27.85-3.07-70.84,2.79-84.63,43.04-2.12,6.12-3.23,12.17-3.31,18.05-.03,1.11-.71,2.09-1.76,2.47-23.23,8.37-38.64,21.72-45.85,39.77-8.96,22.48-2.44,46.23,3.19,59.96.47,1.15.07,2.47-.95,3.16-2.37,1.61-4.75,3.41-7.19,5.48-20.71,17.48-21.71,48.24-13.55,71,5.15,14.24,13.35,25.32,23.16,31.96-.64.45-1.25,1.03-1.81,1.65-9.43,9.53-13.24,22.67-11.21,39,4.68,38.13,34.73,52.33,56.91,55.75,1.2.19,2.12,1.12,2.25,2.33.2,2.07.39,4.32.53,6.64,1.31,17.32,3.07,41.05,21.8,54.84,9.13,6.75,20.97,10.13,35.81,10.16,7.49.01,15.77-.84,24.88-2.53.09.37.2.79.31,1.15,5.13,16.81,18.15,29.51,38.55,37.67,10.12,4.05,19.73,6.09,28.83,6.12,9.36.01,18.21-2.09,26.33-6.32,7.77-4,14.13-9.53,19.27-15.57,7.71-8.97,12.75-19.01,15.77-26.53.03-.05.04-.09.05-.15.6-1.47,1.11-2.83,1.56-4.08,1.71-5.48,2.35-11.77,2.56-16.76l-.04-8.99h0Z"/>
  </g>
  <g id="g22">
    <path id="path24" class="cls-2" d="M310.88,270.52c0,1.52,1.29,2.72,2.81,2.64,6.52-.37,12.55-1.6,15.93-4.15,1.6-1.21,2.32-2.53,2.55-4.56,2.25-23.29,10.89-38.24,23.03-40.03,5.31-.77,15.29.36,22.04,16.88,2.87,6.91,5.69,18.88,9.03,32.73.63,2.55,1.28,5.4,2.04,8.4,13.05-96.71,22.01-106.28,33.05-108.69,3.03-.65,10.71-1.2,16.65,8.31,6.04,9.8,7.92,36.05,10.67,93.68.76,15.91,1.71,35.53,2.99,52.99.24,3.16,4.85,3.29,5.25.15,2.31-18.35,3.95-39.47,5.35-57.36,4.87-62.73,7.84-87.23,19.45-95.31,3.76-2.65,8.24-3.47,12.59-2.23,16.21,4.55,19.68,31.53,24.92,82.8,1.28,12.53,2.96,28.69,5,41.36.45,2.84,4.53,2.99,5.17.17,4.08-18.15,4.52-43.93,4.88-62.79.57-31.63.76-44.71,13.19-47.37,11.8-2.57,18.45,11.23,22.79,20.35,9.15,19.29,13.67,40.04,16.31,58.17.43,2.96,4.64,3.04,5.2.11,1.71-9.05,2.69-17.73,3.55-25.12,1.64-14.67,2.83-25.32,9.12-30.55.73-.61,1.04-1.61.84-2.55-9.91-44.96-31.85-86.51-64.37-121.01C485.67,29.12,408.81-.14,326.93,8.02c-5.99.59-14.07,4.71-15.8,11-.88,3.17-.25,6.95-.25,10.25v241.24Z"/>
  </g>
  <g id="g26">
    <path id="path28" class="cls-1" d="M607.43,451.73c-.72.11-1.48.09-2.17.04-18.96-1.51-37.92-3-56.89-4.49-3.68-.29-7.48-.57-11.01.52-4.36,1.33-7.81,4.57-11.19,7.64-52.61,47.64-125.41,72.2-196.13,66.19-6.6-.56-14.15-2-17.35-7.79-1.71-3.09-1.76-6.79-1.76-10.32-.03-9.44-.04-18.88-.07-28.32-.01-9.44-.04-18.88-.07-28.33-.01-9.44-.04-18.88-.05-28.32-.03-9.44-.04-18.89-.07-28.33-.01-9.44-.04-18.88-.05-28.32-.03-9.45-.04-18.89-.07-28.33s-.04-18.88-.07-28.33c0-2.28-.13-4.61,0-6.89.21-3.6,3.61-3.15,6.28-3.21,1.65-.04,3.29-.19,4.93-.45,6.56-1.05,12.8-3.87,18.11-7.85,5.32-3.99,9.77-9.2,12.71-15.17,1.04-2.15,1.89-4.37,2.52-6.67.16-.59,1.39-7.08,1.17-7.08,3.8.35,5.28,5.04,5.92,8.8,2.91,17.03,7.4,33.77,13.41,49.96,2.41,6.48,6.11,13.77,12.92,15,5.45.99,10.92-2.64,13.81-7.39,2.89-4.75,3.76-10.4,4.56-15.89,3.57-24.25,7.15-48.51,10.71-72.76.53-3.63,2.47-8.33,6.07-7.68,2.05,28.87,3.75,57.76,5.09,86.67.92,19.61,1.71,39.43,6.81,58.39,2.28,8.47,7.24,18.17,16.01,18.61,9.19.47,15.07-9.48,18.04-18.19,15.81-46.31,11.23-96.89,19.23-145.17.45-2.72,3.41-6.19,5.08-3.99,1.8,30.4,5.68,60.69,11.6,90.56,1.69,8.56,4.51,18.29,12.49,21.79,6.31,2.77,13.97.37,19.04-4.29s7.99-11.2,10.21-17.72c8.91-25.93,9.04-53.96,9.08-81.39,6.53,22.51,10.6,45.72,12.09,69.09.32,4.92.53,9.96,2.36,14.55,1.83,4.57,5.61,8.72,10.49,9.48,4.87.76,9.72-1.99,12.95-5.72,3.21-3.72,5.17-8.35,7.39-12.75,1.12-2.25,4.07-4.73,5.67-2.77.68.84.55,2.07.37,3.13-4.89,29.11-15.05,57.31-29.84,82.84-1.23,2.11-2.52,4.37-2.33,6.8.17,2.15,1.47,4,2.72,5.73,10.2,14.2,20.4,28.4,30.61,42.6.84,1.17,1.72,2.63,1.16,3.96-.41.99-1.4,1.43-2.51,1.59"/>
  </g>
  <g id="g30">
    <path id="path32" class="cls-1" d="M286.19,480.13c.6-1.47,1.11-2.83,1.56-4.08-.44,1.43-.95,2.81-1.56,4.08"/>
  </g>
  <g id="g34">
    <path id="path36" class="cls-1" d="M290.31,459.29l-.04-9c.04.51.24,4.16.04,9"/>
  </g>
  <g id="g38">
    <path id="path40" class="cls-1" d="M792.64,355l-.15.35c-1.67,3.95-3.99,6.96-7.11,9.16-3.21,2.28-7.4,3.44-12.44,3.44s-9.2-1.13-11.97-3.37c-2.68-2.19-4-5.03-4-8.68,0-3.27,1.13-5.87,3.49-7.99,2.37-2.12,6.56-3.19,12.48-3.19h19.69v10.28h0ZM792.73,318.46c-3.81-3.67-9.29-5.53-16.29-5.53-4.44,0-8.73.83-12.79,2.41-4.03,1.6-7.52,3.77-10.4,6.48l-1.35,1.28,4.08,4.09,1.29-1.2c2.28-2.16,5.11-3.96,8.41-5.32,3.23-1.36,6.89-2.04,10.87-2.04,5.31,0,9.37,1.32,12.05,3.95,2.67,2.61,4.03,6.65,4.03,12.03v4.4h-19.59c-5.35,0-9.51.76-12.68,2.32-3.24,1.59-5.64,3.71-7.07,6.32-1.41,2.56-2.15,5.36-2.15,8.36,0,3.48.89,6.6,2.63,9.28,1.76,2.69,4.35,4.79,7.63,6.24,3.2,1.41,7.07,2.12,11.53,2.12,6.27,0,11.53-1.52,15.67-4.51.39-.28.72-.53,1.07-.83l2.96-2.4v7.41h5.83v-38.83c0-6.95-1.93-12.36-5.73-16.04"/>
  </g>
  <g id="g42">
    <path id="path44" class="cls-1" d="M865.58,373.32v-35.12c0-6.45-1.63-11.39-4.83-14.67-3.24-3.31-7.72-4.91-13.67-4.91-4.61,0-8.61.93-11.89,2.76-3.28,1.85-5.72,4.36-7.47,7.68-1.75,3.32-2.63,7.28-2.63,11.76v32.49h-5.81v-60.07h5.81v9.12l3.04-2.79c.79-.72,1.63-1.4,2.51-2.03,4.37-3.08,9.87-4.64,16.33-4.64,4.93,0,9.27.97,12.85,2.89,3.67,1.95,6.55,4.85,8.56,8.65,1.99,3.75,3,8.37,3,13.73v35.12h-5.81Z"/>
  </g>
  <g id="g46">
    <path id="path48" class="cls-1" d="M935.14,356.13c-2.05,3.73-4.77,6.59-8.35,8.68-3.57,2.11-7.51,3.15-12.03,3.15s-8.41-1.04-11.95-3.15c-3.53-2.12-6.25-4.96-8.33-8.72-2.05-3.68-3.11-8.01-3.11-12.85s1.05-9.27,3.11-12.93c2.04-3.69,4.79-6.53,8.33-8.6,3.52-2.08,7.44-3.08,11.95-3.08s8.49,1.01,12.03,3.08c3.57,2.05,6.29,4.87,8.35,8.59,2.03,3.68,3.05,8.03,3.05,12.95s-1.03,9.16-3.05,12.89M938.2,288.68v35.59l-3.11-3.13c-1.61-1.64-3.47-3.07-5.49-4.28-4.36-2.6-9.32-3.92-14.83-3.92s-10.48,1.31-14.88,3.91c-4.41,2.59-7.95,6.2-10.48,10.71-2.55,4.52-3.85,9.8-3.85,15.69s1.29,11.07,3.85,15.67c2.55,4.61,6.09,8.25,10.48,10.85,4.4,2.57,9.43,3.89,14.88,3.89s10.47-1.32,14.83-3.92c2.01-1.2,3.85-2.64,5.49-4.32l3.09-3.17v11.09h5.81v-84.64h-5.8Z"/>
  </g>
  <g id="g50">
    <path id="path52" class="cls-1" d="M935.14,356.13c-2.05,3.73-4.77,6.59-8.35,8.68-3.57,2.11-7.51,3.15-12.03,3.15s-8.41-1.04-11.95-3.15c-3.53-2.12-6.25-4.96-8.33-8.72-2.05-3.68-3.11-8.01-3.11-12.85s1.05-9.27,3.11-12.93c2.04-3.69,4.79-6.53,8.33-8.6,3.52-2.08,7.44-3.08,11.95-3.08s8.49,1.01,12.03,3.08c3.57,2.05,6.29,4.87,8.35,8.59,2.03,3.68,3.05,8.03,3.05,12.95s-1.03,9.16-3.05,12.89M938.2,288.68v35.59l-3.11-3.13c-1.61-1.64-3.47-3.07-5.49-4.28-4.36-2.6-9.32-3.92-14.83-3.92s-10.48,1.31-14.88,3.91c-4.41,2.59-7.95,6.2-10.48,10.71-2.55,4.52-3.85,9.8-3.85,15.69s1.29,11.07,3.85,15.67c2.55,4.61,6.09,8.25,10.48,10.85,4.4,2.57,9.43,3.89,14.88,3.89s10.47-1.32,14.83-3.92c2.01-1.2,3.85-2.64,5.49-4.32l3.09-3.17v11.09h5.81v-84.64h-5.8Z"/>
  </g>
  <g id="g54">
    <path id="path56" class="cls-1" d="M1125.96,274.07l-34.03,99.25h-5.31l-30.81-88.16-30.83,88.16h-5.32l-34.03-99.25h6.84l29.96,87.55,30.71-87.55h5.31l30.8,87.75,30.01-87.75h6.69Z"/>
  </g>
  <g id="g58">
    <path id="path60" class="cls-1" d="M1125.96,274.07l-34.03,99.25h-5.31l-30.81-88.16-30.83,88.16h-5.32l-34.03-99.25h6.84l29.96,87.55,30.71-87.55h5.31l30.8,87.75,30.01-87.75h6.69Z"/>
  </g>
  <g id="g62">
    <path id="path64" class="cls-1" d="M1133.97,331.72l.33-2.11c.56-3.53,1.64-6.85,3.23-9.87,2.48-4.68,5.79-8.25,10.05-10.89,4.32-2.67,9.05-3.97,14.49-3.97s10.37,1.32,14.55,3.96c4.21,2.63,7.6,6.28,10.08,10.91,1.61,3,2.72,6.32,3.31,9.87l.35,2.11h-56.39,0ZM1196.68,335.44c0-1.27-.03-2.4-.11-3.41l-.17-1.91c-.6-5.04-2.01-9.64-4.23-13.71-3.01-5.55-7.19-9.93-12.43-13.05s-11.17-4.71-17.67-4.71-12.44,1.64-17.67,4.85c-5.25,3.23-9.4,7.68-12.35,13.27-2.93,5.53-4.44,12.04-4.44,19.35s1.61,13.76,4.8,19.41c3.2,5.68,7.64,10.17,13.17,13.36,5.55,3.21,11.95,4.85,19.08,4.85,5.33,0,10.47-1.05,15.21-3.11,4.79-2.05,8.88-5.15,12.15-9.2l1.04-1.27-4.52-4.52-1.27,1.61c-2.63,3.44-5.88,5.93-9.87,7.65-4.01,1.73-8.31,2.6-12.75,2.6-5.92,0-11.27-1.35-15.91-3.99-4.59-2.65-8.27-6.39-10.92-11.08-2.07-3.67-3.37-7.88-3.83-12.52l-.2-1.99h62.85v-2.51h0Z"/>
  </g>
  <g id="g66">
    <path id="path68" class="cls-1" d="M1133.97,331.72l.33-2.11c.56-3.53,1.64-6.85,3.23-9.87,2.48-4.68,5.79-8.25,10.05-10.89,4.32-2.67,9.05-3.97,14.49-3.97s10.37,1.32,14.55,3.96c4.21,2.63,7.6,6.28,10.08,10.91,1.61,3,2.72,6.32,3.31,9.87l.35,2.11h-56.39,0ZM1196.68,335.44c0-1.27-.03-2.4-.11-3.41l-.17-1.91c-.6-5.04-2.01-9.64-4.23-13.71-3.01-5.55-7.19-9.93-12.43-13.05s-11.17-4.71-17.67-4.71-12.44,1.64-17.67,4.85c-5.25,3.23-9.4,7.68-12.35,13.27-2.93,5.53-4.44,12.04-4.44,19.35s1.61,13.76,4.8,19.41c3.2,5.68,7.64,10.17,13.17,13.36,5.55,3.21,11.95,4.85,19.08,4.85,5.33,0,10.47-1.05,15.21-3.11,4.79-2.05,8.88-5.15,12.15-9.2l1.04-1.27-4.52-4.52-1.27,1.61c-2.63,3.44-5.88,5.93-9.87,7.65-4.01,1.73-8.31,2.6-12.75,2.6-5.92,0-11.27-1.35-15.91-3.99-4.59-2.65-8.27-6.39-10.92-11.08-2.07-3.67-3.37-7.88-3.83-12.52l-.2-1.99h62.85v-2.51h0Z"/>
  </g>
  <path id="path70" class="cls-1" d="M1222.52,373.33h-6.37v-105.01h6.37v105.01Z"/>
  <path id="path72" class="cls-1" d="M1222.52,373.33h-6.37v-105.01h6.37v105.01Z"/>
  <path id="path74" class="cls-1" d="M1256.67,373.33h-6.35v-105.01h6.35v105.01Z"/>
  <path id="path76" class="cls-1" d="M1256.67,373.33h-6.35v-105.01h6.35v105.01Z"/>
  <g id="g78">
    <path id="path80" class="cls-1" d="M1348.74,329.83v43.49h-6.35v-43.49c0-8.2-2.09-14.49-6.19-18.67-4.15-4.24-9.85-6.29-17.41-6.29-5.85,0-10.93,1.19-15.11,3.52-4.19,2.36-7.31,5.55-9.52,9.8-2.23,4.2-3.35,9.23-3.35,14.92v40.21h-6.35v-74.27h6.35v12.51l3.13-3.28c1.36-1.43,2.88-2.73,4.53-3.89,5.39-3.81,12.17-5.73,20.17-5.73,6.09,0,11.44,1.2,15.88,3.55,4.49,2.4,8.04,5.99,10.52,10.67,2.44,4.61,3.68,10.32,3.68,16.96"/>
  </g>
  <g id="g82">
    <path id="path84" class="cls-1" d="M1348.74,329.83v43.49h-6.35v-43.49c0-8.2-2.09-14.49-6.19-18.67-4.15-4.24-9.85-6.29-17.41-6.29-5.85,0-10.93,1.19-15.11,3.52-4.19,2.36-7.31,5.55-9.52,9.8-2.23,4.2-3.35,9.23-3.35,14.92v40.21h-6.35v-74.27h6.35v12.51l3.13-3.28c1.36-1.43,2.88-2.73,4.53-3.89,5.39-3.81,12.17-5.73,20.17-5.73,6.09,0,11.44,1.2,15.88,3.55,4.49,2.4,8.04,5.99,10.52,10.67,2.44,4.61,3.68,10.32,3.68,16.96"/>
  </g>
  <g id="g86">
    <path id="path88" class="cls-1" d="M1373.74,331.72l.33-2.11c.56-3.55,1.64-6.87,3.24-9.87,2.47-4.68,5.77-8.25,10.07-10.89,4.32-2.67,9.05-3.97,14.47-3.97s10.37,1.32,14.55,3.96c4.19,2.6,7.6,6.28,10.11,10.93,1.61,3,2.69,6.31,3.28,9.84l.35,2.11h-56.39ZM1436.45,335.44c0-1.27-.03-2.4-.11-3.41l-.17-1.92c-.59-4.97-2-9.6-4.23-13.69-3.01-5.55-7.19-9.93-12.41-13.05-5.24-3.12-11.19-4.71-17.68-4.71s-12.44,1.64-17.67,4.85c-5.21,3.2-9.37,7.67-12.33,13.27-2.95,5.53-4.45,12.04-4.45,19.36s1.61,13.71,4.8,19.4c3.21,5.68,7.64,10.17,13.19,13.36,5.53,3.21,11.96,4.85,19.08,4.85,5.33,0,10.45-1.05,15.2-3.11,4.83-2.07,8.91-5.17,12.17-9.2l1.03-1.27-4.53-4.52-1.27,1.61c-2.63,3.44-5.88,5.93-9.87,7.65-4.01,1.73-8.29,2.6-12.73,2.6-5.91,0-11.25-1.35-15.91-3.99-4.6-2.65-8.28-6.37-10.93-11.08-2.08-3.68-3.37-7.89-3.81-12.53l-.19-1.97h62.84v-2.51s-.01,0-.01,0Z"/>
  </g>
  <g id="g90">
    <path id="path92" class="cls-1" d="M1373.74,331.72l.33-2.11c.56-3.55,1.64-6.87,3.24-9.87,2.47-4.68,5.77-8.25,10.07-10.89,4.32-2.67,9.05-3.97,14.47-3.97s10.37,1.32,14.55,3.96c4.19,2.6,7.6,6.28,10.11,10.93,1.61,3,2.69,6.31,3.28,9.84l.35,2.11h-56.39ZM1436.45,335.44c0-1.27-.03-2.4-.11-3.41l-.17-1.92c-.59-4.97-2-9.6-4.23-13.69-3.01-5.55-7.19-9.93-12.41-13.05-5.24-3.12-11.19-4.71-17.68-4.71s-12.44,1.64-17.67,4.85c-5.21,3.2-9.37,7.67-12.33,13.27-2.95,5.53-4.45,12.04-4.45,19.36s1.61,13.71,4.8,19.4c3.21,5.68,7.64,10.17,13.19,13.36,5.53,3.21,11.96,4.85,19.08,4.85,5.33,0,10.45-1.05,15.2-3.11,4.83-2.07,8.91-5.17,12.17-9.2l1.03-1.27-4.53-4.52-1.27,1.61c-2.63,3.44-5.88,5.93-9.87,7.65-4.01,1.73-8.29,2.6-12.73,2.6-5.91,0-11.25-1.35-15.91-3.99-4.6-2.65-8.28-6.37-10.93-11.08-2.08-3.68-3.37-7.89-3.81-12.53l-.19-1.97h62.84v-2.51s-.01,0-.01,0Z"/>
  </g>
  <g id="g94">
    <path id="path96" class="cls-1" d="M1502.03,353.61c0,3.92-1.07,7.45-3.17,10.52-2.12,3.07-5.32,5.48-9.51,7.15-4.05,1.63-9.23,2.45-15.36,2.45s-11.55-.95-16.73-2.84c-5.27-1.92-9.36-4.4-12.19-7.43l-1.04-1.11,3.79-5.07,1.48,1.44c2.37,2.28,5.76,4.35,10.08,6.11,4.32,1.77,9.23,2.67,14.61,2.67,7.93,0,13.6-1.32,16.91-3.97,3.21-2.57,4.79-5.83,4.79-9.92,0-2.93-.71-5.15-2.15-6.8-1.52-1.71-3.59-3.05-6.16-3.99-2.77-1.01-5.85-1.84-9.21-2.45-3.47-.63-6.99-1.35-10.43-2.07-3.57-.75-6.89-1.83-9.87-3.19-3.13-1.45-5.69-3.48-7.6-6.04-1.96-2.64-2.96-6.13-2.96-10.43,0-3.55.96-6.87,2.89-9.87,1.89-3.01,4.89-5.48,8.88-7.37,3.92-1.83,8.97-2.75,15.05-2.75,4.52,0,9.07.68,13.51,2.04,4.48,1.4,8.2,3.29,11,5.61l1.33,1.11-3.8,5.05-1.45-1.17c-2.63-2.11-5.79-3.72-9.36-4.79-3.64-1.09-7.41-1.64-11.23-1.64-7.27,0-12.55,1.36-15.71,4.07-3.07,2.63-4.63,5.89-4.63,9.71,0,3.04.71,5.36,2.17,7.08,1.55,1.84,3.56,3.2,6.16,4.2,2.77,1.05,5.85,1.88,9.17,2.49,3.49.65,6.97,1.35,10.37,2.07,3.52.75,6.81,1.8,9.79,3.12,3.12,1.39,5.68,3.35,7.59,5.81,1.97,2.53,2.97,5.97,2.97,10.19"/>
  </g>
  <g id="g98">
    <path id="path100" class="cls-1" d="M1502.03,353.61c0,3.92-1.07,7.45-3.17,10.52-2.12,3.07-5.32,5.48-9.51,7.15-4.05,1.63-9.23,2.45-15.36,2.45s-11.55-.95-16.73-2.84c-5.27-1.92-9.36-4.4-12.19-7.43l-1.04-1.11,3.79-5.07,1.48,1.44c2.37,2.28,5.76,4.35,10.08,6.11,4.32,1.77,9.23,2.67,14.61,2.67,7.93,0,13.6-1.32,16.91-3.97,3.21-2.57,4.79-5.83,4.79-9.92,0-2.93-.71-5.15-2.15-6.8-1.52-1.71-3.59-3.05-6.16-3.99-2.77-1.01-5.85-1.84-9.21-2.45-3.47-.63-6.99-1.35-10.43-2.07-3.57-.75-6.89-1.83-9.87-3.19-3.13-1.45-5.69-3.48-7.6-6.04-1.96-2.64-2.96-6.13-2.96-10.43,0-3.55.96-6.87,2.89-9.87,1.89-3.01,4.89-5.48,8.88-7.37,3.92-1.83,8.97-2.75,15.05-2.75,4.52,0,9.07.68,13.51,2.04,4.48,1.4,8.2,3.29,11,5.61l1.33,1.11-3.8,5.05-1.45-1.17c-2.63-2.11-5.79-3.72-9.36-4.79-3.64-1.09-7.41-1.64-11.23-1.64-7.27,0-12.55,1.36-15.71,4.07-3.07,2.63-4.63,5.89-4.63,9.71,0,3.04.71,5.36,2.17,7.08,1.55,1.84,3.56,3.2,6.16,4.2,2.77,1.05,5.85,1.88,9.17,2.49,3.49.65,6.97,1.35,10.37,2.07,3.52.75,6.81,1.8,9.79,3.12,3.12,1.39,5.68,3.35,7.59,5.81,1.97,2.53,2.97,5.97,2.97,10.19"/>
  </g>
  <g id="g102">
    <path id="path104" class="cls-1" d="M1565.28,353.61c0,3.92-1.07,7.45-3.19,10.52-2.11,3.07-5.31,5.48-9.49,7.15-4.05,1.63-9.23,2.45-15.36,2.45s-11.57-.95-16.73-2.84c-5.27-1.92-9.36-4.4-12.19-7.43l-1.04-1.11,3.77-5.07,1.49,1.44c2.37,2.28,5.76,4.35,10.08,6.11,4.32,1.77,9.23,2.67,14.61,2.67,7.91,0,13.6-1.32,16.91-3.97,3.21-2.57,4.77-5.83,4.77-9.92,0-2.93-.69-5.15-2.15-6.8-1.51-1.71-3.59-3.05-6.15-3.99-2.77-1.01-5.88-1.84-9.21-2.45-3.47-.63-6.99-1.35-10.43-2.07-3.57-.75-6.89-1.83-9.88-3.19-3.12-1.45-5.68-3.48-7.59-6.04-1.96-2.64-2.96-6.13-2.96-10.43,0-3.55.96-6.87,2.89-9.87,1.89-3.01,4.89-5.48,8.88-7.37,3.92-1.83,8.97-2.75,15.04-2.75,4.53,0,9.08.68,13.51,2.04,4.49,1.4,8.2,3.29,11.01,5.61l1.33,1.11-3.8,5.05-1.48-1.17c-2.63-2.11-5.76-3.72-9.35-4.79-3.63-1.09-7.43-1.64-11.23-1.64-7.25,0-12.53,1.36-15.69,4.07-3.07,2.63-4.63,5.89-4.63,9.71,0,3.04.71,5.36,2.16,7.08,1.56,1.84,3.57,3.2,6.17,4.2,2.75,1.05,5.84,1.88,9.17,2.49,3.49.65,6.99,1.35,10.37,2.07,3.52.75,6.81,1.8,9.77,3.12,3.13,1.39,5.69,3.35,7.6,5.81,1.97,2.53,2.97,5.97,2.97,10.19"/>
  </g>
  <g id="g106">
    <path id="path108" class="cls-1" d="M1565.28,353.61c0,3.92-1.07,7.45-3.19,10.52-2.11,3.07-5.31,5.48-9.49,7.15-4.05,1.63-9.23,2.45-15.36,2.45s-11.57-.95-16.73-2.84c-5.27-1.92-9.36-4.4-12.19-7.43l-1.04-1.11,3.77-5.07,1.49,1.44c2.37,2.28,5.76,4.35,10.08,6.11,4.32,1.77,9.23,2.67,14.61,2.67,7.91,0,13.6-1.32,16.91-3.97,3.21-2.57,4.77-5.83,4.77-9.92,0-2.93-.69-5.15-2.15-6.8-1.51-1.71-3.59-3.05-6.15-3.99-2.77-1.01-5.88-1.84-9.21-2.45-3.47-.63-6.99-1.35-10.43-2.07-3.57-.75-6.89-1.83-9.88-3.19-3.12-1.45-5.68-3.48-7.59-6.04-1.96-2.64-2.96-6.13-2.96-10.43,0-3.55.96-6.87,2.89-9.87,1.89-3.01,4.89-5.48,8.88-7.37,3.92-1.83,8.97-2.75,15.04-2.75,4.53,0,9.08.68,13.51,2.04,4.49,1.4,8.2,3.29,11.01,5.61l1.33,1.11-3.8,5.05-1.48-1.17c-2.63-2.11-5.76-3.72-9.35-4.79-3.63-1.09-7.43-1.64-11.23-1.64-7.25,0-12.53,1.36-15.69,4.07-3.07,2.63-4.63,5.89-4.63,9.71,0,3.04.71,5.36,2.16,7.08,1.56,1.84,3.57,3.2,6.17,4.2,2.75,1.05,5.84,1.88,9.17,2.49,3.49.65,6.99,1.35,10.37,2.07,3.52.75,6.81,1.8,9.77,3.12,3.13,1.39,5.69,3.35,7.6,5.81,1.97,2.53,2.97,5.97,2.97,10.19"/>
  </g>
  <path id="path110" class="cls-1" d="M1625.4,373.33h-6.36v-99.27h6.36v99.27Z"/>
  <path id="path112" class="cls-1" d="M1625.4,373.33h-6.36v-99.27h6.36v99.27Z"/>
  <g id="g114">
    <path id="path116" class="cls-1" d="M1719.93,329.83v43.49h-6.35v-43.49c0-8.2-2.09-14.49-6.19-18.67-4.13-4.24-9.85-6.29-17.41-6.29-5.85,0-10.93,1.19-15.11,3.52-4.19,2.36-7.31,5.55-9.52,9.8-2.21,4.2-3.33,9.23-3.33,14.92v40.21h-6.36v-74.27h6.36v12.51l3.12-3.28c1.36-1.43,2.88-2.73,4.53-3.89,5.39-3.81,12.17-5.73,20.17-5.73,6.09,0,11.44,1.2,15.88,3.55,4.49,2.4,8.04,5.99,10.52,10.67,2.44,4.61,3.68,10.32,3.68,16.96"/>
  </g>
  <g id="g118">
    <path id="path120" class="cls-1" d="M1719.93,329.83v43.49h-6.35v-43.49c0-8.2-2.09-14.49-6.19-18.67-4.13-4.24-9.85-6.29-17.41-6.29-5.85,0-10.93,1.19-15.11,3.52-4.19,2.36-7.31,5.55-9.52,9.8-2.21,4.2-3.33,9.23-3.33,14.92v40.21h-6.36v-74.27h6.36v12.51l3.12-3.28c1.36-1.43,2.88-2.73,4.53-3.89,5.39-3.81,12.17-5.73,20.17-5.73,6.09,0,11.44,1.2,15.88,3.55,4.49,2.4,8.04,5.99,10.52,10.67,2.44,4.61,3.68,10.32,3.68,16.96"/>
  </g>
  <g id="g122">
    <path id="path124" class="cls-1" d="M1793.03,353.61c0,3.92-1.09,7.45-3.19,10.52-2.13,3.07-5.32,5.48-9.51,7.15-4.07,1.63-9.24,2.45-15.36,2.45s-11.56-.95-16.75-2.84c-5.25-1.92-9.36-4.4-12.16-7.43l-1.05-1.11,3.79-5.07,1.47,1.44c2.37,2.28,5.77,4.35,10.09,6.11,4.31,1.77,9.23,2.67,14.61,2.67,7.92,0,13.6-1.32,16.91-3.97,3.23-2.57,4.79-5.83,4.79-9.92,0-2.93-.71-5.15-2.15-6.8-1.52-1.71-3.59-3.05-6.16-3.99-2.76-1.01-5.87-1.84-9.2-2.45-3.48-.63-6.99-1.35-10.43-2.07-3.59-.75-6.91-1.83-9.88-3.19-3.15-1.45-5.71-3.48-7.6-6.04-1.96-2.64-2.96-6.13-2.96-10.43,0-3.55.97-6.87,2.88-9.87,1.91-3.01,4.91-5.48,8.89-7.37,3.91-1.83,8.97-2.75,15.05-2.75,4.51,0,9.07.68,13.51,2.04,4.49,1.4,8.2,3.29,11.01,5.61l1.32,1.11-3.81,5.05-1.45-1.17c-2.63-2.11-5.77-3.72-9.35-4.79-3.65-1.09-7.43-1.64-11.23-1.64-7.28,0-12.56,1.36-15.69,4.07-3.08,2.63-4.64,5.89-4.64,9.71,0,3.04.72,5.36,2.17,7.08,1.55,1.84,3.56,3.2,6.17,4.2,2.75,1.05,5.84,1.88,9.17,2.49,3.48.65,6.96,1.35,10.35,2.07,3.55.75,6.83,1.8,9.8,3.12,3.12,1.39,5.68,3.35,7.59,5.81,1.97,2.53,2.99,5.97,2.99,10.19"/>
  </g>
  <g id="g126">
    <path id="path128" class="cls-1" d="M1793.03,353.61c0,3.92-1.09,7.45-3.19,10.52-2.13,3.07-5.32,5.48-9.51,7.15-4.07,1.63-9.24,2.45-15.36,2.45s-11.56-.95-16.75-2.84c-5.25-1.92-9.36-4.4-12.16-7.43l-1.05-1.11,3.79-5.07,1.47,1.44c2.37,2.28,5.77,4.35,10.09,6.11,4.31,1.77,9.23,2.67,14.61,2.67,7.92,0,13.6-1.32,16.91-3.97,3.23-2.57,4.79-5.83,4.79-9.92,0-2.93-.71-5.15-2.15-6.8-1.52-1.71-3.59-3.05-6.16-3.99-2.76-1.01-5.87-1.84-9.2-2.45-3.48-.63-6.99-1.35-10.43-2.07-3.59-.75-6.91-1.83-9.88-3.19-3.15-1.45-5.71-3.48-7.6-6.04-1.96-2.64-2.96-6.13-2.96-10.43,0-3.55.97-6.87,2.88-9.87,1.91-3.01,4.91-5.48,8.89-7.37,3.91-1.83,8.97-2.75,15.05-2.75,4.51,0,9.07.68,13.51,2.04,4.49,1.4,8.2,3.29,11.01,5.61l1.32,1.11-3.81,5.05-1.45-1.17c-2.63-2.11-5.77-3.72-9.35-4.79-3.65-1.09-7.43-1.64-11.23-1.64-7.28,0-12.56,1.36-15.69,4.07-3.08,2.63-4.64,5.89-4.64,9.71,0,3.04.72,5.36,2.17,7.08,1.55,1.84,3.56,3.2,6.17,4.2,2.75,1.05,5.84,1.88,9.17,2.49,3.48.65,6.96,1.35,10.35,2.07,3.55.75,6.83,1.8,9.8,3.12,3.12,1.39,5.68,3.35,7.59,5.81,1.97,2.53,2.99,5.97,2.99,10.19"/>
  </g>
  <g id="g130">
    <path id="path132" class="cls-1" d="M1830.15,373.73c-6.07,0-10.79-1.8-14.04-5.37-3.21-3.51-4.85-8.16-4.85-13.79v-49.28h-13.65v-6.23h13.65v-15.44h6.36v15.44h23.91v6.23h-23.91v48.6c0,4.51,1.08,7.95,3.2,10.24,2.12,2.27,5.23,3.37,9.47,3.37s7.73-1.27,10.51-3.88l1.28-1.2,4.41,4.4-1.21,1.28c-1.84,1.95-4.19,3.4-6.97,4.31-2.68.88-5.41,1.32-8.15,1.32"/>
  </g>
  <g id="g134">
    <path id="path136" class="cls-1" d="M1870.15,273.97c-1.01-1.01-2.28-1.55-3.81-1.55-1.36,0-2.63.53-3.68,1.51-1.11,1.04-1.67,2.32-1.67,3.85,0,1.39.56,2.68,1.61,3.73,1.07,1.07,2.36,1.63,3.73,1.63,1.53,0,2.84-.56,3.87-1.65.99-1.07,1.51-2.33,1.51-3.71,0-1.48-.52-2.79-1.56-3.81M1863.16,373.32h6.37v-74.25h-6.37v74.25Z"/>
  </g>
  <g id="g138">
    <path id="path140" class="cls-1" d="M1870.15,273.97c-1.01-1.01-2.28-1.55-3.81-1.55-1.36,0-2.63.53-3.68,1.51-1.11,1.04-1.67,2.32-1.67,3.85,0,1.39.56,2.68,1.61,3.73,1.07,1.07,2.36,1.63,3.73,1.63,1.53,0,2.84-.56,3.87-1.65.99-1.07,1.51-2.33,1.51-3.71,0-1.48-.52-2.79-1.56-3.81M1863.16,373.32h6.37v-74.25h-6.37v74.25Z"/>
  </g>
  <g id="g142">
    <path id="path144" class="cls-1" d="M1917.31,373.73c-6.07,0-10.79-1.8-14.04-5.37-3.21-3.51-4.85-8.16-4.85-13.79v-49.28h-13.65v-6.23h13.65v-15.44h6.36v15.44h23.91v6.23h-23.91v48.6c0,4.51,1.08,7.95,3.2,10.24,2.12,2.27,5.23,3.37,9.47,3.37s7.73-1.27,10.51-3.88l1.28-1.2,4.41,4.4-1.21,1.28c-1.84,1.95-4.19,3.4-6.97,4.31-2.68.88-5.41,1.32-8.15,1.32"/>
  </g>
  <g id="g146">
    <path id="path148" class="cls-1" d="M1980.28,373.73c-6.28,0-11.77-1.2-16.33-3.55-4.64-2.4-8.27-5.99-10.75-10.67-2.45-4.61-3.69-10.33-3.69-16.97v-43.48h6.36v43.48c0,8.2,2.12,14.48,6.29,18.67,4.24,4.24,10.12,6.29,17.99,6.29,5.56,0,10.4-1.17,14.39-3.51,4-2.35,6.99-5.56,9.12-9.83,2.15-4.29,3.23-9.29,3.23-14.91v-40.2h6.36v74.25h-6.36v-12.23l-3.12,3.29c-1.24,1.31-2.63,2.52-4.11,3.6-5.2,3.81-11.72,5.75-19.37,5.75"/>
  </g>
  <g id="g150">
    <path id="path152" class="cls-1" d="M2077.35,366.83l-1.21,1.27c-1.84,1.95-4.17,3.4-6.96,4.32-2.67.87-5.43,1.31-8.15,1.31-6.07,0-10.8-1.8-14.04-5.37-3.23-3.52-4.85-8.13-4.85-13.77v-49.29h-13.67v-6.23h13.67v-15.44h6.36v15.44h23.91v6.23h-23.91v48.6c0,4.52,1.07,7.96,3.21,10.24,2.12,2.27,5.2,3.37,9.44,3.37s7.75-1.27,10.52-3.88l1.27-1.19,4.41,4.4Z"/>
  </g>
  <g id="g154">
    <path id="path156" class="cls-1" d="M2077.35,366.83l-1.21,1.27c-1.84,1.95-4.17,3.4-6.96,4.32-2.67.87-5.43,1.31-8.15,1.31-6.07,0-10.8-1.8-14.04-5.37-3.23-3.52-4.85-8.13-4.85-13.77v-49.29h-13.67v-6.23h13.67v-15.44h6.36v15.44h23.91v6.23h-23.91v48.6c0,4.52,1.07,7.96,3.21,10.24,2.12,2.27,5.2,3.37,9.44,3.37s7.75-1.27,10.52-3.88l1.27-1.19,4.41,4.4Z"/>
  </g>
  <g id="g158">
    <path id="path160" class="cls-1" d="M2117.44,306.69c5.12,0,9.68,1.24,13.59,3.68,3.93,2.47,7.12,5.93,9.44,10.25,1.53,2.83,2.56,5.92,3.09,9.28h-52.11c.52-3.36,1.53-6.48,3.03-9.31,2.32-4.37,5.4-7.72,9.43-10.21,4.01-2.48,8.44-3.69,13.53-3.69M2152.04,335.44c0-.87-.01-1.72-.07-2.52l-.33-3.61c-.65-4.73-2.03-9.07-4.13-12.91-2.99-5.53-7.16-9.92-12.4-13.04s-11.17-4.71-17.67-4.71-12.44,1.64-17.68,4.85c-5.24,3.23-9.4,7.68-12.33,13.27-2.96,5.56-4.44,12.07-4.44,19.36s1.61,13.75,4.8,19.4c3.21,5.68,7.64,10.17,13.17,13.36,5.55,3.21,11.95,4.85,19.07,4.85,5.33,0,10.47-1.05,15.23-3.11,4.8-2.07,8.88-5.17,12.15-9.2l1.03-1.27-4.51-4.51-1.27,1.61c-2.64,3.43-5.87,5.91-9.87,7.65-4.01,1.72-8.31,2.59-12.76,2.59-5.92,0-11.28-1.35-15.89-3.99-4.61-2.67-8.29-6.39-10.95-11.08-2.07-3.68-3.35-7.89-3.8-12.52l-.2-1.99h62.85v-2.51h0Z"/>
  </g>
  <g id="g162">
    <path id="path164" class="cls-1" d="M2089.33,331.72l.33-2.11c.56-3.53,1.64-6.85,3.23-9.87,2.48-4.68,5.79-8.25,10.05-10.89,4.32-2.67,9.05-3.97,14.49-3.97s10.37,1.32,14.55,3.96c4.23,2.64,7.61,6.31,10.08,10.91,1.64,3.01,2.75,6.33,3.29,9.87l.32,2.11h-56.35ZM2152.04,335.44c0-.88-.01-1.72-.07-2.52l-.32-3.61c-.65-4.73-2.04-9.07-4.15-12.91-2.99-5.53-7.16-9.92-12.4-13.04s-11.17-4.71-17.67-4.71-12.44,1.64-17.68,4.85c-5.24,3.23-9.39,7.68-12.33,13.27-2.96,5.55-4.44,12.07-4.44,19.35s1.61,13.76,4.8,19.41c3.21,5.68,7.64,10.17,13.17,13.36,5.55,3.21,11.95,4.85,19.08,4.85,5.33,0,10.47-1.05,15.21-3.11,4.8-2.07,8.88-5.17,12.15-9.2l1.04-1.27-4.52-4.52-1.27,1.61c-2.63,3.44-5.85,5.92-9.87,7.65s-8.31,2.6-12.75,2.6c-5.93,0-11.28-1.35-15.91-3.99-4.61-2.67-8.29-6.39-10.93-11.08-2.07-3.68-3.36-7.89-3.81-12.52l-.2-1.99h62.85v-2.51h0Z"/>
  </g>
  <g id="g166">
    <path id="path168" class="cls-1" d="M1635.39,191.9c7.01-6.59,10.52-16.15,10.52-28.71s-3.51-22.21-10.52-28.99c-7.01-6.76-17.77-10.15-32.27-10.15h-15.91v77.72h18.09c13.04,0,23.07-3.29,30.08-9.88M1656.33,115.92c12.19,11.15,18.29,26.67,18.29,46.53s-5.95,35.6-17.83,47.17c-11.89,11.59-30.03,17.37-54.4,17.37h-43.71v-127.81h45.16c22.8,0,40.29,5.57,52.48,16.73"/>
  </g>
  <g id="g170">
    <path id="path172" class="cls-1" d="M1862.03,146.55l-34.56,69.85h-17l-34.37-69.85v80.45h-28.53v-127.81h38.59l32.91,70.21,33.11-70.21h38.39v127.81h-28.52v-80.45h0Z"/>
  </g>
  <g id="g174">
    <path id="path176" class="cls-1" d="M1977.04,227h-28.52v-50.47l-44.25-77.35h30.91l27.6,47.55,27.61-47.55h30.91l-44.25,77.35v50.47h0Z"/>
  </g>
  <g id="g178">
    <path id="path180" class="cls-1" d="M2128.26,162.36c0-11.4-3.65-21.12-10.97-29.16-7.31-8.05-16.31-12.07-26.97-12.07s-19.65,4.01-26.96,12.07c-7.32,8.04-10.97,17.76-10.97,29.16s3.65,21.09,10.97,29.07c7.31,7.99,16.29,11.99,26.96,11.99s19.67-4,26.97-11.99c7.32-7.97,10.97-17.67,10.97-29.07M2137.96,209.35c-12.92,12.63-28.84,18.93-47.72,18.93s-34.81-6.31-47.73-18.93c-12.92-12.61-19.39-28.31-19.39-47.08s6.47-34.47,19.39-47.08c12.92-12.61,28.83-18.93,47.73-18.93s34.8,6.32,47.72,18.93c12.92,12.61,19.37,28.31,19.37,47.08s-6.45,34.47-19.37,47.08"/>
  </g>
  <g id="g182">
    <path id="path184" class="cls-1" d="M955.65,131.55l-16.09,37.12h32l-15.91-37.12ZM994.23,221.32l-11.89-27.6h-53.57l-11.88,27.6h-30.36l55.23-127.8h27.6l55.23,127.8h-30.35Z"/>
  </g>
  <g id="g186">
    <path id="path188" class="cls-1" d="M1039.4,93.51h28.52v52.48l48.28-52.48h35.28l-50.83,56.51c4.39,6.09,12.49,17.45,24.32,34.09s20.67,29.04,26.51,37.21h-33.28l-37.48-50.47-12.8,14.27v36.2h-28.52v-127.81h0Z"/>
  </g>
  <g id="g190">
    <path id="path192" class="cls-1" d="M1169.22,221.33v-127.81h28.52v102.4h54.49v25.41h-83.01Z"/>
  </g>
  <g id="g194">
    <path id="path196" class="cls-1" d="M1325.55,131.55l-16.09,37.12h32l-15.91-37.12ZM1364.13,221.32l-11.89-27.6h-53.57l-11.88,27.6h-30.36l55.23-127.8h27.61l55.21,127.8h-30.35Z"/>
  </g>
  <g id="g198">
    <path id="path200" class="cls-1" d="M1498.72,93.51h28.52v127.81h-28.52l-60.89-80.09v80.09h-28.52v-127.81h26.69l62.72,82.28v-82.28Z"/>
  </g>
  <g id="g202">
    <path id="path204" class="cls-1" d="M882.86,156.6c-2.05,21.79-9.91,36.41-18.69,46.17-13.07,14.45-28.2,18.17-29.73,18.52,19.57-5.72,27.24-20.43,29.73-34.99,1.87-10.83.87-21.56-.25-28.51,0-.03,0-.04-.03-.05-.23-2.09-.61-4.16-1.17-6.17-.05-.17-.09-.36-.13-.51-.05-.16-.07-.32-.12-.49-.09-.31-.13-.47-.13-.47-2.28-7.79-6.6-14.89-12.64-20.56-4.09-3.41-8.68-6.07-13.56-7.93-7.71-2.97-16.12-3.95-24.45-2.73-6.27,1.11-11.68,2.97-16.27,5.4-.07.05-.2.13-.36.23-1.8,1.13-8.27,5.44-11.6,10.45-.65.96-1.19,1.95-1.55,2.95-2.67,5.65-3.99,11.91-3.99,18.79,0,11.4,3.65,21.09,10.97,29.07,7.31,7.99,16.29,11.97,26.96,11.97,6.68,0,12.69-1.56,18.07-4.69.04-.03.07-.04.11-.08,1.09-.56,2.03-1.2,2.88-1.88.04-.03.08-.05.12-.08,8.13-6.56,6.33-16.73,6.17-17.64v-.04h-.01c-1.05-4.44-3.33-8.57-6.71-11.85-5.12-4.77-11.72-7.64-18.67-8.11-1.49-.13-2.16-1.05-2.16-1.91.08-1.05.96-1.85,2.01-1.81h.23c8.47-.29,16.79,2.33,23.57,7.43,3.93,2.95,7.52,8.6,9.59,15.43h0c1.85,6.04,2.51,12.96,1.19,19.67-2.85,14.33-13.53,24.47-30.16,28.69-3.88.93-7.83,1.45-11.72,1.59-13.83.48-27.51-3.92-38.53-12.65-13.61-10.83-22.19-26.73-23.71-44.01-1-8.52-.2-17.07,2.24-25.12,2.71-11.89,8.6-22.28,17.69-31.13,12.91-12.63,28.81-18.93,47.71-18.93s34.8,6.31,47.73,18.93c.23.21.45.44.68.67,12.45,12.48,18.69,27.97,18.69,46.41"/>
  </g>
  <g id="g206">
    <path id="path208" class="cls-1" d="M783.45,134.96c-.56.96-1.07,1.95-1.55,2.93.37-.99.89-1.97,1.55-2.93"/>
  </g>
  <g id="g210">
    <path id="path212" class="cls-1" d="M836.91,212.83c-.85.69-1.8,1.32-2.88,1.89.97-.57,1.93-1.2,2.88-1.89"/>
  </g>
  <g id="g214">
    <path id="path216" class="cls-1" d="M863.89,157.75c-.44-2.72-.89-4.84-1.17-6.17.56,2.01.93,4.09,1.17,6.17"/>
  </g>
  <g id="g218">
    <path id="path220" class="cls-1" d="M843.2,173.32v.04s-.01-.05-.01-.05h.01Z"/>
  </g>
</svg>