<?xml version="1.0" encoding="UTF-8"?>
<svg id="Layer_1" data-name="Layer 1" xmlns="http://www.w3.org/2000/svg" xmlns:xlink="http://www.w3.org/1999/xlink" viewBox="0 0 571 87">
  <defs>
    <style>
      .cls-1 {
        fill: #ed1a3b;
      }

      .cls-1, .cls-2, .cls-3, .cls-4 {
        stroke-width: 0px;
      }

      .cls-2 {
        fill: none;
      }

      .cls-3, .cls-4 {
        fill: #fff;
      }

      .cls-4 {
        fill-rule: evenodd;
      }

      .cls-5 {
        clip-path: url(#clippath);
      }
    </style>
    <clipPath id="clippath">
      <rect class="cls-2" width="571" height="87"/>
    </clipPath>
  </defs>
  <g class="cls-5">
    <g>
      <path class="cls-1" d="M0,0h571v87H0V0Z"/>
      <path class="cls-4" d="M45,30v7c7.22.63,10.89-.37,11-3,.17-3.94-3.48-5.27-11-4h0ZM33,21c26.88-2.64,34.11-.22,35,11-.07,6.04-2.06,9.05-6,9,5.66,3.4,8.33,6.75,8,10,1.48,11.82-10.85,16.16-37,13V21h0ZM45,46.82v7c7.22.63,10.89-.37,11-3,.17-3.94-3.48-5.27-11-4Z"/>
      <path class="cls-3" d="M137,21h31v9h-19v7h16v9h-16v7.82l19,.18v10h-31V21Z"/>
      <path class="cls-3" d="M395,21h31v9h-19v7h16v9h-16v7.82l19,.18v10h-31V21Z"/>
      <path class="cls-4" d="M95,21h14l13,43h-13l-3-9h-11l-3,9h-11l14-43ZM100,34l-3,12h7l-4-12Z"/>
      <path class="cls-3" d="M325,33.69l10-3c-2.62-13.83-32.75-15.58-35,3-.12,15.17,22,12.29,23,17-1.12,4.17-9.88,4.54-13-2l-12,2c3.62,18.04,37.12,17.42,39,0-.12-19.21-20.38-10.33-24-19,3.12-4.08,10.25-2.08,12,2Z"/>
      <path class="cls-3" d="M229.17,33.93l10-3c-2.62-13.83-32.75-15.58-35,3-.12,15.17,22,12.29,23,17-1.12,4.17-9.88,4.54-13-2l-12,2c3.62,18.04,37.12,17.42,39,0-.12-19.21-20.38-10.33-24-19,3.12-4.08,10.25-2.08,12,2Z"/>
      <path class="cls-3" d="M531,34.66l10-3c-2.62-13.83-32.75-15.58-35,3-.12,15.17,22,12.29,23,17-1.12,4.17-9.88,4.54-13-2l-12,2c3.62,18.04,37.12,17.42,39,0-.12-19.21-20.38-10.33-24-19,3.12-4.08,10.25-2.08,12,2Z"/>
      <path class="cls-3" d="M250,21h14l8,13.66,7-13.66h11l-13,24v19h-13v-19l-14-24Z"/>
      <path class="cls-3" d="M349,21v9.93h9v32.07h13V30.93h8v-9.93h-30Z"/>
      <path class="cls-3" d="M443,21h17l7,22,6-22h18v43h-13v-30.31l-8,29.31h-9l-8-29.31v29.31h-10V21Z"/>
    </g>
  </g>
</svg>