<svg width="800" height="800" viewBox="0 0 800 800" fill="none" xmlns="http://www.w3.org/2000/svg">
<path d="M483.087 170.834H460.572C444.665 170.834 431.816 183.805 431.816 199.712V397.699L511.967 414.586V199.712C511.967 183.805 498.994 170.834 483.087 170.834Z" fill="#F17041"/>
<path d="M595.053 105.001H572.538C556.631 105.001 543.781 117.972 543.781 133.879V421.317L623.931 438.203V133.879C623.931 117.972 610.961 105.001 595.053 105.001Z" fill="#F17041"/>
<path d="M371.122 252.45H348.728C332.699 252.45 319.852 265.421 319.852 281.328V374.082L400 390.969V281.328C400 265.421 387.03 252.45 371.122 252.45Z" fill="#F17041"/>
<path d="M232.648 461.863C232.62 461.948 232.62 462.007 232.592 462.092C229.063 478.988 214.175 490.548 197.537 490.548C195.1 490.548 192.661 490.261 190.138 489.831C170.802 485.671 158.439 466.71 162.512 447.377C166.012 430.482 180.929 418.921 197.537 418.921C199.977 418.921 202.414 419.093 204.939 419.638C217.158 422.22 226.625 430.797 230.87 441.64C233.337 447.864 234.083 454.835 232.648 461.863ZM662.177 473.457C630.605 466.793 589.374 458.098 544.029 448.524C544 448.524 543.914 448.524 543.857 448.495C543.053 448.323 540.357 447.75 535.996 446.831C535.079 446.63 534.161 446.458 533.214 446.258C532.296 446.057 531.378 445.856 530.432 445.656C522.313 443.963 510.955 441.554 497.3 438.685C496.153 438.427 495.005 438.197 493.858 437.939C482.642 435.587 470.02 432.92 456.509 430.079C454.903 429.735 453.325 429.392 451.719 429.076C448.966 428.473 446.182 427.899 443.372 427.296C441.22 426.838 439.068 426.379 436.889 425.949C420.968 422.564 404.244 419.035 387.377 415.507C384.94 414.991 382.53 414.475 380.12 413.959C374.728 412.811 369.306 411.664 363.913 410.544C356.885 409.053 349.887 407.561 342.973 406.127C341.338 405.783 339.732 405.438 338.124 405.094C335.629 404.578 333.133 404.061 330.666 403.516C325.503 402.426 320.426 401.365 315.464 400.304C309.726 399.127 304.075 397.924 298.51 396.747C278 392.415 259.671 388.543 245.327 385.531C243.778 385.187 242.23 384.871 240.709 384.556C235.316 383.408 230.583 382.404 226.653 381.573C226.309 381.515 225.965 381.429 225.649 381.372C218.248 379.823 213.888 378.904 213.515 378.819C208.123 377.729 202.788 377.184 197.452 377.184C161.595 377.184 129.352 402.226 121.693 438.714C112.83 480.594 139.65 521.787 181.56 530.564C186.895 531.712 192.317 532.257 197.537 532.257C207.577 532.257 217.331 530.278 226.366 526.663L239.849 523.365C248.799 561.286 267.53 596.082 293.835 624.395C324.126 656.866 364.286 680.789 411.043 690.686C426.533 693.985 442.167 695.562 457.428 695.562C560.695 695.562 653.607 623.419 675.694 518.172L679.509 500.11C682.075 487.953 674.334 476.024 662.177 473.457Z" fill="#F17041"/>
</svg>
